%TF.GenerationSoftware,KiCad,Pcbnew,(6.0.0)*%
%TF.CreationDate,2021-12-29T20:26:28-08:00*%
%TF.ProjectId,enc_breakout,656e635f-6272-4656-916b-6f75742e6b69,rev?*%
%TF.SameCoordinates,Original*%
%TF.FileFunction,Copper,L1,Top*%
%TF.FilePolarity,Positive*%
%FSLAX46Y46*%
G04 Gerber Fmt 4.6, Leading zero omitted, Abs format (unit mm)*
G04 Created by KiCad (PCBNEW (6.0.0)) date 2021-12-29 20:26:28*
%MOMM*%
%LPD*%
G01*
G04 APERTURE LIST*
%TA.AperFunction,ComponentPad*%
%ADD10C,2.540000*%
%TD*%
%TA.AperFunction,ComponentPad*%
%ADD11R,1.700000X1.700000*%
%TD*%
%TA.AperFunction,ComponentPad*%
%ADD12O,1.700000X1.700000*%
%TD*%
%TA.AperFunction,ViaPad*%
%ADD13C,0.800000*%
%TD*%
%TA.AperFunction,Conductor*%
%ADD14C,0.250000*%
%TD*%
G04 APERTURE END LIST*
D10*
%TO.P,X1,A,A*%
%TO.N,ENC_A*%
X156407809Y-97987809D03*
%TO.P,X1,B,B*%
%TO.N,ENC_B*%
X156407809Y-84892191D03*
%TO.P,X1,COM_A,COMA*%
%TO.N,GND*%
X143312191Y-84892191D03*
%TO.P,X1,COM_B,COM_B*%
X146607309Y-107519608D03*
%TO.P,X1,S1,1*%
%TO.N,ENC_BN*%
X148749842Y-92550158D03*
%TO.P,X1,S2,S2*%
%TO.N,ENC_DN*%
X157609890Y-106543801D03*
%TO.P,X1,S3,S3*%
%TO.N,ENC_RT*%
X166010319Y-87833755D03*
%TO.P,X1,S4,S4*%
%TO.N,ENC_UP*%
X142110110Y-76336199D03*
%TO.P,X1,S5,S5*%
%TO.N,ENC_LF*%
X133709681Y-95046245D03*
%TD*%
D11*
%TO.P,J1,1,Pin_1*%
%TO.N,GND*%
X124460000Y-87630000D03*
D12*
%TO.P,J1,2,Pin_2*%
%TO.N,ENC_BN*%
X127000000Y-87630000D03*
%TO.P,J1,3,Pin_3*%
%TO.N,ENC_B*%
X124460000Y-90170000D03*
%TO.P,J1,4,Pin_4*%
%TO.N,ENC_A*%
X127000000Y-90170000D03*
%TO.P,J1,5,Pin_5*%
%TO.N,ENC_LF*%
X124460000Y-92710000D03*
%TO.P,J1,6,Pin_6*%
%TO.N,ENC_UP*%
X127000000Y-92710000D03*
%TO.P,J1,7,Pin_7*%
%TO.N,ENC_RT*%
X124460000Y-95250000D03*
%TO.P,J1,8,Pin_8*%
%TO.N,ENC_DN*%
X127000000Y-95250000D03*
%TD*%
D13*
%TO.N,ENC_B*%
X144780000Y-90170000D03*
%TD*%
D14*
%TO.N,ENC_A*%
X150692809Y-97987809D02*
X156407809Y-97987809D01*
X142875000Y-90170000D02*
X150692809Y-97987809D01*
X127000000Y-90170000D02*
X142875000Y-90170000D01*
%TO.N,ENC_BN*%
X127000000Y-87630000D02*
X143829684Y-87630000D01*
%TO.N,ENC_B*%
X125730000Y-88900000D02*
X143510000Y-88900000D01*
X124460000Y-90170000D02*
X125730000Y-88900000D01*
%TO.N,ENC_BN*%
X143829684Y-87630000D02*
X148749842Y-92550158D01*
%TO.N,ENC_B*%
X143510000Y-88900000D02*
X144780000Y-90170000D01*
%TO.N,ENC_LF*%
X132643436Y-93980000D02*
X133709681Y-95046245D01*
X125730000Y-93980000D02*
X132643436Y-93980000D01*
X124460000Y-92710000D02*
X125730000Y-93980000D01*
%TO.N,ENC_DN*%
X137160000Y-105410000D02*
X156476089Y-105410000D01*
X127000000Y-95250000D02*
X137160000Y-105410000D01*
X156476089Y-105410000D02*
X157609890Y-106543801D01*
%TO.N,ENC_RT*%
X124460000Y-95250000D02*
X125095000Y-95250000D01*
%TD*%
M02*
