%TF.GenerationSoftware,KiCad,Pcbnew,(6.0.0)*%
%TF.CreationDate,2021-12-29T20:26:28-08:00*%
%TF.ProjectId,enc_breakout,656e635f-6272-4656-916b-6f75742e6b69,rev?*%
%TF.SameCoordinates,Original*%
%TF.FileFunction,Copper,L2,Bot*%
%TF.FilePolarity,Positive*%
%FSLAX46Y46*%
G04 Gerber Fmt 4.6, Leading zero omitted, Abs format (unit mm)*
G04 Created by KiCad (PCBNEW (6.0.0)) date 2021-12-29 20:26:28*
%MOMM*%
%LPD*%
G01*
G04 APERTURE LIST*
%TA.AperFunction,ComponentPad*%
%ADD10C,2.540000*%
%TD*%
%TA.AperFunction,ComponentPad*%
%ADD11R,1.700000X1.700000*%
%TD*%
%TA.AperFunction,ComponentPad*%
%ADD12O,1.700000X1.700000*%
%TD*%
%TA.AperFunction,ViaPad*%
%ADD13C,0.800000*%
%TD*%
%TA.AperFunction,Conductor*%
%ADD14C,0.250000*%
%TD*%
G04 APERTURE END LIST*
D10*
%TO.P,X1,A,A*%
%TO.N,ENC_A*%
X156407809Y-97987809D03*
%TO.P,X1,B,B*%
%TO.N,ENC_B*%
X156407809Y-84892191D03*
%TO.P,X1,COM_A,COMA*%
%TO.N,GND*%
X143312191Y-84892191D03*
%TO.P,X1,COM_B,COM_B*%
X146607309Y-107519608D03*
%TO.P,X1,S1,1*%
%TO.N,ENC_BN*%
X148749842Y-92550158D03*
%TO.P,X1,S2,S2*%
%TO.N,ENC_DN*%
X157609890Y-106543801D03*
%TO.P,X1,S3,S3*%
%TO.N,ENC_RT*%
X166010319Y-87833755D03*
%TO.P,X1,S4,S4*%
%TO.N,ENC_UP*%
X142110110Y-76336199D03*
%TO.P,X1,S5,S5*%
%TO.N,ENC_LF*%
X133709681Y-95046245D03*
%TD*%
D11*
%TO.P,J1,1,Pin_1*%
%TO.N,GND*%
X124460000Y-87630000D03*
D12*
%TO.P,J1,2,Pin_2*%
%TO.N,ENC_BN*%
X127000000Y-87630000D03*
%TO.P,J1,3,Pin_3*%
%TO.N,ENC_B*%
X124460000Y-90170000D03*
%TO.P,J1,4,Pin_4*%
%TO.N,ENC_A*%
X127000000Y-90170000D03*
%TO.P,J1,5,Pin_5*%
%TO.N,ENC_LF*%
X124460000Y-92710000D03*
%TO.P,J1,6,Pin_6*%
%TO.N,ENC_UP*%
X127000000Y-92710000D03*
%TO.P,J1,7,Pin_7*%
%TO.N,ENC_RT*%
X124460000Y-95250000D03*
%TO.P,J1,8,Pin_8*%
%TO.N,ENC_DN*%
X127000000Y-95250000D03*
%TD*%
D13*
%TO.N,ENC_B*%
X144780000Y-90170000D03*
%TD*%
D14*
%TO.N,ENC_UP*%
X131445000Y-92710000D02*
X142110110Y-82044890D01*
X127000000Y-92710000D02*
X131445000Y-92710000D01*
X142110110Y-82044890D02*
X142110110Y-76336199D01*
%TO.N,ENC_B*%
X151130000Y-90170000D02*
X144780000Y-90170000D01*
X156407809Y-84892191D02*
X151130000Y-90170000D01*
%TO.N,ENC_RT*%
X162356245Y-87833755D02*
X166010319Y-87833755D01*
X153035000Y-97155000D02*
X162356245Y-87833755D01*
X126365000Y-97155000D02*
X153035000Y-97155000D01*
X124460000Y-95250000D02*
X126365000Y-97155000D01*
%TO.N,ENC_B*%
X124460000Y-90170000D02*
X124904726Y-90170000D01*
%TD*%
%TA.AperFunction,Conductor*%
%TO.N,GND*%
G36*
X170084121Y-71775002D02*
G01*
X170130614Y-71828658D01*
X170142000Y-71881000D01*
X170142000Y-110364000D01*
X170121998Y-110432121D01*
X170068342Y-110478614D01*
X170016000Y-110490000D01*
X121411000Y-110490000D01*
X121342879Y-110469998D01*
X121296386Y-110416342D01*
X121285000Y-110364000D01*
X121285000Y-108943050D01*
X145548612Y-108943050D01*
X145557326Y-108954570D01*
X145658703Y-109028904D01*
X145666602Y-109033840D01*
X145892210Y-109152538D01*
X145900759Y-109156255D01*
X146141422Y-109240298D01*
X146150431Y-109242712D01*
X146400881Y-109290262D01*
X146410136Y-109291316D01*
X146664866Y-109301325D01*
X146674180Y-109300999D01*
X146927579Y-109273248D01*
X146936756Y-109271547D01*
X147183269Y-109206645D01*
X147192089Y-109203608D01*
X147426306Y-109102981D01*
X147434578Y-109098674D01*
X147651345Y-108964535D01*
X147658888Y-108959055D01*
X147660581Y-108957622D01*
X147669019Y-108944819D01*
X147662954Y-108934463D01*
X146620121Y-107891630D01*
X146606177Y-107884016D01*
X146604344Y-107884147D01*
X146597729Y-107888398D01*
X145555270Y-108930857D01*
X145548612Y-108943050D01*
X121285000Y-108943050D01*
X121285000Y-106812703D01*
X122985743Y-106812703D01*
X123023268Y-107097734D01*
X123099129Y-107375036D01*
X123100813Y-107378984D01*
X123202392Y-107617130D01*
X123211923Y-107639476D01*
X123223693Y-107659142D01*
X123319303Y-107818894D01*
X123359561Y-107886161D01*
X123539313Y-108110528D01*
X123559475Y-108129661D01*
X123736795Y-108297931D01*
X123747851Y-108308423D01*
X123981317Y-108476186D01*
X123985112Y-108478195D01*
X123985113Y-108478196D01*
X124006869Y-108489715D01*
X124235392Y-108610712D01*
X124505373Y-108709511D01*
X124786264Y-108770755D01*
X124814841Y-108773004D01*
X125009282Y-108788307D01*
X125009291Y-108788307D01*
X125011739Y-108788500D01*
X125167271Y-108788500D01*
X125169407Y-108788354D01*
X125169418Y-108788354D01*
X125377548Y-108774165D01*
X125377554Y-108774164D01*
X125381825Y-108773873D01*
X125386020Y-108773004D01*
X125386022Y-108773004D01*
X125522583Y-108744724D01*
X125663342Y-108715574D01*
X125934343Y-108619607D01*
X126189812Y-108487750D01*
X126193313Y-108485289D01*
X126193317Y-108485287D01*
X126351228Y-108374305D01*
X126425023Y-108322441D01*
X126526358Y-108228275D01*
X126632479Y-108129661D01*
X126632481Y-108129658D01*
X126635622Y-108126740D01*
X126817713Y-107904268D01*
X126967927Y-107659142D01*
X127033384Y-107510028D01*
X127047616Y-107477607D01*
X144825158Y-107477607D01*
X144837389Y-107732227D01*
X144838526Y-107741487D01*
X144888256Y-107991502D01*
X144890750Y-108000495D01*
X144976887Y-108240405D01*
X144980687Y-108248940D01*
X145101340Y-108473485D01*
X145106354Y-108481356D01*
X145172463Y-108569887D01*
X145183723Y-108578337D01*
X145196141Y-108571566D01*
X146235287Y-107532420D01*
X146241665Y-107520740D01*
X146971717Y-107520740D01*
X146971848Y-107522573D01*
X146976099Y-107529188D01*
X148021695Y-108574784D01*
X148034075Y-108581544D01*
X148042416Y-108575300D01*
X148171700Y-108374305D01*
X148176147Y-108366114D01*
X148280845Y-108133693D01*
X148284040Y-108124915D01*
X148353232Y-107879576D01*
X148355090Y-107870447D01*
X148387453Y-107616052D01*
X148387934Y-107609766D01*
X148390212Y-107522768D01*
X148390061Y-107516459D01*
X148371056Y-107260718D01*
X148369679Y-107251512D01*
X148313418Y-107002870D01*
X148310694Y-106993959D01*
X148218299Y-106756366D01*
X148214288Y-106747957D01*
X148087791Y-106526635D01*
X148082578Y-106518906D01*
X148065400Y-106497115D01*
X155827014Y-106497115D01*
X155827238Y-106501781D01*
X155827238Y-106501786D01*
X155829408Y-106546961D01*
X155839697Y-106761153D01*
X155849951Y-106812703D01*
X155887778Y-107002870D01*
X155891268Y-107020417D01*
X155892847Y-107024815D01*
X155892849Y-107024822D01*
X155957704Y-107205457D01*
X155980594Y-107269211D01*
X155982811Y-107273337D01*
X156092569Y-107477607D01*
X156105712Y-107502068D01*
X156108507Y-107505812D01*
X156108509Y-107505814D01*
X156225735Y-107662799D01*
X156263875Y-107713874D01*
X156267182Y-107717152D01*
X156267187Y-107717158D01*
X156435509Y-107884016D01*
X156451608Y-107899975D01*
X156664786Y-108056284D01*
X156668921Y-108058460D01*
X156668925Y-108058462D01*
X156767887Y-108110528D01*
X156898726Y-108179366D01*
X157148290Y-108266517D01*
X157152883Y-108267389D01*
X157403405Y-108314952D01*
X157403408Y-108314952D01*
X157407994Y-108315823D01*
X157540064Y-108321013D01*
X157667465Y-108326019D01*
X157667471Y-108326019D01*
X157672133Y-108326202D01*
X157934905Y-108297423D01*
X157939416Y-108296235D01*
X157939418Y-108296235D01*
X158186014Y-108231312D01*
X158186016Y-108231311D01*
X158190537Y-108230121D01*
X158305081Y-108180909D01*
X158429119Y-108127618D01*
X158429121Y-108127617D01*
X158433413Y-108125773D01*
X158575808Y-108037656D01*
X158654222Y-107989132D01*
X158654224Y-107989131D01*
X158658197Y-107986672D01*
X158755537Y-107904268D01*
X158856386Y-107818894D01*
X158856388Y-107818892D01*
X158859953Y-107815874D01*
X159034246Y-107617130D01*
X159088734Y-107532420D01*
X159174721Y-107398737D01*
X159177249Y-107394807D01*
X159285820Y-107153789D01*
X159357573Y-106899371D01*
X159368599Y-106812703D01*
X164260743Y-106812703D01*
X164298268Y-107097734D01*
X164374129Y-107375036D01*
X164375813Y-107378984D01*
X164477392Y-107617130D01*
X164486923Y-107639476D01*
X164498693Y-107659142D01*
X164594303Y-107818894D01*
X164634561Y-107886161D01*
X164814313Y-108110528D01*
X164834475Y-108129661D01*
X165011795Y-108297931D01*
X165022851Y-108308423D01*
X165256317Y-108476186D01*
X165260112Y-108478195D01*
X165260113Y-108478196D01*
X165281869Y-108489715D01*
X165510392Y-108610712D01*
X165780373Y-108709511D01*
X166061264Y-108770755D01*
X166089841Y-108773004D01*
X166284282Y-108788307D01*
X166284291Y-108788307D01*
X166286739Y-108788500D01*
X166442271Y-108788500D01*
X166444407Y-108788354D01*
X166444418Y-108788354D01*
X166652548Y-108774165D01*
X166652554Y-108774164D01*
X166656825Y-108773873D01*
X166661020Y-108773004D01*
X166661022Y-108773004D01*
X166797583Y-108744724D01*
X166938342Y-108715574D01*
X167209343Y-108619607D01*
X167464812Y-108487750D01*
X167468313Y-108485289D01*
X167468317Y-108485287D01*
X167626228Y-108374305D01*
X167700023Y-108322441D01*
X167801358Y-108228275D01*
X167907479Y-108129661D01*
X167907481Y-108129658D01*
X167910622Y-108126740D01*
X168092713Y-107904268D01*
X168242927Y-107659142D01*
X168308384Y-107510028D01*
X168356757Y-107399830D01*
X168358483Y-107395898D01*
X168393396Y-107273337D01*
X168436068Y-107123534D01*
X168437244Y-107119406D01*
X168477751Y-106834784D01*
X168477845Y-106816951D01*
X168479235Y-106551583D01*
X168479235Y-106551576D01*
X168479257Y-106547297D01*
X168473266Y-106501786D01*
X168462190Y-106417660D01*
X168441732Y-106262266D01*
X168365871Y-105984964D01*
X168307546Y-105848224D01*
X168254763Y-105724476D01*
X168254761Y-105724472D01*
X168253077Y-105720524D01*
X168105439Y-105473839D01*
X167925687Y-105249472D01*
X167717149Y-105051577D01*
X167483683Y-104883814D01*
X167461843Y-104872250D01*
X167438654Y-104859972D01*
X167229608Y-104749288D01*
X166959627Y-104650489D01*
X166678736Y-104589245D01*
X166647685Y-104586801D01*
X166455718Y-104571693D01*
X166455709Y-104571693D01*
X166453261Y-104571500D01*
X166297729Y-104571500D01*
X166295593Y-104571646D01*
X166295582Y-104571646D01*
X166087452Y-104585835D01*
X166087446Y-104585836D01*
X166083175Y-104586127D01*
X166078980Y-104586996D01*
X166078978Y-104586996D01*
X165942417Y-104615276D01*
X165801658Y-104644426D01*
X165530657Y-104740393D01*
X165275188Y-104872250D01*
X165271687Y-104874711D01*
X165271683Y-104874713D01*
X165157582Y-104954905D01*
X165039977Y-105037559D01*
X164829378Y-105233260D01*
X164647287Y-105455732D01*
X164497073Y-105700858D01*
X164495347Y-105704791D01*
X164495346Y-105704792D01*
X164459124Y-105787309D01*
X164381517Y-105964102D01*
X164302756Y-106240594D01*
X164272485Y-106453296D01*
X164265584Y-106501786D01*
X164262249Y-106525216D01*
X164262227Y-106529505D01*
X164262226Y-106529512D01*
X164261013Y-106761153D01*
X164260743Y-106812703D01*
X159368599Y-106812703D01*
X159390933Y-106637141D01*
X159393377Y-106543801D01*
X159389247Y-106488220D01*
X159374133Y-106284837D01*
X159374132Y-106284833D01*
X159373787Y-106280185D01*
X159315447Y-106022360D01*
X159302514Y-105989103D01*
X159221332Y-105780343D01*
X159221331Y-105780341D01*
X159219639Y-105775990D01*
X159200982Y-105743346D01*
X159090787Y-105550546D01*
X159088468Y-105546488D01*
X158924815Y-105338895D01*
X158732275Y-105157771D01*
X158695102Y-105131983D01*
X158518916Y-105009759D01*
X158518911Y-105009756D01*
X158515078Y-105007097D01*
X158510887Y-105005030D01*
X158282184Y-104892246D01*
X158282181Y-104892245D01*
X158277996Y-104890181D01*
X158265938Y-104886321D01*
X158030682Y-104811015D01*
X158030684Y-104811015D01*
X158026237Y-104809592D01*
X157883715Y-104786381D01*
X157769943Y-104767852D01*
X157769942Y-104767852D01*
X157765331Y-104767101D01*
X157633171Y-104765371D01*
X157505688Y-104763702D01*
X157505685Y-104763702D01*
X157501011Y-104763641D01*
X157239082Y-104799287D01*
X157234592Y-104800596D01*
X157234586Y-104800597D01*
X157126622Y-104832066D01*
X156985300Y-104873258D01*
X156981053Y-104875216D01*
X156981050Y-104875217D01*
X156890840Y-104916805D01*
X156745238Y-104983928D01*
X156741329Y-104986491D01*
X156528085Y-105126300D01*
X156528080Y-105126304D01*
X156524172Y-105128866D01*
X156326957Y-105304887D01*
X156157926Y-105508125D01*
X156020791Y-105734115D01*
X156018985Y-105738423D01*
X156018984Y-105738424D01*
X155922619Y-105968230D01*
X155918567Y-105977892D01*
X155917416Y-105982424D01*
X155917415Y-105982427D01*
X155906116Y-106026917D01*
X155853498Y-106234102D01*
X155827014Y-106497115D01*
X148065400Y-106497115D01*
X148042942Y-106468627D01*
X148031018Y-106460157D01*
X148019483Y-106466644D01*
X146979331Y-107506796D01*
X146971717Y-107520740D01*
X146241665Y-107520740D01*
X146242901Y-107518476D01*
X146242770Y-107516643D01*
X146238519Y-107510028D01*
X145194428Y-106465937D01*
X145181120Y-106458670D01*
X145171081Y-106465792D01*
X145158742Y-106480628D01*
X145153327Y-106488220D01*
X145021085Y-106706148D01*
X145016847Y-106714465D01*
X144918270Y-106949543D01*
X144915309Y-106958393D01*
X144852564Y-107205457D01*
X144850942Y-107214654D01*
X144825403Y-107468281D01*
X144825158Y-107477607D01*
X127047616Y-107477607D01*
X127081757Y-107399830D01*
X127083483Y-107395898D01*
X127118396Y-107273337D01*
X127161068Y-107123534D01*
X127162244Y-107119406D01*
X127202751Y-106834784D01*
X127202845Y-106816951D01*
X127204235Y-106551583D01*
X127204235Y-106551576D01*
X127204257Y-106547297D01*
X127198266Y-106501786D01*
X127187190Y-106417660D01*
X127166732Y-106262266D01*
X127120690Y-106093965D01*
X145546079Y-106093965D01*
X145550652Y-106103741D01*
X146594497Y-107147586D01*
X146608441Y-107155200D01*
X146610274Y-107155069D01*
X146616889Y-107150818D01*
X147660099Y-106107608D01*
X147666483Y-106095918D01*
X147657071Y-106083807D01*
X147516085Y-105986000D01*
X147508050Y-105981267D01*
X147279415Y-105868517D01*
X147270782Y-105865029D01*
X147027984Y-105787309D01*
X147018933Y-105785136D01*
X146767318Y-105744158D01*
X146758029Y-105743346D01*
X146503137Y-105740009D01*
X146493826Y-105740579D01*
X146241236Y-105774955D01*
X146232117Y-105776893D01*
X145987393Y-105848224D01*
X145978640Y-105851496D01*
X145747146Y-105958216D01*
X145738991Y-105962736D01*
X145555216Y-106083224D01*
X145546079Y-106093965D01*
X127120690Y-106093965D01*
X127090871Y-105984964D01*
X127032546Y-105848224D01*
X126979763Y-105724476D01*
X126979761Y-105724472D01*
X126978077Y-105720524D01*
X126830439Y-105473839D01*
X126650687Y-105249472D01*
X126442149Y-105051577D01*
X126208683Y-104883814D01*
X126186843Y-104872250D01*
X126163654Y-104859972D01*
X125954608Y-104749288D01*
X125684627Y-104650489D01*
X125403736Y-104589245D01*
X125372685Y-104586801D01*
X125180718Y-104571693D01*
X125180709Y-104571693D01*
X125178261Y-104571500D01*
X125022729Y-104571500D01*
X125020593Y-104571646D01*
X125020582Y-104571646D01*
X124812452Y-104585835D01*
X124812446Y-104585836D01*
X124808175Y-104586127D01*
X124803980Y-104586996D01*
X124803978Y-104586996D01*
X124667417Y-104615276D01*
X124526658Y-104644426D01*
X124255657Y-104740393D01*
X124000188Y-104872250D01*
X123996687Y-104874711D01*
X123996683Y-104874713D01*
X123882582Y-104954905D01*
X123764977Y-105037559D01*
X123554378Y-105233260D01*
X123372287Y-105455732D01*
X123222073Y-105700858D01*
X123220347Y-105704791D01*
X123220346Y-105704792D01*
X123184124Y-105787309D01*
X123106517Y-105964102D01*
X123027756Y-106240594D01*
X122997485Y-106453296D01*
X122990584Y-106501786D01*
X122987249Y-106525216D01*
X122987227Y-106529505D01*
X122987226Y-106529512D01*
X122986013Y-106761153D01*
X122985743Y-106812703D01*
X121285000Y-106812703D01*
X121285000Y-102204423D01*
X136744898Y-102204423D01*
X136784458Y-102517577D01*
X136862955Y-102823304D01*
X136979151Y-103116781D01*
X137131214Y-103393381D01*
X137316744Y-103648742D01*
X137532816Y-103878835D01*
X137776023Y-104080034D01*
X138042529Y-104249164D01*
X138046108Y-104250848D01*
X138046115Y-104250852D01*
X138324542Y-104381869D01*
X138324546Y-104381871D01*
X138328132Y-104383558D01*
X138628326Y-104481097D01*
X138938378Y-104540243D01*
X139174560Y-104555102D01*
X139332236Y-104555102D01*
X139568418Y-104540243D01*
X139878470Y-104481097D01*
X140178664Y-104383558D01*
X140182250Y-104381871D01*
X140182254Y-104381869D01*
X140460681Y-104250852D01*
X140460688Y-104250848D01*
X140464267Y-104249164D01*
X140730773Y-104080034D01*
X140973980Y-103878835D01*
X141190052Y-103648742D01*
X141375582Y-103393381D01*
X141527645Y-103116781D01*
X141643841Y-102823304D01*
X141722338Y-102517577D01*
X141761898Y-102204423D01*
X157958102Y-102204423D01*
X157997662Y-102517577D01*
X158076159Y-102823304D01*
X158192355Y-103116781D01*
X158344418Y-103393381D01*
X158529948Y-103648742D01*
X158746020Y-103878835D01*
X158989227Y-104080034D01*
X159255733Y-104249164D01*
X159259312Y-104250848D01*
X159259319Y-104250852D01*
X159537746Y-104381869D01*
X159537750Y-104381871D01*
X159541336Y-104383558D01*
X159841530Y-104481097D01*
X160151582Y-104540243D01*
X160387764Y-104555102D01*
X160545440Y-104555102D01*
X160781622Y-104540243D01*
X161091674Y-104481097D01*
X161391868Y-104383558D01*
X161395454Y-104381871D01*
X161395458Y-104381869D01*
X161673885Y-104250852D01*
X161673892Y-104250848D01*
X161677471Y-104249164D01*
X161943977Y-104080034D01*
X162187184Y-103878835D01*
X162403256Y-103648742D01*
X162588786Y-103393381D01*
X162740849Y-103116781D01*
X162857045Y-102823304D01*
X162935542Y-102517577D01*
X162975102Y-102204423D01*
X162975102Y-101888781D01*
X162935542Y-101575627D01*
X162857045Y-101269900D01*
X162740849Y-100976423D01*
X162588786Y-100699823D01*
X162403256Y-100444462D01*
X162187184Y-100214369D01*
X161943977Y-100013170D01*
X161677471Y-99844040D01*
X161673892Y-99842356D01*
X161673885Y-99842352D01*
X161395458Y-99711335D01*
X161395454Y-99711333D01*
X161391868Y-99709646D01*
X161286224Y-99675320D01*
X161095450Y-99613334D01*
X161095452Y-99613334D01*
X161091674Y-99612107D01*
X160781622Y-99552961D01*
X160545440Y-99538102D01*
X160387764Y-99538102D01*
X160151582Y-99552961D01*
X159841530Y-99612107D01*
X159837752Y-99613334D01*
X159837754Y-99613334D01*
X159646981Y-99675320D01*
X159541336Y-99709646D01*
X159537750Y-99711333D01*
X159537746Y-99711335D01*
X159259319Y-99842352D01*
X159259312Y-99842356D01*
X159255733Y-99844040D01*
X158989227Y-100013170D01*
X158746020Y-100214369D01*
X158529948Y-100444462D01*
X158344418Y-100699823D01*
X158192355Y-100976423D01*
X158076159Y-101269900D01*
X157997662Y-101575627D01*
X157958102Y-101888781D01*
X157958102Y-102204423D01*
X141761898Y-102204423D01*
X141761898Y-101888781D01*
X141722338Y-101575627D01*
X141643841Y-101269900D01*
X141527645Y-100976423D01*
X141375582Y-100699823D01*
X141190052Y-100444462D01*
X140973980Y-100214369D01*
X140730773Y-100013170D01*
X140464267Y-99844040D01*
X140460688Y-99842356D01*
X140460681Y-99842352D01*
X140182254Y-99711335D01*
X140182250Y-99711333D01*
X140178664Y-99709646D01*
X140073020Y-99675320D01*
X139882246Y-99613334D01*
X139882248Y-99613334D01*
X139878470Y-99612107D01*
X139568418Y-99552961D01*
X139332236Y-99538102D01*
X139174560Y-99538102D01*
X138938378Y-99552961D01*
X138628326Y-99612107D01*
X138624548Y-99613334D01*
X138624550Y-99613334D01*
X138433777Y-99675320D01*
X138328132Y-99709646D01*
X138324546Y-99711333D01*
X138324542Y-99711335D01*
X138046115Y-99842352D01*
X138046108Y-99842356D01*
X138042529Y-99844040D01*
X137776023Y-100013170D01*
X137532816Y-100214369D01*
X137316744Y-100444462D01*
X137131214Y-100699823D01*
X136979151Y-100976423D01*
X136862955Y-101269900D01*
X136784458Y-101575627D01*
X136744898Y-101888781D01*
X136744898Y-102204423D01*
X121285000Y-102204423D01*
X121285000Y-97941123D01*
X154624933Y-97941123D01*
X154625157Y-97945789D01*
X154625157Y-97945794D01*
X154627327Y-97990969D01*
X154637616Y-98205161D01*
X154689187Y-98464425D01*
X154690766Y-98468823D01*
X154690768Y-98468830D01*
X154776930Y-98708810D01*
X154778513Y-98713219D01*
X154780730Y-98717345D01*
X154848110Y-98842745D01*
X154903631Y-98946076D01*
X154906426Y-98949820D01*
X154906428Y-98949822D01*
X154989552Y-99061138D01*
X155061794Y-99157882D01*
X155065101Y-99161160D01*
X155065106Y-99161166D01*
X155164688Y-99259882D01*
X155249527Y-99343983D01*
X155462705Y-99500292D01*
X155466840Y-99502468D01*
X155466844Y-99502470D01*
X155534570Y-99538102D01*
X155696645Y-99623374D01*
X155946209Y-99710525D01*
X155950802Y-99711397D01*
X156201324Y-99758960D01*
X156201327Y-99758960D01*
X156205913Y-99759831D01*
X156337982Y-99765020D01*
X156465384Y-99770027D01*
X156465390Y-99770027D01*
X156470052Y-99770210D01*
X156732824Y-99741431D01*
X156737335Y-99740243D01*
X156737337Y-99740243D01*
X156983933Y-99675320D01*
X156983935Y-99675319D01*
X156988456Y-99674129D01*
X157103000Y-99624917D01*
X157227038Y-99571626D01*
X157227040Y-99571625D01*
X157231332Y-99569781D01*
X157456116Y-99430680D01*
X157472597Y-99416728D01*
X157654305Y-99262902D01*
X157654307Y-99262900D01*
X157657872Y-99259882D01*
X157832165Y-99061138D01*
X157906176Y-98946076D01*
X157972640Y-98842745D01*
X157975168Y-98838815D01*
X158083739Y-98597797D01*
X158155492Y-98343379D01*
X158188852Y-98081149D01*
X158191296Y-97987809D01*
X158176780Y-97792474D01*
X158172052Y-97728845D01*
X158172051Y-97728841D01*
X158171706Y-97724193D01*
X158113366Y-97466368D01*
X158097837Y-97426435D01*
X158019251Y-97224351D01*
X158019250Y-97224349D01*
X158017558Y-97219998D01*
X157991344Y-97174132D01*
X157888706Y-96994554D01*
X157886387Y-96990496D01*
X157722734Y-96782903D01*
X157530194Y-96601779D01*
X157504602Y-96584025D01*
X157316835Y-96453767D01*
X157316830Y-96453764D01*
X157312997Y-96451105D01*
X157308806Y-96449038D01*
X157080103Y-96336254D01*
X157080100Y-96336253D01*
X157075915Y-96334189D01*
X157018959Y-96315957D01*
X156828601Y-96255023D01*
X156828603Y-96255023D01*
X156824156Y-96253600D01*
X156662299Y-96227240D01*
X156567862Y-96211860D01*
X156567861Y-96211860D01*
X156563250Y-96211109D01*
X156431090Y-96209379D01*
X156303607Y-96207710D01*
X156303604Y-96207710D01*
X156298930Y-96207649D01*
X156037001Y-96243295D01*
X156032511Y-96244604D01*
X156032505Y-96244605D01*
X155924541Y-96276074D01*
X155783219Y-96317266D01*
X155778972Y-96319224D01*
X155778969Y-96319225D01*
X155688759Y-96360813D01*
X155543157Y-96427936D01*
X155510971Y-96449038D01*
X155326004Y-96570308D01*
X155325999Y-96570312D01*
X155322091Y-96572874D01*
X155124876Y-96748895D01*
X154955845Y-96952133D01*
X154818710Y-97178123D01*
X154716486Y-97421900D01*
X154715335Y-97426432D01*
X154715334Y-97426435D01*
X154704035Y-97470925D01*
X154651417Y-97678110D01*
X154624933Y-97941123D01*
X121285000Y-97941123D01*
X121285000Y-95216695D01*
X123097251Y-95216695D01*
X123097548Y-95221848D01*
X123097548Y-95221851D01*
X123103011Y-95316590D01*
X123110110Y-95439715D01*
X123111247Y-95444761D01*
X123111248Y-95444767D01*
X123115080Y-95461770D01*
X123159222Y-95657639D01*
X123243266Y-95864616D01*
X123245965Y-95869020D01*
X123331290Y-96008258D01*
X123359987Y-96055088D01*
X123506250Y-96223938D01*
X123678126Y-96366632D01*
X123871000Y-96479338D01*
X123875825Y-96481180D01*
X123875826Y-96481181D01*
X123896606Y-96489116D01*
X124079692Y-96559030D01*
X124084760Y-96560061D01*
X124084763Y-96560062D01*
X124163057Y-96575991D01*
X124298597Y-96603567D01*
X124303772Y-96603757D01*
X124303774Y-96603757D01*
X124516673Y-96611564D01*
X124516677Y-96611564D01*
X124521837Y-96611753D01*
X124526957Y-96611097D01*
X124526959Y-96611097D01*
X124738288Y-96584025D01*
X124738289Y-96584025D01*
X124743416Y-96583368D01*
X124748367Y-96581883D01*
X124748370Y-96581882D01*
X124789829Y-96569444D01*
X124860825Y-96569028D01*
X124915129Y-96601033D01*
X125861359Y-97547264D01*
X125868888Y-97555538D01*
X125873000Y-97562018D01*
X125878777Y-97567443D01*
X125922651Y-97608643D01*
X125925493Y-97611398D01*
X125945230Y-97631135D01*
X125948427Y-97633615D01*
X125957447Y-97641318D01*
X125989679Y-97671586D01*
X125996625Y-97675405D01*
X125996628Y-97675407D01*
X126007434Y-97681348D01*
X126023953Y-97692199D01*
X126039959Y-97704614D01*
X126047228Y-97707759D01*
X126047232Y-97707762D01*
X126080537Y-97722174D01*
X126091187Y-97727391D01*
X126129940Y-97748695D01*
X126137615Y-97750666D01*
X126137616Y-97750666D01*
X126149562Y-97753733D01*
X126168267Y-97760137D01*
X126186855Y-97768181D01*
X126194678Y-97769420D01*
X126194688Y-97769423D01*
X126230524Y-97775099D01*
X126242144Y-97777505D01*
X126273959Y-97785673D01*
X126284970Y-97788500D01*
X126305224Y-97788500D01*
X126324934Y-97790051D01*
X126344943Y-97793220D01*
X126352835Y-97792474D01*
X126371580Y-97790702D01*
X126388962Y-97789059D01*
X126400819Y-97788500D01*
X152956233Y-97788500D01*
X152967416Y-97789027D01*
X152974909Y-97790702D01*
X152982835Y-97790453D01*
X152982836Y-97790453D01*
X153042986Y-97788562D01*
X153046945Y-97788500D01*
X153074856Y-97788500D01*
X153078791Y-97788003D01*
X153078856Y-97787995D01*
X153090693Y-97787062D01*
X153122951Y-97786048D01*
X153126970Y-97785922D01*
X153134889Y-97785673D01*
X153154343Y-97780021D01*
X153173700Y-97776013D01*
X153185930Y-97774468D01*
X153185931Y-97774468D01*
X153193797Y-97773474D01*
X153201168Y-97770555D01*
X153201170Y-97770555D01*
X153234912Y-97757196D01*
X153246142Y-97753351D01*
X153280983Y-97743229D01*
X153280984Y-97743229D01*
X153288593Y-97741018D01*
X153295412Y-97736985D01*
X153295417Y-97736983D01*
X153306028Y-97730707D01*
X153323776Y-97722012D01*
X153342617Y-97714552D01*
X153378387Y-97688564D01*
X153388307Y-97682048D01*
X153419535Y-97663580D01*
X153419538Y-97663578D01*
X153426362Y-97659542D01*
X153440683Y-97645221D01*
X153455717Y-97632380D01*
X153465694Y-97625131D01*
X153472107Y-97620472D01*
X153500298Y-97586395D01*
X153508288Y-97577616D01*
X162581745Y-88504160D01*
X162644057Y-88470134D01*
X162670840Y-88467255D01*
X164259388Y-88467255D01*
X164327509Y-88487257D01*
X164374002Y-88540913D01*
X164377970Y-88550663D01*
X164381023Y-88559165D01*
X164383240Y-88563291D01*
X164483155Y-88749242D01*
X164506141Y-88792022D01*
X164508936Y-88795766D01*
X164508938Y-88795768D01*
X164641513Y-88973307D01*
X164664304Y-89003828D01*
X164667611Y-89007106D01*
X164667616Y-89007112D01*
X164848721Y-89186642D01*
X164852037Y-89189929D01*
X165065215Y-89346238D01*
X165069350Y-89348414D01*
X165069354Y-89348416D01*
X165158926Y-89395542D01*
X165299155Y-89469320D01*
X165375684Y-89496045D01*
X165480675Y-89532709D01*
X165548719Y-89556471D01*
X165553312Y-89557343D01*
X165803834Y-89604906D01*
X165803837Y-89604906D01*
X165808423Y-89605777D01*
X165940492Y-89610966D01*
X166067894Y-89615973D01*
X166067900Y-89615973D01*
X166072562Y-89616156D01*
X166335334Y-89587377D01*
X166339845Y-89586189D01*
X166339847Y-89586189D01*
X166586443Y-89521266D01*
X166586445Y-89521265D01*
X166590966Y-89520075D01*
X166603661Y-89514621D01*
X166829548Y-89417572D01*
X166829550Y-89417571D01*
X166833842Y-89415727D01*
X166994347Y-89316403D01*
X167054651Y-89279086D01*
X167054653Y-89279085D01*
X167058626Y-89276626D01*
X167077888Y-89260320D01*
X167256815Y-89108848D01*
X167256817Y-89108846D01*
X167260382Y-89105828D01*
X167434675Y-88907084D01*
X167439783Y-88899144D01*
X167575150Y-88688691D01*
X167577678Y-88684761D01*
X167686249Y-88443743D01*
X167758002Y-88189325D01*
X167777582Y-88035412D01*
X167790964Y-87930226D01*
X167790964Y-87930220D01*
X167791362Y-87927095D01*
X167791599Y-87918069D01*
X167793723Y-87836915D01*
X167793806Y-87833755D01*
X167791580Y-87803794D01*
X167774562Y-87574791D01*
X167774561Y-87574787D01*
X167774216Y-87570139D01*
X167715876Y-87312314D01*
X167711162Y-87300191D01*
X167621761Y-87070297D01*
X167621760Y-87070295D01*
X167620068Y-87065944D01*
X167593854Y-87020078D01*
X167491216Y-86840500D01*
X167488897Y-86836442D01*
X167325244Y-86628849D01*
X167132704Y-86447725D01*
X167095531Y-86421937D01*
X166919345Y-86299713D01*
X166919340Y-86299710D01*
X166915507Y-86297051D01*
X166911316Y-86294984D01*
X166682613Y-86182200D01*
X166682610Y-86182199D01*
X166678425Y-86180135D01*
X166621469Y-86161903D01*
X166431111Y-86100969D01*
X166431113Y-86100969D01*
X166426666Y-86099546D01*
X166284144Y-86076335D01*
X166170372Y-86057806D01*
X166170371Y-86057806D01*
X166165760Y-86057055D01*
X166033600Y-86055325D01*
X165906117Y-86053656D01*
X165906114Y-86053656D01*
X165901440Y-86053595D01*
X165639511Y-86089241D01*
X165635021Y-86090550D01*
X165635015Y-86090551D01*
X165527051Y-86122020D01*
X165385729Y-86163212D01*
X165381482Y-86165170D01*
X165381479Y-86165171D01*
X165291269Y-86206759D01*
X165145667Y-86273882D01*
X165120906Y-86290116D01*
X164928514Y-86416254D01*
X164928509Y-86416258D01*
X164924601Y-86418820D01*
X164921109Y-86421937D01*
X164747751Y-86576665D01*
X164727386Y-86594841D01*
X164558355Y-86798079D01*
X164421220Y-87024069D01*
X164419413Y-87028377D01*
X164419411Y-87028382D01*
X164379743Y-87122980D01*
X164334955Y-87178066D01*
X164263546Y-87200255D01*
X162435012Y-87200255D01*
X162423829Y-87199728D01*
X162416336Y-87198053D01*
X162408410Y-87198302D01*
X162408409Y-87198302D01*
X162348259Y-87200193D01*
X162344300Y-87200255D01*
X162316389Y-87200255D01*
X162312455Y-87200752D01*
X162312454Y-87200752D01*
X162312389Y-87200760D01*
X162300552Y-87201693D01*
X162268735Y-87202693D01*
X162264274Y-87202833D01*
X162256355Y-87203082D01*
X162238699Y-87208211D01*
X162236903Y-87208733D01*
X162217551Y-87212741D01*
X162210480Y-87213635D01*
X162197448Y-87215281D01*
X162190079Y-87218198D01*
X162190077Y-87218199D01*
X162156342Y-87231555D01*
X162145114Y-87235400D01*
X162102652Y-87247737D01*
X162095829Y-87251772D01*
X162095827Y-87251773D01*
X162085217Y-87258048D01*
X162067469Y-87266743D01*
X162048628Y-87274203D01*
X162042212Y-87278865D01*
X162042211Y-87278865D01*
X162012858Y-87300191D01*
X162002938Y-87306707D01*
X161971710Y-87325175D01*
X161971707Y-87325177D01*
X161964883Y-87329213D01*
X161950562Y-87343534D01*
X161935529Y-87356374D01*
X161919138Y-87368283D01*
X161914087Y-87374389D01*
X161890947Y-87402360D01*
X161882957Y-87411139D01*
X154569909Y-94724186D01*
X154507597Y-94758212D01*
X154436782Y-94753147D01*
X154379946Y-94710600D01*
X154355135Y-94644080D01*
X154355223Y-94632963D01*
X154355000Y-94632963D01*
X154355000Y-94627456D01*
X154355479Y-94621981D01*
X154335524Y-94393894D01*
X154305753Y-94282787D01*
X154277688Y-94178048D01*
X154277687Y-94178046D01*
X154276265Y-94172738D01*
X154258190Y-94133975D01*
X154181830Y-93970219D01*
X154181827Y-93970214D01*
X154179504Y-93965232D01*
X154080141Y-93823327D01*
X154051338Y-93782192D01*
X154051336Y-93782189D01*
X154048179Y-93777681D01*
X153886281Y-93615783D01*
X153881773Y-93612626D01*
X153881770Y-93612624D01*
X153803592Y-93557883D01*
X153698730Y-93484458D01*
X153693748Y-93482135D01*
X153693743Y-93482132D01*
X153496206Y-93390020D01*
X153496205Y-93390020D01*
X153491224Y-93387697D01*
X153485916Y-93386275D01*
X153485914Y-93386274D01*
X153275383Y-93329862D01*
X153275381Y-93329862D01*
X153270068Y-93328438D01*
X153170501Y-93319727D01*
X153101832Y-93313719D01*
X153101825Y-93313719D01*
X153099108Y-93313481D01*
X152984854Y-93313481D01*
X152982137Y-93313719D01*
X152982130Y-93313719D01*
X152913461Y-93319727D01*
X152813894Y-93328438D01*
X152808581Y-93329862D01*
X152808579Y-93329862D01*
X152598048Y-93386274D01*
X152598046Y-93386275D01*
X152592738Y-93387697D01*
X152587757Y-93390020D01*
X152587756Y-93390020D01*
X152390219Y-93482132D01*
X152390214Y-93482135D01*
X152385232Y-93484458D01*
X152280370Y-93557883D01*
X152202192Y-93612624D01*
X152202189Y-93612626D01*
X152197681Y-93615783D01*
X152035783Y-93777681D01*
X152032626Y-93782189D01*
X152032624Y-93782192D01*
X152003821Y-93823327D01*
X151904458Y-93965232D01*
X151902135Y-93970214D01*
X151902132Y-93970219D01*
X151825772Y-94133975D01*
X151807697Y-94172738D01*
X151806275Y-94178046D01*
X151806274Y-94178048D01*
X151778209Y-94282787D01*
X151748438Y-94393894D01*
X151728483Y-94621981D01*
X151748438Y-94850068D01*
X151749862Y-94855381D01*
X151749862Y-94855383D01*
X151801851Y-95049405D01*
X151807697Y-95071224D01*
X151810020Y-95076205D01*
X151810020Y-95076206D01*
X151902132Y-95273743D01*
X151902135Y-95273748D01*
X151904458Y-95278730D01*
X151977883Y-95383592D01*
X152020719Y-95444767D01*
X152035783Y-95466281D01*
X152197681Y-95628179D01*
X152202189Y-95631336D01*
X152202192Y-95631338D01*
X152231305Y-95651723D01*
X152385232Y-95759504D01*
X152390214Y-95761827D01*
X152390219Y-95761830D01*
X152587756Y-95853942D01*
X152592738Y-95856265D01*
X152598046Y-95857687D01*
X152598048Y-95857688D01*
X152808579Y-95914100D01*
X152808581Y-95914100D01*
X152813894Y-95915524D01*
X152913461Y-95924235D01*
X152982130Y-95930243D01*
X152982137Y-95930243D01*
X152984854Y-95930481D01*
X153059424Y-95930481D01*
X153127545Y-95950483D01*
X153174038Y-96004139D01*
X153184142Y-96074413D01*
X153154648Y-96138993D01*
X153148519Y-96145576D01*
X152809500Y-96484595D01*
X152747188Y-96518621D01*
X152720405Y-96521500D01*
X135059646Y-96521500D01*
X134991525Y-96501498D01*
X134945032Y-96447842D01*
X134934928Y-96377568D01*
X134964914Y-96312423D01*
X135121834Y-96133489D01*
X135134037Y-96119574D01*
X135178346Y-96050689D01*
X135274512Y-95901181D01*
X135277040Y-95897251D01*
X135385611Y-95656233D01*
X135457364Y-95401815D01*
X135472449Y-95283238D01*
X135490326Y-95142716D01*
X135490326Y-95142710D01*
X135490724Y-95139585D01*
X135493168Y-95046245D01*
X135478590Y-94850068D01*
X135473924Y-94787281D01*
X135473923Y-94787277D01*
X135473578Y-94782629D01*
X135415238Y-94524804D01*
X135399709Y-94484871D01*
X135321123Y-94282787D01*
X135321122Y-94282785D01*
X135319430Y-94278434D01*
X135304923Y-94253051D01*
X135236865Y-94133975D01*
X135188259Y-94048932D01*
X135024606Y-93841339D01*
X134832066Y-93660215D01*
X134794893Y-93634427D01*
X134618707Y-93512203D01*
X134618702Y-93512200D01*
X134614869Y-93509541D01*
X134610678Y-93507474D01*
X134381975Y-93394690D01*
X134381972Y-93394689D01*
X134377787Y-93392625D01*
X134354417Y-93385144D01*
X134224321Y-93343500D01*
X134126028Y-93312036D01*
X133902105Y-93275568D01*
X133869734Y-93270296D01*
X133869733Y-93270296D01*
X133865122Y-93269545D01*
X133732962Y-93267815D01*
X133605479Y-93266146D01*
X133605476Y-93266146D01*
X133600802Y-93266085D01*
X133338873Y-93301731D01*
X133334383Y-93303040D01*
X133334377Y-93303041D01*
X133247122Y-93328474D01*
X133085091Y-93375702D01*
X133080844Y-93377660D01*
X133080841Y-93377661D01*
X132997077Y-93416277D01*
X132845029Y-93486372D01*
X132841120Y-93488935D01*
X132627876Y-93628744D01*
X132627871Y-93628748D01*
X132623963Y-93631310D01*
X132620471Y-93634427D01*
X132493751Y-93747529D01*
X132426748Y-93807331D01*
X132257717Y-94010569D01*
X132120582Y-94236559D01*
X132118776Y-94240867D01*
X132118775Y-94240868D01*
X132042562Y-94422617D01*
X132018358Y-94480336D01*
X132017207Y-94484868D01*
X132017206Y-94484871D01*
X132005907Y-94529361D01*
X131953289Y-94736546D01*
X131926805Y-94999559D01*
X131927029Y-95004225D01*
X131927029Y-95004230D01*
X131929199Y-95049405D01*
X131939488Y-95263597D01*
X131943395Y-95283238D01*
X131980580Y-95470178D01*
X131991059Y-95522861D01*
X131992638Y-95527259D01*
X131992640Y-95527266D01*
X132041167Y-95662425D01*
X132080385Y-95771655D01*
X132082602Y-95775781D01*
X132179586Y-95956277D01*
X132205503Y-96004512D01*
X132208298Y-96008256D01*
X132208300Y-96008258D01*
X132359776Y-96211109D01*
X132363666Y-96216318D01*
X132366980Y-96219603D01*
X132366985Y-96219609D01*
X132454150Y-96306016D01*
X132488447Y-96368179D01*
X132483692Y-96439016D01*
X132441394Y-96496037D01*
X132374983Y-96521139D01*
X132365445Y-96521500D01*
X127950577Y-96521500D01*
X127882456Y-96501498D01*
X127835963Y-96447842D01*
X127825859Y-96377568D01*
X127855353Y-96312988D01*
X127871989Y-96297853D01*
X127871702Y-96297513D01*
X127875657Y-96294171D01*
X127879860Y-96291173D01*
X128038096Y-96133489D01*
X128050918Y-96115646D01*
X128165435Y-95956277D01*
X128168453Y-95952077D01*
X128179127Y-95930481D01*
X128265136Y-95756453D01*
X128265137Y-95756451D01*
X128267430Y-95751811D01*
X128332370Y-95538069D01*
X128361529Y-95316590D01*
X128363156Y-95250000D01*
X128344852Y-95027361D01*
X128290431Y-94810702D01*
X128201354Y-94605840D01*
X128161906Y-94544862D01*
X128082822Y-94422617D01*
X128082820Y-94422614D01*
X128080014Y-94418277D01*
X127929670Y-94253051D01*
X127925619Y-94249852D01*
X127925615Y-94249848D01*
X127758414Y-94117800D01*
X127758410Y-94117798D01*
X127754359Y-94114598D01*
X127713053Y-94091796D01*
X127663084Y-94041364D01*
X127648312Y-93971921D01*
X127673428Y-93905516D01*
X127700780Y-93878909D01*
X127757937Y-93838139D01*
X127879860Y-93751173D01*
X127914664Y-93716491D01*
X127997015Y-93634427D01*
X128038096Y-93593489D01*
X128097594Y-93510689D01*
X128165435Y-93416277D01*
X128168453Y-93412077D01*
X128170746Y-93407437D01*
X128172446Y-93404608D01*
X128224674Y-93356518D01*
X128280451Y-93343500D01*
X131366233Y-93343500D01*
X131377416Y-93344027D01*
X131384909Y-93345702D01*
X131392835Y-93345453D01*
X131392836Y-93345453D01*
X131452986Y-93343562D01*
X131456945Y-93343500D01*
X131484856Y-93343500D01*
X131488791Y-93343003D01*
X131488856Y-93342995D01*
X131500693Y-93342062D01*
X131532951Y-93341048D01*
X131536970Y-93340922D01*
X131544889Y-93340673D01*
X131564343Y-93335021D01*
X131583700Y-93331013D01*
X131595930Y-93329468D01*
X131595931Y-93329468D01*
X131603797Y-93328474D01*
X131611168Y-93325555D01*
X131611170Y-93325555D01*
X131644912Y-93312196D01*
X131656142Y-93308351D01*
X131690983Y-93298229D01*
X131690984Y-93298229D01*
X131698593Y-93296018D01*
X131705412Y-93291985D01*
X131705417Y-93291983D01*
X131716028Y-93285707D01*
X131733776Y-93277012D01*
X131752617Y-93269552D01*
X131788387Y-93243564D01*
X131798307Y-93237048D01*
X131829535Y-93218580D01*
X131829538Y-93218578D01*
X131836362Y-93214542D01*
X131850683Y-93200221D01*
X131865717Y-93187380D01*
X131875694Y-93180131D01*
X131882107Y-93175472D01*
X131910298Y-93141395D01*
X131918288Y-93132616D01*
X134880904Y-90170000D01*
X143866496Y-90170000D01*
X143867186Y-90176565D01*
X143873844Y-90239908D01*
X143886458Y-90359928D01*
X143945473Y-90541556D01*
X143948776Y-90547278D01*
X143948777Y-90547279D01*
X143969069Y-90582425D01*
X144040960Y-90706944D01*
X144045378Y-90711851D01*
X144045379Y-90711852D01*
X144145909Y-90823502D01*
X144168747Y-90848866D01*
X144323248Y-90961118D01*
X144329276Y-90963802D01*
X144329278Y-90963803D01*
X144363389Y-90978990D01*
X144497712Y-91038794D01*
X144584009Y-91057137D01*
X144678056Y-91077128D01*
X144678061Y-91077128D01*
X144684513Y-91078500D01*
X144875487Y-91078500D01*
X144881939Y-91077128D01*
X144881944Y-91077128D01*
X144975991Y-91057137D01*
X145062288Y-91038794D01*
X145196611Y-90978990D01*
X145230722Y-90963803D01*
X145230724Y-90963802D01*
X145236752Y-90961118D01*
X145391253Y-90848866D01*
X145395668Y-90843963D01*
X145400580Y-90839540D01*
X145401705Y-90840789D01*
X145455014Y-90807949D01*
X145488200Y-90803500D01*
X147748099Y-90803500D01*
X147816220Y-90823502D01*
X147862713Y-90877158D01*
X147872817Y-90947432D01*
X147843323Y-91012012D01*
X147817184Y-91034872D01*
X147668037Y-91132657D01*
X147668032Y-91132661D01*
X147664124Y-91135223D01*
X147466909Y-91311244D01*
X147297878Y-91514482D01*
X147160743Y-91740472D01*
X147158937Y-91744780D01*
X147158936Y-91744781D01*
X147101137Y-91882617D01*
X147058519Y-91984249D01*
X147057368Y-91988781D01*
X147057367Y-91988784D01*
X147035821Y-92073621D01*
X146993450Y-92240459D01*
X146966966Y-92503472D01*
X146967190Y-92508138D01*
X146967190Y-92508143D01*
X146969360Y-92553318D01*
X146979649Y-92767510D01*
X147031220Y-93026774D01*
X147032799Y-93031172D01*
X147032801Y-93031179D01*
X147088883Y-93187380D01*
X147120546Y-93275568D01*
X147125994Y-93285707D01*
X147235192Y-93488935D01*
X147245664Y-93508425D01*
X147248459Y-93512169D01*
X147248461Y-93512171D01*
X147339754Y-93634427D01*
X147403827Y-93720231D01*
X147407134Y-93723509D01*
X147407139Y-93723515D01*
X147565901Y-93880896D01*
X147591560Y-93906332D01*
X147595327Y-93909094D01*
X147595328Y-93909095D01*
X147681012Y-93971921D01*
X147804738Y-94062641D01*
X147808873Y-94064817D01*
X147808877Y-94064819D01*
X147903492Y-94114598D01*
X148038678Y-94185723D01*
X148288242Y-94272874D01*
X148292835Y-94273746D01*
X148543357Y-94321309D01*
X148543360Y-94321309D01*
X148547946Y-94322180D01*
X148680016Y-94327370D01*
X148807417Y-94332376D01*
X148807423Y-94332376D01*
X148812085Y-94332559D01*
X149074857Y-94303780D01*
X149079368Y-94302592D01*
X149079370Y-94302592D01*
X149325966Y-94237669D01*
X149325968Y-94237668D01*
X149330489Y-94236478D01*
X149445033Y-94187266D01*
X149569071Y-94133975D01*
X149569073Y-94133974D01*
X149573365Y-94132130D01*
X149798149Y-93993029D01*
X149883099Y-93921114D01*
X149996338Y-93825251D01*
X149996340Y-93825249D01*
X149999905Y-93822231D01*
X150174198Y-93623487D01*
X150179154Y-93615783D01*
X150309570Y-93413028D01*
X150317201Y-93401164D01*
X150425772Y-93160146D01*
X150497525Y-92905728D01*
X150530885Y-92643498D01*
X150533329Y-92550158D01*
X150513739Y-92286542D01*
X150455399Y-92028717D01*
X150439870Y-91988784D01*
X150361284Y-91786700D01*
X150361283Y-91786698D01*
X150359591Y-91782347D01*
X150333377Y-91736481D01*
X150239427Y-91572104D01*
X150228420Y-91552845D01*
X150064767Y-91345252D01*
X149872227Y-91164128D01*
X149826862Y-91132657D01*
X149683246Y-91033028D01*
X149638675Y-90977765D01*
X149631058Y-90907178D01*
X149662812Y-90843678D01*
X149723856Y-90807426D01*
X149755065Y-90803500D01*
X151051233Y-90803500D01*
X151062416Y-90804027D01*
X151069909Y-90805702D01*
X151077835Y-90805453D01*
X151077836Y-90805453D01*
X151137986Y-90803562D01*
X151141945Y-90803500D01*
X151169856Y-90803500D01*
X151173791Y-90803003D01*
X151173856Y-90802995D01*
X151185693Y-90802062D01*
X151217951Y-90801048D01*
X151221970Y-90800922D01*
X151229889Y-90800673D01*
X151249343Y-90795021D01*
X151268700Y-90791013D01*
X151280930Y-90789468D01*
X151280931Y-90789468D01*
X151288797Y-90788474D01*
X151296168Y-90785555D01*
X151296170Y-90785555D01*
X151329912Y-90772196D01*
X151341142Y-90768351D01*
X151375983Y-90758229D01*
X151375984Y-90758229D01*
X151383593Y-90756018D01*
X151390412Y-90751985D01*
X151390417Y-90751983D01*
X151401028Y-90745707D01*
X151418776Y-90737012D01*
X151437617Y-90729552D01*
X151473387Y-90703564D01*
X151483307Y-90697048D01*
X151514535Y-90678580D01*
X151514538Y-90678578D01*
X151521362Y-90674542D01*
X151535683Y-90660221D01*
X151550717Y-90647380D01*
X151560694Y-90640131D01*
X151567107Y-90635472D01*
X151595298Y-90601395D01*
X151603288Y-90592616D01*
X155619581Y-86576324D01*
X155681893Y-86542298D01*
X155750217Y-86546464D01*
X155933976Y-86610635D01*
X155946209Y-86614907D01*
X155950802Y-86615779D01*
X156201324Y-86663342D01*
X156201327Y-86663342D01*
X156205913Y-86664213D01*
X156337983Y-86669403D01*
X156465384Y-86674409D01*
X156465390Y-86674409D01*
X156470052Y-86674592D01*
X156732824Y-86645813D01*
X156737335Y-86644625D01*
X156737337Y-86644625D01*
X156983933Y-86579702D01*
X156983935Y-86579701D01*
X156988456Y-86578511D01*
X156992753Y-86576665D01*
X157227038Y-86476008D01*
X157227040Y-86476007D01*
X157231332Y-86474163D01*
X157456116Y-86335062D01*
X157530170Y-86272371D01*
X157654305Y-86167284D01*
X157654307Y-86167282D01*
X157657872Y-86164264D01*
X157832165Y-85965520D01*
X157839494Y-85954127D01*
X157972640Y-85747127D01*
X157975168Y-85743197D01*
X158083739Y-85502179D01*
X158155492Y-85247761D01*
X158188852Y-84985531D01*
X158188936Y-84982349D01*
X158190224Y-84933134D01*
X158191296Y-84892191D01*
X158171706Y-84628575D01*
X158113366Y-84370750D01*
X158097837Y-84330817D01*
X158019251Y-84128733D01*
X158019250Y-84128731D01*
X158017558Y-84124380D01*
X157991468Y-84078731D01*
X157969184Y-84039743D01*
X157886387Y-83894878D01*
X157722734Y-83687285D01*
X157530194Y-83506161D01*
X157492758Y-83480191D01*
X157316835Y-83358149D01*
X157316830Y-83358146D01*
X157312997Y-83355487D01*
X157308806Y-83353420D01*
X157080103Y-83240636D01*
X157080100Y-83240635D01*
X157075915Y-83238571D01*
X157020421Y-83220807D01*
X156862806Y-83170354D01*
X156824156Y-83157982D01*
X156681634Y-83134771D01*
X156567862Y-83116242D01*
X156567861Y-83116242D01*
X156563250Y-83115491D01*
X156431090Y-83113761D01*
X156303607Y-83112092D01*
X156303604Y-83112092D01*
X156298930Y-83112031D01*
X156037001Y-83147677D01*
X156032511Y-83148986D01*
X156032505Y-83148987D01*
X155924541Y-83180456D01*
X155783219Y-83221648D01*
X155778972Y-83223606D01*
X155778969Y-83223607D01*
X155741024Y-83241100D01*
X155543157Y-83332318D01*
X155539248Y-83334881D01*
X155326004Y-83474690D01*
X155325999Y-83474694D01*
X155322091Y-83477256D01*
X155124876Y-83653277D01*
X154955845Y-83856515D01*
X154818710Y-84082505D01*
X154816904Y-84086813D01*
X154816903Y-84086814D01*
X154802761Y-84120540D01*
X154716486Y-84326282D01*
X154715335Y-84330814D01*
X154715334Y-84330817D01*
X154704035Y-84375307D01*
X154651417Y-84582492D01*
X154624933Y-84845505D01*
X154625157Y-84850171D01*
X154625157Y-84850176D01*
X154627230Y-84893323D01*
X154637616Y-85109543D01*
X154638529Y-85114131D01*
X154688248Y-85364085D01*
X154689187Y-85368807D01*
X154753628Y-85548291D01*
X154757822Y-85619161D01*
X154724135Y-85679961D01*
X150904500Y-89499595D01*
X150842188Y-89533621D01*
X150815405Y-89536500D01*
X147533080Y-89536500D01*
X147464959Y-89516498D01*
X147418466Y-89462842D01*
X147408362Y-89392568D01*
X147437856Y-89327988D01*
X147460809Y-89307287D01*
X147517808Y-89267376D01*
X147517811Y-89267374D01*
X147522319Y-89264217D01*
X147684217Y-89102319D01*
X147815542Y-88914768D01*
X147817865Y-88909786D01*
X147817868Y-88909781D01*
X147909980Y-88712244D01*
X147909980Y-88712243D01*
X147912303Y-88707262D01*
X147956877Y-88540913D01*
X147970138Y-88491421D01*
X147970138Y-88491419D01*
X147971562Y-88486106D01*
X147991517Y-88258019D01*
X147971562Y-88029932D01*
X147934031Y-87889865D01*
X147913726Y-87814086D01*
X147913725Y-87814084D01*
X147912303Y-87808776D01*
X147888626Y-87758000D01*
X147817868Y-87606257D01*
X147817865Y-87606252D01*
X147815542Y-87601270D01*
X147684217Y-87413719D01*
X147522319Y-87251821D01*
X147517811Y-87248664D01*
X147517808Y-87248662D01*
X147390193Y-87159305D01*
X147334768Y-87120496D01*
X147329786Y-87118173D01*
X147329781Y-87118170D01*
X147132244Y-87026058D01*
X147132243Y-87026058D01*
X147127262Y-87023735D01*
X147121954Y-87022313D01*
X147121952Y-87022312D01*
X146911421Y-86965900D01*
X146911419Y-86965900D01*
X146906106Y-86964476D01*
X146806539Y-86955765D01*
X146737870Y-86949757D01*
X146737863Y-86949757D01*
X146735146Y-86949519D01*
X146620892Y-86949519D01*
X146618175Y-86949757D01*
X146618168Y-86949757D01*
X146549499Y-86955765D01*
X146449932Y-86964476D01*
X146444619Y-86965900D01*
X146444617Y-86965900D01*
X146234086Y-87022312D01*
X146234084Y-87022313D01*
X146228776Y-87023735D01*
X146223795Y-87026058D01*
X146223794Y-87026058D01*
X146026257Y-87118170D01*
X146026252Y-87118173D01*
X146021270Y-87120496D01*
X145965845Y-87159305D01*
X145838230Y-87248662D01*
X145838227Y-87248664D01*
X145833719Y-87251821D01*
X145671821Y-87413719D01*
X145540496Y-87601270D01*
X145538173Y-87606252D01*
X145538170Y-87606257D01*
X145467412Y-87758000D01*
X145443735Y-87808776D01*
X145442313Y-87814084D01*
X145442312Y-87814086D01*
X145422007Y-87889865D01*
X145384476Y-88029932D01*
X145364521Y-88258019D01*
X145384476Y-88486106D01*
X145385900Y-88491419D01*
X145385900Y-88491421D01*
X145399162Y-88540913D01*
X145443735Y-88707262D01*
X145446058Y-88712243D01*
X145446058Y-88712244D01*
X145538170Y-88909781D01*
X145538173Y-88909786D01*
X145540496Y-88914768D01*
X145671821Y-89102319D01*
X145833719Y-89264217D01*
X145838227Y-89267374D01*
X145838230Y-89267376D01*
X145895229Y-89307287D01*
X145939557Y-89362744D01*
X145946866Y-89433364D01*
X145914835Y-89496724D01*
X145853634Y-89532709D01*
X145822958Y-89536500D01*
X145488200Y-89536500D01*
X145420079Y-89516498D01*
X145400853Y-89500157D01*
X145400580Y-89500460D01*
X145395668Y-89496037D01*
X145391253Y-89491134D01*
X145284076Y-89413265D01*
X145242094Y-89382763D01*
X145242093Y-89382762D01*
X145236752Y-89378882D01*
X145230724Y-89376198D01*
X145230722Y-89376197D01*
X145068319Y-89303891D01*
X145068318Y-89303891D01*
X145062288Y-89301206D01*
X144946649Y-89276626D01*
X144881944Y-89262872D01*
X144881939Y-89262872D01*
X144875487Y-89261500D01*
X144684513Y-89261500D01*
X144678061Y-89262872D01*
X144678056Y-89262872D01*
X144613351Y-89276626D01*
X144497712Y-89301206D01*
X144491682Y-89303891D01*
X144491681Y-89303891D01*
X144329278Y-89376197D01*
X144329276Y-89376198D01*
X144323248Y-89378882D01*
X144317907Y-89382762D01*
X144317906Y-89382763D01*
X144275924Y-89413265D01*
X144168747Y-89491134D01*
X144164326Y-89496044D01*
X144164325Y-89496045D01*
X144056342Y-89615973D01*
X144040960Y-89633056D01*
X143945473Y-89798444D01*
X143886458Y-89980072D01*
X143866496Y-90170000D01*
X134880904Y-90170000D01*
X138735271Y-86315633D01*
X142253494Y-86315633D01*
X142262208Y-86327153D01*
X142363585Y-86401487D01*
X142371484Y-86406423D01*
X142597092Y-86525121D01*
X142605641Y-86528838D01*
X142846304Y-86612881D01*
X142855313Y-86615295D01*
X143105763Y-86662845D01*
X143115018Y-86663899D01*
X143369748Y-86673908D01*
X143379062Y-86673582D01*
X143632461Y-86645831D01*
X143641638Y-86644130D01*
X143888151Y-86579228D01*
X143896971Y-86576191D01*
X144131188Y-86475564D01*
X144139460Y-86471257D01*
X144356227Y-86337118D01*
X144363770Y-86331638D01*
X144365463Y-86330205D01*
X144373901Y-86317402D01*
X144367836Y-86307046D01*
X143325003Y-85264213D01*
X143311059Y-85256599D01*
X143309226Y-85256730D01*
X143302611Y-85260981D01*
X142260152Y-86303440D01*
X142253494Y-86315633D01*
X138735271Y-86315633D01*
X140200714Y-84850190D01*
X141530040Y-84850190D01*
X141542271Y-85104810D01*
X141543408Y-85114070D01*
X141593138Y-85364085D01*
X141595632Y-85373078D01*
X141681769Y-85612988D01*
X141685569Y-85621523D01*
X141806222Y-85846068D01*
X141811236Y-85853939D01*
X141877345Y-85942470D01*
X141888605Y-85950920D01*
X141901023Y-85944149D01*
X142940169Y-84905003D01*
X142946547Y-84893323D01*
X143676599Y-84893323D01*
X143676730Y-84895156D01*
X143680981Y-84901771D01*
X144726577Y-85947367D01*
X144738957Y-85954127D01*
X144747298Y-85947883D01*
X144876582Y-85746888D01*
X144881029Y-85738697D01*
X144985727Y-85506276D01*
X144988922Y-85497498D01*
X145058114Y-85252159D01*
X145059972Y-85243030D01*
X145092335Y-84988635D01*
X145092816Y-84982349D01*
X145095094Y-84895351D01*
X145094943Y-84889042D01*
X145075938Y-84633301D01*
X145074561Y-84624095D01*
X145018300Y-84375453D01*
X145015576Y-84366542D01*
X144923181Y-84128949D01*
X144919170Y-84120540D01*
X144792673Y-83899218D01*
X144787460Y-83891489D01*
X144747824Y-83841210D01*
X144735900Y-83832740D01*
X144724365Y-83839227D01*
X143684213Y-84879379D01*
X143676599Y-84893323D01*
X142946547Y-84893323D01*
X142947783Y-84891059D01*
X142947652Y-84889226D01*
X142943401Y-84882611D01*
X141899310Y-83838520D01*
X141886002Y-83831253D01*
X141875963Y-83838375D01*
X141863624Y-83853211D01*
X141858209Y-83860803D01*
X141725967Y-84078731D01*
X141721729Y-84087048D01*
X141623152Y-84322126D01*
X141620191Y-84330976D01*
X141557446Y-84578040D01*
X141555824Y-84587237D01*
X141530285Y-84840864D01*
X141530040Y-84850190D01*
X140200714Y-84850190D01*
X141584356Y-83466548D01*
X142250961Y-83466548D01*
X142255534Y-83476324D01*
X143299379Y-84520169D01*
X143313323Y-84527783D01*
X143315156Y-84527652D01*
X143321771Y-84523401D01*
X144364981Y-83480191D01*
X144371365Y-83468501D01*
X144361953Y-83456390D01*
X144220967Y-83358583D01*
X144212932Y-83353850D01*
X143984297Y-83241100D01*
X143975664Y-83237612D01*
X143732866Y-83159892D01*
X143723815Y-83157719D01*
X143472200Y-83116741D01*
X143462911Y-83115929D01*
X143208019Y-83112592D01*
X143198708Y-83113162D01*
X142946118Y-83147538D01*
X142936999Y-83149476D01*
X142692275Y-83220807D01*
X142683522Y-83224079D01*
X142452028Y-83330799D01*
X142443873Y-83335319D01*
X142260098Y-83455807D01*
X142250961Y-83466548D01*
X141584356Y-83466548D01*
X142502357Y-82548547D01*
X142510647Y-82541003D01*
X142517128Y-82536890D01*
X142563769Y-82487222D01*
X142566523Y-82484381D01*
X142586244Y-82464660D01*
X142588722Y-82461465D01*
X142596428Y-82452443D01*
X142621268Y-82425991D01*
X142626696Y-82420211D01*
X142636456Y-82402458D01*
X142647309Y-82385935D01*
X142654863Y-82376196D01*
X142659723Y-82369931D01*
X142677286Y-82329347D01*
X142682493Y-82318717D01*
X142703805Y-82279950D01*
X142705776Y-82272273D01*
X142705778Y-82272268D01*
X142708842Y-82260332D01*
X142715248Y-82241620D01*
X142720143Y-82230309D01*
X142723291Y-82223035D01*
X142724531Y-82215207D01*
X142724533Y-82215200D01*
X142730209Y-82179366D01*
X142732615Y-82167746D01*
X142741638Y-82132601D01*
X142741638Y-82132600D01*
X142743610Y-82124920D01*
X142743610Y-82104666D01*
X142745161Y-82084955D01*
X142747090Y-82072776D01*
X142748330Y-82064947D01*
X142744169Y-82020928D01*
X142743610Y-82009071D01*
X142743610Y-80991219D01*
X157958102Y-80991219D01*
X157997662Y-81304373D01*
X158076159Y-81610100D01*
X158192355Y-81903577D01*
X158344418Y-82180177D01*
X158402654Y-82260332D01*
X158513764Y-82413262D01*
X158529948Y-82435538D01*
X158746020Y-82665631D01*
X158989227Y-82866830D01*
X159255733Y-83035960D01*
X159259312Y-83037644D01*
X159259319Y-83037648D01*
X159537746Y-83168665D01*
X159537750Y-83168667D01*
X159541336Y-83170354D01*
X159841530Y-83267893D01*
X160151582Y-83327039D01*
X160387764Y-83341898D01*
X160545440Y-83341898D01*
X160781622Y-83327039D01*
X161091674Y-83267893D01*
X161391868Y-83170354D01*
X161395454Y-83168667D01*
X161395458Y-83168665D01*
X161673885Y-83037648D01*
X161673892Y-83037644D01*
X161677471Y-83035960D01*
X161943977Y-82866830D01*
X162187184Y-82665631D01*
X162403256Y-82435538D01*
X162419441Y-82413262D01*
X162530550Y-82260332D01*
X162588786Y-82180177D01*
X162740849Y-81903577D01*
X162857045Y-81610100D01*
X162935542Y-81304373D01*
X162975102Y-80991219D01*
X162975102Y-80675577D01*
X162935542Y-80362423D01*
X162857045Y-80056696D01*
X162740849Y-79763219D01*
X162588786Y-79486619D01*
X162403256Y-79231258D01*
X162187184Y-79001165D01*
X161943977Y-78799966D01*
X161677471Y-78630836D01*
X161673892Y-78629152D01*
X161673885Y-78629148D01*
X161395458Y-78498131D01*
X161395454Y-78498129D01*
X161391868Y-78496442D01*
X161091674Y-78398903D01*
X160781622Y-78339757D01*
X160545440Y-78324898D01*
X160387764Y-78324898D01*
X160151582Y-78339757D01*
X159841530Y-78398903D01*
X159541336Y-78496442D01*
X159537750Y-78498129D01*
X159537746Y-78498131D01*
X159259319Y-78629148D01*
X159259312Y-78629152D01*
X159255733Y-78630836D01*
X158989227Y-78799966D01*
X158746020Y-79001165D01*
X158529948Y-79231258D01*
X158344418Y-79486619D01*
X158192355Y-79763219D01*
X158076159Y-80056696D01*
X157997662Y-80362423D01*
X157958102Y-80675577D01*
X157958102Y-80991219D01*
X142743610Y-80991219D01*
X142743610Y-78082815D01*
X142763612Y-78014694D01*
X142819872Y-77967047D01*
X142929339Y-77920016D01*
X142929341Y-77920015D01*
X142933633Y-77918171D01*
X143158417Y-77779070D01*
X143174898Y-77765118D01*
X143356606Y-77611292D01*
X143356608Y-77611290D01*
X143360173Y-77608272D01*
X143534466Y-77409528D01*
X143556859Y-77374715D01*
X143641053Y-77243820D01*
X143677469Y-77187205D01*
X143786040Y-76946187D01*
X143857793Y-76691769D01*
X143877074Y-76540208D01*
X143890755Y-76432670D01*
X143890755Y-76432664D01*
X143891153Y-76429539D01*
X143893597Y-76336199D01*
X143889780Y-76284830D01*
X143874353Y-76077235D01*
X143874352Y-76077231D01*
X143874007Y-76072583D01*
X143815667Y-75814758D01*
X143800138Y-75774825D01*
X143770147Y-75697703D01*
X164260743Y-75697703D01*
X164261302Y-75701947D01*
X164261302Y-75701951D01*
X164277810Y-75827340D01*
X164298268Y-75982734D01*
X164374129Y-76260036D01*
X164375813Y-76263984D01*
X164446429Y-76429539D01*
X164486923Y-76524476D01*
X164634561Y-76771161D01*
X164814313Y-76995528D01*
X164831397Y-77011740D01*
X165016299Y-77187205D01*
X165022851Y-77193423D01*
X165256317Y-77361186D01*
X165260112Y-77363195D01*
X165260113Y-77363196D01*
X165281869Y-77374715D01*
X165510392Y-77495712D01*
X165780373Y-77594511D01*
X166061264Y-77655755D01*
X166089841Y-77658004D01*
X166284282Y-77673307D01*
X166284291Y-77673307D01*
X166286739Y-77673500D01*
X166442271Y-77673500D01*
X166444407Y-77673354D01*
X166444418Y-77673354D01*
X166652548Y-77659165D01*
X166652554Y-77659164D01*
X166656825Y-77658873D01*
X166661020Y-77658004D01*
X166661022Y-77658004D01*
X166886586Y-77611292D01*
X166938342Y-77600574D01*
X167209343Y-77504607D01*
X167464812Y-77372750D01*
X167468313Y-77370289D01*
X167468317Y-77370287D01*
X167582417Y-77290096D01*
X167700023Y-77207441D01*
X167856957Y-77061609D01*
X167907479Y-77014661D01*
X167907481Y-77014658D01*
X167910622Y-77011740D01*
X168092713Y-76789268D01*
X168242927Y-76544142D01*
X168358483Y-76280898D01*
X168437244Y-76004406D01*
X168477751Y-75719784D01*
X168477845Y-75701951D01*
X168479235Y-75436583D01*
X168479235Y-75436576D01*
X168479257Y-75432297D01*
X168467494Y-75342944D01*
X168442292Y-75151522D01*
X168441732Y-75147266D01*
X168365871Y-74869964D01*
X168278726Y-74665656D01*
X168254763Y-74609476D01*
X168254761Y-74609472D01*
X168253077Y-74605524D01*
X168105439Y-74358839D01*
X167925687Y-74134472D01*
X167717149Y-73936577D01*
X167483683Y-73768814D01*
X167461843Y-73757250D01*
X167438654Y-73744972D01*
X167229608Y-73634288D01*
X166959627Y-73535489D01*
X166678736Y-73474245D01*
X166647685Y-73471801D01*
X166455718Y-73456693D01*
X166455709Y-73456693D01*
X166453261Y-73456500D01*
X166297729Y-73456500D01*
X166295593Y-73456646D01*
X166295582Y-73456646D01*
X166087452Y-73470835D01*
X166087446Y-73470836D01*
X166083175Y-73471127D01*
X166078980Y-73471996D01*
X166078978Y-73471996D01*
X165942417Y-73500276D01*
X165801658Y-73529426D01*
X165530657Y-73625393D01*
X165275188Y-73757250D01*
X165271687Y-73759711D01*
X165271683Y-73759713D01*
X165261594Y-73766804D01*
X165039977Y-73922559D01*
X164829378Y-74118260D01*
X164647287Y-74340732D01*
X164497073Y-74585858D01*
X164495347Y-74589791D01*
X164495346Y-74589792D01*
X164489367Y-74603413D01*
X164381517Y-74849102D01*
X164302756Y-75125594D01*
X164262249Y-75410216D01*
X164262227Y-75414505D01*
X164262226Y-75414512D01*
X164260765Y-75693417D01*
X164260743Y-75697703D01*
X143770147Y-75697703D01*
X143721552Y-75572741D01*
X143721551Y-75572739D01*
X143719859Y-75568388D01*
X143693645Y-75522522D01*
X143591007Y-75342944D01*
X143588688Y-75338886D01*
X143425035Y-75131293D01*
X143232495Y-74950169D01*
X143195322Y-74924381D01*
X143019136Y-74802157D01*
X143019131Y-74802154D01*
X143015298Y-74799495D01*
X143011107Y-74797428D01*
X142782404Y-74684644D01*
X142782401Y-74684643D01*
X142778216Y-74682579D01*
X142721260Y-74664347D01*
X142530902Y-74603413D01*
X142530904Y-74603413D01*
X142526457Y-74601990D01*
X142383935Y-74578779D01*
X142270163Y-74560250D01*
X142270162Y-74560250D01*
X142265551Y-74559499D01*
X142133391Y-74557769D01*
X142005908Y-74556100D01*
X142005905Y-74556100D01*
X142001231Y-74556039D01*
X141739302Y-74591685D01*
X141734812Y-74592994D01*
X141734806Y-74592995D01*
X141626842Y-74624464D01*
X141485520Y-74665656D01*
X141481273Y-74667614D01*
X141481270Y-74667615D01*
X141391060Y-74709203D01*
X141245458Y-74776326D01*
X141241549Y-74778889D01*
X141028305Y-74918698D01*
X141028300Y-74918702D01*
X141024392Y-74921264D01*
X140827177Y-75097285D01*
X140658146Y-75300523D01*
X140521011Y-75526513D01*
X140418787Y-75770290D01*
X140417636Y-75774822D01*
X140417635Y-75774825D01*
X140406336Y-75819315D01*
X140353718Y-76026500D01*
X140327234Y-76289513D01*
X140327458Y-76294179D01*
X140327458Y-76294184D01*
X140329628Y-76339359D01*
X140339917Y-76553551D01*
X140391488Y-76812815D01*
X140393067Y-76817213D01*
X140393069Y-76817220D01*
X140462909Y-77011740D01*
X140480814Y-77061609D01*
X140483031Y-77065735D01*
X140557604Y-77204522D01*
X140605932Y-77294466D01*
X140608727Y-77298210D01*
X140608729Y-77298212D01*
X140691853Y-77409528D01*
X140764095Y-77506272D01*
X140767402Y-77509550D01*
X140767407Y-77509556D01*
X140918034Y-77658873D01*
X140951828Y-77692373D01*
X141165006Y-77848682D01*
X141169141Y-77850858D01*
X141169145Y-77850860D01*
X141394798Y-77969582D01*
X141394802Y-77969584D01*
X141398946Y-77971764D01*
X141401293Y-77972584D01*
X141455345Y-78017716D01*
X141476610Y-78087764D01*
X141476610Y-79237884D01*
X141456608Y-79306005D01*
X141402952Y-79352498D01*
X141332678Y-79362602D01*
X141268098Y-79333108D01*
X141248674Y-79311944D01*
X141192386Y-79234469D01*
X141192377Y-79234458D01*
X141190052Y-79231258D01*
X140973980Y-79001165D01*
X140730773Y-78799966D01*
X140464267Y-78630836D01*
X140460688Y-78629152D01*
X140460681Y-78629148D01*
X140182254Y-78498131D01*
X140182250Y-78498129D01*
X140178664Y-78496442D01*
X139878470Y-78398903D01*
X139568418Y-78339757D01*
X139332236Y-78324898D01*
X139174560Y-78324898D01*
X138938378Y-78339757D01*
X138628326Y-78398903D01*
X138328132Y-78496442D01*
X138324546Y-78498129D01*
X138324542Y-78498131D01*
X138046115Y-78629148D01*
X138046108Y-78629152D01*
X138042529Y-78630836D01*
X137776023Y-78799966D01*
X137532816Y-79001165D01*
X137316744Y-79231258D01*
X137131214Y-79486619D01*
X136979151Y-79763219D01*
X136862955Y-80056696D01*
X136784458Y-80362423D01*
X136744898Y-80675577D01*
X136744898Y-80991219D01*
X136784458Y-81304373D01*
X136862955Y-81610100D01*
X136979151Y-81903577D01*
X137131214Y-82180177D01*
X137189450Y-82260332D01*
X137300560Y-82413262D01*
X137316744Y-82435538D01*
X137532816Y-82665631D01*
X137776023Y-82866830D01*
X138042529Y-83035960D01*
X138046108Y-83037644D01*
X138046115Y-83037648D01*
X138324542Y-83168665D01*
X138324546Y-83168667D01*
X138328132Y-83170354D01*
X138628326Y-83267893D01*
X138938378Y-83327039D01*
X139174560Y-83341898D01*
X139332236Y-83341898D01*
X139568418Y-83327039D01*
X139602013Y-83320630D01*
X139615462Y-83318065D01*
X139686124Y-83324948D01*
X139741848Y-83368942D01*
X139764940Y-83436078D01*
X139748071Y-83505041D01*
X139728167Y-83530928D01*
X131219500Y-92039595D01*
X131157188Y-92073621D01*
X131130405Y-92076500D01*
X128276805Y-92076500D01*
X128208684Y-92056498D01*
X128171013Y-92018940D01*
X128082822Y-91882617D01*
X128082820Y-91882614D01*
X128080014Y-91878277D01*
X127929670Y-91713051D01*
X127925619Y-91709852D01*
X127925615Y-91709848D01*
X127758414Y-91577800D01*
X127758410Y-91577798D01*
X127754359Y-91574598D01*
X127713053Y-91551796D01*
X127663084Y-91501364D01*
X127648312Y-91431921D01*
X127673428Y-91365516D01*
X127700780Y-91338909D01*
X127744603Y-91307650D01*
X127879860Y-91211173D01*
X127923855Y-91167332D01*
X128034435Y-91057137D01*
X128038096Y-91053489D01*
X128047670Y-91040166D01*
X128165435Y-90876277D01*
X128168453Y-90872077D01*
X128178006Y-90852749D01*
X128265136Y-90676453D01*
X128265137Y-90676451D01*
X128267430Y-90671811D01*
X128332370Y-90458069D01*
X128361529Y-90236590D01*
X128363156Y-90170000D01*
X128344852Y-89947361D01*
X128290431Y-89730702D01*
X128201354Y-89525840D01*
X128128526Y-89413265D01*
X128082822Y-89342617D01*
X128082820Y-89342614D01*
X128080014Y-89338277D01*
X127929670Y-89173051D01*
X127925619Y-89169852D01*
X127925615Y-89169848D01*
X127758414Y-89037800D01*
X127758410Y-89037798D01*
X127754359Y-89034598D01*
X127713053Y-89011796D01*
X127663084Y-88961364D01*
X127648312Y-88891921D01*
X127673428Y-88825516D01*
X127700780Y-88798909D01*
X127744603Y-88767650D01*
X127879860Y-88671173D01*
X128038096Y-88513489D01*
X128053954Y-88491421D01*
X128165435Y-88336277D01*
X128168453Y-88332077D01*
X128207761Y-88252544D01*
X128265136Y-88136453D01*
X128265137Y-88136451D01*
X128267430Y-88131811D01*
X128299998Y-88024617D01*
X128330865Y-87923023D01*
X128330865Y-87923021D01*
X128332370Y-87918069D01*
X128361529Y-87696590D01*
X128363156Y-87630000D01*
X128344852Y-87407361D01*
X128290431Y-87190702D01*
X128201354Y-86985840D01*
X128161906Y-86924862D01*
X128082822Y-86802617D01*
X128082820Y-86802614D01*
X128080014Y-86798277D01*
X127929670Y-86633051D01*
X127925619Y-86629852D01*
X127925615Y-86629848D01*
X127758414Y-86497800D01*
X127758410Y-86497798D01*
X127754359Y-86494598D01*
X127558789Y-86386638D01*
X127553920Y-86384914D01*
X127553916Y-86384912D01*
X127353087Y-86313795D01*
X127353083Y-86313794D01*
X127348212Y-86312069D01*
X127343119Y-86311162D01*
X127343116Y-86311161D01*
X127133373Y-86273800D01*
X127133367Y-86273799D01*
X127128284Y-86272894D01*
X127048970Y-86271925D01*
X126910081Y-86270228D01*
X126910079Y-86270228D01*
X126904911Y-86270165D01*
X126684091Y-86303955D01*
X126471756Y-86373357D01*
X126441443Y-86389137D01*
X126328897Y-86447725D01*
X126273607Y-86476507D01*
X126269474Y-86479610D01*
X126269471Y-86479612D01*
X126111207Y-86598440D01*
X126094965Y-86610635D01*
X126091393Y-86614373D01*
X126013898Y-86695466D01*
X125952374Y-86730895D01*
X125881462Y-86727438D01*
X125823676Y-86686192D01*
X125804823Y-86652644D01*
X125763324Y-86541946D01*
X125754786Y-86526351D01*
X125678285Y-86424276D01*
X125665724Y-86411715D01*
X125563649Y-86335214D01*
X125548054Y-86326676D01*
X125427606Y-86281522D01*
X125412351Y-86277895D01*
X125361486Y-86272369D01*
X125354672Y-86272000D01*
X124732115Y-86272000D01*
X124716876Y-86276475D01*
X124715671Y-86277865D01*
X124714000Y-86285548D01*
X124714000Y-87758000D01*
X124693998Y-87826121D01*
X124640342Y-87872614D01*
X124588000Y-87884000D01*
X123120116Y-87884000D01*
X123104877Y-87888475D01*
X123103672Y-87889865D01*
X123102001Y-87897548D01*
X123102001Y-88524669D01*
X123102371Y-88531490D01*
X123107895Y-88582352D01*
X123111521Y-88597604D01*
X123156676Y-88718054D01*
X123165214Y-88733649D01*
X123241715Y-88835724D01*
X123254276Y-88848285D01*
X123356351Y-88924786D01*
X123371946Y-88933324D01*
X123480827Y-88974142D01*
X123537591Y-89016784D01*
X123562291Y-89083345D01*
X123547083Y-89152694D01*
X123527691Y-89179175D01*
X123437449Y-89273608D01*
X123400629Y-89312138D01*
X123397720Y-89316403D01*
X123397714Y-89316411D01*
X123375882Y-89348416D01*
X123274743Y-89496680D01*
X123180688Y-89699305D01*
X123120989Y-89914570D01*
X123097251Y-90136695D01*
X123097548Y-90141848D01*
X123097548Y-90141851D01*
X123103011Y-90236590D01*
X123110110Y-90359715D01*
X123111247Y-90364761D01*
X123111248Y-90364767D01*
X123131119Y-90452939D01*
X123159222Y-90577639D01*
X123211727Y-90706944D01*
X123236662Y-90768351D01*
X123243266Y-90784616D01*
X123282638Y-90848866D01*
X123357291Y-90970688D01*
X123359987Y-90975088D01*
X123506250Y-91143938D01*
X123678126Y-91286632D01*
X123720245Y-91311244D01*
X123751445Y-91329476D01*
X123800169Y-91381114D01*
X123813240Y-91450897D01*
X123786509Y-91516669D01*
X123746055Y-91550027D01*
X123740642Y-91552845D01*
X123733607Y-91556507D01*
X123729474Y-91559610D01*
X123729471Y-91559612D01*
X123705247Y-91577800D01*
X123554965Y-91690635D01*
X123400629Y-91852138D01*
X123274743Y-92036680D01*
X123180688Y-92239305D01*
X123120989Y-92454570D01*
X123097251Y-92676695D01*
X123110110Y-92899715D01*
X123111247Y-92904761D01*
X123111248Y-92904767D01*
X123135304Y-93011508D01*
X123159222Y-93117639D01*
X123219014Y-93264890D01*
X123238745Y-93313481D01*
X123243266Y-93324616D01*
X123284070Y-93391202D01*
X123357291Y-93510688D01*
X123359987Y-93515088D01*
X123506250Y-93683938D01*
X123678126Y-93826632D01*
X123697818Y-93838139D01*
X123751445Y-93869476D01*
X123800169Y-93921114D01*
X123813240Y-93990897D01*
X123786509Y-94056669D01*
X123746055Y-94090027D01*
X123733607Y-94096507D01*
X123729474Y-94099610D01*
X123729471Y-94099612D01*
X123614782Y-94185723D01*
X123554965Y-94230635D01*
X123400629Y-94392138D01*
X123397720Y-94396403D01*
X123397714Y-94396411D01*
X123312556Y-94521249D01*
X123274743Y-94576680D01*
X123180688Y-94779305D01*
X123120989Y-94994570D01*
X123097251Y-95216695D01*
X121285000Y-95216695D01*
X121285000Y-87357885D01*
X123102000Y-87357885D01*
X123106475Y-87373124D01*
X123107865Y-87374329D01*
X123115548Y-87376000D01*
X124187885Y-87376000D01*
X124203124Y-87371525D01*
X124204329Y-87370135D01*
X124206000Y-87362452D01*
X124206000Y-86290116D01*
X124201525Y-86274877D01*
X124200135Y-86273672D01*
X124192452Y-86272001D01*
X123565331Y-86272001D01*
X123558510Y-86272371D01*
X123507648Y-86277895D01*
X123492396Y-86281521D01*
X123371946Y-86326676D01*
X123356351Y-86335214D01*
X123254276Y-86411715D01*
X123241715Y-86424276D01*
X123165214Y-86526351D01*
X123156676Y-86541946D01*
X123111522Y-86662394D01*
X123107895Y-86677649D01*
X123102369Y-86728514D01*
X123102000Y-86735328D01*
X123102000Y-87357885D01*
X121285000Y-87357885D01*
X121285000Y-75697703D01*
X122985743Y-75697703D01*
X122986302Y-75701947D01*
X122986302Y-75701951D01*
X123002810Y-75827340D01*
X123023268Y-75982734D01*
X123099129Y-76260036D01*
X123100813Y-76263984D01*
X123171429Y-76429539D01*
X123211923Y-76524476D01*
X123359561Y-76771161D01*
X123539313Y-76995528D01*
X123556397Y-77011740D01*
X123741299Y-77187205D01*
X123747851Y-77193423D01*
X123981317Y-77361186D01*
X123985112Y-77363195D01*
X123985113Y-77363196D01*
X124006869Y-77374715D01*
X124235392Y-77495712D01*
X124505373Y-77594511D01*
X124786264Y-77655755D01*
X124814841Y-77658004D01*
X125009282Y-77673307D01*
X125009291Y-77673307D01*
X125011739Y-77673500D01*
X125167271Y-77673500D01*
X125169407Y-77673354D01*
X125169418Y-77673354D01*
X125377548Y-77659165D01*
X125377554Y-77659164D01*
X125381825Y-77658873D01*
X125386020Y-77658004D01*
X125386022Y-77658004D01*
X125611586Y-77611292D01*
X125663342Y-77600574D01*
X125934343Y-77504607D01*
X126189812Y-77372750D01*
X126193313Y-77370289D01*
X126193317Y-77370287D01*
X126307417Y-77290096D01*
X126425023Y-77207441D01*
X126581957Y-77061609D01*
X126632479Y-77014661D01*
X126632481Y-77014658D01*
X126635622Y-77011740D01*
X126817713Y-76789268D01*
X126967927Y-76544142D01*
X127083483Y-76280898D01*
X127162244Y-76004406D01*
X127202751Y-75719784D01*
X127202845Y-75701951D01*
X127204235Y-75436583D01*
X127204235Y-75436576D01*
X127204257Y-75432297D01*
X127192494Y-75342944D01*
X127167292Y-75151522D01*
X127166732Y-75147266D01*
X127090871Y-74869964D01*
X127003726Y-74665656D01*
X126979763Y-74609476D01*
X126979761Y-74609472D01*
X126978077Y-74605524D01*
X126830439Y-74358839D01*
X126650687Y-74134472D01*
X126442149Y-73936577D01*
X126208683Y-73768814D01*
X126186843Y-73757250D01*
X126163654Y-73744972D01*
X125954608Y-73634288D01*
X125684627Y-73535489D01*
X125403736Y-73474245D01*
X125372685Y-73471801D01*
X125180718Y-73456693D01*
X125180709Y-73456693D01*
X125178261Y-73456500D01*
X125022729Y-73456500D01*
X125020593Y-73456646D01*
X125020582Y-73456646D01*
X124812452Y-73470835D01*
X124812446Y-73470836D01*
X124808175Y-73471127D01*
X124803980Y-73471996D01*
X124803978Y-73471996D01*
X124667417Y-73500276D01*
X124526658Y-73529426D01*
X124255657Y-73625393D01*
X124000188Y-73757250D01*
X123996687Y-73759711D01*
X123996683Y-73759713D01*
X123986594Y-73766804D01*
X123764977Y-73922559D01*
X123554378Y-74118260D01*
X123372287Y-74340732D01*
X123222073Y-74585858D01*
X123220347Y-74589791D01*
X123220346Y-74589792D01*
X123214367Y-74603413D01*
X123106517Y-74849102D01*
X123027756Y-75125594D01*
X122987249Y-75410216D01*
X122987227Y-75414505D01*
X122987226Y-75414512D01*
X122985765Y-75693417D01*
X122985743Y-75697703D01*
X121285000Y-75697703D01*
X121285000Y-71881000D01*
X121305002Y-71812879D01*
X121358658Y-71766386D01*
X121411000Y-71755000D01*
X170016000Y-71755000D01*
X170084121Y-71775002D01*
G37*
%TD.AperFunction*%
%TD*%
M02*
