%TF.GenerationSoftware,KiCad,Pcbnew,(6.0.0)*%
%TF.CreationDate,2021-12-29T20:26:28-08:00*%
%TF.ProjectId,enc_breakout,656e635f-6272-4656-916b-6f75742e6b69,rev?*%
%TF.SameCoordinates,Original*%
%TF.FileFunction,Legend,Top*%
%TF.FilePolarity,Positive*%
%FSLAX46Y46*%
G04 Gerber Fmt 4.6, Leading zero omitted, Abs format (unit mm)*
G04 Created by KiCad (PCBNEW (6.0.0)) date 2021-12-29 20:26:28*
%MOMM*%
%LPD*%
G01*
G04 APERTURE LIST*
%ADD10C,0.200000*%
%ADD11C,0.300000*%
%ADD12C,0.153000*%
%ADD13C,0.120000*%
G04 APERTURE END LIST*
D10*
X130416428Y-76740238D02*
X130416428Y-77073571D01*
X129892619Y-77216428D02*
X129892619Y-76740238D01*
X130892619Y-76740238D01*
X130892619Y-77216428D01*
X129892619Y-77787857D02*
X129940238Y-77692619D01*
X130035476Y-77645000D01*
X130892619Y-77645000D01*
X129940238Y-78549761D02*
X129892619Y-78454523D01*
X129892619Y-78264047D01*
X129940238Y-78168809D01*
X130035476Y-78121190D01*
X130416428Y-78121190D01*
X130511666Y-78168809D01*
X130559285Y-78264047D01*
X130559285Y-78454523D01*
X130511666Y-78549761D01*
X130416428Y-78597380D01*
X130321190Y-78597380D01*
X130225952Y-78121190D01*
X129940238Y-79454523D02*
X129892619Y-79359285D01*
X129892619Y-79168809D01*
X129940238Y-79073571D01*
X129987857Y-79025952D01*
X130083095Y-78978333D01*
X130368809Y-78978333D01*
X130464047Y-79025952D01*
X130511666Y-79073571D01*
X130559285Y-79168809D01*
X130559285Y-79359285D01*
X130511666Y-79454523D01*
X130559285Y-79740238D02*
X130559285Y-80121190D01*
X130892619Y-79883095D02*
X130035476Y-79883095D01*
X129940238Y-79930714D01*
X129892619Y-80025952D01*
X129892619Y-80121190D01*
X129892619Y-80454523D02*
X130559285Y-80454523D01*
X130368809Y-80454523D02*
X130464047Y-80502142D01*
X130511666Y-80549761D01*
X130559285Y-80645000D01*
X130559285Y-80740238D01*
X129892619Y-81216428D02*
X129940238Y-81121190D01*
X129987857Y-81073571D01*
X130083095Y-81025952D01*
X130368809Y-81025952D01*
X130464047Y-81073571D01*
X130511666Y-81121190D01*
X130559285Y-81216428D01*
X130559285Y-81359285D01*
X130511666Y-81454523D01*
X130464047Y-81502142D01*
X130368809Y-81549761D01*
X130083095Y-81549761D01*
X129987857Y-81502142D01*
X129940238Y-81454523D01*
X129892619Y-81359285D01*
X129892619Y-81216428D01*
X130559285Y-81978333D02*
X129892619Y-81978333D01*
X130464047Y-81978333D02*
X130511666Y-82025952D01*
X130559285Y-82121190D01*
X130559285Y-82264047D01*
X130511666Y-82359285D01*
X130416428Y-82406904D01*
X129892619Y-82406904D01*
X129892619Y-82883095D02*
X130559285Y-82883095D01*
X130892619Y-82883095D02*
X130845000Y-82835476D01*
X130797380Y-82883095D01*
X130845000Y-82930714D01*
X130892619Y-82883095D01*
X130797380Y-82883095D01*
X129940238Y-83787857D02*
X129892619Y-83692619D01*
X129892619Y-83502142D01*
X129940238Y-83406904D01*
X129987857Y-83359285D01*
X130083095Y-83311666D01*
X130368809Y-83311666D01*
X130464047Y-83359285D01*
X130511666Y-83406904D01*
X130559285Y-83502142D01*
X130559285Y-83692619D01*
X130511666Y-83787857D01*
X129940238Y-84168809D02*
X129892619Y-84264047D01*
X129892619Y-84454523D01*
X129940238Y-84549761D01*
X130035476Y-84597380D01*
X130083095Y-84597380D01*
X130178333Y-84549761D01*
X130225952Y-84454523D01*
X130225952Y-84311666D01*
X130273571Y-84216428D01*
X130368809Y-84168809D01*
X130416428Y-84168809D01*
X130511666Y-84216428D01*
X130559285Y-84311666D01*
X130559285Y-84454523D01*
X130511666Y-84549761D01*
X128568333Y-76478333D02*
X128568333Y-76954523D01*
X128282619Y-76383095D02*
X129282619Y-76716428D01*
X128282619Y-77049761D01*
X128330238Y-77811666D02*
X128282619Y-77716428D01*
X128282619Y-77525952D01*
X128330238Y-77430714D01*
X128377857Y-77383095D01*
X128473095Y-77335476D01*
X128758809Y-77335476D01*
X128854047Y-77383095D01*
X128901666Y-77430714D01*
X128949285Y-77525952D01*
X128949285Y-77716428D01*
X128901666Y-77811666D01*
X128330238Y-78668809D02*
X128282619Y-78573571D01*
X128282619Y-78383095D01*
X128330238Y-78287857D01*
X128377857Y-78240238D01*
X128473095Y-78192619D01*
X128758809Y-78192619D01*
X128854047Y-78240238D01*
X128901666Y-78287857D01*
X128949285Y-78383095D01*
X128949285Y-78573571D01*
X128901666Y-78668809D01*
X128330238Y-79478333D02*
X128282619Y-79383095D01*
X128282619Y-79192619D01*
X128330238Y-79097380D01*
X128425476Y-79049761D01*
X128806428Y-79049761D01*
X128901666Y-79097380D01*
X128949285Y-79192619D01*
X128949285Y-79383095D01*
X128901666Y-79478333D01*
X128806428Y-79525952D01*
X128711190Y-79525952D01*
X128615952Y-79049761D01*
X128330238Y-79906904D02*
X128282619Y-80002142D01*
X128282619Y-80192619D01*
X128330238Y-80287857D01*
X128425476Y-80335476D01*
X128473095Y-80335476D01*
X128568333Y-80287857D01*
X128615952Y-80192619D01*
X128615952Y-80049761D01*
X128663571Y-79954523D01*
X128758809Y-79906904D01*
X128806428Y-79906904D01*
X128901666Y-79954523D01*
X128949285Y-80049761D01*
X128949285Y-80192619D01*
X128901666Y-80287857D01*
X128330238Y-80716428D02*
X128282619Y-80811666D01*
X128282619Y-81002142D01*
X128330238Y-81097380D01*
X128425476Y-81145000D01*
X128473095Y-81145000D01*
X128568333Y-81097380D01*
X128615952Y-81002142D01*
X128615952Y-80859285D01*
X128663571Y-80764047D01*
X128758809Y-80716428D01*
X128806428Y-80716428D01*
X128901666Y-80764047D01*
X128949285Y-80859285D01*
X128949285Y-81002142D01*
X128901666Y-81097380D01*
X128282619Y-81716428D02*
X128330238Y-81621190D01*
X128377857Y-81573571D01*
X128473095Y-81525952D01*
X128758809Y-81525952D01*
X128854047Y-81573571D01*
X128901666Y-81621190D01*
X128949285Y-81716428D01*
X128949285Y-81859285D01*
X128901666Y-81954523D01*
X128854047Y-82002142D01*
X128758809Y-82049761D01*
X128473095Y-82049761D01*
X128377857Y-82002142D01*
X128330238Y-81954523D01*
X128282619Y-81859285D01*
X128282619Y-81716428D01*
X128282619Y-82478333D02*
X128949285Y-82478333D01*
X128758809Y-82478333D02*
X128854047Y-82525952D01*
X128901666Y-82573571D01*
X128949285Y-82668809D01*
X128949285Y-82764047D01*
X128282619Y-83097380D02*
X128949285Y-83097380D01*
X129282619Y-83097380D02*
X129235000Y-83049761D01*
X129187380Y-83097380D01*
X129235000Y-83145000D01*
X129282619Y-83097380D01*
X129187380Y-83097380D01*
X128330238Y-83954523D02*
X128282619Y-83859285D01*
X128282619Y-83668809D01*
X128330238Y-83573571D01*
X128425476Y-83525952D01*
X128806428Y-83525952D01*
X128901666Y-83573571D01*
X128949285Y-83668809D01*
X128949285Y-83859285D01*
X128901666Y-83954523D01*
X128806428Y-84002142D01*
X128711190Y-84002142D01*
X128615952Y-83525952D01*
X128330238Y-84383095D02*
X128282619Y-84478333D01*
X128282619Y-84668809D01*
X128330238Y-84764047D01*
X128425476Y-84811666D01*
X128473095Y-84811666D01*
X128568333Y-84764047D01*
X128615952Y-84668809D01*
X128615952Y-84525952D01*
X128663571Y-84430714D01*
X128758809Y-84383095D01*
X128806428Y-84383095D01*
X128901666Y-84430714D01*
X128949285Y-84525952D01*
X128949285Y-84668809D01*
X128901666Y-84764047D01*
D11*
X131472857Y-75287857D02*
X131401428Y-75502142D01*
X131401428Y-75859285D01*
X131472857Y-76002142D01*
X131544285Y-76073571D01*
X131687142Y-76145000D01*
X131830000Y-76145000D01*
X131972857Y-76073571D01*
X132044285Y-76002142D01*
X132115714Y-75859285D01*
X132187142Y-75573571D01*
X132258571Y-75430714D01*
X132330000Y-75359285D01*
X132472857Y-75287857D01*
X132615714Y-75287857D01*
X132758571Y-75359285D01*
X132830000Y-75430714D01*
X132901428Y-75573571D01*
X132901428Y-75930714D01*
X132830000Y-76145000D01*
X132401428Y-76573571D02*
X132401428Y-77145000D01*
X132901428Y-76787857D02*
X131615714Y-76787857D01*
X131472857Y-76859285D01*
X131401428Y-77002142D01*
X131401428Y-77145000D01*
X131401428Y-77645000D02*
X132401428Y-77645000D01*
X132115714Y-77645000D02*
X132258571Y-77716428D01*
X132330000Y-77787857D01*
X132401428Y-77930714D01*
X132401428Y-78073571D01*
X131401428Y-78573571D02*
X132401428Y-78573571D01*
X132901428Y-78573571D02*
X132830000Y-78502142D01*
X132758571Y-78573571D01*
X132830000Y-78645000D01*
X132901428Y-78573571D01*
X132758571Y-78573571D01*
X131472857Y-79930714D02*
X131401428Y-79787857D01*
X131401428Y-79502142D01*
X131472857Y-79359285D01*
X131544285Y-79287857D01*
X131687142Y-79216428D01*
X132115714Y-79216428D01*
X132258571Y-79287857D01*
X132330000Y-79359285D01*
X132401428Y-79502142D01*
X132401428Y-79787857D01*
X132330000Y-79930714D01*
X131401428Y-80573571D02*
X132901428Y-80573571D01*
X131972857Y-80716428D02*
X131401428Y-81145000D01*
X132401428Y-81145000D02*
X131830000Y-80573571D01*
X131401428Y-82002142D02*
X131472857Y-81859285D01*
X131615714Y-81787857D01*
X132901428Y-81787857D01*
X131401428Y-83216428D02*
X132187142Y-83216428D01*
X132330000Y-83145000D01*
X132401428Y-83002142D01*
X132401428Y-82716428D01*
X132330000Y-82573571D01*
X131472857Y-83216428D02*
X131401428Y-83073571D01*
X131401428Y-82716428D01*
X131472857Y-82573571D01*
X131615714Y-82502142D01*
X131758571Y-82502142D01*
X131901428Y-82573571D01*
X131972857Y-82716428D01*
X131972857Y-83073571D01*
X132044285Y-83216428D01*
X132401428Y-83930714D02*
X131401428Y-83930714D01*
X132258571Y-83930714D02*
X132330000Y-84002142D01*
X132401428Y-84145000D01*
X132401428Y-84359285D01*
X132330000Y-84502142D01*
X132187142Y-84573571D01*
X131401428Y-84573571D01*
X131401428Y-85930714D02*
X132901428Y-85930714D01*
X131472857Y-85930714D02*
X131401428Y-85787857D01*
X131401428Y-85502142D01*
X131472857Y-85359285D01*
X131544285Y-85287857D01*
X131687142Y-85216428D01*
X132115714Y-85216428D01*
X132258571Y-85287857D01*
X132330000Y-85359285D01*
X132401428Y-85502142D01*
X132401428Y-85787857D01*
X132330000Y-85930714D01*
D10*
X132967619Y-99155714D02*
X132967619Y-99822380D01*
X131967619Y-99155714D01*
X131967619Y-99822380D01*
X131967619Y-100203333D02*
X132634285Y-100203333D01*
X132967619Y-100203333D02*
X132920000Y-100155714D01*
X132872380Y-100203333D01*
X132920000Y-100250952D01*
X132967619Y-100203333D01*
X132872380Y-100203333D01*
X132634285Y-100679523D02*
X131634285Y-100679523D01*
X132586666Y-100679523D02*
X132634285Y-100774761D01*
X132634285Y-100965238D01*
X132586666Y-101060476D01*
X132539047Y-101108095D01*
X132443809Y-101155714D01*
X132158095Y-101155714D01*
X132062857Y-101108095D01*
X132015238Y-101060476D01*
X131967619Y-100965238D01*
X131967619Y-100774761D01*
X132015238Y-100679523D01*
X132634285Y-101584285D02*
X131634285Y-101584285D01*
X132586666Y-101584285D02*
X132634285Y-101679523D01*
X132634285Y-101870000D01*
X132586666Y-101965238D01*
X132539047Y-102012857D01*
X132443809Y-102060476D01*
X132158095Y-102060476D01*
X132062857Y-102012857D01*
X132015238Y-101965238D01*
X131967619Y-101870000D01*
X131967619Y-101679523D01*
X132015238Y-101584285D01*
X132634285Y-102393809D02*
X131967619Y-102631904D01*
X132634285Y-102870000D02*
X131967619Y-102631904D01*
X131729523Y-102536666D01*
X131681904Y-102489047D01*
X131634285Y-102393809D01*
X132253333Y-103965238D02*
X132253333Y-104441428D01*
X131967619Y-103870000D02*
X132967619Y-104203333D01*
X131967619Y-104536666D01*
X131967619Y-104870000D02*
X132967619Y-104870000D01*
X131967619Y-105441428D01*
X132967619Y-105441428D01*
X132967619Y-106108095D02*
X132967619Y-106298571D01*
X132920000Y-106393809D01*
X132824761Y-106489047D01*
X132634285Y-106536666D01*
X132300952Y-106536666D01*
X132110476Y-106489047D01*
X132015238Y-106393809D01*
X131967619Y-106298571D01*
X131967619Y-106108095D01*
X132015238Y-106012857D01*
X132110476Y-105917619D01*
X132300952Y-105870000D01*
X132634285Y-105870000D01*
X132824761Y-105917619D01*
X132920000Y-106012857D01*
X132967619Y-106108095D01*
X130881428Y-100131904D02*
X130881428Y-100465238D01*
X130357619Y-100608095D02*
X130357619Y-100131904D01*
X131357619Y-100131904D01*
X131357619Y-100608095D01*
X131024285Y-101036666D02*
X130357619Y-101036666D01*
X130929047Y-101036666D02*
X130976666Y-101084285D01*
X131024285Y-101179523D01*
X131024285Y-101322380D01*
X130976666Y-101417619D01*
X130881428Y-101465238D01*
X130357619Y-101465238D01*
X130405238Y-102370000D02*
X130357619Y-102274761D01*
X130357619Y-102084285D01*
X130405238Y-101989047D01*
X130452857Y-101941428D01*
X130548095Y-101893809D01*
X130833809Y-101893809D01*
X130929047Y-101941428D01*
X130976666Y-101989047D01*
X131024285Y-102084285D01*
X131024285Y-102274761D01*
X130976666Y-102370000D01*
X130357619Y-102941428D02*
X130405238Y-102846190D01*
X130452857Y-102798571D01*
X130548095Y-102750952D01*
X130833809Y-102750952D01*
X130929047Y-102798571D01*
X130976666Y-102846190D01*
X131024285Y-102941428D01*
X131024285Y-103084285D01*
X130976666Y-103179523D01*
X130929047Y-103227142D01*
X130833809Y-103274761D01*
X130548095Y-103274761D01*
X130452857Y-103227142D01*
X130405238Y-103179523D01*
X130357619Y-103084285D01*
X130357619Y-102941428D01*
X130357619Y-104131904D02*
X131357619Y-104131904D01*
X130405238Y-104131904D02*
X130357619Y-104036666D01*
X130357619Y-103846190D01*
X130405238Y-103750952D01*
X130452857Y-103703333D01*
X130548095Y-103655714D01*
X130833809Y-103655714D01*
X130929047Y-103703333D01*
X130976666Y-103750952D01*
X131024285Y-103846190D01*
X131024285Y-104036666D01*
X130976666Y-104131904D01*
X130405238Y-104989047D02*
X130357619Y-104893809D01*
X130357619Y-104703333D01*
X130405238Y-104608095D01*
X130500476Y-104560476D01*
X130881428Y-104560476D01*
X130976666Y-104608095D01*
X131024285Y-104703333D01*
X131024285Y-104893809D01*
X130976666Y-104989047D01*
X130881428Y-105036666D01*
X130786190Y-105036666D01*
X130690952Y-104560476D01*
X130357619Y-105465238D02*
X131024285Y-105465238D01*
X130833809Y-105465238D02*
X130929047Y-105512857D01*
X130976666Y-105560476D01*
X131024285Y-105655714D01*
X131024285Y-105750952D01*
X129271428Y-100155714D02*
X129223809Y-100298571D01*
X129176190Y-100346190D01*
X129080952Y-100393809D01*
X128938095Y-100393809D01*
X128842857Y-100346190D01*
X128795238Y-100298571D01*
X128747619Y-100203333D01*
X128747619Y-99822380D01*
X129747619Y-99822380D01*
X129747619Y-100155714D01*
X129700000Y-100250952D01*
X129652380Y-100298571D01*
X129557142Y-100346190D01*
X129461904Y-100346190D01*
X129366666Y-100298571D01*
X129319047Y-100250952D01*
X129271428Y-100155714D01*
X129271428Y-99822380D01*
X128747619Y-100822380D02*
X129414285Y-100822380D01*
X129223809Y-100822380D02*
X129319047Y-100870000D01*
X129366666Y-100917619D01*
X129414285Y-101012857D01*
X129414285Y-101108095D01*
X128795238Y-101822380D02*
X128747619Y-101727142D01*
X128747619Y-101536666D01*
X128795238Y-101441428D01*
X128890476Y-101393809D01*
X129271428Y-101393809D01*
X129366666Y-101441428D01*
X129414285Y-101536666D01*
X129414285Y-101727142D01*
X129366666Y-101822380D01*
X129271428Y-101870000D01*
X129176190Y-101870000D01*
X129080952Y-101393809D01*
X128747619Y-102727142D02*
X129271428Y-102727142D01*
X129366666Y-102679523D01*
X129414285Y-102584285D01*
X129414285Y-102393809D01*
X129366666Y-102298571D01*
X128795238Y-102727142D02*
X128747619Y-102631904D01*
X128747619Y-102393809D01*
X128795238Y-102298571D01*
X128890476Y-102250952D01*
X128985714Y-102250952D01*
X129080952Y-102298571D01*
X129128571Y-102393809D01*
X129128571Y-102631904D01*
X129176190Y-102727142D01*
X128747619Y-103203333D02*
X129747619Y-103203333D01*
X129128571Y-103298571D02*
X128747619Y-103584285D01*
X129414285Y-103584285D02*
X129033333Y-103203333D01*
X128747619Y-104155714D02*
X128795238Y-104060476D01*
X128842857Y-104012857D01*
X128938095Y-103965238D01*
X129223809Y-103965238D01*
X129319047Y-104012857D01*
X129366666Y-104060476D01*
X129414285Y-104155714D01*
X129414285Y-104298571D01*
X129366666Y-104393809D01*
X129319047Y-104441428D01*
X129223809Y-104489047D01*
X128938095Y-104489047D01*
X128842857Y-104441428D01*
X128795238Y-104393809D01*
X128747619Y-104298571D01*
X128747619Y-104155714D01*
X129414285Y-105346190D02*
X128747619Y-105346190D01*
X129414285Y-104917619D02*
X128890476Y-104917619D01*
X128795238Y-104965238D01*
X128747619Y-105060476D01*
X128747619Y-105203333D01*
X128795238Y-105298571D01*
X128842857Y-105346190D01*
X129414285Y-105679523D02*
X129414285Y-106060476D01*
X129747619Y-105822380D02*
X128890476Y-105822380D01*
X128795238Y-105870000D01*
X128747619Y-105965238D01*
X128747619Y-106060476D01*
X122420000Y-86868095D02*
X122467619Y-86772857D01*
X122467619Y-86630000D01*
X122420000Y-86487142D01*
X122324761Y-86391904D01*
X122229523Y-86344285D01*
X122039047Y-86296666D01*
X121896190Y-86296666D01*
X121705714Y-86344285D01*
X121610476Y-86391904D01*
X121515238Y-86487142D01*
X121467619Y-86630000D01*
X121467619Y-86725238D01*
X121515238Y-86868095D01*
X121562857Y-86915714D01*
X121896190Y-86915714D01*
X121896190Y-86725238D01*
X121467619Y-87344285D02*
X122467619Y-87344285D01*
X121467619Y-87915714D01*
X122467619Y-87915714D01*
X121467619Y-88391904D02*
X122467619Y-88391904D01*
X122467619Y-88630000D01*
X122420000Y-88772857D01*
X122324761Y-88868095D01*
X122229523Y-88915714D01*
X122039047Y-88963333D01*
X121896190Y-88963333D01*
X121705714Y-88915714D01*
X121610476Y-88868095D01*
X121515238Y-88772857D01*
X121467619Y-88630000D01*
X121467619Y-88391904D01*
X121991428Y-90241428D02*
X121943809Y-90384285D01*
X121896190Y-90431904D01*
X121800952Y-90479523D01*
X121658095Y-90479523D01*
X121562857Y-90431904D01*
X121515238Y-90384285D01*
X121467619Y-90289047D01*
X121467619Y-89908095D01*
X122467619Y-89908095D01*
X122467619Y-90241428D01*
X122420000Y-90336666D01*
X122372380Y-90384285D01*
X122277142Y-90431904D01*
X122181904Y-90431904D01*
X122086666Y-90384285D01*
X122039047Y-90336666D01*
X121991428Y-90241428D01*
X121991428Y-89908095D01*
X121467619Y-92590952D02*
X121467619Y-92114761D01*
X122467619Y-92114761D01*
X121991428Y-93257619D02*
X121991428Y-92924285D01*
X121467619Y-92924285D02*
X122467619Y-92924285D01*
X122467619Y-93400476D01*
X121467619Y-95178571D02*
X121943809Y-94845238D01*
X121467619Y-94607142D02*
X122467619Y-94607142D01*
X122467619Y-94988095D01*
X122420000Y-95083333D01*
X122372380Y-95130952D01*
X122277142Y-95178571D01*
X122134285Y-95178571D01*
X122039047Y-95130952D01*
X121991428Y-95083333D01*
X121943809Y-94988095D01*
X121943809Y-94607142D01*
X122467619Y-95464285D02*
X122467619Y-96035714D01*
X121467619Y-95750000D02*
X122467619Y-95750000D01*
X129087619Y-94464285D02*
X130087619Y-94464285D01*
X130087619Y-94702380D01*
X130040000Y-94845238D01*
X129944761Y-94940476D01*
X129849523Y-94988095D01*
X129659047Y-95035714D01*
X129516190Y-95035714D01*
X129325714Y-94988095D01*
X129230476Y-94940476D01*
X129135238Y-94845238D01*
X129087619Y-94702380D01*
X129087619Y-94464285D01*
X129087619Y-95464285D02*
X130087619Y-95464285D01*
X129087619Y-96035714D01*
X130087619Y-96035714D01*
X130087619Y-91924285D02*
X129278095Y-91924285D01*
X129182857Y-91971904D01*
X129135238Y-92019523D01*
X129087619Y-92114761D01*
X129087619Y-92305238D01*
X129135238Y-92400476D01*
X129182857Y-92448095D01*
X129278095Y-92495714D01*
X130087619Y-92495714D01*
X129087619Y-92971904D02*
X130087619Y-92971904D01*
X130087619Y-93352857D01*
X130040000Y-93448095D01*
X129992380Y-93495714D01*
X129897142Y-93543333D01*
X129754285Y-93543333D01*
X129659047Y-93495714D01*
X129611428Y-93448095D01*
X129563809Y-93352857D01*
X129563809Y-92971904D01*
X129373333Y-89931904D02*
X129373333Y-90408095D01*
X129087619Y-89836666D02*
X130087619Y-90170000D01*
X129087619Y-90503333D01*
X129182857Y-87058571D02*
X129135238Y-87010952D01*
X129087619Y-86868095D01*
X129087619Y-86772857D01*
X129135238Y-86630000D01*
X129230476Y-86534761D01*
X129325714Y-86487142D01*
X129516190Y-86439523D01*
X129659047Y-86439523D01*
X129849523Y-86487142D01*
X129944761Y-86534761D01*
X130040000Y-86630000D01*
X130087619Y-86772857D01*
X130087619Y-86868095D01*
X130040000Y-87010952D01*
X129992380Y-87058571D01*
X130087619Y-87344285D02*
X130087619Y-87915714D01*
X129087619Y-87630000D02*
X130087619Y-87630000D01*
X129087619Y-88820476D02*
X129563809Y-88487142D01*
X129087619Y-88249047D02*
X130087619Y-88249047D01*
X130087619Y-88630000D01*
X130040000Y-88725238D01*
X129992380Y-88772857D01*
X129897142Y-88820476D01*
X129754285Y-88820476D01*
X129659047Y-88772857D01*
X129611428Y-88725238D01*
X129563809Y-88630000D01*
X129563809Y-88249047D01*
D12*
%TO.C,X1*%
X151557056Y-78429235D02*
X149860000Y-76732179D01*
X136849235Y-89742944D02*
X135152179Y-91440000D01*
X148162944Y-104450765D02*
X149860000Y-106147821D01*
X149860000Y-76732179D02*
X148162944Y-78429235D01*
X162870765Y-93137056D02*
X164567821Y-91440000D01*
X162870765Y-89742944D02*
X162870765Y-93137056D01*
X136849235Y-93137056D02*
X136849235Y-89742944D01*
X151557056Y-104450765D02*
X148162944Y-104450765D01*
X164567821Y-91440000D02*
X162870765Y-89742944D01*
X149860000Y-106147821D02*
X151557056Y-104450765D01*
X135152179Y-91440000D02*
X136849235Y-93137056D01*
X148162944Y-78429235D02*
X151557056Y-78429235D01*
X153909999Y-91440000D02*
G75*
G03*
X153909999Y-91440000I-4049999J0D01*
G01*
X165859999Y-91440000D02*
G75*
G03*
X165859999Y-91440000I-15999999J0D01*
G01*
X167060001Y-91440000D02*
G75*
G03*
X167060001Y-91440000I-17200001J0D01*
G01*
X161310001Y-91440000D02*
G75*
G03*
X161310001Y-91440000I-11450001J0D01*
G01*
D13*
%TO.C,J1*%
X123130000Y-96580000D02*
X128330000Y-96580000D01*
X123130000Y-88900000D02*
X123130000Y-96580000D01*
X128330000Y-86300000D02*
X128330000Y-96580000D01*
X123130000Y-88900000D02*
X125730000Y-88900000D01*
X125730000Y-88900000D02*
X125730000Y-86300000D01*
X125730000Y-86300000D02*
X128330000Y-86300000D01*
X123130000Y-87630000D02*
X123130000Y-86300000D01*
X123130000Y-86300000D02*
X124460000Y-86300000D01*
%TD*%
M02*
