%TF.GenerationSoftware,KiCad,Pcbnew,(6.0.0)*%
%TF.CreationDate,2021-12-31T20:21:35-08:00*%
%TF.ProjectId,thumbler_left,7468756d-626c-4657-925f-6c6566742e6b,rev?*%
%TF.SameCoordinates,Original*%
%TF.FileFunction,Legend,Bot*%
%TF.FilePolarity,Positive*%
%FSLAX46Y46*%
G04 Gerber Fmt 4.6, Leading zero omitted, Abs format (unit mm)*
G04 Created by KiCad (PCBNEW (6.0.0)) date 2021-12-31 20:21:35*
%MOMM*%
%LPD*%
G01*
G04 APERTURE LIST*
%ADD10C,0.150000*%
%ADD11C,0.153000*%
%ADD12C,0.120000*%
G04 APERTURE END LIST*
D10*
%TO.C,S1*%
X98367904Y-246400761D02*
X98225047Y-246448380D01*
X97986952Y-246448380D01*
X97891714Y-246400761D01*
X97844095Y-246353142D01*
X97796476Y-246257904D01*
X97796476Y-246162666D01*
X97844095Y-246067428D01*
X97891714Y-246019809D01*
X97986952Y-245972190D01*
X98177428Y-245924571D01*
X98272666Y-245876952D01*
X98320285Y-245829333D01*
X98367904Y-245734095D01*
X98367904Y-245638857D01*
X98320285Y-245543619D01*
X98272666Y-245496000D01*
X98177428Y-245448380D01*
X97939333Y-245448380D01*
X97796476Y-245496000D01*
X96844095Y-246448380D02*
X97415523Y-246448380D01*
X97129809Y-246448380D02*
X97129809Y-245448380D01*
X97225047Y-245591238D01*
X97320285Y-245686476D01*
X97415523Y-245734095D01*
%TO.C,S4*%
X117414904Y-170195961D02*
X117272047Y-170243580D01*
X117033952Y-170243580D01*
X116938714Y-170195961D01*
X116891095Y-170148342D01*
X116843476Y-170053104D01*
X116843476Y-169957866D01*
X116891095Y-169862628D01*
X116938714Y-169815009D01*
X117033952Y-169767390D01*
X117224428Y-169719771D01*
X117319666Y-169672152D01*
X117367285Y-169624533D01*
X117414904Y-169529295D01*
X117414904Y-169434057D01*
X117367285Y-169338819D01*
X117319666Y-169291200D01*
X117224428Y-169243580D01*
X116986333Y-169243580D01*
X116843476Y-169291200D01*
X115986333Y-169576914D02*
X115986333Y-170243580D01*
X116224428Y-169195961D02*
X116462523Y-169910247D01*
X115843476Y-169910247D01*
%TO.C,S27*%
X212755466Y-250311406D02*
X212904422Y-250289317D01*
X213138900Y-250330662D01*
X213224422Y-250394095D01*
X213263049Y-250449260D01*
X213293406Y-250551320D01*
X213276868Y-250645111D01*
X213213435Y-250730634D01*
X213158270Y-250769260D01*
X213056210Y-250799618D01*
X212860359Y-250813438D01*
X212758299Y-250843795D01*
X212703134Y-250882422D01*
X212639700Y-250967944D01*
X212623163Y-251061736D01*
X212653520Y-251163796D01*
X212692147Y-251218960D01*
X212777669Y-251282394D01*
X213012147Y-251323739D01*
X213161103Y-251301650D01*
X213544537Y-251320906D02*
X213583163Y-251376071D01*
X213668686Y-251439504D01*
X213903164Y-251480849D01*
X214005224Y-251450491D01*
X214060388Y-251411865D01*
X214123822Y-251326342D01*
X214140360Y-251232551D01*
X214118271Y-251083595D01*
X213654751Y-250421621D01*
X214264394Y-250529117D01*
X214419015Y-251571807D02*
X215075554Y-251687573D01*
X214827142Y-250628345D01*
%TO.C,S28*%
X235002129Y-266761753D02*
X235146160Y-266805691D01*
X235340238Y-266943615D01*
X235390285Y-267037601D01*
X235401515Y-267104001D01*
X235385161Y-267209217D01*
X235329992Y-267286848D01*
X235236007Y-267336895D01*
X235169606Y-267348126D01*
X235064390Y-267331772D01*
X234881543Y-267260248D01*
X234776327Y-267243894D01*
X234709926Y-267255125D01*
X234615941Y-267305171D01*
X234560772Y-267382802D01*
X234544417Y-267488018D01*
X234555648Y-267554419D01*
X234605695Y-267648404D01*
X234799773Y-267786328D01*
X234943804Y-267830267D01*
X235281914Y-268012130D02*
X235293145Y-268078530D01*
X235343191Y-268172516D01*
X235537269Y-268310440D01*
X235642485Y-268326794D01*
X235708886Y-268315563D01*
X235802871Y-268265516D01*
X235858041Y-268187885D01*
X235901980Y-268043854D01*
X235767210Y-267247048D01*
X236271813Y-267605651D01*
X236406582Y-268402456D02*
X236301366Y-268386102D01*
X236234966Y-268397333D01*
X236140981Y-268447379D01*
X236113396Y-268486195D01*
X236097042Y-268591411D01*
X236108273Y-268657811D01*
X236158319Y-268751797D01*
X236313582Y-268862136D01*
X236418798Y-268878490D01*
X236485198Y-268867259D01*
X236579183Y-268817213D01*
X236606768Y-268778397D01*
X236623122Y-268673181D01*
X236611891Y-268606781D01*
X236561845Y-268512796D01*
X236406582Y-268402456D01*
X236356536Y-268308471D01*
X236345305Y-268242071D01*
X236361659Y-268136855D01*
X236471999Y-267981592D01*
X236565984Y-267931546D01*
X236632384Y-267920315D01*
X236737600Y-267936669D01*
X236892863Y-268047008D01*
X236942909Y-268140993D01*
X236954140Y-268207394D01*
X236937786Y-268312610D01*
X236827447Y-268467872D01*
X236733461Y-268517919D01*
X236667061Y-268529150D01*
X236561845Y-268512796D01*
%TO.C,S29*%
X248751438Y-290714712D02*
X248864106Y-290814620D01*
X248983153Y-291020817D01*
X248989533Y-291127105D01*
X248972103Y-291192153D01*
X248913434Y-291281012D01*
X248830956Y-291328631D01*
X248724668Y-291335011D01*
X248659619Y-291317581D01*
X248570760Y-291258912D01*
X248434283Y-291117764D01*
X248345425Y-291059095D01*
X248280376Y-291041665D01*
X248174088Y-291048045D01*
X248091609Y-291095664D01*
X248032940Y-291184522D01*
X248015510Y-291249571D01*
X248021890Y-291355859D01*
X248140938Y-291562056D01*
X248253605Y-291661964D01*
X248485321Y-291968069D02*
X248467891Y-292033118D01*
X248474271Y-292139406D01*
X248593319Y-292345603D01*
X248682177Y-292404272D01*
X248747226Y-292421702D01*
X248853514Y-292415322D01*
X248935992Y-292367703D01*
X249035901Y-292255035D01*
X249245058Y-291474449D01*
X249554582Y-292010560D01*
X249792677Y-292422953D02*
X249887915Y-292587910D01*
X249894295Y-292694198D01*
X249876865Y-292759247D01*
X249800766Y-292913154D01*
X249659619Y-293049632D01*
X249329704Y-293240108D01*
X249223416Y-293246488D01*
X249158367Y-293229058D01*
X249069509Y-293170389D01*
X248974271Y-293005432D01*
X248967891Y-292899143D01*
X248985321Y-292834095D01*
X249043990Y-292745236D01*
X249250187Y-292626189D01*
X249356475Y-292619809D01*
X249421524Y-292637239D01*
X249510382Y-292695908D01*
X249605620Y-292860865D01*
X249612000Y-292967153D01*
X249594570Y-293032202D01*
X249535901Y-293121060D01*
%TO.C,S7*%
X136464904Y-170195961D02*
X136322047Y-170243580D01*
X136083952Y-170243580D01*
X135988714Y-170195961D01*
X135941095Y-170148342D01*
X135893476Y-170053104D01*
X135893476Y-169957866D01*
X135941095Y-169862628D01*
X135988714Y-169815009D01*
X136083952Y-169767390D01*
X136274428Y-169719771D01*
X136369666Y-169672152D01*
X136417285Y-169624533D01*
X136464904Y-169529295D01*
X136464904Y-169434057D01*
X136417285Y-169338819D01*
X136369666Y-169291200D01*
X136274428Y-169243580D01*
X136036333Y-169243580D01*
X135893476Y-169291200D01*
X135560142Y-169243580D02*
X134893476Y-169243580D01*
X135322047Y-170243580D01*
%TO.C,S12*%
X155991095Y-160195961D02*
X155848238Y-160243580D01*
X155610142Y-160243580D01*
X155514904Y-160195961D01*
X155467285Y-160148342D01*
X155419666Y-160053104D01*
X155419666Y-159957866D01*
X155467285Y-159862628D01*
X155514904Y-159815009D01*
X155610142Y-159767390D01*
X155800619Y-159719771D01*
X155895857Y-159672152D01*
X155943476Y-159624533D01*
X155991095Y-159529295D01*
X155991095Y-159434057D01*
X155943476Y-159338819D01*
X155895857Y-159291200D01*
X155800619Y-159243580D01*
X155562523Y-159243580D01*
X155419666Y-159291200D01*
X154467285Y-160243580D02*
X155038714Y-160243580D01*
X154753000Y-160243580D02*
X154753000Y-159243580D01*
X154848238Y-159386438D01*
X154943476Y-159481676D01*
X155038714Y-159529295D01*
X154086333Y-159338819D02*
X154038714Y-159291200D01*
X153943476Y-159243580D01*
X153705380Y-159243580D01*
X153610142Y-159291200D01*
X153562523Y-159338819D01*
X153514904Y-159434057D01*
X153514904Y-159529295D01*
X153562523Y-159672152D01*
X154133952Y-160243580D01*
X153514904Y-160243580D01*
%TO.C,S17*%
X175041095Y-158195961D02*
X174898238Y-158243580D01*
X174660142Y-158243580D01*
X174564904Y-158195961D01*
X174517285Y-158148342D01*
X174469666Y-158053104D01*
X174469666Y-157957866D01*
X174517285Y-157862628D01*
X174564904Y-157815009D01*
X174660142Y-157767390D01*
X174850619Y-157719771D01*
X174945857Y-157672152D01*
X174993476Y-157624533D01*
X175041095Y-157529295D01*
X175041095Y-157434057D01*
X174993476Y-157338819D01*
X174945857Y-157291200D01*
X174850619Y-157243580D01*
X174612523Y-157243580D01*
X174469666Y-157291200D01*
X173517285Y-158243580D02*
X174088714Y-158243580D01*
X173803000Y-158243580D02*
X173803000Y-157243580D01*
X173898238Y-157386438D01*
X173993476Y-157481676D01*
X174088714Y-157529295D01*
X173183952Y-157243580D02*
X172517285Y-157243580D01*
X172945857Y-158243580D01*
%TO.C,S22*%
X194091095Y-162195961D02*
X193948238Y-162243580D01*
X193710142Y-162243580D01*
X193614904Y-162195961D01*
X193567285Y-162148342D01*
X193519666Y-162053104D01*
X193519666Y-161957866D01*
X193567285Y-161862628D01*
X193614904Y-161815009D01*
X193710142Y-161767390D01*
X193900619Y-161719771D01*
X193995857Y-161672152D01*
X194043476Y-161624533D01*
X194091095Y-161529295D01*
X194091095Y-161434057D01*
X194043476Y-161338819D01*
X193995857Y-161291200D01*
X193900619Y-161243580D01*
X193662523Y-161243580D01*
X193519666Y-161291200D01*
X193138714Y-161338819D02*
X193091095Y-161291200D01*
X192995857Y-161243580D01*
X192757761Y-161243580D01*
X192662523Y-161291200D01*
X192614904Y-161338819D01*
X192567285Y-161434057D01*
X192567285Y-161529295D01*
X192614904Y-161672152D01*
X193186333Y-162243580D01*
X192567285Y-162243580D01*
X192186333Y-161338819D02*
X192138714Y-161291200D01*
X192043476Y-161243580D01*
X191805380Y-161243580D01*
X191710142Y-161291200D01*
X191662523Y-161338819D01*
X191614904Y-161434057D01*
X191614904Y-161529295D01*
X191662523Y-161672152D01*
X192233952Y-162243580D01*
X191614904Y-162243580D01*
%TO.C,S30*%
X213141095Y-166195961D02*
X212998238Y-166243580D01*
X212760142Y-166243580D01*
X212664904Y-166195961D01*
X212617285Y-166148342D01*
X212569666Y-166053104D01*
X212569666Y-165957866D01*
X212617285Y-165862628D01*
X212664904Y-165815009D01*
X212760142Y-165767390D01*
X212950619Y-165719771D01*
X213045857Y-165672152D01*
X213093476Y-165624533D01*
X213141095Y-165529295D01*
X213141095Y-165434057D01*
X213093476Y-165338819D01*
X213045857Y-165291200D01*
X212950619Y-165243580D01*
X212712523Y-165243580D01*
X212569666Y-165291200D01*
X212236333Y-165243580D02*
X211617285Y-165243580D01*
X211950619Y-165624533D01*
X211807761Y-165624533D01*
X211712523Y-165672152D01*
X211664904Y-165719771D01*
X211617285Y-165815009D01*
X211617285Y-166053104D01*
X211664904Y-166148342D01*
X211712523Y-166195961D01*
X211807761Y-166243580D01*
X212093476Y-166243580D01*
X212188714Y-166195961D01*
X212236333Y-166148342D01*
X210998238Y-165243580D02*
X210903000Y-165243580D01*
X210807761Y-165291200D01*
X210760142Y-165338819D01*
X210712523Y-165434057D01*
X210664904Y-165624533D01*
X210664904Y-165862628D01*
X210712523Y-166053104D01*
X210760142Y-166148342D01*
X210807761Y-166195961D01*
X210903000Y-166243580D01*
X210998238Y-166243580D01*
X211093476Y-166195961D01*
X211141095Y-166148342D01*
X211188714Y-166053104D01*
X211236333Y-165862628D01*
X211236333Y-165624533D01*
X211188714Y-165434057D01*
X211141095Y-165338819D01*
X211093476Y-165291200D01*
X210998238Y-165243580D01*
%TO.C,S5*%
X117414904Y-189245961D02*
X117272047Y-189293580D01*
X117033952Y-189293580D01*
X116938714Y-189245961D01*
X116891095Y-189198342D01*
X116843476Y-189103104D01*
X116843476Y-189007866D01*
X116891095Y-188912628D01*
X116938714Y-188865009D01*
X117033952Y-188817390D01*
X117224428Y-188769771D01*
X117319666Y-188722152D01*
X117367285Y-188674533D01*
X117414904Y-188579295D01*
X117414904Y-188484057D01*
X117367285Y-188388819D01*
X117319666Y-188341200D01*
X117224428Y-188293580D01*
X116986333Y-188293580D01*
X116843476Y-188341200D01*
X115938714Y-188293580D02*
X116414904Y-188293580D01*
X116462523Y-188769771D01*
X116414904Y-188722152D01*
X116319666Y-188674533D01*
X116081571Y-188674533D01*
X115986333Y-188722152D01*
X115938714Y-188769771D01*
X115891095Y-188865009D01*
X115891095Y-189103104D01*
X115938714Y-189198342D01*
X115986333Y-189245961D01*
X116081571Y-189293580D01*
X116319666Y-189293580D01*
X116414904Y-189245961D01*
X116462523Y-189198342D01*
%TO.C,S8*%
X136464904Y-189245961D02*
X136322047Y-189293580D01*
X136083952Y-189293580D01*
X135988714Y-189245961D01*
X135941095Y-189198342D01*
X135893476Y-189103104D01*
X135893476Y-189007866D01*
X135941095Y-188912628D01*
X135988714Y-188865009D01*
X136083952Y-188817390D01*
X136274428Y-188769771D01*
X136369666Y-188722152D01*
X136417285Y-188674533D01*
X136464904Y-188579295D01*
X136464904Y-188484057D01*
X136417285Y-188388819D01*
X136369666Y-188341200D01*
X136274428Y-188293580D01*
X136036333Y-188293580D01*
X135893476Y-188341200D01*
X135322047Y-188722152D02*
X135417285Y-188674533D01*
X135464904Y-188626914D01*
X135512523Y-188531676D01*
X135512523Y-188484057D01*
X135464904Y-188388819D01*
X135417285Y-188341200D01*
X135322047Y-188293580D01*
X135131571Y-188293580D01*
X135036333Y-188341200D01*
X134988714Y-188388819D01*
X134941095Y-188484057D01*
X134941095Y-188531676D01*
X134988714Y-188626914D01*
X135036333Y-188674533D01*
X135131571Y-188722152D01*
X135322047Y-188722152D01*
X135417285Y-188769771D01*
X135464904Y-188817390D01*
X135512523Y-188912628D01*
X135512523Y-189103104D01*
X135464904Y-189198342D01*
X135417285Y-189245961D01*
X135322047Y-189293580D01*
X135131571Y-189293580D01*
X135036333Y-189245961D01*
X134988714Y-189198342D01*
X134941095Y-189103104D01*
X134941095Y-188912628D01*
X134988714Y-188817390D01*
X135036333Y-188769771D01*
X135131571Y-188722152D01*
%TO.C,S13*%
X155991095Y-179245961D02*
X155848238Y-179293580D01*
X155610142Y-179293580D01*
X155514904Y-179245961D01*
X155467285Y-179198342D01*
X155419666Y-179103104D01*
X155419666Y-179007866D01*
X155467285Y-178912628D01*
X155514904Y-178865009D01*
X155610142Y-178817390D01*
X155800619Y-178769771D01*
X155895857Y-178722152D01*
X155943476Y-178674533D01*
X155991095Y-178579295D01*
X155991095Y-178484057D01*
X155943476Y-178388819D01*
X155895857Y-178341200D01*
X155800619Y-178293580D01*
X155562523Y-178293580D01*
X155419666Y-178341200D01*
X154467285Y-179293580D02*
X155038714Y-179293580D01*
X154753000Y-179293580D02*
X154753000Y-178293580D01*
X154848238Y-178436438D01*
X154943476Y-178531676D01*
X155038714Y-178579295D01*
X154133952Y-178293580D02*
X153514904Y-178293580D01*
X153848238Y-178674533D01*
X153705380Y-178674533D01*
X153610142Y-178722152D01*
X153562523Y-178769771D01*
X153514904Y-178865009D01*
X153514904Y-179103104D01*
X153562523Y-179198342D01*
X153610142Y-179245961D01*
X153705380Y-179293580D01*
X153991095Y-179293580D01*
X154086333Y-179245961D01*
X154133952Y-179198342D01*
%TO.C,S18*%
X175041095Y-177245961D02*
X174898238Y-177293580D01*
X174660142Y-177293580D01*
X174564904Y-177245961D01*
X174517285Y-177198342D01*
X174469666Y-177103104D01*
X174469666Y-177007866D01*
X174517285Y-176912628D01*
X174564904Y-176865009D01*
X174660142Y-176817390D01*
X174850619Y-176769771D01*
X174945857Y-176722152D01*
X174993476Y-176674533D01*
X175041095Y-176579295D01*
X175041095Y-176484057D01*
X174993476Y-176388819D01*
X174945857Y-176341200D01*
X174850619Y-176293580D01*
X174612523Y-176293580D01*
X174469666Y-176341200D01*
X173517285Y-177293580D02*
X174088714Y-177293580D01*
X173803000Y-177293580D02*
X173803000Y-176293580D01*
X173898238Y-176436438D01*
X173993476Y-176531676D01*
X174088714Y-176579295D01*
X172945857Y-176722152D02*
X173041095Y-176674533D01*
X173088714Y-176626914D01*
X173136333Y-176531676D01*
X173136333Y-176484057D01*
X173088714Y-176388819D01*
X173041095Y-176341200D01*
X172945857Y-176293580D01*
X172755380Y-176293580D01*
X172660142Y-176341200D01*
X172612523Y-176388819D01*
X172564904Y-176484057D01*
X172564904Y-176531676D01*
X172612523Y-176626914D01*
X172660142Y-176674533D01*
X172755380Y-176722152D01*
X172945857Y-176722152D01*
X173041095Y-176769771D01*
X173088714Y-176817390D01*
X173136333Y-176912628D01*
X173136333Y-177103104D01*
X173088714Y-177198342D01*
X173041095Y-177245961D01*
X172945857Y-177293580D01*
X172755380Y-177293580D01*
X172660142Y-177245961D01*
X172612523Y-177198342D01*
X172564904Y-177103104D01*
X172564904Y-176912628D01*
X172612523Y-176817390D01*
X172660142Y-176769771D01*
X172755380Y-176722152D01*
%TO.C,S23*%
X194091095Y-181245961D02*
X193948238Y-181293580D01*
X193710142Y-181293580D01*
X193614904Y-181245961D01*
X193567285Y-181198342D01*
X193519666Y-181103104D01*
X193519666Y-181007866D01*
X193567285Y-180912628D01*
X193614904Y-180865009D01*
X193710142Y-180817390D01*
X193900619Y-180769771D01*
X193995857Y-180722152D01*
X194043476Y-180674533D01*
X194091095Y-180579295D01*
X194091095Y-180484057D01*
X194043476Y-180388819D01*
X193995857Y-180341200D01*
X193900619Y-180293580D01*
X193662523Y-180293580D01*
X193519666Y-180341200D01*
X193138714Y-180388819D02*
X193091095Y-180341200D01*
X192995857Y-180293580D01*
X192757761Y-180293580D01*
X192662523Y-180341200D01*
X192614904Y-180388819D01*
X192567285Y-180484057D01*
X192567285Y-180579295D01*
X192614904Y-180722152D01*
X193186333Y-181293580D01*
X192567285Y-181293580D01*
X192233952Y-180293580D02*
X191614904Y-180293580D01*
X191948238Y-180674533D01*
X191805380Y-180674533D01*
X191710142Y-180722152D01*
X191662523Y-180769771D01*
X191614904Y-180865009D01*
X191614904Y-181103104D01*
X191662523Y-181198342D01*
X191710142Y-181245961D01*
X191805380Y-181293580D01*
X192091095Y-181293580D01*
X192186333Y-181245961D01*
X192233952Y-181198342D01*
%TO.C,S31*%
X213141095Y-185245961D02*
X212998238Y-185293580D01*
X212760142Y-185293580D01*
X212664904Y-185245961D01*
X212617285Y-185198342D01*
X212569666Y-185103104D01*
X212569666Y-185007866D01*
X212617285Y-184912628D01*
X212664904Y-184865009D01*
X212760142Y-184817390D01*
X212950619Y-184769771D01*
X213045857Y-184722152D01*
X213093476Y-184674533D01*
X213141095Y-184579295D01*
X213141095Y-184484057D01*
X213093476Y-184388819D01*
X213045857Y-184341200D01*
X212950619Y-184293580D01*
X212712523Y-184293580D01*
X212569666Y-184341200D01*
X212236333Y-184293580D02*
X211617285Y-184293580D01*
X211950619Y-184674533D01*
X211807761Y-184674533D01*
X211712523Y-184722152D01*
X211664904Y-184769771D01*
X211617285Y-184865009D01*
X211617285Y-185103104D01*
X211664904Y-185198342D01*
X211712523Y-185245961D01*
X211807761Y-185293580D01*
X212093476Y-185293580D01*
X212188714Y-185245961D01*
X212236333Y-185198342D01*
X210664904Y-185293580D02*
X211236333Y-185293580D01*
X210950619Y-185293580D02*
X210950619Y-184293580D01*
X211045857Y-184436438D01*
X211141095Y-184531676D01*
X211236333Y-184579295D01*
%TO.C,S2*%
X112688420Y-208287641D02*
X112545563Y-208335260D01*
X112307468Y-208335260D01*
X112212230Y-208287641D01*
X112164611Y-208240022D01*
X112116992Y-208144784D01*
X112116992Y-208049546D01*
X112164611Y-207954308D01*
X112212230Y-207906689D01*
X112307468Y-207859070D01*
X112497944Y-207811451D01*
X112593182Y-207763832D01*
X112640801Y-207716213D01*
X112688420Y-207620975D01*
X112688420Y-207525737D01*
X112640801Y-207430499D01*
X112593182Y-207382880D01*
X112497944Y-207335260D01*
X112259849Y-207335260D01*
X112116992Y-207382880D01*
X111736039Y-207430499D02*
X111688420Y-207382880D01*
X111593182Y-207335260D01*
X111355087Y-207335260D01*
X111259849Y-207382880D01*
X111212230Y-207430499D01*
X111164611Y-207525737D01*
X111164611Y-207620975D01*
X111212230Y-207763832D01*
X111783658Y-208335260D01*
X111164611Y-208335260D01*
%TO.C,S9*%
X136464904Y-208295961D02*
X136322047Y-208343580D01*
X136083952Y-208343580D01*
X135988714Y-208295961D01*
X135941095Y-208248342D01*
X135893476Y-208153104D01*
X135893476Y-208057866D01*
X135941095Y-207962628D01*
X135988714Y-207915009D01*
X136083952Y-207867390D01*
X136274428Y-207819771D01*
X136369666Y-207772152D01*
X136417285Y-207724533D01*
X136464904Y-207629295D01*
X136464904Y-207534057D01*
X136417285Y-207438819D01*
X136369666Y-207391200D01*
X136274428Y-207343580D01*
X136036333Y-207343580D01*
X135893476Y-207391200D01*
X135417285Y-208343580D02*
X135226809Y-208343580D01*
X135131571Y-208295961D01*
X135083952Y-208248342D01*
X134988714Y-208105485D01*
X134941095Y-207915009D01*
X134941095Y-207534057D01*
X134988714Y-207438819D01*
X135036333Y-207391200D01*
X135131571Y-207343580D01*
X135322047Y-207343580D01*
X135417285Y-207391200D01*
X135464904Y-207438819D01*
X135512523Y-207534057D01*
X135512523Y-207772152D01*
X135464904Y-207867390D01*
X135417285Y-207915009D01*
X135322047Y-207962628D01*
X135131571Y-207962628D01*
X135036333Y-207915009D01*
X134988714Y-207867390D01*
X134941095Y-207772152D01*
%TO.C,S14*%
X155991095Y-198295961D02*
X155848238Y-198343580D01*
X155610142Y-198343580D01*
X155514904Y-198295961D01*
X155467285Y-198248342D01*
X155419666Y-198153104D01*
X155419666Y-198057866D01*
X155467285Y-197962628D01*
X155514904Y-197915009D01*
X155610142Y-197867390D01*
X155800619Y-197819771D01*
X155895857Y-197772152D01*
X155943476Y-197724533D01*
X155991095Y-197629295D01*
X155991095Y-197534057D01*
X155943476Y-197438819D01*
X155895857Y-197391200D01*
X155800619Y-197343580D01*
X155562523Y-197343580D01*
X155419666Y-197391200D01*
X154467285Y-198343580D02*
X155038714Y-198343580D01*
X154753000Y-198343580D02*
X154753000Y-197343580D01*
X154848238Y-197486438D01*
X154943476Y-197581676D01*
X155038714Y-197629295D01*
X153610142Y-197676914D02*
X153610142Y-198343580D01*
X153848238Y-197295961D02*
X154086333Y-198010247D01*
X153467285Y-198010247D01*
%TO.C,S19*%
X175041095Y-196295961D02*
X174898238Y-196343580D01*
X174660142Y-196343580D01*
X174564904Y-196295961D01*
X174517285Y-196248342D01*
X174469666Y-196153104D01*
X174469666Y-196057866D01*
X174517285Y-195962628D01*
X174564904Y-195915009D01*
X174660142Y-195867390D01*
X174850619Y-195819771D01*
X174945857Y-195772152D01*
X174993476Y-195724533D01*
X175041095Y-195629295D01*
X175041095Y-195534057D01*
X174993476Y-195438819D01*
X174945857Y-195391200D01*
X174850619Y-195343580D01*
X174612523Y-195343580D01*
X174469666Y-195391200D01*
X173517285Y-196343580D02*
X174088714Y-196343580D01*
X173803000Y-196343580D02*
X173803000Y-195343580D01*
X173898238Y-195486438D01*
X173993476Y-195581676D01*
X174088714Y-195629295D01*
X173041095Y-196343580D02*
X172850619Y-196343580D01*
X172755380Y-196295961D01*
X172707761Y-196248342D01*
X172612523Y-196105485D01*
X172564904Y-195915009D01*
X172564904Y-195534057D01*
X172612523Y-195438819D01*
X172660142Y-195391200D01*
X172755380Y-195343580D01*
X172945857Y-195343580D01*
X173041095Y-195391200D01*
X173088714Y-195438819D01*
X173136333Y-195534057D01*
X173136333Y-195772152D01*
X173088714Y-195867390D01*
X173041095Y-195915009D01*
X172945857Y-195962628D01*
X172755380Y-195962628D01*
X172660142Y-195915009D01*
X172612523Y-195867390D01*
X172564904Y-195772152D01*
%TO.C,S24*%
X194091095Y-200295961D02*
X193948238Y-200343580D01*
X193710142Y-200343580D01*
X193614904Y-200295961D01*
X193567285Y-200248342D01*
X193519666Y-200153104D01*
X193519666Y-200057866D01*
X193567285Y-199962628D01*
X193614904Y-199915009D01*
X193710142Y-199867390D01*
X193900619Y-199819771D01*
X193995857Y-199772152D01*
X194043476Y-199724533D01*
X194091095Y-199629295D01*
X194091095Y-199534057D01*
X194043476Y-199438819D01*
X193995857Y-199391200D01*
X193900619Y-199343580D01*
X193662523Y-199343580D01*
X193519666Y-199391200D01*
X193138714Y-199438819D02*
X193091095Y-199391200D01*
X192995857Y-199343580D01*
X192757761Y-199343580D01*
X192662523Y-199391200D01*
X192614904Y-199438819D01*
X192567285Y-199534057D01*
X192567285Y-199629295D01*
X192614904Y-199772152D01*
X193186333Y-200343580D01*
X192567285Y-200343580D01*
X191710142Y-199676914D02*
X191710142Y-200343580D01*
X191948238Y-199295961D02*
X192186333Y-200010247D01*
X191567285Y-200010247D01*
%TO.C,S32*%
X213141095Y-204295961D02*
X212998238Y-204343580D01*
X212760142Y-204343580D01*
X212664904Y-204295961D01*
X212617285Y-204248342D01*
X212569666Y-204153104D01*
X212569666Y-204057866D01*
X212617285Y-203962628D01*
X212664904Y-203915009D01*
X212760142Y-203867390D01*
X212950619Y-203819771D01*
X213045857Y-203772152D01*
X213093476Y-203724533D01*
X213141095Y-203629295D01*
X213141095Y-203534057D01*
X213093476Y-203438819D01*
X213045857Y-203391200D01*
X212950619Y-203343580D01*
X212712523Y-203343580D01*
X212569666Y-203391200D01*
X212236333Y-203343580D02*
X211617285Y-203343580D01*
X211950619Y-203724533D01*
X211807761Y-203724533D01*
X211712523Y-203772152D01*
X211664904Y-203819771D01*
X211617285Y-203915009D01*
X211617285Y-204153104D01*
X211664904Y-204248342D01*
X211712523Y-204295961D01*
X211807761Y-204343580D01*
X212093476Y-204343580D01*
X212188714Y-204295961D01*
X212236333Y-204248342D01*
X211236333Y-203438819D02*
X211188714Y-203391200D01*
X211093476Y-203343580D01*
X210855380Y-203343580D01*
X210760142Y-203391200D01*
X210712523Y-203438819D01*
X210664904Y-203534057D01*
X210664904Y-203629295D01*
X210712523Y-203772152D01*
X211283952Y-204343580D01*
X210664904Y-204343580D01*
%TO.C,S3*%
X110267360Y-227344917D02*
X110124503Y-227392536D01*
X109886408Y-227392536D01*
X109791170Y-227344917D01*
X109743551Y-227297298D01*
X109695932Y-227202060D01*
X109695932Y-227106822D01*
X109743551Y-227011584D01*
X109791170Y-226963965D01*
X109886408Y-226916346D01*
X110076884Y-226868727D01*
X110172122Y-226821108D01*
X110219741Y-226773489D01*
X110267360Y-226678251D01*
X110267360Y-226583013D01*
X110219741Y-226487775D01*
X110172122Y-226440156D01*
X110076884Y-226392536D01*
X109838789Y-226392536D01*
X109695932Y-226440156D01*
X109362598Y-226392536D02*
X108743551Y-226392536D01*
X109076884Y-226773489D01*
X108934027Y-226773489D01*
X108838789Y-226821108D01*
X108791170Y-226868727D01*
X108743551Y-226963965D01*
X108743551Y-227202060D01*
X108791170Y-227297298D01*
X108838789Y-227344917D01*
X108934027Y-227392536D01*
X109219741Y-227392536D01*
X109314979Y-227344917D01*
X109362598Y-227297298D01*
%TO.C,S10*%
X136941095Y-227345961D02*
X136798238Y-227393580D01*
X136560142Y-227393580D01*
X136464904Y-227345961D01*
X136417285Y-227298342D01*
X136369666Y-227203104D01*
X136369666Y-227107866D01*
X136417285Y-227012628D01*
X136464904Y-226965009D01*
X136560142Y-226917390D01*
X136750619Y-226869771D01*
X136845857Y-226822152D01*
X136893476Y-226774533D01*
X136941095Y-226679295D01*
X136941095Y-226584057D01*
X136893476Y-226488819D01*
X136845857Y-226441200D01*
X136750619Y-226393580D01*
X136512523Y-226393580D01*
X136369666Y-226441200D01*
X135417285Y-227393580D02*
X135988714Y-227393580D01*
X135703000Y-227393580D02*
X135703000Y-226393580D01*
X135798238Y-226536438D01*
X135893476Y-226631676D01*
X135988714Y-226679295D01*
X134798238Y-226393580D02*
X134703000Y-226393580D01*
X134607761Y-226441200D01*
X134560142Y-226488819D01*
X134512523Y-226584057D01*
X134464904Y-226774533D01*
X134464904Y-227012628D01*
X134512523Y-227203104D01*
X134560142Y-227298342D01*
X134607761Y-227345961D01*
X134703000Y-227393580D01*
X134798238Y-227393580D01*
X134893476Y-227345961D01*
X134941095Y-227298342D01*
X134988714Y-227203104D01*
X135036333Y-227012628D01*
X135036333Y-226774533D01*
X134988714Y-226584057D01*
X134941095Y-226488819D01*
X134893476Y-226441200D01*
X134798238Y-226393580D01*
%TO.C,S15*%
X155991095Y-217345961D02*
X155848238Y-217393580D01*
X155610142Y-217393580D01*
X155514904Y-217345961D01*
X155467285Y-217298342D01*
X155419666Y-217203104D01*
X155419666Y-217107866D01*
X155467285Y-217012628D01*
X155514904Y-216965009D01*
X155610142Y-216917390D01*
X155800619Y-216869771D01*
X155895857Y-216822152D01*
X155943476Y-216774533D01*
X155991095Y-216679295D01*
X155991095Y-216584057D01*
X155943476Y-216488819D01*
X155895857Y-216441200D01*
X155800619Y-216393580D01*
X155562523Y-216393580D01*
X155419666Y-216441200D01*
X154467285Y-217393580D02*
X155038714Y-217393580D01*
X154753000Y-217393580D02*
X154753000Y-216393580D01*
X154848238Y-216536438D01*
X154943476Y-216631676D01*
X155038714Y-216679295D01*
X153562523Y-216393580D02*
X154038714Y-216393580D01*
X154086333Y-216869771D01*
X154038714Y-216822152D01*
X153943476Y-216774533D01*
X153705380Y-216774533D01*
X153610142Y-216822152D01*
X153562523Y-216869771D01*
X153514904Y-216965009D01*
X153514904Y-217203104D01*
X153562523Y-217298342D01*
X153610142Y-217345961D01*
X153705380Y-217393580D01*
X153943476Y-217393580D01*
X154038714Y-217345961D01*
X154086333Y-217298342D01*
%TO.C,S20*%
X175041095Y-215345961D02*
X174898238Y-215393580D01*
X174660142Y-215393580D01*
X174564904Y-215345961D01*
X174517285Y-215298342D01*
X174469666Y-215203104D01*
X174469666Y-215107866D01*
X174517285Y-215012628D01*
X174564904Y-214965009D01*
X174660142Y-214917390D01*
X174850619Y-214869771D01*
X174945857Y-214822152D01*
X174993476Y-214774533D01*
X175041095Y-214679295D01*
X175041095Y-214584057D01*
X174993476Y-214488819D01*
X174945857Y-214441200D01*
X174850619Y-214393580D01*
X174612523Y-214393580D01*
X174469666Y-214441200D01*
X174088714Y-214488819D02*
X174041095Y-214441200D01*
X173945857Y-214393580D01*
X173707761Y-214393580D01*
X173612523Y-214441200D01*
X173564904Y-214488819D01*
X173517285Y-214584057D01*
X173517285Y-214679295D01*
X173564904Y-214822152D01*
X174136333Y-215393580D01*
X173517285Y-215393580D01*
X172898238Y-214393580D02*
X172803000Y-214393580D01*
X172707761Y-214441200D01*
X172660142Y-214488819D01*
X172612523Y-214584057D01*
X172564904Y-214774533D01*
X172564904Y-215012628D01*
X172612523Y-215203104D01*
X172660142Y-215298342D01*
X172707761Y-215345961D01*
X172803000Y-215393580D01*
X172898238Y-215393580D01*
X172993476Y-215345961D01*
X173041095Y-215298342D01*
X173088714Y-215203104D01*
X173136333Y-215012628D01*
X173136333Y-214774533D01*
X173088714Y-214584057D01*
X173041095Y-214488819D01*
X172993476Y-214441200D01*
X172898238Y-214393580D01*
%TO.C,S25*%
X194091095Y-219345961D02*
X193948238Y-219393580D01*
X193710142Y-219393580D01*
X193614904Y-219345961D01*
X193567285Y-219298342D01*
X193519666Y-219203104D01*
X193519666Y-219107866D01*
X193567285Y-219012628D01*
X193614904Y-218965009D01*
X193710142Y-218917390D01*
X193900619Y-218869771D01*
X193995857Y-218822152D01*
X194043476Y-218774533D01*
X194091095Y-218679295D01*
X194091095Y-218584057D01*
X194043476Y-218488819D01*
X193995857Y-218441200D01*
X193900619Y-218393580D01*
X193662523Y-218393580D01*
X193519666Y-218441200D01*
X193138714Y-218488819D02*
X193091095Y-218441200D01*
X192995857Y-218393580D01*
X192757761Y-218393580D01*
X192662523Y-218441200D01*
X192614904Y-218488819D01*
X192567285Y-218584057D01*
X192567285Y-218679295D01*
X192614904Y-218822152D01*
X193186333Y-219393580D01*
X192567285Y-219393580D01*
X191662523Y-218393580D02*
X192138714Y-218393580D01*
X192186333Y-218869771D01*
X192138714Y-218822152D01*
X192043476Y-218774533D01*
X191805380Y-218774533D01*
X191710142Y-218822152D01*
X191662523Y-218869771D01*
X191614904Y-218965009D01*
X191614904Y-219203104D01*
X191662523Y-219298342D01*
X191710142Y-219345961D01*
X191805380Y-219393580D01*
X192043476Y-219393580D01*
X192138714Y-219345961D01*
X192186333Y-219298342D01*
%TO.C,S33*%
X213141095Y-223345961D02*
X212998238Y-223393580D01*
X212760142Y-223393580D01*
X212664904Y-223345961D01*
X212617285Y-223298342D01*
X212569666Y-223203104D01*
X212569666Y-223107866D01*
X212617285Y-223012628D01*
X212664904Y-222965009D01*
X212760142Y-222917390D01*
X212950619Y-222869771D01*
X213045857Y-222822152D01*
X213093476Y-222774533D01*
X213141095Y-222679295D01*
X213141095Y-222584057D01*
X213093476Y-222488819D01*
X213045857Y-222441200D01*
X212950619Y-222393580D01*
X212712523Y-222393580D01*
X212569666Y-222441200D01*
X212236333Y-222393580D02*
X211617285Y-222393580D01*
X211950619Y-222774533D01*
X211807761Y-222774533D01*
X211712523Y-222822152D01*
X211664904Y-222869771D01*
X211617285Y-222965009D01*
X211617285Y-223203104D01*
X211664904Y-223298342D01*
X211712523Y-223345961D01*
X211807761Y-223393580D01*
X212093476Y-223393580D01*
X212188714Y-223345961D01*
X212236333Y-223298342D01*
X211283952Y-222393580D02*
X210664904Y-222393580D01*
X210998238Y-222774533D01*
X210855380Y-222774533D01*
X210760142Y-222822152D01*
X210712523Y-222869771D01*
X210664904Y-222965009D01*
X210664904Y-223203104D01*
X210712523Y-223298342D01*
X210760142Y-223345961D01*
X210855380Y-223393580D01*
X211141095Y-223393580D01*
X211236333Y-223345961D01*
X211283952Y-223298342D01*
%TO.C,S6*%
X117414904Y-246395961D02*
X117272047Y-246443580D01*
X117033952Y-246443580D01*
X116938714Y-246395961D01*
X116891095Y-246348342D01*
X116843476Y-246253104D01*
X116843476Y-246157866D01*
X116891095Y-246062628D01*
X116938714Y-246015009D01*
X117033952Y-245967390D01*
X117224428Y-245919771D01*
X117319666Y-245872152D01*
X117367285Y-245824533D01*
X117414904Y-245729295D01*
X117414904Y-245634057D01*
X117367285Y-245538819D01*
X117319666Y-245491200D01*
X117224428Y-245443580D01*
X116986333Y-245443580D01*
X116843476Y-245491200D01*
X115986333Y-245443580D02*
X116176809Y-245443580D01*
X116272047Y-245491200D01*
X116319666Y-245538819D01*
X116414904Y-245681676D01*
X116462523Y-245872152D01*
X116462523Y-246253104D01*
X116414904Y-246348342D01*
X116367285Y-246395961D01*
X116272047Y-246443580D01*
X116081571Y-246443580D01*
X115986333Y-246395961D01*
X115938714Y-246348342D01*
X115891095Y-246253104D01*
X115891095Y-246015009D01*
X115938714Y-245919771D01*
X115986333Y-245872152D01*
X116081571Y-245824533D01*
X116272047Y-245824533D01*
X116367285Y-245872152D01*
X116414904Y-245919771D01*
X116462523Y-246015009D01*
%TO.C,S11*%
X136941095Y-246395961D02*
X136798238Y-246443580D01*
X136560142Y-246443580D01*
X136464904Y-246395961D01*
X136417285Y-246348342D01*
X136369666Y-246253104D01*
X136369666Y-246157866D01*
X136417285Y-246062628D01*
X136464904Y-246015009D01*
X136560142Y-245967390D01*
X136750619Y-245919771D01*
X136845857Y-245872152D01*
X136893476Y-245824533D01*
X136941095Y-245729295D01*
X136941095Y-245634057D01*
X136893476Y-245538819D01*
X136845857Y-245491200D01*
X136750619Y-245443580D01*
X136512523Y-245443580D01*
X136369666Y-245491200D01*
X135417285Y-246443580D02*
X135988714Y-246443580D01*
X135703000Y-246443580D02*
X135703000Y-245443580D01*
X135798238Y-245586438D01*
X135893476Y-245681676D01*
X135988714Y-245729295D01*
X134464904Y-246443580D02*
X135036333Y-246443580D01*
X134750619Y-246443580D02*
X134750619Y-245443580D01*
X134845857Y-245586438D01*
X134941095Y-245681676D01*
X135036333Y-245729295D01*
%TO.C,S16*%
X155991095Y-236395961D02*
X155848238Y-236443580D01*
X155610142Y-236443580D01*
X155514904Y-236395961D01*
X155467285Y-236348342D01*
X155419666Y-236253104D01*
X155419666Y-236157866D01*
X155467285Y-236062628D01*
X155514904Y-236015009D01*
X155610142Y-235967390D01*
X155800619Y-235919771D01*
X155895857Y-235872152D01*
X155943476Y-235824533D01*
X155991095Y-235729295D01*
X155991095Y-235634057D01*
X155943476Y-235538819D01*
X155895857Y-235491200D01*
X155800619Y-235443580D01*
X155562523Y-235443580D01*
X155419666Y-235491200D01*
X154467285Y-236443580D02*
X155038714Y-236443580D01*
X154753000Y-236443580D02*
X154753000Y-235443580D01*
X154848238Y-235586438D01*
X154943476Y-235681676D01*
X155038714Y-235729295D01*
X153610142Y-235443580D02*
X153800619Y-235443580D01*
X153895857Y-235491200D01*
X153943476Y-235538819D01*
X154038714Y-235681676D01*
X154086333Y-235872152D01*
X154086333Y-236253104D01*
X154038714Y-236348342D01*
X153991095Y-236395961D01*
X153895857Y-236443580D01*
X153705380Y-236443580D01*
X153610142Y-236395961D01*
X153562523Y-236348342D01*
X153514904Y-236253104D01*
X153514904Y-236015009D01*
X153562523Y-235919771D01*
X153610142Y-235872152D01*
X153705380Y-235824533D01*
X153895857Y-235824533D01*
X153991095Y-235872152D01*
X154038714Y-235919771D01*
X154086333Y-236015009D01*
%TO.C,S21*%
X175041095Y-234395961D02*
X174898238Y-234443580D01*
X174660142Y-234443580D01*
X174564904Y-234395961D01*
X174517285Y-234348342D01*
X174469666Y-234253104D01*
X174469666Y-234157866D01*
X174517285Y-234062628D01*
X174564904Y-234015009D01*
X174660142Y-233967390D01*
X174850619Y-233919771D01*
X174945857Y-233872152D01*
X174993476Y-233824533D01*
X175041095Y-233729295D01*
X175041095Y-233634057D01*
X174993476Y-233538819D01*
X174945857Y-233491200D01*
X174850619Y-233443580D01*
X174612523Y-233443580D01*
X174469666Y-233491200D01*
X174088714Y-233538819D02*
X174041095Y-233491200D01*
X173945857Y-233443580D01*
X173707761Y-233443580D01*
X173612523Y-233491200D01*
X173564904Y-233538819D01*
X173517285Y-233634057D01*
X173517285Y-233729295D01*
X173564904Y-233872152D01*
X174136333Y-234443580D01*
X173517285Y-234443580D01*
X172564904Y-234443580D02*
X173136333Y-234443580D01*
X172850619Y-234443580D02*
X172850619Y-233443580D01*
X172945857Y-233586438D01*
X173041095Y-233681676D01*
X173136333Y-233729295D01*
%TO.C,S26*%
X194091095Y-238395961D02*
X193948238Y-238443580D01*
X193710142Y-238443580D01*
X193614904Y-238395961D01*
X193567285Y-238348342D01*
X193519666Y-238253104D01*
X193519666Y-238157866D01*
X193567285Y-238062628D01*
X193614904Y-238015009D01*
X193710142Y-237967390D01*
X193900619Y-237919771D01*
X193995857Y-237872152D01*
X194043476Y-237824533D01*
X194091095Y-237729295D01*
X194091095Y-237634057D01*
X194043476Y-237538819D01*
X193995857Y-237491200D01*
X193900619Y-237443580D01*
X193662523Y-237443580D01*
X193519666Y-237491200D01*
X193138714Y-237538819D02*
X193091095Y-237491200D01*
X192995857Y-237443580D01*
X192757761Y-237443580D01*
X192662523Y-237491200D01*
X192614904Y-237538819D01*
X192567285Y-237634057D01*
X192567285Y-237729295D01*
X192614904Y-237872152D01*
X193186333Y-238443580D01*
X192567285Y-238443580D01*
X191710142Y-237443580D02*
X191900619Y-237443580D01*
X191995857Y-237491200D01*
X192043476Y-237538819D01*
X192138714Y-237681676D01*
X192186333Y-237872152D01*
X192186333Y-238253104D01*
X192138714Y-238348342D01*
X192091095Y-238395961D01*
X191995857Y-238443580D01*
X191805380Y-238443580D01*
X191710142Y-238395961D01*
X191662523Y-238348342D01*
X191614904Y-238253104D01*
X191614904Y-238015009D01*
X191662523Y-237919771D01*
X191710142Y-237872152D01*
X191805380Y-237824533D01*
X191995857Y-237824533D01*
X192091095Y-237872152D01*
X192138714Y-237919771D01*
X192186333Y-238015009D01*
%TO.C,C1*%
X109815022Y-152249844D02*
X109862641Y-152202225D01*
X109910260Y-152059368D01*
X109910260Y-151964130D01*
X109862641Y-151821272D01*
X109767403Y-151726034D01*
X109672165Y-151678415D01*
X109481689Y-151630796D01*
X109338832Y-151630796D01*
X109148356Y-151678415D01*
X109053118Y-151726034D01*
X108957880Y-151821272D01*
X108910260Y-151964130D01*
X108910260Y-152059368D01*
X108957880Y-152202225D01*
X109005499Y-152249844D01*
X109910260Y-153202225D02*
X109910260Y-152630796D01*
X109910260Y-152916511D02*
X108910260Y-152916511D01*
X109053118Y-152821272D01*
X109148356Y-152726034D01*
X109195975Y-152630796D01*
%TO.C,C3*%
X163872242Y-154091433D02*
X163919861Y-154043814D01*
X163967480Y-153900957D01*
X163967480Y-153805719D01*
X163919861Y-153662861D01*
X163824623Y-153567623D01*
X163729385Y-153520004D01*
X163538909Y-153472385D01*
X163396052Y-153472385D01*
X163205576Y-153520004D01*
X163110338Y-153567623D01*
X163015100Y-153662861D01*
X162967480Y-153805719D01*
X162967480Y-153900957D01*
X163015100Y-154043814D01*
X163062719Y-154091433D01*
X162967480Y-154424766D02*
X162967480Y-155043814D01*
X163348433Y-154710480D01*
X163348433Y-154853338D01*
X163396052Y-154948576D01*
X163443671Y-154996195D01*
X163538909Y-155043814D01*
X163777004Y-155043814D01*
X163872242Y-154996195D01*
X163919861Y-154948576D01*
X163967480Y-154853338D01*
X163967480Y-154567623D01*
X163919861Y-154472385D01*
X163872242Y-154424766D01*
%TO.C,C7*%
X176433666Y-152838342D02*
X176481285Y-152885961D01*
X176624142Y-152933580D01*
X176719380Y-152933580D01*
X176862238Y-152885961D01*
X176957476Y-152790723D01*
X177005095Y-152695485D01*
X177052714Y-152505009D01*
X177052714Y-152362152D01*
X177005095Y-152171676D01*
X176957476Y-152076438D01*
X176862238Y-151981200D01*
X176719380Y-151933580D01*
X176624142Y-151933580D01*
X176481285Y-151981200D01*
X176433666Y-152028819D01*
X176100333Y-151933580D02*
X175433666Y-151933580D01*
X175862238Y-152933580D01*
%TO.C,C8*%
X174413242Y-139004933D02*
X174460861Y-138957314D01*
X174508480Y-138814457D01*
X174508480Y-138719219D01*
X174460861Y-138576361D01*
X174365623Y-138481123D01*
X174270385Y-138433504D01*
X174079909Y-138385885D01*
X173937052Y-138385885D01*
X173746576Y-138433504D01*
X173651338Y-138481123D01*
X173556100Y-138576361D01*
X173508480Y-138719219D01*
X173508480Y-138814457D01*
X173556100Y-138957314D01*
X173603719Y-139004933D01*
X173937052Y-139576361D02*
X173889433Y-139481123D01*
X173841814Y-139433504D01*
X173746576Y-139385885D01*
X173698957Y-139385885D01*
X173603719Y-139433504D01*
X173556100Y-139481123D01*
X173508480Y-139576361D01*
X173508480Y-139766838D01*
X173556100Y-139862076D01*
X173603719Y-139909695D01*
X173698957Y-139957314D01*
X173746576Y-139957314D01*
X173841814Y-139909695D01*
X173889433Y-139862076D01*
X173937052Y-139766838D01*
X173937052Y-139576361D01*
X173984671Y-139481123D01*
X174032290Y-139433504D01*
X174127528Y-139385885D01*
X174318004Y-139385885D01*
X174413242Y-139433504D01*
X174460861Y-139481123D01*
X174508480Y-139576361D01*
X174508480Y-139766838D01*
X174460861Y-139862076D01*
X174413242Y-139909695D01*
X174318004Y-139957314D01*
X174127528Y-139957314D01*
X174032290Y-139909695D01*
X173984671Y-139862076D01*
X173937052Y-139766838D01*
%TO.C,C9*%
X165662942Y-139666433D02*
X165710561Y-139618814D01*
X165758180Y-139475957D01*
X165758180Y-139380719D01*
X165710561Y-139237861D01*
X165615323Y-139142623D01*
X165520085Y-139095004D01*
X165329609Y-139047385D01*
X165186752Y-139047385D01*
X164996276Y-139095004D01*
X164901038Y-139142623D01*
X164805800Y-139237861D01*
X164758180Y-139380719D01*
X164758180Y-139475957D01*
X164805800Y-139618814D01*
X164853419Y-139666433D01*
X165758180Y-140142623D02*
X165758180Y-140333100D01*
X165710561Y-140428338D01*
X165662942Y-140475957D01*
X165520085Y-140571195D01*
X165329609Y-140618814D01*
X164948657Y-140618814D01*
X164853419Y-140571195D01*
X164805800Y-140523576D01*
X164758180Y-140428338D01*
X164758180Y-140237861D01*
X164805800Y-140142623D01*
X164853419Y-140095004D01*
X164948657Y-140047385D01*
X165186752Y-140047385D01*
X165281990Y-140095004D01*
X165329609Y-140142623D01*
X165377228Y-140237861D01*
X165377228Y-140428338D01*
X165329609Y-140523576D01*
X165281990Y-140571195D01*
X165186752Y-140618814D01*
%TO.C,C4*%
X133262666Y-140057142D02*
X133310285Y-140104761D01*
X133453142Y-140152380D01*
X133548380Y-140152380D01*
X133691238Y-140104761D01*
X133786476Y-140009523D01*
X133834095Y-139914285D01*
X133881714Y-139723809D01*
X133881714Y-139580952D01*
X133834095Y-139390476D01*
X133786476Y-139295238D01*
X133691238Y-139200000D01*
X133548380Y-139152380D01*
X133453142Y-139152380D01*
X133310285Y-139200000D01*
X133262666Y-139247619D01*
X132405523Y-139485714D02*
X132405523Y-140152380D01*
X132643619Y-139104761D02*
X132881714Y-139819047D01*
X132262666Y-139819047D01*
%TO.C,C10*%
X170001242Y-139190242D02*
X170048861Y-139142623D01*
X170096480Y-138999766D01*
X170096480Y-138904528D01*
X170048861Y-138761671D01*
X169953623Y-138666433D01*
X169858385Y-138618814D01*
X169667909Y-138571195D01*
X169525052Y-138571195D01*
X169334576Y-138618814D01*
X169239338Y-138666433D01*
X169144100Y-138761671D01*
X169096480Y-138904528D01*
X169096480Y-138999766D01*
X169144100Y-139142623D01*
X169191719Y-139190242D01*
X170096480Y-140142623D02*
X170096480Y-139571195D01*
X170096480Y-139856909D02*
X169096480Y-139856909D01*
X169239338Y-139761671D01*
X169334576Y-139666433D01*
X169382195Y-139571195D01*
X169096480Y-140761671D02*
X169096480Y-140856909D01*
X169144100Y-140952147D01*
X169191719Y-140999766D01*
X169286957Y-141047385D01*
X169477433Y-141095004D01*
X169715528Y-141095004D01*
X169906004Y-141047385D01*
X170001242Y-140999766D01*
X170048861Y-140952147D01*
X170096480Y-140856909D01*
X170096480Y-140761671D01*
X170048861Y-140666433D01*
X170001242Y-140618814D01*
X169906004Y-140571195D01*
X169715528Y-140523576D01*
X169477433Y-140523576D01*
X169286957Y-140571195D01*
X169191719Y-140618814D01*
X169144100Y-140666433D01*
X169096480Y-140761671D01*
%TO.C,D2*%
X101389880Y-146550654D02*
X100389880Y-146550654D01*
X100389880Y-146788750D01*
X100437500Y-146931607D01*
X100532738Y-147026845D01*
X100627976Y-147074464D01*
X100818452Y-147122083D01*
X100961309Y-147122083D01*
X101151785Y-147074464D01*
X101247023Y-147026845D01*
X101342261Y-146931607D01*
X101389880Y-146788750D01*
X101389880Y-146550654D01*
X100485119Y-147503035D02*
X100437500Y-147550654D01*
X100389880Y-147645892D01*
X100389880Y-147883988D01*
X100437500Y-147979226D01*
X100485119Y-148026845D01*
X100580357Y-148074464D01*
X100675595Y-148074464D01*
X100818452Y-148026845D01*
X101389880Y-147455416D01*
X101389880Y-148074464D01*
%TO.C,R7*%
X155772380Y-143978333D02*
X155296190Y-143645000D01*
X155772380Y-143406904D02*
X154772380Y-143406904D01*
X154772380Y-143787857D01*
X154820000Y-143883095D01*
X154867619Y-143930714D01*
X154962857Y-143978333D01*
X155105714Y-143978333D01*
X155200952Y-143930714D01*
X155248571Y-143883095D01*
X155296190Y-143787857D01*
X155296190Y-143406904D01*
X154772380Y-144311666D02*
X154772380Y-144978333D01*
X155772380Y-144549761D01*
%TO.C,R4*%
X96564880Y-147122083D02*
X96088690Y-146788750D01*
X96564880Y-146550654D02*
X95564880Y-146550654D01*
X95564880Y-146931607D01*
X95612500Y-147026845D01*
X95660119Y-147074464D01*
X95755357Y-147122083D01*
X95898214Y-147122083D01*
X95993452Y-147074464D01*
X96041071Y-147026845D01*
X96088690Y-146931607D01*
X96088690Y-146550654D01*
X95898214Y-147979226D02*
X96564880Y-147979226D01*
X95517261Y-147741130D02*
X96231547Y-147503035D01*
X96231547Y-148122083D01*
%TO.C,R6*%
X141325980Y-167713933D02*
X140849790Y-167380600D01*
X141325980Y-167142504D02*
X140325980Y-167142504D01*
X140325980Y-167523457D01*
X140373600Y-167618695D01*
X140421219Y-167666314D01*
X140516457Y-167713933D01*
X140659314Y-167713933D01*
X140754552Y-167666314D01*
X140802171Y-167618695D01*
X140849790Y-167523457D01*
X140849790Y-167142504D01*
X140325980Y-168571076D02*
X140325980Y-168380600D01*
X140373600Y-168285361D01*
X140421219Y-168237742D01*
X140564076Y-168142504D01*
X140754552Y-168094885D01*
X141135504Y-168094885D01*
X141230742Y-168142504D01*
X141278361Y-168190123D01*
X141325980Y-168285361D01*
X141325980Y-168475838D01*
X141278361Y-168571076D01*
X141230742Y-168618695D01*
X141135504Y-168666314D01*
X140897409Y-168666314D01*
X140802171Y-168618695D01*
X140754552Y-168571076D01*
X140706933Y-168475838D01*
X140706933Y-168285361D01*
X140754552Y-168190123D01*
X140802171Y-168142504D01*
X140897409Y-168094885D01*
%TO.C,R8*%
X160833180Y-157604733D02*
X160356990Y-157271400D01*
X160833180Y-157033304D02*
X159833180Y-157033304D01*
X159833180Y-157414257D01*
X159880800Y-157509495D01*
X159928419Y-157557114D01*
X160023657Y-157604733D01*
X160166514Y-157604733D01*
X160261752Y-157557114D01*
X160309371Y-157509495D01*
X160356990Y-157414257D01*
X160356990Y-157033304D01*
X160261752Y-158176161D02*
X160214133Y-158080923D01*
X160166514Y-158033304D01*
X160071276Y-157985685D01*
X160023657Y-157985685D01*
X159928419Y-158033304D01*
X159880800Y-158080923D01*
X159833180Y-158176161D01*
X159833180Y-158366638D01*
X159880800Y-158461876D01*
X159928419Y-158509495D01*
X160023657Y-158557114D01*
X160071276Y-158557114D01*
X160166514Y-158509495D01*
X160214133Y-158461876D01*
X160261752Y-158366638D01*
X160261752Y-158176161D01*
X160309371Y-158080923D01*
X160356990Y-158033304D01*
X160452228Y-157985685D01*
X160642704Y-157985685D01*
X160737942Y-158033304D01*
X160785561Y-158080923D01*
X160833180Y-158176161D01*
X160833180Y-158366638D01*
X160785561Y-158461876D01*
X160737942Y-158509495D01*
X160642704Y-158557114D01*
X160452228Y-158557114D01*
X160356990Y-158509495D01*
X160309371Y-158461876D01*
X160261752Y-158366638D01*
%TO.C,R9*%
X179679980Y-155623533D02*
X179203790Y-155290200D01*
X179679980Y-155052104D02*
X178679980Y-155052104D01*
X178679980Y-155433057D01*
X178727600Y-155528295D01*
X178775219Y-155575914D01*
X178870457Y-155623533D01*
X179013314Y-155623533D01*
X179108552Y-155575914D01*
X179156171Y-155528295D01*
X179203790Y-155433057D01*
X179203790Y-155052104D01*
X179679980Y-156099723D02*
X179679980Y-156290200D01*
X179632361Y-156385438D01*
X179584742Y-156433057D01*
X179441885Y-156528295D01*
X179251409Y-156575914D01*
X178870457Y-156575914D01*
X178775219Y-156528295D01*
X178727600Y-156480676D01*
X178679980Y-156385438D01*
X178679980Y-156194961D01*
X178727600Y-156099723D01*
X178775219Y-156052104D01*
X178870457Y-156004485D01*
X179108552Y-156004485D01*
X179203790Y-156052104D01*
X179251409Y-156099723D01*
X179299028Y-156194961D01*
X179299028Y-156385438D01*
X179251409Y-156480676D01*
X179203790Y-156528295D01*
X179108552Y-156575914D01*
%TO.C,R10*%
X198882380Y-159211342D02*
X198406190Y-158878009D01*
X198882380Y-158639914D02*
X197882380Y-158639914D01*
X197882380Y-159020866D01*
X197930000Y-159116104D01*
X197977619Y-159163723D01*
X198072857Y-159211342D01*
X198215714Y-159211342D01*
X198310952Y-159163723D01*
X198358571Y-159116104D01*
X198406190Y-159020866D01*
X198406190Y-158639914D01*
X198882380Y-160163723D02*
X198882380Y-159592295D01*
X198882380Y-159878009D02*
X197882380Y-159878009D01*
X198025238Y-159782771D01*
X198120476Y-159687533D01*
X198168095Y-159592295D01*
X197882380Y-160782771D02*
X197882380Y-160878009D01*
X197930000Y-160973247D01*
X197977619Y-161020866D01*
X198072857Y-161068485D01*
X198263333Y-161116104D01*
X198501428Y-161116104D01*
X198691904Y-161068485D01*
X198787142Y-161020866D01*
X198834761Y-160973247D01*
X198882380Y-160878009D01*
X198882380Y-160782771D01*
X198834761Y-160687533D01*
X198787142Y-160639914D01*
X198691904Y-160592295D01*
X198501428Y-160544676D01*
X198263333Y-160544676D01*
X198072857Y-160592295D01*
X197977619Y-160639914D01*
X197930000Y-160687533D01*
X197882380Y-160782771D01*
%TO.C,R11*%
X215210380Y-243848142D02*
X214734190Y-243514809D01*
X215210380Y-243276714D02*
X214210380Y-243276714D01*
X214210380Y-243657666D01*
X214258000Y-243752904D01*
X214305619Y-243800523D01*
X214400857Y-243848142D01*
X214543714Y-243848142D01*
X214638952Y-243800523D01*
X214686571Y-243752904D01*
X214734190Y-243657666D01*
X214734190Y-243276714D01*
X215210380Y-244800523D02*
X215210380Y-244229095D01*
X215210380Y-244514809D02*
X214210380Y-244514809D01*
X214353238Y-244419571D01*
X214448476Y-244324333D01*
X214496095Y-244229095D01*
X215210380Y-245752904D02*
X215210380Y-245181476D01*
X215210380Y-245467190D02*
X214210380Y-245467190D01*
X214353238Y-245371952D01*
X214448476Y-245276714D01*
X214496095Y-245181476D01*
%TO.C,R12*%
X217830780Y-163173742D02*
X217354590Y-162840409D01*
X217830780Y-162602314D02*
X216830780Y-162602314D01*
X216830780Y-162983266D01*
X216878400Y-163078504D01*
X216926019Y-163126123D01*
X217021257Y-163173742D01*
X217164114Y-163173742D01*
X217259352Y-163126123D01*
X217306971Y-163078504D01*
X217354590Y-162983266D01*
X217354590Y-162602314D01*
X217830780Y-164126123D02*
X217830780Y-163554695D01*
X217830780Y-163840409D02*
X216830780Y-163840409D01*
X216973638Y-163745171D01*
X217068876Y-163649933D01*
X217116495Y-163554695D01*
X216926019Y-164507076D02*
X216878400Y-164554695D01*
X216830780Y-164649933D01*
X216830780Y-164888028D01*
X216878400Y-164983266D01*
X216926019Y-165030885D01*
X217021257Y-165078504D01*
X217116495Y-165078504D01*
X217259352Y-165030885D01*
X217830780Y-164459457D01*
X217830780Y-165078504D01*
%TO.C,SW1*%
X140914761Y-148051666D02*
X140962380Y-148194523D01*
X140962380Y-148432619D01*
X140914761Y-148527857D01*
X140867142Y-148575476D01*
X140771904Y-148623095D01*
X140676666Y-148623095D01*
X140581428Y-148575476D01*
X140533809Y-148527857D01*
X140486190Y-148432619D01*
X140438571Y-148242142D01*
X140390952Y-148146904D01*
X140343333Y-148099285D01*
X140248095Y-148051666D01*
X140152857Y-148051666D01*
X140057619Y-148099285D01*
X140010000Y-148146904D01*
X139962380Y-148242142D01*
X139962380Y-148480238D01*
X140010000Y-148623095D01*
X139962380Y-148956428D02*
X140962380Y-149194523D01*
X140248095Y-149385000D01*
X140962380Y-149575476D01*
X139962380Y-149813571D01*
X140962380Y-150718333D02*
X140962380Y-150146904D01*
X140962380Y-150432619D02*
X139962380Y-150432619D01*
X140105238Y-150337380D01*
X140200476Y-150242142D01*
X140248095Y-150146904D01*
%TO.C,SW2*%
X148069083Y-158119011D02*
X147926226Y-158166630D01*
X147688130Y-158166630D01*
X147592892Y-158119011D01*
X147545273Y-158071392D01*
X147497654Y-157976154D01*
X147497654Y-157880916D01*
X147545273Y-157785678D01*
X147592892Y-157738059D01*
X147688130Y-157690440D01*
X147878607Y-157642821D01*
X147973845Y-157595202D01*
X148021464Y-157547583D01*
X148069083Y-157452345D01*
X148069083Y-157357107D01*
X148021464Y-157261869D01*
X147973845Y-157214250D01*
X147878607Y-157166630D01*
X147640511Y-157166630D01*
X147497654Y-157214250D01*
X147164321Y-157166630D02*
X146926226Y-158166630D01*
X146735750Y-157452345D01*
X146545273Y-158166630D01*
X146307178Y-157166630D01*
X145973845Y-157261869D02*
X145926226Y-157214250D01*
X145830988Y-157166630D01*
X145592892Y-157166630D01*
X145497654Y-157214250D01*
X145450035Y-157261869D01*
X145402416Y-157357107D01*
X145402416Y-157452345D01*
X145450035Y-157595202D01*
X146021464Y-158166630D01*
X145402416Y-158166630D01*
%TO.C,U2*%
X112807380Y-146226845D02*
X113616904Y-146226845D01*
X113712142Y-146274464D01*
X113759761Y-146322083D01*
X113807380Y-146417321D01*
X113807380Y-146607797D01*
X113759761Y-146703035D01*
X113712142Y-146750654D01*
X113616904Y-146798273D01*
X112807380Y-146798273D01*
X112902619Y-147226845D02*
X112855000Y-147274464D01*
X112807380Y-147369702D01*
X112807380Y-147607797D01*
X112855000Y-147703035D01*
X112902619Y-147750654D01*
X112997857Y-147798273D01*
X113093095Y-147798273D01*
X113235952Y-147750654D01*
X113807380Y-147179226D01*
X113807380Y-147798273D01*
%TO.C,D1*%
X121388095Y-156027380D02*
X121388095Y-155027380D01*
X121150000Y-155027380D01*
X121007142Y-155075000D01*
X120911904Y-155170238D01*
X120864285Y-155265476D01*
X120816666Y-155455952D01*
X120816666Y-155598809D01*
X120864285Y-155789285D01*
X120911904Y-155884523D01*
X121007142Y-155979761D01*
X121150000Y-156027380D01*
X121388095Y-156027380D01*
X119864285Y-156027380D02*
X120435714Y-156027380D01*
X120150000Y-156027380D02*
X120150000Y-155027380D01*
X120245238Y-155170238D01*
X120340476Y-155265476D01*
X120435714Y-155313095D01*
%TO.C,R5*%
X122631580Y-167764733D02*
X122155390Y-167431400D01*
X122631580Y-167193304D02*
X121631580Y-167193304D01*
X121631580Y-167574257D01*
X121679200Y-167669495D01*
X121726819Y-167717114D01*
X121822057Y-167764733D01*
X121964914Y-167764733D01*
X122060152Y-167717114D01*
X122107771Y-167669495D01*
X122155390Y-167574257D01*
X122155390Y-167193304D01*
X121631580Y-168669495D02*
X121631580Y-168193304D01*
X122107771Y-168145685D01*
X122060152Y-168193304D01*
X122012533Y-168288542D01*
X122012533Y-168526638D01*
X122060152Y-168621876D01*
X122107771Y-168669495D01*
X122203009Y-168717114D01*
X122441104Y-168717114D01*
X122536342Y-168669495D01*
X122583961Y-168621876D01*
X122631580Y-168526638D01*
X122631580Y-168288542D01*
X122583961Y-168193304D01*
X122536342Y-168145685D01*
%TO.C,FB1*%
X113213571Y-151566666D02*
X113213571Y-151233333D01*
X113737380Y-151233333D02*
X112737380Y-151233333D01*
X112737380Y-151709523D01*
X113213571Y-152423809D02*
X113261190Y-152566666D01*
X113308809Y-152614285D01*
X113404047Y-152661904D01*
X113546904Y-152661904D01*
X113642142Y-152614285D01*
X113689761Y-152566666D01*
X113737380Y-152471428D01*
X113737380Y-152090476D01*
X112737380Y-152090476D01*
X112737380Y-152423809D01*
X112785000Y-152519047D01*
X112832619Y-152566666D01*
X112927857Y-152614285D01*
X113023095Y-152614285D01*
X113118333Y-152566666D01*
X113165952Y-152519047D01*
X113213571Y-152423809D01*
X113213571Y-152090476D01*
X113737380Y-153614285D02*
X113737380Y-153042857D01*
X113737380Y-153328571D02*
X112737380Y-153328571D01*
X112880238Y-153233333D01*
X112975476Y-153138095D01*
X113023095Y-153042857D01*
%TO.C,F1*%
X117928571Y-148256666D02*
X117928571Y-147923333D01*
X118452380Y-147923333D02*
X117452380Y-147923333D01*
X117452380Y-148399523D01*
X118452380Y-149304285D02*
X118452380Y-148732857D01*
X118452380Y-149018571D02*
X117452380Y-149018571D01*
X117595238Y-148923333D01*
X117690476Y-148828095D01*
X117738095Y-148732857D01*
%TO.C,C2*%
X104289642Y-152202083D02*
X104337261Y-152154464D01*
X104384880Y-152011607D01*
X104384880Y-151916369D01*
X104337261Y-151773511D01*
X104242023Y-151678273D01*
X104146785Y-151630654D01*
X103956309Y-151583035D01*
X103813452Y-151583035D01*
X103622976Y-151630654D01*
X103527738Y-151678273D01*
X103432500Y-151773511D01*
X103384880Y-151916369D01*
X103384880Y-152011607D01*
X103432500Y-152154464D01*
X103480119Y-152202083D01*
X103480119Y-152583035D02*
X103432500Y-152630654D01*
X103384880Y-152725892D01*
X103384880Y-152963988D01*
X103432500Y-153059226D01*
X103480119Y-153106845D01*
X103575357Y-153154464D01*
X103670595Y-153154464D01*
X103813452Y-153106845D01*
X104384880Y-152535416D01*
X104384880Y-153154464D01*
%TO.C,C5*%
X176432566Y-154400442D02*
X176480185Y-154448061D01*
X176623042Y-154495680D01*
X176718280Y-154495680D01*
X176861138Y-154448061D01*
X176956376Y-154352823D01*
X177003995Y-154257585D01*
X177051614Y-154067109D01*
X177051614Y-153924252D01*
X177003995Y-153733776D01*
X176956376Y-153638538D01*
X176861138Y-153543300D01*
X176718280Y-153495680D01*
X176623042Y-153495680D01*
X176480185Y-153543300D01*
X176432566Y-153590919D01*
X175527804Y-153495680D02*
X176003995Y-153495680D01*
X176051614Y-153971871D01*
X176003995Y-153924252D01*
X175908757Y-153876633D01*
X175670661Y-153876633D01*
X175575423Y-153924252D01*
X175527804Y-153971871D01*
X175480185Y-154067109D01*
X175480185Y-154305204D01*
X175527804Y-154400442D01*
X175575423Y-154448061D01*
X175670661Y-154495680D01*
X175908757Y-154495680D01*
X176003995Y-154448061D01*
X176051614Y-154400442D01*
%TO.C,C6*%
X165396242Y-154091433D02*
X165443861Y-154043814D01*
X165491480Y-153900957D01*
X165491480Y-153805719D01*
X165443861Y-153662861D01*
X165348623Y-153567623D01*
X165253385Y-153520004D01*
X165062909Y-153472385D01*
X164920052Y-153472385D01*
X164729576Y-153520004D01*
X164634338Y-153567623D01*
X164539100Y-153662861D01*
X164491480Y-153805719D01*
X164491480Y-153900957D01*
X164539100Y-154043814D01*
X164586719Y-154091433D01*
X164491480Y-154948576D02*
X164491480Y-154758100D01*
X164539100Y-154662861D01*
X164586719Y-154615242D01*
X164729576Y-154520004D01*
X164920052Y-154472385D01*
X165301004Y-154472385D01*
X165396242Y-154520004D01*
X165443861Y-154567623D01*
X165491480Y-154662861D01*
X165491480Y-154853338D01*
X165443861Y-154948576D01*
X165396242Y-154996195D01*
X165301004Y-155043814D01*
X165062909Y-155043814D01*
X164967671Y-154996195D01*
X164920052Y-154948576D01*
X164872433Y-154853338D01*
X164872433Y-154662861D01*
X164920052Y-154567623D01*
X164967671Y-154520004D01*
X165062909Y-154472385D01*
%TO.C,R3*%
X106477180Y-168171133D02*
X106000990Y-167837800D01*
X106477180Y-167599704D02*
X105477180Y-167599704D01*
X105477180Y-167980657D01*
X105524800Y-168075895D01*
X105572419Y-168123514D01*
X105667657Y-168171133D01*
X105810514Y-168171133D01*
X105905752Y-168123514D01*
X105953371Y-168075895D01*
X106000990Y-167980657D01*
X106000990Y-167599704D01*
X105477180Y-168504466D02*
X105477180Y-169123514D01*
X105858133Y-168790180D01*
X105858133Y-168933038D01*
X105905752Y-169028276D01*
X105953371Y-169075895D01*
X106048609Y-169123514D01*
X106286704Y-169123514D01*
X106381942Y-169075895D01*
X106429561Y-169028276D01*
X106477180Y-168933038D01*
X106477180Y-168647323D01*
X106429561Y-168552085D01*
X106381942Y-168504466D01*
D11*
%TO.C,S1*%
X95141838Y-253616000D02*
X91637000Y-253616000D01*
X91637000Y-253616000D02*
X91256000Y-253616000D01*
X93796000Y-247266000D02*
X102686000Y-247266000D01*
X102686000Y-251711000D02*
X97606000Y-251711000D01*
X102686000Y-247266000D02*
X102686000Y-247647000D01*
X102686000Y-250695000D02*
X102686000Y-251711000D01*
X91256000Y-249806000D02*
X91256000Y-250187000D01*
X91256000Y-253235000D02*
X91256000Y-253616000D01*
X97606000Y-251710999D02*
G75*
G03*
X95141838Y-253634960I0J-2540000D01*
G01*
X93796000Y-247266000D02*
G75*
G03*
X91256000Y-249806000I1J-2540001D01*
G01*
%TO.C,S4*%
X110684000Y-177411200D02*
X110303000Y-177411200D01*
X112843000Y-171061200D02*
X121733000Y-171061200D01*
X110303000Y-173601200D02*
X110303000Y-173982200D01*
X121733000Y-174490200D02*
X121733000Y-175506200D01*
X121733000Y-171061200D02*
X121733000Y-171442200D01*
X121733000Y-175506200D02*
X116653000Y-175506200D01*
X114188838Y-177411200D02*
X110684000Y-177411200D01*
X110303000Y-177030200D02*
X110303000Y-177411200D01*
X116653000Y-175506199D02*
G75*
G03*
X114188838Y-177430160I0J-2540000D01*
G01*
X112843000Y-171061200D02*
G75*
G03*
X110303000Y-173601200I1J-2540001D01*
G01*
%TO.C,S27*%
X217914890Y-257435321D02*
X212912066Y-256553188D01*
X206989337Y-253574464D02*
X206923177Y-253949675D01*
X206393897Y-256951369D02*
X206327737Y-257326581D01*
X206702949Y-257392741D02*
X206327737Y-257326581D01*
X210154541Y-258001350D02*
X206702949Y-257392741D01*
X218091316Y-256434756D02*
X217914890Y-257435321D01*
X218686756Y-253057851D02*
X218620596Y-253433062D01*
X209931815Y-251514118D02*
X218686756Y-253057851D01*
X209931815Y-251514119D02*
G75*
G03*
X206989337Y-253574464I-441066J-2501412D01*
G01*
X212912066Y-256553187D02*
G75*
G03*
X210151248Y-258020022I-441066J-2501412D01*
G01*
%TO.C,S28*%
X226497244Y-270562436D02*
X226186680Y-270341729D01*
X228393741Y-267236093D02*
X228173035Y-267546656D01*
X239182026Y-271786852D02*
X238961320Y-272097415D01*
X236607121Y-275410095D02*
X232466272Y-272467346D01*
X226407386Y-270031166D02*
X226186680Y-270341729D01*
X237195671Y-274581925D02*
X236607121Y-275410095D01*
X231935540Y-266637042D02*
X239182026Y-271786852D01*
X229354135Y-272592722D02*
X226497244Y-270562436D01*
X232466273Y-272467345D02*
G75*
G03*
X229343151Y-272608177I-1471374J-2070425D01*
G01*
X231935540Y-266637042D02*
G75*
G03*
X228393741Y-267236093I-1471374J-2070426D01*
G01*
%TO.C,S29*%
X250460099Y-297023724D02*
X250130144Y-297214224D01*
X247490498Y-298738224D02*
X246610617Y-299246224D01*
X246610617Y-299246224D02*
X244070617Y-294846815D01*
X241188757Y-293665288D02*
X239436338Y-290630009D01*
X242545395Y-288395054D02*
X242215439Y-288585554D01*
X246015099Y-289324758D02*
X250460099Y-297023724D01*
X239436338Y-290630009D02*
X239245838Y-290300054D01*
X239575794Y-290109554D02*
X239245838Y-290300054D01*
X246015099Y-289324758D02*
G75*
G03*
X242545395Y-288395054I-2199704J-1270002D01*
G01*
X244070617Y-294846815D02*
G75*
G03*
X241172337Y-293674768I-2199704J-1269999D01*
G01*
%TO.C,S7*%
X133238838Y-177411200D02*
X129734000Y-177411200D01*
X131893000Y-171061200D02*
X140783000Y-171061200D01*
X140783000Y-171061200D02*
X140783000Y-171442200D01*
X129353000Y-173601200D02*
X129353000Y-173982200D01*
X140783000Y-174490200D02*
X140783000Y-175506200D01*
X129734000Y-177411200D02*
X129353000Y-177411200D01*
X129353000Y-177030200D02*
X129353000Y-177411200D01*
X140783000Y-175506200D02*
X135703000Y-175506200D01*
X131893000Y-171061200D02*
G75*
G03*
X129353000Y-173601200I1J-2540001D01*
G01*
X135703000Y-175506199D02*
G75*
G03*
X133238838Y-177430160I0J-2540000D01*
G01*
%TO.C,S12*%
X148403000Y-163601200D02*
X148403000Y-163982200D01*
X159833000Y-164490200D02*
X159833000Y-165506200D01*
X159833000Y-165506200D02*
X154753000Y-165506200D01*
X159833000Y-161061200D02*
X159833000Y-161442200D01*
X152288838Y-167411200D02*
X148784000Y-167411200D01*
X148403000Y-167030200D02*
X148403000Y-167411200D01*
X150943000Y-161061200D02*
X159833000Y-161061200D01*
X148784000Y-167411200D02*
X148403000Y-167411200D01*
X154753000Y-165506199D02*
G75*
G03*
X152288838Y-167430160I0J-2540000D01*
G01*
X150943000Y-161061200D02*
G75*
G03*
X148403000Y-163601200I1J-2540001D01*
G01*
%TO.C,S17*%
X167453000Y-161601200D02*
X167453000Y-161982200D01*
X178883000Y-163506200D02*
X173803000Y-163506200D01*
X167453000Y-165030200D02*
X167453000Y-165411200D01*
X167834000Y-165411200D02*
X167453000Y-165411200D01*
X178883000Y-159061200D02*
X178883000Y-159442200D01*
X169993000Y-159061200D02*
X178883000Y-159061200D01*
X178883000Y-162490200D02*
X178883000Y-163506200D01*
X171338838Y-165411200D02*
X167834000Y-165411200D01*
X169993000Y-159061200D02*
G75*
G03*
X167453000Y-161601200I1J-2540001D01*
G01*
X173803000Y-163506199D02*
G75*
G03*
X171338838Y-165430160I0J-2540000D01*
G01*
%TO.C,S22*%
X189043000Y-163061200D02*
X197933000Y-163061200D01*
X197933000Y-167506200D02*
X192853000Y-167506200D01*
X197933000Y-166490200D02*
X197933000Y-167506200D01*
X190388838Y-169411200D02*
X186884000Y-169411200D01*
X186503000Y-169030200D02*
X186503000Y-169411200D01*
X186884000Y-169411200D02*
X186503000Y-169411200D01*
X186503000Y-165601200D02*
X186503000Y-165982200D01*
X197933000Y-163061200D02*
X197933000Y-163442200D01*
X189043000Y-163061200D02*
G75*
G03*
X186503000Y-165601200I1J-2540001D01*
G01*
X192853000Y-167506199D02*
G75*
G03*
X190388838Y-169430160I0J-2540000D01*
G01*
%TO.C,S30*%
X205934000Y-173411200D02*
X205553000Y-173411200D01*
X216983000Y-167061200D02*
X216983000Y-167442200D01*
X205553000Y-173030200D02*
X205553000Y-173411200D01*
X216983000Y-171506200D02*
X211903000Y-171506200D01*
X216983000Y-170490200D02*
X216983000Y-171506200D01*
X209438838Y-173411200D02*
X205934000Y-173411200D01*
X205553000Y-169601200D02*
X205553000Y-169982200D01*
X208093000Y-167061200D02*
X216983000Y-167061200D01*
X211903000Y-171506199D02*
G75*
G03*
X209438838Y-173430160I0J-2540000D01*
G01*
X208093000Y-167061200D02*
G75*
G03*
X205553000Y-169601200I1J-2540001D01*
G01*
%TO.C,S5*%
X121733000Y-194556200D02*
X116653000Y-194556200D01*
X110684000Y-196461200D02*
X110303000Y-196461200D01*
X121733000Y-193540200D02*
X121733000Y-194556200D01*
X114188838Y-196461200D02*
X110684000Y-196461200D01*
X112843000Y-190111200D02*
X121733000Y-190111200D01*
X110303000Y-192651200D02*
X110303000Y-193032200D01*
X121733000Y-190111200D02*
X121733000Y-190492200D01*
X110303000Y-196080200D02*
X110303000Y-196461200D01*
X112843000Y-190111200D02*
G75*
G03*
X110303000Y-192651200I1J-2540001D01*
G01*
X116653000Y-194556199D02*
G75*
G03*
X114188838Y-196480160I0J-2540000D01*
G01*
%TO.C,S8*%
X140783000Y-193540200D02*
X140783000Y-194556200D01*
X129353000Y-196080200D02*
X129353000Y-196461200D01*
X140783000Y-190111200D02*
X140783000Y-190492200D01*
X129353000Y-192651200D02*
X129353000Y-193032200D01*
X140783000Y-194556200D02*
X135703000Y-194556200D01*
X129734000Y-196461200D02*
X129353000Y-196461200D01*
X133238838Y-196461200D02*
X129734000Y-196461200D01*
X131893000Y-190111200D02*
X140783000Y-190111200D01*
X131893000Y-190111200D02*
G75*
G03*
X129353000Y-192651200I1J-2540001D01*
G01*
X135703000Y-194556199D02*
G75*
G03*
X133238838Y-196480160I0J-2540000D01*
G01*
%TO.C,S13*%
X152288838Y-186461200D02*
X148784000Y-186461200D01*
X159833000Y-180111200D02*
X159833000Y-180492200D01*
X148403000Y-186080200D02*
X148403000Y-186461200D01*
X148403000Y-182651200D02*
X148403000Y-183032200D01*
X150943000Y-180111200D02*
X159833000Y-180111200D01*
X159833000Y-184556200D02*
X154753000Y-184556200D01*
X148784000Y-186461200D02*
X148403000Y-186461200D01*
X159833000Y-183540200D02*
X159833000Y-184556200D01*
X154753000Y-184556199D02*
G75*
G03*
X152288838Y-186480160I0J-2540000D01*
G01*
X150943000Y-180111200D02*
G75*
G03*
X148403000Y-182651200I1J-2540001D01*
G01*
%TO.C,S18*%
X178883000Y-182556200D02*
X173803000Y-182556200D01*
X167834000Y-184461200D02*
X167453000Y-184461200D01*
X171338838Y-184461200D02*
X167834000Y-184461200D01*
X167453000Y-184080200D02*
X167453000Y-184461200D01*
X169993000Y-178111200D02*
X178883000Y-178111200D01*
X178883000Y-178111200D02*
X178883000Y-178492200D01*
X167453000Y-180651200D02*
X167453000Y-181032200D01*
X178883000Y-181540200D02*
X178883000Y-182556200D01*
X169993000Y-178111200D02*
G75*
G03*
X167453000Y-180651200I1J-2540001D01*
G01*
X173803000Y-182556199D02*
G75*
G03*
X171338838Y-184480160I0J-2540000D01*
G01*
%TO.C,S23*%
X197933000Y-185540200D02*
X197933000Y-186556200D01*
X186503000Y-184651200D02*
X186503000Y-185032200D01*
X197933000Y-186556200D02*
X192853000Y-186556200D01*
X189043000Y-182111200D02*
X197933000Y-182111200D01*
X190388838Y-188461200D02*
X186884000Y-188461200D01*
X186884000Y-188461200D02*
X186503000Y-188461200D01*
X197933000Y-182111200D02*
X197933000Y-182492200D01*
X186503000Y-188080200D02*
X186503000Y-188461200D01*
X189043000Y-182111200D02*
G75*
G03*
X186503000Y-184651200I1J-2540001D01*
G01*
X192853000Y-186556199D02*
G75*
G03*
X190388838Y-188480160I0J-2540000D01*
G01*
%TO.C,S31*%
X216983000Y-190556200D02*
X211903000Y-190556200D01*
X208093000Y-186111200D02*
X216983000Y-186111200D01*
X216983000Y-189540200D02*
X216983000Y-190556200D01*
X209438838Y-192461200D02*
X205934000Y-192461200D01*
X205553000Y-192080200D02*
X205553000Y-192461200D01*
X205934000Y-192461200D02*
X205553000Y-192461200D01*
X205553000Y-188651200D02*
X205553000Y-189032200D01*
X216983000Y-186111200D02*
X216983000Y-186492200D01*
X208093000Y-186111200D02*
G75*
G03*
X205553000Y-188651200I1J-2540001D01*
G01*
X211903000Y-190556199D02*
G75*
G03*
X209438838Y-192480160I0J-2540000D01*
G01*
%TO.C,S2*%
X108116516Y-209152880D02*
X117006516Y-209152880D01*
X117006516Y-212581880D02*
X117006516Y-213597880D01*
X109462354Y-215502880D02*
X105957516Y-215502880D01*
X117006516Y-209152880D02*
X117006516Y-209533880D01*
X105576516Y-215121880D02*
X105576516Y-215502880D01*
X117006516Y-213597880D02*
X111926516Y-213597880D01*
X105576516Y-211692880D02*
X105576516Y-212073880D01*
X105957516Y-215502880D02*
X105576516Y-215502880D01*
X111926516Y-213597879D02*
G75*
G03*
X109462354Y-215521840I0J-2540000D01*
G01*
X108116516Y-209152880D02*
G75*
G03*
X105576516Y-211692880I1J-2540001D01*
G01*
%TO.C,S9*%
X131893000Y-209161200D02*
X140783000Y-209161200D01*
X129353000Y-215130200D02*
X129353000Y-215511200D01*
X133238838Y-215511200D02*
X129734000Y-215511200D01*
X129353000Y-211701200D02*
X129353000Y-212082200D01*
X129734000Y-215511200D02*
X129353000Y-215511200D01*
X140783000Y-213606200D02*
X135703000Y-213606200D01*
X140783000Y-209161200D02*
X140783000Y-209542200D01*
X140783000Y-212590200D02*
X140783000Y-213606200D01*
X131893000Y-209161200D02*
G75*
G03*
X129353000Y-211701200I1J-2540001D01*
G01*
X135703000Y-213606199D02*
G75*
G03*
X133238838Y-215530160I0J-2540000D01*
G01*
%TO.C,S14*%
X148403000Y-205130200D02*
X148403000Y-205511200D01*
X159833000Y-203606200D02*
X154753000Y-203606200D01*
X159833000Y-202590200D02*
X159833000Y-203606200D01*
X150943000Y-199161200D02*
X159833000Y-199161200D01*
X148784000Y-205511200D02*
X148403000Y-205511200D01*
X148403000Y-201701200D02*
X148403000Y-202082200D01*
X152288838Y-205511200D02*
X148784000Y-205511200D01*
X159833000Y-199161200D02*
X159833000Y-199542200D01*
X154753000Y-203606199D02*
G75*
G03*
X152288838Y-205530160I0J-2540000D01*
G01*
X150943000Y-199161200D02*
G75*
G03*
X148403000Y-201701200I1J-2540001D01*
G01*
%TO.C,S19*%
X167453000Y-203130200D02*
X167453000Y-203511200D01*
X169993000Y-197161200D02*
X178883000Y-197161200D01*
X178883000Y-200590200D02*
X178883000Y-201606200D01*
X171338838Y-203511200D02*
X167834000Y-203511200D01*
X178883000Y-201606200D02*
X173803000Y-201606200D01*
X167453000Y-199701200D02*
X167453000Y-200082200D01*
X178883000Y-197161200D02*
X178883000Y-197542200D01*
X167834000Y-203511200D02*
X167453000Y-203511200D01*
X169993000Y-197161200D02*
G75*
G03*
X167453000Y-199701200I1J-2540001D01*
G01*
X173803000Y-201606199D02*
G75*
G03*
X171338838Y-203530160I0J-2540000D01*
G01*
%TO.C,S24*%
X190388838Y-207511200D02*
X186884000Y-207511200D01*
X189043000Y-201161200D02*
X197933000Y-201161200D01*
X197933000Y-205606200D02*
X192853000Y-205606200D01*
X186503000Y-207130200D02*
X186503000Y-207511200D01*
X186503000Y-203701200D02*
X186503000Y-204082200D01*
X197933000Y-201161200D02*
X197933000Y-201542200D01*
X197933000Y-204590200D02*
X197933000Y-205606200D01*
X186884000Y-207511200D02*
X186503000Y-207511200D01*
X192853000Y-205606199D02*
G75*
G03*
X190388838Y-207530160I0J-2540000D01*
G01*
X189043000Y-201161200D02*
G75*
G03*
X186503000Y-203701200I1J-2540001D01*
G01*
%TO.C,S32*%
X208093000Y-205161200D02*
X216983000Y-205161200D01*
X216983000Y-209606200D02*
X211903000Y-209606200D01*
X205553000Y-207701200D02*
X205553000Y-208082200D01*
X216983000Y-205161200D02*
X216983000Y-205542200D01*
X205934000Y-211511200D02*
X205553000Y-211511200D01*
X216983000Y-208590200D02*
X216983000Y-209606200D01*
X205553000Y-211130200D02*
X205553000Y-211511200D01*
X209438838Y-211511200D02*
X205934000Y-211511200D01*
X211903000Y-209606199D02*
G75*
G03*
X209438838Y-211530160I0J-2540000D01*
G01*
X208093000Y-205161200D02*
G75*
G03*
X205553000Y-207701200I1J-2540001D01*
G01*
%TO.C,S3*%
X103155456Y-230750156D02*
X103155456Y-231131156D01*
X105695456Y-228210156D02*
X114585456Y-228210156D01*
X103155456Y-234179156D02*
X103155456Y-234560156D01*
X114585456Y-228210156D02*
X114585456Y-228591156D01*
X103536456Y-234560156D02*
X103155456Y-234560156D01*
X114585456Y-231639156D02*
X114585456Y-232655156D01*
X114585456Y-232655156D02*
X109505456Y-232655156D01*
X107041294Y-234560156D02*
X103536456Y-234560156D01*
X105695456Y-228210156D02*
G75*
G03*
X103155456Y-230750156I1J-2540001D01*
G01*
X109505456Y-232655155D02*
G75*
G03*
X107041294Y-234579116I0J-2540000D01*
G01*
%TO.C,S10*%
X129734000Y-234561200D02*
X129353000Y-234561200D01*
X133238838Y-234561200D02*
X129734000Y-234561200D01*
X129353000Y-234180200D02*
X129353000Y-234561200D01*
X140783000Y-232656200D02*
X135703000Y-232656200D01*
X140783000Y-228211200D02*
X140783000Y-228592200D01*
X129353000Y-230751200D02*
X129353000Y-231132200D01*
X140783000Y-231640200D02*
X140783000Y-232656200D01*
X131893000Y-228211200D02*
X140783000Y-228211200D01*
X131893000Y-228211200D02*
G75*
G03*
X129353000Y-230751200I1J-2540001D01*
G01*
X135703000Y-232656199D02*
G75*
G03*
X133238838Y-234580160I0J-2540000D01*
G01*
%TO.C,S15*%
X148403000Y-220751200D02*
X148403000Y-221132200D01*
X159833000Y-221640200D02*
X159833000Y-222656200D01*
X148403000Y-224180200D02*
X148403000Y-224561200D01*
X150943000Y-218211200D02*
X159833000Y-218211200D01*
X152288838Y-224561200D02*
X148784000Y-224561200D01*
X148784000Y-224561200D02*
X148403000Y-224561200D01*
X159833000Y-222656200D02*
X154753000Y-222656200D01*
X159833000Y-218211200D02*
X159833000Y-218592200D01*
X154753000Y-222656199D02*
G75*
G03*
X152288838Y-224580160I0J-2540000D01*
G01*
X150943000Y-218211200D02*
G75*
G03*
X148403000Y-220751200I1J-2540001D01*
G01*
%TO.C,S20*%
X178883000Y-216211200D02*
X178883000Y-216592200D01*
X167453000Y-222180200D02*
X167453000Y-222561200D01*
X167453000Y-218751200D02*
X167453000Y-219132200D01*
X178883000Y-220656200D02*
X173803000Y-220656200D01*
X171338838Y-222561200D02*
X167834000Y-222561200D01*
X169993000Y-216211200D02*
X178883000Y-216211200D01*
X178883000Y-219640200D02*
X178883000Y-220656200D01*
X167834000Y-222561200D02*
X167453000Y-222561200D01*
X169993000Y-216211200D02*
G75*
G03*
X167453000Y-218751200I1J-2540001D01*
G01*
X173803000Y-220656199D02*
G75*
G03*
X171338838Y-222580160I0J-2540000D01*
G01*
%TO.C,S25*%
X186884000Y-226561200D02*
X186503000Y-226561200D01*
X197933000Y-224656200D02*
X192853000Y-224656200D01*
X189043000Y-220211200D02*
X197933000Y-220211200D01*
X186503000Y-226180200D02*
X186503000Y-226561200D01*
X197933000Y-223640200D02*
X197933000Y-224656200D01*
X197933000Y-220211200D02*
X197933000Y-220592200D01*
X190388838Y-226561200D02*
X186884000Y-226561200D01*
X186503000Y-222751200D02*
X186503000Y-223132200D01*
X192853000Y-224656199D02*
G75*
G03*
X190388838Y-226580160I0J-2540000D01*
G01*
X189043000Y-220211200D02*
G75*
G03*
X186503000Y-222751200I1J-2540001D01*
G01*
%TO.C,S33*%
X205553000Y-230180200D02*
X205553000Y-230561200D01*
X205934000Y-230561200D02*
X205553000Y-230561200D01*
X216983000Y-227640200D02*
X216983000Y-228656200D01*
X216983000Y-228656200D02*
X211903000Y-228656200D01*
X209438838Y-230561200D02*
X205934000Y-230561200D01*
X205553000Y-226751200D02*
X205553000Y-227132200D01*
X216983000Y-224211200D02*
X216983000Y-224592200D01*
X208093000Y-224211200D02*
X216983000Y-224211200D01*
X211903000Y-228656199D02*
G75*
G03*
X209438838Y-230580160I0J-2540000D01*
G01*
X208093000Y-224211200D02*
G75*
G03*
X205553000Y-226751200I1J-2540001D01*
G01*
%TO.C,S6*%
X110303000Y-253230200D02*
X110303000Y-253611200D01*
X114188838Y-253611200D02*
X110684000Y-253611200D01*
X121733000Y-247261200D02*
X121733000Y-247642200D01*
X121733000Y-250690200D02*
X121733000Y-251706200D01*
X112843000Y-247261200D02*
X121733000Y-247261200D01*
X110303000Y-249801200D02*
X110303000Y-250182200D01*
X110684000Y-253611200D02*
X110303000Y-253611200D01*
X121733000Y-251706200D02*
X116653000Y-251706200D01*
X112843000Y-247261200D02*
G75*
G03*
X110303000Y-249801200I1J-2540001D01*
G01*
X116653000Y-251706199D02*
G75*
G03*
X114188838Y-253630160I0J-2540000D01*
G01*
%TO.C,S11*%
X131893000Y-247261200D02*
X140783000Y-247261200D01*
X140783000Y-251706200D02*
X135703000Y-251706200D01*
X129353000Y-249801200D02*
X129353000Y-250182200D01*
X129353000Y-253230200D02*
X129353000Y-253611200D01*
X133238838Y-253611200D02*
X129734000Y-253611200D01*
X140783000Y-250690200D02*
X140783000Y-251706200D01*
X140783000Y-247261200D02*
X140783000Y-247642200D01*
X129734000Y-253611200D02*
X129353000Y-253611200D01*
X131893000Y-247261200D02*
G75*
G03*
X129353000Y-249801200I1J-2540001D01*
G01*
X135703000Y-251706199D02*
G75*
G03*
X133238838Y-253630160I0J-2540000D01*
G01*
%TO.C,S16*%
X148403000Y-239801200D02*
X148403000Y-240182200D01*
X159833000Y-241706200D02*
X154753000Y-241706200D01*
X148403000Y-243230200D02*
X148403000Y-243611200D01*
X152288838Y-243611200D02*
X148784000Y-243611200D01*
X148784000Y-243611200D02*
X148403000Y-243611200D01*
X159833000Y-237261200D02*
X159833000Y-237642200D01*
X150943000Y-237261200D02*
X159833000Y-237261200D01*
X159833000Y-240690200D02*
X159833000Y-241706200D01*
X154753000Y-241706199D02*
G75*
G03*
X152288838Y-243630160I0J-2540000D01*
G01*
X150943000Y-237261200D02*
G75*
G03*
X148403000Y-239801200I1J-2540001D01*
G01*
%TO.C,S21*%
X178883000Y-238690200D02*
X178883000Y-239706200D01*
X167834000Y-241611200D02*
X167453000Y-241611200D01*
X167453000Y-237801200D02*
X167453000Y-238182200D01*
X178883000Y-239706200D02*
X173803000Y-239706200D01*
X169993000Y-235261200D02*
X178883000Y-235261200D01*
X167453000Y-241230200D02*
X167453000Y-241611200D01*
X178883000Y-235261200D02*
X178883000Y-235642200D01*
X171338838Y-241611200D02*
X167834000Y-241611200D01*
X169993000Y-235261200D02*
G75*
G03*
X167453000Y-237801200I1J-2540001D01*
G01*
X173803000Y-239706199D02*
G75*
G03*
X171338838Y-241630160I0J-2540000D01*
G01*
%TO.C,S26*%
X186503000Y-245230200D02*
X186503000Y-245611200D01*
X186884000Y-245611200D02*
X186503000Y-245611200D01*
X186503000Y-241801200D02*
X186503000Y-242182200D01*
X197933000Y-242690200D02*
X197933000Y-243706200D01*
X197933000Y-243706200D02*
X192853000Y-243706200D01*
X189043000Y-239261200D02*
X197933000Y-239261200D01*
X197933000Y-239261200D02*
X197933000Y-239642200D01*
X190388838Y-245611200D02*
X186884000Y-245611200D01*
X189043000Y-239261200D02*
G75*
G03*
X186503000Y-241801200I1J-2540001D01*
G01*
X192853000Y-243706199D02*
G75*
G03*
X190388838Y-245630160I0J-2540000D01*
G01*
%TO.C,C1*%
X110390000Y-152107498D02*
X110390000Y-152630002D01*
X111860000Y-152107498D02*
X111860000Y-152630002D01*
D12*
%TO.C,C3*%
X164025100Y-151444833D02*
X164025100Y-151737367D01*
X163005100Y-151444833D02*
X163005100Y-151737367D01*
%TO.C,C7*%
X173528833Y-153016600D02*
X173821367Y-153016600D01*
X173528833Y-151996600D02*
X173821367Y-151996600D01*
%TO.C,C8*%
X173546100Y-141984867D02*
X173546100Y-141692333D01*
X174566100Y-141984867D02*
X174566100Y-141692333D01*
%TO.C,C9*%
X166192800Y-139979367D02*
X166192800Y-139686833D01*
X167212800Y-139979367D02*
X167212800Y-139686833D01*
%TO.C,C4*%
X130260502Y-138965000D02*
X129737998Y-138965000D01*
X130260502Y-140435000D02*
X129737998Y-140435000D01*
%TO.C,C10*%
X168724100Y-139979367D02*
X168724100Y-139686833D01*
X167704100Y-139979367D02*
X167704100Y-139686833D01*
D11*
%TO.C,D2*%
X103977500Y-144828750D02*
X103977500Y-148888750D01*
X101707500Y-148888750D02*
X101707500Y-144828750D01*
X101707500Y-144828750D02*
X103977500Y-144828750D01*
%TO.C,R7*%
X154405000Y-144372064D02*
X154405000Y-143917936D01*
X152935000Y-144372064D02*
X152935000Y-143917936D01*
%TO.C,R4*%
X98497500Y-147061686D02*
X98497500Y-147515814D01*
X97027500Y-147061686D02*
X97027500Y-147515814D01*
%TO.C,R6*%
X143258600Y-167653536D02*
X143258600Y-168107664D01*
X141788600Y-167653536D02*
X141788600Y-168107664D01*
%TO.C,R8*%
X161295800Y-157544336D02*
X161295800Y-157998464D01*
X162765800Y-157544336D02*
X162765800Y-157998464D01*
%TO.C,R9*%
X180142600Y-155563136D02*
X180142600Y-156017264D01*
X181612600Y-155563136D02*
X181612600Y-156017264D01*
%TO.C,R10*%
X199345000Y-159627136D02*
X199345000Y-160081264D01*
X200815000Y-159627136D02*
X200815000Y-160081264D01*
%TO.C,R11*%
X215673000Y-244263936D02*
X215673000Y-244718064D01*
X217143000Y-244263936D02*
X217143000Y-244718064D01*
%TO.C,R12*%
X219763400Y-163589536D02*
X219763400Y-164043664D01*
X218293400Y-163589536D02*
X218293400Y-164043664D01*
%TO.C,SW1*%
X134920000Y-143065000D02*
X131780000Y-143065000D01*
X136780000Y-155365000D02*
X139500000Y-155365000D01*
X139500000Y-155365000D02*
X139500000Y-143065000D01*
X131780000Y-155365000D02*
X134920000Y-155365000D01*
X129920000Y-143065000D02*
X127200000Y-143065000D01*
X127200000Y-155365000D02*
X129920000Y-155365000D01*
X139500000Y-143065000D02*
X136780000Y-143065000D01*
X127200000Y-143065000D02*
X127200000Y-155365000D01*
X137889050Y-149115000D02*
G75*
G03*
X137889050Y-149115000I-4579050J0D01*
G01*
%TO.C,SW2*%
X144705750Y-144169250D02*
X146059083Y-144169250D01*
X144705750Y-151669250D02*
X146059083Y-151669250D01*
X144705750Y-151549250D02*
X146059083Y-151549250D01*
X144705750Y-143929250D02*
X146059083Y-143929250D01*
X144705750Y-152389250D02*
X144705750Y-151119250D01*
X148765750Y-153659250D02*
X148765750Y-154929250D01*
X144705750Y-153729250D02*
X146059083Y-153729250D01*
X144705750Y-147309250D02*
X144705750Y-146039250D01*
X146059083Y-144769250D02*
X146059083Y-143499250D01*
X148765750Y-143499250D02*
X148765750Y-144769250D01*
X144705750Y-154329250D02*
X146059083Y-154329250D01*
X146059083Y-149849250D02*
X146059083Y-148579250D01*
X144705750Y-153969250D02*
X146059083Y-153969250D01*
X144705750Y-148889250D02*
X146059083Y-148889250D01*
X144705750Y-149729250D02*
X146059083Y-149729250D01*
X146059083Y-154929250D02*
X146059083Y-153659250D01*
X144705750Y-149609250D02*
X146059083Y-149609250D01*
X144705750Y-154089250D02*
X146059083Y-154089250D01*
X144705750Y-148769250D02*
X146059083Y-148769250D01*
X144705750Y-149489250D02*
X146059083Y-149489250D01*
X148765750Y-144769250D02*
X144705750Y-144769250D01*
X144705750Y-151309250D02*
X146059083Y-151309250D01*
X148765750Y-154929250D02*
X144705750Y-154929250D01*
X144705750Y-144529250D02*
X146059083Y-144529250D01*
X144705750Y-149009250D02*
X146059083Y-149009250D01*
X144705750Y-151189250D02*
X146059083Y-151189250D01*
X144705750Y-148579250D02*
X148765750Y-148579250D01*
X146059083Y-152389250D02*
X146059083Y-151119250D01*
X144705750Y-149849250D02*
X144705750Y-148579250D01*
X148765750Y-152389250D02*
X144705750Y-152389250D01*
X144705750Y-147069250D02*
X146059083Y-147069250D01*
X146059083Y-147309250D02*
X146059083Y-146039250D01*
X144705750Y-146589250D02*
X146059083Y-146589250D01*
X144705750Y-152149250D02*
X146059083Y-152149250D01*
X144705750Y-154209250D02*
X146059083Y-154209250D01*
X144705750Y-143569250D02*
X146059083Y-143569250D01*
X144705750Y-154689250D02*
X146059083Y-154689250D01*
X144705750Y-149369250D02*
X146059083Y-149369250D01*
X148765750Y-146039250D02*
X148765750Y-147309250D01*
X144705750Y-146349250D02*
X146059083Y-146349250D01*
X144705750Y-152029250D02*
X146059083Y-152029250D01*
X148765750Y-148579250D02*
X148765750Y-149849250D01*
X144705750Y-154449250D02*
X146059083Y-154449250D01*
X141785750Y-141714250D02*
X151685750Y-141714250D01*
X144705750Y-144769250D02*
X144705750Y-143499250D01*
X144705750Y-154569250D02*
X146059083Y-154569250D01*
X144705750Y-143499250D02*
X148765750Y-143499250D01*
X144705750Y-144049250D02*
X146059083Y-144049250D01*
X144705750Y-143689250D02*
X146059083Y-143689250D01*
X141785750Y-156714250D02*
X151685750Y-156714250D01*
X144705750Y-154929250D02*
X144705750Y-153659250D01*
X141785750Y-156714250D02*
X141785750Y-141714250D01*
X144705750Y-144409250D02*
X146059083Y-144409250D01*
X144705750Y-151789250D02*
X146059083Y-151789250D01*
X144705750Y-152269250D02*
X146059083Y-152269250D01*
X144705750Y-146469250D02*
X146059083Y-146469250D01*
X144705750Y-149129250D02*
X146059083Y-149129250D01*
X144705750Y-153659250D02*
X148765750Y-153659250D01*
X141545750Y-156954250D02*
X141545750Y-155571250D01*
X144705750Y-151119250D02*
X148765750Y-151119250D01*
X144705750Y-144649250D02*
X146059083Y-144649250D01*
X144705750Y-151909250D02*
X146059083Y-151909250D01*
X148765750Y-147309250D02*
X144705750Y-147309250D01*
X144705750Y-146229250D02*
X146059083Y-146229250D01*
X144705750Y-146709250D02*
X146059083Y-146709250D01*
X141545750Y-156954250D02*
X142929750Y-156954250D01*
X144705750Y-147189250D02*
X146059083Y-147189250D01*
X144705750Y-146949250D02*
X146059083Y-146949250D01*
X144705750Y-146829250D02*
X146059083Y-146829250D01*
X144705750Y-143809250D02*
X146059083Y-143809250D01*
X151685750Y-156714250D02*
X151685750Y-141714250D01*
X148765750Y-151119250D02*
X148765750Y-152389250D01*
X144705750Y-144289250D02*
X146059083Y-144289250D01*
X144705750Y-146039250D02*
X148765750Y-146039250D01*
X144705750Y-154809250D02*
X146059083Y-154809250D01*
X144705750Y-146109250D02*
X146059083Y-146109250D01*
X144705750Y-153849250D02*
X146059083Y-153849250D01*
X144705750Y-149249250D02*
X146059083Y-149249250D01*
X148765750Y-149849250D02*
X144705750Y-149849250D01*
X144705750Y-151429250D02*
X146059083Y-151429250D01*
X144705750Y-148649250D02*
X146059083Y-148649250D01*
%TO.C,U2*%
X111985000Y-149488750D02*
X111985000Y-148348750D01*
X107495000Y-148348750D02*
X107725000Y-148348750D01*
X112215000Y-145628750D02*
X110905000Y-145628750D01*
X108805000Y-145628750D02*
X107495000Y-145628750D01*
X112215000Y-148348750D02*
X112215000Y-145628750D01*
X107495000Y-145628750D02*
X107495000Y-148348750D01*
X112215000Y-148348750D02*
X111985000Y-148348750D01*
%TO.C,D1*%
X122900000Y-152670000D02*
X119000000Y-152670000D01*
X122900000Y-154670000D02*
X119000000Y-154670000D01*
X122900000Y-152670000D02*
X122900000Y-154670000D01*
%TO.C,R5*%
X123094200Y-167704336D02*
X123094200Y-168158464D01*
X124564200Y-167704336D02*
X124564200Y-168158464D01*
%TO.C,FB1*%
X115645000Y-152138748D02*
X115645000Y-152661252D01*
X114225000Y-152138748D02*
X114225000Y-152661252D01*
%TO.C,F1*%
X122360000Y-147203748D02*
X122360000Y-149976252D01*
X118940000Y-147203748D02*
X118940000Y-149976252D01*
%TO.C,C2*%
X104877500Y-152107498D02*
X104877500Y-152630002D01*
X106347500Y-152107498D02*
X106347500Y-152630002D01*
D12*
%TO.C,C5*%
X173528833Y-154540600D02*
X173821367Y-154540600D01*
X173528833Y-153520600D02*
X173821367Y-153520600D01*
%TO.C,C6*%
X165549100Y-151444833D02*
X165549100Y-151737367D01*
X164529100Y-151444833D02*
X164529100Y-151737367D01*
D11*
%TO.C,R3*%
X108409800Y-168110736D02*
X108409800Y-168564864D01*
X106939800Y-168110736D02*
X106939800Y-168564864D01*
%TD*%
M02*
