M48
; DRILL file {KiCad (6.0.0)} date Fri Dec 31 20:21:38 2021
; FORMAT={-:-/ absolute / metric / decimal}
; #@! TF.CreationDate,2021-12-31T20:21:38-08:00
; #@! TF.GenerationSoftware,Kicad,Pcbnew,(6.0.0)
; #@! TF.FileFunction,NonPlated,1,4,NPTH
FMAT,2
METRIC
; #@! TA.AperFunction,NonPlated,NPTH,ComponentDrill
T1C0.500
; #@! TA.AperFunction,NonPlated,NPTH,ComponentDrill
T2C3.000
; #@! TA.AperFunction,NonPlated,NPTH,ComponentDrill
T3C3.988
%
G90
G05
T1
X113.595Y-140.478
X117.595Y-140.478
T2
X93.796Y-251.711
X100.146Y-249.171
X105.695Y-232.655
X108.117Y-213.598
X112.045Y-230.115
X112.843Y-175.506
X112.843Y-194.556
X112.843Y-251.706
X114.467Y-211.058
X119.193Y-172.966
X119.193Y-192.016
X119.193Y-249.166
X131.893Y-175.506
X131.893Y-194.556
X131.893Y-213.606
X131.893Y-232.656
X131.893Y-251.706
X138.243Y-172.966
X138.243Y-192.016
X138.243Y-211.066
X138.243Y-230.116
X138.243Y-249.166
X150.943Y-165.506
X150.943Y-184.556
X150.943Y-203.606
X150.943Y-222.656
X150.943Y-241.706
X157.293Y-162.966
X157.293Y-182.016
X157.293Y-201.066
X157.293Y-220.116
X157.293Y-239.166
X169.993Y-163.506
X169.993Y-182.556
X169.993Y-201.606
X169.993Y-220.656
X169.993Y-239.706
X176.343Y-160.966
X176.343Y-180.016
X176.343Y-199.066
X176.343Y-218.116
X176.343Y-237.166
X189.043Y-167.506
X189.043Y-186.556
X189.043Y-205.606
X189.043Y-224.656
X189.043Y-243.706
X195.393Y-164.966
X195.393Y-184.016
X195.393Y-203.066
X195.393Y-222.116
X195.393Y-241.166
X208.093Y-171.506
X208.093Y-190.556
X208.093Y-209.606
X208.093Y-228.656
X209.16Y-255.892
X214.443Y-168.966
X214.443Y-188.016
X214.443Y-207.066
X214.443Y-226.116
X215.855Y-254.493
X229.361Y-270.26
X236.008Y-271.868
X242.166Y-291.547
X247.54Y-295.777
T3
X97.606Y-254.251
X109.505Y-235.195
X111.927Y-216.138
X116.653Y-178.046
X116.653Y-197.096
X116.653Y-254.246
X135.703Y-178.046
X135.703Y-197.096
X135.703Y-216.146
X135.703Y-235.196
X135.703Y-254.246
X154.753Y-168.046
X154.753Y-187.096
X154.753Y-206.146
X154.753Y-225.196
X154.753Y-244.246
X173.803Y-166.046
X173.803Y-185.096
X173.803Y-204.146
X173.803Y-223.196
X173.803Y-242.246
X192.853Y-170.046
X192.853Y-189.096
X192.853Y-208.146
X192.853Y-227.196
X192.853Y-246.246
X211.903Y-174.046
X211.903Y-193.096
X211.903Y-212.146
X211.903Y-231.196
X212.471Y-259.055
X230.995Y-274.538
X241.871Y-296.117
T0
M30
