%TF.GenerationSoftware,KiCad,Pcbnew,(6.0.0)*%
%TF.CreationDate,2021-12-31T20:21:35-08:00*%
%TF.ProjectId,thumbler_left,7468756d-626c-4657-925f-6c6566742e6b,rev?*%
%TF.SameCoordinates,Original*%
%TF.FileFunction,Copper,L3,Inr*%
%TF.FilePolarity,Positive*%
%FSLAX46Y46*%
G04 Gerber Fmt 4.6, Leading zero omitted, Abs format (unit mm)*
G04 Created by KiCad (PCBNEW (6.0.0)) date 2021-12-31 20:21:35*
%MOMM*%
%LPD*%
G01*
G04 APERTURE LIST*
%TA.AperFunction,ComponentPad*%
%ADD10R,1.600000X1.600000*%
%TD*%
%TA.AperFunction,ComponentPad*%
%ADD11O,1.600000X1.600000*%
%TD*%
%TA.AperFunction,ComponentPad*%
%ADD12C,2.500000*%
%TD*%
%TA.AperFunction,ComponentPad*%
%ADD13C,2.184400*%
%TD*%
%TA.AperFunction,ComponentPad*%
%ADD14R,1.700000X1.700000*%
%TD*%
%TA.AperFunction,ComponentPad*%
%ADD15O,1.700000X1.700000*%
%TD*%
%TA.AperFunction,ComponentPad*%
%ADD16O,1.850000X3.048000*%
%TD*%
%TA.AperFunction,ViaPad*%
%ADD17C,0.600000*%
%TD*%
%TA.AperFunction,ViaPad*%
%ADD18C,0.400000*%
%TD*%
G04 APERTURE END LIST*
D10*
%TO.N,L_ROW1*%
%TO.C,D6*%
X107711000Y-186032200D03*
D11*
%TO.N,Net-(D6-Pad2)*%
X107711000Y-178412200D03*
%TD*%
D10*
%TO.N,L_ROW5*%
%TO.C,D3*%
X88701000Y-262394000D03*
D11*
%TO.N,Net-(D3-Pad2)*%
X88701000Y-254774000D03*
%TD*%
D10*
%TO.N,L_ROW5*%
%TO.C,D29*%
X201345800Y-263906000D03*
D11*
%TO.N,Net-(D29-Pad2)*%
X201345800Y-256286000D03*
%TD*%
D10*
%TO.N,L_ROW4*%
%TO.C,D30*%
X219075000Y-276860000D03*
D11*
%TO.N,Net-(D30-Pad2)*%
X219075000Y-269240000D03*
%TD*%
D10*
%TO.N,L_ROW3*%
%TO.C,D31*%
X229870000Y-295910000D03*
D11*
%TO.N,Net-(D31-Pad2)*%
X229870000Y-288290000D03*
%TD*%
D12*
%TO.N,GND*%
%TO.C,J4*%
X224315000Y-141769500D03*
%TO.N,Net-(J4-Pad2)*%
X224315000Y-149269500D03*
%TO.N,L_RX*%
X224315000Y-156769500D03*
%TO.N,+5V*%
X221815000Y-144269500D03*
%TO.N,L_TX*%
X221815000Y-154269500D03*
D13*
%TO.N,N/C*%
X234315000Y-154269500D03*
X234315000Y-144269500D03*
X234315000Y-151769500D03*
X234315000Y-146769500D03*
%TD*%
D14*
%TO.N,GND*%
%TO.C,J3*%
X186695000Y-150490000D03*
D15*
%TO.N,L_SWCLK*%
X186695000Y-153030000D03*
%TO.N,L_SWDIO*%
X184155000Y-150490000D03*
%TO.N,+3V3*%
X184155000Y-153030000D03*
%TD*%
D14*
%TO.N,GND*%
%TO.C,J2*%
X191135000Y-153035000D03*
D15*
%TO.N,L_TX*%
X191135000Y-150495000D03*
%TO.N,L_RX*%
X193675000Y-153035000D03*
%TO.N,+3V3*%
X193675000Y-150495000D03*
%TD*%
D10*
%TO.N,L_ROW1*%
%TO.C,D9*%
X126761000Y-186032200D03*
D11*
%TO.N,Net-(D9-Pad2)*%
X126761000Y-178412200D03*
%TD*%
D10*
%TO.N,L_ROW1*%
%TO.C,D14*%
X145811000Y-176032200D03*
D11*
%TO.N,Net-(D14-Pad2)*%
X145811000Y-168412200D03*
%TD*%
D10*
%TO.N,L_ROW1*%
%TO.C,D19*%
X164861000Y-174032200D03*
D11*
%TO.N,Net-(D19-Pad2)*%
X164861000Y-166412200D03*
%TD*%
D10*
%TO.N,L_ROW1*%
%TO.C,D24*%
X183911000Y-178032200D03*
D11*
%TO.N,Net-(D24-Pad2)*%
X183911000Y-170412200D03*
%TD*%
D10*
%TO.N,L_ROW2*%
%TO.C,D32*%
X202961000Y-182032200D03*
D11*
%TO.N,Net-(D32-Pad2)*%
X202961000Y-174412200D03*
%TD*%
D10*
%TO.N,L_ROW2*%
%TO.C,D7*%
X107711000Y-205082200D03*
D11*
%TO.N,Net-(D7-Pad2)*%
X107711000Y-197462200D03*
%TD*%
D10*
%TO.N,L_ROW2*%
%TO.C,D10*%
X126761000Y-205082200D03*
D11*
%TO.N,Net-(D10-Pad2)*%
X126761000Y-197462200D03*
%TD*%
D10*
%TO.N,L_ROW2*%
%TO.C,D15*%
X145811000Y-195082200D03*
D11*
%TO.N,Net-(D15-Pad2)*%
X145811000Y-187462200D03*
%TD*%
D10*
%TO.N,L_ROW2*%
%TO.C,D20*%
X164861000Y-193082200D03*
D11*
%TO.N,Net-(D20-Pad2)*%
X164861000Y-185462200D03*
%TD*%
D10*
%TO.N,L_ROW2*%
%TO.C,D25*%
X183911000Y-197082200D03*
D11*
%TO.N,Net-(D25-Pad2)*%
X183911000Y-189462200D03*
%TD*%
D10*
%TO.N,L_ROW3*%
%TO.C,D33*%
X202961000Y-201082200D03*
D11*
%TO.N,Net-(D33-Pad2)*%
X202961000Y-193462200D03*
%TD*%
D10*
%TO.N,L_ROW3*%
%TO.C,D4*%
X102331600Y-224155000D03*
D11*
%TO.N,Net-(D4-Pad2)*%
X102331600Y-216535000D03*
%TD*%
D10*
%TO.N,L_ROW3*%
%TO.C,D11*%
X126761000Y-224132200D03*
D11*
%TO.N,Net-(D11-Pad2)*%
X126761000Y-216512200D03*
%TD*%
D10*
%TO.N,L_ROW3*%
%TO.C,D16*%
X145811000Y-214132200D03*
D11*
%TO.N,Net-(D16-Pad2)*%
X145811000Y-206512200D03*
%TD*%
D10*
%TO.N,L_ROW3*%
%TO.C,D21*%
X164861000Y-212132200D03*
D11*
%TO.N,Net-(D21-Pad2)*%
X164861000Y-204512200D03*
%TD*%
D10*
%TO.N,L_ROW3*%
%TO.C,D26*%
X183911000Y-216132200D03*
D11*
%TO.N,Net-(D26-Pad2)*%
X183911000Y-208512200D03*
%TD*%
D10*
%TO.N,L_ROW4*%
%TO.C,D34*%
X202961000Y-220132200D03*
D11*
%TO.N,Net-(D34-Pad2)*%
X202961000Y-212512200D03*
%TD*%
D10*
%TO.N,L_ROW4*%
%TO.C,D5*%
X99695000Y-243205000D03*
D11*
%TO.N,Net-(D5-Pad2)*%
X99695000Y-235585000D03*
%TD*%
D10*
%TO.N,L_ROW4*%
%TO.C,D12*%
X126761000Y-243182200D03*
D11*
%TO.N,Net-(D12-Pad2)*%
X126761000Y-235562200D03*
%TD*%
D10*
%TO.N,L_ROW4*%
%TO.C,D17*%
X145811000Y-233182200D03*
D11*
%TO.N,Net-(D17-Pad2)*%
X145811000Y-225562200D03*
%TD*%
D10*
%TO.N,L_ROW4*%
%TO.C,D22*%
X164861000Y-231182200D03*
D11*
%TO.N,Net-(D22-Pad2)*%
X164861000Y-223562200D03*
%TD*%
D10*
%TO.N,L_ROW4*%
%TO.C,D27*%
X183911000Y-235182200D03*
D11*
%TO.N,Net-(D27-Pad2)*%
X183911000Y-227562200D03*
%TD*%
D10*
%TO.N,L_ROW5*%
%TO.C,D35*%
X202961000Y-239182200D03*
D11*
%TO.N,Net-(D35-Pad2)*%
X202961000Y-231562200D03*
%TD*%
D10*
%TO.N,L_ROW5*%
%TO.C,D8*%
X107711000Y-262232200D03*
D11*
%TO.N,Net-(D8-Pad2)*%
X107711000Y-254612200D03*
%TD*%
D10*
%TO.N,L_ROW5*%
%TO.C,D13*%
X126761000Y-262232200D03*
D11*
%TO.N,Net-(D13-Pad2)*%
X126761000Y-254612200D03*
%TD*%
D10*
%TO.N,L_ROW5*%
%TO.C,D18*%
X145811000Y-252232200D03*
D11*
%TO.N,Net-(D18-Pad2)*%
X145811000Y-244612200D03*
%TD*%
D10*
%TO.N,L_ROW5*%
%TO.C,D23*%
X164861000Y-250232200D03*
D11*
%TO.N,Net-(D23-Pad2)*%
X164861000Y-242612200D03*
%TD*%
D10*
%TO.N,L_ROW5*%
%TO.C,D28*%
X183911000Y-254232200D03*
D11*
%TO.N,Net-(D28-Pad2)*%
X183911000Y-246612200D03*
%TD*%
D14*
%TO.N,GND*%
%TO.C,J9*%
X178435000Y-289560000D03*
D15*
%TO.N,ENC_BN*%
X180975000Y-289560000D03*
%TO.N,ENC_B*%
X178435000Y-292100000D03*
%TO.N,ENC_A*%
X180975000Y-292100000D03*
%TO.N,ENC_LF*%
X178435000Y-294640000D03*
%TO.N,ENC_UP*%
X180975000Y-294640000D03*
%TO.N,ENC_RT*%
X178435000Y-297180000D03*
%TO.N,ENC_DN*%
X180975000Y-297180000D03*
%TD*%
D16*
%TO.N,GND*%
%TO.C,SW1*%
X135850000Y-155465000D03*
X135850000Y-142965000D03*
%TO.N,~{RST}*%
X130850000Y-155465000D03*
X130850000Y-142965000D03*
%TD*%
D10*
%TO.N,GND*%
%TO.C,SW2*%
X142925750Y-154294250D03*
D11*
X142925750Y-151754250D03*
X142925750Y-149214250D03*
X142925750Y-146674250D03*
%TO.N,+3V3*%
X142925750Y-144134250D03*
%TO.N,L_BOOT0*%
X150545750Y-144134250D03*
%TO.N,L_OPT4*%
X150545750Y-146674250D03*
%TO.N,L_OPT3*%
X150545750Y-149214250D03*
%TO.N,L_OPT2*%
X150545750Y-151754250D03*
%TO.N,L_OPT1*%
X150545750Y-154294250D03*
%TD*%
D17*
%TO.N,GND*%
X171450000Y-152400000D03*
X169545000Y-140335000D03*
X163830000Y-153416000D03*
X166624000Y-148336000D03*
X175260000Y-151765000D03*
X127762000Y-139700000D03*
X153670000Y-141986000D03*
X175260000Y-140970000D03*
X114300000Y-142875000D03*
X175259999Y-144779999D03*
X106934000Y-153416000D03*
X109728000Y-153416000D03*
X99060000Y-148336000D03*
X112522000Y-149352000D03*
%TO.N,+3V3*%
X104140000Y-148844000D03*
X107315000Y-150495000D03*
X168323436Y-140675575D03*
X174056100Y-142727600D03*
X172786077Y-152310500D03*
X165039100Y-150628100D03*
D18*
%TO.N,~{RST}*%
X166624000Y-144018000D03*
%TO.N,L_ROW3*%
X216535000Y-231140000D03*
X203200000Y-217805000D03*
X215265000Y-229870000D03*
X205105000Y-219710000D03*
%TO.N,L_ROW4*%
X191770000Y-249555000D03*
X193675000Y-251460000D03*
D17*
%TO.N,+5V*%
X123825000Y-151765000D03*
D18*
%TO.N,L_TX*%
X175006000Y-146685000D03*
%TO.N,L_RX*%
X172212000Y-147066000D03*
%TO.N,L_SWCLK*%
X172085002Y-148590000D03*
%TO.N,L_SWDIO*%
X171450000Y-149225000D03*
%TO.N,L_COL7*%
X106045000Y-167640000D03*
%TO.N,L_BOOT0*%
X166624000Y-145542000D03*
%TO.N,L_USB_D+*%
X168334803Y-149352000D03*
X164084000Y-149606000D03*
%TO.N,L_USB_D-*%
X163576000Y-149098000D03*
X167660136Y-149098000D03*
%TO.N,L_COL6*%
X121920000Y-167640000D03*
%TO.N,L_COL5*%
X140970000Y-167640000D03*
%TO.N,L_COL4*%
X164465000Y-156845000D03*
%TO.N,L_COL3*%
X178435000Y-154940000D03*
X176530000Y-155575000D03*
%TO.N,L_COL2*%
X175702335Y-154264547D03*
X198120000Y-159385000D03*
%TO.N,L_COL8*%
X171450000Y-144145000D03*
X214630000Y-243840000D03*
%TO.N,L_COL1*%
X217170000Y-163195000D03*
X175897840Y-153208100D03*
%TO.N,Net-(F1-Pad1)*%
X118110000Y-144145000D03*
%TO.N,ENC_DN*%
X155448000Y-154178000D03*
%TO.N,ENC_RT*%
X156210000Y-153924000D03*
X160020000Y-286385000D03*
%TO.N,ENC_UP*%
X156972000Y-153670000D03*
X177165000Y-285115000D03*
%TO.N,ENC_LF*%
X154784117Y-154432000D03*
X164465000Y-288925000D03*
%TO.N,ENC_A*%
X154178000Y-154686000D03*
%TO.N,ENC_B*%
X153416000Y-154940000D03*
%TO.N,ENC_BN*%
X159385000Y-151765000D03*
X183514998Y-287020000D03*
%TD*%
M02*
