M48
; DRILL file {KiCad (6.0.0)} date Sun Jan  2 22:49:09 2022
; FORMAT={-:-/ absolute / metric / decimal}
; #@! TF.CreationDate,2022-01-02T22:49:09-08:00
; #@! TF.GenerationSoftware,Kicad,Pcbnew,(6.0.0)
; #@! TF.FileFunction,Plated,1,4,PTH
FMAT,2
METRIC
; #@! TA.AperFunction,Plated,PTH,ViaDrill
T1C0.200
; #@! TA.AperFunction,Plated,PTH,ViaDrill
T2C0.300
; #@! TA.AperFunction,Plated,PTH,ComponentDrill
T3C0.800
; #@! TA.AperFunction,Plated,PTH,ComponentDrill
T4C1.000
; #@! TA.AperFunction,Plated,PTH,ComponentDrill
T5C1.100
; #@! TA.AperFunction,Plated,PTH,ComponentDrill
T6C1.300
; #@! TA.AperFunction,Plated,PTH,ComponentDrill
T7C1.321
%
G90
G05
T1
X306.705Y-317.5
X343.535Y-240.03
X384.81Y-153.162
X388.366Y-154.686
X389.128Y-154.686
X389.89Y-154.686
X390.652Y-154.686
X391.414Y-154.686
X393.446Y-143.256
X394.208Y-140.716
X395.224Y-141.478
X395.732Y-142.24
X402.082Y-145.542
X404.876Y-144.78
X405.638Y-147.066
X406.146Y-146.558
X435.61Y-148.336
X440.69Y-167.386
T2
X359.893Y-163.525
X361.442Y-242.316
X379.73Y-159.512
X387.096Y-147.32
X388.366Y-142.24
X392.43Y-152.505
X393.7Y-149.352
X394.934Y-150.754
X398.236Y-140.848
X399.034Y-139.192
X399.288Y-156.718
X402.336Y-153.162
X403.316Y-151.389
X403.952Y-142.88
X404.876Y-140.97
X409.194Y-147.32
X414.274Y-147.32
X419.354Y-147.156
X419.354Y-157.988
X436.372Y-140.716
X442.976Y-145.542
X447.294Y-146.05
X450.088Y-148.336
X454.13Y-147.066
X456.946Y-166.878
X459.232Y-147.066
X463.296Y-151.638
X463.804Y-148.336
X466.598Y-139.192
X470.154Y-141.986
X481.33Y-149.352
T3
X339.09Y-289.56
X339.09Y-297.18
X347.721Y-174.018
X347.721Y-181.638
X347.721Y-193.069
X347.721Y-200.689
X347.721Y-212.118
X347.721Y-219.738
X347.721Y-231.168
X347.721Y-238.788
X350.52Y-271.78
X350.52Y-279.4
X366.674Y-259.486
X366.674Y-267.106
X366.771Y-170.018
X366.771Y-177.638
X366.771Y-189.069
X366.771Y-196.689
X366.771Y-208.118
X366.771Y-215.738
X366.771Y-227.168
X366.771Y-234.788
X366.771Y-246.218
X366.771Y-253.838
X373.812Y-141.582
X373.812Y-144.122
X373.812Y-146.662
X373.812Y-149.202
X373.812Y-151.742
X381.432Y-141.582
X381.432Y-144.122
X381.432Y-146.662
X381.432Y-149.202
X381.432Y-151.742
X385.821Y-166.018
X385.821Y-173.638
X385.821Y-185.069
X385.821Y-192.689
X385.821Y-204.118
X385.821Y-211.738
X385.821Y-223.168
X385.821Y-230.788
X385.821Y-242.218
X385.821Y-249.838
X404.871Y-168.018
X404.871Y-175.638
X404.871Y-187.069
X404.871Y-194.689
X404.871Y-206.118
X404.871Y-213.738
X404.871Y-225.168
X404.871Y-232.788
X404.871Y-244.218
X404.871Y-251.838
X423.921Y-178.018
X423.921Y-185.638
X423.921Y-197.069
X423.921Y-204.689
X423.921Y-216.118
X423.921Y-223.738
X423.921Y-235.168
X423.921Y-242.788
X423.921Y-254.218
X423.921Y-261.839
X428.498Y-168.91
X436.118Y-168.91
X442.971Y-178.018
X442.971Y-185.638
X442.971Y-197.069
X442.971Y-204.689
X442.971Y-216.118
X442.971Y-223.738
X442.971Y-235.168
X442.971Y-242.788
X446.278Y-244.856
X453.898Y-244.856
X462.021Y-158.969
X462.021Y-166.588
X462.021Y-178.018
X462.021Y-185.638
X462.021Y-197.069
X462.021Y-204.689
X462.021Y-225.643
X462.021Y-233.263
T4
X410.469Y-150.627
X410.469Y-153.167
X413.009Y-150.627
X413.009Y-153.167
X418.079Y-150.617
X418.079Y-153.157
X420.619Y-150.617
X420.619Y-153.157
T5
X315.813Y-325.285
X315.813Y-327.785
X315.813Y-330.285
X322.043Y-336.515
X324.543Y-336.515
X327.043Y-336.515
T6
X321.293Y-317.535
X321.293Y-322.035
X327.793Y-317.535
X327.793Y-322.035
X357.234Y-144.185
X357.234Y-149.185
X369.734Y-144.185
X369.734Y-149.185
T7
X336.075Y-149.242
X338.575Y-139.242
X338.575Y-151.742
X343.575Y-149.242
X348.575Y-139.242
X348.575Y-151.742
X351.075Y-149.242
T0
M30
