%TF.GenerationSoftware,KiCad,Pcbnew,(6.0.0)*%
%TF.CreationDate,2022-01-02T22:49:07-08:00*%
%TF.ProjectId,thumbler_right,7468756d-626c-4657-925f-72696768742e,rev?*%
%TF.SameCoordinates,Original*%
%TF.FileFunction,Paste,Top*%
%TF.FilePolarity,Positive*%
%FSLAX46Y46*%
G04 Gerber Fmt 4.6, Leading zero omitted, Abs format (unit mm)*
G04 Created by KiCad (PCBNEW (6.0.0)) date 2022-01-02 22:49:07*
%MOMM*%
%LPD*%
G01*
G04 APERTURE LIST*
G04 Aperture macros list*
%AMRoundRect*
0 Rectangle with rounded corners*
0 $1 Rounding radius*
0 $2 $3 $4 $5 $6 $7 $8 $9 X,Y pos of 4 corners*
0 Add a 4 corners polygon primitive as box body*
4,1,4,$2,$3,$4,$5,$6,$7,$8,$9,$2,$3,0*
0 Add four circle primitives for the rounded corners*
1,1,$1+$1,$2,$3*
1,1,$1+$1,$4,$5*
1,1,$1+$1,$6,$7*
1,1,$1+$1,$8,$9*
0 Add four rect primitives between the rounded corners*
20,1,$1+$1,$2,$3,$4,$5,0*
20,1,$1+$1,$4,$5,$6,$7,0*
20,1,$1+$1,$6,$7,$8,$9,0*
20,1,$1+$1,$8,$9,$2,$3,0*%
G04 Aperture macros list end*
%ADD10RoundRect,0.250000X0.337500X0.475000X-0.337500X0.475000X-0.337500X-0.475000X0.337500X-0.475000X0*%
%ADD11RoundRect,0.250000X-0.475000X0.337500X-0.475000X-0.337500X0.475000X-0.337500X0.475000X0.337500X0*%
%ADD12RoundRect,0.250000X-0.625000X0.462500X-0.625000X-0.462500X0.625000X-0.462500X0.625000X0.462500X0*%
%ADD13RoundRect,0.249999X0.450001X-0.350001X0.450001X0.350001X-0.450001X0.350001X-0.450001X-0.350001X0*%
%ADD14RoundRect,0.249999X-0.450001X0.350001X-0.450001X-0.350001X0.450001X-0.350001X0.450001X0.350001X0*%
%ADD15RoundRect,0.075000X-0.075000X0.662500X-0.075000X-0.662500X0.075000X-0.662500X0.075000X0.662500X0*%
%ADD16RoundRect,0.075000X-0.662500X0.075000X-0.662500X-0.075000X0.662500X-0.075000X0.662500X0.075000X0*%
%ADD17R,0.400000X1.600000*%
%ADD18R,1.400000X1.200000*%
%ADD19R,1.400000X1.500000*%
G04 APERTURE END LIST*
D10*
%TO.C,C11*%
X389403500Y-145796000D03*
X387328500Y-145796000D03*
%TD*%
%TO.C,C12*%
X389403500Y-148844000D03*
X387328500Y-148844000D03*
%TD*%
D11*
%TO.C,C13*%
X389636000Y-140186500D03*
X389636000Y-142261500D03*
%TD*%
D12*
%TO.C,D55*%
X410464000Y-143546500D03*
X410464000Y-146521500D03*
%TD*%
D13*
%TO.C,R21*%
X470916000Y-146882460D03*
X470916000Y-144882460D03*
%TD*%
D14*
%TO.C,R22*%
X473964000Y-144882460D03*
X473964000Y-146882460D03*
%TD*%
D13*
%TO.C,R14*%
X420624000Y-141208000D03*
X420624000Y-139208000D03*
%TD*%
%TO.C,R17*%
X415544000Y-141208000D03*
X415544000Y-139208000D03*
%TD*%
%TO.C,R18*%
X410464000Y-141208000D03*
X410464000Y-139208000D03*
%TD*%
D15*
%TO.C,U4*%
X402165000Y-142649500D03*
X401665000Y-142649500D03*
X401165000Y-142649500D03*
X400665000Y-142649500D03*
X400165000Y-142649500D03*
X399665000Y-142649500D03*
X399165000Y-142649500D03*
X398665000Y-142649500D03*
X398165000Y-142649500D03*
X397665000Y-142649500D03*
X397165000Y-142649500D03*
X396665000Y-142649500D03*
D16*
X395252500Y-144062000D03*
X395252500Y-144562000D03*
X395252500Y-145062000D03*
X395252500Y-145562000D03*
X395252500Y-146062000D03*
X395252500Y-146562000D03*
X395252500Y-147062000D03*
X395252500Y-147562000D03*
X395252500Y-148062000D03*
X395252500Y-148562000D03*
X395252500Y-149062000D03*
X395252500Y-149562000D03*
D15*
X396665000Y-150974500D03*
X397165000Y-150974500D03*
X397665000Y-150974500D03*
X398165000Y-150974500D03*
X398665000Y-150974500D03*
X399165000Y-150974500D03*
X399665000Y-150974500D03*
X400165000Y-150974500D03*
X400665000Y-150974500D03*
X401165000Y-150974500D03*
X401665000Y-150974500D03*
X402165000Y-150974500D03*
D16*
X403577500Y-149562000D03*
X403577500Y-149062000D03*
X403577500Y-148562000D03*
X403577500Y-148062000D03*
X403577500Y-147562000D03*
X403577500Y-147062000D03*
X403577500Y-146562000D03*
X403577500Y-146062000D03*
X403577500Y-145562000D03*
X403577500Y-145062000D03*
X403577500Y-144562000D03*
X403577500Y-144062000D03*
%TD*%
D12*
%TO.C,D51*%
X415544000Y-143546500D03*
X415544000Y-146521500D03*
%TD*%
%TO.C,D45*%
X420624000Y-143546500D03*
X420624000Y-146521500D03*
%TD*%
D17*
%TO.C,J8*%
X473310247Y-140797426D03*
X472660247Y-140797426D03*
X472010247Y-140797426D03*
X471360247Y-140797426D03*
X470710247Y-140797426D03*
D18*
X468760247Y-140187426D03*
D19*
X476060247Y-137687426D03*
D18*
X475260247Y-140187426D03*
D19*
X467960247Y-137687426D03*
%TD*%
M02*
