M48
; DRILL file {KiCad (6.0.0)} date Sun Jan  2 22:49:09 2022
; FORMAT={-:-/ absolute / metric / decimal}
; #@! TF.CreationDate,2022-01-02T22:49:09-08:00
; #@! TF.GenerationSoftware,Kicad,Pcbnew,(6.0.0)
; #@! TF.FileFunction,NonPlated,1,4,NPTH
FMAT,2
METRIC
; #@! TA.AperFunction,NonPlated,NPTH,ComponentDrill
T1C0.500
; #@! TA.AperFunction,NonPlated,NPTH,ComponentDrill
T2C1.600
; #@! TA.AperFunction,NonPlated,NPTH,ComponentDrill
T3C1.650
; #@! TA.AperFunction,NonPlated,NPTH,ComponentDrill
T4C3.000
; #@! TA.AperFunction,NonPlated,NPTH,ComponentDrill
T5C3.200
; #@! TA.AperFunction,NonPlated,NPTH,ComponentDrill
T6C3.988
%
G90
G05
T1
X470.01Y-139.997
X474.01Y-139.997
T2
X318.218Y-322.785
X318.218Y-332.785
X330.868Y-322.785
X330.868Y-332.785
T3
X320.243Y-327.785
X328.843Y-327.785
T4
X322.539Y-297.635
X323.515Y-290.865
X332.888Y-274.207
X336.587Y-268.455
X351.864Y-256.783
X352.839Y-171.007
X352.839Y-190.058
X352.839Y-209.107
X352.839Y-228.157
X357.676Y-253.179
X359.189Y-168.468
X359.189Y-187.517
X359.189Y-206.567
X359.189Y-225.617
X371.889Y-167.007
X371.889Y-186.058
X371.889Y-205.107
X371.889Y-224.157
X371.889Y-243.207
X378.239Y-164.468
X378.239Y-183.517
X378.239Y-202.567
X378.239Y-221.617
X378.239Y-240.667
X390.939Y-163.007
X390.939Y-182.058
X390.939Y-201.107
X390.939Y-220.157
X390.939Y-239.207
X397.289Y-160.468
X397.289Y-179.517
X397.289Y-198.567
X397.289Y-217.617
X397.289Y-236.667
X409.989Y-165.007
X409.989Y-184.058
X409.989Y-203.107
X409.989Y-222.157
X409.989Y-241.207
X416.339Y-162.468
X416.339Y-181.517
X416.339Y-200.567
X416.339Y-219.617
X416.339Y-238.667
X429.039Y-175.007
X429.039Y-194.058
X429.039Y-213.107
X429.039Y-232.157
X429.039Y-251.207
X435.389Y-172.468
X435.389Y-191.517
X435.389Y-210.567
X435.389Y-229.617
X435.389Y-248.667
X438.564Y-155.957
X444.914Y-153.417
X448.089Y-175.007
X448.089Y-194.058
X448.089Y-213.107
X448.089Y-232.157
X454.439Y-172.468
X454.439Y-191.517
X454.439Y-210.567
X454.439Y-229.617
X457.614Y-251.207
X463.964Y-248.667
X467.139Y-155.957
X467.139Y-175.007
X467.139Y-194.058
X467.139Y-222.632
X473.489Y-153.417
X473.489Y-172.468
X473.489Y-191.517
X473.489Y-220.093
T5
X304.8Y-309.88
X340.36Y-162.56
X340.36Y-243.84
X403.86Y-261.62
X429.26Y-144.78
X477.52Y-330.2
X482.6Y-213.36
T6
X326.644Y-295.605
X337.464Y-274.066
X356.057Y-258.623
X356.649Y-173.547
X356.649Y-192.597
X356.649Y-211.647
X356.649Y-230.697
X375.699Y-169.547
X375.699Y-188.597
X375.699Y-207.647
X375.699Y-226.697
X375.699Y-245.748
X394.749Y-165.547
X394.749Y-184.597
X394.749Y-203.647
X394.749Y-222.697
X394.749Y-241.748
X413.799Y-167.547
X413.799Y-186.597
X413.799Y-205.647
X413.799Y-224.697
X413.799Y-243.748
X432.849Y-177.547
X432.849Y-196.597
X432.849Y-215.647
X432.849Y-234.697
X432.849Y-253.748
X442.374Y-158.498
X451.899Y-177.547
X451.899Y-196.597
X451.899Y-215.647
X451.899Y-234.697
X461.424Y-253.748
X470.949Y-158.498
X470.949Y-177.547
X470.949Y-196.597
X470.949Y-225.172
T0
M30
