%TF.GenerationSoftware,KiCad,Pcbnew,(6.0.0)*%
%TF.CreationDate,2022-01-02T22:49:07-08:00*%
%TF.ProjectId,thumbler_right,7468756d-626c-4657-925f-72696768742e,rev?*%
%TF.SameCoordinates,Original*%
%TF.FileFunction,Soldermask,Bot*%
%TF.FilePolarity,Negative*%
%FSLAX46Y46*%
G04 Gerber Fmt 4.6, Leading zero omitted, Abs format (unit mm)*
G04 Created by KiCad (PCBNEW (6.0.0)) date 2022-01-02 22:49:07*
%MOMM*%
%LPD*%
G01*
G04 APERTURE LIST*
G04 Aperture macros list*
%AMRoundRect*
0 Rectangle with rounded corners*
0 $1 Rounding radius*
0 $2 $3 $4 $5 $6 $7 $8 $9 X,Y pos of 4 corners*
0 Add a 4 corners polygon primitive as box body*
4,1,4,$2,$3,$4,$5,$6,$7,$8,$9,$2,$3,0*
0 Add four circle primitives for the rounded corners*
1,1,$1+$1,$2,$3*
1,1,$1+$1,$4,$5*
1,1,$1+$1,$6,$7*
1,1,$1+$1,$8,$9*
0 Add four rect primitives between the rounded corners*
20,1,$1+$1,$2,$3,$4,$5,0*
20,1,$1+$1,$4,$5,$6,$7,0*
20,1,$1+$1,$6,$7,$8,$9,0*
20,1,$1+$1,$8,$9,$2,$3,0*%
%AMFreePoly0*
4,1,21,3.897855,0.901855,3.912500,0.866500,3.912500,-0.866500,3.897855,-0.901855,3.862500,-0.916500,0.737500,-0.916500,0.702145,-0.901855,0.687500,-0.866500,0.687500,-0.500000,-0.737500,-0.500000,-0.772855,-0.485355,-0.787500,-0.450000,-0.787500,0.450000,-0.772855,0.485355,-0.737500,0.500000,0.687500,0.500000,0.687500,0.866500,0.702145,0.901855,0.737500,0.916500,3.862500,0.916500,
3.897855,0.901855,3.897855,0.901855,$1*%
G04 Aperture macros list end*
%ADD10C,3.300000*%
%ADD11RoundRect,0.050000X0.800000X-0.800000X0.800000X0.800000X-0.800000X0.800000X-0.800000X-0.800000X0*%
%ADD12O,1.700000X1.700000*%
%ADD13C,4.087800*%
%ADD14C,3.100000*%
%ADD15RoundRect,0.050000X-1.275000X-1.250000X1.275000X-1.250000X1.275000X1.250000X-1.275000X1.250000X0*%
%ADD16RoundRect,0.050000X-0.800000X-0.800000X0.800000X-0.800000X0.800000X0.800000X-0.800000X0.800000X0*%
%ADD17RoundRect,0.050000X-0.800000X0.800000X-0.800000X-0.800000X0.800000X-0.800000X0.800000X0.800000X0*%
%ADD18C,2.286000*%
%ADD19C,2.601600*%
%ADD20RoundRect,0.050000X-1.038570X-1.452411X1.472690X-1.009608X1.038570X1.452411X-1.472690X1.009608X0*%
%ADD21RoundRect,0.050000X-0.313653X-1.757768X1.763633X-0.278787X0.313653X1.757768X-1.763633X0.278787X0*%
%ADD22RoundRect,0.050000X0.445032X-1.729182X1.720032X0.479182X-0.445032X1.729182X-1.720032X-0.479182X0*%
%ADD23C,2.575000*%
%ADD24C,2.500000*%
%ADD25C,2.050000*%
%ADD26C,1.750000*%
%ADD27O,1.800000X1.800000*%
%ADD28RoundRect,0.050000X-0.850000X-0.850000X0.850000X-0.850000X0.850000X0.850000X-0.850000X0.850000X0*%
%ADD29RoundRect,0.050000X0.850000X0.850000X-0.850000X0.850000X-0.850000X-0.850000X0.850000X-0.850000X0*%
%ADD30C,0.600000*%
%ADD31RoundRect,0.300000X-0.475000X0.337500X-0.475000X-0.337500X0.475000X-0.337500X0.475000X0.337500X0*%
%ADD32RoundRect,0.300000X0.337500X0.475000X-0.337500X0.475000X-0.337500X-0.475000X0.337500X-0.475000X0*%
%ADD33RoundRect,0.287500X-0.237500X0.300000X-0.237500X-0.300000X0.237500X-0.300000X0.237500X0.300000X0*%
%ADD34RoundRect,0.287500X0.237500X-0.300000X0.237500X0.300000X-0.237500X0.300000X-0.237500X-0.300000X0*%
%ADD35RoundRect,0.299999X0.450001X-0.325001X0.450001X0.325001X-0.450001X0.325001X-0.450001X-0.325001X0*%
%ADD36RoundRect,0.299999X-0.450001X0.350001X-0.450001X-0.350001X0.450001X-0.350001X0.450001X0.350001X0*%
%ADD37O,3.148000X1.950000*%
%ADD38RoundRect,0.050000X0.450000X-0.650000X0.450000X0.650000X-0.450000X0.650000X-0.450000X-0.650000X0*%
%ADD39FreePoly0,90.000000*%
%ADD40RoundRect,0.050000X0.600000X-0.450000X0.600000X0.450000X-0.600000X0.450000X-0.600000X-0.450000X0*%
%ADD41RoundRect,0.300000X0.400000X1.450000X-0.400000X1.450000X-0.400000X-1.450000X0.400000X-1.450000X0*%
%ADD42RoundRect,0.300001X-0.624999X0.462499X-0.624999X-0.462499X0.624999X-0.462499X0.624999X0.462499X0*%
G04 APERTURE END LIST*
D10*
%TO.C,H7*%
X340360000Y-162560000D03*
%TD*%
%TO.C,H6*%
X403860000Y-261620000D03*
%TD*%
%TO.C,H5*%
X482600000Y-213360000D03*
%TD*%
%TO.C,H4*%
X477520000Y-330200000D03*
%TD*%
%TO.C,H3*%
X304800000Y-309880000D03*
%TD*%
%TO.C,H2*%
X429260000Y-144780000D03*
%TD*%
%TO.C,H1*%
X340360000Y-243840000D03*
%TD*%
D11*
%TO.C,D36*%
X347721000Y-181638500D03*
D12*
X347721000Y-174018500D03*
%TD*%
D13*
%TO.C,S35*%
X356649000Y-173547500D03*
D14*
X352839000Y-171007500D03*
X359189000Y-168467500D03*
D15*
X349089000Y-171007500D03*
X362939000Y-168467500D03*
%TD*%
D16*
%TO.C,D76*%
X446278000Y-244856000D03*
D12*
X453898000Y-244856000D03*
%TD*%
D17*
%TO.C,D52*%
X366674400Y-259486400D03*
D12*
X366674400Y-267106400D03*
%TD*%
D17*
%TO.C,D53*%
X350520000Y-271780000D03*
D12*
X350520000Y-279400000D03*
%TD*%
D18*
%TO.C,J6*%
X348575451Y-139241554D03*
X338575451Y-139241554D03*
D19*
X348575451Y-151741554D03*
X338575451Y-151741554D03*
X351075451Y-149241554D03*
X343575451Y-149241554D03*
X336075451Y-149241554D03*
%TD*%
D13*
%TO.C,S44*%
X356057200Y-258622800D03*
D14*
X351864016Y-256782988D03*
X357676479Y-253178910D03*
D20*
X348170987Y-257434169D03*
X361369508Y-252527730D03*
%TD*%
D14*
%TO.C,S45*%
X336587179Y-268454540D03*
D13*
X337464400Y-274066000D03*
D14*
X332887510Y-274206631D03*
D21*
X329832678Y-276381602D03*
X339642011Y-266279569D03*
%TD*%
D14*
%TO.C,S46*%
X323514591Y-290865495D03*
D13*
X326644000Y-295605200D03*
D14*
X322539295Y-297634757D03*
D22*
X320664295Y-300882352D03*
X325389591Y-287617900D03*
%TD*%
D23*
%TO.C,S34*%
X320243200Y-327785000D03*
D24*
X318218200Y-332785000D03*
X318218200Y-322785000D03*
X330868200Y-322785000D03*
X330868200Y-332785000D03*
D23*
X328843200Y-327785000D03*
D25*
X327793200Y-322035000D03*
X327793200Y-317535000D03*
X321293200Y-322035000D03*
X321293200Y-317535000D03*
D26*
X322043200Y-336515000D03*
X324543200Y-336515000D03*
X327043200Y-336515000D03*
X315813200Y-325285000D03*
X315813200Y-327785000D03*
X315813200Y-330285000D03*
%TD*%
D27*
%TO.C,J7*%
X420619000Y-153157000D03*
X418079000Y-153157000D03*
X420619000Y-150617000D03*
D28*
X418079000Y-150617000D03*
%TD*%
D27*
%TO.C,J5*%
X410469000Y-150627000D03*
X413009000Y-150627000D03*
X410469000Y-153167000D03*
D29*
X413009000Y-153167000D03*
%TD*%
D17*
%TO.C,D54*%
X339090000Y-289560000D03*
D12*
X339090000Y-297180000D03*
%TD*%
D30*
%TO.C,J8*%
X470010247Y-139997426D03*
X474010247Y-139997426D03*
%TD*%
D14*
%TO.C,S71*%
X457614000Y-251207500D03*
X463964000Y-248667500D03*
D13*
X461424000Y-253747500D03*
D15*
X453864000Y-251207500D03*
X467714000Y-248667500D03*
%TD*%
D14*
%TO.C,S39*%
X371889000Y-167007500D03*
D13*
X375699000Y-169547500D03*
D14*
X378239000Y-164467500D03*
D15*
X368139000Y-167007500D03*
X381989000Y-164467500D03*
%TD*%
D13*
%TO.C,S47*%
X394749000Y-165547500D03*
D14*
X397289000Y-160467500D03*
X390939000Y-163007500D03*
D15*
X387189000Y-163007500D03*
X401039000Y-160467500D03*
%TD*%
D13*
%TO.C,S52*%
X413799000Y-167547500D03*
D14*
X409989000Y-165007500D03*
X416339000Y-162467500D03*
D15*
X406239000Y-165007500D03*
X420089000Y-162467500D03*
%TD*%
D14*
%TO.C,S57*%
X435389000Y-172467500D03*
D13*
X432849000Y-177547500D03*
D14*
X429039000Y-175007500D03*
D15*
X425289000Y-175007500D03*
X439139000Y-172467500D03*
%TD*%
D14*
%TO.C,S62*%
X438564000Y-155957500D03*
D13*
X442374000Y-158497500D03*
D14*
X444914000Y-153417500D03*
D15*
X434814000Y-155957500D03*
X448664000Y-153417500D03*
%TD*%
D14*
%TO.C,S67*%
X467139000Y-155957500D03*
D13*
X470949000Y-158497500D03*
D14*
X473489000Y-153417500D03*
D15*
X463389000Y-155957500D03*
X477239000Y-153417500D03*
%TD*%
D14*
%TO.C,S36*%
X352839000Y-190057500D03*
D13*
X356649000Y-192597500D03*
D14*
X359189000Y-187517500D03*
D15*
X349089000Y-190057500D03*
X362939000Y-187517500D03*
%TD*%
D14*
%TO.C,S40*%
X378239000Y-183517500D03*
X371889000Y-186057500D03*
D13*
X375699000Y-188597500D03*
D15*
X368139000Y-186057500D03*
X381989000Y-183517500D03*
%TD*%
D14*
%TO.C,S48*%
X397289000Y-179517500D03*
X390939000Y-182057500D03*
D13*
X394749000Y-184597500D03*
D15*
X387189000Y-182057500D03*
X401039000Y-179517500D03*
%TD*%
D14*
%TO.C,S53*%
X409989000Y-184057500D03*
D13*
X413799000Y-186597500D03*
D14*
X416339000Y-181517500D03*
D15*
X406239000Y-184057500D03*
X420089000Y-181517500D03*
%TD*%
D13*
%TO.C,S58*%
X432849000Y-196597500D03*
D14*
X429039000Y-194057500D03*
X435389000Y-191517500D03*
D15*
X425289000Y-194057500D03*
X439139000Y-191517500D03*
%TD*%
D13*
%TO.C,S63*%
X451899000Y-177547500D03*
D14*
X448089000Y-175007500D03*
X454439000Y-172467500D03*
D15*
X444339000Y-175007500D03*
X458189000Y-172467500D03*
%TD*%
D14*
%TO.C,S68*%
X467139000Y-175007500D03*
D13*
X470949000Y-177547500D03*
D14*
X473489000Y-172467500D03*
D15*
X463389000Y-175007500D03*
X477239000Y-172467500D03*
%TD*%
D13*
%TO.C,S37*%
X356649000Y-211647500D03*
D14*
X352839000Y-209107500D03*
X359189000Y-206567500D03*
D15*
X349089000Y-209107500D03*
X362939000Y-206567500D03*
%TD*%
D13*
%TO.C,S41*%
X375699000Y-207647500D03*
D14*
X378239000Y-202567500D03*
X371889000Y-205107500D03*
D15*
X368139000Y-205107500D03*
X381989000Y-202567500D03*
%TD*%
D13*
%TO.C,S49*%
X394749000Y-203647500D03*
D14*
X390939000Y-201107500D03*
X397289000Y-198567500D03*
D15*
X387189000Y-201107500D03*
X401039000Y-198567500D03*
%TD*%
D14*
%TO.C,S54*%
X409989000Y-203107500D03*
X416339000Y-200567500D03*
D13*
X413799000Y-205647500D03*
D15*
X406239000Y-203107500D03*
X420089000Y-200567500D03*
%TD*%
D14*
%TO.C,S59*%
X435389000Y-210567500D03*
D13*
X432849000Y-215647500D03*
D14*
X429039000Y-213107500D03*
D15*
X425289000Y-213107500D03*
X439139000Y-210567500D03*
%TD*%
D13*
%TO.C,S64*%
X451899000Y-196597500D03*
D14*
X448089000Y-194057500D03*
X454439000Y-191517500D03*
D15*
X444339000Y-194057500D03*
X458189000Y-191517500D03*
%TD*%
D14*
%TO.C,S69*%
X467139000Y-194057500D03*
X473489000Y-191517500D03*
D13*
X470949000Y-196597500D03*
D15*
X463389000Y-194057500D03*
X477239000Y-191517500D03*
%TD*%
D13*
%TO.C,S38*%
X356649000Y-230697500D03*
D14*
X352839000Y-228157500D03*
X359189000Y-225617500D03*
D15*
X349089000Y-228157500D03*
X362939000Y-225617500D03*
%TD*%
D14*
%TO.C,S42*%
X378239000Y-221617500D03*
D13*
X375699000Y-226697500D03*
D14*
X371889000Y-224157500D03*
D15*
X368139000Y-224157500D03*
X381989000Y-221617500D03*
%TD*%
D14*
%TO.C,S50*%
X390939000Y-220157500D03*
X397289000Y-217617500D03*
D13*
X394749000Y-222697500D03*
D15*
X387189000Y-220157500D03*
X401039000Y-217617500D03*
%TD*%
D14*
%TO.C,S55*%
X409989000Y-222157500D03*
D13*
X413799000Y-224697500D03*
D14*
X416339000Y-219617500D03*
D15*
X406239000Y-222157500D03*
X420089000Y-219617500D03*
%TD*%
D13*
%TO.C,S60*%
X432849000Y-234697500D03*
D14*
X429039000Y-232157500D03*
X435389000Y-229617500D03*
D15*
X425289000Y-232157500D03*
X439139000Y-229617500D03*
%TD*%
D14*
%TO.C,S65*%
X454439000Y-210567500D03*
X448089000Y-213107500D03*
D13*
X451899000Y-215647500D03*
D15*
X444339000Y-213107500D03*
X458189000Y-210567500D03*
%TD*%
D13*
%TO.C,S70*%
X470949000Y-225172500D03*
D14*
X467139000Y-222632500D03*
X473489000Y-220092500D03*
D15*
X463389000Y-222632500D03*
X477239000Y-220092500D03*
%TD*%
D14*
%TO.C,S43*%
X371889000Y-243207500D03*
X378239000Y-240667500D03*
D13*
X375699000Y-245747500D03*
D15*
X368139000Y-243207500D03*
X381989000Y-240667500D03*
%TD*%
D14*
%TO.C,S51*%
X397289000Y-236667500D03*
D13*
X394749000Y-241747500D03*
D14*
X390939000Y-239207500D03*
D15*
X387189000Y-239207500D03*
X401039000Y-236667500D03*
%TD*%
D14*
%TO.C,S56*%
X416339000Y-238667500D03*
D13*
X413799000Y-243747500D03*
D14*
X409989000Y-241207500D03*
D15*
X406239000Y-241207500D03*
X420089000Y-238667500D03*
%TD*%
D13*
%TO.C,S61*%
X432849000Y-253747500D03*
D14*
X429039000Y-251207500D03*
X435389000Y-248667500D03*
D15*
X425289000Y-251207500D03*
X439139000Y-248667500D03*
%TD*%
D13*
%TO.C,S66*%
X451899000Y-234697500D03*
D14*
X448089000Y-232157500D03*
X454439000Y-229617500D03*
D15*
X444339000Y-232157500D03*
X458189000Y-229617500D03*
%TD*%
D11*
%TO.C,D40*%
X366771000Y-177638500D03*
D12*
X366771000Y-170018500D03*
%TD*%
D11*
%TO.C,D46*%
X385821000Y-173638500D03*
D12*
X385821000Y-166018500D03*
%TD*%
D11*
%TO.C,D56*%
X404871000Y-175638500D03*
D12*
X404871000Y-168018500D03*
%TD*%
D11*
%TO.C,D61*%
X423921000Y-185638500D03*
D12*
X423921000Y-178018500D03*
%TD*%
D16*
%TO.C,D67*%
X428498000Y-168910000D03*
D12*
X436118000Y-168910000D03*
%TD*%
D11*
%TO.C,D72*%
X462021000Y-166588500D03*
D12*
X462021000Y-158968500D03*
%TD*%
D11*
%TO.C,D37*%
X347721000Y-200688500D03*
D12*
X347721000Y-193068500D03*
%TD*%
D11*
%TO.C,D41*%
X366771000Y-196688500D03*
D12*
X366771000Y-189068500D03*
%TD*%
D11*
%TO.C,D47*%
X385821000Y-192688500D03*
D12*
X385821000Y-185068500D03*
%TD*%
D11*
%TO.C,D57*%
X404871000Y-194688500D03*
D12*
X404871000Y-187068500D03*
%TD*%
D11*
%TO.C,D62*%
X423921000Y-204688500D03*
D12*
X423921000Y-197068500D03*
%TD*%
D11*
%TO.C,D68*%
X442971000Y-185638500D03*
D12*
X442971000Y-178018500D03*
%TD*%
D11*
%TO.C,D73*%
X462021000Y-185638500D03*
D12*
X462021000Y-178018500D03*
%TD*%
D11*
%TO.C,D38*%
X347721000Y-219738500D03*
D12*
X347721000Y-212118500D03*
%TD*%
D11*
%TO.C,D42*%
X366771000Y-215738500D03*
D12*
X366771000Y-208118500D03*
%TD*%
D11*
%TO.C,D48*%
X385821000Y-211738500D03*
D12*
X385821000Y-204118500D03*
%TD*%
D11*
%TO.C,D58*%
X404871000Y-213738500D03*
D12*
X404871000Y-206118500D03*
%TD*%
D11*
%TO.C,D63*%
X423921000Y-223738500D03*
D12*
X423921000Y-216118500D03*
%TD*%
D11*
%TO.C,D69*%
X442971000Y-204688500D03*
D12*
X442971000Y-197068500D03*
%TD*%
D11*
%TO.C,D74*%
X462021000Y-204688500D03*
D12*
X462021000Y-197068500D03*
%TD*%
D11*
%TO.C,D39*%
X347721000Y-238788500D03*
D12*
X347721000Y-231168500D03*
%TD*%
D11*
%TO.C,D43*%
X366771000Y-234788500D03*
D12*
X366771000Y-227168500D03*
%TD*%
D11*
%TO.C,D49*%
X385821000Y-230788500D03*
D12*
X385821000Y-223168500D03*
%TD*%
D11*
%TO.C,D59*%
X404871000Y-232788500D03*
D12*
X404871000Y-225168500D03*
%TD*%
D11*
%TO.C,D64*%
X423921000Y-242788500D03*
D12*
X423921000Y-235168500D03*
%TD*%
D11*
%TO.C,D70*%
X442971000Y-223738500D03*
D12*
X442971000Y-216118500D03*
%TD*%
D11*
%TO.C,D75*%
X462021000Y-233263500D03*
D12*
X462021000Y-225643500D03*
%TD*%
D11*
%TO.C,D44*%
X366771000Y-253838500D03*
D12*
X366771000Y-246218500D03*
%TD*%
D11*
%TO.C,D50*%
X385821000Y-249838500D03*
D12*
X385821000Y-242218500D03*
%TD*%
D11*
%TO.C,D60*%
X404871000Y-251838500D03*
D12*
X404871000Y-244218500D03*
%TD*%
D11*
%TO.C,D65*%
X423921000Y-261838500D03*
D12*
X423921000Y-254218500D03*
%TD*%
D11*
%TO.C,D71*%
X442971000Y-242788500D03*
D12*
X442971000Y-235168500D03*
%TD*%
D31*
%TO.C,C14*%
X462026000Y-149817000D03*
X462026000Y-151892000D03*
%TD*%
D32*
%TO.C,C15*%
X457454000Y-147066000D03*
X455379000Y-147066000D03*
%TD*%
D33*
%TO.C,C16*%
X393410500Y-150780500D03*
X393410500Y-152505500D03*
%TD*%
%TO.C,C17*%
X404840500Y-153140500D03*
X404840500Y-151415500D03*
%TD*%
%TO.C,C18*%
X394934500Y-150780500D03*
X394934500Y-152505500D03*
%TD*%
%TO.C,C19*%
X403316500Y-153140500D03*
X403316500Y-151415500D03*
%TD*%
D34*
%TO.C,C20*%
X403951500Y-142829200D03*
X403951500Y-141104200D03*
%TD*%
%TO.C,C21*%
X396712500Y-140821500D03*
X396712500Y-139096500D03*
%TD*%
%TO.C,C22*%
X398236500Y-140821500D03*
X398236500Y-139096500D03*
%TD*%
D35*
%TO.C,FB2*%
X455676000Y-143773000D03*
X455676000Y-141723000D03*
%TD*%
D36*
%TO.C,R27*%
X441706000Y-143256000D03*
X441706000Y-145256000D03*
%TD*%
%TO.C,R13*%
X363220000Y-163112000D03*
X363220000Y-165112000D03*
%TD*%
%TO.C,R15*%
X381944000Y-159290000D03*
X381944000Y-161290000D03*
%TD*%
%TO.C,R16*%
X361442000Y-245888000D03*
X361442000Y-247888000D03*
%TD*%
%TO.C,R19*%
X405130000Y-157750000D03*
X405130000Y-159750000D03*
%TD*%
%TO.C,R20*%
X423672000Y-157766000D03*
X423672000Y-159766000D03*
%TD*%
%TO.C,R23*%
X387096000Y-140240000D03*
X387096000Y-142240000D03*
%TD*%
%TO.C,R24*%
X442214000Y-167402000D03*
X442214000Y-169402000D03*
%TD*%
%TO.C,R25*%
X458216000Y-167148000D03*
X458216000Y-169148000D03*
%TD*%
%TO.C,R26*%
X481330000Y-152686000D03*
X481330000Y-154686000D03*
%TD*%
D37*
%TO.C,SW3*%
X369734000Y-149185000D03*
X357234000Y-149185000D03*
X357234000Y-144185000D03*
X369734000Y-144185000D03*
%TD*%
D16*
%TO.C,SW4*%
X373811750Y-151742000D03*
D12*
X373811750Y-149202000D03*
X373811750Y-146662000D03*
X373811750Y-144122000D03*
X373811750Y-141582000D03*
X381431750Y-141582000D03*
X381431750Y-144122000D03*
X381431750Y-146662000D03*
X381431750Y-149202000D03*
X381431750Y-151742000D03*
%TD*%
D38*
%TO.C,U3*%
X463780000Y-147065000D03*
D39*
X462280000Y-146977500D03*
D38*
X460780000Y-147065000D03*
%TD*%
D40*
%TO.C,D66*%
X450596000Y-144144000D03*
X450596000Y-140844000D03*
%TD*%
D41*
%TO.C,F2*%
X464505000Y-140462000D03*
X460055000Y-140462000D03*
%TD*%
D42*
%TO.C,D77*%
X445770000Y-143038500D03*
X445770000Y-146013500D03*
%TD*%
M02*
