%TF.GenerationSoftware,KiCad,Pcbnew,(6.0.0)*%
%TF.CreationDate,2022-01-02T22:49:07-08:00*%
%TF.ProjectId,thumbler_right,7468756d-626c-4657-925f-72696768742e,rev?*%
%TF.SameCoordinates,Original*%
%TF.FileFunction,Soldermask,Top*%
%TF.FilePolarity,Negative*%
%FSLAX46Y46*%
G04 Gerber Fmt 4.6, Leading zero omitted, Abs format (unit mm)*
G04 Created by KiCad (PCBNEW (6.0.0)) date 2022-01-02 22:49:07*
%MOMM*%
%LPD*%
G01*
G04 APERTURE LIST*
G04 Aperture macros list*
%AMRoundRect*
0 Rectangle with rounded corners*
0 $1 Rounding radius*
0 $2 $3 $4 $5 $6 $7 $8 $9 X,Y pos of 4 corners*
0 Add a 4 corners polygon primitive as box body*
4,1,4,$2,$3,$4,$5,$6,$7,$8,$9,$2,$3,0*
0 Add four circle primitives for the rounded corners*
1,1,$1+$1,$2,$3*
1,1,$1+$1,$4,$5*
1,1,$1+$1,$6,$7*
1,1,$1+$1,$8,$9*
0 Add four rect primitives between the rounded corners*
20,1,$1+$1,$2,$3,$4,$5,0*
20,1,$1+$1,$4,$5,$6,$7,0*
20,1,$1+$1,$6,$7,$8,$9,0*
20,1,$1+$1,$8,$9,$2,$3,0*%
G04 Aperture macros list end*
%ADD10C,3.300000*%
%ADD11C,2.100000*%
%ADD12RoundRect,0.050000X0.800000X-0.800000X0.800000X0.800000X-0.800000X0.800000X-0.800000X-0.800000X0*%
%ADD13O,1.700000X1.700000*%
%ADD14C,4.087800*%
%ADD15C,3.100000*%
%ADD16RoundRect,0.300000X0.337500X0.475000X-0.337500X0.475000X-0.337500X-0.475000X0.337500X-0.475000X0*%
%ADD17RoundRect,0.300000X-0.475000X0.337500X-0.475000X-0.337500X0.475000X-0.337500X0.475000X0.337500X0*%
%ADD18RoundRect,0.050000X-0.800000X-0.800000X0.800000X-0.800000X0.800000X0.800000X-0.800000X0.800000X0*%
%ADD19RoundRect,0.050000X-0.800000X0.800000X-0.800000X-0.800000X0.800000X-0.800000X0.800000X0.800000X0*%
%ADD20RoundRect,0.300000X-0.625000X0.462500X-0.625000X-0.462500X0.625000X-0.462500X0.625000X0.462500X0*%
%ADD21C,2.286000*%
%ADD22C,2.601600*%
%ADD23RoundRect,0.299999X0.450001X-0.350001X0.450001X0.350001X-0.450001X0.350001X-0.450001X-0.350001X0*%
%ADD24RoundRect,0.299999X-0.450001X0.350001X-0.450001X-0.350001X0.450001X-0.350001X0.450001X0.350001X0*%
%ADD25RoundRect,0.125000X-0.075000X0.662500X-0.075000X-0.662500X0.075000X-0.662500X0.075000X0.662500X0*%
%ADD26RoundRect,0.125000X-0.662500X0.075000X-0.662500X-0.075000X0.662500X-0.075000X0.662500X0.075000X0*%
%ADD27C,2.575000*%
%ADD28C,2.500000*%
%ADD29C,2.050000*%
%ADD30C,1.750000*%
%ADD31O,1.800000X1.800000*%
%ADD32RoundRect,0.050000X-0.850000X-0.850000X0.850000X-0.850000X0.850000X0.850000X-0.850000X0.850000X0*%
%ADD33RoundRect,0.050000X0.850000X0.850000X-0.850000X0.850000X-0.850000X-0.850000X0.850000X-0.850000X0*%
%ADD34C,0.600000*%
%ADD35RoundRect,0.050000X-0.200000X-0.800000X0.200000X-0.800000X0.200000X0.800000X-0.200000X0.800000X0*%
%ADD36RoundRect,0.050000X-0.700000X-0.600000X0.700000X-0.600000X0.700000X0.600000X-0.700000X0.600000X0*%
%ADD37RoundRect,0.050000X-0.700000X-0.750000X0.700000X-0.750000X0.700000X0.750000X-0.700000X0.750000X0*%
%ADD38O,3.148000X1.950000*%
G04 APERTURE END LIST*
D10*
%TO.C,H7*%
X340360000Y-162560000D03*
%TD*%
%TO.C,H6*%
X403860000Y-261620000D03*
%TD*%
%TO.C,H5*%
X482600000Y-213360000D03*
%TD*%
%TO.C,H4*%
X477520000Y-330200000D03*
%TD*%
%TO.C,H3*%
X304800000Y-309880000D03*
%TD*%
%TO.C,H2*%
X429260000Y-144780000D03*
%TD*%
%TO.C,H1*%
X340360000Y-243840000D03*
%TD*%
D11*
%TO.C,TP2*%
X479820000Y-140462000D03*
%TD*%
%TO.C,TP1*%
X483870000Y-140462000D03*
%TD*%
D12*
%TO.C,D36*%
X347721000Y-181638500D03*
D13*
X347721000Y-174018500D03*
%TD*%
D14*
%TO.C,S35*%
X356649000Y-173547500D03*
D15*
X352839000Y-171007500D03*
X359189000Y-168467500D03*
%TD*%
D16*
%TO.C,C11*%
X389403500Y-145796000D03*
X387328500Y-145796000D03*
%TD*%
%TO.C,C12*%
X389403500Y-148844000D03*
X387328500Y-148844000D03*
%TD*%
D17*
%TO.C,C13*%
X389636000Y-140186500D03*
X389636000Y-142261500D03*
%TD*%
D18*
%TO.C,D76*%
X446278000Y-244856000D03*
D13*
X453898000Y-244856000D03*
%TD*%
D19*
%TO.C,D52*%
X366674400Y-259486400D03*
D13*
X366674400Y-267106400D03*
%TD*%
D19*
%TO.C,D53*%
X350520000Y-271780000D03*
D13*
X350520000Y-279400000D03*
%TD*%
D20*
%TO.C,D55*%
X410464000Y-143546500D03*
X410464000Y-146521500D03*
%TD*%
D21*
%TO.C,J6*%
X348575451Y-139241554D03*
X338575451Y-139241554D03*
D22*
X348575451Y-151741554D03*
X338575451Y-151741554D03*
X351075451Y-149241554D03*
X343575451Y-149241554D03*
X336075451Y-149241554D03*
%TD*%
D23*
%TO.C,R21*%
X470916000Y-146882460D03*
X470916000Y-144882460D03*
%TD*%
D24*
%TO.C,R22*%
X473964000Y-144882460D03*
X473964000Y-146882460D03*
%TD*%
D23*
%TO.C,R14*%
X420624000Y-141208000D03*
X420624000Y-139208000D03*
%TD*%
%TO.C,R17*%
X415544000Y-141208000D03*
X415544000Y-139208000D03*
%TD*%
%TO.C,R18*%
X410464000Y-141208000D03*
X410464000Y-139208000D03*
%TD*%
D14*
%TO.C,S44*%
X356057200Y-258622800D03*
D15*
X351864016Y-256782988D03*
X357676479Y-253178910D03*
%TD*%
%TO.C,S45*%
X336587179Y-268454540D03*
D14*
X337464400Y-274066000D03*
D15*
X332887510Y-274206631D03*
%TD*%
%TO.C,S46*%
X323514591Y-290865495D03*
D14*
X326644000Y-295605200D03*
D15*
X322539295Y-297634757D03*
%TD*%
D11*
%TO.C,TP23*%
X359867200Y-163525200D03*
%TD*%
%TO.C,TP24*%
X378460000Y-160655000D03*
%TD*%
%TO.C,TP25*%
X399288000Y-156718000D03*
%TD*%
%TO.C,TP26*%
X419354000Y-157937200D03*
%TD*%
%TO.C,TP27*%
X435610000Y-148336000D03*
%TD*%
%TO.C,TP28*%
X450088000Y-148336000D03*
%TD*%
%TO.C,TP29*%
X481330000Y-149352000D03*
%TD*%
%TO.C,TP30*%
X361442000Y-242316000D03*
%TD*%
%TO.C,TP31*%
X481258000Y-166509000D03*
%TD*%
%TO.C,TP32*%
X481258000Y-185813000D03*
%TD*%
%TO.C,TP33*%
X481258000Y-204609000D03*
%TD*%
%TO.C,TP34*%
X481711000Y-233299000D03*
%TD*%
%TO.C,TP35*%
X481838000Y-244856000D03*
%TD*%
%TO.C,TP36*%
X309880000Y-335915000D03*
%TD*%
%TO.C,TP37*%
X309880000Y-327914000D03*
%TD*%
%TO.C,TP38*%
X306705000Y-317500000D03*
%TD*%
D25*
%TO.C,U4*%
X402165000Y-142649500D03*
X401665000Y-142649500D03*
X401165000Y-142649500D03*
X400665000Y-142649500D03*
X400165000Y-142649500D03*
X399665000Y-142649500D03*
X399165000Y-142649500D03*
X398665000Y-142649500D03*
X398165000Y-142649500D03*
X397665000Y-142649500D03*
X397165000Y-142649500D03*
X396665000Y-142649500D03*
D26*
X395252500Y-144062000D03*
X395252500Y-144562000D03*
X395252500Y-145062000D03*
X395252500Y-145562000D03*
X395252500Y-146062000D03*
X395252500Y-146562000D03*
X395252500Y-147062000D03*
X395252500Y-147562000D03*
X395252500Y-148062000D03*
X395252500Y-148562000D03*
X395252500Y-149062000D03*
X395252500Y-149562000D03*
D25*
X396665000Y-150974500D03*
X397165000Y-150974500D03*
X397665000Y-150974500D03*
X398165000Y-150974500D03*
X398665000Y-150974500D03*
X399165000Y-150974500D03*
X399665000Y-150974500D03*
X400165000Y-150974500D03*
X400665000Y-150974500D03*
X401165000Y-150974500D03*
X401665000Y-150974500D03*
X402165000Y-150974500D03*
D26*
X403577500Y-149562000D03*
X403577500Y-149062000D03*
X403577500Y-148562000D03*
X403577500Y-148062000D03*
X403577500Y-147562000D03*
X403577500Y-147062000D03*
X403577500Y-146562000D03*
X403577500Y-146062000D03*
X403577500Y-145562000D03*
X403577500Y-145062000D03*
X403577500Y-144562000D03*
X403577500Y-144062000D03*
%TD*%
D27*
%TO.C,S34*%
X320243200Y-327785000D03*
D28*
X318218200Y-332785000D03*
X318218200Y-322785000D03*
X330868200Y-322785000D03*
X330868200Y-332785000D03*
D27*
X328843200Y-327785000D03*
D29*
X327793200Y-322035000D03*
X327793200Y-317535000D03*
X321293200Y-322035000D03*
X321293200Y-317535000D03*
D30*
X322043200Y-336515000D03*
X324543200Y-336515000D03*
X327043200Y-336515000D03*
X315813200Y-325285000D03*
X315813200Y-327785000D03*
X315813200Y-330285000D03*
%TD*%
D31*
%TO.C,J7*%
X420619000Y-153157000D03*
X418079000Y-153157000D03*
X420619000Y-150617000D03*
D32*
X418079000Y-150617000D03*
%TD*%
D31*
%TO.C,J5*%
X410469000Y-150627000D03*
X413009000Y-150627000D03*
X410469000Y-153167000D03*
D33*
X413009000Y-153167000D03*
%TD*%
D19*
%TO.C,D54*%
X339090000Y-289560000D03*
D13*
X339090000Y-297180000D03*
%TD*%
D20*
%TO.C,D51*%
X415544000Y-143546500D03*
X415544000Y-146521500D03*
%TD*%
%TO.C,D45*%
X420624000Y-143546500D03*
X420624000Y-146521500D03*
%TD*%
D34*
%TO.C,J8*%
X470010247Y-139997426D03*
X474010247Y-139997426D03*
D35*
X473310247Y-140797426D03*
X472660247Y-140797426D03*
X472010247Y-140797426D03*
X471360247Y-140797426D03*
X470710247Y-140797426D03*
D36*
X468760247Y-140187426D03*
D37*
X476060247Y-137687426D03*
D36*
X475260247Y-140187426D03*
D37*
X467960247Y-137687426D03*
%TD*%
D11*
%TO.C,TP22*%
X436372000Y-140716000D03*
%TD*%
D15*
%TO.C,S71*%
X457614000Y-251207500D03*
X463964000Y-248667500D03*
D14*
X461424000Y-253747500D03*
%TD*%
D15*
%TO.C,S39*%
X371889000Y-167007500D03*
D14*
X375699000Y-169547500D03*
D15*
X378239000Y-164467500D03*
%TD*%
D14*
%TO.C,S47*%
X394749000Y-165547500D03*
D15*
X397289000Y-160467500D03*
X390939000Y-163007500D03*
%TD*%
D14*
%TO.C,S52*%
X413799000Y-167547500D03*
D15*
X409989000Y-165007500D03*
X416339000Y-162467500D03*
%TD*%
%TO.C,S57*%
X435389000Y-172467500D03*
D14*
X432849000Y-177547500D03*
D15*
X429039000Y-175007500D03*
%TD*%
%TO.C,S62*%
X438564000Y-155957500D03*
D14*
X442374000Y-158497500D03*
D15*
X444914000Y-153417500D03*
%TD*%
%TO.C,S67*%
X467139000Y-155957500D03*
D14*
X470949000Y-158497500D03*
D15*
X473489000Y-153417500D03*
%TD*%
%TO.C,S36*%
X352839000Y-190057500D03*
D14*
X356649000Y-192597500D03*
D15*
X359189000Y-187517500D03*
%TD*%
%TO.C,S40*%
X378239000Y-183517500D03*
X371889000Y-186057500D03*
D14*
X375699000Y-188597500D03*
%TD*%
D15*
%TO.C,S48*%
X397289000Y-179517500D03*
X390939000Y-182057500D03*
D14*
X394749000Y-184597500D03*
%TD*%
D15*
%TO.C,S53*%
X409989000Y-184057500D03*
D14*
X413799000Y-186597500D03*
D15*
X416339000Y-181517500D03*
%TD*%
D14*
%TO.C,S58*%
X432849000Y-196597500D03*
D15*
X429039000Y-194057500D03*
X435389000Y-191517500D03*
%TD*%
D14*
%TO.C,S63*%
X451899000Y-177547500D03*
D15*
X448089000Y-175007500D03*
X454439000Y-172467500D03*
%TD*%
%TO.C,S68*%
X467139000Y-175007500D03*
D14*
X470949000Y-177547500D03*
D15*
X473489000Y-172467500D03*
%TD*%
D14*
%TO.C,S37*%
X356649000Y-211647500D03*
D15*
X352839000Y-209107500D03*
X359189000Y-206567500D03*
%TD*%
D14*
%TO.C,S41*%
X375699000Y-207647500D03*
D15*
X378239000Y-202567500D03*
X371889000Y-205107500D03*
%TD*%
D14*
%TO.C,S49*%
X394749000Y-203647500D03*
D15*
X390939000Y-201107500D03*
X397289000Y-198567500D03*
%TD*%
%TO.C,S54*%
X409989000Y-203107500D03*
X416339000Y-200567500D03*
D14*
X413799000Y-205647500D03*
%TD*%
D15*
%TO.C,S59*%
X435389000Y-210567500D03*
D14*
X432849000Y-215647500D03*
D15*
X429039000Y-213107500D03*
%TD*%
D14*
%TO.C,S64*%
X451899000Y-196597500D03*
D15*
X448089000Y-194057500D03*
X454439000Y-191517500D03*
%TD*%
%TO.C,S69*%
X467139000Y-194057500D03*
X473489000Y-191517500D03*
D14*
X470949000Y-196597500D03*
%TD*%
%TO.C,S38*%
X356649000Y-230697500D03*
D15*
X352839000Y-228157500D03*
X359189000Y-225617500D03*
%TD*%
%TO.C,S42*%
X378239000Y-221617500D03*
D14*
X375699000Y-226697500D03*
D15*
X371889000Y-224157500D03*
%TD*%
%TO.C,S50*%
X390939000Y-220157500D03*
X397289000Y-217617500D03*
D14*
X394749000Y-222697500D03*
%TD*%
D15*
%TO.C,S55*%
X409989000Y-222157500D03*
D14*
X413799000Y-224697500D03*
D15*
X416339000Y-219617500D03*
%TD*%
D14*
%TO.C,S60*%
X432849000Y-234697500D03*
D15*
X429039000Y-232157500D03*
X435389000Y-229617500D03*
%TD*%
%TO.C,S65*%
X454439000Y-210567500D03*
X448089000Y-213107500D03*
D14*
X451899000Y-215647500D03*
%TD*%
%TO.C,S70*%
X470949000Y-225172500D03*
D15*
X467139000Y-222632500D03*
X473489000Y-220092500D03*
%TD*%
%TO.C,S43*%
X371889000Y-243207500D03*
X378239000Y-240667500D03*
D14*
X375699000Y-245747500D03*
%TD*%
D15*
%TO.C,S51*%
X397289000Y-236667500D03*
D14*
X394749000Y-241747500D03*
D15*
X390939000Y-239207500D03*
%TD*%
%TO.C,S56*%
X416339000Y-238667500D03*
D14*
X413799000Y-243747500D03*
D15*
X409989000Y-241207500D03*
%TD*%
D14*
%TO.C,S61*%
X432849000Y-253747500D03*
D15*
X429039000Y-251207500D03*
X435389000Y-248667500D03*
%TD*%
D14*
%TO.C,S66*%
X451899000Y-234697500D03*
D15*
X448089000Y-232157500D03*
X454439000Y-229617500D03*
%TD*%
D12*
%TO.C,D40*%
X366771000Y-177638500D03*
D13*
X366771000Y-170018500D03*
%TD*%
D12*
%TO.C,D46*%
X385821000Y-173638500D03*
D13*
X385821000Y-166018500D03*
%TD*%
D12*
%TO.C,D56*%
X404871000Y-175638500D03*
D13*
X404871000Y-168018500D03*
%TD*%
D12*
%TO.C,D61*%
X423921000Y-185638500D03*
D13*
X423921000Y-178018500D03*
%TD*%
D18*
%TO.C,D67*%
X428498000Y-168910000D03*
D13*
X436118000Y-168910000D03*
%TD*%
D12*
%TO.C,D72*%
X462021000Y-166588500D03*
D13*
X462021000Y-158968500D03*
%TD*%
D12*
%TO.C,D37*%
X347721000Y-200688500D03*
D13*
X347721000Y-193068500D03*
%TD*%
D12*
%TO.C,D41*%
X366771000Y-196688500D03*
D13*
X366771000Y-189068500D03*
%TD*%
D12*
%TO.C,D47*%
X385821000Y-192688500D03*
D13*
X385821000Y-185068500D03*
%TD*%
D12*
%TO.C,D57*%
X404871000Y-194688500D03*
D13*
X404871000Y-187068500D03*
%TD*%
D12*
%TO.C,D62*%
X423921000Y-204688500D03*
D13*
X423921000Y-197068500D03*
%TD*%
D12*
%TO.C,D68*%
X442971000Y-185638500D03*
D13*
X442971000Y-178018500D03*
%TD*%
D12*
%TO.C,D73*%
X462021000Y-185638500D03*
D13*
X462021000Y-178018500D03*
%TD*%
D12*
%TO.C,D38*%
X347721000Y-219738500D03*
D13*
X347721000Y-212118500D03*
%TD*%
D12*
%TO.C,D42*%
X366771000Y-215738500D03*
D13*
X366771000Y-208118500D03*
%TD*%
D12*
%TO.C,D48*%
X385821000Y-211738500D03*
D13*
X385821000Y-204118500D03*
%TD*%
D12*
%TO.C,D58*%
X404871000Y-213738500D03*
D13*
X404871000Y-206118500D03*
%TD*%
D12*
%TO.C,D63*%
X423921000Y-223738500D03*
D13*
X423921000Y-216118500D03*
%TD*%
D12*
%TO.C,D69*%
X442971000Y-204688500D03*
D13*
X442971000Y-197068500D03*
%TD*%
D12*
%TO.C,D74*%
X462021000Y-204688500D03*
D13*
X462021000Y-197068500D03*
%TD*%
D12*
%TO.C,D39*%
X347721000Y-238788500D03*
D13*
X347721000Y-231168500D03*
%TD*%
D12*
%TO.C,D43*%
X366771000Y-234788500D03*
D13*
X366771000Y-227168500D03*
%TD*%
D12*
%TO.C,D49*%
X385821000Y-230788500D03*
D13*
X385821000Y-223168500D03*
%TD*%
D12*
%TO.C,D59*%
X404871000Y-232788500D03*
D13*
X404871000Y-225168500D03*
%TD*%
D12*
%TO.C,D64*%
X423921000Y-242788500D03*
D13*
X423921000Y-235168500D03*
%TD*%
D12*
%TO.C,D70*%
X442971000Y-223738500D03*
D13*
X442971000Y-216118500D03*
%TD*%
D12*
%TO.C,D75*%
X462021000Y-233263500D03*
D13*
X462021000Y-225643500D03*
%TD*%
D12*
%TO.C,D44*%
X366771000Y-253838500D03*
D13*
X366771000Y-246218500D03*
%TD*%
D12*
%TO.C,D50*%
X385821000Y-249838500D03*
D13*
X385821000Y-242218500D03*
%TD*%
D12*
%TO.C,D60*%
X404871000Y-251838500D03*
D13*
X404871000Y-244218500D03*
%TD*%
D12*
%TO.C,D65*%
X423921000Y-261838500D03*
D13*
X423921000Y-254218500D03*
%TD*%
D12*
%TO.C,D71*%
X442971000Y-242788500D03*
D13*
X442971000Y-235168500D03*
%TD*%
D38*
%TO.C,SW3*%
X369734000Y-149185000D03*
X357234000Y-149185000D03*
X357234000Y-144185000D03*
X369734000Y-144185000D03*
%TD*%
D18*
%TO.C,SW4*%
X373811750Y-151742000D03*
D13*
X373811750Y-149202000D03*
X373811750Y-146662000D03*
X373811750Y-144122000D03*
X373811750Y-141582000D03*
X381431750Y-141582000D03*
X381431750Y-144122000D03*
X381431750Y-146662000D03*
X381431750Y-149202000D03*
X381431750Y-151742000D03*
%TD*%
M02*
