%TF.GenerationSoftware,KiCad,Pcbnew,(6.0.0)*%
%TF.CreationDate,2022-01-02T22:49:07-08:00*%
%TF.ProjectId,thumbler_right,7468756d-626c-4657-925f-72696768742e,rev?*%
%TF.SameCoordinates,Original*%
%TF.FileFunction,Legend,Bot*%
%TF.FilePolarity,Positive*%
%FSLAX46Y46*%
G04 Gerber Fmt 4.6, Leading zero omitted, Abs format (unit mm)*
G04 Created by KiCad (PCBNEW (6.0.0)) date 2022-01-02 22:49:07*
%MOMM*%
%LPD*%
G01*
G04 APERTURE LIST*
%ADD10C,0.150000*%
%ADD11C,0.153000*%
%ADD12C,0.120000*%
G04 APERTURE END LIST*
D10*
X445417380Y-138874666D02*
X444417380Y-138874666D01*
X444417380Y-139255619D01*
X444465000Y-139350857D01*
X444512619Y-139398476D01*
X444607857Y-139446095D01*
X444750714Y-139446095D01*
X444845952Y-139398476D01*
X444893571Y-139350857D01*
X444941190Y-139255619D01*
X444941190Y-138874666D01*
X444417380Y-139779428D02*
X445417380Y-140017523D01*
X444703095Y-140208000D01*
X445417380Y-140398476D01*
X444417380Y-140636571D01*
X445417380Y-141588952D02*
X444941190Y-141255619D01*
X445417380Y-141017523D02*
X444417380Y-141017523D01*
X444417380Y-141398476D01*
X444465000Y-141493714D01*
X444512619Y-141541333D01*
X444607857Y-141588952D01*
X444750714Y-141588952D01*
X444845952Y-141541333D01*
X444893571Y-141493714D01*
X444941190Y-141398476D01*
X444941190Y-141017523D01*
X446027380Y-139612761D02*
X446027380Y-139803238D01*
X446075000Y-139898476D01*
X446170238Y-139993714D01*
X446360714Y-140041333D01*
X446694047Y-140041333D01*
X446884523Y-139993714D01*
X446979761Y-139898476D01*
X447027380Y-139803238D01*
X447027380Y-139612761D01*
X446979761Y-139517523D01*
X446884523Y-139422285D01*
X446694047Y-139374666D01*
X446360714Y-139374666D01*
X446170238Y-139422285D01*
X446075000Y-139517523D01*
X446027380Y-139612761D01*
X447027380Y-140469904D02*
X446027380Y-140469904D01*
X447027380Y-141041333D02*
X446455952Y-140612761D01*
X446027380Y-141041333D02*
X446598809Y-140469904D01*
X364926380Y-140025380D02*
X365259714Y-139549190D01*
X365497809Y-140025380D02*
X365497809Y-139025380D01*
X365116857Y-139025380D01*
X365021619Y-139073000D01*
X364974000Y-139120619D01*
X364926380Y-139215857D01*
X364926380Y-139358714D01*
X364974000Y-139453952D01*
X365021619Y-139501571D01*
X365116857Y-139549190D01*
X365497809Y-139549190D01*
X364497809Y-139501571D02*
X364164476Y-139501571D01*
X364021619Y-140025380D02*
X364497809Y-140025380D01*
X364497809Y-139025380D01*
X364021619Y-139025380D01*
X363640666Y-139977761D02*
X363497809Y-140025380D01*
X363259714Y-140025380D01*
X363164476Y-139977761D01*
X363116857Y-139930142D01*
X363069238Y-139834904D01*
X363069238Y-139739666D01*
X363116857Y-139644428D01*
X363164476Y-139596809D01*
X363259714Y-139549190D01*
X363450190Y-139501571D01*
X363545428Y-139453952D01*
X363593047Y-139406333D01*
X363640666Y-139311095D01*
X363640666Y-139215857D01*
X363593047Y-139120619D01*
X363545428Y-139073000D01*
X363450190Y-139025380D01*
X363212095Y-139025380D01*
X363069238Y-139073000D01*
X362640666Y-139501571D02*
X362307333Y-139501571D01*
X362164476Y-140025380D02*
X362640666Y-140025380D01*
X362640666Y-139025380D01*
X362164476Y-139025380D01*
X361878761Y-139025380D02*
X361307333Y-139025380D01*
X361593047Y-140025380D02*
X361593047Y-139025380D01*
X386008380Y-143597380D02*
X385817904Y-143597380D01*
X385722666Y-143645000D01*
X385627428Y-143740238D01*
X385579809Y-143930714D01*
X385579809Y-144264047D01*
X385627428Y-144454523D01*
X385722666Y-144549761D01*
X385817904Y-144597380D01*
X386008380Y-144597380D01*
X386103619Y-144549761D01*
X386198857Y-144454523D01*
X386246476Y-144264047D01*
X386246476Y-143930714D01*
X386198857Y-143740238D01*
X386103619Y-143645000D01*
X386008380Y-143597380D01*
X385151238Y-144597380D02*
X385151238Y-143597380D01*
X384770285Y-143597380D01*
X384675047Y-143645000D01*
X384627428Y-143692619D01*
X384579809Y-143787857D01*
X384579809Y-143930714D01*
X384627428Y-144025952D01*
X384675047Y-144073571D01*
X384770285Y-144121190D01*
X385151238Y-144121190D01*
X384294095Y-143597380D02*
X383722666Y-143597380D01*
X384008380Y-144597380D02*
X384008380Y-143597380D01*
X382960761Y-143930714D02*
X382960761Y-144597380D01*
X383198857Y-143549761D02*
X383436952Y-144264047D01*
X382817904Y-144264047D01*
X386008380Y-146137380D02*
X385817904Y-146137380D01*
X385722666Y-146185000D01*
X385627428Y-146280238D01*
X385579809Y-146470714D01*
X385579809Y-146804047D01*
X385627428Y-146994523D01*
X385722666Y-147089761D01*
X385817904Y-147137380D01*
X386008380Y-147137380D01*
X386103619Y-147089761D01*
X386198857Y-146994523D01*
X386246476Y-146804047D01*
X386246476Y-146470714D01*
X386198857Y-146280238D01*
X386103619Y-146185000D01*
X386008380Y-146137380D01*
X385151238Y-147137380D02*
X385151238Y-146137380D01*
X384770285Y-146137380D01*
X384675047Y-146185000D01*
X384627428Y-146232619D01*
X384579809Y-146327857D01*
X384579809Y-146470714D01*
X384627428Y-146565952D01*
X384675047Y-146613571D01*
X384770285Y-146661190D01*
X385151238Y-146661190D01*
X384294095Y-146137380D02*
X383722666Y-146137380D01*
X384008380Y-147137380D02*
X384008380Y-146137380D01*
X383484571Y-146137380D02*
X382865523Y-146137380D01*
X383198857Y-146518333D01*
X383056000Y-146518333D01*
X382960761Y-146565952D01*
X382913142Y-146613571D01*
X382865523Y-146708809D01*
X382865523Y-146946904D01*
X382913142Y-147042142D01*
X382960761Y-147089761D01*
X383056000Y-147137380D01*
X383341714Y-147137380D01*
X383436952Y-147089761D01*
X383484571Y-147042142D01*
X386008380Y-148804380D02*
X385817904Y-148804380D01*
X385722666Y-148852000D01*
X385627428Y-148947238D01*
X385579809Y-149137714D01*
X385579809Y-149471047D01*
X385627428Y-149661523D01*
X385722666Y-149756761D01*
X385817904Y-149804380D01*
X386008380Y-149804380D01*
X386103619Y-149756761D01*
X386198857Y-149661523D01*
X386246476Y-149471047D01*
X386246476Y-149137714D01*
X386198857Y-148947238D01*
X386103619Y-148852000D01*
X386008380Y-148804380D01*
X385151238Y-149804380D02*
X385151238Y-148804380D01*
X384770285Y-148804380D01*
X384675047Y-148852000D01*
X384627428Y-148899619D01*
X384579809Y-148994857D01*
X384579809Y-149137714D01*
X384627428Y-149232952D01*
X384675047Y-149280571D01*
X384770285Y-149328190D01*
X385151238Y-149328190D01*
X384294095Y-148804380D02*
X383722666Y-148804380D01*
X384008380Y-149804380D02*
X384008380Y-148804380D01*
X383436952Y-148899619D02*
X383389333Y-148852000D01*
X383294095Y-148804380D01*
X383056000Y-148804380D01*
X382960761Y-148852000D01*
X382913142Y-148899619D01*
X382865523Y-148994857D01*
X382865523Y-149090095D01*
X382913142Y-149232952D01*
X383484571Y-149804380D01*
X382865523Y-149804380D01*
X386008380Y-151217380D02*
X385817904Y-151217380D01*
X385722666Y-151265000D01*
X385627428Y-151360238D01*
X385579809Y-151550714D01*
X385579809Y-151884047D01*
X385627428Y-152074523D01*
X385722666Y-152169761D01*
X385817904Y-152217380D01*
X386008380Y-152217380D01*
X386103619Y-152169761D01*
X386198857Y-152074523D01*
X386246476Y-151884047D01*
X386246476Y-151550714D01*
X386198857Y-151360238D01*
X386103619Y-151265000D01*
X386008380Y-151217380D01*
X385151238Y-152217380D02*
X385151238Y-151217380D01*
X384770285Y-151217380D01*
X384675047Y-151265000D01*
X384627428Y-151312619D01*
X384579809Y-151407857D01*
X384579809Y-151550714D01*
X384627428Y-151645952D01*
X384675047Y-151693571D01*
X384770285Y-151741190D01*
X385151238Y-151741190D01*
X384294095Y-151217380D02*
X383722666Y-151217380D01*
X384008380Y-152217380D02*
X384008380Y-151217380D01*
X382865523Y-152217380D02*
X383436952Y-152217380D01*
X383151238Y-152217380D02*
X383151238Y-151217380D01*
X383246476Y-151360238D01*
X383341714Y-151455476D01*
X383436952Y-151503095D01*
X385389285Y-142057380D02*
X385389285Y-141057380D01*
X385151190Y-141057380D01*
X385008333Y-141105000D01*
X384913095Y-141200238D01*
X384865476Y-141295476D01*
X384817857Y-141485952D01*
X384817857Y-141628809D01*
X384865476Y-141819285D01*
X384913095Y-141914523D01*
X385008333Y-142009761D01*
X385151190Y-142057380D01*
X385389285Y-142057380D01*
X384055952Y-141533571D02*
X384389285Y-141533571D01*
X384389285Y-142057380D02*
X384389285Y-141057380D01*
X383913095Y-141057380D01*
X383532142Y-141057380D02*
X383532142Y-141866904D01*
X383484523Y-141962142D01*
X383436904Y-142009761D01*
X383341666Y-142057380D01*
X383151190Y-142057380D01*
X383055952Y-142009761D01*
X383008333Y-141962142D01*
X382960714Y-141866904D01*
X382960714Y-141057380D01*
X384523904Y-138755380D02*
X384523904Y-137755380D01*
X384285809Y-137755380D01*
X384142952Y-137803000D01*
X384047714Y-137898238D01*
X384000095Y-137993476D01*
X383952476Y-138183952D01*
X383952476Y-138326809D01*
X384000095Y-138517285D01*
X384047714Y-138612523D01*
X384142952Y-138707761D01*
X384285809Y-138755380D01*
X384523904Y-138755380D01*
X383523904Y-138755380D02*
X383523904Y-137755380D01*
X383095333Y-138707761D02*
X382952476Y-138755380D01*
X382714380Y-138755380D01*
X382619142Y-138707761D01*
X382571523Y-138660142D01*
X382523904Y-138564904D01*
X382523904Y-138469666D01*
X382571523Y-138374428D01*
X382619142Y-138326809D01*
X382714380Y-138279190D01*
X382904857Y-138231571D01*
X383000095Y-138183952D01*
X383047714Y-138136333D01*
X383095333Y-138041095D01*
X383095333Y-137945857D01*
X383047714Y-137850619D01*
X383000095Y-137803000D01*
X382904857Y-137755380D01*
X382666761Y-137755380D01*
X382523904Y-137803000D01*
X382142952Y-138469666D02*
X381666761Y-138469666D01*
X382238190Y-138755380D02*
X381904857Y-137755380D01*
X381571523Y-138755380D01*
X380904857Y-138231571D02*
X380762000Y-138279190D01*
X380714380Y-138326809D01*
X380666761Y-138422047D01*
X380666761Y-138564904D01*
X380714380Y-138660142D01*
X380762000Y-138707761D01*
X380857238Y-138755380D01*
X381238190Y-138755380D01*
X381238190Y-137755380D01*
X380904857Y-137755380D01*
X380809619Y-137803000D01*
X380762000Y-137850619D01*
X380714380Y-137945857D01*
X380714380Y-138041095D01*
X380762000Y-138136333D01*
X380809619Y-138183952D01*
X380904857Y-138231571D01*
X381238190Y-138231571D01*
X379762000Y-138755380D02*
X380238190Y-138755380D01*
X380238190Y-137755380D01*
X379428666Y-138231571D02*
X379095333Y-138231571D01*
X378952476Y-138755380D02*
X379428666Y-138755380D01*
X379428666Y-137755380D01*
X378952476Y-137755380D01*
X376665809Y-138231571D02*
X376332476Y-138231571D01*
X376189619Y-138755380D02*
X376665809Y-138755380D01*
X376665809Y-137755380D01*
X376189619Y-137755380D01*
X375761047Y-138755380D02*
X375761047Y-137755380D01*
X375189619Y-138755380D01*
X375189619Y-137755380D01*
X374761047Y-138469666D02*
X374284857Y-138469666D01*
X374856285Y-138755380D02*
X374522952Y-137755380D01*
X374189619Y-138755380D01*
X373522952Y-138231571D02*
X373380095Y-138279190D01*
X373332476Y-138326809D01*
X373284857Y-138422047D01*
X373284857Y-138564904D01*
X373332476Y-138660142D01*
X373380095Y-138707761D01*
X373475333Y-138755380D01*
X373856285Y-138755380D01*
X373856285Y-137755380D01*
X373522952Y-137755380D01*
X373427714Y-137803000D01*
X373380095Y-137850619D01*
X373332476Y-137945857D01*
X373332476Y-138041095D01*
X373380095Y-138136333D01*
X373427714Y-138183952D01*
X373522952Y-138231571D01*
X373856285Y-138231571D01*
X372380095Y-138755380D02*
X372856285Y-138755380D01*
X372856285Y-137755380D01*
X372046761Y-138231571D02*
X371713428Y-138231571D01*
X371570571Y-138755380D02*
X372046761Y-138755380D01*
X372046761Y-137755380D01*
X371570571Y-137755380D01*
%TO.C,S35*%
X357887095Y-165697261D02*
X357744238Y-165744880D01*
X357506142Y-165744880D01*
X357410904Y-165697261D01*
X357363285Y-165649642D01*
X357315666Y-165554404D01*
X357315666Y-165459166D01*
X357363285Y-165363928D01*
X357410904Y-165316309D01*
X357506142Y-165268690D01*
X357696619Y-165221071D01*
X357791857Y-165173452D01*
X357839476Y-165125833D01*
X357887095Y-165030595D01*
X357887095Y-164935357D01*
X357839476Y-164840119D01*
X357791857Y-164792500D01*
X357696619Y-164744880D01*
X357458523Y-164744880D01*
X357315666Y-164792500D01*
X356982333Y-164744880D02*
X356363285Y-164744880D01*
X356696619Y-165125833D01*
X356553761Y-165125833D01*
X356458523Y-165173452D01*
X356410904Y-165221071D01*
X356363285Y-165316309D01*
X356363285Y-165554404D01*
X356410904Y-165649642D01*
X356458523Y-165697261D01*
X356553761Y-165744880D01*
X356839476Y-165744880D01*
X356934714Y-165697261D01*
X356982333Y-165649642D01*
X355458523Y-164744880D02*
X355934714Y-164744880D01*
X355982333Y-165221071D01*
X355934714Y-165173452D01*
X355839476Y-165125833D01*
X355601380Y-165125833D01*
X355506142Y-165173452D01*
X355458523Y-165221071D01*
X355410904Y-165316309D01*
X355410904Y-165554404D01*
X355458523Y-165649642D01*
X355506142Y-165697261D01*
X355601380Y-165744880D01*
X355839476Y-165744880D01*
X355934714Y-165697261D01*
X355982333Y-165649642D01*
%TO.C,S44*%
X355913305Y-250676831D02*
X355780888Y-250748534D01*
X355546410Y-250789878D01*
X355444349Y-250759521D01*
X355389185Y-250720894D01*
X355325751Y-250635372D01*
X355309213Y-250541581D01*
X355339571Y-250439520D01*
X355378198Y-250384356D01*
X355463720Y-250320922D01*
X355643033Y-250240951D01*
X355728556Y-250177517D01*
X355767182Y-250122353D01*
X355797540Y-250020293D01*
X355781002Y-249926501D01*
X355717569Y-249840979D01*
X355662404Y-249802353D01*
X355560344Y-249771995D01*
X355325866Y-249813340D01*
X355193448Y-249885042D01*
X354398941Y-250315257D02*
X354514706Y-250971796D01*
X354567267Y-249898747D02*
X354925780Y-250560837D01*
X354316137Y-250668333D01*
X353461029Y-250480636D02*
X353576794Y-251137175D01*
X353629355Y-250064127D02*
X353987867Y-250726216D01*
X353378225Y-250833712D01*
%TO.C,S45*%
X333919902Y-266952938D02*
X333831146Y-267074585D01*
X333637188Y-267212679D01*
X333531987Y-267229125D01*
X333465576Y-267217952D01*
X333371548Y-267167987D01*
X333316310Y-267090404D01*
X333299864Y-266985203D01*
X333311037Y-266918792D01*
X333361002Y-266824763D01*
X333488549Y-266675497D01*
X333538513Y-266581468D01*
X333549686Y-266515058D01*
X333533240Y-266409856D01*
X333478003Y-266332273D01*
X333383974Y-266282309D01*
X333317564Y-266271136D01*
X333212362Y-266287582D01*
X333018405Y-266425675D01*
X332929649Y-266547323D01*
X332397113Y-267277208D02*
X332783775Y-267820290D01*
X332370122Y-266828783D02*
X332978359Y-267272562D01*
X332474070Y-267631605D01*
X331389161Y-267585660D02*
X331777076Y-267309473D01*
X332092054Y-267669770D01*
X332025644Y-267658597D01*
X331920442Y-267675043D01*
X331726485Y-267813136D01*
X331676520Y-267907165D01*
X331665347Y-267973575D01*
X331681793Y-268078777D01*
X331819887Y-268272735D01*
X331913916Y-268322699D01*
X331980326Y-268333872D01*
X332085527Y-268317426D01*
X332279485Y-268179333D01*
X332329449Y-268085304D01*
X332340622Y-268018893D01*
%TO.C,S46*%
X320464541Y-290607859D02*
X320434352Y-290755386D01*
X320315304Y-290961582D01*
X320226446Y-291020252D01*
X320161397Y-291037681D01*
X320055109Y-291031302D01*
X319972630Y-290983683D01*
X319913961Y-290894824D01*
X319896532Y-290829775D01*
X319902911Y-290723487D01*
X319956910Y-290534721D01*
X319963290Y-290428432D01*
X319945860Y-290363384D01*
X319887191Y-290274525D01*
X319804712Y-290226906D01*
X319698424Y-290220526D01*
X319633375Y-290237956D01*
X319544517Y-290296625D01*
X319425469Y-290502822D01*
X319395280Y-290650349D01*
X319214145Y-291535514D02*
X319791495Y-291868847D01*
X319003278Y-291138841D02*
X319740915Y-291289787D01*
X319431391Y-291825898D01*
X318449279Y-292193633D02*
X318544517Y-292028676D01*
X318633375Y-291970007D01*
X318698424Y-291952577D01*
X318869761Y-291941527D01*
X319058528Y-291995526D01*
X319388442Y-292186002D01*
X319447111Y-292274861D01*
X319464541Y-292339909D01*
X319458161Y-292446197D01*
X319362923Y-292611155D01*
X319274065Y-292669824D01*
X319209016Y-292687254D01*
X319102728Y-292680874D01*
X318896532Y-292561826D01*
X318837862Y-292472968D01*
X318820433Y-292407919D01*
X318826812Y-292301631D01*
X318922051Y-292136674D01*
X319010909Y-292078005D01*
X319075958Y-292060575D01*
X319182246Y-292066955D01*
%TO.C,S71*%
X462662095Y-245897261D02*
X462519238Y-245944880D01*
X462281142Y-245944880D01*
X462185904Y-245897261D01*
X462138285Y-245849642D01*
X462090666Y-245754404D01*
X462090666Y-245659166D01*
X462138285Y-245563928D01*
X462185904Y-245516309D01*
X462281142Y-245468690D01*
X462471619Y-245421071D01*
X462566857Y-245373452D01*
X462614476Y-245325833D01*
X462662095Y-245230595D01*
X462662095Y-245135357D01*
X462614476Y-245040119D01*
X462566857Y-244992500D01*
X462471619Y-244944880D01*
X462233523Y-244944880D01*
X462090666Y-244992500D01*
X461757333Y-244944880D02*
X461090666Y-244944880D01*
X461519238Y-245944880D01*
X460185904Y-245944880D02*
X460757333Y-245944880D01*
X460471619Y-245944880D02*
X460471619Y-244944880D01*
X460566857Y-245087738D01*
X460662095Y-245182976D01*
X460757333Y-245230595D01*
%TO.C,S39*%
X376937095Y-161697261D02*
X376794238Y-161744880D01*
X376556142Y-161744880D01*
X376460904Y-161697261D01*
X376413285Y-161649642D01*
X376365666Y-161554404D01*
X376365666Y-161459166D01*
X376413285Y-161363928D01*
X376460904Y-161316309D01*
X376556142Y-161268690D01*
X376746619Y-161221071D01*
X376841857Y-161173452D01*
X376889476Y-161125833D01*
X376937095Y-161030595D01*
X376937095Y-160935357D01*
X376889476Y-160840119D01*
X376841857Y-160792500D01*
X376746619Y-160744880D01*
X376508523Y-160744880D01*
X376365666Y-160792500D01*
X376032333Y-160744880D02*
X375413285Y-160744880D01*
X375746619Y-161125833D01*
X375603761Y-161125833D01*
X375508523Y-161173452D01*
X375460904Y-161221071D01*
X375413285Y-161316309D01*
X375413285Y-161554404D01*
X375460904Y-161649642D01*
X375508523Y-161697261D01*
X375603761Y-161744880D01*
X375889476Y-161744880D01*
X375984714Y-161697261D01*
X376032333Y-161649642D01*
X374937095Y-161744880D02*
X374746619Y-161744880D01*
X374651380Y-161697261D01*
X374603761Y-161649642D01*
X374508523Y-161506785D01*
X374460904Y-161316309D01*
X374460904Y-160935357D01*
X374508523Y-160840119D01*
X374556142Y-160792500D01*
X374651380Y-160744880D01*
X374841857Y-160744880D01*
X374937095Y-160792500D01*
X374984714Y-160840119D01*
X375032333Y-160935357D01*
X375032333Y-161173452D01*
X374984714Y-161268690D01*
X374937095Y-161316309D01*
X374841857Y-161363928D01*
X374651380Y-161363928D01*
X374556142Y-161316309D01*
X374508523Y-161268690D01*
X374460904Y-161173452D01*
%TO.C,S47*%
X395768345Y-157884761D02*
X395625488Y-157932380D01*
X395387392Y-157932380D01*
X395292154Y-157884761D01*
X395244535Y-157837142D01*
X395196916Y-157741904D01*
X395196916Y-157646666D01*
X395244535Y-157551428D01*
X395292154Y-157503809D01*
X395387392Y-157456190D01*
X395577869Y-157408571D01*
X395673107Y-157360952D01*
X395720726Y-157313333D01*
X395768345Y-157218095D01*
X395768345Y-157122857D01*
X395720726Y-157027619D01*
X395673107Y-156980000D01*
X395577869Y-156932380D01*
X395339773Y-156932380D01*
X395196916Y-156980000D01*
X394339773Y-157265714D02*
X394339773Y-157932380D01*
X394577869Y-156884761D02*
X394815964Y-157599047D01*
X394196916Y-157599047D01*
X393911202Y-156932380D02*
X393244535Y-156932380D01*
X393673107Y-157932380D01*
%TO.C,S52*%
X415037095Y-159697261D02*
X414894238Y-159744880D01*
X414656142Y-159744880D01*
X414560904Y-159697261D01*
X414513285Y-159649642D01*
X414465666Y-159554404D01*
X414465666Y-159459166D01*
X414513285Y-159363928D01*
X414560904Y-159316309D01*
X414656142Y-159268690D01*
X414846619Y-159221071D01*
X414941857Y-159173452D01*
X414989476Y-159125833D01*
X415037095Y-159030595D01*
X415037095Y-158935357D01*
X414989476Y-158840119D01*
X414941857Y-158792500D01*
X414846619Y-158744880D01*
X414608523Y-158744880D01*
X414465666Y-158792500D01*
X413560904Y-158744880D02*
X414037095Y-158744880D01*
X414084714Y-159221071D01*
X414037095Y-159173452D01*
X413941857Y-159125833D01*
X413703761Y-159125833D01*
X413608523Y-159173452D01*
X413560904Y-159221071D01*
X413513285Y-159316309D01*
X413513285Y-159554404D01*
X413560904Y-159649642D01*
X413608523Y-159697261D01*
X413703761Y-159744880D01*
X413941857Y-159744880D01*
X414037095Y-159697261D01*
X414084714Y-159649642D01*
X413132333Y-158840119D02*
X413084714Y-158792500D01*
X412989476Y-158744880D01*
X412751380Y-158744880D01*
X412656142Y-158792500D01*
X412608523Y-158840119D01*
X412560904Y-158935357D01*
X412560904Y-159030595D01*
X412608523Y-159173452D01*
X413179952Y-159744880D01*
X412560904Y-159744880D01*
%TO.C,S57*%
X434087095Y-169697261D02*
X433944238Y-169744880D01*
X433706142Y-169744880D01*
X433610904Y-169697261D01*
X433563285Y-169649642D01*
X433515666Y-169554404D01*
X433515666Y-169459166D01*
X433563285Y-169363928D01*
X433610904Y-169316309D01*
X433706142Y-169268690D01*
X433896619Y-169221071D01*
X433991857Y-169173452D01*
X434039476Y-169125833D01*
X434087095Y-169030595D01*
X434087095Y-168935357D01*
X434039476Y-168840119D01*
X433991857Y-168792500D01*
X433896619Y-168744880D01*
X433658523Y-168744880D01*
X433515666Y-168792500D01*
X432610904Y-168744880D02*
X433087095Y-168744880D01*
X433134714Y-169221071D01*
X433087095Y-169173452D01*
X432991857Y-169125833D01*
X432753761Y-169125833D01*
X432658523Y-169173452D01*
X432610904Y-169221071D01*
X432563285Y-169316309D01*
X432563285Y-169554404D01*
X432610904Y-169649642D01*
X432658523Y-169697261D01*
X432753761Y-169744880D01*
X432991857Y-169744880D01*
X433087095Y-169697261D01*
X433134714Y-169649642D01*
X432229952Y-168744880D02*
X431563285Y-168744880D01*
X431991857Y-169744880D01*
%TO.C,S62*%
X443612095Y-150647261D02*
X443469238Y-150694880D01*
X443231142Y-150694880D01*
X443135904Y-150647261D01*
X443088285Y-150599642D01*
X443040666Y-150504404D01*
X443040666Y-150409166D01*
X443088285Y-150313928D01*
X443135904Y-150266309D01*
X443231142Y-150218690D01*
X443421619Y-150171071D01*
X443516857Y-150123452D01*
X443564476Y-150075833D01*
X443612095Y-149980595D01*
X443612095Y-149885357D01*
X443564476Y-149790119D01*
X443516857Y-149742500D01*
X443421619Y-149694880D01*
X443183523Y-149694880D01*
X443040666Y-149742500D01*
X442183523Y-149694880D02*
X442374000Y-149694880D01*
X442469238Y-149742500D01*
X442516857Y-149790119D01*
X442612095Y-149932976D01*
X442659714Y-150123452D01*
X442659714Y-150504404D01*
X442612095Y-150599642D01*
X442564476Y-150647261D01*
X442469238Y-150694880D01*
X442278761Y-150694880D01*
X442183523Y-150647261D01*
X442135904Y-150599642D01*
X442088285Y-150504404D01*
X442088285Y-150266309D01*
X442135904Y-150171071D01*
X442183523Y-150123452D01*
X442278761Y-150075833D01*
X442469238Y-150075833D01*
X442564476Y-150123452D01*
X442612095Y-150171071D01*
X442659714Y-150266309D01*
X441707333Y-149790119D02*
X441659714Y-149742500D01*
X441564476Y-149694880D01*
X441326380Y-149694880D01*
X441231142Y-149742500D01*
X441183523Y-149790119D01*
X441135904Y-149885357D01*
X441135904Y-149980595D01*
X441183523Y-150123452D01*
X441754952Y-150694880D01*
X441135904Y-150694880D01*
%TO.C,S67*%
X472187095Y-150647261D02*
X472044238Y-150694880D01*
X471806142Y-150694880D01*
X471710904Y-150647261D01*
X471663285Y-150599642D01*
X471615666Y-150504404D01*
X471615666Y-150409166D01*
X471663285Y-150313928D01*
X471710904Y-150266309D01*
X471806142Y-150218690D01*
X471996619Y-150171071D01*
X472091857Y-150123452D01*
X472139476Y-150075833D01*
X472187095Y-149980595D01*
X472187095Y-149885357D01*
X472139476Y-149790119D01*
X472091857Y-149742500D01*
X471996619Y-149694880D01*
X471758523Y-149694880D01*
X471615666Y-149742500D01*
X470758523Y-149694880D02*
X470949000Y-149694880D01*
X471044238Y-149742500D01*
X471091857Y-149790119D01*
X471187095Y-149932976D01*
X471234714Y-150123452D01*
X471234714Y-150504404D01*
X471187095Y-150599642D01*
X471139476Y-150647261D01*
X471044238Y-150694880D01*
X470853761Y-150694880D01*
X470758523Y-150647261D01*
X470710904Y-150599642D01*
X470663285Y-150504404D01*
X470663285Y-150266309D01*
X470710904Y-150171071D01*
X470758523Y-150123452D01*
X470853761Y-150075833D01*
X471044238Y-150075833D01*
X471139476Y-150123452D01*
X471187095Y-150171071D01*
X471234714Y-150266309D01*
X470329952Y-149694880D02*
X469663285Y-149694880D01*
X470091857Y-150694880D01*
%TO.C,S36*%
X357887095Y-184747261D02*
X357744238Y-184794880D01*
X357506142Y-184794880D01*
X357410904Y-184747261D01*
X357363285Y-184699642D01*
X357315666Y-184604404D01*
X357315666Y-184509166D01*
X357363285Y-184413928D01*
X357410904Y-184366309D01*
X357506142Y-184318690D01*
X357696619Y-184271071D01*
X357791857Y-184223452D01*
X357839476Y-184175833D01*
X357887095Y-184080595D01*
X357887095Y-183985357D01*
X357839476Y-183890119D01*
X357791857Y-183842500D01*
X357696619Y-183794880D01*
X357458523Y-183794880D01*
X357315666Y-183842500D01*
X356982333Y-183794880D02*
X356363285Y-183794880D01*
X356696619Y-184175833D01*
X356553761Y-184175833D01*
X356458523Y-184223452D01*
X356410904Y-184271071D01*
X356363285Y-184366309D01*
X356363285Y-184604404D01*
X356410904Y-184699642D01*
X356458523Y-184747261D01*
X356553761Y-184794880D01*
X356839476Y-184794880D01*
X356934714Y-184747261D01*
X356982333Y-184699642D01*
X355506142Y-183794880D02*
X355696619Y-183794880D01*
X355791857Y-183842500D01*
X355839476Y-183890119D01*
X355934714Y-184032976D01*
X355982333Y-184223452D01*
X355982333Y-184604404D01*
X355934714Y-184699642D01*
X355887095Y-184747261D01*
X355791857Y-184794880D01*
X355601380Y-184794880D01*
X355506142Y-184747261D01*
X355458523Y-184699642D01*
X355410904Y-184604404D01*
X355410904Y-184366309D01*
X355458523Y-184271071D01*
X355506142Y-184223452D01*
X355601380Y-184175833D01*
X355791857Y-184175833D01*
X355887095Y-184223452D01*
X355934714Y-184271071D01*
X355982333Y-184366309D01*
%TO.C,S40*%
X376937095Y-180747261D02*
X376794238Y-180794880D01*
X376556142Y-180794880D01*
X376460904Y-180747261D01*
X376413285Y-180699642D01*
X376365666Y-180604404D01*
X376365666Y-180509166D01*
X376413285Y-180413928D01*
X376460904Y-180366309D01*
X376556142Y-180318690D01*
X376746619Y-180271071D01*
X376841857Y-180223452D01*
X376889476Y-180175833D01*
X376937095Y-180080595D01*
X376937095Y-179985357D01*
X376889476Y-179890119D01*
X376841857Y-179842500D01*
X376746619Y-179794880D01*
X376508523Y-179794880D01*
X376365666Y-179842500D01*
X375508523Y-180128214D02*
X375508523Y-180794880D01*
X375746619Y-179747261D02*
X375984714Y-180461547D01*
X375365666Y-180461547D01*
X374794238Y-179794880D02*
X374699000Y-179794880D01*
X374603761Y-179842500D01*
X374556142Y-179890119D01*
X374508523Y-179985357D01*
X374460904Y-180175833D01*
X374460904Y-180413928D01*
X374508523Y-180604404D01*
X374556142Y-180699642D01*
X374603761Y-180747261D01*
X374699000Y-180794880D01*
X374794238Y-180794880D01*
X374889476Y-180747261D01*
X374937095Y-180699642D01*
X374984714Y-180604404D01*
X375032333Y-180413928D01*
X375032333Y-180175833D01*
X374984714Y-179985357D01*
X374937095Y-179890119D01*
X374889476Y-179842500D01*
X374794238Y-179794880D01*
%TO.C,S48*%
X395987095Y-176747261D02*
X395844238Y-176794880D01*
X395606142Y-176794880D01*
X395510904Y-176747261D01*
X395463285Y-176699642D01*
X395415666Y-176604404D01*
X395415666Y-176509166D01*
X395463285Y-176413928D01*
X395510904Y-176366309D01*
X395606142Y-176318690D01*
X395796619Y-176271071D01*
X395891857Y-176223452D01*
X395939476Y-176175833D01*
X395987095Y-176080595D01*
X395987095Y-175985357D01*
X395939476Y-175890119D01*
X395891857Y-175842500D01*
X395796619Y-175794880D01*
X395558523Y-175794880D01*
X395415666Y-175842500D01*
X394558523Y-176128214D02*
X394558523Y-176794880D01*
X394796619Y-175747261D02*
X395034714Y-176461547D01*
X394415666Y-176461547D01*
X393891857Y-176223452D02*
X393987095Y-176175833D01*
X394034714Y-176128214D01*
X394082333Y-176032976D01*
X394082333Y-175985357D01*
X394034714Y-175890119D01*
X393987095Y-175842500D01*
X393891857Y-175794880D01*
X393701380Y-175794880D01*
X393606142Y-175842500D01*
X393558523Y-175890119D01*
X393510904Y-175985357D01*
X393510904Y-176032976D01*
X393558523Y-176128214D01*
X393606142Y-176175833D01*
X393701380Y-176223452D01*
X393891857Y-176223452D01*
X393987095Y-176271071D01*
X394034714Y-176318690D01*
X394082333Y-176413928D01*
X394082333Y-176604404D01*
X394034714Y-176699642D01*
X393987095Y-176747261D01*
X393891857Y-176794880D01*
X393701380Y-176794880D01*
X393606142Y-176747261D01*
X393558523Y-176699642D01*
X393510904Y-176604404D01*
X393510904Y-176413928D01*
X393558523Y-176318690D01*
X393606142Y-176271071D01*
X393701380Y-176223452D01*
%TO.C,S53*%
X415037095Y-178747261D02*
X414894238Y-178794880D01*
X414656142Y-178794880D01*
X414560904Y-178747261D01*
X414513285Y-178699642D01*
X414465666Y-178604404D01*
X414465666Y-178509166D01*
X414513285Y-178413928D01*
X414560904Y-178366309D01*
X414656142Y-178318690D01*
X414846619Y-178271071D01*
X414941857Y-178223452D01*
X414989476Y-178175833D01*
X415037095Y-178080595D01*
X415037095Y-177985357D01*
X414989476Y-177890119D01*
X414941857Y-177842500D01*
X414846619Y-177794880D01*
X414608523Y-177794880D01*
X414465666Y-177842500D01*
X413560904Y-177794880D02*
X414037095Y-177794880D01*
X414084714Y-178271071D01*
X414037095Y-178223452D01*
X413941857Y-178175833D01*
X413703761Y-178175833D01*
X413608523Y-178223452D01*
X413560904Y-178271071D01*
X413513285Y-178366309D01*
X413513285Y-178604404D01*
X413560904Y-178699642D01*
X413608523Y-178747261D01*
X413703761Y-178794880D01*
X413941857Y-178794880D01*
X414037095Y-178747261D01*
X414084714Y-178699642D01*
X413179952Y-177794880D02*
X412560904Y-177794880D01*
X412894238Y-178175833D01*
X412751380Y-178175833D01*
X412656142Y-178223452D01*
X412608523Y-178271071D01*
X412560904Y-178366309D01*
X412560904Y-178604404D01*
X412608523Y-178699642D01*
X412656142Y-178747261D01*
X412751380Y-178794880D01*
X413037095Y-178794880D01*
X413132333Y-178747261D01*
X413179952Y-178699642D01*
%TO.C,S58*%
X434087095Y-188747261D02*
X433944238Y-188794880D01*
X433706142Y-188794880D01*
X433610904Y-188747261D01*
X433563285Y-188699642D01*
X433515666Y-188604404D01*
X433515666Y-188509166D01*
X433563285Y-188413928D01*
X433610904Y-188366309D01*
X433706142Y-188318690D01*
X433896619Y-188271071D01*
X433991857Y-188223452D01*
X434039476Y-188175833D01*
X434087095Y-188080595D01*
X434087095Y-187985357D01*
X434039476Y-187890119D01*
X433991857Y-187842500D01*
X433896619Y-187794880D01*
X433658523Y-187794880D01*
X433515666Y-187842500D01*
X432610904Y-187794880D02*
X433087095Y-187794880D01*
X433134714Y-188271071D01*
X433087095Y-188223452D01*
X432991857Y-188175833D01*
X432753761Y-188175833D01*
X432658523Y-188223452D01*
X432610904Y-188271071D01*
X432563285Y-188366309D01*
X432563285Y-188604404D01*
X432610904Y-188699642D01*
X432658523Y-188747261D01*
X432753761Y-188794880D01*
X432991857Y-188794880D01*
X433087095Y-188747261D01*
X433134714Y-188699642D01*
X431991857Y-188223452D02*
X432087095Y-188175833D01*
X432134714Y-188128214D01*
X432182333Y-188032976D01*
X432182333Y-187985357D01*
X432134714Y-187890119D01*
X432087095Y-187842500D01*
X431991857Y-187794880D01*
X431801380Y-187794880D01*
X431706142Y-187842500D01*
X431658523Y-187890119D01*
X431610904Y-187985357D01*
X431610904Y-188032976D01*
X431658523Y-188128214D01*
X431706142Y-188175833D01*
X431801380Y-188223452D01*
X431991857Y-188223452D01*
X432087095Y-188271071D01*
X432134714Y-188318690D01*
X432182333Y-188413928D01*
X432182333Y-188604404D01*
X432134714Y-188699642D01*
X432087095Y-188747261D01*
X431991857Y-188794880D01*
X431801380Y-188794880D01*
X431706142Y-188747261D01*
X431658523Y-188699642D01*
X431610904Y-188604404D01*
X431610904Y-188413928D01*
X431658523Y-188318690D01*
X431706142Y-188271071D01*
X431801380Y-188223452D01*
%TO.C,S63*%
X453137095Y-169697261D02*
X452994238Y-169744880D01*
X452756142Y-169744880D01*
X452660904Y-169697261D01*
X452613285Y-169649642D01*
X452565666Y-169554404D01*
X452565666Y-169459166D01*
X452613285Y-169363928D01*
X452660904Y-169316309D01*
X452756142Y-169268690D01*
X452946619Y-169221071D01*
X453041857Y-169173452D01*
X453089476Y-169125833D01*
X453137095Y-169030595D01*
X453137095Y-168935357D01*
X453089476Y-168840119D01*
X453041857Y-168792500D01*
X452946619Y-168744880D01*
X452708523Y-168744880D01*
X452565666Y-168792500D01*
X451708523Y-168744880D02*
X451899000Y-168744880D01*
X451994238Y-168792500D01*
X452041857Y-168840119D01*
X452137095Y-168982976D01*
X452184714Y-169173452D01*
X452184714Y-169554404D01*
X452137095Y-169649642D01*
X452089476Y-169697261D01*
X451994238Y-169744880D01*
X451803761Y-169744880D01*
X451708523Y-169697261D01*
X451660904Y-169649642D01*
X451613285Y-169554404D01*
X451613285Y-169316309D01*
X451660904Y-169221071D01*
X451708523Y-169173452D01*
X451803761Y-169125833D01*
X451994238Y-169125833D01*
X452089476Y-169173452D01*
X452137095Y-169221071D01*
X452184714Y-169316309D01*
X451279952Y-168744880D02*
X450660904Y-168744880D01*
X450994238Y-169125833D01*
X450851380Y-169125833D01*
X450756142Y-169173452D01*
X450708523Y-169221071D01*
X450660904Y-169316309D01*
X450660904Y-169554404D01*
X450708523Y-169649642D01*
X450756142Y-169697261D01*
X450851380Y-169744880D01*
X451137095Y-169744880D01*
X451232333Y-169697261D01*
X451279952Y-169649642D01*
%TO.C,S68*%
X472187095Y-169697261D02*
X472044238Y-169744880D01*
X471806142Y-169744880D01*
X471710904Y-169697261D01*
X471663285Y-169649642D01*
X471615666Y-169554404D01*
X471615666Y-169459166D01*
X471663285Y-169363928D01*
X471710904Y-169316309D01*
X471806142Y-169268690D01*
X471996619Y-169221071D01*
X472091857Y-169173452D01*
X472139476Y-169125833D01*
X472187095Y-169030595D01*
X472187095Y-168935357D01*
X472139476Y-168840119D01*
X472091857Y-168792500D01*
X471996619Y-168744880D01*
X471758523Y-168744880D01*
X471615666Y-168792500D01*
X470758523Y-168744880D02*
X470949000Y-168744880D01*
X471044238Y-168792500D01*
X471091857Y-168840119D01*
X471187095Y-168982976D01*
X471234714Y-169173452D01*
X471234714Y-169554404D01*
X471187095Y-169649642D01*
X471139476Y-169697261D01*
X471044238Y-169744880D01*
X470853761Y-169744880D01*
X470758523Y-169697261D01*
X470710904Y-169649642D01*
X470663285Y-169554404D01*
X470663285Y-169316309D01*
X470710904Y-169221071D01*
X470758523Y-169173452D01*
X470853761Y-169125833D01*
X471044238Y-169125833D01*
X471139476Y-169173452D01*
X471187095Y-169221071D01*
X471234714Y-169316309D01*
X470091857Y-169173452D02*
X470187095Y-169125833D01*
X470234714Y-169078214D01*
X470282333Y-168982976D01*
X470282333Y-168935357D01*
X470234714Y-168840119D01*
X470187095Y-168792500D01*
X470091857Y-168744880D01*
X469901380Y-168744880D01*
X469806142Y-168792500D01*
X469758523Y-168840119D01*
X469710904Y-168935357D01*
X469710904Y-168982976D01*
X469758523Y-169078214D01*
X469806142Y-169125833D01*
X469901380Y-169173452D01*
X470091857Y-169173452D01*
X470187095Y-169221071D01*
X470234714Y-169268690D01*
X470282333Y-169363928D01*
X470282333Y-169554404D01*
X470234714Y-169649642D01*
X470187095Y-169697261D01*
X470091857Y-169744880D01*
X469901380Y-169744880D01*
X469806142Y-169697261D01*
X469758523Y-169649642D01*
X469710904Y-169554404D01*
X469710904Y-169363928D01*
X469758523Y-169268690D01*
X469806142Y-169221071D01*
X469901380Y-169173452D01*
%TO.C,S37*%
X357887095Y-203797261D02*
X357744238Y-203844880D01*
X357506142Y-203844880D01*
X357410904Y-203797261D01*
X357363285Y-203749642D01*
X357315666Y-203654404D01*
X357315666Y-203559166D01*
X357363285Y-203463928D01*
X357410904Y-203416309D01*
X357506142Y-203368690D01*
X357696619Y-203321071D01*
X357791857Y-203273452D01*
X357839476Y-203225833D01*
X357887095Y-203130595D01*
X357887095Y-203035357D01*
X357839476Y-202940119D01*
X357791857Y-202892500D01*
X357696619Y-202844880D01*
X357458523Y-202844880D01*
X357315666Y-202892500D01*
X356982333Y-202844880D02*
X356363285Y-202844880D01*
X356696619Y-203225833D01*
X356553761Y-203225833D01*
X356458523Y-203273452D01*
X356410904Y-203321071D01*
X356363285Y-203416309D01*
X356363285Y-203654404D01*
X356410904Y-203749642D01*
X356458523Y-203797261D01*
X356553761Y-203844880D01*
X356839476Y-203844880D01*
X356934714Y-203797261D01*
X356982333Y-203749642D01*
X356029952Y-202844880D02*
X355363285Y-202844880D01*
X355791857Y-203844880D01*
%TO.C,S41*%
X376937095Y-199797261D02*
X376794238Y-199844880D01*
X376556142Y-199844880D01*
X376460904Y-199797261D01*
X376413285Y-199749642D01*
X376365666Y-199654404D01*
X376365666Y-199559166D01*
X376413285Y-199463928D01*
X376460904Y-199416309D01*
X376556142Y-199368690D01*
X376746619Y-199321071D01*
X376841857Y-199273452D01*
X376889476Y-199225833D01*
X376937095Y-199130595D01*
X376937095Y-199035357D01*
X376889476Y-198940119D01*
X376841857Y-198892500D01*
X376746619Y-198844880D01*
X376508523Y-198844880D01*
X376365666Y-198892500D01*
X375508523Y-199178214D02*
X375508523Y-199844880D01*
X375746619Y-198797261D02*
X375984714Y-199511547D01*
X375365666Y-199511547D01*
X374460904Y-199844880D02*
X375032333Y-199844880D01*
X374746619Y-199844880D02*
X374746619Y-198844880D01*
X374841857Y-198987738D01*
X374937095Y-199082976D01*
X375032333Y-199130595D01*
%TO.C,S49*%
X395987095Y-195797261D02*
X395844238Y-195844880D01*
X395606142Y-195844880D01*
X395510904Y-195797261D01*
X395463285Y-195749642D01*
X395415666Y-195654404D01*
X395415666Y-195559166D01*
X395463285Y-195463928D01*
X395510904Y-195416309D01*
X395606142Y-195368690D01*
X395796619Y-195321071D01*
X395891857Y-195273452D01*
X395939476Y-195225833D01*
X395987095Y-195130595D01*
X395987095Y-195035357D01*
X395939476Y-194940119D01*
X395891857Y-194892500D01*
X395796619Y-194844880D01*
X395558523Y-194844880D01*
X395415666Y-194892500D01*
X394558523Y-195178214D02*
X394558523Y-195844880D01*
X394796619Y-194797261D02*
X395034714Y-195511547D01*
X394415666Y-195511547D01*
X393987095Y-195844880D02*
X393796619Y-195844880D01*
X393701380Y-195797261D01*
X393653761Y-195749642D01*
X393558523Y-195606785D01*
X393510904Y-195416309D01*
X393510904Y-195035357D01*
X393558523Y-194940119D01*
X393606142Y-194892500D01*
X393701380Y-194844880D01*
X393891857Y-194844880D01*
X393987095Y-194892500D01*
X394034714Y-194940119D01*
X394082333Y-195035357D01*
X394082333Y-195273452D01*
X394034714Y-195368690D01*
X393987095Y-195416309D01*
X393891857Y-195463928D01*
X393701380Y-195463928D01*
X393606142Y-195416309D01*
X393558523Y-195368690D01*
X393510904Y-195273452D01*
%TO.C,S54*%
X415037095Y-197797261D02*
X414894238Y-197844880D01*
X414656142Y-197844880D01*
X414560904Y-197797261D01*
X414513285Y-197749642D01*
X414465666Y-197654404D01*
X414465666Y-197559166D01*
X414513285Y-197463928D01*
X414560904Y-197416309D01*
X414656142Y-197368690D01*
X414846619Y-197321071D01*
X414941857Y-197273452D01*
X414989476Y-197225833D01*
X415037095Y-197130595D01*
X415037095Y-197035357D01*
X414989476Y-196940119D01*
X414941857Y-196892500D01*
X414846619Y-196844880D01*
X414608523Y-196844880D01*
X414465666Y-196892500D01*
X413560904Y-196844880D02*
X414037095Y-196844880D01*
X414084714Y-197321071D01*
X414037095Y-197273452D01*
X413941857Y-197225833D01*
X413703761Y-197225833D01*
X413608523Y-197273452D01*
X413560904Y-197321071D01*
X413513285Y-197416309D01*
X413513285Y-197654404D01*
X413560904Y-197749642D01*
X413608523Y-197797261D01*
X413703761Y-197844880D01*
X413941857Y-197844880D01*
X414037095Y-197797261D01*
X414084714Y-197749642D01*
X412656142Y-197178214D02*
X412656142Y-197844880D01*
X412894238Y-196797261D02*
X413132333Y-197511547D01*
X412513285Y-197511547D01*
%TO.C,S59*%
X434087095Y-207797261D02*
X433944238Y-207844880D01*
X433706142Y-207844880D01*
X433610904Y-207797261D01*
X433563285Y-207749642D01*
X433515666Y-207654404D01*
X433515666Y-207559166D01*
X433563285Y-207463928D01*
X433610904Y-207416309D01*
X433706142Y-207368690D01*
X433896619Y-207321071D01*
X433991857Y-207273452D01*
X434039476Y-207225833D01*
X434087095Y-207130595D01*
X434087095Y-207035357D01*
X434039476Y-206940119D01*
X433991857Y-206892500D01*
X433896619Y-206844880D01*
X433658523Y-206844880D01*
X433515666Y-206892500D01*
X432610904Y-206844880D02*
X433087095Y-206844880D01*
X433134714Y-207321071D01*
X433087095Y-207273452D01*
X432991857Y-207225833D01*
X432753761Y-207225833D01*
X432658523Y-207273452D01*
X432610904Y-207321071D01*
X432563285Y-207416309D01*
X432563285Y-207654404D01*
X432610904Y-207749642D01*
X432658523Y-207797261D01*
X432753761Y-207844880D01*
X432991857Y-207844880D01*
X433087095Y-207797261D01*
X433134714Y-207749642D01*
X432087095Y-207844880D02*
X431896619Y-207844880D01*
X431801380Y-207797261D01*
X431753761Y-207749642D01*
X431658523Y-207606785D01*
X431610904Y-207416309D01*
X431610904Y-207035357D01*
X431658523Y-206940119D01*
X431706142Y-206892500D01*
X431801380Y-206844880D01*
X431991857Y-206844880D01*
X432087095Y-206892500D01*
X432134714Y-206940119D01*
X432182333Y-207035357D01*
X432182333Y-207273452D01*
X432134714Y-207368690D01*
X432087095Y-207416309D01*
X431991857Y-207463928D01*
X431801380Y-207463928D01*
X431706142Y-207416309D01*
X431658523Y-207368690D01*
X431610904Y-207273452D01*
%TO.C,S64*%
X453137095Y-188747261D02*
X452994238Y-188794880D01*
X452756142Y-188794880D01*
X452660904Y-188747261D01*
X452613285Y-188699642D01*
X452565666Y-188604404D01*
X452565666Y-188509166D01*
X452613285Y-188413928D01*
X452660904Y-188366309D01*
X452756142Y-188318690D01*
X452946619Y-188271071D01*
X453041857Y-188223452D01*
X453089476Y-188175833D01*
X453137095Y-188080595D01*
X453137095Y-187985357D01*
X453089476Y-187890119D01*
X453041857Y-187842500D01*
X452946619Y-187794880D01*
X452708523Y-187794880D01*
X452565666Y-187842500D01*
X451708523Y-187794880D02*
X451899000Y-187794880D01*
X451994238Y-187842500D01*
X452041857Y-187890119D01*
X452137095Y-188032976D01*
X452184714Y-188223452D01*
X452184714Y-188604404D01*
X452137095Y-188699642D01*
X452089476Y-188747261D01*
X451994238Y-188794880D01*
X451803761Y-188794880D01*
X451708523Y-188747261D01*
X451660904Y-188699642D01*
X451613285Y-188604404D01*
X451613285Y-188366309D01*
X451660904Y-188271071D01*
X451708523Y-188223452D01*
X451803761Y-188175833D01*
X451994238Y-188175833D01*
X452089476Y-188223452D01*
X452137095Y-188271071D01*
X452184714Y-188366309D01*
X450756142Y-188128214D02*
X450756142Y-188794880D01*
X450994238Y-187747261D02*
X451232333Y-188461547D01*
X450613285Y-188461547D01*
%TO.C,S69*%
X472187095Y-188747261D02*
X472044238Y-188794880D01*
X471806142Y-188794880D01*
X471710904Y-188747261D01*
X471663285Y-188699642D01*
X471615666Y-188604404D01*
X471615666Y-188509166D01*
X471663285Y-188413928D01*
X471710904Y-188366309D01*
X471806142Y-188318690D01*
X471996619Y-188271071D01*
X472091857Y-188223452D01*
X472139476Y-188175833D01*
X472187095Y-188080595D01*
X472187095Y-187985357D01*
X472139476Y-187890119D01*
X472091857Y-187842500D01*
X471996619Y-187794880D01*
X471758523Y-187794880D01*
X471615666Y-187842500D01*
X470758523Y-187794880D02*
X470949000Y-187794880D01*
X471044238Y-187842500D01*
X471091857Y-187890119D01*
X471187095Y-188032976D01*
X471234714Y-188223452D01*
X471234714Y-188604404D01*
X471187095Y-188699642D01*
X471139476Y-188747261D01*
X471044238Y-188794880D01*
X470853761Y-188794880D01*
X470758523Y-188747261D01*
X470710904Y-188699642D01*
X470663285Y-188604404D01*
X470663285Y-188366309D01*
X470710904Y-188271071D01*
X470758523Y-188223452D01*
X470853761Y-188175833D01*
X471044238Y-188175833D01*
X471139476Y-188223452D01*
X471187095Y-188271071D01*
X471234714Y-188366309D01*
X470187095Y-188794880D02*
X469996619Y-188794880D01*
X469901380Y-188747261D01*
X469853761Y-188699642D01*
X469758523Y-188556785D01*
X469710904Y-188366309D01*
X469710904Y-187985357D01*
X469758523Y-187890119D01*
X469806142Y-187842500D01*
X469901380Y-187794880D01*
X470091857Y-187794880D01*
X470187095Y-187842500D01*
X470234714Y-187890119D01*
X470282333Y-187985357D01*
X470282333Y-188223452D01*
X470234714Y-188318690D01*
X470187095Y-188366309D01*
X470091857Y-188413928D01*
X469901380Y-188413928D01*
X469806142Y-188366309D01*
X469758523Y-188318690D01*
X469710904Y-188223452D01*
%TO.C,S38*%
X357887095Y-222847261D02*
X357744238Y-222894880D01*
X357506142Y-222894880D01*
X357410904Y-222847261D01*
X357363285Y-222799642D01*
X357315666Y-222704404D01*
X357315666Y-222609166D01*
X357363285Y-222513928D01*
X357410904Y-222466309D01*
X357506142Y-222418690D01*
X357696619Y-222371071D01*
X357791857Y-222323452D01*
X357839476Y-222275833D01*
X357887095Y-222180595D01*
X357887095Y-222085357D01*
X357839476Y-221990119D01*
X357791857Y-221942500D01*
X357696619Y-221894880D01*
X357458523Y-221894880D01*
X357315666Y-221942500D01*
X356982333Y-221894880D02*
X356363285Y-221894880D01*
X356696619Y-222275833D01*
X356553761Y-222275833D01*
X356458523Y-222323452D01*
X356410904Y-222371071D01*
X356363285Y-222466309D01*
X356363285Y-222704404D01*
X356410904Y-222799642D01*
X356458523Y-222847261D01*
X356553761Y-222894880D01*
X356839476Y-222894880D01*
X356934714Y-222847261D01*
X356982333Y-222799642D01*
X355791857Y-222323452D02*
X355887095Y-222275833D01*
X355934714Y-222228214D01*
X355982333Y-222132976D01*
X355982333Y-222085357D01*
X355934714Y-221990119D01*
X355887095Y-221942500D01*
X355791857Y-221894880D01*
X355601380Y-221894880D01*
X355506142Y-221942500D01*
X355458523Y-221990119D01*
X355410904Y-222085357D01*
X355410904Y-222132976D01*
X355458523Y-222228214D01*
X355506142Y-222275833D01*
X355601380Y-222323452D01*
X355791857Y-222323452D01*
X355887095Y-222371071D01*
X355934714Y-222418690D01*
X355982333Y-222513928D01*
X355982333Y-222704404D01*
X355934714Y-222799642D01*
X355887095Y-222847261D01*
X355791857Y-222894880D01*
X355601380Y-222894880D01*
X355506142Y-222847261D01*
X355458523Y-222799642D01*
X355410904Y-222704404D01*
X355410904Y-222513928D01*
X355458523Y-222418690D01*
X355506142Y-222371071D01*
X355601380Y-222323452D01*
%TO.C,S42*%
X376937095Y-218847261D02*
X376794238Y-218894880D01*
X376556142Y-218894880D01*
X376460904Y-218847261D01*
X376413285Y-218799642D01*
X376365666Y-218704404D01*
X376365666Y-218609166D01*
X376413285Y-218513928D01*
X376460904Y-218466309D01*
X376556142Y-218418690D01*
X376746619Y-218371071D01*
X376841857Y-218323452D01*
X376889476Y-218275833D01*
X376937095Y-218180595D01*
X376937095Y-218085357D01*
X376889476Y-217990119D01*
X376841857Y-217942500D01*
X376746619Y-217894880D01*
X376508523Y-217894880D01*
X376365666Y-217942500D01*
X375508523Y-218228214D02*
X375508523Y-218894880D01*
X375746619Y-217847261D02*
X375984714Y-218561547D01*
X375365666Y-218561547D01*
X375032333Y-217990119D02*
X374984714Y-217942500D01*
X374889476Y-217894880D01*
X374651380Y-217894880D01*
X374556142Y-217942500D01*
X374508523Y-217990119D01*
X374460904Y-218085357D01*
X374460904Y-218180595D01*
X374508523Y-218323452D01*
X375079952Y-218894880D01*
X374460904Y-218894880D01*
%TO.C,S50*%
X395987095Y-214847261D02*
X395844238Y-214894880D01*
X395606142Y-214894880D01*
X395510904Y-214847261D01*
X395463285Y-214799642D01*
X395415666Y-214704404D01*
X395415666Y-214609166D01*
X395463285Y-214513928D01*
X395510904Y-214466309D01*
X395606142Y-214418690D01*
X395796619Y-214371071D01*
X395891857Y-214323452D01*
X395939476Y-214275833D01*
X395987095Y-214180595D01*
X395987095Y-214085357D01*
X395939476Y-213990119D01*
X395891857Y-213942500D01*
X395796619Y-213894880D01*
X395558523Y-213894880D01*
X395415666Y-213942500D01*
X394510904Y-213894880D02*
X394987095Y-213894880D01*
X395034714Y-214371071D01*
X394987095Y-214323452D01*
X394891857Y-214275833D01*
X394653761Y-214275833D01*
X394558523Y-214323452D01*
X394510904Y-214371071D01*
X394463285Y-214466309D01*
X394463285Y-214704404D01*
X394510904Y-214799642D01*
X394558523Y-214847261D01*
X394653761Y-214894880D01*
X394891857Y-214894880D01*
X394987095Y-214847261D01*
X395034714Y-214799642D01*
X393844238Y-213894880D02*
X393749000Y-213894880D01*
X393653761Y-213942500D01*
X393606142Y-213990119D01*
X393558523Y-214085357D01*
X393510904Y-214275833D01*
X393510904Y-214513928D01*
X393558523Y-214704404D01*
X393606142Y-214799642D01*
X393653761Y-214847261D01*
X393749000Y-214894880D01*
X393844238Y-214894880D01*
X393939476Y-214847261D01*
X393987095Y-214799642D01*
X394034714Y-214704404D01*
X394082333Y-214513928D01*
X394082333Y-214275833D01*
X394034714Y-214085357D01*
X393987095Y-213990119D01*
X393939476Y-213942500D01*
X393844238Y-213894880D01*
%TO.C,S55*%
X415037095Y-216847261D02*
X414894238Y-216894880D01*
X414656142Y-216894880D01*
X414560904Y-216847261D01*
X414513285Y-216799642D01*
X414465666Y-216704404D01*
X414465666Y-216609166D01*
X414513285Y-216513928D01*
X414560904Y-216466309D01*
X414656142Y-216418690D01*
X414846619Y-216371071D01*
X414941857Y-216323452D01*
X414989476Y-216275833D01*
X415037095Y-216180595D01*
X415037095Y-216085357D01*
X414989476Y-215990119D01*
X414941857Y-215942500D01*
X414846619Y-215894880D01*
X414608523Y-215894880D01*
X414465666Y-215942500D01*
X413560904Y-215894880D02*
X414037095Y-215894880D01*
X414084714Y-216371071D01*
X414037095Y-216323452D01*
X413941857Y-216275833D01*
X413703761Y-216275833D01*
X413608523Y-216323452D01*
X413560904Y-216371071D01*
X413513285Y-216466309D01*
X413513285Y-216704404D01*
X413560904Y-216799642D01*
X413608523Y-216847261D01*
X413703761Y-216894880D01*
X413941857Y-216894880D01*
X414037095Y-216847261D01*
X414084714Y-216799642D01*
X412608523Y-215894880D02*
X413084714Y-215894880D01*
X413132333Y-216371071D01*
X413084714Y-216323452D01*
X412989476Y-216275833D01*
X412751380Y-216275833D01*
X412656142Y-216323452D01*
X412608523Y-216371071D01*
X412560904Y-216466309D01*
X412560904Y-216704404D01*
X412608523Y-216799642D01*
X412656142Y-216847261D01*
X412751380Y-216894880D01*
X412989476Y-216894880D01*
X413084714Y-216847261D01*
X413132333Y-216799642D01*
%TO.C,S60*%
X434087095Y-226847261D02*
X433944238Y-226894880D01*
X433706142Y-226894880D01*
X433610904Y-226847261D01*
X433563285Y-226799642D01*
X433515666Y-226704404D01*
X433515666Y-226609166D01*
X433563285Y-226513928D01*
X433610904Y-226466309D01*
X433706142Y-226418690D01*
X433896619Y-226371071D01*
X433991857Y-226323452D01*
X434039476Y-226275833D01*
X434087095Y-226180595D01*
X434087095Y-226085357D01*
X434039476Y-225990119D01*
X433991857Y-225942500D01*
X433896619Y-225894880D01*
X433658523Y-225894880D01*
X433515666Y-225942500D01*
X432658523Y-225894880D02*
X432849000Y-225894880D01*
X432944238Y-225942500D01*
X432991857Y-225990119D01*
X433087095Y-226132976D01*
X433134714Y-226323452D01*
X433134714Y-226704404D01*
X433087095Y-226799642D01*
X433039476Y-226847261D01*
X432944238Y-226894880D01*
X432753761Y-226894880D01*
X432658523Y-226847261D01*
X432610904Y-226799642D01*
X432563285Y-226704404D01*
X432563285Y-226466309D01*
X432610904Y-226371071D01*
X432658523Y-226323452D01*
X432753761Y-226275833D01*
X432944238Y-226275833D01*
X433039476Y-226323452D01*
X433087095Y-226371071D01*
X433134714Y-226466309D01*
X431944238Y-225894880D02*
X431849000Y-225894880D01*
X431753761Y-225942500D01*
X431706142Y-225990119D01*
X431658523Y-226085357D01*
X431610904Y-226275833D01*
X431610904Y-226513928D01*
X431658523Y-226704404D01*
X431706142Y-226799642D01*
X431753761Y-226847261D01*
X431849000Y-226894880D01*
X431944238Y-226894880D01*
X432039476Y-226847261D01*
X432087095Y-226799642D01*
X432134714Y-226704404D01*
X432182333Y-226513928D01*
X432182333Y-226275833D01*
X432134714Y-226085357D01*
X432087095Y-225990119D01*
X432039476Y-225942500D01*
X431944238Y-225894880D01*
%TO.C,S65*%
X453137095Y-207797261D02*
X452994238Y-207844880D01*
X452756142Y-207844880D01*
X452660904Y-207797261D01*
X452613285Y-207749642D01*
X452565666Y-207654404D01*
X452565666Y-207559166D01*
X452613285Y-207463928D01*
X452660904Y-207416309D01*
X452756142Y-207368690D01*
X452946619Y-207321071D01*
X453041857Y-207273452D01*
X453089476Y-207225833D01*
X453137095Y-207130595D01*
X453137095Y-207035357D01*
X453089476Y-206940119D01*
X453041857Y-206892500D01*
X452946619Y-206844880D01*
X452708523Y-206844880D01*
X452565666Y-206892500D01*
X451708523Y-206844880D02*
X451899000Y-206844880D01*
X451994238Y-206892500D01*
X452041857Y-206940119D01*
X452137095Y-207082976D01*
X452184714Y-207273452D01*
X452184714Y-207654404D01*
X452137095Y-207749642D01*
X452089476Y-207797261D01*
X451994238Y-207844880D01*
X451803761Y-207844880D01*
X451708523Y-207797261D01*
X451660904Y-207749642D01*
X451613285Y-207654404D01*
X451613285Y-207416309D01*
X451660904Y-207321071D01*
X451708523Y-207273452D01*
X451803761Y-207225833D01*
X451994238Y-207225833D01*
X452089476Y-207273452D01*
X452137095Y-207321071D01*
X452184714Y-207416309D01*
X450708523Y-206844880D02*
X451184714Y-206844880D01*
X451232333Y-207321071D01*
X451184714Y-207273452D01*
X451089476Y-207225833D01*
X450851380Y-207225833D01*
X450756142Y-207273452D01*
X450708523Y-207321071D01*
X450660904Y-207416309D01*
X450660904Y-207654404D01*
X450708523Y-207749642D01*
X450756142Y-207797261D01*
X450851380Y-207844880D01*
X451089476Y-207844880D01*
X451184714Y-207797261D01*
X451232333Y-207749642D01*
%TO.C,S70*%
X472187095Y-217322261D02*
X472044238Y-217369880D01*
X471806142Y-217369880D01*
X471710904Y-217322261D01*
X471663285Y-217274642D01*
X471615666Y-217179404D01*
X471615666Y-217084166D01*
X471663285Y-216988928D01*
X471710904Y-216941309D01*
X471806142Y-216893690D01*
X471996619Y-216846071D01*
X472091857Y-216798452D01*
X472139476Y-216750833D01*
X472187095Y-216655595D01*
X472187095Y-216560357D01*
X472139476Y-216465119D01*
X472091857Y-216417500D01*
X471996619Y-216369880D01*
X471758523Y-216369880D01*
X471615666Y-216417500D01*
X471282333Y-216369880D02*
X470615666Y-216369880D01*
X471044238Y-217369880D01*
X470044238Y-216369880D02*
X469949000Y-216369880D01*
X469853761Y-216417500D01*
X469806142Y-216465119D01*
X469758523Y-216560357D01*
X469710904Y-216750833D01*
X469710904Y-216988928D01*
X469758523Y-217179404D01*
X469806142Y-217274642D01*
X469853761Y-217322261D01*
X469949000Y-217369880D01*
X470044238Y-217369880D01*
X470139476Y-217322261D01*
X470187095Y-217274642D01*
X470234714Y-217179404D01*
X470282333Y-216988928D01*
X470282333Y-216750833D01*
X470234714Y-216560357D01*
X470187095Y-216465119D01*
X470139476Y-216417500D01*
X470044238Y-216369880D01*
%TO.C,S43*%
X376937095Y-237897261D02*
X376794238Y-237944880D01*
X376556142Y-237944880D01*
X376460904Y-237897261D01*
X376413285Y-237849642D01*
X376365666Y-237754404D01*
X376365666Y-237659166D01*
X376413285Y-237563928D01*
X376460904Y-237516309D01*
X376556142Y-237468690D01*
X376746619Y-237421071D01*
X376841857Y-237373452D01*
X376889476Y-237325833D01*
X376937095Y-237230595D01*
X376937095Y-237135357D01*
X376889476Y-237040119D01*
X376841857Y-236992500D01*
X376746619Y-236944880D01*
X376508523Y-236944880D01*
X376365666Y-236992500D01*
X375508523Y-237278214D02*
X375508523Y-237944880D01*
X375746619Y-236897261D02*
X375984714Y-237611547D01*
X375365666Y-237611547D01*
X375079952Y-236944880D02*
X374460904Y-236944880D01*
X374794238Y-237325833D01*
X374651380Y-237325833D01*
X374556142Y-237373452D01*
X374508523Y-237421071D01*
X374460904Y-237516309D01*
X374460904Y-237754404D01*
X374508523Y-237849642D01*
X374556142Y-237897261D01*
X374651380Y-237944880D01*
X374937095Y-237944880D01*
X375032333Y-237897261D01*
X375079952Y-237849642D01*
%TO.C,S51*%
X395987095Y-233897261D02*
X395844238Y-233944880D01*
X395606142Y-233944880D01*
X395510904Y-233897261D01*
X395463285Y-233849642D01*
X395415666Y-233754404D01*
X395415666Y-233659166D01*
X395463285Y-233563928D01*
X395510904Y-233516309D01*
X395606142Y-233468690D01*
X395796619Y-233421071D01*
X395891857Y-233373452D01*
X395939476Y-233325833D01*
X395987095Y-233230595D01*
X395987095Y-233135357D01*
X395939476Y-233040119D01*
X395891857Y-232992500D01*
X395796619Y-232944880D01*
X395558523Y-232944880D01*
X395415666Y-232992500D01*
X394510904Y-232944880D02*
X394987095Y-232944880D01*
X395034714Y-233421071D01*
X394987095Y-233373452D01*
X394891857Y-233325833D01*
X394653761Y-233325833D01*
X394558523Y-233373452D01*
X394510904Y-233421071D01*
X394463285Y-233516309D01*
X394463285Y-233754404D01*
X394510904Y-233849642D01*
X394558523Y-233897261D01*
X394653761Y-233944880D01*
X394891857Y-233944880D01*
X394987095Y-233897261D01*
X395034714Y-233849642D01*
X393510904Y-233944880D02*
X394082333Y-233944880D01*
X393796619Y-233944880D02*
X393796619Y-232944880D01*
X393891857Y-233087738D01*
X393987095Y-233182976D01*
X394082333Y-233230595D01*
%TO.C,S56*%
X415037095Y-235897261D02*
X414894238Y-235944880D01*
X414656142Y-235944880D01*
X414560904Y-235897261D01*
X414513285Y-235849642D01*
X414465666Y-235754404D01*
X414465666Y-235659166D01*
X414513285Y-235563928D01*
X414560904Y-235516309D01*
X414656142Y-235468690D01*
X414846619Y-235421071D01*
X414941857Y-235373452D01*
X414989476Y-235325833D01*
X415037095Y-235230595D01*
X415037095Y-235135357D01*
X414989476Y-235040119D01*
X414941857Y-234992500D01*
X414846619Y-234944880D01*
X414608523Y-234944880D01*
X414465666Y-234992500D01*
X413560904Y-234944880D02*
X414037095Y-234944880D01*
X414084714Y-235421071D01*
X414037095Y-235373452D01*
X413941857Y-235325833D01*
X413703761Y-235325833D01*
X413608523Y-235373452D01*
X413560904Y-235421071D01*
X413513285Y-235516309D01*
X413513285Y-235754404D01*
X413560904Y-235849642D01*
X413608523Y-235897261D01*
X413703761Y-235944880D01*
X413941857Y-235944880D01*
X414037095Y-235897261D01*
X414084714Y-235849642D01*
X412656142Y-234944880D02*
X412846619Y-234944880D01*
X412941857Y-234992500D01*
X412989476Y-235040119D01*
X413084714Y-235182976D01*
X413132333Y-235373452D01*
X413132333Y-235754404D01*
X413084714Y-235849642D01*
X413037095Y-235897261D01*
X412941857Y-235944880D01*
X412751380Y-235944880D01*
X412656142Y-235897261D01*
X412608523Y-235849642D01*
X412560904Y-235754404D01*
X412560904Y-235516309D01*
X412608523Y-235421071D01*
X412656142Y-235373452D01*
X412751380Y-235325833D01*
X412941857Y-235325833D01*
X413037095Y-235373452D01*
X413084714Y-235421071D01*
X413132333Y-235516309D01*
%TO.C,S61*%
X434087095Y-245897261D02*
X433944238Y-245944880D01*
X433706142Y-245944880D01*
X433610904Y-245897261D01*
X433563285Y-245849642D01*
X433515666Y-245754404D01*
X433515666Y-245659166D01*
X433563285Y-245563928D01*
X433610904Y-245516309D01*
X433706142Y-245468690D01*
X433896619Y-245421071D01*
X433991857Y-245373452D01*
X434039476Y-245325833D01*
X434087095Y-245230595D01*
X434087095Y-245135357D01*
X434039476Y-245040119D01*
X433991857Y-244992500D01*
X433896619Y-244944880D01*
X433658523Y-244944880D01*
X433515666Y-244992500D01*
X432658523Y-244944880D02*
X432849000Y-244944880D01*
X432944238Y-244992500D01*
X432991857Y-245040119D01*
X433087095Y-245182976D01*
X433134714Y-245373452D01*
X433134714Y-245754404D01*
X433087095Y-245849642D01*
X433039476Y-245897261D01*
X432944238Y-245944880D01*
X432753761Y-245944880D01*
X432658523Y-245897261D01*
X432610904Y-245849642D01*
X432563285Y-245754404D01*
X432563285Y-245516309D01*
X432610904Y-245421071D01*
X432658523Y-245373452D01*
X432753761Y-245325833D01*
X432944238Y-245325833D01*
X433039476Y-245373452D01*
X433087095Y-245421071D01*
X433134714Y-245516309D01*
X431610904Y-245944880D02*
X432182333Y-245944880D01*
X431896619Y-245944880D02*
X431896619Y-244944880D01*
X431991857Y-245087738D01*
X432087095Y-245182976D01*
X432182333Y-245230595D01*
%TO.C,S66*%
X453137095Y-226847261D02*
X452994238Y-226894880D01*
X452756142Y-226894880D01*
X452660904Y-226847261D01*
X452613285Y-226799642D01*
X452565666Y-226704404D01*
X452565666Y-226609166D01*
X452613285Y-226513928D01*
X452660904Y-226466309D01*
X452756142Y-226418690D01*
X452946619Y-226371071D01*
X453041857Y-226323452D01*
X453089476Y-226275833D01*
X453137095Y-226180595D01*
X453137095Y-226085357D01*
X453089476Y-225990119D01*
X453041857Y-225942500D01*
X452946619Y-225894880D01*
X452708523Y-225894880D01*
X452565666Y-225942500D01*
X451708523Y-225894880D02*
X451899000Y-225894880D01*
X451994238Y-225942500D01*
X452041857Y-225990119D01*
X452137095Y-226132976D01*
X452184714Y-226323452D01*
X452184714Y-226704404D01*
X452137095Y-226799642D01*
X452089476Y-226847261D01*
X451994238Y-226894880D01*
X451803761Y-226894880D01*
X451708523Y-226847261D01*
X451660904Y-226799642D01*
X451613285Y-226704404D01*
X451613285Y-226466309D01*
X451660904Y-226371071D01*
X451708523Y-226323452D01*
X451803761Y-226275833D01*
X451994238Y-226275833D01*
X452089476Y-226323452D01*
X452137095Y-226371071D01*
X452184714Y-226466309D01*
X450756142Y-225894880D02*
X450946619Y-225894880D01*
X451041857Y-225942500D01*
X451089476Y-225990119D01*
X451184714Y-226132976D01*
X451232333Y-226323452D01*
X451232333Y-226704404D01*
X451184714Y-226799642D01*
X451137095Y-226847261D01*
X451041857Y-226894880D01*
X450851380Y-226894880D01*
X450756142Y-226847261D01*
X450708523Y-226799642D01*
X450660904Y-226704404D01*
X450660904Y-226466309D01*
X450708523Y-226371071D01*
X450756142Y-226323452D01*
X450851380Y-226275833D01*
X451041857Y-226275833D01*
X451137095Y-226323452D01*
X451184714Y-226371071D01*
X451232333Y-226466309D01*
%TO.C,C14*%
X460478142Y-150211642D02*
X460525761Y-150164023D01*
X460573380Y-150021166D01*
X460573380Y-149925928D01*
X460525761Y-149783071D01*
X460430523Y-149687833D01*
X460335285Y-149640214D01*
X460144809Y-149592595D01*
X460001952Y-149592595D01*
X459811476Y-149640214D01*
X459716238Y-149687833D01*
X459621000Y-149783071D01*
X459573380Y-149925928D01*
X459573380Y-150021166D01*
X459621000Y-150164023D01*
X459668619Y-150211642D01*
X460573380Y-151164023D02*
X460573380Y-150592595D01*
X460573380Y-150878309D02*
X459573380Y-150878309D01*
X459716238Y-150783071D01*
X459811476Y-150687833D01*
X459859095Y-150592595D01*
X459906714Y-152021166D02*
X460573380Y-152021166D01*
X459525761Y-151783071D02*
X460240047Y-151544976D01*
X460240047Y-152164023D01*
%TO.C,C15*%
X457059357Y-149328142D02*
X457106976Y-149375761D01*
X457249833Y-149423380D01*
X457345071Y-149423380D01*
X457487928Y-149375761D01*
X457583166Y-149280523D01*
X457630785Y-149185285D01*
X457678404Y-148994809D01*
X457678404Y-148851952D01*
X457630785Y-148661476D01*
X457583166Y-148566238D01*
X457487928Y-148471000D01*
X457345071Y-148423380D01*
X457249833Y-148423380D01*
X457106976Y-148471000D01*
X457059357Y-148518619D01*
X456106976Y-149423380D02*
X456678404Y-149423380D01*
X456392690Y-149423380D02*
X456392690Y-148423380D01*
X456487928Y-148566238D01*
X456583166Y-148661476D01*
X456678404Y-148709095D01*
X455202214Y-148423380D02*
X455678404Y-148423380D01*
X455726023Y-148899571D01*
X455678404Y-148851952D01*
X455583166Y-148804333D01*
X455345071Y-148804333D01*
X455249833Y-148851952D01*
X455202214Y-148899571D01*
X455154595Y-148994809D01*
X455154595Y-149232904D01*
X455202214Y-149328142D01*
X455249833Y-149375761D01*
X455345071Y-149423380D01*
X455583166Y-149423380D01*
X455678404Y-149375761D01*
X455726023Y-149328142D01*
%TO.C,C16*%
X393767642Y-154148642D02*
X393815261Y-154101023D01*
X393862880Y-153958166D01*
X393862880Y-153862928D01*
X393815261Y-153720071D01*
X393720023Y-153624833D01*
X393624785Y-153577214D01*
X393434309Y-153529595D01*
X393291452Y-153529595D01*
X393100976Y-153577214D01*
X393005738Y-153624833D01*
X392910500Y-153720071D01*
X392862880Y-153862928D01*
X392862880Y-153958166D01*
X392910500Y-154101023D01*
X392958119Y-154148642D01*
X393862880Y-155101023D02*
X393862880Y-154529595D01*
X393862880Y-154815309D02*
X392862880Y-154815309D01*
X393005738Y-154720071D01*
X393100976Y-154624833D01*
X393148595Y-154529595D01*
X392862880Y-155958166D02*
X392862880Y-155767690D01*
X392910500Y-155672452D01*
X392958119Y-155624833D01*
X393100976Y-155529595D01*
X393291452Y-155481976D01*
X393672404Y-155481976D01*
X393767642Y-155529595D01*
X393815261Y-155577214D01*
X393862880Y-155672452D01*
X393862880Y-155862928D01*
X393815261Y-155958166D01*
X393767642Y-156005785D01*
X393672404Y-156053404D01*
X393434309Y-156053404D01*
X393339071Y-156005785D01*
X393291452Y-155958166D01*
X393243833Y-155862928D01*
X393243833Y-155672452D01*
X393291452Y-155577214D01*
X393339071Y-155529595D01*
X393434309Y-155481976D01*
%TO.C,C17*%
X405197642Y-154810142D02*
X405245261Y-154762523D01*
X405292880Y-154619666D01*
X405292880Y-154524428D01*
X405245261Y-154381571D01*
X405150023Y-154286333D01*
X405054785Y-154238714D01*
X404864309Y-154191095D01*
X404721452Y-154191095D01*
X404530976Y-154238714D01*
X404435738Y-154286333D01*
X404340500Y-154381571D01*
X404292880Y-154524428D01*
X404292880Y-154619666D01*
X404340500Y-154762523D01*
X404388119Y-154810142D01*
X405292880Y-155762523D02*
X405292880Y-155191095D01*
X405292880Y-155476809D02*
X404292880Y-155476809D01*
X404435738Y-155381571D01*
X404530976Y-155286333D01*
X404578595Y-155191095D01*
X404292880Y-156095857D02*
X404292880Y-156762523D01*
X405292880Y-156333952D01*
%TO.C,C18*%
X395291642Y-154148642D02*
X395339261Y-154101023D01*
X395386880Y-153958166D01*
X395386880Y-153862928D01*
X395339261Y-153720071D01*
X395244023Y-153624833D01*
X395148785Y-153577214D01*
X394958309Y-153529595D01*
X394815452Y-153529595D01*
X394624976Y-153577214D01*
X394529738Y-153624833D01*
X394434500Y-153720071D01*
X394386880Y-153862928D01*
X394386880Y-153958166D01*
X394434500Y-154101023D01*
X394482119Y-154148642D01*
X395386880Y-155101023D02*
X395386880Y-154529595D01*
X395386880Y-154815309D02*
X394386880Y-154815309D01*
X394529738Y-154720071D01*
X394624976Y-154624833D01*
X394672595Y-154529595D01*
X394815452Y-155672452D02*
X394767833Y-155577214D01*
X394720214Y-155529595D01*
X394624976Y-155481976D01*
X394577357Y-155481976D01*
X394482119Y-155529595D01*
X394434500Y-155577214D01*
X394386880Y-155672452D01*
X394386880Y-155862928D01*
X394434500Y-155958166D01*
X394482119Y-156005785D01*
X394577357Y-156053404D01*
X394624976Y-156053404D01*
X394720214Y-156005785D01*
X394767833Y-155958166D01*
X394815452Y-155862928D01*
X394815452Y-155672452D01*
X394863071Y-155577214D01*
X394910690Y-155529595D01*
X395005928Y-155481976D01*
X395196404Y-155481976D01*
X395291642Y-155529595D01*
X395339261Y-155577214D01*
X395386880Y-155672452D01*
X395386880Y-155862928D01*
X395339261Y-155958166D01*
X395291642Y-156005785D01*
X395196404Y-156053404D01*
X395005928Y-156053404D01*
X394910690Y-156005785D01*
X394863071Y-155958166D01*
X394815452Y-155862928D01*
%TO.C,C19*%
X403582142Y-154810142D02*
X403629761Y-154762523D01*
X403677380Y-154619666D01*
X403677380Y-154524428D01*
X403629761Y-154381571D01*
X403534523Y-154286333D01*
X403439285Y-154238714D01*
X403248809Y-154191095D01*
X403105952Y-154191095D01*
X402915476Y-154238714D01*
X402820238Y-154286333D01*
X402725000Y-154381571D01*
X402677380Y-154524428D01*
X402677380Y-154619666D01*
X402725000Y-154762523D01*
X402772619Y-154810142D01*
X403677380Y-155762523D02*
X403677380Y-155191095D01*
X403677380Y-155476809D02*
X402677380Y-155476809D01*
X402820238Y-155381571D01*
X402915476Y-155286333D01*
X402963095Y-155191095D01*
X403677380Y-156238714D02*
X403677380Y-156429190D01*
X403629761Y-156524428D01*
X403582142Y-156572047D01*
X403439285Y-156667285D01*
X403248809Y-156714904D01*
X402867857Y-156714904D01*
X402772619Y-156667285D01*
X402725000Y-156619666D01*
X402677380Y-156524428D01*
X402677380Y-156333952D01*
X402725000Y-156238714D01*
X402772619Y-156191095D01*
X402867857Y-156143476D01*
X403105952Y-156143476D01*
X403201190Y-156191095D01*
X403248809Y-156238714D01*
X403296428Y-156333952D01*
X403296428Y-156524428D01*
X403248809Y-156619666D01*
X403201190Y-156667285D01*
X403105952Y-156714904D01*
%TO.C,C20*%
X402911642Y-141323842D02*
X402959261Y-141276223D01*
X403006880Y-141133366D01*
X403006880Y-141038128D01*
X402959261Y-140895271D01*
X402864023Y-140800033D01*
X402768785Y-140752414D01*
X402578309Y-140704795D01*
X402435452Y-140704795D01*
X402244976Y-140752414D01*
X402149738Y-140800033D01*
X402054500Y-140895271D01*
X402006880Y-141038128D01*
X402006880Y-141133366D01*
X402054500Y-141276223D01*
X402102119Y-141323842D01*
X402102119Y-141704795D02*
X402054500Y-141752414D01*
X402006880Y-141847652D01*
X402006880Y-142085747D01*
X402054500Y-142180985D01*
X402102119Y-142228604D01*
X402197357Y-142276223D01*
X402292595Y-142276223D01*
X402435452Y-142228604D01*
X403006880Y-141657176D01*
X403006880Y-142276223D01*
X402006880Y-142895271D02*
X402006880Y-142990509D01*
X402054500Y-143085747D01*
X402102119Y-143133366D01*
X402197357Y-143180985D01*
X402387833Y-143228604D01*
X402625928Y-143228604D01*
X402816404Y-143180985D01*
X402911642Y-143133366D01*
X402959261Y-143085747D01*
X403006880Y-142990509D01*
X403006880Y-142895271D01*
X402959261Y-142800033D01*
X402911642Y-142752414D01*
X402816404Y-142704795D01*
X402625928Y-142657176D01*
X402387833Y-142657176D01*
X402197357Y-142704795D01*
X402102119Y-142752414D01*
X402054500Y-142800033D01*
X402006880Y-142895271D01*
%TO.C,C21*%
X395672642Y-139316142D02*
X395720261Y-139268523D01*
X395767880Y-139125666D01*
X395767880Y-139030428D01*
X395720261Y-138887571D01*
X395625023Y-138792333D01*
X395529785Y-138744714D01*
X395339309Y-138697095D01*
X395196452Y-138697095D01*
X395005976Y-138744714D01*
X394910738Y-138792333D01*
X394815500Y-138887571D01*
X394767880Y-139030428D01*
X394767880Y-139125666D01*
X394815500Y-139268523D01*
X394863119Y-139316142D01*
X394863119Y-139697095D02*
X394815500Y-139744714D01*
X394767880Y-139839952D01*
X394767880Y-140078047D01*
X394815500Y-140173285D01*
X394863119Y-140220904D01*
X394958357Y-140268523D01*
X395053595Y-140268523D01*
X395196452Y-140220904D01*
X395767880Y-139649476D01*
X395767880Y-140268523D01*
X395767880Y-141220904D02*
X395767880Y-140649476D01*
X395767880Y-140935190D02*
X394767880Y-140935190D01*
X394910738Y-140839952D01*
X395005976Y-140744714D01*
X395053595Y-140649476D01*
%TO.C,C22*%
X400023642Y-139316142D02*
X400071261Y-139268523D01*
X400118880Y-139125666D01*
X400118880Y-139030428D01*
X400071261Y-138887571D01*
X399976023Y-138792333D01*
X399880785Y-138744714D01*
X399690309Y-138697095D01*
X399547452Y-138697095D01*
X399356976Y-138744714D01*
X399261738Y-138792333D01*
X399166500Y-138887571D01*
X399118880Y-139030428D01*
X399118880Y-139125666D01*
X399166500Y-139268523D01*
X399214119Y-139316142D01*
X399214119Y-139697095D02*
X399166500Y-139744714D01*
X399118880Y-139839952D01*
X399118880Y-140078047D01*
X399166500Y-140173285D01*
X399214119Y-140220904D01*
X399309357Y-140268523D01*
X399404595Y-140268523D01*
X399547452Y-140220904D01*
X400118880Y-139649476D01*
X400118880Y-140268523D01*
X399214119Y-140649476D02*
X399166500Y-140697095D01*
X399118880Y-140792333D01*
X399118880Y-141030428D01*
X399166500Y-141125666D01*
X399214119Y-141173285D01*
X399309357Y-141220904D01*
X399404595Y-141220904D01*
X399547452Y-141173285D01*
X400118880Y-140601857D01*
X400118880Y-141220904D01*
%TO.C,FB2*%
X457128571Y-141914666D02*
X457128571Y-141581333D01*
X457652380Y-141581333D02*
X456652380Y-141581333D01*
X456652380Y-142057523D01*
X457128571Y-142771809D02*
X457176190Y-142914666D01*
X457223809Y-142962285D01*
X457319047Y-143009904D01*
X457461904Y-143009904D01*
X457557142Y-142962285D01*
X457604761Y-142914666D01*
X457652380Y-142819428D01*
X457652380Y-142438476D01*
X456652380Y-142438476D01*
X456652380Y-142771809D01*
X456700000Y-142867047D01*
X456747619Y-142914666D01*
X456842857Y-142962285D01*
X456938095Y-142962285D01*
X457033333Y-142914666D01*
X457080952Y-142867047D01*
X457128571Y-142771809D01*
X457128571Y-142438476D01*
X456747619Y-143390857D02*
X456700000Y-143438476D01*
X456652380Y-143533714D01*
X456652380Y-143771809D01*
X456700000Y-143867047D01*
X456747619Y-143914666D01*
X456842857Y-143962285D01*
X456938095Y-143962285D01*
X457080952Y-143914666D01*
X457652380Y-143343238D01*
X457652380Y-143962285D01*
%TO.C,R27*%
X440634380Y-143612490D02*
X440158190Y-143279157D01*
X440634380Y-143041062D02*
X439634380Y-143041062D01*
X439634380Y-143422014D01*
X439682000Y-143517252D01*
X439729619Y-143564871D01*
X439824857Y-143612490D01*
X439967714Y-143612490D01*
X440062952Y-143564871D01*
X440110571Y-143517252D01*
X440158190Y-143422014D01*
X440158190Y-143041062D01*
X439729619Y-143993443D02*
X439682000Y-144041062D01*
X439634380Y-144136300D01*
X439634380Y-144374395D01*
X439682000Y-144469633D01*
X439729619Y-144517252D01*
X439824857Y-144564871D01*
X439920095Y-144564871D01*
X440062952Y-144517252D01*
X440634380Y-143945824D01*
X440634380Y-144564871D01*
X439634380Y-144898205D02*
X439634380Y-145564871D01*
X440634380Y-145136300D01*
%TO.C,R13*%
X362022380Y-163469142D02*
X361546190Y-163135809D01*
X362022380Y-162897714D02*
X361022380Y-162897714D01*
X361022380Y-163278666D01*
X361070000Y-163373904D01*
X361117619Y-163421523D01*
X361212857Y-163469142D01*
X361355714Y-163469142D01*
X361450952Y-163421523D01*
X361498571Y-163373904D01*
X361546190Y-163278666D01*
X361546190Y-162897714D01*
X362022380Y-164421523D02*
X362022380Y-163850095D01*
X362022380Y-164135809D02*
X361022380Y-164135809D01*
X361165238Y-164040571D01*
X361260476Y-163945333D01*
X361308095Y-163850095D01*
X361022380Y-164754857D02*
X361022380Y-165373904D01*
X361403333Y-165040571D01*
X361403333Y-165183428D01*
X361450952Y-165278666D01*
X361498571Y-165326285D01*
X361593809Y-165373904D01*
X361831904Y-165373904D01*
X361927142Y-165326285D01*
X361974761Y-165278666D01*
X362022380Y-165183428D01*
X362022380Y-164897714D01*
X361974761Y-164802476D01*
X361927142Y-164754857D01*
%TO.C,R15*%
X380746380Y-159647142D02*
X380270190Y-159313809D01*
X380746380Y-159075714D02*
X379746380Y-159075714D01*
X379746380Y-159456666D01*
X379794000Y-159551904D01*
X379841619Y-159599523D01*
X379936857Y-159647142D01*
X380079714Y-159647142D01*
X380174952Y-159599523D01*
X380222571Y-159551904D01*
X380270190Y-159456666D01*
X380270190Y-159075714D01*
X380746380Y-160599523D02*
X380746380Y-160028095D01*
X380746380Y-160313809D02*
X379746380Y-160313809D01*
X379889238Y-160218571D01*
X379984476Y-160123333D01*
X380032095Y-160028095D01*
X379746380Y-161504285D02*
X379746380Y-161028095D01*
X380222571Y-160980476D01*
X380174952Y-161028095D01*
X380127333Y-161123333D01*
X380127333Y-161361428D01*
X380174952Y-161456666D01*
X380222571Y-161504285D01*
X380317809Y-161551904D01*
X380555904Y-161551904D01*
X380651142Y-161504285D01*
X380698761Y-161456666D01*
X380746380Y-161361428D01*
X380746380Y-161123333D01*
X380698761Y-161028095D01*
X380651142Y-160980476D01*
%TO.C,R16*%
X360244380Y-246245142D02*
X359768190Y-245911809D01*
X360244380Y-245673714D02*
X359244380Y-245673714D01*
X359244380Y-246054666D01*
X359292000Y-246149904D01*
X359339619Y-246197523D01*
X359434857Y-246245142D01*
X359577714Y-246245142D01*
X359672952Y-246197523D01*
X359720571Y-246149904D01*
X359768190Y-246054666D01*
X359768190Y-245673714D01*
X360244380Y-247197523D02*
X360244380Y-246626095D01*
X360244380Y-246911809D02*
X359244380Y-246911809D01*
X359387238Y-246816571D01*
X359482476Y-246721333D01*
X359530095Y-246626095D01*
X359244380Y-248054666D02*
X359244380Y-247864190D01*
X359292000Y-247768952D01*
X359339619Y-247721333D01*
X359482476Y-247626095D01*
X359672952Y-247578476D01*
X360053904Y-247578476D01*
X360149142Y-247626095D01*
X360196761Y-247673714D01*
X360244380Y-247768952D01*
X360244380Y-247959428D01*
X360196761Y-248054666D01*
X360149142Y-248102285D01*
X360053904Y-248149904D01*
X359815809Y-248149904D01*
X359720571Y-248102285D01*
X359672952Y-248054666D01*
X359625333Y-247959428D01*
X359625333Y-247768952D01*
X359672952Y-247673714D01*
X359720571Y-247626095D01*
X359815809Y-247578476D01*
%TO.C,R19*%
X407487380Y-158107142D02*
X407011190Y-157773809D01*
X407487380Y-157535714D02*
X406487380Y-157535714D01*
X406487380Y-157916666D01*
X406535000Y-158011904D01*
X406582619Y-158059523D01*
X406677857Y-158107142D01*
X406820714Y-158107142D01*
X406915952Y-158059523D01*
X406963571Y-158011904D01*
X407011190Y-157916666D01*
X407011190Y-157535714D01*
X407487380Y-159059523D02*
X407487380Y-158488095D01*
X407487380Y-158773809D02*
X406487380Y-158773809D01*
X406630238Y-158678571D01*
X406725476Y-158583333D01*
X406773095Y-158488095D01*
X407487380Y-159535714D02*
X407487380Y-159726190D01*
X407439761Y-159821428D01*
X407392142Y-159869047D01*
X407249285Y-159964285D01*
X407058809Y-160011904D01*
X406677857Y-160011904D01*
X406582619Y-159964285D01*
X406535000Y-159916666D01*
X406487380Y-159821428D01*
X406487380Y-159630952D01*
X406535000Y-159535714D01*
X406582619Y-159488095D01*
X406677857Y-159440476D01*
X406915952Y-159440476D01*
X407011190Y-159488095D01*
X407058809Y-159535714D01*
X407106428Y-159630952D01*
X407106428Y-159821428D01*
X407058809Y-159916666D01*
X407011190Y-159964285D01*
X406915952Y-160011904D01*
%TO.C,R20*%
X422474380Y-158123142D02*
X421998190Y-157789809D01*
X422474380Y-157551714D02*
X421474380Y-157551714D01*
X421474380Y-157932666D01*
X421522000Y-158027904D01*
X421569619Y-158075523D01*
X421664857Y-158123142D01*
X421807714Y-158123142D01*
X421902952Y-158075523D01*
X421950571Y-158027904D01*
X421998190Y-157932666D01*
X421998190Y-157551714D01*
X421569619Y-158504095D02*
X421522000Y-158551714D01*
X421474380Y-158646952D01*
X421474380Y-158885047D01*
X421522000Y-158980285D01*
X421569619Y-159027904D01*
X421664857Y-159075523D01*
X421760095Y-159075523D01*
X421902952Y-159027904D01*
X422474380Y-158456476D01*
X422474380Y-159075523D01*
X421474380Y-159694571D02*
X421474380Y-159789809D01*
X421522000Y-159885047D01*
X421569619Y-159932666D01*
X421664857Y-159980285D01*
X421855333Y-160027904D01*
X422093428Y-160027904D01*
X422283904Y-159980285D01*
X422379142Y-159932666D01*
X422426761Y-159885047D01*
X422474380Y-159789809D01*
X422474380Y-159694571D01*
X422426761Y-159599333D01*
X422379142Y-159551714D01*
X422283904Y-159504095D01*
X422093428Y-159456476D01*
X421855333Y-159456476D01*
X421664857Y-159504095D01*
X421569619Y-159551714D01*
X421522000Y-159599333D01*
X421474380Y-159694571D01*
%TO.C,R23*%
X389199380Y-140597142D02*
X388723190Y-140263809D01*
X389199380Y-140025714D02*
X388199380Y-140025714D01*
X388199380Y-140406666D01*
X388247000Y-140501904D01*
X388294619Y-140549523D01*
X388389857Y-140597142D01*
X388532714Y-140597142D01*
X388627952Y-140549523D01*
X388675571Y-140501904D01*
X388723190Y-140406666D01*
X388723190Y-140025714D01*
X388294619Y-140978095D02*
X388247000Y-141025714D01*
X388199380Y-141120952D01*
X388199380Y-141359047D01*
X388247000Y-141454285D01*
X388294619Y-141501904D01*
X388389857Y-141549523D01*
X388485095Y-141549523D01*
X388627952Y-141501904D01*
X389199380Y-140930476D01*
X389199380Y-141549523D01*
X388199380Y-141882857D02*
X388199380Y-142501904D01*
X388580333Y-142168571D01*
X388580333Y-142311428D01*
X388627952Y-142406666D01*
X388675571Y-142454285D01*
X388770809Y-142501904D01*
X389008904Y-142501904D01*
X389104142Y-142454285D01*
X389151761Y-142406666D01*
X389199380Y-142311428D01*
X389199380Y-142025714D01*
X389151761Y-141930476D01*
X389104142Y-141882857D01*
%TO.C,R24*%
X441016380Y-167759142D02*
X440540190Y-167425809D01*
X441016380Y-167187714D02*
X440016380Y-167187714D01*
X440016380Y-167568666D01*
X440064000Y-167663904D01*
X440111619Y-167711523D01*
X440206857Y-167759142D01*
X440349714Y-167759142D01*
X440444952Y-167711523D01*
X440492571Y-167663904D01*
X440540190Y-167568666D01*
X440540190Y-167187714D01*
X440111619Y-168140095D02*
X440064000Y-168187714D01*
X440016380Y-168282952D01*
X440016380Y-168521047D01*
X440064000Y-168616285D01*
X440111619Y-168663904D01*
X440206857Y-168711523D01*
X440302095Y-168711523D01*
X440444952Y-168663904D01*
X441016380Y-168092476D01*
X441016380Y-168711523D01*
X440349714Y-169568666D02*
X441016380Y-169568666D01*
X439968761Y-169330571D02*
X440683047Y-169092476D01*
X440683047Y-169711523D01*
%TO.C,R25*%
X460192380Y-167505142D02*
X459716190Y-167171809D01*
X460192380Y-166933714D02*
X459192380Y-166933714D01*
X459192380Y-167314666D01*
X459240000Y-167409904D01*
X459287619Y-167457523D01*
X459382857Y-167505142D01*
X459525714Y-167505142D01*
X459620952Y-167457523D01*
X459668571Y-167409904D01*
X459716190Y-167314666D01*
X459716190Y-166933714D01*
X459287619Y-167886095D02*
X459240000Y-167933714D01*
X459192380Y-168028952D01*
X459192380Y-168267047D01*
X459240000Y-168362285D01*
X459287619Y-168409904D01*
X459382857Y-168457523D01*
X459478095Y-168457523D01*
X459620952Y-168409904D01*
X460192380Y-167838476D01*
X460192380Y-168457523D01*
X459192380Y-169362285D02*
X459192380Y-168886095D01*
X459668571Y-168838476D01*
X459620952Y-168886095D01*
X459573333Y-168981333D01*
X459573333Y-169219428D01*
X459620952Y-169314666D01*
X459668571Y-169362285D01*
X459763809Y-169409904D01*
X460001904Y-169409904D01*
X460097142Y-169362285D01*
X460144761Y-169314666D01*
X460192380Y-169219428D01*
X460192380Y-168981333D01*
X460144761Y-168886095D01*
X460097142Y-168838476D01*
%TO.C,R26*%
X483306380Y-153043142D02*
X482830190Y-152709809D01*
X483306380Y-152471714D02*
X482306380Y-152471714D01*
X482306380Y-152852666D01*
X482354000Y-152947904D01*
X482401619Y-152995523D01*
X482496857Y-153043142D01*
X482639714Y-153043142D01*
X482734952Y-152995523D01*
X482782571Y-152947904D01*
X482830190Y-152852666D01*
X482830190Y-152471714D01*
X482401619Y-153424095D02*
X482354000Y-153471714D01*
X482306380Y-153566952D01*
X482306380Y-153805047D01*
X482354000Y-153900285D01*
X482401619Y-153947904D01*
X482496857Y-153995523D01*
X482592095Y-153995523D01*
X482734952Y-153947904D01*
X483306380Y-153376476D01*
X483306380Y-153995523D01*
X482306380Y-154852666D02*
X482306380Y-154662190D01*
X482354000Y-154566952D01*
X482401619Y-154519333D01*
X482544476Y-154424095D01*
X482734952Y-154376476D01*
X483115904Y-154376476D01*
X483211142Y-154424095D01*
X483258761Y-154471714D01*
X483306380Y-154566952D01*
X483306380Y-154757428D01*
X483258761Y-154852666D01*
X483211142Y-154900285D01*
X483115904Y-154947904D01*
X482877809Y-154947904D01*
X482782571Y-154900285D01*
X482734952Y-154852666D01*
X482687333Y-154757428D01*
X482687333Y-154566952D01*
X482734952Y-154471714D01*
X482782571Y-154424095D01*
X482877809Y-154376476D01*
%TO.C,SW3*%
X364647333Y-154249761D02*
X364504476Y-154297380D01*
X364266380Y-154297380D01*
X364171142Y-154249761D01*
X364123523Y-154202142D01*
X364075904Y-154106904D01*
X364075904Y-154011666D01*
X364123523Y-153916428D01*
X364171142Y-153868809D01*
X364266380Y-153821190D01*
X364456857Y-153773571D01*
X364552095Y-153725952D01*
X364599714Y-153678333D01*
X364647333Y-153583095D01*
X364647333Y-153487857D01*
X364599714Y-153392619D01*
X364552095Y-153345000D01*
X364456857Y-153297380D01*
X364218761Y-153297380D01*
X364075904Y-153345000D01*
X363742571Y-153297380D02*
X363504476Y-154297380D01*
X363314000Y-153583095D01*
X363123523Y-154297380D01*
X362885428Y-153297380D01*
X362599714Y-153297380D02*
X361980666Y-153297380D01*
X362314000Y-153678333D01*
X362171142Y-153678333D01*
X362075904Y-153725952D01*
X362028285Y-153773571D01*
X361980666Y-153868809D01*
X361980666Y-154106904D01*
X362028285Y-154202142D01*
X362075904Y-154249761D01*
X362171142Y-154297380D01*
X362456857Y-154297380D01*
X362552095Y-154249761D01*
X362599714Y-154202142D01*
%TO.C,SW4*%
X378955083Y-155566761D02*
X378812226Y-155614380D01*
X378574130Y-155614380D01*
X378478892Y-155566761D01*
X378431273Y-155519142D01*
X378383654Y-155423904D01*
X378383654Y-155328666D01*
X378431273Y-155233428D01*
X378478892Y-155185809D01*
X378574130Y-155138190D01*
X378764607Y-155090571D01*
X378859845Y-155042952D01*
X378907464Y-154995333D01*
X378955083Y-154900095D01*
X378955083Y-154804857D01*
X378907464Y-154709619D01*
X378859845Y-154662000D01*
X378764607Y-154614380D01*
X378526511Y-154614380D01*
X378383654Y-154662000D01*
X378050321Y-154614380D02*
X377812226Y-155614380D01*
X377621750Y-154900095D01*
X377431273Y-155614380D01*
X377193178Y-154614380D01*
X376383654Y-154947714D02*
X376383654Y-155614380D01*
X376621750Y-154566761D02*
X376859845Y-155281047D01*
X376240797Y-155281047D01*
%TO.C,U3*%
X465232380Y-144353095D02*
X466041904Y-144353095D01*
X466137142Y-144400714D01*
X466184761Y-144448333D01*
X466232380Y-144543571D01*
X466232380Y-144734047D01*
X466184761Y-144829285D01*
X466137142Y-144876904D01*
X466041904Y-144924523D01*
X465232380Y-144924523D01*
X465232380Y-145305476D02*
X465232380Y-145924523D01*
X465613333Y-145591190D01*
X465613333Y-145734047D01*
X465660952Y-145829285D01*
X465708571Y-145876904D01*
X465803809Y-145924523D01*
X466041904Y-145924523D01*
X466137142Y-145876904D01*
X466184761Y-145829285D01*
X466232380Y-145734047D01*
X466232380Y-145448333D01*
X466184761Y-145353095D01*
X466137142Y-145305476D01*
%TO.C,D66*%
X449143380Y-141279714D02*
X448143380Y-141279714D01*
X448143380Y-141517809D01*
X448191000Y-141660666D01*
X448286238Y-141755904D01*
X448381476Y-141803523D01*
X448571952Y-141851142D01*
X448714809Y-141851142D01*
X448905285Y-141803523D01*
X449000523Y-141755904D01*
X449095761Y-141660666D01*
X449143380Y-141517809D01*
X449143380Y-141279714D01*
X448143380Y-142708285D02*
X448143380Y-142517809D01*
X448191000Y-142422571D01*
X448238619Y-142374952D01*
X448381476Y-142279714D01*
X448571952Y-142232095D01*
X448952904Y-142232095D01*
X449048142Y-142279714D01*
X449095761Y-142327333D01*
X449143380Y-142422571D01*
X449143380Y-142613047D01*
X449095761Y-142708285D01*
X449048142Y-142755904D01*
X448952904Y-142803523D01*
X448714809Y-142803523D01*
X448619571Y-142755904D01*
X448571952Y-142708285D01*
X448524333Y-142613047D01*
X448524333Y-142422571D01*
X448571952Y-142327333D01*
X448619571Y-142279714D01*
X448714809Y-142232095D01*
X448143380Y-143660666D02*
X448143380Y-143470190D01*
X448191000Y-143374952D01*
X448238619Y-143327333D01*
X448381476Y-143232095D01*
X448571952Y-143184476D01*
X448952904Y-143184476D01*
X449048142Y-143232095D01*
X449095761Y-143279714D01*
X449143380Y-143374952D01*
X449143380Y-143565428D01*
X449095761Y-143660666D01*
X449048142Y-143708285D01*
X448952904Y-143755904D01*
X448714809Y-143755904D01*
X448619571Y-143708285D01*
X448571952Y-143660666D01*
X448524333Y-143565428D01*
X448524333Y-143374952D01*
X448571952Y-143279714D01*
X448619571Y-143232095D01*
X448714809Y-143184476D01*
%TO.C,F2*%
X462678333Y-137850571D02*
X463011666Y-137850571D01*
X463011666Y-138374380D02*
X463011666Y-137374380D01*
X462535476Y-137374380D01*
X462202142Y-137469619D02*
X462154523Y-137422000D01*
X462059285Y-137374380D01*
X461821190Y-137374380D01*
X461725952Y-137422000D01*
X461678333Y-137469619D01*
X461630714Y-137564857D01*
X461630714Y-137660095D01*
X461678333Y-137802952D01*
X462249761Y-138374380D01*
X461630714Y-138374380D01*
%TO.C,D77*%
X444402380Y-143311714D02*
X443402380Y-143311714D01*
X443402380Y-143549809D01*
X443450000Y-143692666D01*
X443545238Y-143787904D01*
X443640476Y-143835523D01*
X443830952Y-143883142D01*
X443973809Y-143883142D01*
X444164285Y-143835523D01*
X444259523Y-143787904D01*
X444354761Y-143692666D01*
X444402380Y-143549809D01*
X444402380Y-143311714D01*
X443402380Y-144216476D02*
X443402380Y-144883142D01*
X444402380Y-144454571D01*
X443402380Y-145168857D02*
X443402380Y-145835523D01*
X444402380Y-145406952D01*
D11*
%TO.C,S35*%
X354184838Y-172912500D02*
X350680000Y-172912500D01*
X350680000Y-172912500D02*
X350299000Y-172912500D01*
X352839000Y-166562500D02*
X361729000Y-166562500D01*
X350299000Y-172531500D02*
X350299000Y-172912500D01*
X361729000Y-171007500D02*
X356649000Y-171007500D01*
X361729000Y-169991500D02*
X361729000Y-171007500D01*
X361729000Y-166562500D02*
X361729000Y-166943500D01*
X350299000Y-169102500D02*
X350299000Y-169483500D01*
X356649000Y-171007499D02*
G75*
G03*
X354184838Y-172931460I0J-2540000D01*
G01*
X352839000Y-166562500D02*
G75*
G03*
X350299000Y-169102500I1J-2540001D01*
G01*
%TO.C,S44*%
X349031805Y-255347995D02*
X349097965Y-255723207D01*
X349627244Y-258724901D02*
X349693404Y-259100113D01*
X353520208Y-258425344D02*
X350068616Y-259033953D01*
X360618957Y-255239256D02*
X355616134Y-256121388D01*
X360442530Y-254238691D02*
X360618957Y-255239256D01*
X350068616Y-259033953D02*
X349693404Y-259100113D01*
X351092150Y-252405517D02*
X359847091Y-250861785D01*
X359847091Y-250861785D02*
X359913251Y-251236997D01*
X351092150Y-252405518D02*
G75*
G03*
X349031805Y-255347995I441067J-2501412D01*
G01*
X355616134Y-256121387D02*
G75*
G03*
X353523500Y-258444016I441066J-2501412D01*
G01*
%TO.C,S45*%
X331702278Y-276921295D02*
X331923255Y-277231666D01*
X335088744Y-274977910D02*
X332233626Y-277010689D01*
X330309444Y-270585636D02*
X337551433Y-265429505D01*
X339540227Y-268222843D02*
X340129499Y-269050499D01*
X340129499Y-269050499D02*
X335991220Y-271996860D01*
X332233626Y-277010689D02*
X331923255Y-277231666D01*
X337551433Y-265429505D02*
X337772411Y-265739876D01*
X329713485Y-274127956D02*
X329934462Y-274438327D01*
X335991220Y-271996860D02*
G75*
G03*
X335099741Y-274993355I1473179J-2069139D01*
G01*
X330309444Y-270585636D02*
G75*
G03*
X329713485Y-274127956I1473182J-2069140D01*
G01*
%TO.C,S46*%
X323109574Y-300457006D02*
X322919074Y-300786961D01*
X323134813Y-287713291D02*
X323464768Y-287903791D01*
X318689813Y-295412257D02*
X323134813Y-287713291D01*
X319619517Y-298881961D02*
X319949473Y-299072461D01*
X322589118Y-300596461D02*
X322919074Y-300786961D01*
X324861993Y-297421727D02*
X323109574Y-300457006D01*
X326984295Y-289935791D02*
X324444295Y-294335200D01*
X326104414Y-289427791D02*
X326984295Y-289935791D01*
X318689812Y-295412256D02*
G75*
G03*
X319619517Y-298881961I2199706J-1270000D01*
G01*
X324444294Y-294335200D02*
G75*
G03*
X324878413Y-297431207I2199705J-1269999D01*
G01*
D10*
%TO.C,S71*%
X455455000Y-253112500D02*
X455074000Y-253112500D01*
X455074000Y-249302500D02*
X455074000Y-249683500D01*
X455074000Y-252731500D02*
X455074000Y-253112500D01*
X466504000Y-246762500D02*
X466504000Y-247143500D01*
X458959838Y-253112500D02*
X455455000Y-253112500D01*
X466504000Y-250191500D02*
X466504000Y-251207500D01*
X457614000Y-246762500D02*
X466504000Y-246762500D01*
X466504000Y-251207500D02*
X461424000Y-251207500D01*
X461424000Y-251207499D02*
G75*
G03*
X458959838Y-253131460I0J-2540000D01*
G01*
X457614000Y-246762500D02*
G75*
G03*
X455074000Y-249302500I1J-2540001D01*
G01*
D11*
%TO.C,S39*%
X380779000Y-167007500D02*
X375699000Y-167007500D01*
X380779000Y-162562500D02*
X380779000Y-162943500D01*
X369730000Y-168912500D02*
X369349000Y-168912500D01*
X380779000Y-165991500D02*
X380779000Y-167007500D01*
X373234838Y-168912500D02*
X369730000Y-168912500D01*
X369349000Y-168531500D02*
X369349000Y-168912500D01*
X371889000Y-162562500D02*
X380779000Y-162562500D01*
X369349000Y-165102500D02*
X369349000Y-165483500D01*
X375699000Y-167007499D02*
G75*
G03*
X373234838Y-168931460I0J-2540000D01*
G01*
X371889000Y-162562500D02*
G75*
G03*
X369349000Y-165102500I1J-2540001D01*
G01*
%TO.C,S47*%
X390939000Y-158562500D02*
X399829000Y-158562500D01*
X399829000Y-163007500D02*
X394749000Y-163007500D01*
X388399000Y-161102500D02*
X388399000Y-161483500D01*
X399829000Y-158562500D02*
X399829000Y-158943500D01*
X388399000Y-164531500D02*
X388399000Y-164912500D01*
X399829000Y-161991500D02*
X399829000Y-163007500D01*
X388780000Y-164912500D02*
X388399000Y-164912500D01*
X392284838Y-164912500D02*
X388780000Y-164912500D01*
X394749000Y-163007499D02*
G75*
G03*
X392284838Y-164931460I0J-2540000D01*
G01*
X390939000Y-158562500D02*
G75*
G03*
X388399000Y-161102500I1J-2540001D01*
G01*
%TO.C,S52*%
X409989000Y-160562500D02*
X418879000Y-160562500D01*
X418879000Y-165007500D02*
X413799000Y-165007500D01*
X407830000Y-166912500D02*
X407449000Y-166912500D01*
X411334838Y-166912500D02*
X407830000Y-166912500D01*
X418879000Y-160562500D02*
X418879000Y-160943500D01*
X407449000Y-166531500D02*
X407449000Y-166912500D01*
X407449000Y-163102500D02*
X407449000Y-163483500D01*
X418879000Y-163991500D02*
X418879000Y-165007500D01*
X413799000Y-165007499D02*
G75*
G03*
X411334838Y-166931460I0J-2540000D01*
G01*
X409989000Y-160562500D02*
G75*
G03*
X407449000Y-163102500I1J-2540001D01*
G01*
%TO.C,S57*%
X430384838Y-176912500D02*
X426880000Y-176912500D01*
X429039000Y-170562500D02*
X437929000Y-170562500D01*
X437929000Y-170562500D02*
X437929000Y-170943500D01*
X426880000Y-176912500D02*
X426499000Y-176912500D01*
X426499000Y-176531500D02*
X426499000Y-176912500D01*
X437929000Y-175007500D02*
X432849000Y-175007500D01*
X426499000Y-173102500D02*
X426499000Y-173483500D01*
X437929000Y-173991500D02*
X437929000Y-175007500D01*
X432849000Y-175007499D02*
G75*
G03*
X430384838Y-176931460I0J-2540000D01*
G01*
X429039000Y-170562500D02*
G75*
G03*
X426499000Y-173102500I1J-2540001D01*
G01*
%TO.C,S62*%
X447454000Y-154941500D02*
X447454000Y-155957500D01*
X447454000Y-155957500D02*
X442374000Y-155957500D01*
X436024000Y-154052500D02*
X436024000Y-154433500D01*
X447454000Y-151512500D02*
X447454000Y-151893500D01*
X436405000Y-157862500D02*
X436024000Y-157862500D01*
X436024000Y-157481500D02*
X436024000Y-157862500D01*
X438564000Y-151512500D02*
X447454000Y-151512500D01*
X439909838Y-157862500D02*
X436405000Y-157862500D01*
X442374000Y-155957499D02*
G75*
G03*
X439909838Y-157881460I0J-2540000D01*
G01*
X438564000Y-151512500D02*
G75*
G03*
X436024000Y-154052500I1J-2540001D01*
G01*
%TO.C,S67*%
X464599000Y-157481500D02*
X464599000Y-157862500D01*
X468484838Y-157862500D02*
X464980000Y-157862500D01*
X467139000Y-151512500D02*
X476029000Y-151512500D01*
X476029000Y-151512500D02*
X476029000Y-151893500D01*
X464599000Y-154052500D02*
X464599000Y-154433500D01*
X464980000Y-157862500D02*
X464599000Y-157862500D01*
X476029000Y-154941500D02*
X476029000Y-155957500D01*
X476029000Y-155957500D02*
X470949000Y-155957500D01*
X467139000Y-151512500D02*
G75*
G03*
X464599000Y-154052500I1J-2540001D01*
G01*
X470949000Y-155957499D02*
G75*
G03*
X468484838Y-157881460I0J-2540000D01*
G01*
%TO.C,S36*%
X350299000Y-191581500D02*
X350299000Y-191962500D01*
X352839000Y-185612500D02*
X361729000Y-185612500D01*
X350680000Y-191962500D02*
X350299000Y-191962500D01*
X361729000Y-185612500D02*
X361729000Y-185993500D01*
X354184838Y-191962500D02*
X350680000Y-191962500D01*
X350299000Y-188152500D02*
X350299000Y-188533500D01*
X361729000Y-190057500D02*
X356649000Y-190057500D01*
X361729000Y-189041500D02*
X361729000Y-190057500D01*
X352839000Y-185612500D02*
G75*
G03*
X350299000Y-188152500I1J-2540001D01*
G01*
X356649000Y-190057499D02*
G75*
G03*
X354184838Y-191981460I0J-2540000D01*
G01*
%TO.C,S40*%
X369349000Y-187581500D02*
X369349000Y-187962500D01*
X380779000Y-185041500D02*
X380779000Y-186057500D01*
X373234838Y-187962500D02*
X369730000Y-187962500D01*
X380779000Y-181612500D02*
X380779000Y-181993500D01*
X369349000Y-184152500D02*
X369349000Y-184533500D01*
X371889000Y-181612500D02*
X380779000Y-181612500D01*
X369730000Y-187962500D02*
X369349000Y-187962500D01*
X380779000Y-186057500D02*
X375699000Y-186057500D01*
X375699000Y-186057499D02*
G75*
G03*
X373234838Y-187981460I0J-2540000D01*
G01*
X371889000Y-181612500D02*
G75*
G03*
X369349000Y-184152500I1J-2540001D01*
G01*
%TO.C,S48*%
X390939000Y-177612500D02*
X399829000Y-177612500D01*
X388399000Y-183581500D02*
X388399000Y-183962500D01*
X399829000Y-181041500D02*
X399829000Y-182057500D01*
X388780000Y-183962500D02*
X388399000Y-183962500D01*
X388399000Y-180152500D02*
X388399000Y-180533500D01*
X399829000Y-177612500D02*
X399829000Y-177993500D01*
X392284838Y-183962500D02*
X388780000Y-183962500D01*
X399829000Y-182057500D02*
X394749000Y-182057500D01*
X390939000Y-177612500D02*
G75*
G03*
X388399000Y-180152500I1J-2540001D01*
G01*
X394749000Y-182057499D02*
G75*
G03*
X392284838Y-183981460I0J-2540000D01*
G01*
%TO.C,S53*%
X418879000Y-184057500D02*
X413799000Y-184057500D01*
X409989000Y-179612500D02*
X418879000Y-179612500D01*
X407830000Y-185962500D02*
X407449000Y-185962500D01*
X411334838Y-185962500D02*
X407830000Y-185962500D01*
X407449000Y-182152500D02*
X407449000Y-182533500D01*
X418879000Y-183041500D02*
X418879000Y-184057500D01*
X418879000Y-179612500D02*
X418879000Y-179993500D01*
X407449000Y-185581500D02*
X407449000Y-185962500D01*
X409989000Y-179612500D02*
G75*
G03*
X407449000Y-182152500I1J-2540001D01*
G01*
X413799000Y-184057499D02*
G75*
G03*
X411334838Y-185981460I0J-2540000D01*
G01*
%TO.C,S58*%
X426880000Y-195962500D02*
X426499000Y-195962500D01*
X430384838Y-195962500D02*
X426880000Y-195962500D01*
X426499000Y-195581500D02*
X426499000Y-195962500D01*
X437929000Y-194057500D02*
X432849000Y-194057500D01*
X437929000Y-193041500D02*
X437929000Y-194057500D01*
X429039000Y-189612500D02*
X437929000Y-189612500D01*
X426499000Y-192152500D02*
X426499000Y-192533500D01*
X437929000Y-189612500D02*
X437929000Y-189993500D01*
X432849000Y-194057499D02*
G75*
G03*
X430384838Y-195981460I0J-2540000D01*
G01*
X429039000Y-189612500D02*
G75*
G03*
X426499000Y-192152500I1J-2540001D01*
G01*
%TO.C,S63*%
X448089000Y-170562500D02*
X456979000Y-170562500D01*
X456979000Y-170562500D02*
X456979000Y-170943500D01*
X456979000Y-173991500D02*
X456979000Y-175007500D01*
X445930000Y-176912500D02*
X445549000Y-176912500D01*
X445549000Y-173102500D02*
X445549000Y-173483500D01*
X449434838Y-176912500D02*
X445930000Y-176912500D01*
X456979000Y-175007500D02*
X451899000Y-175007500D01*
X445549000Y-176531500D02*
X445549000Y-176912500D01*
X448089000Y-170562500D02*
G75*
G03*
X445549000Y-173102500I1J-2540001D01*
G01*
X451899000Y-175007499D02*
G75*
G03*
X449434838Y-176931460I0J-2540000D01*
G01*
%TO.C,S68*%
X464599000Y-176531500D02*
X464599000Y-176912500D01*
X468484838Y-176912500D02*
X464980000Y-176912500D01*
X476029000Y-173991500D02*
X476029000Y-175007500D01*
X464980000Y-176912500D02*
X464599000Y-176912500D01*
X464599000Y-173102500D02*
X464599000Y-173483500D01*
X467139000Y-170562500D02*
X476029000Y-170562500D01*
X476029000Y-175007500D02*
X470949000Y-175007500D01*
X476029000Y-170562500D02*
X476029000Y-170943500D01*
X467139000Y-170562500D02*
G75*
G03*
X464599000Y-173102500I1J-2540001D01*
G01*
X470949000Y-175007499D02*
G75*
G03*
X468484838Y-176931460I0J-2540000D01*
G01*
%TO.C,S37*%
X352839000Y-204662500D02*
X361729000Y-204662500D01*
X361729000Y-208091500D02*
X361729000Y-209107500D01*
X361729000Y-204662500D02*
X361729000Y-205043500D01*
X361729000Y-209107500D02*
X356649000Y-209107500D01*
X350680000Y-211012500D02*
X350299000Y-211012500D01*
X350299000Y-207202500D02*
X350299000Y-207583500D01*
X350299000Y-210631500D02*
X350299000Y-211012500D01*
X354184838Y-211012500D02*
X350680000Y-211012500D01*
X352839000Y-204662500D02*
G75*
G03*
X350299000Y-207202500I1J-2540001D01*
G01*
X356649000Y-209107499D02*
G75*
G03*
X354184838Y-211031460I0J-2540000D01*
G01*
%TO.C,S41*%
X380779000Y-204091500D02*
X380779000Y-205107500D01*
X369349000Y-206631500D02*
X369349000Y-207012500D01*
X380779000Y-205107500D02*
X375699000Y-205107500D01*
X371889000Y-200662500D02*
X380779000Y-200662500D01*
X369730000Y-207012500D02*
X369349000Y-207012500D01*
X380779000Y-200662500D02*
X380779000Y-201043500D01*
X369349000Y-203202500D02*
X369349000Y-203583500D01*
X373234838Y-207012500D02*
X369730000Y-207012500D01*
X375699000Y-205107499D02*
G75*
G03*
X373234838Y-207031460I0J-2540000D01*
G01*
X371889000Y-200662500D02*
G75*
G03*
X369349000Y-203202500I1J-2540001D01*
G01*
%TO.C,S49*%
X388399000Y-202631500D02*
X388399000Y-203012500D01*
X399829000Y-200091500D02*
X399829000Y-201107500D01*
X390939000Y-196662500D02*
X399829000Y-196662500D01*
X388780000Y-203012500D02*
X388399000Y-203012500D01*
X399829000Y-196662500D02*
X399829000Y-197043500D01*
X399829000Y-201107500D02*
X394749000Y-201107500D01*
X388399000Y-199202500D02*
X388399000Y-199583500D01*
X392284838Y-203012500D02*
X388780000Y-203012500D01*
X394749000Y-201107499D02*
G75*
G03*
X392284838Y-203031460I0J-2540000D01*
G01*
X390939000Y-196662500D02*
G75*
G03*
X388399000Y-199202500I1J-2540001D01*
G01*
%TO.C,S54*%
X418879000Y-198662500D02*
X418879000Y-199043500D01*
X418879000Y-203107500D02*
X413799000Y-203107500D01*
X418879000Y-202091500D02*
X418879000Y-203107500D01*
X407830000Y-205012500D02*
X407449000Y-205012500D01*
X407449000Y-201202500D02*
X407449000Y-201583500D01*
X409989000Y-198662500D02*
X418879000Y-198662500D01*
X411334838Y-205012500D02*
X407830000Y-205012500D01*
X407449000Y-204631500D02*
X407449000Y-205012500D01*
X413799000Y-203107499D02*
G75*
G03*
X411334838Y-205031460I0J-2540000D01*
G01*
X409989000Y-198662500D02*
G75*
G03*
X407449000Y-201202500I1J-2540001D01*
G01*
%TO.C,S59*%
X437929000Y-212091500D02*
X437929000Y-213107500D01*
X426499000Y-211202500D02*
X426499000Y-211583500D01*
X429039000Y-208662500D02*
X437929000Y-208662500D01*
X437929000Y-208662500D02*
X437929000Y-209043500D01*
X437929000Y-213107500D02*
X432849000Y-213107500D01*
X430384838Y-215012500D02*
X426880000Y-215012500D01*
X426880000Y-215012500D02*
X426499000Y-215012500D01*
X426499000Y-214631500D02*
X426499000Y-215012500D01*
X429039000Y-208662500D02*
G75*
G03*
X426499000Y-211202500I1J-2540001D01*
G01*
X432849000Y-213107499D02*
G75*
G03*
X430384838Y-215031460I0J-2540000D01*
G01*
%TO.C,S64*%
X456979000Y-189612500D02*
X456979000Y-189993500D01*
X449434838Y-195962500D02*
X445930000Y-195962500D01*
X445549000Y-195581500D02*
X445549000Y-195962500D01*
X456979000Y-193041500D02*
X456979000Y-194057500D01*
X456979000Y-194057500D02*
X451899000Y-194057500D01*
X448089000Y-189612500D02*
X456979000Y-189612500D01*
X445930000Y-195962500D02*
X445549000Y-195962500D01*
X445549000Y-192152500D02*
X445549000Y-192533500D01*
X451899000Y-194057499D02*
G75*
G03*
X449434838Y-195981460I0J-2540000D01*
G01*
X448089000Y-189612500D02*
G75*
G03*
X445549000Y-192152500I1J-2540001D01*
G01*
%TO.C,S69*%
X476029000Y-194057500D02*
X470949000Y-194057500D01*
X464980000Y-195962500D02*
X464599000Y-195962500D01*
X464599000Y-192152500D02*
X464599000Y-192533500D01*
X464599000Y-195581500D02*
X464599000Y-195962500D01*
X467139000Y-189612500D02*
X476029000Y-189612500D01*
X476029000Y-193041500D02*
X476029000Y-194057500D01*
X476029000Y-189612500D02*
X476029000Y-189993500D01*
X468484838Y-195962500D02*
X464980000Y-195962500D01*
X470949000Y-194057499D02*
G75*
G03*
X468484838Y-195981460I0J-2540000D01*
G01*
X467139000Y-189612500D02*
G75*
G03*
X464599000Y-192152500I1J-2540001D01*
G01*
%TO.C,S38*%
X352839000Y-223712500D02*
X361729000Y-223712500D01*
X361729000Y-228157500D02*
X356649000Y-228157500D01*
X350680000Y-230062500D02*
X350299000Y-230062500D01*
X354184838Y-230062500D02*
X350680000Y-230062500D01*
X361729000Y-223712500D02*
X361729000Y-224093500D01*
X350299000Y-226252500D02*
X350299000Y-226633500D01*
X361729000Y-227141500D02*
X361729000Y-228157500D01*
X350299000Y-229681500D02*
X350299000Y-230062500D01*
X352839000Y-223712500D02*
G75*
G03*
X350299000Y-226252500I1J-2540001D01*
G01*
X356649000Y-228157499D02*
G75*
G03*
X354184838Y-230081460I0J-2540000D01*
G01*
%TO.C,S42*%
X371889000Y-219712500D02*
X380779000Y-219712500D01*
X369349000Y-222252500D02*
X369349000Y-222633500D01*
X380779000Y-224157500D02*
X375699000Y-224157500D01*
X380779000Y-219712500D02*
X380779000Y-220093500D01*
X380779000Y-223141500D02*
X380779000Y-224157500D01*
X369730000Y-226062500D02*
X369349000Y-226062500D01*
X373234838Y-226062500D02*
X369730000Y-226062500D01*
X369349000Y-225681500D02*
X369349000Y-226062500D01*
X371889000Y-219712500D02*
G75*
G03*
X369349000Y-222252500I1J-2540001D01*
G01*
X375699000Y-224157499D02*
G75*
G03*
X373234838Y-226081460I0J-2540000D01*
G01*
%TO.C,S50*%
X399829000Y-220157500D02*
X394749000Y-220157500D01*
X388399000Y-218252500D02*
X388399000Y-218633500D01*
X399829000Y-219141500D02*
X399829000Y-220157500D01*
X392284838Y-222062500D02*
X388780000Y-222062500D01*
X388780000Y-222062500D02*
X388399000Y-222062500D01*
X390939000Y-215712500D02*
X399829000Y-215712500D01*
X388399000Y-221681500D02*
X388399000Y-222062500D01*
X399829000Y-215712500D02*
X399829000Y-216093500D01*
X394749000Y-220157499D02*
G75*
G03*
X392284838Y-222081460I0J-2540000D01*
G01*
X390939000Y-215712500D02*
G75*
G03*
X388399000Y-218252500I1J-2540001D01*
G01*
%TO.C,S55*%
X409989000Y-217712500D02*
X418879000Y-217712500D01*
X418879000Y-222157500D02*
X413799000Y-222157500D01*
X418879000Y-221141500D02*
X418879000Y-222157500D01*
X407449000Y-220252500D02*
X407449000Y-220633500D01*
X418879000Y-217712500D02*
X418879000Y-218093500D01*
X411334838Y-224062500D02*
X407830000Y-224062500D01*
X407830000Y-224062500D02*
X407449000Y-224062500D01*
X407449000Y-223681500D02*
X407449000Y-224062500D01*
X413799000Y-222157499D02*
G75*
G03*
X411334838Y-224081460I0J-2540000D01*
G01*
X409989000Y-217712500D02*
G75*
G03*
X407449000Y-220252500I1J-2540001D01*
G01*
%TO.C,S60*%
X426880000Y-234062500D02*
X426499000Y-234062500D01*
X437929000Y-232157500D02*
X432849000Y-232157500D01*
X426499000Y-230252500D02*
X426499000Y-230633500D01*
X426499000Y-233681500D02*
X426499000Y-234062500D01*
X429039000Y-227712500D02*
X437929000Y-227712500D01*
X437929000Y-227712500D02*
X437929000Y-228093500D01*
X437929000Y-231141500D02*
X437929000Y-232157500D01*
X430384838Y-234062500D02*
X426880000Y-234062500D01*
X432849000Y-232157499D02*
G75*
G03*
X430384838Y-234081460I0J-2540000D01*
G01*
X429039000Y-227712500D02*
G75*
G03*
X426499000Y-230252500I1J-2540001D01*
G01*
%TO.C,S65*%
X456979000Y-213107500D02*
X451899000Y-213107500D01*
X445549000Y-214631500D02*
X445549000Y-215012500D01*
X449434838Y-215012500D02*
X445930000Y-215012500D01*
X448089000Y-208662500D02*
X456979000Y-208662500D01*
X456979000Y-212091500D02*
X456979000Y-213107500D01*
X445549000Y-211202500D02*
X445549000Y-211583500D01*
X445930000Y-215012500D02*
X445549000Y-215012500D01*
X456979000Y-208662500D02*
X456979000Y-209043500D01*
X451899000Y-213107499D02*
G75*
G03*
X449434838Y-215031460I0J-2540000D01*
G01*
X448089000Y-208662500D02*
G75*
G03*
X445549000Y-211202500I1J-2540001D01*
G01*
%TO.C,S70*%
X467139000Y-218187500D02*
X476029000Y-218187500D01*
X476029000Y-221616500D02*
X476029000Y-222632500D01*
X464599000Y-224156500D02*
X464599000Y-224537500D01*
X468484838Y-224537500D02*
X464980000Y-224537500D01*
X464599000Y-220727500D02*
X464599000Y-221108500D01*
X476029000Y-222632500D02*
X470949000Y-222632500D01*
X464980000Y-224537500D02*
X464599000Y-224537500D01*
X476029000Y-218187500D02*
X476029000Y-218568500D01*
X470949000Y-222632499D02*
G75*
G03*
X468484838Y-224556460I0J-2540000D01*
G01*
X467139000Y-218187500D02*
G75*
G03*
X464599000Y-220727500I1J-2540001D01*
G01*
%TO.C,S43*%
X373234838Y-245112500D02*
X369730000Y-245112500D01*
X369349000Y-241302500D02*
X369349000Y-241683500D01*
X380779000Y-243207500D02*
X375699000Y-243207500D01*
X371889000Y-238762500D02*
X380779000Y-238762500D01*
X380779000Y-238762500D02*
X380779000Y-239143500D01*
X369730000Y-245112500D02*
X369349000Y-245112500D01*
X380779000Y-242191500D02*
X380779000Y-243207500D01*
X369349000Y-244731500D02*
X369349000Y-245112500D01*
X375699000Y-243207499D02*
G75*
G03*
X373234838Y-245131460I0J-2540000D01*
G01*
X371889000Y-238762500D02*
G75*
G03*
X369349000Y-241302500I1J-2540001D01*
G01*
%TO.C,S51*%
X388399000Y-240731500D02*
X388399000Y-241112500D01*
X388780000Y-241112500D02*
X388399000Y-241112500D01*
X399829000Y-234762500D02*
X399829000Y-235143500D01*
X399829000Y-239207500D02*
X394749000Y-239207500D01*
X399829000Y-238191500D02*
X399829000Y-239207500D01*
X388399000Y-237302500D02*
X388399000Y-237683500D01*
X390939000Y-234762500D02*
X399829000Y-234762500D01*
X392284838Y-241112500D02*
X388780000Y-241112500D01*
X394749000Y-239207499D02*
G75*
G03*
X392284838Y-241131460I0J-2540000D01*
G01*
X390939000Y-234762500D02*
G75*
G03*
X388399000Y-237302500I1J-2540001D01*
G01*
%TO.C,S56*%
X409989000Y-236762500D02*
X418879000Y-236762500D01*
X407449000Y-239302500D02*
X407449000Y-239683500D01*
X418879000Y-240191500D02*
X418879000Y-241207500D01*
X411334838Y-243112500D02*
X407830000Y-243112500D01*
X418879000Y-241207500D02*
X413799000Y-241207500D01*
X407830000Y-243112500D02*
X407449000Y-243112500D01*
X407449000Y-242731500D02*
X407449000Y-243112500D01*
X418879000Y-236762500D02*
X418879000Y-237143500D01*
X413799000Y-241207499D02*
G75*
G03*
X411334838Y-243131460I0J-2540000D01*
G01*
X409989000Y-236762500D02*
G75*
G03*
X407449000Y-239302500I1J-2540001D01*
G01*
%TO.C,S61*%
X437929000Y-250191500D02*
X437929000Y-251207500D01*
X426499000Y-252731500D02*
X426499000Y-253112500D01*
X437929000Y-251207500D02*
X432849000Y-251207500D01*
X426499000Y-249302500D02*
X426499000Y-249683500D01*
X429039000Y-246762500D02*
X437929000Y-246762500D01*
X426880000Y-253112500D02*
X426499000Y-253112500D01*
X437929000Y-246762500D02*
X437929000Y-247143500D01*
X430384838Y-253112500D02*
X426880000Y-253112500D01*
X429039000Y-246762500D02*
G75*
G03*
X426499000Y-249302500I1J-2540001D01*
G01*
X432849000Y-251207499D02*
G75*
G03*
X430384838Y-253131460I0J-2540000D01*
G01*
%TO.C,S66*%
X456979000Y-231141500D02*
X456979000Y-232157500D01*
X449434838Y-234062500D02*
X445930000Y-234062500D01*
X445930000Y-234062500D02*
X445549000Y-234062500D01*
X448089000Y-227712500D02*
X456979000Y-227712500D01*
X445549000Y-233681500D02*
X445549000Y-234062500D01*
X456979000Y-232157500D02*
X451899000Y-232157500D01*
X445549000Y-230252500D02*
X445549000Y-230633500D01*
X456979000Y-227712500D02*
X456979000Y-228093500D01*
X448089000Y-227712500D02*
G75*
G03*
X445549000Y-230252500I1J-2540001D01*
G01*
X451899000Y-232157499D02*
G75*
G03*
X449434838Y-234081460I0J-2540000D01*
G01*
%TO.C,C14*%
X461291000Y-150593248D02*
X461291000Y-151115752D01*
X462761000Y-150593248D02*
X462761000Y-151115752D01*
%TO.C,C15*%
X456677752Y-147801000D02*
X456155248Y-147801000D01*
X456677752Y-146331000D02*
X456155248Y-146331000D01*
D12*
%TO.C,C16*%
X393920500Y-151496733D02*
X393920500Y-151789267D01*
X392900500Y-151496733D02*
X392900500Y-151789267D01*
%TO.C,C17*%
X404330500Y-152131733D02*
X404330500Y-152424267D01*
X405350500Y-152131733D02*
X405350500Y-152424267D01*
%TO.C,C18*%
X395444500Y-151496733D02*
X395444500Y-151789267D01*
X394424500Y-151496733D02*
X394424500Y-151789267D01*
%TO.C,C19*%
X402806500Y-152131733D02*
X402806500Y-152424267D01*
X403826500Y-152131733D02*
X403826500Y-152424267D01*
%TO.C,C20*%
X404461500Y-142112967D02*
X404461500Y-141820433D01*
X403441500Y-142112967D02*
X403441500Y-141820433D01*
%TO.C,C21*%
X396202500Y-140105267D02*
X396202500Y-139812733D01*
X397222500Y-140105267D02*
X397222500Y-139812733D01*
%TO.C,C22*%
X398746500Y-140105267D02*
X398746500Y-139812733D01*
X397726500Y-140105267D02*
X397726500Y-139812733D01*
D11*
%TO.C,FB2*%
X454966000Y-143009252D02*
X454966000Y-142486748D01*
X456386000Y-143009252D02*
X456386000Y-142486748D01*
%TO.C,R27*%
X440971000Y-144028936D02*
X440971000Y-144483064D01*
X442441000Y-144028936D02*
X442441000Y-144483064D01*
%TO.C,R13*%
X362485000Y-163884936D02*
X362485000Y-164339064D01*
X363955000Y-163884936D02*
X363955000Y-164339064D01*
%TO.C,R15*%
X382679000Y-160062936D02*
X382679000Y-160517064D01*
X381209000Y-160062936D02*
X381209000Y-160517064D01*
%TO.C,R16*%
X360707000Y-246660936D02*
X360707000Y-247115064D01*
X362177000Y-246660936D02*
X362177000Y-247115064D01*
%TO.C,R19*%
X405865000Y-158522936D02*
X405865000Y-158977064D01*
X404395000Y-158522936D02*
X404395000Y-158977064D01*
%TO.C,R20*%
X422937000Y-158538936D02*
X422937000Y-158993064D01*
X424407000Y-158538936D02*
X424407000Y-158993064D01*
%TO.C,R23*%
X386361000Y-141012936D02*
X386361000Y-141467064D01*
X387831000Y-141012936D02*
X387831000Y-141467064D01*
%TO.C,R24*%
X441479000Y-168174936D02*
X441479000Y-168629064D01*
X442949000Y-168174936D02*
X442949000Y-168629064D01*
%TO.C,R25*%
X458951000Y-167920936D02*
X458951000Y-168375064D01*
X457481000Y-167920936D02*
X457481000Y-168375064D01*
%TO.C,R26*%
X480595000Y-153458936D02*
X480595000Y-153913064D01*
X482065000Y-153458936D02*
X482065000Y-153913064D01*
%TO.C,SW3*%
X369634000Y-152835000D02*
X369634000Y-150115000D01*
X369634000Y-143255000D02*
X369634000Y-140535000D01*
X369634000Y-148255000D02*
X369634000Y-145115000D01*
X357334000Y-150115000D02*
X357334000Y-152835000D01*
X357334000Y-152835000D02*
X369634000Y-152835000D01*
X357334000Y-145115000D02*
X357334000Y-148255000D01*
X357334000Y-140535000D02*
X357334000Y-143255000D01*
X369634000Y-140535000D02*
X357334000Y-140535000D01*
X368163050Y-146645000D02*
G75*
G03*
X368163050Y-146645000I-4579050J0D01*
G01*
%TO.C,SW4*%
X372671750Y-154162000D02*
X382571750Y-154162000D01*
X379651750Y-143487000D02*
X379651750Y-144757000D01*
X375591750Y-142097000D02*
X376945083Y-142097000D01*
X376945083Y-147297000D02*
X376945083Y-146027000D01*
X382571750Y-154162000D02*
X382571750Y-139162000D01*
X375591750Y-141497000D02*
X376945083Y-141497000D01*
X375591750Y-141257000D02*
X376945083Y-141257000D01*
X375591750Y-141377000D02*
X376945083Y-141377000D01*
X375591750Y-151297000D02*
X376945083Y-151297000D01*
X375591750Y-152377000D02*
X375591750Y-151107000D01*
X375591750Y-149837000D02*
X375591750Y-148567000D01*
X375591750Y-148757000D02*
X376945083Y-148757000D01*
X375591750Y-146027000D02*
X379651750Y-146027000D01*
X375591750Y-144637000D02*
X376945083Y-144637000D01*
X375591750Y-141137000D02*
X376945083Y-141137000D01*
X379651750Y-146027000D02*
X379651750Y-147297000D01*
X375591750Y-152257000D02*
X376945083Y-152257000D01*
X375591750Y-143797000D02*
X376945083Y-143797000D01*
X375591750Y-146577000D02*
X376945083Y-146577000D01*
X375591750Y-146097000D02*
X376945083Y-146097000D01*
X375591750Y-147057000D02*
X376945083Y-147057000D01*
X375591750Y-146217000D02*
X376945083Y-146217000D01*
X375591750Y-141737000D02*
X376945083Y-141737000D01*
X372431750Y-154402000D02*
X372431750Y-153019000D01*
X375591750Y-147177000D02*
X376945083Y-147177000D01*
X379651750Y-152377000D02*
X375591750Y-152377000D01*
X376945083Y-144757000D02*
X376945083Y-143487000D01*
X375591750Y-146817000D02*
X376945083Y-146817000D01*
X375591750Y-143917000D02*
X376945083Y-143917000D01*
X375591750Y-146337000D02*
X376945083Y-146337000D01*
X375591750Y-146457000D02*
X376945083Y-146457000D01*
X375591750Y-151777000D02*
X376945083Y-151777000D01*
X375591750Y-144277000D02*
X376945083Y-144277000D01*
X375591750Y-149237000D02*
X376945083Y-149237000D01*
X375591750Y-143487000D02*
X379651750Y-143487000D01*
X375591750Y-149717000D02*
X376945083Y-149717000D01*
X375591750Y-141977000D02*
X376945083Y-141977000D01*
X376945083Y-152377000D02*
X376945083Y-151107000D01*
X375591750Y-152017000D02*
X376945083Y-152017000D01*
X375591750Y-144157000D02*
X376945083Y-144157000D01*
X376945083Y-149837000D02*
X376945083Y-148567000D01*
X375591750Y-144397000D02*
X376945083Y-144397000D01*
X375591750Y-143557000D02*
X376945083Y-143557000D01*
X372671750Y-139162000D02*
X382571750Y-139162000D01*
X375591750Y-141617000D02*
X376945083Y-141617000D01*
X379651750Y-140947000D02*
X379651750Y-142217000D01*
X375591750Y-152137000D02*
X376945083Y-152137000D01*
X379651750Y-147297000D02*
X375591750Y-147297000D01*
X379651750Y-144757000D02*
X375591750Y-144757000D01*
X375591750Y-147297000D02*
X375591750Y-146027000D01*
X372431750Y-154402000D02*
X373815750Y-154402000D01*
X375591750Y-141857000D02*
X376945083Y-141857000D01*
X375591750Y-151177000D02*
X376945083Y-151177000D01*
X375591750Y-148877000D02*
X376945083Y-148877000D01*
X375591750Y-144517000D02*
X376945083Y-144517000D01*
X375591750Y-151537000D02*
X376945083Y-151537000D01*
X379651750Y-151107000D02*
X379651750Y-152377000D01*
X375591750Y-148997000D02*
X376945083Y-148997000D01*
X379651750Y-142217000D02*
X375591750Y-142217000D01*
X375591750Y-149117000D02*
X376945083Y-149117000D01*
X375591750Y-144757000D02*
X375591750Y-143487000D01*
X375591750Y-151657000D02*
X376945083Y-151657000D01*
X375591750Y-142217000D02*
X375591750Y-140947000D01*
X375591750Y-151107000D02*
X379651750Y-151107000D01*
X379651750Y-149837000D02*
X375591750Y-149837000D01*
X372671750Y-154162000D02*
X372671750Y-139162000D01*
X375591750Y-151897000D02*
X376945083Y-151897000D01*
X375591750Y-149597000D02*
X376945083Y-149597000D01*
X375591750Y-140947000D02*
X379651750Y-140947000D01*
X375591750Y-146697000D02*
X376945083Y-146697000D01*
X375591750Y-148567000D02*
X379651750Y-148567000D01*
X375591750Y-151417000D02*
X376945083Y-151417000D01*
X375591750Y-143677000D02*
X376945083Y-143677000D01*
X379651750Y-148567000D02*
X379651750Y-149837000D01*
X375591750Y-149477000D02*
X376945083Y-149477000D01*
X375591750Y-146937000D02*
X376945083Y-146937000D01*
X375591750Y-149357000D02*
X376945083Y-149357000D01*
X375591750Y-141017000D02*
X376945083Y-141017000D01*
X375591750Y-144037000D02*
X376945083Y-144037000D01*
X375591750Y-148637000D02*
X376945083Y-148637000D01*
X376945083Y-142217000D02*
X376945083Y-140947000D01*
%TO.C,U3*%
X459920000Y-143755000D02*
X459920000Y-146475000D01*
X461230000Y-143755000D02*
X459920000Y-143755000D01*
X459920000Y-146475000D02*
X460150000Y-146475000D01*
X464410000Y-147615000D02*
X464410000Y-146475000D01*
X464640000Y-146475000D02*
X464640000Y-143755000D01*
X464640000Y-146475000D02*
X464410000Y-146475000D01*
X464640000Y-143755000D02*
X463330000Y-143755000D01*
D12*
%TO.C,D66*%
X451596000Y-144744000D02*
X449596000Y-144744000D01*
X451596000Y-144744000D02*
X451596000Y-140844000D01*
X449596000Y-144744000D02*
X449596000Y-140844000D01*
%TO.C,F2*%
X463666252Y-138752000D02*
X460893748Y-138752000D01*
X463666252Y-142172000D02*
X460893748Y-142172000D01*
%TO.C,D77*%
X446905000Y-142066000D02*
X446905000Y-146126000D01*
X444635000Y-142066000D02*
X446905000Y-142066000D01*
X444635000Y-146126000D02*
X444635000Y-142066000D01*
%TD*%
M02*
