%TF.GenerationSoftware,KiCad,Pcbnew,(6.0.0)*%
%TF.CreationDate,2022-01-02T22:49:07-08:00*%
%TF.ProjectId,thumbler_right,7468756d-626c-4657-925f-72696768742e,rev?*%
%TF.SameCoordinates,Original*%
%TF.FileFunction,Copper,L4,Bot*%
%TF.FilePolarity,Positive*%
%FSLAX46Y46*%
G04 Gerber Fmt 4.6, Leading zero omitted, Abs format (unit mm)*
G04 Created by KiCad (PCBNEW (6.0.0)) date 2022-01-02 22:49:07*
%MOMM*%
%LPD*%
G01*
G04 APERTURE LIST*
G04 Aperture macros list*
%AMRoundRect*
0 Rectangle with rounded corners*
0 $1 Rounding radius*
0 $2 $3 $4 $5 $6 $7 $8 $9 X,Y pos of 4 corners*
0 Add a 4 corners polygon primitive as box body*
4,1,4,$2,$3,$4,$5,$6,$7,$8,$9,$2,$3,0*
0 Add four circle primitives for the rounded corners*
1,1,$1+$1,$2,$3*
1,1,$1+$1,$4,$5*
1,1,$1+$1,$6,$7*
1,1,$1+$1,$8,$9*
0 Add four rect primitives between the rounded corners*
20,1,$1+$1,$2,$3,$4,$5,0*
20,1,$1+$1,$4,$5,$6,$7,0*
20,1,$1+$1,$6,$7,$8,$9,0*
20,1,$1+$1,$8,$9,$2,$3,0*%
%AMRotRect*
0 Rectangle, with rotation*
0 The origin of the aperture is its center*
0 $1 length*
0 $2 width*
0 $3 Rotation angle, in degrees counterclockwise*
0 Add horizontal line*
21,1,$1,$2,0,0,$3*%
%AMFreePoly0*
4,1,9,3.862500,-0.866500,0.737500,-0.866500,0.737500,-0.450000,-0.737500,-0.450000,-0.737500,0.450000,0.737500,0.450000,0.737500,0.866500,3.862500,0.866500,3.862500,-0.866500,3.862500,-0.866500,$1*%
G04 Aperture macros list end*
%TA.AperFunction,ComponentPad*%
%ADD10R,1.600000X1.600000*%
%TD*%
%TA.AperFunction,ComponentPad*%
%ADD11O,1.600000X1.600000*%
%TD*%
%TA.AperFunction,SMDPad,CuDef*%
%ADD12R,2.550000X2.500000*%
%TD*%
%TA.AperFunction,ComponentPad*%
%ADD13C,2.184400*%
%TD*%
%TA.AperFunction,ComponentPad*%
%ADD14C,2.500000*%
%TD*%
%TA.AperFunction,SMDPad,CuDef*%
%ADD15RotRect,2.550000X2.500000X10.000000*%
%TD*%
%TA.AperFunction,SMDPad,CuDef*%
%ADD16RotRect,2.550000X2.500000X35.450000*%
%TD*%
%TA.AperFunction,SMDPad,CuDef*%
%ADD17RotRect,2.550000X2.500000X60.000000*%
%TD*%
%TA.AperFunction,WasherPad*%
%ADD18C,2.475000*%
%TD*%
%TA.AperFunction,WasherPad*%
%ADD19C,2.400000*%
%TD*%
%TA.AperFunction,ComponentPad*%
%ADD20C,1.950000*%
%TD*%
%TA.AperFunction,ComponentPad*%
%ADD21C,1.650000*%
%TD*%
%TA.AperFunction,ComponentPad*%
%ADD22O,1.700000X1.700000*%
%TD*%
%TA.AperFunction,ComponentPad*%
%ADD23R,1.700000X1.700000*%
%TD*%
%TA.AperFunction,SMDPad,CuDef*%
%ADD24RoundRect,0.250000X-0.475000X0.337500X-0.475000X-0.337500X0.475000X-0.337500X0.475000X0.337500X0*%
%TD*%
%TA.AperFunction,SMDPad,CuDef*%
%ADD25RoundRect,0.250000X0.337500X0.475000X-0.337500X0.475000X-0.337500X-0.475000X0.337500X-0.475000X0*%
%TD*%
%TA.AperFunction,SMDPad,CuDef*%
%ADD26RoundRect,0.237500X-0.237500X0.300000X-0.237500X-0.300000X0.237500X-0.300000X0.237500X0.300000X0*%
%TD*%
%TA.AperFunction,SMDPad,CuDef*%
%ADD27RoundRect,0.237500X0.237500X-0.300000X0.237500X0.300000X-0.237500X0.300000X-0.237500X-0.300000X0*%
%TD*%
%TA.AperFunction,SMDPad,CuDef*%
%ADD28RoundRect,0.249999X0.450001X-0.325001X0.450001X0.325001X-0.450001X0.325001X-0.450001X-0.325001X0*%
%TD*%
%TA.AperFunction,SMDPad,CuDef*%
%ADD29RoundRect,0.249999X-0.450001X0.350001X-0.450001X-0.350001X0.450001X-0.350001X0.450001X0.350001X0*%
%TD*%
%TA.AperFunction,ComponentPad*%
%ADD30O,3.048000X1.850000*%
%TD*%
%TA.AperFunction,SMDPad,CuDef*%
%ADD31R,0.900000X1.300000*%
%TD*%
%TA.AperFunction,SMDPad,CuDef*%
%ADD32FreePoly0,90.000000*%
%TD*%
%TA.AperFunction,SMDPad,CuDef*%
%ADD33R,1.200000X0.900000*%
%TD*%
%TA.AperFunction,SMDPad,CuDef*%
%ADD34RoundRect,0.250000X0.400000X1.450000X-0.400000X1.450000X-0.400000X-1.450000X0.400000X-1.450000X0*%
%TD*%
%TA.AperFunction,SMDPad,CuDef*%
%ADD35RoundRect,0.250001X-0.624999X0.462499X-0.624999X-0.462499X0.624999X-0.462499X0.624999X0.462499X0*%
%TD*%
%TA.AperFunction,ViaPad*%
%ADD36C,0.400000*%
%TD*%
%TA.AperFunction,ViaPad*%
%ADD37C,0.600000*%
%TD*%
%TA.AperFunction,Conductor*%
%ADD38C,0.250000*%
%TD*%
%TA.AperFunction,Conductor*%
%ADD39C,0.350000*%
%TD*%
G04 APERTURE END LIST*
D10*
%TO.P,D36,1,K*%
%TO.N,R_ROW2*%
X347721000Y-181638500D03*
D11*
%TO.P,D36,2,A*%
%TO.N,Net-(D36-Pad2)*%
X347721000Y-174018500D03*
%TD*%
D12*
%TO.P,S35,1,1*%
%TO.N,Net-(D36-Pad2)*%
X349089000Y-171007500D03*
%TO.P,S35,2,2*%
%TO.N,Net-(R13-Pad2)*%
X362939000Y-168467500D03*
%TD*%
D10*
%TO.P,D76,1,K*%
%TO.N,R_ROW5*%
X446278000Y-244856000D03*
D11*
%TO.P,D76,2,A*%
%TO.N,Net-(D76-Pad2)*%
X453898000Y-244856000D03*
%TD*%
D10*
%TO.P,D52,1,K*%
%TO.N,R_ROW3*%
X366674400Y-259486400D03*
D11*
%TO.P,D52,2,A*%
%TO.N,Net-(D52-Pad2)*%
X366674400Y-267106400D03*
%TD*%
D10*
%TO.P,D53,1,K*%
%TO.N,R_ROW4*%
X350520000Y-271780000D03*
D11*
%TO.P,D53,2,A*%
%TO.N,Net-(D53-Pad2)*%
X350520000Y-279400000D03*
%TD*%
D13*
%TO.P,J6,MH*%
%TO.N,N/C*%
X348575451Y-139241554D03*
X338575451Y-139241554D03*
D14*
%TO.P,J6,5*%
%TO.N,R_RX*%
X348575451Y-151741554D03*
%TO.P,J6,4*%
%TO.N,+5V*%
X338575451Y-151741554D03*
%TO.P,J6,3*%
%TO.N,R_TX*%
X351075451Y-149241554D03*
%TO.P,J6,2*%
%TO.N,~{RST}*%
X343575451Y-149241554D03*
%TO.P,J6,1*%
%TO.N,GND*%
X336075451Y-149241554D03*
%TD*%
D15*
%TO.P,S44,1,1*%
%TO.N,Net-(D52-Pad2)*%
X348170987Y-257434169D03*
%TO.P,S44,2,2*%
%TO.N,Net-(R16-Pad2)*%
X361369508Y-252527730D03*
%TD*%
D16*
%TO.P,S45,1,1*%
%TO.N,Net-(D53-Pad2)*%
X329832678Y-276381602D03*
%TO.P,S45,2,2*%
%TO.N,Net-(R16-Pad2)*%
X339642011Y-266279569D03*
%TD*%
D17*
%TO.P,S46,1,1*%
%TO.N,Net-(D54-Pad2)*%
X320664295Y-300882352D03*
%TO.P,S46,2,2*%
%TO.N,Net-(R16-Pad2)*%
X325389591Y-287617900D03*
%TD*%
D18*
%TO.P,S34,*%
%TO.N,*%
X320243200Y-327785000D03*
D19*
X318218200Y-332785000D03*
X318218200Y-322785000D03*
X330868200Y-322785000D03*
X330868200Y-332785000D03*
D18*
X328843200Y-327785000D03*
D20*
%TO.P,S34,A,A*%
%TO.N,R_PTR_Z*%
X327793200Y-322035000D03*
%TO.P,S34,B,B*%
%TO.N,GND*%
X327793200Y-317535000D03*
%TO.P,S34,C,C*%
%TO.N,unconnected-(S34-PadC)*%
X321293200Y-322035000D03*
%TO.P,S34,D,D*%
%TO.N,unconnected-(S34-PadD)*%
X321293200Y-317535000D03*
D21*
%TO.P,S34,X1,X1*%
%TO.N,+3V3*%
X322043200Y-336515000D03*
%TO.P,S34,X2,X2*%
%TO.N,R_PTR_X*%
X324543200Y-336515000D03*
%TO.P,S34,X3,X3*%
%TO.N,GND*%
X327043200Y-336515000D03*
%TO.P,S34,Y1,Y1*%
%TO.N,+3V3*%
X315813200Y-325285000D03*
%TO.P,S34,Y2,Y2*%
%TO.N,R_PTR_Y*%
X315813200Y-327785000D03*
%TO.P,S34,Y3,Y3*%
%TO.N,GND*%
X315813200Y-330285000D03*
%TD*%
D22*
%TO.P,J7,4,Pin_4*%
%TO.N,+3V3*%
X420619000Y-153157000D03*
%TO.P,J7,3,Pin_3*%
%TO.N,R_SWDIO*%
X418079000Y-153157000D03*
%TO.P,J7,2,Pin_2*%
%TO.N,R_SWCLK*%
X420619000Y-150617000D03*
D23*
%TO.P,J7,1,Pin_1*%
%TO.N,GND*%
X418079000Y-150617000D03*
%TD*%
D22*
%TO.P,J5,4,Pin_4*%
%TO.N,+3V3*%
X410469000Y-150627000D03*
%TO.P,J5,3,Pin_3*%
%TO.N,R_RX*%
X413009000Y-150627000D03*
%TO.P,J5,2,Pin_2*%
%TO.N,R_TX*%
X410469000Y-153167000D03*
D23*
%TO.P,J5,1,Pin_1*%
%TO.N,GND*%
X413009000Y-153167000D03*
%TD*%
D10*
%TO.P,D54,1,K*%
%TO.N,R_ROW5*%
X339090000Y-289560000D03*
D11*
%TO.P,D54,2,A*%
%TO.N,Net-(D54-Pad2)*%
X339090000Y-297180000D03*
%TD*%
D12*
%TO.P,S71,1,1*%
%TO.N,Net-(D76-Pad2)*%
X453864000Y-251207500D03*
%TO.P,S71,2,2*%
%TO.N,Net-(R26-Pad2)*%
X467714000Y-248667500D03*
%TD*%
%TO.P,S39,1,1*%
%TO.N,Net-(D40-Pad2)*%
X368139000Y-167007500D03*
%TO.P,S39,2,2*%
%TO.N,Net-(R15-Pad2)*%
X381989000Y-164467500D03*
%TD*%
%TO.P,S47,1,1*%
%TO.N,Net-(D46-Pad2)*%
X387189000Y-163007500D03*
%TO.P,S47,2,2*%
%TO.N,Net-(R19-Pad2)*%
X401039000Y-160467500D03*
%TD*%
%TO.P,S52,1,1*%
%TO.N,Net-(D56-Pad2)*%
X406239000Y-165007500D03*
%TO.P,S52,2,2*%
%TO.N,Net-(R20-Pad2)*%
X420089000Y-162467500D03*
%TD*%
%TO.P,S57,1,1*%
%TO.N,Net-(D61-Pad2)*%
X425289000Y-175007500D03*
%TO.P,S57,2,2*%
%TO.N,Net-(R24-Pad2)*%
X439139000Y-172467500D03*
%TD*%
%TO.P,S62,1,1*%
%TO.N,Net-(D67-Pad2)*%
X434814000Y-155957500D03*
%TO.P,S62,2,2*%
%TO.N,Net-(R25-Pad2)*%
X448664000Y-153417500D03*
%TD*%
%TO.P,S67,1,1*%
%TO.N,Net-(D72-Pad2)*%
X463389000Y-155957500D03*
%TO.P,S67,2,2*%
%TO.N,Net-(R26-Pad2)*%
X477239000Y-153417500D03*
%TD*%
%TO.P,S36,1,1*%
%TO.N,Net-(D37-Pad2)*%
X349089000Y-190057500D03*
%TO.P,S36,2,2*%
%TO.N,Net-(R13-Pad2)*%
X362939000Y-187517500D03*
%TD*%
%TO.P,S40,1,1*%
%TO.N,Net-(D41-Pad2)*%
X368139000Y-186057500D03*
%TO.P,S40,2,2*%
%TO.N,Net-(R15-Pad2)*%
X381989000Y-183517500D03*
%TD*%
%TO.P,S48,1,1*%
%TO.N,Net-(D47-Pad2)*%
X387189000Y-182057500D03*
%TO.P,S48,2,2*%
%TO.N,Net-(R19-Pad2)*%
X401039000Y-179517500D03*
%TD*%
%TO.P,S53,1,1*%
%TO.N,Net-(D57-Pad2)*%
X406239000Y-184057500D03*
%TO.P,S53,2,2*%
%TO.N,Net-(R20-Pad2)*%
X420089000Y-181517500D03*
%TD*%
%TO.P,S58,1,1*%
%TO.N,Net-(D62-Pad2)*%
X425289000Y-194057500D03*
%TO.P,S58,2,2*%
%TO.N,Net-(R24-Pad2)*%
X439139000Y-191517500D03*
%TD*%
%TO.P,S63,1,1*%
%TO.N,Net-(D68-Pad2)*%
X444339000Y-175007500D03*
%TO.P,S63,2,2*%
%TO.N,Net-(R25-Pad2)*%
X458189000Y-172467500D03*
%TD*%
%TO.P,S68,1,1*%
%TO.N,Net-(D73-Pad2)*%
X463389000Y-175007500D03*
%TO.P,S68,2,2*%
%TO.N,Net-(R26-Pad2)*%
X477239000Y-172467500D03*
%TD*%
%TO.P,S37,1,1*%
%TO.N,Net-(D38-Pad2)*%
X349089000Y-209107500D03*
%TO.P,S37,2,2*%
%TO.N,Net-(R13-Pad2)*%
X362939000Y-206567500D03*
%TD*%
%TO.P,S41,1,1*%
%TO.N,Net-(D42-Pad2)*%
X368139000Y-205107500D03*
%TO.P,S41,2,2*%
%TO.N,Net-(R15-Pad2)*%
X381989000Y-202567500D03*
%TD*%
%TO.P,S49,1,1*%
%TO.N,Net-(D48-Pad2)*%
X387189000Y-201107500D03*
%TO.P,S49,2,2*%
%TO.N,Net-(R19-Pad2)*%
X401039000Y-198567500D03*
%TD*%
%TO.P,S54,1,1*%
%TO.N,Net-(D58-Pad2)*%
X406239000Y-203107500D03*
%TO.P,S54,2,2*%
%TO.N,Net-(R20-Pad2)*%
X420089000Y-200567500D03*
%TD*%
%TO.P,S59,1,1*%
%TO.N,Net-(D63-Pad2)*%
X425289000Y-213107500D03*
%TO.P,S59,2,2*%
%TO.N,Net-(R24-Pad2)*%
X439139000Y-210567500D03*
%TD*%
%TO.P,S64,1,1*%
%TO.N,Net-(D69-Pad2)*%
X444339000Y-194057500D03*
%TO.P,S64,2,2*%
%TO.N,Net-(R25-Pad2)*%
X458189000Y-191517500D03*
%TD*%
%TO.P,S69,1,1*%
%TO.N,Net-(D74-Pad2)*%
X463389000Y-194057500D03*
%TO.P,S69,2,2*%
%TO.N,Net-(R26-Pad2)*%
X477239000Y-191517500D03*
%TD*%
%TO.P,S38,1,1*%
%TO.N,Net-(D39-Pad2)*%
X349089000Y-228157500D03*
%TO.P,S38,2,2*%
%TO.N,Net-(R13-Pad2)*%
X362939000Y-225617500D03*
%TD*%
%TO.P,S42,1,1*%
%TO.N,Net-(D43-Pad2)*%
X368139000Y-224157500D03*
%TO.P,S42,2,2*%
%TO.N,Net-(R15-Pad2)*%
X381989000Y-221617500D03*
%TD*%
%TO.P,S50,1,1*%
%TO.N,Net-(D49-Pad2)*%
X387189000Y-220157500D03*
%TO.P,S50,2,2*%
%TO.N,Net-(R19-Pad2)*%
X401039000Y-217617500D03*
%TD*%
%TO.P,S55,1,1*%
%TO.N,Net-(D59-Pad2)*%
X406239000Y-222157500D03*
%TO.P,S55,2,2*%
%TO.N,Net-(R20-Pad2)*%
X420089000Y-219617500D03*
%TD*%
%TO.P,S60,1,1*%
%TO.N,Net-(D64-Pad2)*%
X425289000Y-232157500D03*
%TO.P,S60,2,2*%
%TO.N,Net-(R24-Pad2)*%
X439139000Y-229617500D03*
%TD*%
%TO.P,S65,1,1*%
%TO.N,Net-(D70-Pad2)*%
X444339000Y-213107500D03*
%TO.P,S65,2,2*%
%TO.N,Net-(R25-Pad2)*%
X458189000Y-210567500D03*
%TD*%
%TO.P,S70,1,1*%
%TO.N,Net-(D75-Pad2)*%
X463389000Y-222632500D03*
%TO.P,S70,2,2*%
%TO.N,Net-(R26-Pad2)*%
X477239000Y-220092500D03*
%TD*%
%TO.P,S43,1,1*%
%TO.N,Net-(D44-Pad2)*%
X368139000Y-243207500D03*
%TO.P,S43,2,2*%
%TO.N,Net-(R15-Pad2)*%
X381989000Y-240667500D03*
%TD*%
%TO.P,S51,1,1*%
%TO.N,Net-(D50-Pad2)*%
X387189000Y-239207500D03*
%TO.P,S51,2,2*%
%TO.N,Net-(R19-Pad2)*%
X401039000Y-236667500D03*
%TD*%
%TO.P,S56,1,1*%
%TO.N,Net-(D60-Pad2)*%
X406239000Y-241207500D03*
%TO.P,S56,2,2*%
%TO.N,Net-(R20-Pad2)*%
X420089000Y-238667500D03*
%TD*%
%TO.P,S61,1,1*%
%TO.N,Net-(D65-Pad2)*%
X425289000Y-251207500D03*
%TO.P,S61,2,2*%
%TO.N,Net-(R24-Pad2)*%
X439139000Y-248667500D03*
%TD*%
%TO.P,S66,1,1*%
%TO.N,Net-(D71-Pad2)*%
X444339000Y-232157500D03*
%TO.P,S66,2,2*%
%TO.N,Net-(R25-Pad2)*%
X458189000Y-229617500D03*
%TD*%
D10*
%TO.P,D40,1,K*%
%TO.N,R_ROW1*%
X366771000Y-177638500D03*
D11*
%TO.P,D40,2,A*%
%TO.N,Net-(D40-Pad2)*%
X366771000Y-170018500D03*
%TD*%
D10*
%TO.P,D46,1,K*%
%TO.N,R_ROW1*%
X385821000Y-173638500D03*
D11*
%TO.P,D46,2,A*%
%TO.N,Net-(D46-Pad2)*%
X385821000Y-166018500D03*
%TD*%
D10*
%TO.P,D56,1,K*%
%TO.N,R_ROW1*%
X404871000Y-175638500D03*
D11*
%TO.P,D56,2,A*%
%TO.N,Net-(D56-Pad2)*%
X404871000Y-168018500D03*
%TD*%
D10*
%TO.P,D61,1,K*%
%TO.N,R_ROW1*%
X423921000Y-185638500D03*
D11*
%TO.P,D61,2,A*%
%TO.N,Net-(D61-Pad2)*%
X423921000Y-178018500D03*
%TD*%
D10*
%TO.P,D67,1,K*%
%TO.N,R_ROW1*%
X428498000Y-168910000D03*
D11*
%TO.P,D67,2,A*%
%TO.N,Net-(D67-Pad2)*%
X436118000Y-168910000D03*
%TD*%
D10*
%TO.P,D72,1,K*%
%TO.N,R_ROW1*%
X462021000Y-166588500D03*
D11*
%TO.P,D72,2,A*%
%TO.N,Net-(D72-Pad2)*%
X462021000Y-158968500D03*
%TD*%
D10*
%TO.P,D37,1,K*%
%TO.N,R_ROW3*%
X347721000Y-200688500D03*
D11*
%TO.P,D37,2,A*%
%TO.N,Net-(D37-Pad2)*%
X347721000Y-193068500D03*
%TD*%
D10*
%TO.P,D41,1,K*%
%TO.N,R_ROW2*%
X366771000Y-196688500D03*
D11*
%TO.P,D41,2,A*%
%TO.N,Net-(D41-Pad2)*%
X366771000Y-189068500D03*
%TD*%
D10*
%TO.P,D47,1,K*%
%TO.N,R_ROW2*%
X385821000Y-192688500D03*
D11*
%TO.P,D47,2,A*%
%TO.N,Net-(D47-Pad2)*%
X385821000Y-185068500D03*
%TD*%
D10*
%TO.P,D57,1,K*%
%TO.N,R_ROW2*%
X404871000Y-194688500D03*
D11*
%TO.P,D57,2,A*%
%TO.N,Net-(D57-Pad2)*%
X404871000Y-187068500D03*
%TD*%
D10*
%TO.P,D62,1,K*%
%TO.N,R_ROW2*%
X423921000Y-204688500D03*
D11*
%TO.P,D62,2,A*%
%TO.N,Net-(D62-Pad2)*%
X423921000Y-197068500D03*
%TD*%
D10*
%TO.P,D68,1,K*%
%TO.N,R_ROW2*%
X442971000Y-185638500D03*
D11*
%TO.P,D68,2,A*%
%TO.N,Net-(D68-Pad2)*%
X442971000Y-178018500D03*
%TD*%
D10*
%TO.P,D73,1,K*%
%TO.N,R_ROW2*%
X462021000Y-185638500D03*
D11*
%TO.P,D73,2,A*%
%TO.N,Net-(D73-Pad2)*%
X462021000Y-178018500D03*
%TD*%
D10*
%TO.P,D38,1,K*%
%TO.N,R_ROW4*%
X347721000Y-219738500D03*
D11*
%TO.P,D38,2,A*%
%TO.N,Net-(D38-Pad2)*%
X347721000Y-212118500D03*
%TD*%
D10*
%TO.P,D42,1,K*%
%TO.N,R_ROW3*%
X366771000Y-215738500D03*
D11*
%TO.P,D42,2,A*%
%TO.N,Net-(D42-Pad2)*%
X366771000Y-208118500D03*
%TD*%
D10*
%TO.P,D48,1,K*%
%TO.N,R_ROW3*%
X385821000Y-211738500D03*
D11*
%TO.P,D48,2,A*%
%TO.N,Net-(D48-Pad2)*%
X385821000Y-204118500D03*
%TD*%
D10*
%TO.P,D58,1,K*%
%TO.N,R_ROW3*%
X404871000Y-213738500D03*
D11*
%TO.P,D58,2,A*%
%TO.N,Net-(D58-Pad2)*%
X404871000Y-206118500D03*
%TD*%
D10*
%TO.P,D63,1,K*%
%TO.N,R_ROW3*%
X423921000Y-223738500D03*
D11*
%TO.P,D63,2,A*%
%TO.N,Net-(D63-Pad2)*%
X423921000Y-216118500D03*
%TD*%
D10*
%TO.P,D69,1,K*%
%TO.N,R_ROW3*%
X442971000Y-204688500D03*
D11*
%TO.P,D69,2,A*%
%TO.N,Net-(D69-Pad2)*%
X442971000Y-197068500D03*
%TD*%
D10*
%TO.P,D74,1,K*%
%TO.N,R_ROW3*%
X462021000Y-204688500D03*
D11*
%TO.P,D74,2,A*%
%TO.N,Net-(D74-Pad2)*%
X462021000Y-197068500D03*
%TD*%
D10*
%TO.P,D39,1,K*%
%TO.N,R_ROW5*%
X347721000Y-238788500D03*
D11*
%TO.P,D39,2,A*%
%TO.N,Net-(D39-Pad2)*%
X347721000Y-231168500D03*
%TD*%
D10*
%TO.P,D43,1,K*%
%TO.N,R_ROW4*%
X366771000Y-234788500D03*
D11*
%TO.P,D43,2,A*%
%TO.N,Net-(D43-Pad2)*%
X366771000Y-227168500D03*
%TD*%
D10*
%TO.P,D49,1,K*%
%TO.N,R_ROW4*%
X385821000Y-230788500D03*
D11*
%TO.P,D49,2,A*%
%TO.N,Net-(D49-Pad2)*%
X385821000Y-223168500D03*
%TD*%
D10*
%TO.P,D59,1,K*%
%TO.N,R_ROW4*%
X404871000Y-232788500D03*
D11*
%TO.P,D59,2,A*%
%TO.N,Net-(D59-Pad2)*%
X404871000Y-225168500D03*
%TD*%
D10*
%TO.P,D64,1,K*%
%TO.N,R_ROW4*%
X423921000Y-242788500D03*
D11*
%TO.P,D64,2,A*%
%TO.N,Net-(D64-Pad2)*%
X423921000Y-235168500D03*
%TD*%
D10*
%TO.P,D70,1,K*%
%TO.N,R_ROW4*%
X442971000Y-223738500D03*
D11*
%TO.P,D70,2,A*%
%TO.N,Net-(D70-Pad2)*%
X442971000Y-216118500D03*
%TD*%
D10*
%TO.P,D75,1,K*%
%TO.N,R_ROW4*%
X462021000Y-233263500D03*
D11*
%TO.P,D75,2,A*%
%TO.N,Net-(D75-Pad2)*%
X462021000Y-225643500D03*
%TD*%
D10*
%TO.P,D44,1,K*%
%TO.N,R_ROW5*%
X366771000Y-253838500D03*
D11*
%TO.P,D44,2,A*%
%TO.N,Net-(D44-Pad2)*%
X366771000Y-246218500D03*
%TD*%
D10*
%TO.P,D50,1,K*%
%TO.N,R_ROW5*%
X385821000Y-249838500D03*
D11*
%TO.P,D50,2,A*%
%TO.N,Net-(D50-Pad2)*%
X385821000Y-242218500D03*
%TD*%
D10*
%TO.P,D60,1,K*%
%TO.N,R_ROW5*%
X404871000Y-251838500D03*
D11*
%TO.P,D60,2,A*%
%TO.N,Net-(D60-Pad2)*%
X404871000Y-244218500D03*
%TD*%
D10*
%TO.P,D65,1,K*%
%TO.N,R_ROW5*%
X423921000Y-261838500D03*
D11*
%TO.P,D65,2,A*%
%TO.N,Net-(D65-Pad2)*%
X423921000Y-254218500D03*
%TD*%
D10*
%TO.P,D71,1,K*%
%TO.N,R_ROW5*%
X442971000Y-242788500D03*
D11*
%TO.P,D71,2,A*%
%TO.N,Net-(D71-Pad2)*%
X442971000Y-235168500D03*
%TD*%
D24*
%TO.P,C14,1*%
%TO.N,Net-(C14-Pad1)*%
X462026000Y-149817000D03*
%TO.P,C14,2*%
%TO.N,GND*%
X462026000Y-151892000D03*
%TD*%
D25*
%TO.P,C15,1*%
%TO.N,+3V3*%
X457454000Y-147066000D03*
%TO.P,C15,2*%
%TO.N,GND*%
X455379000Y-147066000D03*
%TD*%
D26*
%TO.P,C16,1*%
%TO.N,+3V3*%
X393410500Y-150780500D03*
%TO.P,C16,2*%
%TO.N,GND*%
X393410500Y-152505500D03*
%TD*%
%TO.P,C17,2*%
%TO.N,GND*%
X404840500Y-153140500D03*
%TO.P,C17,1*%
%TO.N,+3V3*%
X404840500Y-151415500D03*
%TD*%
%TO.P,C18,1*%
%TO.N,+3V3*%
X394934500Y-150780500D03*
%TO.P,C18,2*%
%TO.N,GND*%
X394934500Y-152505500D03*
%TD*%
%TO.P,C19,2*%
%TO.N,GND*%
X403316500Y-153140500D03*
%TO.P,C19,1*%
%TO.N,+3V3*%
X403316500Y-151415500D03*
%TD*%
D27*
%TO.P,C20,1*%
%TO.N,+3V3*%
X403951500Y-142829200D03*
%TO.P,C20,2*%
%TO.N,GND*%
X403951500Y-141104200D03*
%TD*%
%TO.P,C21,1*%
%TO.N,+3V3*%
X396712500Y-140821500D03*
%TO.P,C21,2*%
%TO.N,GND*%
X396712500Y-139096500D03*
%TD*%
%TO.P,C22,1*%
%TO.N,+3V3*%
X398236500Y-140821500D03*
%TO.P,C22,2*%
%TO.N,GND*%
X398236500Y-139096500D03*
%TD*%
D28*
%TO.P,FB2,1*%
%TO.N,Net-(C14-Pad1)*%
X455676000Y-143773000D03*
%TO.P,FB2,2*%
%TO.N,+5V*%
X455676000Y-141723000D03*
%TD*%
D29*
%TO.P,R27,1*%
%TO.N,Net-(D77-Pad1)*%
X441706000Y-143256000D03*
%TO.P,R27,2*%
%TO.N,GND*%
X441706000Y-145256000D03*
%TD*%
%TO.P,R13,1*%
%TO.N,R_COL1*%
X363220000Y-163112000D03*
%TO.P,R13,2*%
%TO.N,Net-(R13-Pad2)*%
X363220000Y-165112000D03*
%TD*%
%TO.P,R15,1*%
%TO.N,R_COL2*%
X381944000Y-159290000D03*
%TO.P,R15,2*%
%TO.N,Net-(R15-Pad2)*%
X381944000Y-161290000D03*
%TD*%
%TO.P,R16,1*%
%TO.N,R_COL8*%
X361442000Y-245888000D03*
%TO.P,R16,2*%
%TO.N,Net-(R16-Pad2)*%
X361442000Y-247888000D03*
%TD*%
%TO.P,R19,1*%
%TO.N,R_COL3*%
X405130000Y-157750000D03*
%TO.P,R19,2*%
%TO.N,Net-(R19-Pad2)*%
X405130000Y-159750000D03*
%TD*%
%TO.P,R20,1*%
%TO.N,R_COL4*%
X423672000Y-157766000D03*
%TO.P,R20,2*%
%TO.N,Net-(R20-Pad2)*%
X423672000Y-159766000D03*
%TD*%
%TO.P,R23,1*%
%TO.N,R_BOOT0*%
X387096000Y-140240000D03*
%TO.P,R23,2*%
%TO.N,GND*%
X387096000Y-142240000D03*
%TD*%
%TO.P,R24,1*%
%TO.N,R_COL5*%
X442214000Y-167402000D03*
%TO.P,R24,2*%
%TO.N,Net-(R24-Pad2)*%
X442214000Y-169402000D03*
%TD*%
%TO.P,R25,1*%
%TO.N,R_COL6*%
X458216000Y-167148000D03*
%TO.P,R25,2*%
%TO.N,Net-(R25-Pad2)*%
X458216000Y-169148000D03*
%TD*%
%TO.P,R26,1*%
%TO.N,R_COL7*%
X481330000Y-152686000D03*
%TO.P,R26,2*%
%TO.N,Net-(R26-Pad2)*%
X481330000Y-154686000D03*
%TD*%
D30*
%TO.P,SW3,1,1*%
%TO.N,GND*%
X369734000Y-149185000D03*
X357234000Y-149185000D03*
%TO.P,SW3,2,2*%
%TO.N,~{RST}*%
X357234000Y-144185000D03*
X369734000Y-144185000D03*
%TD*%
D10*
%TO.P,SW4,1*%
%TO.N,GND*%
X373811750Y-151742000D03*
D11*
%TO.P,SW4,2*%
X373811750Y-149202000D03*
%TO.P,SW4,3*%
X373811750Y-146662000D03*
%TO.P,SW4,4*%
X373811750Y-144122000D03*
%TO.P,SW4,5*%
%TO.N,+3V3*%
X373811750Y-141582000D03*
%TO.P,SW4,6*%
%TO.N,R_BOOT0*%
X381431750Y-141582000D03*
%TO.P,SW4,7*%
%TO.N,R_OPT4*%
X381431750Y-144122000D03*
%TO.P,SW4,8*%
%TO.N,R_OPT3*%
X381431750Y-146662000D03*
%TO.P,SW4,9*%
%TO.N,R_OPT2*%
X381431750Y-149202000D03*
%TO.P,SW4,10*%
%TO.N,R_OPT1*%
X381431750Y-151742000D03*
%TD*%
D31*
%TO.P,U3,1,GND*%
%TO.N,GND*%
X463780000Y-147065000D03*
D32*
%TO.P,U3,2,VI*%
%TO.N,Net-(C14-Pad1)*%
X462280000Y-146977500D03*
D31*
%TO.P,U3,3,VO*%
%TO.N,+3V3*%
X460780000Y-147065000D03*
%TD*%
D33*
%TO.P,D66,1,K*%
%TO.N,+5V*%
X450596000Y-144144000D03*
%TO.P,D66,2,A*%
%TO.N,Net-(D66-Pad2)*%
X450596000Y-140844000D03*
%TD*%
D34*
%TO.P,F2,1*%
%TO.N,Net-(F2-Pad1)*%
X464505000Y-140462000D03*
%TO.P,F2,2*%
%TO.N,Net-(D66-Pad2)*%
X460055000Y-140462000D03*
%TD*%
D35*
%TO.P,D77,1,K*%
%TO.N,Net-(D77-Pad1)*%
X445770000Y-143038500D03*
%TO.P,D77,2,A*%
%TO.N,+3V3*%
X445770000Y-146013500D03*
%TD*%
D36*
%TO.N,R_PTR_Z*%
X306705000Y-317500000D03*
%TO.N,R_COL8*%
X343535000Y-240030000D03*
%TO.N,R_ROW5*%
X388366000Y-154686000D03*
%TO.N,R_ROW4*%
X389128000Y-154686002D03*
%TO.N,R_ROW3*%
X389890000Y-154686002D03*
%TO.N,R_ROW2*%
X390652000Y-154686000D03*
%TO.N,R_ROW1*%
X391414000Y-154686000D03*
D37*
%TO.N,R_COL1*%
X359892600Y-163525200D03*
%TO.N,R_COL2*%
X379730000Y-159512000D03*
%TO.N,R_COL4*%
X419354000Y-157988000D03*
%TO.N,R_COL3*%
X399288002Y-156718000D03*
%TO.N,GND*%
X393700000Y-149352000D03*
D36*
%TO.N,R_COL5*%
X440690000Y-167386000D03*
X435610000Y-148336000D03*
D37*
%TO.N,GND*%
X442976000Y-145542000D03*
X463296000Y-151638000D03*
X388366000Y-142240000D03*
X404876000Y-140970000D03*
X392430000Y-152505500D03*
X387096002Y-147320000D03*
X399034000Y-139192000D03*
X463804000Y-148336000D03*
X402336000Y-153162000D03*
X470154000Y-141986000D03*
D36*
X404876000Y-144780000D03*
D37*
X454130500Y-147066000D03*
%TO.N,+3V3*%
X414274000Y-147320000D03*
X403951500Y-142880000D03*
X447294000Y-146050000D03*
X459232000Y-147066000D03*
X419354000Y-147156500D03*
X394934500Y-150754000D03*
X403316500Y-151389000D03*
X409194000Y-147320000D03*
X398236500Y-140848000D03*
%TO.N,+5V*%
X436371998Y-140716000D03*
D36*
%TO.N,R_TX*%
X405638000Y-147066000D03*
%TO.N,R_RX*%
X406146000Y-146558000D03*
X384810000Y-153162000D03*
D37*
%TO.N,R_COL8*%
X361442000Y-242316000D03*
D36*
%TO.N,R_BOOT0*%
X402082000Y-145542000D03*
D37*
%TO.N,R_COL6*%
X450088000Y-148336000D03*
X456946000Y-166878000D03*
%TO.N,R_COL7*%
X481330000Y-149351998D03*
D36*
%TO.N,R_OPT4*%
X394208000Y-140716000D03*
%TO.N,R_OPT3*%
X395224000Y-141478000D03*
%TO.N,R_OPT2*%
X395732000Y-142240000D03*
%TO.N,R_OPT1*%
X393446000Y-143256000D03*
D37*
%TO.N,Net-(F2-Pad1)*%
X466598000Y-139192000D03*
%TD*%
D38*
%TO.N,R_TX*%
X409619000Y-154017000D02*
X410469000Y-153167000D01*
X351075451Y-149359451D02*
X355733000Y-154017000D01*
X355733000Y-154017000D02*
X409619000Y-154017000D01*
X351075451Y-149241554D02*
X351075451Y-149359451D01*
%TO.N,Net-(R16-Pad2)*%
X361369508Y-247960492D02*
X361369508Y-252527730D01*
X361442000Y-247888000D02*
X361369508Y-247960492D01*
%TO.N,R_COL8*%
X361442000Y-245888000D02*
X361442000Y-242316000D01*
%TO.N,Net-(R20-Pad2)*%
X422790500Y-159766000D02*
X420089000Y-162467500D01*
X423672000Y-159766000D02*
X422790500Y-159766000D01*
X420089000Y-162467500D02*
X420089000Y-181517500D01*
%TO.N,R_COL4*%
X423450000Y-157988000D02*
X419354000Y-157988000D01*
X423672000Y-157766000D02*
X423450000Y-157988000D01*
%TO.N,R_ROW4*%
X389128000Y-155325597D02*
X389128000Y-154686002D01*
X369777230Y-158034770D02*
X386418827Y-158034770D01*
X386418827Y-158034770D02*
X389128000Y-155325597D01*
X364998000Y-233015500D02*
X364998000Y-162814000D01*
X364998000Y-162814000D02*
X369777230Y-158034770D01*
X366771000Y-234788500D02*
X364998000Y-233015500D01*
%TO.N,R_ROW5*%
X388366000Y-155432020D02*
X388366000Y-154686000D01*
X386140261Y-157657759D02*
X388366000Y-155432020D01*
X359232241Y-157657759D02*
X386140261Y-157657759D01*
X345948000Y-170942000D02*
X359232241Y-157657759D01*
X345948000Y-237015500D02*
X345948000Y-170942000D01*
X347721000Y-238788500D02*
X345948000Y-237015500D01*
%TO.N,R_ROW3*%
X369934479Y-162957521D02*
X374454020Y-158437980D01*
X374454020Y-158437980D02*
X386646020Y-158437980D01*
X389890000Y-155194000D02*
X389890000Y-154686002D01*
X369934479Y-212575021D02*
X369934479Y-162957521D01*
X386646020Y-158437980D02*
X389890000Y-155194000D01*
X366771000Y-215738500D02*
X369934479Y-212575021D01*
%TO.N,R_ROW2*%
X390652000Y-155078093D02*
X390652000Y-154686000D01*
X384048000Y-161682093D02*
X390652000Y-155078093D01*
X384048000Y-190915500D02*
X384048000Y-161682093D01*
X385821000Y-192688500D02*
X384048000Y-190915500D01*
%TO.N,R_ROW1*%
X391414000Y-154940000D02*
X391414000Y-154686000D01*
X388912511Y-157441489D02*
X391414000Y-154940000D01*
X388912511Y-170546989D02*
X388912511Y-157441489D01*
X385821000Y-173638500D02*
X388912511Y-170546989D01*
%TO.N,R_TX*%
X409199000Y-153167000D02*
X410469000Y-153167000D01*
X407924000Y-151892000D02*
X409199000Y-153167000D01*
X405638000Y-147066000D02*
X407924000Y-149352000D01*
X407924000Y-149352000D02*
X407924000Y-151892000D01*
D39*
%TO.N,+3V3*%
X404840500Y-151415500D02*
X403316500Y-151415500D01*
%TO.N,GND*%
X402357500Y-153140500D02*
X402336000Y-153162000D01*
X403316500Y-153140500D02*
X402357500Y-153140500D01*
X403316500Y-153140500D02*
X404840500Y-153140500D01*
%TO.N,+5V*%
X447168000Y-140716000D02*
X436371998Y-140716000D01*
X450596000Y-144144000D02*
X447168000Y-140716000D01*
D38*
%TO.N,R_COL8*%
X345821000Y-242316000D02*
X347980000Y-242316000D01*
X343535000Y-240030000D02*
X345821000Y-242316000D01*
%TO.N,R_COL1*%
X360305800Y-163112000D02*
X359892600Y-163525200D01*
X363220000Y-163112000D02*
X360305800Y-163112000D01*
%TO.N,R_OPT1*%
X384960000Y-151742000D02*
X393446000Y-143256000D01*
X381431750Y-151742000D02*
X384960000Y-151742000D01*
%TO.N,R_OPT2*%
X386068897Y-149202000D02*
X381431750Y-149202000D01*
X393030897Y-142240000D02*
X386068897Y-149202000D01*
X395732000Y-142240000D02*
X393030897Y-142240000D01*
%TO.N,R_OPT3*%
X386738000Y-146662000D02*
X381431750Y-146662000D01*
X391537511Y-141862489D02*
X386738000Y-146662000D01*
X394839511Y-141862489D02*
X391537511Y-141862489D01*
X395224000Y-141478000D02*
X394839511Y-141862489D01*
%TO.N,R_OPT4*%
X387500000Y-144122000D02*
X381431750Y-144122000D01*
X394208000Y-140716000D02*
X390906000Y-140716000D01*
X390906000Y-140716000D02*
X387500000Y-144122000D01*
%TO.N,R_BOOT0*%
X387064000Y-140240000D02*
X387096000Y-140240000D01*
X385722000Y-141582000D02*
X387064000Y-140240000D01*
X381431750Y-141582000D02*
X385722000Y-141582000D01*
%TO.N,R_PTR_Z*%
X325149486Y-319405000D02*
X308610000Y-319405000D01*
X327779486Y-322035000D02*
X325149486Y-319405000D01*
X327793200Y-322035000D02*
X327779486Y-322035000D01*
%TO.N,R_COL3*%
X400320002Y-157750000D02*
X399288002Y-156718000D01*
X405130000Y-157750000D02*
X400320002Y-157750000D01*
%TO.N,Net-(R19-Pad2)*%
X405130000Y-159750000D02*
X401756500Y-159750000D01*
X401756500Y-159750000D02*
X401039000Y-160467500D01*
%TO.N,R_PTR_Z*%
X308610000Y-319405000D02*
X306705000Y-317500000D01*
%TO.N,R_COL8*%
X347329000Y-242316000D02*
X361442000Y-242316000D01*
%TO.N,R_RX*%
X392476501Y-146257499D02*
X385572000Y-153162000D01*
X405845499Y-146257499D02*
X392476501Y-146257499D01*
X385572000Y-153162000D02*
X384810000Y-153162000D01*
X406146000Y-146558000D02*
X405845499Y-146257499D01*
%TO.N,Net-(R24-Pad2)*%
X439139000Y-229617500D02*
X439139000Y-248667500D01*
X439139000Y-210567500D02*
X439139000Y-229617500D01*
X439139000Y-191517500D02*
X439139000Y-210567500D01*
X439139000Y-172467500D02*
X439139000Y-191517500D01*
X442204500Y-169402000D02*
X439139000Y-172467500D01*
X442214000Y-169402000D02*
X442204500Y-169402000D01*
%TO.N,Net-(R20-Pad2)*%
X420089000Y-219617500D02*
X420089000Y-238667500D01*
X420089000Y-200567500D02*
X420089000Y-219617500D01*
X420089000Y-181517500D02*
X420089000Y-200567500D01*
%TO.N,Net-(R13-Pad2)*%
X362939000Y-206567500D02*
X362939000Y-225617500D01*
X362939000Y-187517500D02*
X362939000Y-206567500D01*
X362939000Y-168467500D02*
X362939000Y-187517500D01*
X363220000Y-165112000D02*
X362939000Y-165393000D01*
X362939000Y-165393000D02*
X362939000Y-168467500D01*
%TO.N,R_COL2*%
X379984000Y-159258000D02*
X379730000Y-159512000D01*
X381912000Y-159258000D02*
X379984000Y-159258000D01*
X381944000Y-159290000D02*
X381912000Y-159258000D01*
%TO.N,Net-(R15-Pad2)*%
X381989000Y-221617500D02*
X381989000Y-240667500D01*
X381989000Y-202567500D02*
X381989000Y-221617500D01*
X381989000Y-183517500D02*
X381989000Y-202567500D01*
X381989000Y-164467500D02*
X381989000Y-183517500D01*
X381989000Y-161335000D02*
X381989000Y-164467500D01*
X381944000Y-161290000D02*
X381989000Y-161335000D01*
%TO.N,R_COL6*%
X457216000Y-167148000D02*
X456946000Y-166878000D01*
X458216000Y-167148000D02*
X457216000Y-167148000D01*
%TO.N,R_ROW4*%
X384048000Y-252476000D02*
X384048000Y-232561500D01*
X384048000Y-232561500D02*
X385821000Y-230788500D01*
X364744000Y-271780000D02*
X384048000Y-252476000D01*
X350520000Y-271780000D02*
X364744000Y-271780000D01*
%TO.N,R_ROW3*%
X369934479Y-218901979D02*
X366771000Y-215738500D01*
X369934479Y-255939279D02*
X369934479Y-218901979D01*
X366674400Y-259486400D02*
X370078000Y-256082800D01*
X370078000Y-256082800D02*
X369934479Y-255939279D01*
%TO.N,Net-(R19-Pad2)*%
X401039000Y-217617500D02*
X401039000Y-236667500D01*
X401039000Y-198567500D02*
X401039000Y-217617500D01*
X401039000Y-179517500D02*
X401039000Y-198567500D01*
X401039000Y-160467500D02*
X401039000Y-179517500D01*
%TO.N,R_COL5*%
X440706000Y-167402000D02*
X440690000Y-167386000D01*
X442214000Y-167402000D02*
X440706000Y-167402000D01*
X436609479Y-163305479D02*
X440690000Y-167386000D01*
X436609479Y-149335479D02*
X436609479Y-163305479D01*
X435610000Y-148336000D02*
X436609479Y-149335479D01*
%TO.N,Net-(D36-Pad2)*%
X349089000Y-171007500D02*
X349089000Y-172650500D01*
X349089000Y-172650500D02*
X347721000Y-174018500D01*
%TO.N,Net-(D52-Pad2)*%
X357843218Y-267106400D02*
X366674400Y-267106400D01*
X348170987Y-257434169D02*
X357843218Y-267106400D01*
%TO.N,Net-(D53-Pad2)*%
X332851076Y-279400000D02*
X350520000Y-279400000D01*
X329832678Y-276381602D02*
X332851076Y-279400000D01*
%TO.N,Net-(D54-Pad2)*%
X320664295Y-300882352D02*
X335387648Y-300882352D01*
X335387648Y-300882352D02*
X339090000Y-297180000D01*
D39*
%TO.N,GND*%
X393410500Y-152505500D02*
X392430000Y-152505500D01*
X404741800Y-141104200D02*
X404876000Y-140970000D01*
X463780000Y-148312000D02*
X463804000Y-148336000D01*
X442690000Y-145256000D02*
X442976000Y-145542000D01*
X455379000Y-147066000D02*
X454130500Y-147066000D01*
X441706000Y-145256000D02*
X442690000Y-145256000D01*
X387096000Y-142240000D02*
X388366000Y-142240000D01*
X463042000Y-151892000D02*
X463296000Y-151638000D01*
X463804000Y-151130000D02*
X463296000Y-151638000D01*
X398236500Y-139096500D02*
X396712500Y-139096500D01*
X462280000Y-151892000D02*
X463042000Y-151892000D01*
X403951500Y-141104200D02*
X404741800Y-141104200D01*
X394934500Y-152505500D02*
X393410500Y-152505500D01*
X398938500Y-139096500D02*
X399034000Y-139192000D01*
X463780000Y-147065000D02*
X463780000Y-148312000D01*
X463804000Y-148336000D02*
X463804000Y-151130000D01*
X398236500Y-139096500D02*
X398938500Y-139096500D01*
%TO.N,+3V3*%
X396585500Y-140821500D02*
X398210000Y-140821500D01*
X460780000Y-147065000D02*
X460779000Y-147066000D01*
X457454000Y-147066000D02*
X459232000Y-147066000D01*
X398210000Y-140821500D02*
X398236500Y-140848000D01*
X393410500Y-150780500D02*
X394934500Y-150780500D01*
X445770000Y-146013500D02*
X447257500Y-146013500D01*
X460779000Y-147066000D02*
X459232000Y-147066000D01*
%TO.N,Net-(D66-Pad2)*%
X451486000Y-139954000D02*
X459547000Y-139954000D01*
X459547000Y-139954000D02*
X460055000Y-140462000D01*
X450596000Y-140844000D02*
X451486000Y-139954000D01*
%TO.N,+5V*%
X455676000Y-141723000D02*
X453399000Y-141723000D01*
X453399000Y-141723000D02*
X450978000Y-144144000D01*
X450978000Y-144144000D02*
X450596000Y-144144000D01*
D38*
%TO.N,R_RX*%
X411988000Y-148336000D02*
X413009000Y-149357000D01*
X413009000Y-149357000D02*
X413009000Y-150627000D01*
X406146000Y-146558000D02*
X407924000Y-148336000D01*
X407924000Y-148336000D02*
X411988000Y-148336000D01*
%TO.N,R_BOOT0*%
X389029520Y-138306480D02*
X399672480Y-138306480D01*
X401320000Y-139954000D02*
X401320000Y-144780000D01*
X387096000Y-140240000D02*
X389029520Y-138306480D01*
X399672480Y-138306480D02*
X401320000Y-139954000D01*
X401320000Y-144780000D02*
X402082000Y-145542000D01*
%TO.N,Net-(R26-Pad2)*%
X477239000Y-158777000D02*
X477239000Y-172467500D01*
X477239000Y-191517500D02*
X477239000Y-220092500D01*
X478791500Y-153417500D02*
X480060000Y-154686000D01*
X477239000Y-220092500D02*
X477239000Y-239142500D01*
X481330000Y-154686000D02*
X477239000Y-158777000D01*
X477239000Y-172467500D02*
X477239000Y-191517500D01*
X477239000Y-239142500D02*
X467714000Y-248667500D01*
X480060000Y-154686000D02*
X481330000Y-154686000D01*
X477239000Y-153417500D02*
X478791500Y-153417500D01*
%TO.N,R_COL6*%
X458216000Y-156464000D02*
X450088000Y-148336000D01*
X458216000Y-167148000D02*
X458216000Y-156464000D01*
%TO.N,R_COL7*%
X481330000Y-152686000D02*
X481330000Y-149351998D01*
D39*
%TO.N,Net-(F2-Pad1)*%
X465328000Y-140462000D02*
X466598000Y-139192000D01*
X464505000Y-140462000D02*
X465328000Y-140462000D01*
%TO.N,Net-(C14-Pad1)*%
X462280000Y-149563000D02*
X462026000Y-149817000D01*
X462280000Y-146977500D02*
X462280000Y-149563000D01*
X462280000Y-144780000D02*
X462280000Y-146977500D01*
X461255000Y-143773000D02*
X461264000Y-143764000D01*
X455676000Y-143773000D02*
X461255000Y-143773000D01*
X461264000Y-143764000D02*
X462280000Y-144780000D01*
D38*
%TO.N,Net-(R16-Pad2)*%
X360016167Y-251174389D02*
X361369508Y-252527730D01*
X325389591Y-276576857D02*
X325389591Y-287617900D01*
X339642011Y-259543989D02*
X348011611Y-251174389D01*
X339642011Y-266279569D02*
X335686879Y-266279569D01*
D39*
X348011611Y-251174389D02*
X353790389Y-251174389D01*
D38*
X335686879Y-266279569D02*
X325389591Y-276576857D01*
X353790389Y-251174389D02*
X360016167Y-251174389D01*
X339642011Y-266279569D02*
X339642011Y-259543989D01*
X348202389Y-251174389D02*
X353790389Y-251174389D01*
%TO.N,Net-(R25-Pad2)*%
X448664000Y-162942500D02*
X458189000Y-172467500D01*
X458189000Y-191517500D02*
X458189000Y-210567500D01*
X458189000Y-172467500D02*
X458189000Y-191517500D01*
X448664000Y-153417500D02*
X448664000Y-162942500D01*
X458189000Y-210567500D02*
X458189000Y-229617500D01*
X458189000Y-169175000D02*
X458189000Y-172467500D01*
X458216000Y-169148000D02*
X458189000Y-169175000D01*
%TO.N,Net-(D37-Pad2)*%
X349089000Y-191700500D02*
X347721000Y-193068500D01*
X349089000Y-190057500D02*
X349089000Y-191700500D01*
%TO.N,Net-(D38-Pad2)*%
X349089000Y-210750500D02*
X347721000Y-212118500D01*
X349089000Y-209107500D02*
X349089000Y-210750500D01*
%TO.N,Net-(D39-Pad2)*%
X349089000Y-229800500D02*
X347721000Y-231168500D01*
X349089000Y-228157500D02*
X349089000Y-229800500D01*
%TO.N,Net-(D40-Pad2)*%
X368139000Y-168650500D02*
X366771000Y-170018500D01*
X368139000Y-167007500D02*
X368139000Y-168650500D01*
%TO.N,Net-(D41-Pad2)*%
X368139000Y-187700500D02*
X366771000Y-189068500D01*
X368139000Y-186057500D02*
X368139000Y-187700500D01*
%TO.N,Net-(D42-Pad2)*%
X368139000Y-206750500D02*
X366771000Y-208118500D01*
X368139000Y-205107500D02*
X368139000Y-206750500D01*
%TO.N,Net-(D43-Pad2)*%
X368139000Y-225800500D02*
X366771000Y-227168500D01*
X368139000Y-224157500D02*
X368139000Y-225800500D01*
%TO.N,Net-(D44-Pad2)*%
X368139000Y-244850500D02*
X366771000Y-246218500D01*
X368139000Y-243207500D02*
X368139000Y-244850500D01*
%TO.N,Net-(D46-Pad2)*%
X387189000Y-164650500D02*
X385821000Y-166018500D01*
X387189000Y-163007500D02*
X387189000Y-164650500D01*
%TO.N,Net-(D47-Pad2)*%
X387189000Y-183700500D02*
X385821000Y-185068500D01*
X387189000Y-182057500D02*
X387189000Y-183700500D01*
%TO.N,Net-(D48-Pad2)*%
X387189000Y-202750500D02*
X385821000Y-204118500D01*
X387189000Y-201107500D02*
X387189000Y-202750500D01*
%TO.N,Net-(D49-Pad2)*%
X387189000Y-221800500D02*
X385821000Y-223168500D01*
X387189000Y-220157500D02*
X387189000Y-221800500D01*
%TO.N,Net-(D50-Pad2)*%
X387189000Y-240850500D02*
X385821000Y-242218500D01*
X387189000Y-239207500D02*
X387189000Y-240850500D01*
%TO.N,Net-(D56-Pad2)*%
X406239000Y-166650500D02*
X404871000Y-168018500D01*
X406239000Y-165007500D02*
X406239000Y-166650500D01*
%TO.N,Net-(D57-Pad2)*%
X406239000Y-185700500D02*
X404871000Y-187068500D01*
X406239000Y-184057500D02*
X406239000Y-185700500D01*
%TO.N,Net-(D58-Pad2)*%
X406239000Y-204750500D02*
X404871000Y-206118500D01*
X406239000Y-203107500D02*
X406239000Y-204750500D01*
%TO.N,Net-(D59-Pad2)*%
X406239000Y-223800500D02*
X404871000Y-225168500D01*
X406239000Y-222157500D02*
X406239000Y-223800500D01*
%TO.N,Net-(D60-Pad2)*%
X406239000Y-242850500D02*
X404871000Y-244218500D01*
X406239000Y-241207500D02*
X406239000Y-242850500D01*
%TO.N,Net-(D61-Pad2)*%
X425289000Y-176650500D02*
X423921000Y-178018500D01*
X425289000Y-175007500D02*
X425289000Y-176650500D01*
%TO.N,Net-(D62-Pad2)*%
X425289000Y-195700500D02*
X423921000Y-197068500D01*
X425289000Y-194057500D02*
X425289000Y-195700500D01*
%TO.N,Net-(D63-Pad2)*%
X425289000Y-214750500D02*
X423921000Y-216118500D01*
X425289000Y-213107500D02*
X425289000Y-214750500D01*
%TO.N,Net-(D64-Pad2)*%
X425289000Y-233800500D02*
X423921000Y-235168500D01*
X425289000Y-232157500D02*
X425289000Y-233800500D01*
%TO.N,Net-(D65-Pad2)*%
X425289000Y-252850500D02*
X423921000Y-254218500D01*
X425289000Y-251207500D02*
X425289000Y-252850500D01*
%TO.N,Net-(D67-Pad2)*%
X434814000Y-167606000D02*
X436118000Y-168910000D01*
X434814000Y-155957500D02*
X434814000Y-167606000D01*
%TO.N,Net-(D68-Pad2)*%
X444339000Y-176650500D02*
X442971000Y-178018500D01*
X444339000Y-175007500D02*
X444339000Y-176650500D01*
%TO.N,Net-(D69-Pad2)*%
X444339000Y-195700500D02*
X442971000Y-197068500D01*
X444339000Y-194057500D02*
X444339000Y-195700500D01*
%TO.N,Net-(D70-Pad2)*%
X444339000Y-214750500D02*
X442971000Y-216118500D01*
X444339000Y-213107500D02*
X444339000Y-214750500D01*
%TO.N,Net-(D71-Pad2)*%
X444339000Y-233800500D02*
X442971000Y-235168500D01*
X444339000Y-232157500D02*
X444339000Y-233800500D01*
%TO.N,Net-(D72-Pad2)*%
X463389000Y-157600500D02*
X462021000Y-158968500D01*
X463389000Y-155957500D02*
X463389000Y-157600500D01*
%TO.N,Net-(D73-Pad2)*%
X463389000Y-176650500D02*
X462021000Y-178018500D01*
X463389000Y-175007500D02*
X463389000Y-176650500D01*
%TO.N,Net-(D74-Pad2)*%
X463389000Y-195700500D02*
X462021000Y-197068500D01*
X463389000Y-194057500D02*
X463389000Y-195700500D01*
%TO.N,Net-(D75-Pad2)*%
X463389000Y-224275500D02*
X462021000Y-225643500D01*
X463389000Y-222632500D02*
X463389000Y-224275500D01*
%TO.N,Net-(D76-Pad2)*%
X453898000Y-244856000D02*
X453898000Y-251173500D01*
X453898000Y-251173500D02*
X453864000Y-251207500D01*
%TO.N,Net-(D77-Pad1)*%
X441923500Y-143038500D02*
X441706000Y-143256000D01*
X445770000Y-143038500D02*
X441923500Y-143038500D01*
%TD*%
M02*
