%TF.GenerationSoftware,KiCad,Pcbnew,(6.0.0)*%
%TF.CreationDate,2022-01-02T22:49:07-08:00*%
%TF.ProjectId,thumbler_right,7468756d-626c-4657-925f-72696768742e,rev?*%
%TF.SameCoordinates,Original*%
%TF.FileFunction,Paste,Bot*%
%TF.FilePolarity,Positive*%
%FSLAX46Y46*%
G04 Gerber Fmt 4.6, Leading zero omitted, Abs format (unit mm)*
G04 Created by KiCad (PCBNEW (6.0.0)) date 2022-01-02 22:49:07*
%MOMM*%
%LPD*%
G01*
G04 APERTURE LIST*
G04 Aperture macros list*
%AMRoundRect*
0 Rectangle with rounded corners*
0 $1 Rounding radius*
0 $2 $3 $4 $5 $6 $7 $8 $9 X,Y pos of 4 corners*
0 Add a 4 corners polygon primitive as box body*
4,1,4,$2,$3,$4,$5,$6,$7,$8,$9,$2,$3,0*
0 Add four circle primitives for the rounded corners*
1,1,$1+$1,$2,$3*
1,1,$1+$1,$4,$5*
1,1,$1+$1,$6,$7*
1,1,$1+$1,$8,$9*
0 Add four rect primitives between the rounded corners*
20,1,$1+$1,$2,$3,$4,$5,0*
20,1,$1+$1,$4,$5,$6,$7,0*
20,1,$1+$1,$6,$7,$8,$9,0*
20,1,$1+$1,$8,$9,$2,$3,0*%
%AMRotRect*
0 Rectangle, with rotation*
0 The origin of the aperture is its center*
0 $1 length*
0 $2 width*
0 $3 Rotation angle, in degrees counterclockwise*
0 Add horizontal line*
21,1,$1,$2,0,0,$3*%
%AMFreePoly0*
4,1,9,3.862500,-0.866500,0.737500,-0.866500,0.737500,-0.450000,-0.737500,-0.450000,-0.737500,0.450000,0.737500,0.450000,0.737500,0.866500,3.862500,0.866500,3.862500,-0.866500,3.862500,-0.866500,$1*%
G04 Aperture macros list end*
%ADD10R,2.550000X2.500000*%
%ADD11RotRect,2.550000X2.500000X10.000000*%
%ADD12RotRect,2.550000X2.500000X35.450000*%
%ADD13RotRect,2.550000X2.500000X60.000000*%
%ADD14RoundRect,0.250000X-0.475000X0.337500X-0.475000X-0.337500X0.475000X-0.337500X0.475000X0.337500X0*%
%ADD15RoundRect,0.250000X0.337500X0.475000X-0.337500X0.475000X-0.337500X-0.475000X0.337500X-0.475000X0*%
%ADD16RoundRect,0.237500X-0.237500X0.300000X-0.237500X-0.300000X0.237500X-0.300000X0.237500X0.300000X0*%
%ADD17RoundRect,0.237500X0.237500X-0.300000X0.237500X0.300000X-0.237500X0.300000X-0.237500X-0.300000X0*%
%ADD18RoundRect,0.249999X0.450001X-0.325001X0.450001X0.325001X-0.450001X0.325001X-0.450001X-0.325001X0*%
%ADD19RoundRect,0.249999X-0.450001X0.350001X-0.450001X-0.350001X0.450001X-0.350001X0.450001X0.350001X0*%
%ADD20R,0.900000X1.300000*%
%ADD21FreePoly0,90.000000*%
%ADD22R,1.200000X0.900000*%
%ADD23RoundRect,0.250000X0.400000X1.450000X-0.400000X1.450000X-0.400000X-1.450000X0.400000X-1.450000X0*%
%ADD24RoundRect,0.250001X-0.624999X0.462499X-0.624999X-0.462499X0.624999X-0.462499X0.624999X0.462499X0*%
G04 APERTURE END LIST*
D10*
%TO.C,S35*%
X349089000Y-171007500D03*
X362939000Y-168467500D03*
%TD*%
D11*
%TO.C,S44*%
X348170987Y-257434169D03*
X361369508Y-252527730D03*
%TD*%
D12*
%TO.C,S45*%
X329832678Y-276381602D03*
X339642011Y-266279569D03*
%TD*%
D13*
%TO.C,S46*%
X320664295Y-300882352D03*
X325389591Y-287617900D03*
%TD*%
D10*
%TO.C,S71*%
X453864000Y-251207500D03*
X467714000Y-248667500D03*
%TD*%
%TO.C,S39*%
X368139000Y-167007500D03*
X381989000Y-164467500D03*
%TD*%
%TO.C,S47*%
X387189000Y-163007500D03*
X401039000Y-160467500D03*
%TD*%
%TO.C,S52*%
X406239000Y-165007500D03*
X420089000Y-162467500D03*
%TD*%
%TO.C,S57*%
X425289000Y-175007500D03*
X439139000Y-172467500D03*
%TD*%
%TO.C,S62*%
X434814000Y-155957500D03*
X448664000Y-153417500D03*
%TD*%
%TO.C,S67*%
X463389000Y-155957500D03*
X477239000Y-153417500D03*
%TD*%
%TO.C,S36*%
X349089000Y-190057500D03*
X362939000Y-187517500D03*
%TD*%
%TO.C,S40*%
X368139000Y-186057500D03*
X381989000Y-183517500D03*
%TD*%
%TO.C,S48*%
X387189000Y-182057500D03*
X401039000Y-179517500D03*
%TD*%
%TO.C,S53*%
X406239000Y-184057500D03*
X420089000Y-181517500D03*
%TD*%
%TO.C,S58*%
X425289000Y-194057500D03*
X439139000Y-191517500D03*
%TD*%
%TO.C,S63*%
X444339000Y-175007500D03*
X458189000Y-172467500D03*
%TD*%
%TO.C,S68*%
X463389000Y-175007500D03*
X477239000Y-172467500D03*
%TD*%
%TO.C,S37*%
X349089000Y-209107500D03*
X362939000Y-206567500D03*
%TD*%
%TO.C,S41*%
X368139000Y-205107500D03*
X381989000Y-202567500D03*
%TD*%
%TO.C,S49*%
X387189000Y-201107500D03*
X401039000Y-198567500D03*
%TD*%
%TO.C,S54*%
X406239000Y-203107500D03*
X420089000Y-200567500D03*
%TD*%
%TO.C,S59*%
X425289000Y-213107500D03*
X439139000Y-210567500D03*
%TD*%
%TO.C,S64*%
X444339000Y-194057500D03*
X458189000Y-191517500D03*
%TD*%
%TO.C,S69*%
X463389000Y-194057500D03*
X477239000Y-191517500D03*
%TD*%
%TO.C,S38*%
X349089000Y-228157500D03*
X362939000Y-225617500D03*
%TD*%
%TO.C,S42*%
X368139000Y-224157500D03*
X381989000Y-221617500D03*
%TD*%
%TO.C,S50*%
X387189000Y-220157500D03*
X401039000Y-217617500D03*
%TD*%
%TO.C,S55*%
X406239000Y-222157500D03*
X420089000Y-219617500D03*
%TD*%
%TO.C,S60*%
X425289000Y-232157500D03*
X439139000Y-229617500D03*
%TD*%
%TO.C,S65*%
X444339000Y-213107500D03*
X458189000Y-210567500D03*
%TD*%
%TO.C,S70*%
X463389000Y-222632500D03*
X477239000Y-220092500D03*
%TD*%
%TO.C,S43*%
X368139000Y-243207500D03*
X381989000Y-240667500D03*
%TD*%
%TO.C,S51*%
X387189000Y-239207500D03*
X401039000Y-236667500D03*
%TD*%
%TO.C,S56*%
X406239000Y-241207500D03*
X420089000Y-238667500D03*
%TD*%
%TO.C,S61*%
X425289000Y-251207500D03*
X439139000Y-248667500D03*
%TD*%
%TO.C,S66*%
X444339000Y-232157500D03*
X458189000Y-229617500D03*
%TD*%
D14*
%TO.C,C14*%
X462026000Y-149817000D03*
X462026000Y-151892000D03*
%TD*%
D15*
%TO.C,C15*%
X457454000Y-147066000D03*
X455379000Y-147066000D03*
%TD*%
D16*
%TO.C,C16*%
X393410500Y-150780500D03*
X393410500Y-152505500D03*
%TD*%
%TO.C,C17*%
X404840500Y-153140500D03*
X404840500Y-151415500D03*
%TD*%
%TO.C,C18*%
X394934500Y-150780500D03*
X394934500Y-152505500D03*
%TD*%
%TO.C,C19*%
X403316500Y-153140500D03*
X403316500Y-151415500D03*
%TD*%
D17*
%TO.C,C20*%
X403951500Y-142829200D03*
X403951500Y-141104200D03*
%TD*%
%TO.C,C21*%
X396712500Y-140821500D03*
X396712500Y-139096500D03*
%TD*%
%TO.C,C22*%
X398236500Y-140821500D03*
X398236500Y-139096500D03*
%TD*%
D18*
%TO.C,FB2*%
X455676000Y-143773000D03*
X455676000Y-141723000D03*
%TD*%
D19*
%TO.C,R27*%
X441706000Y-143256000D03*
X441706000Y-145256000D03*
%TD*%
%TO.C,R13*%
X363220000Y-163112000D03*
X363220000Y-165112000D03*
%TD*%
%TO.C,R15*%
X381944000Y-159290000D03*
X381944000Y-161290000D03*
%TD*%
%TO.C,R16*%
X361442000Y-245888000D03*
X361442000Y-247888000D03*
%TD*%
%TO.C,R19*%
X405130000Y-157750000D03*
X405130000Y-159750000D03*
%TD*%
%TO.C,R20*%
X423672000Y-157766000D03*
X423672000Y-159766000D03*
%TD*%
%TO.C,R23*%
X387096000Y-140240000D03*
X387096000Y-142240000D03*
%TD*%
%TO.C,R24*%
X442214000Y-167402000D03*
X442214000Y-169402000D03*
%TD*%
%TO.C,R25*%
X458216000Y-167148000D03*
X458216000Y-169148000D03*
%TD*%
%TO.C,R26*%
X481330000Y-152686000D03*
X481330000Y-154686000D03*
%TD*%
D20*
%TO.C,U3*%
X463780000Y-147065000D03*
D21*
X462280000Y-146977500D03*
D20*
X460780000Y-147065000D03*
%TD*%
D22*
%TO.C,D66*%
X450596000Y-144144000D03*
X450596000Y-140844000D03*
%TD*%
D23*
%TO.C,F2*%
X464505000Y-140462000D03*
X460055000Y-140462000D03*
%TD*%
D24*
%TO.C,D77*%
X445770000Y-143038500D03*
X445770000Y-146013500D03*
%TD*%
M02*
