%TF.GenerationSoftware,KiCad,Pcbnew,(6.0.0)*%
%TF.CreationDate,2022-01-02T22:00:42-08:00*%
%TF.ProjectId,thumbler_left,7468756d-626c-4657-925f-6c6566742e6b,rev?*%
%TF.SameCoordinates,Original*%
%TF.FileFunction,Paste,Top*%
%TF.FilePolarity,Positive*%
%FSLAX46Y46*%
G04 Gerber Fmt 4.6, Leading zero omitted, Abs format (unit mm)*
G04 Created by KiCad (PCBNEW (6.0.0)) date 2022-01-02 22:00:42*
%MOMM*%
%LPD*%
G01*
G04 APERTURE LIST*
G04 Aperture macros list*
%AMRoundRect*
0 Rectangle with rounded corners*
0 $1 Rounding radius*
0 $2 $3 $4 $5 $6 $7 $8 $9 X,Y pos of 4 corners*
0 Add a 4 corners polygon primitive as box body*
4,1,4,$2,$3,$4,$5,$6,$7,$8,$9,$2,$3,0*
0 Add four circle primitives for the rounded corners*
1,1,$1+$1,$2,$3*
1,1,$1+$1,$4,$5*
1,1,$1+$1,$6,$7*
1,1,$1+$1,$8,$9*
0 Add four rect primitives between the rounded corners*
20,1,$1+$1,$2,$3,$4,$5,0*
20,1,$1+$1,$4,$5,$6,$7,0*
20,1,$1+$1,$6,$7,$8,$9,0*
20,1,$1+$1,$8,$9,$2,$3,0*%
G04 Aperture macros list end*
%ADD10RoundRect,0.249999X0.450001X-0.350001X0.450001X0.350001X-0.450001X0.350001X-0.450001X-0.350001X0*%
%ADD11RoundRect,0.249999X-0.450001X0.350001X-0.450001X-0.350001X0.450001X-0.350001X0.450001X0.350001X0*%
%ADD12RoundRect,0.075000X-0.075000X0.662500X-0.075000X-0.662500X0.075000X-0.662500X0.075000X0.662500X0*%
%ADD13RoundRect,0.075000X-0.662500X0.075000X-0.662500X-0.075000X0.662500X-0.075000X0.662500X0.075000X0*%
%ADD14R,0.400000X1.600000*%
%ADD15R,1.400000X1.500000*%
%ADD16R,1.400000X1.200000*%
G04 APERTURE END LIST*
D10*
%TO.C,R1*%
X113665000Y-147685000D03*
X113665000Y-145685000D03*
%TD*%
D11*
%TO.C,R2*%
X116205000Y-145685000D03*
X116205000Y-147685000D03*
%TD*%
D12*
%TO.C,U1*%
X172295000Y-142522500D03*
X171795000Y-142522500D03*
X171295000Y-142522500D03*
X170795000Y-142522500D03*
X170295000Y-142522500D03*
X169795000Y-142522500D03*
X169295000Y-142522500D03*
X168795000Y-142522500D03*
X168295000Y-142522500D03*
X167795000Y-142522500D03*
X167295000Y-142522500D03*
X166795000Y-142522500D03*
D13*
X165382500Y-143935000D03*
X165382500Y-144435000D03*
X165382500Y-144935000D03*
X165382500Y-145435000D03*
X165382500Y-145935000D03*
X165382500Y-146435000D03*
X165382500Y-146935000D03*
X165382500Y-147435000D03*
X165382500Y-147935000D03*
X165382500Y-148435000D03*
X165382500Y-148935000D03*
X165382500Y-149435000D03*
D12*
X166795000Y-150847500D03*
X167295000Y-150847500D03*
X167795000Y-150847500D03*
X168295000Y-150847500D03*
X168795000Y-150847500D03*
X169295000Y-150847500D03*
X169795000Y-150847500D03*
X170295000Y-150847500D03*
X170795000Y-150847500D03*
X171295000Y-150847500D03*
X171795000Y-150847500D03*
X172295000Y-150847500D03*
D13*
X173707500Y-149435000D03*
X173707500Y-148935000D03*
X173707500Y-148435000D03*
X173707500Y-147935000D03*
X173707500Y-147435000D03*
X173707500Y-146935000D03*
X173707500Y-146435000D03*
X173707500Y-145935000D03*
X173707500Y-145435000D03*
X173707500Y-144935000D03*
X173707500Y-144435000D03*
X173707500Y-143935000D03*
%TD*%
D14*
%TO.C,J1*%
X116895400Y-141278000D03*
X116245400Y-141278000D03*
X115595400Y-141278000D03*
X114945400Y-141278000D03*
X114295400Y-141278000D03*
D15*
X119645400Y-138168000D03*
X111545400Y-138168000D03*
D16*
X112345400Y-140668000D03*
X118845400Y-140668000D03*
%TD*%
M02*
