%TF.GenerationSoftware,KiCad,Pcbnew,(6.0.0)*%
%TF.CreationDate,2022-01-02T22:00:42-08:00*%
%TF.ProjectId,thumbler_left,7468756d-626c-4657-925f-6c6566742e6b,rev?*%
%TF.SameCoordinates,Original*%
%TF.FileFunction,Paste,Bot*%
%TF.FilePolarity,Positive*%
%FSLAX46Y46*%
G04 Gerber Fmt 4.6, Leading zero omitted, Abs format (unit mm)*
G04 Created by KiCad (PCBNEW (6.0.0)) date 2022-01-02 22:00:42*
%MOMM*%
%LPD*%
G01*
G04 APERTURE LIST*
G04 Aperture macros list*
%AMRoundRect*
0 Rectangle with rounded corners*
0 $1 Rounding radius*
0 $2 $3 $4 $5 $6 $7 $8 $9 X,Y pos of 4 corners*
0 Add a 4 corners polygon primitive as box body*
4,1,4,$2,$3,$4,$5,$6,$7,$8,$9,$2,$3,0*
0 Add four circle primitives for the rounded corners*
1,1,$1+$1,$2,$3*
1,1,$1+$1,$4,$5*
1,1,$1+$1,$6,$7*
1,1,$1+$1,$8,$9*
0 Add four rect primitives between the rounded corners*
20,1,$1+$1,$2,$3,$4,$5,0*
20,1,$1+$1,$4,$5,$6,$7,0*
20,1,$1+$1,$6,$7,$8,$9,0*
20,1,$1+$1,$8,$9,$2,$3,0*%
%AMRotRect*
0 Rectangle, with rotation*
0 The origin of the aperture is its center*
0 $1 length*
0 $2 width*
0 $3 Rotation angle, in degrees counterclockwise*
0 Add horizontal line*
21,1,$1,$2,0,0,$3*%
%AMFreePoly0*
4,1,9,3.862500,-0.866500,0.737500,-0.866500,0.737500,-0.450000,-0.737500,-0.450000,-0.737500,0.450000,0.737500,0.450000,0.737500,0.866500,3.862500,0.866500,3.862500,-0.866500,3.862500,-0.866500,$1*%
G04 Aperture macros list end*
%ADD10R,2.550000X2.500000*%
%ADD11RotRect,2.550000X2.500000X350.000000*%
%ADD12RotRect,2.550000X2.500000X324.600000*%
%ADD13RotRect,2.550000X2.500000X300.000000*%
%ADD14RoundRect,0.250000X-0.475000X0.337500X-0.475000X-0.337500X0.475000X-0.337500X0.475000X0.337500X0*%
%ADD15RoundRect,0.237500X-0.237500X0.300000X-0.237500X-0.300000X0.237500X-0.300000X0.237500X0.300000X0*%
%ADD16RoundRect,0.237500X-0.300000X-0.237500X0.300000X-0.237500X0.300000X0.237500X-0.300000X0.237500X0*%
%ADD17RoundRect,0.237500X0.237500X-0.300000X0.237500X0.300000X-0.237500X0.300000X-0.237500X-0.300000X0*%
%ADD18RoundRect,0.250000X0.337500X0.475000X-0.337500X0.475000X-0.337500X-0.475000X0.337500X-0.475000X0*%
%ADD19RoundRect,0.250000X-0.625000X0.462500X-0.625000X-0.462500X0.625000X-0.462500X0.625000X0.462500X0*%
%ADD20RoundRect,0.249999X0.450001X-0.350001X0.450001X0.350001X-0.450001X0.350001X-0.450001X-0.350001X0*%
%ADD21RoundRect,0.249999X-0.450001X0.350001X-0.450001X-0.350001X0.450001X-0.350001X0.450001X0.350001X0*%
%ADD22R,0.900000X1.300000*%
%ADD23FreePoly0,90.000000*%
%ADD24R,0.900000X1.200000*%
%ADD25RoundRect,0.249999X-0.450001X0.325001X-0.450001X-0.325001X0.450001X-0.325001X0.450001X0.325001X0*%
%ADD26RoundRect,0.250000X-1.450000X0.400000X-1.450000X-0.400000X1.450000X-0.400000X1.450000X0.400000X0*%
G04 APERTURE END LIST*
D10*
%TO.C,S1*%
X90046000Y-251711000D03*
X103896000Y-249171000D03*
%TD*%
%TO.C,S4*%
X109093000Y-175506200D03*
X122943000Y-172966200D03*
%TD*%
D11*
%TO.C,S27*%
X205466920Y-255240408D03*
X219547574Y-255144024D03*
%TD*%
D12*
%TO.C,S28*%
X226303906Y-268087981D03*
X239064800Y-274040600D03*
%TD*%
D13*
%TO.C,S29*%
X240290617Y-288299663D03*
X249415321Y-299024115D03*
%TD*%
D10*
%TO.C,S7*%
X128143000Y-175506200D03*
X141993000Y-172966200D03*
%TD*%
%TO.C,S12*%
X147193000Y-165506200D03*
X161043000Y-162966200D03*
%TD*%
%TO.C,S17*%
X166243000Y-163506200D03*
X180093000Y-160966200D03*
%TD*%
%TO.C,S22*%
X185293000Y-167506200D03*
X199143000Y-164966200D03*
%TD*%
%TO.C,S30*%
X204343000Y-171506200D03*
X218193000Y-168966200D03*
%TD*%
%TO.C,S5*%
X109093000Y-194556200D03*
X122943000Y-192016200D03*
%TD*%
%TO.C,S8*%
X128143000Y-194556200D03*
X141993000Y-192016200D03*
%TD*%
%TO.C,S13*%
X147193000Y-184556200D03*
X161043000Y-182016200D03*
%TD*%
%TO.C,S18*%
X166243000Y-182556200D03*
X180093000Y-180016200D03*
%TD*%
%TO.C,S23*%
X185293000Y-186556200D03*
X199143000Y-184016200D03*
%TD*%
%TO.C,S31*%
X204343000Y-190556200D03*
X218193000Y-188016200D03*
%TD*%
%TO.C,S2*%
X104366516Y-213597880D03*
X118216516Y-211057880D03*
%TD*%
%TO.C,S9*%
X128143000Y-213606200D03*
X141993000Y-211066200D03*
%TD*%
%TO.C,S14*%
X147193000Y-203606200D03*
X161043000Y-201066200D03*
%TD*%
%TO.C,S19*%
X166243000Y-201606200D03*
X180093000Y-199066200D03*
%TD*%
%TO.C,S24*%
X185293000Y-205606200D03*
X199143000Y-203066200D03*
%TD*%
%TO.C,S32*%
X204343000Y-209606200D03*
X218193000Y-207066200D03*
%TD*%
%TO.C,S3*%
X101945456Y-232655156D03*
X115795456Y-230115156D03*
%TD*%
%TO.C,S10*%
X128143000Y-232656200D03*
X141993000Y-230116200D03*
%TD*%
%TO.C,S15*%
X147193000Y-222656200D03*
X161043000Y-220116200D03*
%TD*%
%TO.C,S20*%
X166243000Y-220656200D03*
X180093000Y-218116200D03*
%TD*%
%TO.C,S25*%
X185293000Y-224656200D03*
X199143000Y-222116200D03*
%TD*%
%TO.C,S33*%
X204343000Y-228656200D03*
X218193000Y-226116200D03*
%TD*%
%TO.C,S6*%
X109093000Y-251706200D03*
X122943000Y-249166200D03*
%TD*%
%TO.C,S11*%
X128143000Y-251706200D03*
X141993000Y-249166200D03*
%TD*%
%TO.C,S16*%
X147193000Y-241706200D03*
X161043000Y-239166200D03*
%TD*%
%TO.C,S21*%
X166243000Y-239706200D03*
X180093000Y-237166200D03*
%TD*%
%TO.C,S26*%
X185293000Y-243706200D03*
X199143000Y-241166200D03*
%TD*%
D14*
%TO.C,C1*%
X111125000Y-151331250D03*
X111125000Y-153406250D03*
%TD*%
D15*
%TO.C,C3*%
X163515100Y-150728600D03*
X163515100Y-152453600D03*
%TD*%
D16*
%TO.C,C7*%
X172812600Y-152506600D03*
X174537600Y-152506600D03*
%TD*%
D17*
%TO.C,C8*%
X174056100Y-142701100D03*
X174056100Y-140976100D03*
%TD*%
%TO.C,C9*%
X166702800Y-140695600D03*
X166702800Y-138970600D03*
%TD*%
D18*
%TO.C,C4*%
X138832500Y-141605000D03*
X136757500Y-141605000D03*
%TD*%
D17*
%TO.C,C10*%
X168214100Y-140695600D03*
X168214100Y-138970600D03*
%TD*%
D19*
%TO.C,D2*%
X102842500Y-145801250D03*
X102842500Y-148776250D03*
%TD*%
D20*
%TO.C,R7*%
X156845000Y-145145000D03*
X156845000Y-143145000D03*
%TD*%
D21*
%TO.C,R4*%
X97762500Y-146288750D03*
X97762500Y-148288750D03*
%TD*%
%TO.C,R6*%
X142523600Y-166880600D03*
X142523600Y-168880600D03*
%TD*%
%TO.C,R8*%
X162030800Y-156771400D03*
X162030800Y-158771400D03*
%TD*%
%TO.C,R9*%
X180086000Y-154956000D03*
X180086000Y-156956000D03*
%TD*%
%TO.C,R10*%
X200080000Y-158854200D03*
X200080000Y-160854200D03*
%TD*%
%TO.C,R11*%
X216408000Y-243491000D03*
X216408000Y-245491000D03*
%TD*%
%TO.C,R12*%
X219028400Y-162816600D03*
X219028400Y-164816600D03*
%TD*%
D22*
%TO.C,U2*%
X111355000Y-148938750D03*
D23*
X109855000Y-148851250D03*
D22*
X108355000Y-148938750D03*
%TD*%
D24*
%TO.C,D1*%
X122300000Y-153670000D03*
X119000000Y-153670000D03*
%TD*%
D21*
%TO.C,R5*%
X123829200Y-166931400D03*
X123829200Y-168931400D03*
%TD*%
D25*
%TO.C,FB1*%
X114935000Y-151375000D03*
X114935000Y-153425000D03*
%TD*%
D26*
%TO.C,F1*%
X120650000Y-146365000D03*
X120650000Y-150815000D03*
%TD*%
D14*
%TO.C,C2*%
X105612500Y-151331250D03*
X105612500Y-153406250D03*
%TD*%
D16*
%TO.C,C5*%
X172812600Y-154030600D03*
X174537600Y-154030600D03*
%TD*%
D15*
%TO.C,C6*%
X165039100Y-150728600D03*
X165039100Y-152453600D03*
%TD*%
D21*
%TO.C,R3*%
X107674800Y-167337800D03*
X107674800Y-169337800D03*
%TD*%
M02*
