%TF.GenerationSoftware,KiCad,Pcbnew,(6.0.0)*%
%TF.CreationDate,2022-01-02T22:46:40-08:00*%
%TF.ProjectId,thumbler_left,7468756d-626c-4657-925f-6c6566742e6b,rev?*%
%TF.SameCoordinates,Original*%
%TF.FileFunction,Legend,Top*%
%TF.FilePolarity,Positive*%
%FSLAX46Y46*%
G04 Gerber Fmt 4.6, Leading zero omitted, Abs format (unit mm)*
G04 Created by KiCad (PCBNEW (6.0.0)) date 2022-01-02 22:46:40*
%MOMM*%
%LPD*%
G01*
G04 APERTURE LIST*
%ADD10C,0.150000*%
%ADD11C,0.800000*%
%ADD12C,0.200000*%
%ADD13C,0.400000*%
%ADD14C,0.153000*%
%ADD15C,0.120000*%
G04 APERTURE END LIST*
D10*
X94496095Y-263596380D02*
X94162761Y-263120190D01*
X93924666Y-263596380D02*
X93924666Y-262596380D01*
X94305619Y-262596380D01*
X94400857Y-262644000D01*
X94448476Y-262691619D01*
X94496095Y-262786857D01*
X94496095Y-262929714D01*
X94448476Y-263024952D01*
X94400857Y-263072571D01*
X94305619Y-263120190D01*
X93924666Y-263120190D01*
X95115142Y-262596380D02*
X95305619Y-262596380D01*
X95400857Y-262644000D01*
X95496095Y-262739238D01*
X95543714Y-262929714D01*
X95543714Y-263263047D01*
X95496095Y-263453523D01*
X95400857Y-263548761D01*
X95305619Y-263596380D01*
X95115142Y-263596380D01*
X95019904Y-263548761D01*
X94924666Y-263453523D01*
X94877047Y-263263047D01*
X94877047Y-262929714D01*
X94924666Y-262739238D01*
X95019904Y-262644000D01*
X95115142Y-262596380D01*
X95877047Y-262596380D02*
X96115142Y-263596380D01*
X96305619Y-262882095D01*
X96496095Y-263596380D01*
X96734190Y-262596380D01*
X97591333Y-262596380D02*
X97115142Y-262596380D01*
X97067523Y-263072571D01*
X97115142Y-263024952D01*
X97210380Y-262977333D01*
X97448476Y-262977333D01*
X97543714Y-263024952D01*
X97591333Y-263072571D01*
X97638952Y-263167809D01*
X97638952Y-263405904D01*
X97591333Y-263501142D01*
X97543714Y-263548761D01*
X97448476Y-263596380D01*
X97210380Y-263596380D01*
X97115142Y-263548761D01*
X97067523Y-263501142D01*
X101100095Y-207716380D02*
X100766761Y-207240190D01*
X100528666Y-207716380D02*
X100528666Y-206716380D01*
X100909619Y-206716380D01*
X101004857Y-206764000D01*
X101052476Y-206811619D01*
X101100095Y-206906857D01*
X101100095Y-207049714D01*
X101052476Y-207144952D01*
X101004857Y-207192571D01*
X100909619Y-207240190D01*
X100528666Y-207240190D01*
X101719142Y-206716380D02*
X101909619Y-206716380D01*
X102004857Y-206764000D01*
X102100095Y-206859238D01*
X102147714Y-207049714D01*
X102147714Y-207383047D01*
X102100095Y-207573523D01*
X102004857Y-207668761D01*
X101909619Y-207716380D01*
X101719142Y-207716380D01*
X101623904Y-207668761D01*
X101528666Y-207573523D01*
X101481047Y-207383047D01*
X101481047Y-207049714D01*
X101528666Y-206859238D01*
X101623904Y-206764000D01*
X101719142Y-206716380D01*
X102481047Y-206716380D02*
X102719142Y-207716380D01*
X102909619Y-207002095D01*
X103100095Y-207716380D01*
X103338190Y-206716380D01*
X103671523Y-206811619D02*
X103719142Y-206764000D01*
X103814380Y-206716380D01*
X104052476Y-206716380D01*
X104147714Y-206764000D01*
X104195333Y-206811619D01*
X104242952Y-206906857D01*
X104242952Y-207002095D01*
X104195333Y-207144952D01*
X103623904Y-207716380D01*
X104242952Y-207716380D01*
X165806428Y-289107619D02*
X165758809Y-289250476D01*
X165711190Y-289298095D01*
X165615952Y-289345714D01*
X165473095Y-289345714D01*
X165377857Y-289298095D01*
X165330238Y-289250476D01*
X165282619Y-289155238D01*
X165282619Y-288774285D01*
X166282619Y-288774285D01*
X166282619Y-289107619D01*
X166235000Y-289202857D01*
X166187380Y-289250476D01*
X166092142Y-289298095D01*
X165996904Y-289298095D01*
X165901666Y-289250476D01*
X165854047Y-289202857D01*
X165806428Y-289107619D01*
X165806428Y-288774285D01*
X165282619Y-289774285D02*
X166282619Y-289774285D01*
X165282619Y-290345714D01*
X166282619Y-290345714D01*
X210994761Y-246991142D02*
X210947142Y-247038761D01*
X210804285Y-247086380D01*
X210709047Y-247086380D01*
X210566190Y-247038761D01*
X210470952Y-246943523D01*
X210423333Y-246848285D01*
X210375714Y-246657809D01*
X210375714Y-246514952D01*
X210423333Y-246324476D01*
X210470952Y-246229238D01*
X210566190Y-246134000D01*
X210709047Y-246086380D01*
X210804285Y-246086380D01*
X210947142Y-246134000D01*
X210994761Y-246181619D01*
X211613809Y-246086380D02*
X211804285Y-246086380D01*
X211899523Y-246134000D01*
X211994761Y-246229238D01*
X212042380Y-246419714D01*
X212042380Y-246753047D01*
X211994761Y-246943523D01*
X211899523Y-247038761D01*
X211804285Y-247086380D01*
X211613809Y-247086380D01*
X211518571Y-247038761D01*
X211423333Y-246943523D01*
X211375714Y-246753047D01*
X211375714Y-246419714D01*
X211423333Y-246229238D01*
X211518571Y-246134000D01*
X211613809Y-246086380D01*
X212947142Y-247086380D02*
X212470952Y-247086380D01*
X212470952Y-246086380D01*
X213423333Y-246514952D02*
X213328095Y-246467333D01*
X213280476Y-246419714D01*
X213232857Y-246324476D01*
X213232857Y-246276857D01*
X213280476Y-246181619D01*
X213328095Y-246134000D01*
X213423333Y-246086380D01*
X213613809Y-246086380D01*
X213709047Y-246134000D01*
X213756666Y-246181619D01*
X213804285Y-246276857D01*
X213804285Y-246324476D01*
X213756666Y-246419714D01*
X213709047Y-246467333D01*
X213613809Y-246514952D01*
X213423333Y-246514952D01*
X213328095Y-246562571D01*
X213280476Y-246610190D01*
X213232857Y-246705428D01*
X213232857Y-246895904D01*
X213280476Y-246991142D01*
X213328095Y-247038761D01*
X213423333Y-247086380D01*
X213613809Y-247086380D01*
X213709047Y-247038761D01*
X213756666Y-246991142D01*
X213804285Y-246895904D01*
X213804285Y-246705428D01*
X213756666Y-246610190D01*
X213709047Y-246562571D01*
X213613809Y-246514952D01*
X96274095Y-226766380D02*
X95940761Y-226290190D01*
X95702666Y-226766380D02*
X95702666Y-225766380D01*
X96083619Y-225766380D01*
X96178857Y-225814000D01*
X96226476Y-225861619D01*
X96274095Y-225956857D01*
X96274095Y-226099714D01*
X96226476Y-226194952D01*
X96178857Y-226242571D01*
X96083619Y-226290190D01*
X95702666Y-226290190D01*
X96893142Y-225766380D02*
X97083619Y-225766380D01*
X97178857Y-225814000D01*
X97274095Y-225909238D01*
X97321714Y-226099714D01*
X97321714Y-226433047D01*
X97274095Y-226623523D01*
X97178857Y-226718761D01*
X97083619Y-226766380D01*
X96893142Y-226766380D01*
X96797904Y-226718761D01*
X96702666Y-226623523D01*
X96655047Y-226433047D01*
X96655047Y-226099714D01*
X96702666Y-225909238D01*
X96797904Y-225814000D01*
X96893142Y-225766380D01*
X97655047Y-225766380D02*
X97893142Y-226766380D01*
X98083619Y-226052095D01*
X98274095Y-226766380D01*
X98512190Y-225766380D01*
X98797904Y-225766380D02*
X99416952Y-225766380D01*
X99083619Y-226147333D01*
X99226476Y-226147333D01*
X99321714Y-226194952D01*
X99369333Y-226242571D01*
X99416952Y-226337809D01*
X99416952Y-226575904D01*
X99369333Y-226671142D01*
X99321714Y-226718761D01*
X99226476Y-226766380D01*
X98940761Y-226766380D01*
X98845523Y-226718761D01*
X98797904Y-226671142D01*
X93170952Y-259802380D02*
X93170952Y-260516666D01*
X93123333Y-260659523D01*
X93028095Y-260754761D01*
X92885238Y-260802380D01*
X92790000Y-260802380D01*
X94123333Y-260802380D02*
X93647142Y-260802380D01*
X93647142Y-259802380D01*
X95028095Y-260707142D02*
X94980476Y-260754761D01*
X94837619Y-260802380D01*
X94742380Y-260802380D01*
X94599523Y-260754761D01*
X94504285Y-260659523D01*
X94456666Y-260564285D01*
X94409047Y-260373809D01*
X94409047Y-260230952D01*
X94456666Y-260040476D01*
X94504285Y-259945238D01*
X94599523Y-259850000D01*
X94742380Y-259802380D01*
X94837619Y-259802380D01*
X94980476Y-259850000D01*
X95028095Y-259897619D01*
X95742380Y-259802380D02*
X95742380Y-260516666D01*
X95694761Y-260659523D01*
X95599523Y-260754761D01*
X95456666Y-260802380D01*
X95361428Y-260802380D01*
X96694761Y-260802380D02*
X96218571Y-260802380D01*
X96218571Y-259802380D01*
X97599523Y-260707142D02*
X97551904Y-260754761D01*
X97409047Y-260802380D01*
X97313809Y-260802380D01*
X97170952Y-260754761D01*
X97075714Y-260659523D01*
X97028095Y-260564285D01*
X96980476Y-260373809D01*
X96980476Y-260230952D01*
X97028095Y-260040476D01*
X97075714Y-259945238D01*
X97170952Y-259850000D01*
X97313809Y-259802380D01*
X97409047Y-259802380D01*
X97551904Y-259850000D01*
X97599523Y-259897619D01*
X98313809Y-259802380D02*
X98313809Y-260516666D01*
X98266190Y-260659523D01*
X98170952Y-260754761D01*
X98028095Y-260802380D01*
X97932857Y-260802380D01*
X99266190Y-260802380D02*
X98790000Y-260802380D01*
X98790000Y-259802380D01*
X100170952Y-260707142D02*
X100123333Y-260754761D01*
X99980476Y-260802380D01*
X99885238Y-260802380D01*
X99742380Y-260754761D01*
X99647142Y-260659523D01*
X99599523Y-260564285D01*
X99551904Y-260373809D01*
X99551904Y-260230952D01*
X99599523Y-260040476D01*
X99647142Y-259945238D01*
X99742380Y-259850000D01*
X99885238Y-259802380D01*
X99980476Y-259802380D01*
X100123333Y-259850000D01*
X100170952Y-259897619D01*
X100885238Y-259802380D02*
X100885238Y-260516666D01*
X100837619Y-260659523D01*
X100742380Y-260754761D01*
X100599523Y-260802380D01*
X100504285Y-260802380D01*
X101837619Y-260802380D02*
X101361428Y-260802380D01*
X101361428Y-259802380D01*
X102742380Y-260707142D02*
X102694761Y-260754761D01*
X102551904Y-260802380D01*
X102456666Y-260802380D01*
X102313809Y-260754761D01*
X102218571Y-260659523D01*
X102170952Y-260564285D01*
X102123333Y-260373809D01*
X102123333Y-260230952D01*
X102170952Y-260040476D01*
X102218571Y-259945238D01*
X102313809Y-259850000D01*
X102456666Y-259802380D01*
X102551904Y-259802380D01*
X102694761Y-259850000D01*
X102742380Y-259897619D01*
X186729761Y-155932142D02*
X186682142Y-155979761D01*
X186539285Y-156027380D01*
X186444047Y-156027380D01*
X186301190Y-155979761D01*
X186205952Y-155884523D01*
X186158333Y-155789285D01*
X186110714Y-155598809D01*
X186110714Y-155455952D01*
X186158333Y-155265476D01*
X186205952Y-155170238D01*
X186301190Y-155075000D01*
X186444047Y-155027380D01*
X186539285Y-155027380D01*
X186682142Y-155075000D01*
X186729761Y-155122619D01*
X187634523Y-156027380D02*
X187158333Y-156027380D01*
X187158333Y-155027380D01*
X187967857Y-156027380D02*
X187967857Y-155027380D01*
X188539285Y-156027380D02*
X188110714Y-155455952D01*
X188539285Y-155027380D02*
X187967857Y-155598809D01*
X182991190Y-148407380D02*
X182991190Y-147407380D01*
X183657857Y-147407380D02*
X183848333Y-147407380D01*
X183943571Y-147455000D01*
X184038809Y-147550238D01*
X184086428Y-147740714D01*
X184086428Y-148074047D01*
X184038809Y-148264523D01*
X183943571Y-148359761D01*
X183848333Y-148407380D01*
X183657857Y-148407380D01*
X183562619Y-148359761D01*
X183467380Y-148264523D01*
X183419761Y-148074047D01*
X183419761Y-147740714D01*
X183467380Y-147550238D01*
X183562619Y-147455000D01*
X183657857Y-147407380D01*
X219519523Y-153884380D02*
X219043333Y-153884380D01*
X218995714Y-154360571D01*
X219043333Y-154312952D01*
X219138571Y-154265333D01*
X219376666Y-154265333D01*
X219471904Y-154312952D01*
X219519523Y-154360571D01*
X219567142Y-154455809D01*
X219567142Y-154693904D01*
X219519523Y-154789142D01*
X219471904Y-154836761D01*
X219376666Y-154884380D01*
X219138571Y-154884380D01*
X219043333Y-154836761D01*
X218995714Y-154789142D01*
X219852857Y-153884380D02*
X220186190Y-154884380D01*
X220519523Y-153884380D01*
X165782761Y-158345142D02*
X165735142Y-158392761D01*
X165592285Y-158440380D01*
X165497047Y-158440380D01*
X165354190Y-158392761D01*
X165258952Y-158297523D01*
X165211333Y-158202285D01*
X165163714Y-158011809D01*
X165163714Y-157868952D01*
X165211333Y-157678476D01*
X165258952Y-157583238D01*
X165354190Y-157488000D01*
X165497047Y-157440380D01*
X165592285Y-157440380D01*
X165735142Y-157488000D01*
X165782761Y-157535619D01*
X166401809Y-157440380D02*
X166592285Y-157440380D01*
X166687523Y-157488000D01*
X166782761Y-157583238D01*
X166830380Y-157773714D01*
X166830380Y-158107047D01*
X166782761Y-158297523D01*
X166687523Y-158392761D01*
X166592285Y-158440380D01*
X166401809Y-158440380D01*
X166306571Y-158392761D01*
X166211333Y-158297523D01*
X166163714Y-158107047D01*
X166163714Y-157773714D01*
X166211333Y-157583238D01*
X166306571Y-157488000D01*
X166401809Y-157440380D01*
X167735142Y-158440380D02*
X167258952Y-158440380D01*
X167258952Y-157440380D01*
X168497047Y-157773714D02*
X168497047Y-158440380D01*
X168258952Y-157392761D02*
X168020857Y-158107047D01*
X168639904Y-158107047D01*
X137588761Y-170791142D02*
X137541142Y-170838761D01*
X137398285Y-170886380D01*
X137303047Y-170886380D01*
X137160190Y-170838761D01*
X137064952Y-170743523D01*
X137017333Y-170648285D01*
X136969714Y-170457809D01*
X136969714Y-170314952D01*
X137017333Y-170124476D01*
X137064952Y-170029238D01*
X137160190Y-169934000D01*
X137303047Y-169886380D01*
X137398285Y-169886380D01*
X137541142Y-169934000D01*
X137588761Y-169981619D01*
X138207809Y-169886380D02*
X138398285Y-169886380D01*
X138493523Y-169934000D01*
X138588761Y-170029238D01*
X138636380Y-170219714D01*
X138636380Y-170553047D01*
X138588761Y-170743523D01*
X138493523Y-170838761D01*
X138398285Y-170886380D01*
X138207809Y-170886380D01*
X138112571Y-170838761D01*
X138017333Y-170743523D01*
X137969714Y-170553047D01*
X137969714Y-170219714D01*
X138017333Y-170029238D01*
X138112571Y-169934000D01*
X138207809Y-169886380D01*
X139541142Y-170886380D02*
X139064952Y-170886380D01*
X139064952Y-169886380D01*
X140350666Y-169886380D02*
X139874476Y-169886380D01*
X139826857Y-170362571D01*
X139874476Y-170314952D01*
X139969714Y-170267333D01*
X140207809Y-170267333D01*
X140303047Y-170314952D01*
X140350666Y-170362571D01*
X140398285Y-170457809D01*
X140398285Y-170695904D01*
X140350666Y-170791142D01*
X140303047Y-170838761D01*
X140207809Y-170886380D01*
X139969714Y-170886380D01*
X139874476Y-170838761D01*
X139826857Y-170791142D01*
X156392619Y-294520952D02*
X156392619Y-294044761D01*
X157392619Y-294044761D01*
X156916428Y-295187619D02*
X156916428Y-294854285D01*
X156392619Y-294854285D02*
X157392619Y-294854285D01*
X157392619Y-295330476D01*
X182276904Y-155027380D02*
X182895952Y-155027380D01*
X182562619Y-155408333D01*
X182705476Y-155408333D01*
X182800714Y-155455952D01*
X182848333Y-155503571D01*
X182895952Y-155598809D01*
X182895952Y-155836904D01*
X182848333Y-155932142D01*
X182800714Y-155979761D01*
X182705476Y-156027380D01*
X182419761Y-156027380D01*
X182324523Y-155979761D01*
X182276904Y-155932142D01*
X183181666Y-155027380D02*
X183515000Y-156027380D01*
X183848333Y-155027380D01*
X184086428Y-155027380D02*
X184705476Y-155027380D01*
X184372142Y-155408333D01*
X184515000Y-155408333D01*
X184610238Y-155455952D01*
X184657857Y-155503571D01*
X184705476Y-155598809D01*
X184705476Y-155836904D01*
X184657857Y-155932142D01*
X184610238Y-155979761D01*
X184515000Y-156027380D01*
X184229285Y-156027380D01*
X184134047Y-155979761D01*
X184086428Y-155932142D01*
X215900095Y-151646000D02*
X215804857Y-151598380D01*
X215662000Y-151598380D01*
X215519142Y-151646000D01*
X215423904Y-151741238D01*
X215376285Y-151836476D01*
X215328666Y-152026952D01*
X215328666Y-152169809D01*
X215376285Y-152360285D01*
X215423904Y-152455523D01*
X215519142Y-152550761D01*
X215662000Y-152598380D01*
X215757238Y-152598380D01*
X215900095Y-152550761D01*
X215947714Y-152503142D01*
X215947714Y-152169809D01*
X215757238Y-152169809D01*
X216376285Y-152598380D02*
X216376285Y-151598380D01*
X216947714Y-152598380D01*
X216947714Y-151598380D01*
X217423904Y-152598380D02*
X217423904Y-151598380D01*
X217662000Y-151598380D01*
X217804857Y-151646000D01*
X217900095Y-151741238D01*
X217947714Y-151836476D01*
X217995333Y-152026952D01*
X217995333Y-152169809D01*
X217947714Y-152360285D01*
X217900095Y-152455523D01*
X217804857Y-152550761D01*
X217662000Y-152598380D01*
X217423904Y-152598380D01*
X156392619Y-297108571D02*
X156868809Y-296775238D01*
X156392619Y-296537142D02*
X157392619Y-296537142D01*
X157392619Y-296918095D01*
X157345000Y-297013333D01*
X157297380Y-297060952D01*
X157202142Y-297108571D01*
X157059285Y-297108571D01*
X156964047Y-297060952D01*
X156916428Y-297013333D01*
X156868809Y-296918095D01*
X156868809Y-296537142D01*
X157392619Y-297394285D02*
X157392619Y-297965714D01*
X156392619Y-297680000D02*
X157392619Y-297680000D01*
D11*
X102554285Y-287369047D02*
X103125714Y-287559523D01*
X104078095Y-287559523D01*
X104459047Y-287369047D01*
X104649523Y-287178571D01*
X104840000Y-286797619D01*
X104840000Y-286416666D01*
X104649523Y-286035714D01*
X104459047Y-285845238D01*
X104078095Y-285654761D01*
X103316190Y-285464285D01*
X102935238Y-285273809D01*
X102744761Y-285083333D01*
X102554285Y-284702380D01*
X102554285Y-284321428D01*
X102744761Y-283940476D01*
X102935238Y-283750000D01*
X103316190Y-283559523D01*
X104268571Y-283559523D01*
X104840000Y-283750000D01*
X105982857Y-284892857D02*
X107506666Y-284892857D01*
X106554285Y-283559523D02*
X106554285Y-286988095D01*
X106744761Y-287369047D01*
X107125714Y-287559523D01*
X107506666Y-287559523D01*
X108840000Y-287559523D02*
X108840000Y-284892857D01*
X108840000Y-285654761D02*
X109030476Y-285273809D01*
X109220952Y-285083333D01*
X109601904Y-284892857D01*
X109982857Y-284892857D01*
X111316190Y-287559523D02*
X111316190Y-284892857D01*
X111316190Y-283559523D02*
X111125714Y-283750000D01*
X111316190Y-283940476D01*
X111506666Y-283750000D01*
X111316190Y-283559523D01*
X111316190Y-283940476D01*
X114935238Y-287369047D02*
X114554285Y-287559523D01*
X113792380Y-287559523D01*
X113411428Y-287369047D01*
X113220952Y-287178571D01*
X113030476Y-286797619D01*
X113030476Y-285654761D01*
X113220952Y-285273809D01*
X113411428Y-285083333D01*
X113792380Y-284892857D01*
X114554285Y-284892857D01*
X114935238Y-285083333D01*
X116649523Y-287559523D02*
X116649523Y-283559523D01*
X117030476Y-286035714D02*
X118173333Y-287559523D01*
X118173333Y-284892857D02*
X116649523Y-286416666D01*
X120459047Y-287559523D02*
X120078095Y-287369047D01*
X119887619Y-286988095D01*
X119887619Y-283559523D01*
X123697142Y-287559523D02*
X123697142Y-285464285D01*
X123506666Y-285083333D01*
X123125714Y-284892857D01*
X122363809Y-284892857D01*
X121982857Y-285083333D01*
X123697142Y-287369047D02*
X123316190Y-287559523D01*
X122363809Y-287559523D01*
X121982857Y-287369047D01*
X121792380Y-286988095D01*
X121792380Y-286607142D01*
X121982857Y-286226190D01*
X122363809Y-286035714D01*
X123316190Y-286035714D01*
X123697142Y-285845238D01*
X125601904Y-284892857D02*
X125601904Y-287559523D01*
X125601904Y-285273809D02*
X125792380Y-285083333D01*
X126173333Y-284892857D01*
X126744761Y-284892857D01*
X127125714Y-285083333D01*
X127316190Y-285464285D01*
X127316190Y-287559523D01*
X130935238Y-287559523D02*
X130935238Y-283559523D01*
X130935238Y-287369047D02*
X130554285Y-287559523D01*
X129792380Y-287559523D01*
X129411428Y-287369047D01*
X129220952Y-287178571D01*
X129030476Y-286797619D01*
X129030476Y-285654761D01*
X129220952Y-285273809D01*
X129411428Y-285083333D01*
X129792380Y-284892857D01*
X130554285Y-284892857D01*
X130935238Y-285083333D01*
D10*
X102790761Y-171299142D02*
X102743142Y-171346761D01*
X102600285Y-171394380D01*
X102505047Y-171394380D01*
X102362190Y-171346761D01*
X102266952Y-171251523D01*
X102219333Y-171156285D01*
X102171714Y-170965809D01*
X102171714Y-170822952D01*
X102219333Y-170632476D01*
X102266952Y-170537238D01*
X102362190Y-170442000D01*
X102505047Y-170394380D01*
X102600285Y-170394380D01*
X102743142Y-170442000D01*
X102790761Y-170489619D01*
X103409809Y-170394380D02*
X103600285Y-170394380D01*
X103695523Y-170442000D01*
X103790761Y-170537238D01*
X103838380Y-170727714D01*
X103838380Y-171061047D01*
X103790761Y-171251523D01*
X103695523Y-171346761D01*
X103600285Y-171394380D01*
X103409809Y-171394380D01*
X103314571Y-171346761D01*
X103219333Y-171251523D01*
X103171714Y-171061047D01*
X103171714Y-170727714D01*
X103219333Y-170537238D01*
X103314571Y-170442000D01*
X103409809Y-170394380D01*
X104743142Y-171394380D02*
X104266952Y-171394380D01*
X104266952Y-170394380D01*
X104981238Y-170394380D02*
X105647904Y-170394380D01*
X105219333Y-171394380D01*
X185928095Y-147455000D02*
X185832857Y-147407380D01*
X185690000Y-147407380D01*
X185547142Y-147455000D01*
X185451904Y-147550238D01*
X185404285Y-147645476D01*
X185356666Y-147835952D01*
X185356666Y-147978809D01*
X185404285Y-148169285D01*
X185451904Y-148264523D01*
X185547142Y-148359761D01*
X185690000Y-148407380D01*
X185785238Y-148407380D01*
X185928095Y-148359761D01*
X185975714Y-148312142D01*
X185975714Y-147978809D01*
X185785238Y-147978809D01*
X186404285Y-148407380D02*
X186404285Y-147407380D01*
X186975714Y-148407380D01*
X186975714Y-147407380D01*
X187451904Y-148407380D02*
X187451904Y-147407380D01*
X187690000Y-147407380D01*
X187832857Y-147455000D01*
X187928095Y-147550238D01*
X187975714Y-147645476D01*
X188023333Y-147835952D01*
X188023333Y-147978809D01*
X187975714Y-148169285D01*
X187928095Y-148264523D01*
X187832857Y-148359761D01*
X187690000Y-148407380D01*
X187451904Y-148407380D01*
X224242380Y-162715380D02*
X223909047Y-162239190D01*
X223670952Y-162715380D02*
X223670952Y-161715380D01*
X224051904Y-161715380D01*
X224147142Y-161763000D01*
X224194761Y-161810619D01*
X224242380Y-161905857D01*
X224242380Y-162048714D01*
X224194761Y-162143952D01*
X224147142Y-162191571D01*
X224051904Y-162239190D01*
X223670952Y-162239190D01*
X224623333Y-162667761D02*
X224766190Y-162715380D01*
X225004285Y-162715380D01*
X225099523Y-162667761D01*
X225147142Y-162620142D01*
X225194761Y-162524904D01*
X225194761Y-162429666D01*
X225147142Y-162334428D01*
X225099523Y-162286809D01*
X225004285Y-162239190D01*
X224813809Y-162191571D01*
X224718571Y-162143952D01*
X224670952Y-162096333D01*
X224623333Y-162001095D01*
X224623333Y-161905857D01*
X224670952Y-161810619D01*
X224718571Y-161763000D01*
X224813809Y-161715380D01*
X225051904Y-161715380D01*
X225194761Y-161763000D01*
X225480476Y-161715380D02*
X226051904Y-161715380D01*
X225766190Y-162715380D02*
X225766190Y-161715380D01*
X223837619Y-164325380D02*
X223361428Y-164325380D01*
X223361428Y-163325380D01*
X224170952Y-164325380D02*
X224170952Y-163325380D01*
X224647142Y-164325380D02*
X224647142Y-163325380D01*
X225218571Y-164325380D01*
X225218571Y-163325380D01*
X225694761Y-164325380D02*
X225694761Y-163325380D01*
X226266190Y-164325380D02*
X225837619Y-163753952D01*
X226266190Y-163325380D02*
X225694761Y-163896809D01*
X122999523Y-143216380D02*
X122523333Y-143216380D01*
X122475714Y-143692571D01*
X122523333Y-143644952D01*
X122618571Y-143597333D01*
X122856666Y-143597333D01*
X122951904Y-143644952D01*
X122999523Y-143692571D01*
X123047142Y-143787809D01*
X123047142Y-144025904D01*
X122999523Y-144121142D01*
X122951904Y-144168761D01*
X122856666Y-144216380D01*
X122618571Y-144216380D01*
X122523333Y-144168761D01*
X122475714Y-144121142D01*
X123332857Y-143216380D02*
X123666190Y-144216380D01*
X123999523Y-143216380D01*
X165568333Y-291861904D02*
X165568333Y-292338095D01*
X165282619Y-291766666D02*
X166282619Y-292100000D01*
X165282619Y-292433333D01*
X194143333Y-156027380D02*
X193810000Y-155551190D01*
X193571904Y-156027380D02*
X193571904Y-155027380D01*
X193952857Y-155027380D01*
X194048095Y-155075000D01*
X194095714Y-155122619D01*
X194143333Y-155217857D01*
X194143333Y-155360714D01*
X194095714Y-155455952D01*
X194048095Y-155503571D01*
X193952857Y-155551190D01*
X193571904Y-155551190D01*
X194476666Y-155027380D02*
X195143333Y-156027380D01*
X195143333Y-155027380D02*
X194476666Y-156027380D01*
X232497333Y-152598380D02*
X232164000Y-152122190D01*
X231925904Y-152598380D02*
X231925904Y-151598380D01*
X232306857Y-151598380D01*
X232402095Y-151646000D01*
X232449714Y-151693619D01*
X232497333Y-151788857D01*
X232497333Y-151931714D01*
X232449714Y-152026952D01*
X232402095Y-152074571D01*
X232306857Y-152122190D01*
X231925904Y-152122190D01*
X232830666Y-151598380D02*
X233497333Y-152598380D01*
X233497333Y-151598380D02*
X232830666Y-152598380D01*
X165282619Y-296394285D02*
X166282619Y-296394285D01*
X166282619Y-296632380D01*
X166235000Y-296775238D01*
X166139761Y-296870476D01*
X166044523Y-296918095D01*
X165854047Y-296965714D01*
X165711190Y-296965714D01*
X165520714Y-296918095D01*
X165425476Y-296870476D01*
X165330238Y-296775238D01*
X165282619Y-296632380D01*
X165282619Y-296394285D01*
X165282619Y-297394285D02*
X166282619Y-297394285D01*
X165282619Y-297965714D01*
X166282619Y-297965714D01*
X156916428Y-292171428D02*
X156868809Y-292314285D01*
X156821190Y-292361904D01*
X156725952Y-292409523D01*
X156583095Y-292409523D01*
X156487857Y-292361904D01*
X156440238Y-292314285D01*
X156392619Y-292219047D01*
X156392619Y-291838095D01*
X157392619Y-291838095D01*
X157392619Y-292171428D01*
X157345000Y-292266666D01*
X157297380Y-292314285D01*
X157202142Y-292361904D01*
X157106904Y-292361904D01*
X157011666Y-292314285D01*
X156964047Y-292266666D01*
X156916428Y-292171428D01*
X156916428Y-291838095D01*
X101989047Y-144470380D02*
X101989047Y-143470380D01*
X102227142Y-143470380D01*
X102370000Y-143518000D01*
X102465238Y-143613238D01*
X102512857Y-143708476D01*
X102560476Y-143898952D01*
X102560476Y-144041809D01*
X102512857Y-144232285D01*
X102465238Y-144327523D01*
X102370000Y-144422761D01*
X102227142Y-144470380D01*
X101989047Y-144470380D01*
X102989047Y-144089428D02*
X103750952Y-144089428D01*
X103370000Y-144470380D02*
X103370000Y-143708476D01*
X202104761Y-162663142D02*
X202057142Y-162710761D01*
X201914285Y-162758380D01*
X201819047Y-162758380D01*
X201676190Y-162710761D01*
X201580952Y-162615523D01*
X201533333Y-162520285D01*
X201485714Y-162329809D01*
X201485714Y-162186952D01*
X201533333Y-161996476D01*
X201580952Y-161901238D01*
X201676190Y-161806000D01*
X201819047Y-161758380D01*
X201914285Y-161758380D01*
X202057142Y-161806000D01*
X202104761Y-161853619D01*
X202723809Y-161758380D02*
X202914285Y-161758380D01*
X203009523Y-161806000D01*
X203104761Y-161901238D01*
X203152380Y-162091714D01*
X203152380Y-162425047D01*
X203104761Y-162615523D01*
X203009523Y-162710761D01*
X202914285Y-162758380D01*
X202723809Y-162758380D01*
X202628571Y-162710761D01*
X202533333Y-162615523D01*
X202485714Y-162425047D01*
X202485714Y-162091714D01*
X202533333Y-161901238D01*
X202628571Y-161806000D01*
X202723809Y-161758380D01*
X204057142Y-162758380D02*
X203580952Y-162758380D01*
X203580952Y-161758380D01*
X204342857Y-161853619D02*
X204390476Y-161806000D01*
X204485714Y-161758380D01*
X204723809Y-161758380D01*
X204819047Y-161806000D01*
X204866666Y-161853619D01*
X204914285Y-161948857D01*
X204914285Y-162044095D01*
X204866666Y-162186952D01*
X204295238Y-162758380D01*
X204914285Y-162758380D01*
X192436904Y-147407380D02*
X193055952Y-147407380D01*
X192722619Y-147788333D01*
X192865476Y-147788333D01*
X192960714Y-147835952D01*
X193008333Y-147883571D01*
X193055952Y-147978809D01*
X193055952Y-148216904D01*
X193008333Y-148312142D01*
X192960714Y-148359761D01*
X192865476Y-148407380D01*
X192579761Y-148407380D01*
X192484523Y-148359761D01*
X192436904Y-148312142D01*
X193341666Y-147407380D02*
X193675000Y-148407380D01*
X194008333Y-147407380D01*
X194246428Y-147407380D02*
X194865476Y-147407380D01*
X194532142Y-147788333D01*
X194675000Y-147788333D01*
X194770238Y-147835952D01*
X194817857Y-147883571D01*
X194865476Y-147978809D01*
X194865476Y-148216904D01*
X194817857Y-148312142D01*
X194770238Y-148359761D01*
X194675000Y-148407380D01*
X194389285Y-148407380D01*
X194294047Y-148359761D01*
X194246428Y-148312142D01*
D11*
X88363809Y-301339523D02*
X90649523Y-301339523D01*
X89506666Y-305339523D02*
X89506666Y-301339523D01*
X91982857Y-305339523D02*
X91982857Y-301339523D01*
X93697142Y-305339523D02*
X93697142Y-303244285D01*
X93506666Y-302863333D01*
X93125714Y-302672857D01*
X92554285Y-302672857D01*
X92173333Y-302863333D01*
X91982857Y-303053809D01*
X97316190Y-302672857D02*
X97316190Y-305339523D01*
X95601904Y-302672857D02*
X95601904Y-304768095D01*
X95792380Y-305149047D01*
X96173333Y-305339523D01*
X96744761Y-305339523D01*
X97125714Y-305149047D01*
X97316190Y-304958571D01*
X99220952Y-305339523D02*
X99220952Y-302672857D01*
X99220952Y-303053809D02*
X99411428Y-302863333D01*
X99792380Y-302672857D01*
X100363809Y-302672857D01*
X100744761Y-302863333D01*
X100935238Y-303244285D01*
X100935238Y-305339523D01*
X100935238Y-303244285D02*
X101125714Y-302863333D01*
X101506666Y-302672857D01*
X102078095Y-302672857D01*
X102459047Y-302863333D01*
X102649523Y-303244285D01*
X102649523Y-305339523D01*
X104554285Y-305339523D02*
X104554285Y-301339523D01*
X104554285Y-302863333D02*
X104935238Y-302672857D01*
X105697142Y-302672857D01*
X106078095Y-302863333D01*
X106268571Y-303053809D01*
X106459047Y-303434761D01*
X106459047Y-304577619D01*
X106268571Y-304958571D01*
X106078095Y-305149047D01*
X105697142Y-305339523D01*
X104935238Y-305339523D01*
X104554285Y-305149047D01*
X108744761Y-305339523D02*
X108363809Y-305149047D01*
X108173333Y-304768095D01*
X108173333Y-301339523D01*
X111792380Y-305149047D02*
X111411428Y-305339523D01*
X110649523Y-305339523D01*
X110268571Y-305149047D01*
X110078095Y-304768095D01*
X110078095Y-303244285D01*
X110268571Y-302863333D01*
X110649523Y-302672857D01*
X111411428Y-302672857D01*
X111792380Y-302863333D01*
X111982857Y-303244285D01*
X111982857Y-303625238D01*
X110078095Y-304006190D01*
X113697142Y-305339523D02*
X113697142Y-302672857D01*
X113697142Y-303434761D02*
X113887619Y-303053809D01*
X114078095Y-302863333D01*
X114459047Y-302672857D01*
X114839999Y-302672857D01*
X119220952Y-305339523D02*
X119220952Y-301339523D01*
X121506666Y-305339523D02*
X119792380Y-303053809D01*
X121506666Y-301339523D02*
X119220952Y-303625238D01*
X124744761Y-305149047D02*
X124363809Y-305339523D01*
X123601904Y-305339523D01*
X123220952Y-305149047D01*
X123030476Y-304768095D01*
X123030476Y-303244285D01*
X123220952Y-302863333D01*
X123601904Y-302672857D01*
X124363809Y-302672857D01*
X124744761Y-302863333D01*
X124935238Y-303244285D01*
X124935238Y-303625238D01*
X123030476Y-304006190D01*
X126268571Y-302672857D02*
X127220952Y-305339523D01*
X128173333Y-302672857D02*
X127220952Y-305339523D01*
X126839999Y-306291904D01*
X126649523Y-306482380D01*
X126268571Y-306672857D01*
X129697142Y-305339523D02*
X129697142Y-301339523D01*
X129697142Y-302863333D02*
X130078095Y-302672857D01*
X130839999Y-302672857D01*
X131220952Y-302863333D01*
X131411428Y-303053809D01*
X131601904Y-303434761D01*
X131601904Y-304577619D01*
X131411428Y-304958571D01*
X131220952Y-305149047D01*
X130839999Y-305339523D01*
X130078095Y-305339523D01*
X129697142Y-305149047D01*
X133887619Y-305339523D02*
X133506666Y-305149047D01*
X133316190Y-304958571D01*
X133125714Y-304577619D01*
X133125714Y-303434761D01*
X133316190Y-303053809D01*
X133506666Y-302863333D01*
X133887619Y-302672857D01*
X134459047Y-302672857D01*
X134840000Y-302863333D01*
X135030476Y-303053809D01*
X135220952Y-303434761D01*
X135220952Y-304577619D01*
X135030476Y-304958571D01*
X134840000Y-305149047D01*
X134459047Y-305339523D01*
X133887619Y-305339523D01*
X138649523Y-305339523D02*
X138649523Y-303244285D01*
X138459047Y-302863333D01*
X138078095Y-302672857D01*
X137316190Y-302672857D01*
X136935238Y-302863333D01*
X138649523Y-305149047D02*
X138268571Y-305339523D01*
X137316190Y-305339523D01*
X136935238Y-305149047D01*
X136744761Y-304768095D01*
X136744761Y-304387142D01*
X136935238Y-304006190D01*
X137316190Y-303815714D01*
X138268571Y-303815714D01*
X138649523Y-303625238D01*
X140554285Y-305339523D02*
X140554285Y-302672857D01*
X140554285Y-303434761D02*
X140744761Y-303053809D01*
X140935238Y-302863333D01*
X141316190Y-302672857D01*
X141697142Y-302672857D01*
X144744761Y-305339523D02*
X144744761Y-301339523D01*
X144744761Y-305149047D02*
X144363809Y-305339523D01*
X143601904Y-305339523D01*
X143220952Y-305149047D01*
X143030476Y-304958571D01*
X142840000Y-304577619D01*
X142840000Y-303434761D01*
X143030476Y-303053809D01*
X143220952Y-302863333D01*
X143601904Y-302672857D01*
X144363809Y-302672857D01*
X144744761Y-302863333D01*
D10*
X189738095Y-147407380D02*
X190309523Y-147407380D01*
X190023809Y-148407380D02*
X190023809Y-147407380D01*
X190547619Y-147407380D02*
X191214285Y-148407380D01*
X191214285Y-147407380D02*
X190547619Y-148407380D01*
D12*
X110935238Y-309174761D02*
X109982857Y-309174761D01*
X109982857Y-307174761D01*
X112363809Y-309079523D02*
X112173333Y-309174761D01*
X111792380Y-309174761D01*
X111601904Y-309079523D01*
X111506666Y-308889047D01*
X111506666Y-308127142D01*
X111601904Y-307936666D01*
X111792380Y-307841428D01*
X112173333Y-307841428D01*
X112363809Y-307936666D01*
X112459047Y-308127142D01*
X112459047Y-308317619D01*
X111506666Y-308508095D01*
X113030476Y-307841428D02*
X113792380Y-307841428D01*
X113316190Y-309174761D02*
X113316190Y-307460476D01*
X113411428Y-307270000D01*
X113601904Y-307174761D01*
X113792380Y-307174761D01*
X114173333Y-307841428D02*
X114935238Y-307841428D01*
X114459047Y-307174761D02*
X114459047Y-308889047D01*
X114554285Y-309079523D01*
X114744761Y-309174761D01*
X114935238Y-309174761D01*
X117125714Y-309174761D02*
X117125714Y-307174761D01*
X117125714Y-308127142D02*
X118268571Y-308127142D01*
X118268571Y-309174761D02*
X118268571Y-307174761D01*
X120078095Y-309174761D02*
X120078095Y-308127142D01*
X119982857Y-307936666D01*
X119792380Y-307841428D01*
X119411428Y-307841428D01*
X119220952Y-307936666D01*
X120078095Y-309079523D02*
X119887619Y-309174761D01*
X119411428Y-309174761D01*
X119220952Y-309079523D01*
X119125714Y-308889047D01*
X119125714Y-308698571D01*
X119220952Y-308508095D01*
X119411428Y-308412857D01*
X119887619Y-308412857D01*
X120078095Y-308317619D01*
X121030476Y-307841428D02*
X121030476Y-309174761D01*
X121030476Y-308031904D02*
X121125714Y-307936666D01*
X121316190Y-307841428D01*
X121601904Y-307841428D01*
X121792380Y-307936666D01*
X121887619Y-308127142D01*
X121887619Y-309174761D01*
X123697142Y-309174761D02*
X123697142Y-307174761D01*
X123697142Y-309079523D02*
X123506666Y-309174761D01*
X123125714Y-309174761D01*
X122935238Y-309079523D01*
X122840000Y-308984285D01*
X122744761Y-308793809D01*
X122744761Y-308222380D01*
X122840000Y-308031904D01*
X122935238Y-307936666D01*
X123125714Y-307841428D01*
X123506666Y-307841428D01*
X123697142Y-307936666D01*
X114220952Y-312394761D02*
X113554285Y-311442380D01*
X113078095Y-312394761D02*
X113078095Y-310394761D01*
X113840000Y-310394761D01*
X114030476Y-310490000D01*
X114125714Y-310585238D01*
X114220952Y-310775714D01*
X114220952Y-311061428D01*
X114125714Y-311251904D01*
X114030476Y-311347142D01*
X113840000Y-311442380D01*
X113078095Y-311442380D01*
X115840000Y-312299523D02*
X115649523Y-312394761D01*
X115268571Y-312394761D01*
X115078095Y-312299523D01*
X114982857Y-312109047D01*
X114982857Y-311347142D01*
X115078095Y-311156666D01*
X115268571Y-311061428D01*
X115649523Y-311061428D01*
X115840000Y-311156666D01*
X115935238Y-311347142D01*
X115935238Y-311537619D01*
X114982857Y-311728095D01*
X116601904Y-311061428D02*
X117078095Y-312394761D01*
X117554285Y-311061428D01*
X119744761Y-311823333D02*
X120697142Y-311823333D01*
X119554285Y-312394761D02*
X120220952Y-310394761D01*
X120887619Y-312394761D01*
D10*
X157345000Y-288798095D02*
X157392619Y-288702857D01*
X157392619Y-288560000D01*
X157345000Y-288417142D01*
X157249761Y-288321904D01*
X157154523Y-288274285D01*
X156964047Y-288226666D01*
X156821190Y-288226666D01*
X156630714Y-288274285D01*
X156535476Y-288321904D01*
X156440238Y-288417142D01*
X156392619Y-288560000D01*
X156392619Y-288655238D01*
X156440238Y-288798095D01*
X156487857Y-288845714D01*
X156821190Y-288845714D01*
X156821190Y-288655238D01*
X156392619Y-289274285D02*
X157392619Y-289274285D01*
X156392619Y-289845714D01*
X157392619Y-289845714D01*
X156392619Y-290321904D02*
X157392619Y-290321904D01*
X157392619Y-290560000D01*
X157345000Y-290702857D01*
X157249761Y-290798095D01*
X157154523Y-290845714D01*
X156964047Y-290893333D01*
X156821190Y-290893333D01*
X156630714Y-290845714D01*
X156535476Y-290798095D01*
X156440238Y-290702857D01*
X156392619Y-290560000D01*
X156392619Y-290321904D01*
X173656761Y-158345142D02*
X173609142Y-158392761D01*
X173466285Y-158440380D01*
X173371047Y-158440380D01*
X173228190Y-158392761D01*
X173132952Y-158297523D01*
X173085333Y-158202285D01*
X173037714Y-158011809D01*
X173037714Y-157868952D01*
X173085333Y-157678476D01*
X173132952Y-157583238D01*
X173228190Y-157488000D01*
X173371047Y-157440380D01*
X173466285Y-157440380D01*
X173609142Y-157488000D01*
X173656761Y-157535619D01*
X174275809Y-157440380D02*
X174466285Y-157440380D01*
X174561523Y-157488000D01*
X174656761Y-157583238D01*
X174704380Y-157773714D01*
X174704380Y-158107047D01*
X174656761Y-158297523D01*
X174561523Y-158392761D01*
X174466285Y-158440380D01*
X174275809Y-158440380D01*
X174180571Y-158392761D01*
X174085333Y-158297523D01*
X174037714Y-158107047D01*
X174037714Y-157773714D01*
X174085333Y-157583238D01*
X174180571Y-157488000D01*
X174275809Y-157440380D01*
X175609142Y-158440380D02*
X175132952Y-158440380D01*
X175132952Y-157440380D01*
X175847238Y-157440380D02*
X176466285Y-157440380D01*
X176132952Y-157821333D01*
X176275809Y-157821333D01*
X176371047Y-157868952D01*
X176418666Y-157916571D01*
X176466285Y-158011809D01*
X176466285Y-158249904D01*
X176418666Y-158345142D01*
X176371047Y-158392761D01*
X176275809Y-158440380D01*
X175990095Y-158440380D01*
X175894857Y-158392761D01*
X175847238Y-158345142D01*
X190373095Y-155075000D02*
X190277857Y-155027380D01*
X190135000Y-155027380D01*
X189992142Y-155075000D01*
X189896904Y-155170238D01*
X189849285Y-155265476D01*
X189801666Y-155455952D01*
X189801666Y-155598809D01*
X189849285Y-155789285D01*
X189896904Y-155884523D01*
X189992142Y-155979761D01*
X190135000Y-156027380D01*
X190230238Y-156027380D01*
X190373095Y-155979761D01*
X190420714Y-155932142D01*
X190420714Y-155598809D01*
X190230238Y-155598809D01*
X190849285Y-156027380D02*
X190849285Y-155027380D01*
X191420714Y-156027380D01*
X191420714Y-155027380D01*
X191896904Y-156027380D02*
X191896904Y-155027380D01*
X192135000Y-155027380D01*
X192277857Y-155075000D01*
X192373095Y-155170238D01*
X192420714Y-155265476D01*
X192468333Y-155455952D01*
X192468333Y-155598809D01*
X192420714Y-155789285D01*
X192373095Y-155884523D01*
X192277857Y-155979761D01*
X192135000Y-156027380D01*
X191896904Y-156027380D01*
X93988095Y-245816380D02*
X93654761Y-245340190D01*
X93416666Y-245816380D02*
X93416666Y-244816380D01*
X93797619Y-244816380D01*
X93892857Y-244864000D01*
X93940476Y-244911619D01*
X93988095Y-245006857D01*
X93988095Y-245149714D01*
X93940476Y-245244952D01*
X93892857Y-245292571D01*
X93797619Y-245340190D01*
X93416666Y-245340190D01*
X94607142Y-244816380D02*
X94797619Y-244816380D01*
X94892857Y-244864000D01*
X94988095Y-244959238D01*
X95035714Y-245149714D01*
X95035714Y-245483047D01*
X94988095Y-245673523D01*
X94892857Y-245768761D01*
X94797619Y-245816380D01*
X94607142Y-245816380D01*
X94511904Y-245768761D01*
X94416666Y-245673523D01*
X94369047Y-245483047D01*
X94369047Y-245149714D01*
X94416666Y-244959238D01*
X94511904Y-244864000D01*
X94607142Y-244816380D01*
X95369047Y-244816380D02*
X95607142Y-245816380D01*
X95797619Y-245102095D01*
X95988095Y-245816380D01*
X96226190Y-244816380D01*
X97035714Y-245149714D02*
X97035714Y-245816380D01*
X96797619Y-244768761D02*
X96559523Y-245483047D01*
X97178571Y-245483047D01*
X213534761Y-166473142D02*
X213487142Y-166520761D01*
X213344285Y-166568380D01*
X213249047Y-166568380D01*
X213106190Y-166520761D01*
X213010952Y-166425523D01*
X212963333Y-166330285D01*
X212915714Y-166139809D01*
X212915714Y-165996952D01*
X212963333Y-165806476D01*
X213010952Y-165711238D01*
X213106190Y-165616000D01*
X213249047Y-165568380D01*
X213344285Y-165568380D01*
X213487142Y-165616000D01*
X213534761Y-165663619D01*
X214153809Y-165568380D02*
X214344285Y-165568380D01*
X214439523Y-165616000D01*
X214534761Y-165711238D01*
X214582380Y-165901714D01*
X214582380Y-166235047D01*
X214534761Y-166425523D01*
X214439523Y-166520761D01*
X214344285Y-166568380D01*
X214153809Y-166568380D01*
X214058571Y-166520761D01*
X213963333Y-166425523D01*
X213915714Y-166235047D01*
X213915714Y-165901714D01*
X213963333Y-165711238D01*
X214058571Y-165616000D01*
X214153809Y-165568380D01*
X215487142Y-166568380D02*
X215010952Y-166568380D01*
X215010952Y-165568380D01*
X216344285Y-166568380D02*
X215772857Y-166568380D01*
X216058571Y-166568380D02*
X216058571Y-165568380D01*
X215963333Y-165711238D01*
X215868095Y-165806476D01*
X215772857Y-165854095D01*
X229108095Y-153884380D02*
X229679523Y-153884380D01*
X229393809Y-154884380D02*
X229393809Y-153884380D01*
X229917619Y-153884380D02*
X230584285Y-154884380D01*
X230584285Y-153884380D02*
X229917619Y-154884380D01*
X224242380Y-154884380D02*
X223909047Y-154408190D01*
X223670952Y-154884380D02*
X223670952Y-153884380D01*
X224051904Y-153884380D01*
X224147142Y-153932000D01*
X224194761Y-153979619D01*
X224242380Y-154074857D01*
X224242380Y-154217714D01*
X224194761Y-154312952D01*
X224147142Y-154360571D01*
X224051904Y-154408190D01*
X223670952Y-154408190D01*
X224623333Y-154836761D02*
X224766190Y-154884380D01*
X225004285Y-154884380D01*
X225099523Y-154836761D01*
X225147142Y-154789142D01*
X225194761Y-154693904D01*
X225194761Y-154598666D01*
X225147142Y-154503428D01*
X225099523Y-154455809D01*
X225004285Y-154408190D01*
X224813809Y-154360571D01*
X224718571Y-154312952D01*
X224670952Y-154265333D01*
X224623333Y-154170095D01*
X224623333Y-154074857D01*
X224670952Y-153979619D01*
X224718571Y-153932000D01*
X224813809Y-153884380D01*
X225051904Y-153884380D01*
X225194761Y-153932000D01*
X225480476Y-153884380D02*
X226051904Y-153884380D01*
X225766190Y-154884380D02*
X225766190Y-153884380D01*
X101100095Y-188666380D02*
X100766761Y-188190190D01*
X100528666Y-188666380D02*
X100528666Y-187666380D01*
X100909619Y-187666380D01*
X101004857Y-187714000D01*
X101052476Y-187761619D01*
X101100095Y-187856857D01*
X101100095Y-187999714D01*
X101052476Y-188094952D01*
X101004857Y-188142571D01*
X100909619Y-188190190D01*
X100528666Y-188190190D01*
X101719142Y-187666380D02*
X101909619Y-187666380D01*
X102004857Y-187714000D01*
X102100095Y-187809238D01*
X102147714Y-187999714D01*
X102147714Y-188333047D01*
X102100095Y-188523523D01*
X102004857Y-188618761D01*
X101909619Y-188666380D01*
X101719142Y-188666380D01*
X101623904Y-188618761D01*
X101528666Y-188523523D01*
X101481047Y-188333047D01*
X101481047Y-187999714D01*
X101528666Y-187809238D01*
X101623904Y-187714000D01*
X101719142Y-187666380D01*
X102481047Y-187666380D02*
X102719142Y-188666380D01*
X102909619Y-187952095D01*
X103100095Y-188666380D01*
X103338190Y-187666380D01*
X104242952Y-188666380D02*
X103671523Y-188666380D01*
X103957238Y-188666380D02*
X103957238Y-187666380D01*
X103862000Y-187809238D01*
X103766761Y-187904476D01*
X103671523Y-187952095D01*
D13*
X109030476Y-291277142D02*
X109697142Y-291277142D01*
X109982857Y-292324761D02*
X109030476Y-292324761D01*
X109030476Y-290324761D01*
X109982857Y-290324761D01*
X111125714Y-292324761D02*
X110935238Y-292229523D01*
X110840000Y-292039047D01*
X110840000Y-290324761D01*
X112649523Y-292229523D02*
X112459047Y-292324761D01*
X112078095Y-292324761D01*
X111887619Y-292229523D01*
X111792380Y-292039047D01*
X111792380Y-291277142D01*
X111887619Y-291086666D01*
X112078095Y-290991428D01*
X112459047Y-290991428D01*
X112649523Y-291086666D01*
X112744761Y-291277142D01*
X112744761Y-291467619D01*
X111792380Y-291658095D01*
X114459047Y-292229523D02*
X114268571Y-292324761D01*
X113887619Y-292324761D01*
X113697142Y-292229523D01*
X113601904Y-292134285D01*
X113506666Y-291943809D01*
X113506666Y-291372380D01*
X113601904Y-291181904D01*
X113697142Y-291086666D01*
X113887619Y-290991428D01*
X114268571Y-290991428D01*
X114459047Y-291086666D01*
X115030476Y-290991428D02*
X115792380Y-290991428D01*
X115316190Y-290324761D02*
X115316190Y-292039047D01*
X115411428Y-292229523D01*
X115601904Y-292324761D01*
X115792380Y-292324761D01*
X116459047Y-292324761D02*
X116459047Y-290991428D01*
X116459047Y-291372380D02*
X116554285Y-291181904D01*
X116649523Y-291086666D01*
X116840000Y-290991428D01*
X117030476Y-290991428D01*
X117982857Y-292324761D02*
X117792380Y-292229523D01*
X117697142Y-292134285D01*
X117601904Y-291943809D01*
X117601904Y-291372380D01*
X117697142Y-291181904D01*
X117792380Y-291086666D01*
X117982857Y-290991428D01*
X118268571Y-290991428D01*
X118459047Y-291086666D01*
X118554285Y-291181904D01*
X118649523Y-291372380D01*
X118649523Y-291943809D01*
X118554285Y-292134285D01*
X118459047Y-292229523D01*
X118268571Y-292324761D01*
X117982857Y-292324761D01*
X119506666Y-290991428D02*
X119506666Y-292324761D01*
X119506666Y-291181904D02*
X119601904Y-291086666D01*
X119792380Y-290991428D01*
X120078095Y-290991428D01*
X120268571Y-291086666D01*
X120363809Y-291277142D01*
X120363809Y-292324761D01*
X121316190Y-292324761D02*
X121316190Y-290991428D01*
X121316190Y-290324761D02*
X121220952Y-290420000D01*
X121316190Y-290515238D01*
X121411428Y-290420000D01*
X121316190Y-290324761D01*
X121316190Y-290515238D01*
X123125714Y-292229523D02*
X122935238Y-292324761D01*
X122554285Y-292324761D01*
X122363809Y-292229523D01*
X122268571Y-292134285D01*
X122173333Y-291943809D01*
X122173333Y-291372380D01*
X122268571Y-291181904D01*
X122363809Y-291086666D01*
X122554285Y-290991428D01*
X122935238Y-290991428D01*
X123125714Y-291086666D01*
X123887619Y-292229523D02*
X124078095Y-292324761D01*
X124459047Y-292324761D01*
X124649523Y-292229523D01*
X124744761Y-292039047D01*
X124744761Y-291943809D01*
X124649523Y-291753333D01*
X124459047Y-291658095D01*
X124173333Y-291658095D01*
X123982857Y-291562857D01*
X123887619Y-291372380D01*
X123887619Y-291277142D01*
X123982857Y-291086666D01*
X124173333Y-290991428D01*
X124459047Y-290991428D01*
X124649523Y-291086666D01*
X109840000Y-294782857D02*
X111363809Y-294782857D01*
X114697142Y-295544761D02*
X114697142Y-294497142D01*
X114601904Y-294306666D01*
X114411428Y-294211428D01*
X114030476Y-294211428D01*
X113840000Y-294306666D01*
X114697142Y-295449523D02*
X114506666Y-295544761D01*
X114030476Y-295544761D01*
X113840000Y-295449523D01*
X113744761Y-295259047D01*
X113744761Y-295068571D01*
X113840000Y-294878095D01*
X114030476Y-294782857D01*
X114506666Y-294782857D01*
X114697142Y-294687619D01*
X115649523Y-294211428D02*
X115649523Y-295544761D01*
X115649523Y-294401904D02*
X115744761Y-294306666D01*
X115935238Y-294211428D01*
X116220952Y-294211428D01*
X116411428Y-294306666D01*
X116506666Y-294497142D01*
X116506666Y-295544761D01*
X118316190Y-295544761D02*
X118316190Y-293544761D01*
X118316190Y-295449523D02*
X118125714Y-295544761D01*
X117744761Y-295544761D01*
X117554285Y-295449523D01*
X117459047Y-295354285D01*
X117363809Y-295163809D01*
X117363809Y-294592380D01*
X117459047Y-294401904D01*
X117554285Y-294306666D01*
X117744761Y-294211428D01*
X118125714Y-294211428D01*
X118316190Y-294306666D01*
X120792380Y-294782857D02*
X122316190Y-294782857D01*
X99554285Y-297717142D02*
X100220952Y-297717142D01*
X100506666Y-298764761D02*
X99554285Y-298764761D01*
X99554285Y-296764761D01*
X100506666Y-296764761D01*
X101649523Y-298764761D02*
X101459047Y-298669523D01*
X101363809Y-298479047D01*
X101363809Y-296764761D01*
X103173333Y-298669523D02*
X102982857Y-298764761D01*
X102601904Y-298764761D01*
X102411428Y-298669523D01*
X102316190Y-298479047D01*
X102316190Y-297717142D01*
X102411428Y-297526666D01*
X102601904Y-297431428D01*
X102982857Y-297431428D01*
X103173333Y-297526666D01*
X103268571Y-297717142D01*
X103268571Y-297907619D01*
X102316190Y-298098095D01*
X104982857Y-298669523D02*
X104792380Y-298764761D01*
X104411428Y-298764761D01*
X104220952Y-298669523D01*
X104125714Y-298574285D01*
X104030476Y-298383809D01*
X104030476Y-297812380D01*
X104125714Y-297621904D01*
X104220952Y-297526666D01*
X104411428Y-297431428D01*
X104792380Y-297431428D01*
X104982857Y-297526666D01*
X105554285Y-297431428D02*
X106316190Y-297431428D01*
X105840000Y-296764761D02*
X105840000Y-298479047D01*
X105935238Y-298669523D01*
X106125714Y-298764761D01*
X106316190Y-298764761D01*
X106982857Y-298764761D02*
X106982857Y-297431428D01*
X106982857Y-297812380D02*
X107078095Y-297621904D01*
X107173333Y-297526666D01*
X107363809Y-297431428D01*
X107554285Y-297431428D01*
X108506666Y-298764761D02*
X108316190Y-298669523D01*
X108220952Y-298574285D01*
X108125714Y-298383809D01*
X108125714Y-297812380D01*
X108220952Y-297621904D01*
X108316190Y-297526666D01*
X108506666Y-297431428D01*
X108792380Y-297431428D01*
X108982857Y-297526666D01*
X109078095Y-297621904D01*
X109173333Y-297812380D01*
X109173333Y-298383809D01*
X109078095Y-298574285D01*
X108982857Y-298669523D01*
X108792380Y-298764761D01*
X108506666Y-298764761D01*
X110030476Y-297431428D02*
X110030476Y-298764761D01*
X110030476Y-297621904D02*
X110125714Y-297526666D01*
X110316190Y-297431428D01*
X110601904Y-297431428D01*
X110792380Y-297526666D01*
X110887619Y-297717142D01*
X110887619Y-298764761D01*
X111840000Y-298764761D02*
X111840000Y-297431428D01*
X111840000Y-296764761D02*
X111744761Y-296860000D01*
X111840000Y-296955238D01*
X111935238Y-296860000D01*
X111840000Y-296764761D01*
X111840000Y-296955238D01*
X113649523Y-298669523D02*
X113459047Y-298764761D01*
X113078095Y-298764761D01*
X112887619Y-298669523D01*
X112792380Y-298574285D01*
X112697142Y-298383809D01*
X112697142Y-297812380D01*
X112792380Y-297621904D01*
X112887619Y-297526666D01*
X113078095Y-297431428D01*
X113459047Y-297431428D01*
X113649523Y-297526666D01*
X114411428Y-298669523D02*
X114601904Y-298764761D01*
X114982857Y-298764761D01*
X115173333Y-298669523D01*
X115268571Y-298479047D01*
X115268571Y-298383809D01*
X115173333Y-298193333D01*
X114982857Y-298098095D01*
X114697142Y-298098095D01*
X114506666Y-298002857D01*
X114411428Y-297812380D01*
X114411428Y-297717142D01*
X114506666Y-297526666D01*
X114697142Y-297431428D01*
X114982857Y-297431428D01*
X115173333Y-297526666D01*
X117554285Y-298193333D02*
X118506666Y-298193333D01*
X117363809Y-298764761D02*
X118030476Y-296764761D01*
X118697142Y-298764761D01*
X120220952Y-298669523D02*
X120030476Y-298764761D01*
X119649523Y-298764761D01*
X119459047Y-298669523D01*
X119363809Y-298574285D01*
X119268571Y-298383809D01*
X119268571Y-297812380D01*
X119363809Y-297621904D01*
X119459047Y-297526666D01*
X119649523Y-297431428D01*
X120030476Y-297431428D01*
X120220952Y-297526666D01*
X121935238Y-298669523D02*
X121744761Y-298764761D01*
X121363809Y-298764761D01*
X121173333Y-298669523D01*
X121078095Y-298574285D01*
X120982857Y-298383809D01*
X120982857Y-297812380D01*
X121078095Y-297621904D01*
X121173333Y-297526666D01*
X121363809Y-297431428D01*
X121744761Y-297431428D01*
X121935238Y-297526666D01*
X123554285Y-298669523D02*
X123363809Y-298764761D01*
X122982857Y-298764761D01*
X122792380Y-298669523D01*
X122697142Y-298479047D01*
X122697142Y-297717142D01*
X122792380Y-297526666D01*
X122982857Y-297431428D01*
X123363809Y-297431428D01*
X123554285Y-297526666D01*
X123649523Y-297717142D01*
X123649523Y-297907619D01*
X122697142Y-298098095D01*
X124411428Y-298669523D02*
X124601904Y-298764761D01*
X124982857Y-298764761D01*
X125173333Y-298669523D01*
X125268571Y-298479047D01*
X125268571Y-298383809D01*
X125173333Y-298193333D01*
X124982857Y-298098095D01*
X124697142Y-298098095D01*
X124506666Y-298002857D01*
X124411428Y-297812380D01*
X124411428Y-297717142D01*
X124506666Y-297526666D01*
X124697142Y-297431428D01*
X124982857Y-297431428D01*
X125173333Y-297526666D01*
X126030476Y-298669523D02*
X126220952Y-298764761D01*
X126601904Y-298764761D01*
X126792380Y-298669523D01*
X126887619Y-298479047D01*
X126887619Y-298383809D01*
X126792380Y-298193333D01*
X126601904Y-298098095D01*
X126316190Y-298098095D01*
X126125714Y-298002857D01*
X126030476Y-297812380D01*
X126030476Y-297717142D01*
X126125714Y-297526666D01*
X126316190Y-297431428D01*
X126601904Y-297431428D01*
X126792380Y-297526666D01*
X128030476Y-298764761D02*
X127840000Y-298669523D01*
X127744761Y-298574285D01*
X127649523Y-298383809D01*
X127649523Y-297812380D01*
X127744761Y-297621904D01*
X127840000Y-297526666D01*
X128030476Y-297431428D01*
X128316190Y-297431428D01*
X128506666Y-297526666D01*
X128601904Y-297621904D01*
X128697142Y-297812380D01*
X128697142Y-298383809D01*
X128601904Y-298574285D01*
X128506666Y-298669523D01*
X128316190Y-298764761D01*
X128030476Y-298764761D01*
X129554285Y-298764761D02*
X129554285Y-297431428D01*
X129554285Y-297812380D02*
X129649523Y-297621904D01*
X129744761Y-297526666D01*
X129935238Y-297431428D01*
X130125714Y-297431428D01*
X130792380Y-298764761D02*
X130792380Y-297431428D01*
X130792380Y-296764761D02*
X130697142Y-296860000D01*
X130792380Y-296955238D01*
X130887619Y-296860000D01*
X130792380Y-296764761D01*
X130792380Y-296955238D01*
X132506666Y-298669523D02*
X132316190Y-298764761D01*
X131935238Y-298764761D01*
X131744761Y-298669523D01*
X131649523Y-298479047D01*
X131649523Y-297717142D01*
X131744761Y-297526666D01*
X131935238Y-297431428D01*
X132316190Y-297431428D01*
X132506666Y-297526666D01*
X132601904Y-297717142D01*
X132601904Y-297907619D01*
X131649523Y-298098095D01*
X133363809Y-298669523D02*
X133554285Y-298764761D01*
X133935238Y-298764761D01*
X134125714Y-298669523D01*
X134220952Y-298479047D01*
X134220952Y-298383809D01*
X134125714Y-298193333D01*
X133935238Y-298098095D01*
X133649523Y-298098095D01*
X133459047Y-298002857D01*
X133363809Y-297812380D01*
X133363809Y-297717142D01*
X133459047Y-297526666D01*
X133649523Y-297431428D01*
X133935238Y-297431428D01*
X134125714Y-297526666D01*
D10*
X166282619Y-293854285D02*
X165473095Y-293854285D01*
X165377857Y-293901904D01*
X165330238Y-293949523D01*
X165282619Y-294044761D01*
X165282619Y-294235238D01*
X165330238Y-294330476D01*
X165377857Y-294378095D01*
X165473095Y-294425714D01*
X166282619Y-294425714D01*
X165282619Y-294901904D02*
X166282619Y-294901904D01*
X166282619Y-295282857D01*
X166235000Y-295378095D01*
X166187380Y-295425714D01*
X166092142Y-295473333D01*
X165949285Y-295473333D01*
X165854047Y-295425714D01*
X165806428Y-295378095D01*
X165758809Y-295282857D01*
X165758809Y-294901904D01*
X106053047Y-144470380D02*
X106053047Y-143470380D01*
X106291142Y-143470380D01*
X106434000Y-143518000D01*
X106529238Y-143613238D01*
X106576857Y-143708476D01*
X106624476Y-143898952D01*
X106624476Y-144041809D01*
X106576857Y-144232285D01*
X106529238Y-144327523D01*
X106434000Y-144422761D01*
X106291142Y-144470380D01*
X106053047Y-144470380D01*
X107053047Y-144089428D02*
X107814952Y-144089428D01*
X118792761Y-170791142D02*
X118745142Y-170838761D01*
X118602285Y-170886380D01*
X118507047Y-170886380D01*
X118364190Y-170838761D01*
X118268952Y-170743523D01*
X118221333Y-170648285D01*
X118173714Y-170457809D01*
X118173714Y-170314952D01*
X118221333Y-170124476D01*
X118268952Y-170029238D01*
X118364190Y-169934000D01*
X118507047Y-169886380D01*
X118602285Y-169886380D01*
X118745142Y-169934000D01*
X118792761Y-169981619D01*
X119411809Y-169886380D02*
X119602285Y-169886380D01*
X119697523Y-169934000D01*
X119792761Y-170029238D01*
X119840380Y-170219714D01*
X119840380Y-170553047D01*
X119792761Y-170743523D01*
X119697523Y-170838761D01*
X119602285Y-170886380D01*
X119411809Y-170886380D01*
X119316571Y-170838761D01*
X119221333Y-170743523D01*
X119173714Y-170553047D01*
X119173714Y-170219714D01*
X119221333Y-170029238D01*
X119316571Y-169934000D01*
X119411809Y-169886380D01*
X120745142Y-170886380D02*
X120268952Y-170886380D01*
X120268952Y-169886380D01*
X121507047Y-169886380D02*
X121316571Y-169886380D01*
X121221333Y-169934000D01*
X121173714Y-169981619D01*
X121078476Y-170124476D01*
X121030857Y-170314952D01*
X121030857Y-170695904D01*
X121078476Y-170791142D01*
X121126095Y-170838761D01*
X121221333Y-170886380D01*
X121411809Y-170886380D01*
X121507047Y-170838761D01*
X121554666Y-170791142D01*
X121602285Y-170695904D01*
X121602285Y-170457809D01*
X121554666Y-170362571D01*
X121507047Y-170314952D01*
X121411809Y-170267333D01*
X121221333Y-170267333D01*
X121126095Y-170314952D01*
X121078476Y-170362571D01*
X121030857Y-170457809D01*
%TO.C,D6*%
X106043380Y-182960295D02*
X105043380Y-182960295D01*
X105043380Y-182722200D01*
X105091000Y-182579342D01*
X105186238Y-182484104D01*
X105281476Y-182436485D01*
X105471952Y-182388866D01*
X105614809Y-182388866D01*
X105805285Y-182436485D01*
X105900523Y-182484104D01*
X105995761Y-182579342D01*
X106043380Y-182722200D01*
X106043380Y-182960295D01*
X105043380Y-181531723D02*
X105043380Y-181722200D01*
X105091000Y-181817438D01*
X105138619Y-181865057D01*
X105281476Y-181960295D01*
X105471952Y-182007914D01*
X105852904Y-182007914D01*
X105948142Y-181960295D01*
X105995761Y-181912676D01*
X106043380Y-181817438D01*
X106043380Y-181626961D01*
X105995761Y-181531723D01*
X105948142Y-181484104D01*
X105852904Y-181436485D01*
X105614809Y-181436485D01*
X105519571Y-181484104D01*
X105471952Y-181531723D01*
X105424333Y-181626961D01*
X105424333Y-181817438D01*
X105471952Y-181912676D01*
X105519571Y-181960295D01*
X105614809Y-182007914D01*
X106363380Y-186294104D02*
X105363380Y-186294104D01*
X106363380Y-185722676D02*
X105791952Y-186151247D01*
X105363380Y-185722676D02*
X105934809Y-186294104D01*
%TO.C,D3*%
X87033380Y-259322095D02*
X86033380Y-259322095D01*
X86033380Y-259084000D01*
X86081000Y-258941142D01*
X86176238Y-258845904D01*
X86271476Y-258798285D01*
X86461952Y-258750666D01*
X86604809Y-258750666D01*
X86795285Y-258798285D01*
X86890523Y-258845904D01*
X86985761Y-258941142D01*
X87033380Y-259084000D01*
X87033380Y-259322095D01*
X86033380Y-258417333D02*
X86033380Y-257798285D01*
X86414333Y-258131619D01*
X86414333Y-257988761D01*
X86461952Y-257893523D01*
X86509571Y-257845904D01*
X86604809Y-257798285D01*
X86842904Y-257798285D01*
X86938142Y-257845904D01*
X86985761Y-257893523D01*
X87033380Y-257988761D01*
X87033380Y-258274476D01*
X86985761Y-258369714D01*
X86938142Y-258417333D01*
X87353380Y-262655904D02*
X86353380Y-262655904D01*
X87353380Y-262084476D02*
X86781952Y-262513047D01*
X86353380Y-262084476D02*
X86924809Y-262655904D01*
%TO.C,D29*%
X199678180Y-261310285D02*
X198678180Y-261310285D01*
X198678180Y-261072190D01*
X198725800Y-260929333D01*
X198821038Y-260834095D01*
X198916276Y-260786476D01*
X199106752Y-260738857D01*
X199249609Y-260738857D01*
X199440085Y-260786476D01*
X199535323Y-260834095D01*
X199630561Y-260929333D01*
X199678180Y-261072190D01*
X199678180Y-261310285D01*
X198773419Y-260357904D02*
X198725800Y-260310285D01*
X198678180Y-260215047D01*
X198678180Y-259976952D01*
X198725800Y-259881714D01*
X198773419Y-259834095D01*
X198868657Y-259786476D01*
X198963895Y-259786476D01*
X199106752Y-259834095D01*
X199678180Y-260405523D01*
X199678180Y-259786476D01*
X199678180Y-259310285D02*
X199678180Y-259119809D01*
X199630561Y-259024571D01*
X199582942Y-258976952D01*
X199440085Y-258881714D01*
X199249609Y-258834095D01*
X198868657Y-258834095D01*
X198773419Y-258881714D01*
X198725800Y-258929333D01*
X198678180Y-259024571D01*
X198678180Y-259215047D01*
X198725800Y-259310285D01*
X198773419Y-259357904D01*
X198868657Y-259405523D01*
X199106752Y-259405523D01*
X199201990Y-259357904D01*
X199249609Y-259310285D01*
X199297228Y-259215047D01*
X199297228Y-259024571D01*
X199249609Y-258929333D01*
X199201990Y-258881714D01*
X199106752Y-258834095D01*
X199998180Y-264167904D02*
X198998180Y-264167904D01*
X199998180Y-263596476D02*
X199426752Y-264025047D01*
X198998180Y-263596476D02*
X199569609Y-264167904D01*
%TO.C,D30*%
X217407380Y-274264285D02*
X216407380Y-274264285D01*
X216407380Y-274026190D01*
X216455000Y-273883333D01*
X216550238Y-273788095D01*
X216645476Y-273740476D01*
X216835952Y-273692857D01*
X216978809Y-273692857D01*
X217169285Y-273740476D01*
X217264523Y-273788095D01*
X217359761Y-273883333D01*
X217407380Y-274026190D01*
X217407380Y-274264285D01*
X216407380Y-273359523D02*
X216407380Y-272740476D01*
X216788333Y-273073809D01*
X216788333Y-272930952D01*
X216835952Y-272835714D01*
X216883571Y-272788095D01*
X216978809Y-272740476D01*
X217216904Y-272740476D01*
X217312142Y-272788095D01*
X217359761Y-272835714D01*
X217407380Y-272930952D01*
X217407380Y-273216666D01*
X217359761Y-273311904D01*
X217312142Y-273359523D01*
X216407380Y-272121428D02*
X216407380Y-272026190D01*
X216455000Y-271930952D01*
X216502619Y-271883333D01*
X216597857Y-271835714D01*
X216788333Y-271788095D01*
X217026428Y-271788095D01*
X217216904Y-271835714D01*
X217312142Y-271883333D01*
X217359761Y-271930952D01*
X217407380Y-272026190D01*
X217407380Y-272121428D01*
X217359761Y-272216666D01*
X217312142Y-272264285D01*
X217216904Y-272311904D01*
X217026428Y-272359523D01*
X216788333Y-272359523D01*
X216597857Y-272311904D01*
X216502619Y-272264285D01*
X216455000Y-272216666D01*
X216407380Y-272121428D01*
X217727380Y-277121904D02*
X216727380Y-277121904D01*
X217727380Y-276550476D02*
X217155952Y-276979047D01*
X216727380Y-276550476D02*
X217298809Y-277121904D01*
%TO.C,D31*%
X228202380Y-293314285D02*
X227202380Y-293314285D01*
X227202380Y-293076190D01*
X227250000Y-292933333D01*
X227345238Y-292838095D01*
X227440476Y-292790476D01*
X227630952Y-292742857D01*
X227773809Y-292742857D01*
X227964285Y-292790476D01*
X228059523Y-292838095D01*
X228154761Y-292933333D01*
X228202380Y-293076190D01*
X228202380Y-293314285D01*
X227202380Y-292409523D02*
X227202380Y-291790476D01*
X227583333Y-292123809D01*
X227583333Y-291980952D01*
X227630952Y-291885714D01*
X227678571Y-291838095D01*
X227773809Y-291790476D01*
X228011904Y-291790476D01*
X228107142Y-291838095D01*
X228154761Y-291885714D01*
X228202380Y-291980952D01*
X228202380Y-292266666D01*
X228154761Y-292361904D01*
X228107142Y-292409523D01*
X228202380Y-290838095D02*
X228202380Y-291409523D01*
X228202380Y-291123809D02*
X227202380Y-291123809D01*
X227345238Y-291219047D01*
X227440476Y-291314285D01*
X227488095Y-291409523D01*
X228522380Y-296171904D02*
X227522380Y-296171904D01*
X228522380Y-295600476D02*
X227950952Y-296029047D01*
X227522380Y-295600476D02*
X228093809Y-296171904D01*
%TO.C,J4*%
X215561972Y-140258461D02*
X215561972Y-140972747D01*
X215514353Y-141115604D01*
X215419115Y-141210842D01*
X215276258Y-141258461D01*
X215181020Y-141258461D01*
X216466734Y-140591795D02*
X216466734Y-141258461D01*
X216228639Y-140210842D02*
X215990544Y-140925128D01*
X216609591Y-140925128D01*
%TO.C,J3*%
X181062380Y-152098333D02*
X181776666Y-152098333D01*
X181919523Y-152145952D01*
X182014761Y-152241190D01*
X182062380Y-152384047D01*
X182062380Y-152479285D01*
X181062380Y-151717380D02*
X181062380Y-151098333D01*
X181443333Y-151431666D01*
X181443333Y-151288809D01*
X181490952Y-151193571D01*
X181538571Y-151145952D01*
X181633809Y-151098333D01*
X181871904Y-151098333D01*
X181967142Y-151145952D01*
X182014761Y-151193571D01*
X182062380Y-151288809D01*
X182062380Y-151574523D01*
X182014761Y-151669761D01*
X181967142Y-151717380D01*
%TO.C,R1*%
X112467380Y-146851666D02*
X111991190Y-147185000D01*
X112467380Y-147423095D02*
X111467380Y-147423095D01*
X111467380Y-147042142D01*
X111515000Y-146946904D01*
X111562619Y-146899285D01*
X111657857Y-146851666D01*
X111800714Y-146851666D01*
X111895952Y-146899285D01*
X111943571Y-146946904D01*
X111991190Y-147042142D01*
X111991190Y-147423095D01*
X112467380Y-145899285D02*
X112467380Y-146470714D01*
X112467380Y-146185000D02*
X111467380Y-146185000D01*
X111610238Y-146280238D01*
X111705476Y-146375476D01*
X111753095Y-146470714D01*
%TO.C,R2*%
X118307380Y-146851666D02*
X117831190Y-147185000D01*
X118307380Y-147423095D02*
X117307380Y-147423095D01*
X117307380Y-147042142D01*
X117355000Y-146946904D01*
X117402619Y-146899285D01*
X117497857Y-146851666D01*
X117640714Y-146851666D01*
X117735952Y-146899285D01*
X117783571Y-146946904D01*
X117831190Y-147042142D01*
X117831190Y-147423095D01*
X117402619Y-146470714D02*
X117355000Y-146423095D01*
X117307380Y-146327857D01*
X117307380Y-146089761D01*
X117355000Y-145994523D01*
X117402619Y-145946904D01*
X117497857Y-145899285D01*
X117593095Y-145899285D01*
X117735952Y-145946904D01*
X118307380Y-146518333D01*
X118307380Y-145899285D01*
%TO.C,TP2*%
X213368095Y-161270980D02*
X213939523Y-161270980D01*
X213653809Y-162270980D02*
X213653809Y-161270980D01*
X214272857Y-162270980D02*
X214272857Y-161270980D01*
X214653809Y-161270980D01*
X214749047Y-161318600D01*
X214796666Y-161366219D01*
X214844285Y-161461457D01*
X214844285Y-161604314D01*
X214796666Y-161699552D01*
X214749047Y-161747171D01*
X214653809Y-161794790D01*
X214272857Y-161794790D01*
X215225238Y-161366219D02*
X215272857Y-161318600D01*
X215368095Y-161270980D01*
X215606190Y-161270980D01*
X215701428Y-161318600D01*
X215749047Y-161366219D01*
X215796666Y-161461457D01*
X215796666Y-161556695D01*
X215749047Y-161699552D01*
X215177619Y-162270980D01*
X215796666Y-162270980D01*
%TO.C,TP3*%
X201938095Y-157474380D02*
X202509523Y-157474380D01*
X202223809Y-158474380D02*
X202223809Y-157474380D01*
X202842857Y-158474380D02*
X202842857Y-157474380D01*
X203223809Y-157474380D01*
X203319047Y-157522000D01*
X203366666Y-157569619D01*
X203414285Y-157664857D01*
X203414285Y-157807714D01*
X203366666Y-157902952D01*
X203319047Y-157950571D01*
X203223809Y-157998190D01*
X202842857Y-157998190D01*
X203747619Y-157474380D02*
X204366666Y-157474380D01*
X204033333Y-157855333D01*
X204176190Y-157855333D01*
X204271428Y-157902952D01*
X204319047Y-157950571D01*
X204366666Y-158045809D01*
X204366666Y-158283904D01*
X204319047Y-158379142D01*
X204271428Y-158426761D01*
X204176190Y-158474380D01*
X203890476Y-158474380D01*
X203795238Y-158426761D01*
X203747619Y-158379142D01*
%TO.C,TP4*%
X173490095Y-153122380D02*
X174061523Y-153122380D01*
X173775809Y-154122380D02*
X173775809Y-153122380D01*
X174394857Y-154122380D02*
X174394857Y-153122380D01*
X174775809Y-153122380D01*
X174871047Y-153170000D01*
X174918666Y-153217619D01*
X174966285Y-153312857D01*
X174966285Y-153455714D01*
X174918666Y-153550952D01*
X174871047Y-153598571D01*
X174775809Y-153646190D01*
X174394857Y-153646190D01*
X175823428Y-153455714D02*
X175823428Y-154122380D01*
X175585333Y-153074761D02*
X175347238Y-153789047D01*
X175966285Y-153789047D01*
%TO.C,TP5*%
X165870095Y-153122380D02*
X166441523Y-153122380D01*
X166155809Y-154122380D02*
X166155809Y-153122380D01*
X166774857Y-154122380D02*
X166774857Y-153122380D01*
X167155809Y-153122380D01*
X167251047Y-153170000D01*
X167298666Y-153217619D01*
X167346285Y-153312857D01*
X167346285Y-153455714D01*
X167298666Y-153550952D01*
X167251047Y-153598571D01*
X167155809Y-153646190D01*
X166774857Y-153646190D01*
X168251047Y-153122380D02*
X167774857Y-153122380D01*
X167727238Y-153598571D01*
X167774857Y-153550952D01*
X167870095Y-153503333D01*
X168108190Y-153503333D01*
X168203428Y-153550952D01*
X168251047Y-153598571D01*
X168298666Y-153693809D01*
X168298666Y-153931904D01*
X168251047Y-154027142D01*
X168203428Y-154074761D01*
X168108190Y-154122380D01*
X167870095Y-154122380D01*
X167774857Y-154074761D01*
X167727238Y-154027142D01*
%TO.C,TP7*%
X118554095Y-165729380D02*
X119125523Y-165729380D01*
X118839809Y-166729380D02*
X118839809Y-165729380D01*
X119458857Y-166729380D02*
X119458857Y-165729380D01*
X119839809Y-165729380D01*
X119935047Y-165777000D01*
X119982666Y-165824619D01*
X120030285Y-165919857D01*
X120030285Y-166062714D01*
X119982666Y-166157952D01*
X119935047Y-166205571D01*
X119839809Y-166253190D01*
X119458857Y-166253190D01*
X120363619Y-165729380D02*
X121030285Y-165729380D01*
X120601714Y-166729380D01*
%TO.C,TP10*%
X100551904Y-183521380D02*
X101123333Y-183521380D01*
X100837619Y-184521380D02*
X100837619Y-183521380D01*
X101456666Y-184521380D02*
X101456666Y-183521380D01*
X101837619Y-183521380D01*
X101932857Y-183569000D01*
X101980476Y-183616619D01*
X102028095Y-183711857D01*
X102028095Y-183854714D01*
X101980476Y-183949952D01*
X101932857Y-183997571D01*
X101837619Y-184045190D01*
X101456666Y-184045190D01*
X102980476Y-184521380D02*
X102409047Y-184521380D01*
X102694761Y-184521380D02*
X102694761Y-183521380D01*
X102599523Y-183664238D01*
X102504285Y-183759476D01*
X102409047Y-183807095D01*
X103599523Y-183521380D02*
X103694761Y-183521380D01*
X103790000Y-183569000D01*
X103837619Y-183616619D01*
X103885238Y-183711857D01*
X103932857Y-183902333D01*
X103932857Y-184140428D01*
X103885238Y-184330904D01*
X103837619Y-184426142D01*
X103790000Y-184473761D01*
X103694761Y-184521380D01*
X103599523Y-184521380D01*
X103504285Y-184473761D01*
X103456666Y-184426142D01*
X103409047Y-184330904D01*
X103361428Y-184140428D01*
X103361428Y-183902333D01*
X103409047Y-183711857D01*
X103456666Y-183616619D01*
X103504285Y-183569000D01*
X103599523Y-183521380D01*
%TO.C,TP11*%
X100551904Y-202571380D02*
X101123333Y-202571380D01*
X100837619Y-203571380D02*
X100837619Y-202571380D01*
X101456666Y-203571380D02*
X101456666Y-202571380D01*
X101837619Y-202571380D01*
X101932857Y-202619000D01*
X101980476Y-202666619D01*
X102028095Y-202761857D01*
X102028095Y-202904714D01*
X101980476Y-202999952D01*
X101932857Y-203047571D01*
X101837619Y-203095190D01*
X101456666Y-203095190D01*
X102980476Y-203571380D02*
X102409047Y-203571380D01*
X102694761Y-203571380D02*
X102694761Y-202571380D01*
X102599523Y-202714238D01*
X102504285Y-202809476D01*
X102409047Y-202857095D01*
X103932857Y-203571380D02*
X103361428Y-203571380D01*
X103647142Y-203571380D02*
X103647142Y-202571380D01*
X103551904Y-202714238D01*
X103456666Y-202809476D01*
X103361428Y-202857095D01*
%TO.C,TP12*%
X95725904Y-221609380D02*
X96297333Y-221609380D01*
X96011619Y-222609380D02*
X96011619Y-221609380D01*
X96630666Y-222609380D02*
X96630666Y-221609380D01*
X97011619Y-221609380D01*
X97106857Y-221657000D01*
X97154476Y-221704619D01*
X97202095Y-221799857D01*
X97202095Y-221942714D01*
X97154476Y-222037952D01*
X97106857Y-222085571D01*
X97011619Y-222133190D01*
X96630666Y-222133190D01*
X98154476Y-222609380D02*
X97583047Y-222609380D01*
X97868761Y-222609380D02*
X97868761Y-221609380D01*
X97773523Y-221752238D01*
X97678285Y-221847476D01*
X97583047Y-221895095D01*
X98535428Y-221704619D02*
X98583047Y-221657000D01*
X98678285Y-221609380D01*
X98916380Y-221609380D01*
X99011619Y-221657000D01*
X99059238Y-221704619D01*
X99106857Y-221799857D01*
X99106857Y-221895095D01*
X99059238Y-222037952D01*
X98487809Y-222609380D01*
X99106857Y-222609380D01*
%TO.C,TP13*%
X93511904Y-240659380D02*
X94083333Y-240659380D01*
X93797619Y-241659380D02*
X93797619Y-240659380D01*
X94416666Y-241659380D02*
X94416666Y-240659380D01*
X94797619Y-240659380D01*
X94892857Y-240707000D01*
X94940476Y-240754619D01*
X94988095Y-240849857D01*
X94988095Y-240992714D01*
X94940476Y-241087952D01*
X94892857Y-241135571D01*
X94797619Y-241183190D01*
X94416666Y-241183190D01*
X95940476Y-241659380D02*
X95369047Y-241659380D01*
X95654761Y-241659380D02*
X95654761Y-240659380D01*
X95559523Y-240802238D01*
X95464285Y-240897476D01*
X95369047Y-240945095D01*
X96273809Y-240659380D02*
X96892857Y-240659380D01*
X96559523Y-241040333D01*
X96702380Y-241040333D01*
X96797619Y-241087952D01*
X96845238Y-241135571D01*
X96892857Y-241230809D01*
X96892857Y-241468904D01*
X96845238Y-241564142D01*
X96797619Y-241611761D01*
X96702380Y-241659380D01*
X96416666Y-241659380D01*
X96321428Y-241611761D01*
X96273809Y-241564142D01*
%TO.C,TP14*%
X90463904Y-264882380D02*
X91035333Y-264882380D01*
X90749619Y-265882380D02*
X90749619Y-264882380D01*
X91368666Y-265882380D02*
X91368666Y-264882380D01*
X91749619Y-264882380D01*
X91844857Y-264930000D01*
X91892476Y-264977619D01*
X91940095Y-265072857D01*
X91940095Y-265215714D01*
X91892476Y-265310952D01*
X91844857Y-265358571D01*
X91749619Y-265406190D01*
X91368666Y-265406190D01*
X92892476Y-265882380D02*
X92321047Y-265882380D01*
X92606761Y-265882380D02*
X92606761Y-264882380D01*
X92511523Y-265025238D01*
X92416285Y-265120476D01*
X92321047Y-265168095D01*
X93749619Y-265215714D02*
X93749619Y-265882380D01*
X93511523Y-264834761D02*
X93273428Y-265549047D01*
X93892476Y-265549047D01*
%TO.C,TP9*%
X210828095Y-241929380D02*
X211399523Y-241929380D01*
X211113809Y-242929380D02*
X211113809Y-241929380D01*
X211732857Y-242929380D02*
X211732857Y-241929380D01*
X212113809Y-241929380D01*
X212209047Y-241977000D01*
X212256666Y-242024619D01*
X212304285Y-242119857D01*
X212304285Y-242262714D01*
X212256666Y-242357952D01*
X212209047Y-242405571D01*
X212113809Y-242453190D01*
X211732857Y-242453190D01*
X212780476Y-242929380D02*
X212970952Y-242929380D01*
X213066190Y-242881761D01*
X213113809Y-242834142D01*
X213209047Y-242691285D01*
X213256666Y-242500809D01*
X213256666Y-242119857D01*
X213209047Y-242024619D01*
X213161428Y-241977000D01*
X213066190Y-241929380D01*
X212875714Y-241929380D01*
X212780476Y-241977000D01*
X212732857Y-242024619D01*
X212685238Y-242119857D01*
X212685238Y-242357952D01*
X212732857Y-242453190D01*
X212780476Y-242500809D01*
X212875714Y-242548428D01*
X213066190Y-242548428D01*
X213161428Y-242500809D01*
X213209047Y-242453190D01*
X213256666Y-242357952D01*
%TO.C,TP15*%
X172251904Y-290917380D02*
X172823333Y-290917380D01*
X172537619Y-291917380D02*
X172537619Y-290917380D01*
X173156666Y-291917380D02*
X173156666Y-290917380D01*
X173537619Y-290917380D01*
X173632857Y-290965000D01*
X173680476Y-291012619D01*
X173728095Y-291107857D01*
X173728095Y-291250714D01*
X173680476Y-291345952D01*
X173632857Y-291393571D01*
X173537619Y-291441190D01*
X173156666Y-291441190D01*
X174680476Y-291917380D02*
X174109047Y-291917380D01*
X174394761Y-291917380D02*
X174394761Y-290917380D01*
X174299523Y-291060238D01*
X174204285Y-291155476D01*
X174109047Y-291203095D01*
X175585238Y-290917380D02*
X175109047Y-290917380D01*
X175061428Y-291393571D01*
X175109047Y-291345952D01*
X175204285Y-291298333D01*
X175442380Y-291298333D01*
X175537619Y-291345952D01*
X175585238Y-291393571D01*
X175632857Y-291488809D01*
X175632857Y-291726904D01*
X175585238Y-291822142D01*
X175537619Y-291869761D01*
X175442380Y-291917380D01*
X175204285Y-291917380D01*
X175109047Y-291869761D01*
X175061428Y-291822142D01*
%TO.C,TP16*%
X147486904Y-290917380D02*
X148058333Y-290917380D01*
X147772619Y-291917380D02*
X147772619Y-290917380D01*
X148391666Y-291917380D02*
X148391666Y-290917380D01*
X148772619Y-290917380D01*
X148867857Y-290965000D01*
X148915476Y-291012619D01*
X148963095Y-291107857D01*
X148963095Y-291250714D01*
X148915476Y-291345952D01*
X148867857Y-291393571D01*
X148772619Y-291441190D01*
X148391666Y-291441190D01*
X149915476Y-291917380D02*
X149344047Y-291917380D01*
X149629761Y-291917380D02*
X149629761Y-290917380D01*
X149534523Y-291060238D01*
X149439285Y-291155476D01*
X149344047Y-291203095D01*
X150772619Y-290917380D02*
X150582142Y-290917380D01*
X150486904Y-290965000D01*
X150439285Y-291012619D01*
X150344047Y-291155476D01*
X150296428Y-291345952D01*
X150296428Y-291726904D01*
X150344047Y-291822142D01*
X150391666Y-291869761D01*
X150486904Y-291917380D01*
X150677380Y-291917380D01*
X150772619Y-291869761D01*
X150820238Y-291822142D01*
X150867857Y-291726904D01*
X150867857Y-291488809D01*
X150820238Y-291393571D01*
X150772619Y-291345952D01*
X150677380Y-291298333D01*
X150486904Y-291298333D01*
X150391666Y-291345952D01*
X150344047Y-291393571D01*
X150296428Y-291488809D01*
%TO.C,TP17*%
X172251904Y-287742380D02*
X172823333Y-287742380D01*
X172537619Y-288742380D02*
X172537619Y-287742380D01*
X173156666Y-288742380D02*
X173156666Y-287742380D01*
X173537619Y-287742380D01*
X173632857Y-287790000D01*
X173680476Y-287837619D01*
X173728095Y-287932857D01*
X173728095Y-288075714D01*
X173680476Y-288170952D01*
X173632857Y-288218571D01*
X173537619Y-288266190D01*
X173156666Y-288266190D01*
X174680476Y-288742380D02*
X174109047Y-288742380D01*
X174394761Y-288742380D02*
X174394761Y-287742380D01*
X174299523Y-287885238D01*
X174204285Y-287980476D01*
X174109047Y-288028095D01*
X175013809Y-287742380D02*
X175680476Y-287742380D01*
X175251904Y-288742380D01*
%TO.C,TP18*%
X172251904Y-297267380D02*
X172823333Y-297267380D01*
X172537619Y-298267380D02*
X172537619Y-297267380D01*
X173156666Y-298267380D02*
X173156666Y-297267380D01*
X173537619Y-297267380D01*
X173632857Y-297315000D01*
X173680476Y-297362619D01*
X173728095Y-297457857D01*
X173728095Y-297600714D01*
X173680476Y-297695952D01*
X173632857Y-297743571D01*
X173537619Y-297791190D01*
X173156666Y-297791190D01*
X174680476Y-298267380D02*
X174109047Y-298267380D01*
X174394761Y-298267380D02*
X174394761Y-297267380D01*
X174299523Y-297410238D01*
X174204285Y-297505476D01*
X174109047Y-297553095D01*
X175251904Y-297695952D02*
X175156666Y-297648333D01*
X175109047Y-297600714D01*
X175061428Y-297505476D01*
X175061428Y-297457857D01*
X175109047Y-297362619D01*
X175156666Y-297315000D01*
X175251904Y-297267380D01*
X175442380Y-297267380D01*
X175537619Y-297315000D01*
X175585238Y-297362619D01*
X175632857Y-297457857D01*
X175632857Y-297505476D01*
X175585238Y-297600714D01*
X175537619Y-297648333D01*
X175442380Y-297695952D01*
X175251904Y-297695952D01*
X175156666Y-297743571D01*
X175109047Y-297791190D01*
X175061428Y-297886428D01*
X175061428Y-298076904D01*
X175109047Y-298172142D01*
X175156666Y-298219761D01*
X175251904Y-298267380D01*
X175442380Y-298267380D01*
X175537619Y-298219761D01*
X175585238Y-298172142D01*
X175632857Y-298076904D01*
X175632857Y-297886428D01*
X175585238Y-297791190D01*
X175537619Y-297743571D01*
X175442380Y-297695952D01*
%TO.C,TP19*%
X147486904Y-297267380D02*
X148058333Y-297267380D01*
X147772619Y-298267380D02*
X147772619Y-297267380D01*
X148391666Y-298267380D02*
X148391666Y-297267380D01*
X148772619Y-297267380D01*
X148867857Y-297315000D01*
X148915476Y-297362619D01*
X148963095Y-297457857D01*
X148963095Y-297600714D01*
X148915476Y-297695952D01*
X148867857Y-297743571D01*
X148772619Y-297791190D01*
X148391666Y-297791190D01*
X149915476Y-298267380D02*
X149344047Y-298267380D01*
X149629761Y-298267380D02*
X149629761Y-297267380D01*
X149534523Y-297410238D01*
X149439285Y-297505476D01*
X149344047Y-297553095D01*
X150391666Y-298267380D02*
X150582142Y-298267380D01*
X150677380Y-298219761D01*
X150725000Y-298172142D01*
X150820238Y-298029285D01*
X150867857Y-297838809D01*
X150867857Y-297457857D01*
X150820238Y-297362619D01*
X150772619Y-297315000D01*
X150677380Y-297267380D01*
X150486904Y-297267380D01*
X150391666Y-297315000D01*
X150344047Y-297362619D01*
X150296428Y-297457857D01*
X150296428Y-297695952D01*
X150344047Y-297791190D01*
X150391666Y-297838809D01*
X150486904Y-297886428D01*
X150677380Y-297886428D01*
X150772619Y-297838809D01*
X150820238Y-297791190D01*
X150867857Y-297695952D01*
%TO.C,TP20*%
X172251904Y-294092380D02*
X172823333Y-294092380D01*
X172537619Y-295092380D02*
X172537619Y-294092380D01*
X173156666Y-295092380D02*
X173156666Y-294092380D01*
X173537619Y-294092380D01*
X173632857Y-294140000D01*
X173680476Y-294187619D01*
X173728095Y-294282857D01*
X173728095Y-294425714D01*
X173680476Y-294520952D01*
X173632857Y-294568571D01*
X173537619Y-294616190D01*
X173156666Y-294616190D01*
X174109047Y-294187619D02*
X174156666Y-294140000D01*
X174251904Y-294092380D01*
X174490000Y-294092380D01*
X174585238Y-294140000D01*
X174632857Y-294187619D01*
X174680476Y-294282857D01*
X174680476Y-294378095D01*
X174632857Y-294520952D01*
X174061428Y-295092380D01*
X174680476Y-295092380D01*
X175299523Y-294092380D02*
X175394761Y-294092380D01*
X175490000Y-294140000D01*
X175537619Y-294187619D01*
X175585238Y-294282857D01*
X175632857Y-294473333D01*
X175632857Y-294711428D01*
X175585238Y-294901904D01*
X175537619Y-294997142D01*
X175490000Y-295044761D01*
X175394761Y-295092380D01*
X175299523Y-295092380D01*
X175204285Y-295044761D01*
X175156666Y-294997142D01*
X175109047Y-294901904D01*
X175061428Y-294711428D01*
X175061428Y-294473333D01*
X175109047Y-294282857D01*
X175156666Y-294187619D01*
X175204285Y-294140000D01*
X175299523Y-294092380D01*
%TO.C,TP21*%
X147486904Y-294092380D02*
X148058333Y-294092380D01*
X147772619Y-295092380D02*
X147772619Y-294092380D01*
X148391666Y-295092380D02*
X148391666Y-294092380D01*
X148772619Y-294092380D01*
X148867857Y-294140000D01*
X148915476Y-294187619D01*
X148963095Y-294282857D01*
X148963095Y-294425714D01*
X148915476Y-294520952D01*
X148867857Y-294568571D01*
X148772619Y-294616190D01*
X148391666Y-294616190D01*
X149344047Y-294187619D02*
X149391666Y-294140000D01*
X149486904Y-294092380D01*
X149725000Y-294092380D01*
X149820238Y-294140000D01*
X149867857Y-294187619D01*
X149915476Y-294282857D01*
X149915476Y-294378095D01*
X149867857Y-294520952D01*
X149296428Y-295092380D01*
X149915476Y-295092380D01*
X150867857Y-295092380D02*
X150296428Y-295092380D01*
X150582142Y-295092380D02*
X150582142Y-294092380D01*
X150486904Y-294235238D01*
X150391666Y-294330476D01*
X150296428Y-294378095D01*
%TO.C,U1*%
X174778480Y-147553504D02*
X175588004Y-147553504D01*
X175683242Y-147505885D01*
X175730861Y-147458266D01*
X175778480Y-147363028D01*
X175778480Y-147172552D01*
X175730861Y-147077314D01*
X175683242Y-147029695D01*
X175588004Y-146982076D01*
X174778480Y-146982076D01*
X175778480Y-145982076D02*
X175778480Y-146553504D01*
X175778480Y-146267790D02*
X174778480Y-146267790D01*
X174921338Y-146363028D01*
X175016576Y-146458266D01*
X175064195Y-146553504D01*
%TO.C,JP1*%
X223956666Y-156932380D02*
X223956666Y-157646666D01*
X223909047Y-157789523D01*
X223813809Y-157884761D01*
X223670952Y-157932380D01*
X223575714Y-157932380D01*
X224432857Y-157932380D02*
X224432857Y-156932380D01*
X224813809Y-156932380D01*
X224909047Y-156980000D01*
X224956666Y-157027619D01*
X225004285Y-157122857D01*
X225004285Y-157265714D01*
X224956666Y-157360952D01*
X224909047Y-157408571D01*
X224813809Y-157456190D01*
X224432857Y-157456190D01*
X225956666Y-157932380D02*
X225385238Y-157932380D01*
X225670952Y-157932380D02*
X225670952Y-156932380D01*
X225575714Y-157075238D01*
X225480476Y-157170476D01*
X225385238Y-157218095D01*
%TO.C,J2*%
X195667380Y-152098333D02*
X196381666Y-152098333D01*
X196524523Y-152145952D01*
X196619761Y-152241190D01*
X196667380Y-152384047D01*
X196667380Y-152479285D01*
X195762619Y-151669761D02*
X195715000Y-151622142D01*
X195667380Y-151526904D01*
X195667380Y-151288809D01*
X195715000Y-151193571D01*
X195762619Y-151145952D01*
X195857857Y-151098333D01*
X195953095Y-151098333D01*
X196095952Y-151145952D01*
X196667380Y-151717380D01*
X196667380Y-151098333D01*
%TO.C,TP6*%
X137350095Y-165729380D02*
X137921523Y-165729380D01*
X137635809Y-166729380D02*
X137635809Y-165729380D01*
X138254857Y-166729380D02*
X138254857Y-165729380D01*
X138635809Y-165729380D01*
X138731047Y-165777000D01*
X138778666Y-165824619D01*
X138826285Y-165919857D01*
X138826285Y-166062714D01*
X138778666Y-166157952D01*
X138731047Y-166205571D01*
X138635809Y-166253190D01*
X138254857Y-166253190D01*
X139683428Y-165729380D02*
X139492952Y-165729380D01*
X139397714Y-165777000D01*
X139350095Y-165824619D01*
X139254857Y-165967476D01*
X139207238Y-166157952D01*
X139207238Y-166538904D01*
X139254857Y-166634142D01*
X139302476Y-166681761D01*
X139397714Y-166729380D01*
X139588190Y-166729380D01*
X139683428Y-166681761D01*
X139731047Y-166634142D01*
X139778666Y-166538904D01*
X139778666Y-166300809D01*
X139731047Y-166205571D01*
X139683428Y-166157952D01*
X139588190Y-166110333D01*
X139397714Y-166110333D01*
X139302476Y-166157952D01*
X139254857Y-166205571D01*
X139207238Y-166300809D01*
%TO.C,J1*%
X115262066Y-142630380D02*
X115262066Y-143344666D01*
X115214447Y-143487523D01*
X115119209Y-143582761D01*
X114976352Y-143630380D01*
X114881114Y-143630380D01*
X116262066Y-143630380D02*
X115690638Y-143630380D01*
X115976352Y-143630380D02*
X115976352Y-142630380D01*
X115881114Y-142773238D01*
X115785876Y-142868476D01*
X115690638Y-142916095D01*
%TO.C,TP1*%
X121928095Y-138898380D02*
X122499523Y-138898380D01*
X122213809Y-139898380D02*
X122213809Y-138898380D01*
X122832857Y-139898380D02*
X122832857Y-138898380D01*
X123213809Y-138898380D01*
X123309047Y-138946000D01*
X123356666Y-138993619D01*
X123404285Y-139088857D01*
X123404285Y-139231714D01*
X123356666Y-139326952D01*
X123309047Y-139374571D01*
X123213809Y-139422190D01*
X122832857Y-139422190D01*
X124356666Y-139898380D02*
X123785238Y-139898380D01*
X124070952Y-139898380D02*
X124070952Y-138898380D01*
X123975714Y-139041238D01*
X123880476Y-139136476D01*
X123785238Y-139184095D01*
%TO.C,D9*%
X125093380Y-182960295D02*
X124093380Y-182960295D01*
X124093380Y-182722200D01*
X124141000Y-182579342D01*
X124236238Y-182484104D01*
X124331476Y-182436485D01*
X124521952Y-182388866D01*
X124664809Y-182388866D01*
X124855285Y-182436485D01*
X124950523Y-182484104D01*
X125045761Y-182579342D01*
X125093380Y-182722200D01*
X125093380Y-182960295D01*
X125093380Y-181912676D02*
X125093380Y-181722200D01*
X125045761Y-181626961D01*
X124998142Y-181579342D01*
X124855285Y-181484104D01*
X124664809Y-181436485D01*
X124283857Y-181436485D01*
X124188619Y-181484104D01*
X124141000Y-181531723D01*
X124093380Y-181626961D01*
X124093380Y-181817438D01*
X124141000Y-181912676D01*
X124188619Y-181960295D01*
X124283857Y-182007914D01*
X124521952Y-182007914D01*
X124617190Y-181960295D01*
X124664809Y-181912676D01*
X124712428Y-181817438D01*
X124712428Y-181626961D01*
X124664809Y-181531723D01*
X124617190Y-181484104D01*
X124521952Y-181436485D01*
X125413380Y-186294104D02*
X124413380Y-186294104D01*
X125413380Y-185722676D02*
X124841952Y-186151247D01*
X124413380Y-185722676D02*
X124984809Y-186294104D01*
%TO.C,D14*%
X144143380Y-173436485D02*
X143143380Y-173436485D01*
X143143380Y-173198390D01*
X143191000Y-173055533D01*
X143286238Y-172960295D01*
X143381476Y-172912676D01*
X143571952Y-172865057D01*
X143714809Y-172865057D01*
X143905285Y-172912676D01*
X144000523Y-172960295D01*
X144095761Y-173055533D01*
X144143380Y-173198390D01*
X144143380Y-173436485D01*
X144143380Y-171912676D02*
X144143380Y-172484104D01*
X144143380Y-172198390D02*
X143143380Y-172198390D01*
X143286238Y-172293628D01*
X143381476Y-172388866D01*
X143429095Y-172484104D01*
X143476714Y-171055533D02*
X144143380Y-171055533D01*
X143095761Y-171293628D02*
X143810047Y-171531723D01*
X143810047Y-170912676D01*
X144463380Y-176294104D02*
X143463380Y-176294104D01*
X144463380Y-175722676D02*
X143891952Y-176151247D01*
X143463380Y-175722676D02*
X144034809Y-176294104D01*
%TO.C,D19*%
X163193380Y-171436485D02*
X162193380Y-171436485D01*
X162193380Y-171198390D01*
X162241000Y-171055533D01*
X162336238Y-170960295D01*
X162431476Y-170912676D01*
X162621952Y-170865057D01*
X162764809Y-170865057D01*
X162955285Y-170912676D01*
X163050523Y-170960295D01*
X163145761Y-171055533D01*
X163193380Y-171198390D01*
X163193380Y-171436485D01*
X163193380Y-169912676D02*
X163193380Y-170484104D01*
X163193380Y-170198390D02*
X162193380Y-170198390D01*
X162336238Y-170293628D01*
X162431476Y-170388866D01*
X162479095Y-170484104D01*
X163193380Y-169436485D02*
X163193380Y-169246009D01*
X163145761Y-169150771D01*
X163098142Y-169103152D01*
X162955285Y-169007914D01*
X162764809Y-168960295D01*
X162383857Y-168960295D01*
X162288619Y-169007914D01*
X162241000Y-169055533D01*
X162193380Y-169150771D01*
X162193380Y-169341247D01*
X162241000Y-169436485D01*
X162288619Y-169484104D01*
X162383857Y-169531723D01*
X162621952Y-169531723D01*
X162717190Y-169484104D01*
X162764809Y-169436485D01*
X162812428Y-169341247D01*
X162812428Y-169150771D01*
X162764809Y-169055533D01*
X162717190Y-169007914D01*
X162621952Y-168960295D01*
X163513380Y-174294104D02*
X162513380Y-174294104D01*
X163513380Y-173722676D02*
X162941952Y-174151247D01*
X162513380Y-173722676D02*
X163084809Y-174294104D01*
%TO.C,D24*%
X182243380Y-175436485D02*
X181243380Y-175436485D01*
X181243380Y-175198390D01*
X181291000Y-175055533D01*
X181386238Y-174960295D01*
X181481476Y-174912676D01*
X181671952Y-174865057D01*
X181814809Y-174865057D01*
X182005285Y-174912676D01*
X182100523Y-174960295D01*
X182195761Y-175055533D01*
X182243380Y-175198390D01*
X182243380Y-175436485D01*
X181338619Y-174484104D02*
X181291000Y-174436485D01*
X181243380Y-174341247D01*
X181243380Y-174103152D01*
X181291000Y-174007914D01*
X181338619Y-173960295D01*
X181433857Y-173912676D01*
X181529095Y-173912676D01*
X181671952Y-173960295D01*
X182243380Y-174531723D01*
X182243380Y-173912676D01*
X181576714Y-173055533D02*
X182243380Y-173055533D01*
X181195761Y-173293628D02*
X181910047Y-173531723D01*
X181910047Y-172912676D01*
X182563380Y-178294104D02*
X181563380Y-178294104D01*
X182563380Y-177722676D02*
X181991952Y-178151247D01*
X181563380Y-177722676D02*
X182134809Y-178294104D01*
%TO.C,D32*%
X201293380Y-179436485D02*
X200293380Y-179436485D01*
X200293380Y-179198390D01*
X200341000Y-179055533D01*
X200436238Y-178960295D01*
X200531476Y-178912676D01*
X200721952Y-178865057D01*
X200864809Y-178865057D01*
X201055285Y-178912676D01*
X201150523Y-178960295D01*
X201245761Y-179055533D01*
X201293380Y-179198390D01*
X201293380Y-179436485D01*
X200293380Y-178531723D02*
X200293380Y-177912676D01*
X200674333Y-178246009D01*
X200674333Y-178103152D01*
X200721952Y-178007914D01*
X200769571Y-177960295D01*
X200864809Y-177912676D01*
X201102904Y-177912676D01*
X201198142Y-177960295D01*
X201245761Y-178007914D01*
X201293380Y-178103152D01*
X201293380Y-178388866D01*
X201245761Y-178484104D01*
X201198142Y-178531723D01*
X200388619Y-177531723D02*
X200341000Y-177484104D01*
X200293380Y-177388866D01*
X200293380Y-177150771D01*
X200341000Y-177055533D01*
X200388619Y-177007914D01*
X200483857Y-176960295D01*
X200579095Y-176960295D01*
X200721952Y-177007914D01*
X201293380Y-177579342D01*
X201293380Y-176960295D01*
X201613380Y-182294104D02*
X200613380Y-182294104D01*
X201613380Y-181722676D02*
X201041952Y-182151247D01*
X200613380Y-181722676D02*
X201184809Y-182294104D01*
%TO.C,D7*%
X106043380Y-202010295D02*
X105043380Y-202010295D01*
X105043380Y-201772200D01*
X105091000Y-201629342D01*
X105186238Y-201534104D01*
X105281476Y-201486485D01*
X105471952Y-201438866D01*
X105614809Y-201438866D01*
X105805285Y-201486485D01*
X105900523Y-201534104D01*
X105995761Y-201629342D01*
X106043380Y-201772200D01*
X106043380Y-202010295D01*
X105043380Y-201105533D02*
X105043380Y-200438866D01*
X106043380Y-200867438D01*
X106363380Y-205344104D02*
X105363380Y-205344104D01*
X106363380Y-204772676D02*
X105791952Y-205201247D01*
X105363380Y-204772676D02*
X105934809Y-205344104D01*
%TO.C,D10*%
X125093380Y-202486485D02*
X124093380Y-202486485D01*
X124093380Y-202248390D01*
X124141000Y-202105533D01*
X124236238Y-202010295D01*
X124331476Y-201962676D01*
X124521952Y-201915057D01*
X124664809Y-201915057D01*
X124855285Y-201962676D01*
X124950523Y-202010295D01*
X125045761Y-202105533D01*
X125093380Y-202248390D01*
X125093380Y-202486485D01*
X125093380Y-200962676D02*
X125093380Y-201534104D01*
X125093380Y-201248390D02*
X124093380Y-201248390D01*
X124236238Y-201343628D01*
X124331476Y-201438866D01*
X124379095Y-201534104D01*
X124093380Y-200343628D02*
X124093380Y-200248390D01*
X124141000Y-200153152D01*
X124188619Y-200105533D01*
X124283857Y-200057914D01*
X124474333Y-200010295D01*
X124712428Y-200010295D01*
X124902904Y-200057914D01*
X124998142Y-200105533D01*
X125045761Y-200153152D01*
X125093380Y-200248390D01*
X125093380Y-200343628D01*
X125045761Y-200438866D01*
X124998142Y-200486485D01*
X124902904Y-200534104D01*
X124712428Y-200581723D01*
X124474333Y-200581723D01*
X124283857Y-200534104D01*
X124188619Y-200486485D01*
X124141000Y-200438866D01*
X124093380Y-200343628D01*
X125413380Y-205344104D02*
X124413380Y-205344104D01*
X125413380Y-204772676D02*
X124841952Y-205201247D01*
X124413380Y-204772676D02*
X124984809Y-205344104D01*
%TO.C,D15*%
X144143380Y-192486485D02*
X143143380Y-192486485D01*
X143143380Y-192248390D01*
X143191000Y-192105533D01*
X143286238Y-192010295D01*
X143381476Y-191962676D01*
X143571952Y-191915057D01*
X143714809Y-191915057D01*
X143905285Y-191962676D01*
X144000523Y-192010295D01*
X144095761Y-192105533D01*
X144143380Y-192248390D01*
X144143380Y-192486485D01*
X144143380Y-190962676D02*
X144143380Y-191534104D01*
X144143380Y-191248390D02*
X143143380Y-191248390D01*
X143286238Y-191343628D01*
X143381476Y-191438866D01*
X143429095Y-191534104D01*
X143143380Y-190057914D02*
X143143380Y-190534104D01*
X143619571Y-190581723D01*
X143571952Y-190534104D01*
X143524333Y-190438866D01*
X143524333Y-190200771D01*
X143571952Y-190105533D01*
X143619571Y-190057914D01*
X143714809Y-190010295D01*
X143952904Y-190010295D01*
X144048142Y-190057914D01*
X144095761Y-190105533D01*
X144143380Y-190200771D01*
X144143380Y-190438866D01*
X144095761Y-190534104D01*
X144048142Y-190581723D01*
X144463380Y-195344104D02*
X143463380Y-195344104D01*
X144463380Y-194772676D02*
X143891952Y-195201247D01*
X143463380Y-194772676D02*
X144034809Y-195344104D01*
%TO.C,D20*%
X163193380Y-190486485D02*
X162193380Y-190486485D01*
X162193380Y-190248390D01*
X162241000Y-190105533D01*
X162336238Y-190010295D01*
X162431476Y-189962676D01*
X162621952Y-189915057D01*
X162764809Y-189915057D01*
X162955285Y-189962676D01*
X163050523Y-190010295D01*
X163145761Y-190105533D01*
X163193380Y-190248390D01*
X163193380Y-190486485D01*
X162288619Y-189534104D02*
X162241000Y-189486485D01*
X162193380Y-189391247D01*
X162193380Y-189153152D01*
X162241000Y-189057914D01*
X162288619Y-189010295D01*
X162383857Y-188962676D01*
X162479095Y-188962676D01*
X162621952Y-189010295D01*
X163193380Y-189581723D01*
X163193380Y-188962676D01*
X162193380Y-188343628D02*
X162193380Y-188248390D01*
X162241000Y-188153152D01*
X162288619Y-188105533D01*
X162383857Y-188057914D01*
X162574333Y-188010295D01*
X162812428Y-188010295D01*
X163002904Y-188057914D01*
X163098142Y-188105533D01*
X163145761Y-188153152D01*
X163193380Y-188248390D01*
X163193380Y-188343628D01*
X163145761Y-188438866D01*
X163098142Y-188486485D01*
X163002904Y-188534104D01*
X162812428Y-188581723D01*
X162574333Y-188581723D01*
X162383857Y-188534104D01*
X162288619Y-188486485D01*
X162241000Y-188438866D01*
X162193380Y-188343628D01*
X163513380Y-193344104D02*
X162513380Y-193344104D01*
X163513380Y-192772676D02*
X162941952Y-193201247D01*
X162513380Y-192772676D02*
X163084809Y-193344104D01*
%TO.C,D25*%
X182243380Y-194486485D02*
X181243380Y-194486485D01*
X181243380Y-194248390D01*
X181291000Y-194105533D01*
X181386238Y-194010295D01*
X181481476Y-193962676D01*
X181671952Y-193915057D01*
X181814809Y-193915057D01*
X182005285Y-193962676D01*
X182100523Y-194010295D01*
X182195761Y-194105533D01*
X182243380Y-194248390D01*
X182243380Y-194486485D01*
X181338619Y-193534104D02*
X181291000Y-193486485D01*
X181243380Y-193391247D01*
X181243380Y-193153152D01*
X181291000Y-193057914D01*
X181338619Y-193010295D01*
X181433857Y-192962676D01*
X181529095Y-192962676D01*
X181671952Y-193010295D01*
X182243380Y-193581723D01*
X182243380Y-192962676D01*
X181243380Y-192057914D02*
X181243380Y-192534104D01*
X181719571Y-192581723D01*
X181671952Y-192534104D01*
X181624333Y-192438866D01*
X181624333Y-192200771D01*
X181671952Y-192105533D01*
X181719571Y-192057914D01*
X181814809Y-192010295D01*
X182052904Y-192010295D01*
X182148142Y-192057914D01*
X182195761Y-192105533D01*
X182243380Y-192200771D01*
X182243380Y-192438866D01*
X182195761Y-192534104D01*
X182148142Y-192581723D01*
X182563380Y-197344104D02*
X181563380Y-197344104D01*
X182563380Y-196772676D02*
X181991952Y-197201247D01*
X181563380Y-196772676D02*
X182134809Y-197344104D01*
%TO.C,D33*%
X201293380Y-198486485D02*
X200293380Y-198486485D01*
X200293380Y-198248390D01*
X200341000Y-198105533D01*
X200436238Y-198010295D01*
X200531476Y-197962676D01*
X200721952Y-197915057D01*
X200864809Y-197915057D01*
X201055285Y-197962676D01*
X201150523Y-198010295D01*
X201245761Y-198105533D01*
X201293380Y-198248390D01*
X201293380Y-198486485D01*
X200293380Y-197581723D02*
X200293380Y-196962676D01*
X200674333Y-197296009D01*
X200674333Y-197153152D01*
X200721952Y-197057914D01*
X200769571Y-197010295D01*
X200864809Y-196962676D01*
X201102904Y-196962676D01*
X201198142Y-197010295D01*
X201245761Y-197057914D01*
X201293380Y-197153152D01*
X201293380Y-197438866D01*
X201245761Y-197534104D01*
X201198142Y-197581723D01*
X200293380Y-196629342D02*
X200293380Y-196010295D01*
X200674333Y-196343628D01*
X200674333Y-196200771D01*
X200721952Y-196105533D01*
X200769571Y-196057914D01*
X200864809Y-196010295D01*
X201102904Y-196010295D01*
X201198142Y-196057914D01*
X201245761Y-196105533D01*
X201293380Y-196200771D01*
X201293380Y-196486485D01*
X201245761Y-196581723D01*
X201198142Y-196629342D01*
X201613380Y-201344104D02*
X200613380Y-201344104D01*
X201613380Y-200772676D02*
X201041952Y-201201247D01*
X200613380Y-200772676D02*
X201184809Y-201344104D01*
%TO.C,D4*%
X100663980Y-221083095D02*
X99663980Y-221083095D01*
X99663980Y-220845000D01*
X99711600Y-220702142D01*
X99806838Y-220606904D01*
X99902076Y-220559285D01*
X100092552Y-220511666D01*
X100235409Y-220511666D01*
X100425885Y-220559285D01*
X100521123Y-220606904D01*
X100616361Y-220702142D01*
X100663980Y-220845000D01*
X100663980Y-221083095D01*
X99997314Y-219654523D02*
X100663980Y-219654523D01*
X99616361Y-219892619D02*
X100330647Y-220130714D01*
X100330647Y-219511666D01*
X100983980Y-224416904D02*
X99983980Y-224416904D01*
X100983980Y-223845476D02*
X100412552Y-224274047D01*
X99983980Y-223845476D02*
X100555409Y-224416904D01*
%TO.C,D11*%
X125093380Y-221536485D02*
X124093380Y-221536485D01*
X124093380Y-221298390D01*
X124141000Y-221155533D01*
X124236238Y-221060295D01*
X124331476Y-221012676D01*
X124521952Y-220965057D01*
X124664809Y-220965057D01*
X124855285Y-221012676D01*
X124950523Y-221060295D01*
X125045761Y-221155533D01*
X125093380Y-221298390D01*
X125093380Y-221536485D01*
X125093380Y-220012676D02*
X125093380Y-220584104D01*
X125093380Y-220298390D02*
X124093380Y-220298390D01*
X124236238Y-220393628D01*
X124331476Y-220488866D01*
X124379095Y-220584104D01*
X125093380Y-219060295D02*
X125093380Y-219631723D01*
X125093380Y-219346009D02*
X124093380Y-219346009D01*
X124236238Y-219441247D01*
X124331476Y-219536485D01*
X124379095Y-219631723D01*
X125413380Y-224394104D02*
X124413380Y-224394104D01*
X125413380Y-223822676D02*
X124841952Y-224251247D01*
X124413380Y-223822676D02*
X124984809Y-224394104D01*
%TO.C,D16*%
X144143380Y-211536485D02*
X143143380Y-211536485D01*
X143143380Y-211298390D01*
X143191000Y-211155533D01*
X143286238Y-211060295D01*
X143381476Y-211012676D01*
X143571952Y-210965057D01*
X143714809Y-210965057D01*
X143905285Y-211012676D01*
X144000523Y-211060295D01*
X144095761Y-211155533D01*
X144143380Y-211298390D01*
X144143380Y-211536485D01*
X144143380Y-210012676D02*
X144143380Y-210584104D01*
X144143380Y-210298390D02*
X143143380Y-210298390D01*
X143286238Y-210393628D01*
X143381476Y-210488866D01*
X143429095Y-210584104D01*
X143143380Y-209155533D02*
X143143380Y-209346009D01*
X143191000Y-209441247D01*
X143238619Y-209488866D01*
X143381476Y-209584104D01*
X143571952Y-209631723D01*
X143952904Y-209631723D01*
X144048142Y-209584104D01*
X144095761Y-209536485D01*
X144143380Y-209441247D01*
X144143380Y-209250771D01*
X144095761Y-209155533D01*
X144048142Y-209107914D01*
X143952904Y-209060295D01*
X143714809Y-209060295D01*
X143619571Y-209107914D01*
X143571952Y-209155533D01*
X143524333Y-209250771D01*
X143524333Y-209441247D01*
X143571952Y-209536485D01*
X143619571Y-209584104D01*
X143714809Y-209631723D01*
X144463380Y-214394104D02*
X143463380Y-214394104D01*
X144463380Y-213822676D02*
X143891952Y-214251247D01*
X143463380Y-213822676D02*
X144034809Y-214394104D01*
%TO.C,D21*%
X163193380Y-209536485D02*
X162193380Y-209536485D01*
X162193380Y-209298390D01*
X162241000Y-209155533D01*
X162336238Y-209060295D01*
X162431476Y-209012676D01*
X162621952Y-208965057D01*
X162764809Y-208965057D01*
X162955285Y-209012676D01*
X163050523Y-209060295D01*
X163145761Y-209155533D01*
X163193380Y-209298390D01*
X163193380Y-209536485D01*
X162288619Y-208584104D02*
X162241000Y-208536485D01*
X162193380Y-208441247D01*
X162193380Y-208203152D01*
X162241000Y-208107914D01*
X162288619Y-208060295D01*
X162383857Y-208012676D01*
X162479095Y-208012676D01*
X162621952Y-208060295D01*
X163193380Y-208631723D01*
X163193380Y-208012676D01*
X163193380Y-207060295D02*
X163193380Y-207631723D01*
X163193380Y-207346009D02*
X162193380Y-207346009D01*
X162336238Y-207441247D01*
X162431476Y-207536485D01*
X162479095Y-207631723D01*
X163513380Y-212394104D02*
X162513380Y-212394104D01*
X163513380Y-211822676D02*
X162941952Y-212251247D01*
X162513380Y-211822676D02*
X163084809Y-212394104D01*
%TO.C,D26*%
X182243380Y-213536485D02*
X181243380Y-213536485D01*
X181243380Y-213298390D01*
X181291000Y-213155533D01*
X181386238Y-213060295D01*
X181481476Y-213012676D01*
X181671952Y-212965057D01*
X181814809Y-212965057D01*
X182005285Y-213012676D01*
X182100523Y-213060295D01*
X182195761Y-213155533D01*
X182243380Y-213298390D01*
X182243380Y-213536485D01*
X181338619Y-212584104D02*
X181291000Y-212536485D01*
X181243380Y-212441247D01*
X181243380Y-212203152D01*
X181291000Y-212107914D01*
X181338619Y-212060295D01*
X181433857Y-212012676D01*
X181529095Y-212012676D01*
X181671952Y-212060295D01*
X182243380Y-212631723D01*
X182243380Y-212012676D01*
X181243380Y-211155533D02*
X181243380Y-211346009D01*
X181291000Y-211441247D01*
X181338619Y-211488866D01*
X181481476Y-211584104D01*
X181671952Y-211631723D01*
X182052904Y-211631723D01*
X182148142Y-211584104D01*
X182195761Y-211536485D01*
X182243380Y-211441247D01*
X182243380Y-211250771D01*
X182195761Y-211155533D01*
X182148142Y-211107914D01*
X182052904Y-211060295D01*
X181814809Y-211060295D01*
X181719571Y-211107914D01*
X181671952Y-211155533D01*
X181624333Y-211250771D01*
X181624333Y-211441247D01*
X181671952Y-211536485D01*
X181719571Y-211584104D01*
X181814809Y-211631723D01*
X182563380Y-216394104D02*
X181563380Y-216394104D01*
X182563380Y-215822676D02*
X181991952Y-216251247D01*
X181563380Y-215822676D02*
X182134809Y-216394104D01*
%TO.C,D34*%
X201293380Y-217536485D02*
X200293380Y-217536485D01*
X200293380Y-217298390D01*
X200341000Y-217155533D01*
X200436238Y-217060295D01*
X200531476Y-217012676D01*
X200721952Y-216965057D01*
X200864809Y-216965057D01*
X201055285Y-217012676D01*
X201150523Y-217060295D01*
X201245761Y-217155533D01*
X201293380Y-217298390D01*
X201293380Y-217536485D01*
X200293380Y-216631723D02*
X200293380Y-216012676D01*
X200674333Y-216346009D01*
X200674333Y-216203152D01*
X200721952Y-216107914D01*
X200769571Y-216060295D01*
X200864809Y-216012676D01*
X201102904Y-216012676D01*
X201198142Y-216060295D01*
X201245761Y-216107914D01*
X201293380Y-216203152D01*
X201293380Y-216488866D01*
X201245761Y-216584104D01*
X201198142Y-216631723D01*
X200626714Y-215155533D02*
X201293380Y-215155533D01*
X200245761Y-215393628D02*
X200960047Y-215631723D01*
X200960047Y-215012676D01*
X201613380Y-220394104D02*
X200613380Y-220394104D01*
X201613380Y-219822676D02*
X201041952Y-220251247D01*
X200613380Y-219822676D02*
X201184809Y-220394104D01*
%TO.C,D5*%
X98027380Y-240133095D02*
X97027380Y-240133095D01*
X97027380Y-239895000D01*
X97075000Y-239752142D01*
X97170238Y-239656904D01*
X97265476Y-239609285D01*
X97455952Y-239561666D01*
X97598809Y-239561666D01*
X97789285Y-239609285D01*
X97884523Y-239656904D01*
X97979761Y-239752142D01*
X98027380Y-239895000D01*
X98027380Y-240133095D01*
X97027380Y-238656904D02*
X97027380Y-239133095D01*
X97503571Y-239180714D01*
X97455952Y-239133095D01*
X97408333Y-239037857D01*
X97408333Y-238799761D01*
X97455952Y-238704523D01*
X97503571Y-238656904D01*
X97598809Y-238609285D01*
X97836904Y-238609285D01*
X97932142Y-238656904D01*
X97979761Y-238704523D01*
X98027380Y-238799761D01*
X98027380Y-239037857D01*
X97979761Y-239133095D01*
X97932142Y-239180714D01*
X98347380Y-243466904D02*
X97347380Y-243466904D01*
X98347380Y-242895476D02*
X97775952Y-243324047D01*
X97347380Y-242895476D02*
X97918809Y-243466904D01*
%TO.C,D12*%
X125093380Y-240586485D02*
X124093380Y-240586485D01*
X124093380Y-240348390D01*
X124141000Y-240205533D01*
X124236238Y-240110295D01*
X124331476Y-240062676D01*
X124521952Y-240015057D01*
X124664809Y-240015057D01*
X124855285Y-240062676D01*
X124950523Y-240110295D01*
X125045761Y-240205533D01*
X125093380Y-240348390D01*
X125093380Y-240586485D01*
X125093380Y-239062676D02*
X125093380Y-239634104D01*
X125093380Y-239348390D02*
X124093380Y-239348390D01*
X124236238Y-239443628D01*
X124331476Y-239538866D01*
X124379095Y-239634104D01*
X124188619Y-238681723D02*
X124141000Y-238634104D01*
X124093380Y-238538866D01*
X124093380Y-238300771D01*
X124141000Y-238205533D01*
X124188619Y-238157914D01*
X124283857Y-238110295D01*
X124379095Y-238110295D01*
X124521952Y-238157914D01*
X125093380Y-238729342D01*
X125093380Y-238110295D01*
X125413380Y-243444104D02*
X124413380Y-243444104D01*
X125413380Y-242872676D02*
X124841952Y-243301247D01*
X124413380Y-242872676D02*
X124984809Y-243444104D01*
%TO.C,D17*%
X144143380Y-230586485D02*
X143143380Y-230586485D01*
X143143380Y-230348390D01*
X143191000Y-230205533D01*
X143286238Y-230110295D01*
X143381476Y-230062676D01*
X143571952Y-230015057D01*
X143714809Y-230015057D01*
X143905285Y-230062676D01*
X144000523Y-230110295D01*
X144095761Y-230205533D01*
X144143380Y-230348390D01*
X144143380Y-230586485D01*
X144143380Y-229062676D02*
X144143380Y-229634104D01*
X144143380Y-229348390D02*
X143143380Y-229348390D01*
X143286238Y-229443628D01*
X143381476Y-229538866D01*
X143429095Y-229634104D01*
X143143380Y-228729342D02*
X143143380Y-228062676D01*
X144143380Y-228491247D01*
X144463380Y-233444104D02*
X143463380Y-233444104D01*
X144463380Y-232872676D02*
X143891952Y-233301247D01*
X143463380Y-232872676D02*
X144034809Y-233444104D01*
%TO.C,D22*%
X163193380Y-228586485D02*
X162193380Y-228586485D01*
X162193380Y-228348390D01*
X162241000Y-228205533D01*
X162336238Y-228110295D01*
X162431476Y-228062676D01*
X162621952Y-228015057D01*
X162764809Y-228015057D01*
X162955285Y-228062676D01*
X163050523Y-228110295D01*
X163145761Y-228205533D01*
X163193380Y-228348390D01*
X163193380Y-228586485D01*
X162288619Y-227634104D02*
X162241000Y-227586485D01*
X162193380Y-227491247D01*
X162193380Y-227253152D01*
X162241000Y-227157914D01*
X162288619Y-227110295D01*
X162383857Y-227062676D01*
X162479095Y-227062676D01*
X162621952Y-227110295D01*
X163193380Y-227681723D01*
X163193380Y-227062676D01*
X162288619Y-226681723D02*
X162241000Y-226634104D01*
X162193380Y-226538866D01*
X162193380Y-226300771D01*
X162241000Y-226205533D01*
X162288619Y-226157914D01*
X162383857Y-226110295D01*
X162479095Y-226110295D01*
X162621952Y-226157914D01*
X163193380Y-226729342D01*
X163193380Y-226110295D01*
X163513380Y-231444104D02*
X162513380Y-231444104D01*
X163513380Y-230872676D02*
X162941952Y-231301247D01*
X162513380Y-230872676D02*
X163084809Y-231444104D01*
%TO.C,D27*%
X182243380Y-232586485D02*
X181243380Y-232586485D01*
X181243380Y-232348390D01*
X181291000Y-232205533D01*
X181386238Y-232110295D01*
X181481476Y-232062676D01*
X181671952Y-232015057D01*
X181814809Y-232015057D01*
X182005285Y-232062676D01*
X182100523Y-232110295D01*
X182195761Y-232205533D01*
X182243380Y-232348390D01*
X182243380Y-232586485D01*
X181338619Y-231634104D02*
X181291000Y-231586485D01*
X181243380Y-231491247D01*
X181243380Y-231253152D01*
X181291000Y-231157914D01*
X181338619Y-231110295D01*
X181433857Y-231062676D01*
X181529095Y-231062676D01*
X181671952Y-231110295D01*
X182243380Y-231681723D01*
X182243380Y-231062676D01*
X181243380Y-230729342D02*
X181243380Y-230062676D01*
X182243380Y-230491247D01*
X182563380Y-235444104D02*
X181563380Y-235444104D01*
X182563380Y-234872676D02*
X181991952Y-235301247D01*
X181563380Y-234872676D02*
X182134809Y-235444104D01*
%TO.C,D35*%
X201293380Y-236586485D02*
X200293380Y-236586485D01*
X200293380Y-236348390D01*
X200341000Y-236205533D01*
X200436238Y-236110295D01*
X200531476Y-236062676D01*
X200721952Y-236015057D01*
X200864809Y-236015057D01*
X201055285Y-236062676D01*
X201150523Y-236110295D01*
X201245761Y-236205533D01*
X201293380Y-236348390D01*
X201293380Y-236586485D01*
X200293380Y-235681723D02*
X200293380Y-235062676D01*
X200674333Y-235396009D01*
X200674333Y-235253152D01*
X200721952Y-235157914D01*
X200769571Y-235110295D01*
X200864809Y-235062676D01*
X201102904Y-235062676D01*
X201198142Y-235110295D01*
X201245761Y-235157914D01*
X201293380Y-235253152D01*
X201293380Y-235538866D01*
X201245761Y-235634104D01*
X201198142Y-235681723D01*
X200293380Y-234157914D02*
X200293380Y-234634104D01*
X200769571Y-234681723D01*
X200721952Y-234634104D01*
X200674333Y-234538866D01*
X200674333Y-234300771D01*
X200721952Y-234205533D01*
X200769571Y-234157914D01*
X200864809Y-234110295D01*
X201102904Y-234110295D01*
X201198142Y-234157914D01*
X201245761Y-234205533D01*
X201293380Y-234300771D01*
X201293380Y-234538866D01*
X201245761Y-234634104D01*
X201198142Y-234681723D01*
X201613380Y-239444104D02*
X200613380Y-239444104D01*
X201613380Y-238872676D02*
X201041952Y-239301247D01*
X200613380Y-238872676D02*
X201184809Y-239444104D01*
%TO.C,D8*%
X106043380Y-259160295D02*
X105043380Y-259160295D01*
X105043380Y-258922200D01*
X105091000Y-258779342D01*
X105186238Y-258684104D01*
X105281476Y-258636485D01*
X105471952Y-258588866D01*
X105614809Y-258588866D01*
X105805285Y-258636485D01*
X105900523Y-258684104D01*
X105995761Y-258779342D01*
X106043380Y-258922200D01*
X106043380Y-259160295D01*
X105471952Y-258017438D02*
X105424333Y-258112676D01*
X105376714Y-258160295D01*
X105281476Y-258207914D01*
X105233857Y-258207914D01*
X105138619Y-258160295D01*
X105091000Y-258112676D01*
X105043380Y-258017438D01*
X105043380Y-257826961D01*
X105091000Y-257731723D01*
X105138619Y-257684104D01*
X105233857Y-257636485D01*
X105281476Y-257636485D01*
X105376714Y-257684104D01*
X105424333Y-257731723D01*
X105471952Y-257826961D01*
X105471952Y-258017438D01*
X105519571Y-258112676D01*
X105567190Y-258160295D01*
X105662428Y-258207914D01*
X105852904Y-258207914D01*
X105948142Y-258160295D01*
X105995761Y-258112676D01*
X106043380Y-258017438D01*
X106043380Y-257826961D01*
X105995761Y-257731723D01*
X105948142Y-257684104D01*
X105852904Y-257636485D01*
X105662428Y-257636485D01*
X105567190Y-257684104D01*
X105519571Y-257731723D01*
X105471952Y-257826961D01*
X106363380Y-262494104D02*
X105363380Y-262494104D01*
X106363380Y-261922676D02*
X105791952Y-262351247D01*
X105363380Y-261922676D02*
X105934809Y-262494104D01*
%TO.C,D13*%
X125093380Y-259636485D02*
X124093380Y-259636485D01*
X124093380Y-259398390D01*
X124141000Y-259255533D01*
X124236238Y-259160295D01*
X124331476Y-259112676D01*
X124521952Y-259065057D01*
X124664809Y-259065057D01*
X124855285Y-259112676D01*
X124950523Y-259160295D01*
X125045761Y-259255533D01*
X125093380Y-259398390D01*
X125093380Y-259636485D01*
X125093380Y-258112676D02*
X125093380Y-258684104D01*
X125093380Y-258398390D02*
X124093380Y-258398390D01*
X124236238Y-258493628D01*
X124331476Y-258588866D01*
X124379095Y-258684104D01*
X124093380Y-257779342D02*
X124093380Y-257160295D01*
X124474333Y-257493628D01*
X124474333Y-257350771D01*
X124521952Y-257255533D01*
X124569571Y-257207914D01*
X124664809Y-257160295D01*
X124902904Y-257160295D01*
X124998142Y-257207914D01*
X125045761Y-257255533D01*
X125093380Y-257350771D01*
X125093380Y-257636485D01*
X125045761Y-257731723D01*
X124998142Y-257779342D01*
X125413380Y-262494104D02*
X124413380Y-262494104D01*
X125413380Y-261922676D02*
X124841952Y-262351247D01*
X124413380Y-261922676D02*
X124984809Y-262494104D01*
%TO.C,D18*%
X144143380Y-249636485D02*
X143143380Y-249636485D01*
X143143380Y-249398390D01*
X143191000Y-249255533D01*
X143286238Y-249160295D01*
X143381476Y-249112676D01*
X143571952Y-249065057D01*
X143714809Y-249065057D01*
X143905285Y-249112676D01*
X144000523Y-249160295D01*
X144095761Y-249255533D01*
X144143380Y-249398390D01*
X144143380Y-249636485D01*
X144143380Y-248112676D02*
X144143380Y-248684104D01*
X144143380Y-248398390D02*
X143143380Y-248398390D01*
X143286238Y-248493628D01*
X143381476Y-248588866D01*
X143429095Y-248684104D01*
X143571952Y-247541247D02*
X143524333Y-247636485D01*
X143476714Y-247684104D01*
X143381476Y-247731723D01*
X143333857Y-247731723D01*
X143238619Y-247684104D01*
X143191000Y-247636485D01*
X143143380Y-247541247D01*
X143143380Y-247350771D01*
X143191000Y-247255533D01*
X143238619Y-247207914D01*
X143333857Y-247160295D01*
X143381476Y-247160295D01*
X143476714Y-247207914D01*
X143524333Y-247255533D01*
X143571952Y-247350771D01*
X143571952Y-247541247D01*
X143619571Y-247636485D01*
X143667190Y-247684104D01*
X143762428Y-247731723D01*
X143952904Y-247731723D01*
X144048142Y-247684104D01*
X144095761Y-247636485D01*
X144143380Y-247541247D01*
X144143380Y-247350771D01*
X144095761Y-247255533D01*
X144048142Y-247207914D01*
X143952904Y-247160295D01*
X143762428Y-247160295D01*
X143667190Y-247207914D01*
X143619571Y-247255533D01*
X143571952Y-247350771D01*
X144463380Y-252494104D02*
X143463380Y-252494104D01*
X144463380Y-251922676D02*
X143891952Y-252351247D01*
X143463380Y-251922676D02*
X144034809Y-252494104D01*
%TO.C,D23*%
X163193380Y-247636485D02*
X162193380Y-247636485D01*
X162193380Y-247398390D01*
X162241000Y-247255533D01*
X162336238Y-247160295D01*
X162431476Y-247112676D01*
X162621952Y-247065057D01*
X162764809Y-247065057D01*
X162955285Y-247112676D01*
X163050523Y-247160295D01*
X163145761Y-247255533D01*
X163193380Y-247398390D01*
X163193380Y-247636485D01*
X162288619Y-246684104D02*
X162241000Y-246636485D01*
X162193380Y-246541247D01*
X162193380Y-246303152D01*
X162241000Y-246207914D01*
X162288619Y-246160295D01*
X162383857Y-246112676D01*
X162479095Y-246112676D01*
X162621952Y-246160295D01*
X163193380Y-246731723D01*
X163193380Y-246112676D01*
X162193380Y-245779342D02*
X162193380Y-245160295D01*
X162574333Y-245493628D01*
X162574333Y-245350771D01*
X162621952Y-245255533D01*
X162669571Y-245207914D01*
X162764809Y-245160295D01*
X163002904Y-245160295D01*
X163098142Y-245207914D01*
X163145761Y-245255533D01*
X163193380Y-245350771D01*
X163193380Y-245636485D01*
X163145761Y-245731723D01*
X163098142Y-245779342D01*
X163513380Y-250494104D02*
X162513380Y-250494104D01*
X163513380Y-249922676D02*
X162941952Y-250351247D01*
X162513380Y-249922676D02*
X163084809Y-250494104D01*
%TO.C,D28*%
X182243380Y-251636485D02*
X181243380Y-251636485D01*
X181243380Y-251398390D01*
X181291000Y-251255533D01*
X181386238Y-251160295D01*
X181481476Y-251112676D01*
X181671952Y-251065057D01*
X181814809Y-251065057D01*
X182005285Y-251112676D01*
X182100523Y-251160295D01*
X182195761Y-251255533D01*
X182243380Y-251398390D01*
X182243380Y-251636485D01*
X181338619Y-250684104D02*
X181291000Y-250636485D01*
X181243380Y-250541247D01*
X181243380Y-250303152D01*
X181291000Y-250207914D01*
X181338619Y-250160295D01*
X181433857Y-250112676D01*
X181529095Y-250112676D01*
X181671952Y-250160295D01*
X182243380Y-250731723D01*
X182243380Y-250112676D01*
X181671952Y-249541247D02*
X181624333Y-249636485D01*
X181576714Y-249684104D01*
X181481476Y-249731723D01*
X181433857Y-249731723D01*
X181338619Y-249684104D01*
X181291000Y-249636485D01*
X181243380Y-249541247D01*
X181243380Y-249350771D01*
X181291000Y-249255533D01*
X181338619Y-249207914D01*
X181433857Y-249160295D01*
X181481476Y-249160295D01*
X181576714Y-249207914D01*
X181624333Y-249255533D01*
X181671952Y-249350771D01*
X181671952Y-249541247D01*
X181719571Y-249636485D01*
X181767190Y-249684104D01*
X181862428Y-249731723D01*
X182052904Y-249731723D01*
X182148142Y-249684104D01*
X182195761Y-249636485D01*
X182243380Y-249541247D01*
X182243380Y-249350771D01*
X182195761Y-249255533D01*
X182148142Y-249207914D01*
X182052904Y-249160295D01*
X181862428Y-249160295D01*
X181767190Y-249207914D01*
X181719571Y-249255533D01*
X181671952Y-249350771D01*
X182563380Y-254494104D02*
X181563380Y-254494104D01*
X182563380Y-253922676D02*
X181991952Y-254351247D01*
X181563380Y-253922676D02*
X182134809Y-254494104D01*
%TO.C,TP8*%
X102602895Y-165944580D02*
X103174323Y-165944580D01*
X102888609Y-166944580D02*
X102888609Y-165944580D01*
X103507657Y-166944580D02*
X103507657Y-165944580D01*
X103888609Y-165944580D01*
X103983847Y-165992200D01*
X104031466Y-166039819D01*
X104079085Y-166135057D01*
X104079085Y-166277914D01*
X104031466Y-166373152D01*
X103983847Y-166420771D01*
X103888609Y-166468390D01*
X103507657Y-166468390D01*
X104650514Y-166373152D02*
X104555276Y-166325533D01*
X104507657Y-166277914D01*
X104460038Y-166182676D01*
X104460038Y-166135057D01*
X104507657Y-166039819D01*
X104555276Y-165992200D01*
X104650514Y-165944580D01*
X104840990Y-165944580D01*
X104936228Y-165992200D01*
X104983847Y-166039819D01*
X105031466Y-166135057D01*
X105031466Y-166182676D01*
X104983847Y-166277914D01*
X104936228Y-166325533D01*
X104840990Y-166373152D01*
X104650514Y-166373152D01*
X104555276Y-166420771D01*
X104507657Y-166468390D01*
X104460038Y-166563628D01*
X104460038Y-166754104D01*
X104507657Y-166849342D01*
X104555276Y-166896961D01*
X104650514Y-166944580D01*
X104840990Y-166944580D01*
X104936228Y-166896961D01*
X104983847Y-166849342D01*
X105031466Y-166754104D01*
X105031466Y-166563628D01*
X104983847Y-166468390D01*
X104936228Y-166420771D01*
X104840990Y-166373152D01*
%TO.C,TP22*%
X105195904Y-139406380D02*
X105767333Y-139406380D01*
X105481619Y-140406380D02*
X105481619Y-139406380D01*
X106100666Y-140406380D02*
X106100666Y-139406380D01*
X106481619Y-139406380D01*
X106576857Y-139454000D01*
X106624476Y-139501619D01*
X106672095Y-139596857D01*
X106672095Y-139739714D01*
X106624476Y-139834952D01*
X106576857Y-139882571D01*
X106481619Y-139930190D01*
X106100666Y-139930190D01*
X107053047Y-139501619D02*
X107100666Y-139454000D01*
X107195904Y-139406380D01*
X107434000Y-139406380D01*
X107529238Y-139454000D01*
X107576857Y-139501619D01*
X107624476Y-139596857D01*
X107624476Y-139692095D01*
X107576857Y-139834952D01*
X107005428Y-140406380D01*
X107624476Y-140406380D01*
X108005428Y-139501619D02*
X108053047Y-139454000D01*
X108148285Y-139406380D01*
X108386380Y-139406380D01*
X108481619Y-139454000D01*
X108529238Y-139501619D01*
X108576857Y-139596857D01*
X108576857Y-139692095D01*
X108529238Y-139834952D01*
X107957809Y-140406380D01*
X108576857Y-140406380D01*
%TO.C,J9*%
X160956666Y-286682380D02*
X160956666Y-287396666D01*
X160909047Y-287539523D01*
X160813809Y-287634761D01*
X160670952Y-287682380D01*
X160575714Y-287682380D01*
X161480476Y-287682380D02*
X161670952Y-287682380D01*
X161766190Y-287634761D01*
X161813809Y-287587142D01*
X161909047Y-287444285D01*
X161956666Y-287253809D01*
X161956666Y-286872857D01*
X161909047Y-286777619D01*
X161861428Y-286730000D01*
X161766190Y-286682380D01*
X161575714Y-286682380D01*
X161480476Y-286730000D01*
X161432857Y-286777619D01*
X161385238Y-286872857D01*
X161385238Y-287110952D01*
X161432857Y-287206190D01*
X161480476Y-287253809D01*
X161575714Y-287301428D01*
X161766190Y-287301428D01*
X161861428Y-287253809D01*
X161909047Y-287206190D01*
X161956666Y-287110952D01*
%TO.C,TP23*%
X101131904Y-139406380D02*
X101703333Y-139406380D01*
X101417619Y-140406380D02*
X101417619Y-139406380D01*
X102036666Y-140406380D02*
X102036666Y-139406380D01*
X102417619Y-139406380D01*
X102512857Y-139454000D01*
X102560476Y-139501619D01*
X102608095Y-139596857D01*
X102608095Y-139739714D01*
X102560476Y-139834952D01*
X102512857Y-139882571D01*
X102417619Y-139930190D01*
X102036666Y-139930190D01*
X102989047Y-139501619D02*
X103036666Y-139454000D01*
X103131904Y-139406380D01*
X103370000Y-139406380D01*
X103465238Y-139454000D01*
X103512857Y-139501619D01*
X103560476Y-139596857D01*
X103560476Y-139692095D01*
X103512857Y-139834952D01*
X102941428Y-140406380D01*
X103560476Y-140406380D01*
X103893809Y-139406380D02*
X104512857Y-139406380D01*
X104179523Y-139787333D01*
X104322380Y-139787333D01*
X104417619Y-139834952D01*
X104465238Y-139882571D01*
X104512857Y-139977809D01*
X104512857Y-140215904D01*
X104465238Y-140311142D01*
X104417619Y-140358761D01*
X104322380Y-140406380D01*
X104036666Y-140406380D01*
X103941428Y-140358761D01*
X103893809Y-140311142D01*
D14*
%TO.C,S1*%
X90606000Y-261251000D02*
X91606000Y-261251000D01*
X104606000Y-247251000D02*
X103606000Y-247251000D01*
X91606000Y-247251000D02*
X90606000Y-247251000D01*
X90606000Y-261251000D02*
X90606000Y-260251000D01*
X103606000Y-261251000D02*
X104606000Y-261251000D01*
X104606000Y-260251000D02*
X104606000Y-261251000D01*
X104606000Y-247251000D02*
X104606000Y-248251000D01*
X90606000Y-248251000D02*
X90606000Y-247251000D01*
%TO.C,S4*%
X123653000Y-171046200D02*
X122653000Y-171046200D01*
X123653000Y-184046200D02*
X123653000Y-185046200D01*
X109653000Y-185046200D02*
X109653000Y-184046200D01*
X122653000Y-185046200D02*
X123653000Y-185046200D01*
X123653000Y-171046200D02*
X123653000Y-172046200D01*
X109653000Y-172046200D02*
X109653000Y-171046200D01*
X110653000Y-171046200D02*
X109653000Y-171046200D01*
X109653000Y-185046200D02*
X110653000Y-185046200D01*
%TO.C,D6*%
X106591000Y-183742200D02*
X108831000Y-183742200D01*
X106591000Y-183502200D02*
X108831000Y-183502200D01*
X108831000Y-180102200D02*
X106591000Y-180102200D01*
X108831000Y-184342200D02*
X108831000Y-180102200D01*
X107711000Y-184992200D02*
X107711000Y-184342200D01*
X106591000Y-183622200D02*
X108831000Y-183622200D01*
X106591000Y-184342200D02*
X108831000Y-184342200D01*
X107711000Y-179452200D02*
X107711000Y-180102200D01*
X106591000Y-180102200D02*
X106591000Y-184342200D01*
%TO.C,D3*%
X87581000Y-260704000D02*
X89821000Y-260704000D01*
X87581000Y-256464000D02*
X87581000Y-260704000D01*
X89821000Y-256464000D02*
X87581000Y-256464000D01*
X88701000Y-261354000D02*
X88701000Y-260704000D01*
X87581000Y-259864000D02*
X89821000Y-259864000D01*
X89821000Y-260704000D02*
X89821000Y-256464000D01*
X87581000Y-260104000D02*
X89821000Y-260104000D01*
X87581000Y-259984000D02*
X89821000Y-259984000D01*
X88701000Y-255814000D02*
X88701000Y-256464000D01*
%TO.C,D29*%
X200225800Y-261496000D02*
X202465800Y-261496000D01*
X200225800Y-261616000D02*
X202465800Y-261616000D01*
X201345800Y-257326000D02*
X201345800Y-257976000D01*
X200225800Y-262216000D02*
X202465800Y-262216000D01*
X201345800Y-262866000D02*
X201345800Y-262216000D01*
X200225800Y-261376000D02*
X202465800Y-261376000D01*
X200225800Y-257976000D02*
X200225800Y-262216000D01*
X202465800Y-257976000D02*
X200225800Y-257976000D01*
X202465800Y-262216000D02*
X202465800Y-257976000D01*
%TO.C,D30*%
X217955000Y-274330000D02*
X220195000Y-274330000D01*
X217955000Y-270930000D02*
X217955000Y-275170000D01*
X219075000Y-275820000D02*
X219075000Y-275170000D01*
X219075000Y-270280000D02*
X219075000Y-270930000D01*
X217955000Y-274450000D02*
X220195000Y-274450000D01*
X220195000Y-275170000D02*
X220195000Y-270930000D01*
X220195000Y-270930000D02*
X217955000Y-270930000D01*
X217955000Y-274570000D02*
X220195000Y-274570000D01*
X217955000Y-275170000D02*
X220195000Y-275170000D01*
%TO.C,D31*%
X228750000Y-293380000D02*
X230990000Y-293380000D01*
X228750000Y-293500000D02*
X230990000Y-293500000D01*
X228750000Y-293620000D02*
X230990000Y-293620000D01*
X230990000Y-294220000D02*
X230990000Y-289980000D01*
X228750000Y-294220000D02*
X230990000Y-294220000D01*
X230990000Y-289980000D02*
X228750000Y-289980000D01*
X229870000Y-289330000D02*
X229870000Y-289980000D01*
X228750000Y-289980000D02*
X228750000Y-294220000D01*
X229870000Y-294870000D02*
X229870000Y-294220000D01*
%TO.C,J4*%
X215038306Y-142673831D02*
X215038306Y-147372831D01*
X214849306Y-138582831D02*
X214838306Y-138482831D01*
X226722306Y-147372831D02*
X232437306Y-147372831D01*
X224182306Y-153468831D02*
X224182306Y-151944831D01*
X234885306Y-138482831D02*
X234885306Y-139132831D01*
X225452306Y-153468831D02*
X226722306Y-153468831D01*
X222912306Y-153468831D02*
X224182306Y-153468831D01*
X226722306Y-151309831D02*
X226722306Y-149404831D01*
X232437306Y-142673831D02*
X232437306Y-143435831D01*
X222912306Y-149277831D02*
X222912306Y-147372831D01*
X226214306Y-139132831D02*
X223420306Y-139132831D01*
X214838306Y-139132831D02*
X217197306Y-139132831D01*
X214849306Y-138074831D02*
X214849306Y-138582831D01*
X226722306Y-153468831D02*
X226722306Y-151944831D01*
X222912306Y-149277831D02*
X221642306Y-149277831D01*
X232437306Y-139132831D02*
X234885306Y-139132831D01*
X226722306Y-151944831D02*
X226722306Y-151309831D01*
X222912306Y-151944831D02*
X224182306Y-151944831D01*
X218534306Y-139132831D02*
X217197306Y-139132831D01*
X221642306Y-151182831D02*
X221642306Y-149277831D01*
X234596306Y-142673831D02*
X234596306Y-147372831D01*
X217197306Y-147372831D02*
X222912306Y-147372831D01*
X215038306Y-147372831D02*
X217197306Y-147372831D01*
X233580306Y-151309831D02*
X234596306Y-147372831D01*
X226722306Y-149404831D02*
X227992306Y-149404831D01*
X217197306Y-147372831D02*
X217197306Y-146229831D01*
X226722306Y-151944831D02*
X225452306Y-151944831D01*
X232437306Y-147372831D02*
X234596306Y-147372831D01*
X215038306Y-142673831D02*
X217197306Y-142673831D01*
X232437306Y-139132831D02*
X232437306Y-142673831D01*
X217197306Y-139132831D02*
X217197306Y-142673831D01*
X214849306Y-138074831D02*
X214838306Y-137974831D01*
X232510306Y-139132831D02*
X231100306Y-139132831D01*
X221642306Y-151182831D02*
X222912306Y-151182831D01*
X234842306Y-137974831D02*
X234842306Y-138482831D01*
X222912306Y-151944831D02*
X222912306Y-151182831D01*
X234885306Y-137212831D02*
X214838306Y-137212831D01*
X234885306Y-138482831D02*
X234842306Y-138482831D01*
X214838306Y-137212831D02*
X214838306Y-137974831D01*
X226722306Y-149404831D02*
X226722306Y-147372831D01*
X227992306Y-151309831D02*
X227992306Y-149404831D01*
X234596306Y-142673831D02*
X232437306Y-142673831D01*
X216054306Y-151182831D02*
X215038306Y-147372831D01*
X224182306Y-153468831D02*
X225452306Y-153468831D01*
X234885306Y-137212831D02*
X234885306Y-137974831D01*
X222912306Y-153468831D02*
X222912306Y-151944831D01*
X217197306Y-142673831D02*
X217197306Y-143435831D01*
X225452306Y-153468831D02*
X225452306Y-151944831D01*
X232437306Y-147372831D02*
X232437306Y-146229831D01*
X222912306Y-147372831D02*
X226722306Y-147372831D01*
X226722306Y-151309831D02*
X227992306Y-151309831D01*
X222912306Y-151182831D02*
X222912306Y-149277831D01*
X234842306Y-137974831D02*
X234885306Y-137974831D01*
X214838306Y-139132831D02*
X214838306Y-138482831D01*
%TO.C,J3*%
X185425000Y-149160000D02*
X182825000Y-149160000D01*
X186695000Y-149160000D02*
X188025000Y-149160000D01*
X188025000Y-154360000D02*
X182825000Y-154360000D01*
X188025000Y-149160000D02*
X188025000Y-150490000D01*
X185425000Y-151760000D02*
X188025000Y-151760000D01*
X185425000Y-149160000D02*
X185425000Y-151760000D01*
X182825000Y-149160000D02*
X182825000Y-154360000D01*
X188025000Y-151760000D02*
X188025000Y-154360000D01*
%TO.C,R1*%
X114400000Y-146912064D02*
X114400000Y-146457936D01*
X112930000Y-146912064D02*
X112930000Y-146457936D01*
%TO.C,R2*%
X115470000Y-146457936D02*
X115470000Y-146912064D01*
X116940000Y-146457936D02*
X116940000Y-146912064D01*
%TO.C,S27*%
X204361808Y-264732717D02*
X204535457Y-263747909D01*
X218322765Y-266178984D02*
X218149117Y-267163792D01*
X217164309Y-266990143D02*
X218149117Y-267163792D01*
X220580192Y-253376483D02*
X220406543Y-254361291D01*
X220580192Y-253376483D02*
X219595384Y-253202835D01*
X206619235Y-251930216D02*
X206792883Y-250945408D01*
X204361808Y-264732717D02*
X205346616Y-264906365D01*
X207777691Y-251119057D02*
X206792883Y-250945408D01*
%TO.C,S28*%
X240755761Y-272886845D02*
X240176480Y-273701972D01*
X221234035Y-276188697D02*
X222049163Y-276767979D01*
X233225106Y-283483506D02*
X232645824Y-284298634D01*
X230159099Y-265356189D02*
X229343972Y-264776908D01*
X221234035Y-276188697D02*
X221813316Y-275373570D01*
X228764690Y-265592036D02*
X229343972Y-264776908D01*
X231830697Y-283719353D02*
X232645824Y-284298634D01*
X240755761Y-272886845D02*
X239940633Y-272307563D01*
%TO.C,S29*%
X240174760Y-305178993D02*
X239308734Y-305678993D01*
X243567064Y-287054637D02*
X244433090Y-286554637D01*
X244933090Y-287420663D02*
X244433090Y-286554637D01*
X251433090Y-298678993D02*
X250933090Y-297812967D01*
X232308734Y-293554637D02*
X232808734Y-294420663D01*
X251433090Y-298678993D02*
X250567064Y-299178993D01*
X238808734Y-304812967D02*
X239308734Y-305678993D01*
X232308734Y-293554637D02*
X233174760Y-293054637D01*
%TO.C,TP2*%
X215830000Y-163816600D02*
G75*
G03*
X215830000Y-163816600I-1200000J0D01*
G01*
%TO.C,TP3*%
X204400000Y-160020000D02*
G75*
G03*
X204400000Y-160020000I-1200000J0D01*
G01*
%TO.C,TP4*%
X175952000Y-155702000D02*
G75*
G03*
X175952000Y-155702000I-1200000J0D01*
G01*
%TO.C,TP5*%
X168332000Y-155702000D02*
G75*
G03*
X168332000Y-155702000I-1200000J0D01*
G01*
%TO.C,TP7*%
X121016000Y-168275000D02*
G75*
G03*
X121016000Y-168275000I-1200000J0D01*
G01*
%TO.C,TP10*%
X103490000Y-186067000D02*
G75*
G03*
X103490000Y-186067000I-1200000J0D01*
G01*
%TO.C,TP11*%
X103490000Y-205117000D02*
G75*
G03*
X103490000Y-205117000I-1200000J0D01*
G01*
%TO.C,TP12*%
X98664000Y-224155000D02*
G75*
G03*
X98664000Y-224155000I-1200000J0D01*
G01*
%TO.C,TP13*%
X96450000Y-243205000D02*
G75*
G03*
X96450000Y-243205000I-1200000J0D01*
G01*
%TO.C,TP14*%
X93402000Y-263144000D02*
G75*
G03*
X93402000Y-263144000I-1200000J0D01*
G01*
%TO.C,TP9*%
X213290000Y-244475000D02*
G75*
G03*
X213290000Y-244475000I-1200000J0D01*
G01*
%TO.C,TP15*%
X171380000Y-291465000D02*
G75*
G03*
X171380000Y-291465000I-1200000J0D01*
G01*
%TO.C,TP16*%
X154235000Y-291465000D02*
G75*
G03*
X154235000Y-291465000I-1200000J0D01*
G01*
%TO.C,TP17*%
X171380000Y-288290000D02*
G75*
G03*
X171380000Y-288290000I-1200000J0D01*
G01*
%TO.C,TP18*%
X171380000Y-297815000D02*
G75*
G03*
X171380000Y-297815000I-1200000J0D01*
G01*
%TO.C,TP19*%
X154235000Y-297815000D02*
G75*
G03*
X154235000Y-297815000I-1200000J0D01*
G01*
%TO.C,TP20*%
X171380000Y-294640000D02*
G75*
G03*
X171380000Y-294640000I-1200000J0D01*
G01*
%TO.C,TP21*%
X154235000Y-294640000D02*
G75*
G03*
X154235000Y-294640000I-1200000J0D01*
G01*
%TO.C,U1*%
X173155000Y-150295000D02*
X172705000Y-150295000D01*
X165935000Y-149845000D02*
X165935000Y-150295000D01*
X165935000Y-143075000D02*
X166385000Y-143075000D01*
X173155000Y-149845000D02*
X173155000Y-150295000D01*
X165935000Y-143525000D02*
X165935000Y-143075000D01*
X165935000Y-150295000D02*
X166385000Y-150295000D01*
X173155000Y-143075000D02*
X172705000Y-143075000D01*
X173155000Y-143525000D02*
X173155000Y-143075000D01*
X172705000Y-143075000D02*
X172705000Y-141785000D01*
%TO.C,JP1*%
X223790000Y-158403000D02*
X225790000Y-158403000D01*
X225790000Y-161203000D02*
X223790000Y-161203000D01*
X223790000Y-161203000D02*
X223790000Y-158403000D01*
X225790000Y-158403000D02*
X225790000Y-161203000D01*
%TO.C,J2*%
X189805000Y-151765000D02*
X189805000Y-149165000D01*
X191135000Y-154365000D02*
X189805000Y-154365000D01*
X195005000Y-154365000D02*
X195005000Y-149165000D01*
X189805000Y-149165000D02*
X195005000Y-149165000D01*
X192405000Y-151765000D02*
X189805000Y-151765000D01*
X192405000Y-154365000D02*
X192405000Y-151765000D01*
X192405000Y-154365000D02*
X195005000Y-154365000D01*
X189805000Y-154365000D02*
X189805000Y-153035000D01*
%TO.C,TP6*%
X139812000Y-168275000D02*
G75*
G03*
X139812000Y-168275000I-1200000J0D01*
G01*
D15*
%TO.C,J1*%
X119295400Y-139878000D02*
X119295400Y-139078000D01*
X117881400Y-141265400D02*
X117373400Y-141265400D01*
X113817400Y-141265400D02*
X113309400Y-141265400D01*
X111895400Y-139878000D02*
X111895400Y-139078000D01*
%TO.C,TP1*%
X124390000Y-141478000D02*
G75*
G03*
X124390000Y-141478000I-1200000J0D01*
G01*
D14*
%TO.C,S7*%
X128703000Y-172046200D02*
X128703000Y-171046200D01*
X128703000Y-185046200D02*
X129703000Y-185046200D01*
X142703000Y-184046200D02*
X142703000Y-185046200D01*
X142703000Y-171046200D02*
X142703000Y-172046200D01*
X128703000Y-185046200D02*
X128703000Y-184046200D01*
X141703000Y-185046200D02*
X142703000Y-185046200D01*
X129703000Y-171046200D02*
X128703000Y-171046200D01*
X142703000Y-171046200D02*
X141703000Y-171046200D01*
%TO.C,S12*%
X148753000Y-161046200D02*
X147753000Y-161046200D01*
X161753000Y-161046200D02*
X161753000Y-162046200D01*
X161753000Y-174046200D02*
X161753000Y-175046200D01*
X147753000Y-175046200D02*
X148753000Y-175046200D01*
X147753000Y-175046200D02*
X147753000Y-174046200D01*
X161753000Y-161046200D02*
X160753000Y-161046200D01*
X160753000Y-175046200D02*
X161753000Y-175046200D01*
X147753000Y-162046200D02*
X147753000Y-161046200D01*
%TO.C,S17*%
X167803000Y-159046200D02*
X166803000Y-159046200D01*
X180803000Y-159046200D02*
X179803000Y-159046200D01*
X166803000Y-173046200D02*
X167803000Y-173046200D01*
X166803000Y-160046200D02*
X166803000Y-159046200D01*
X180803000Y-159046200D02*
X180803000Y-160046200D01*
X166803000Y-173046200D02*
X166803000Y-172046200D01*
X179803000Y-173046200D02*
X180803000Y-173046200D01*
X180803000Y-172046200D02*
X180803000Y-173046200D01*
%TO.C,S22*%
X199853000Y-163046200D02*
X198853000Y-163046200D01*
X186853000Y-163046200D02*
X185853000Y-163046200D01*
X185853000Y-177046200D02*
X185853000Y-176046200D01*
X199853000Y-163046200D02*
X199853000Y-164046200D01*
X185853000Y-177046200D02*
X186853000Y-177046200D01*
X185853000Y-164046200D02*
X185853000Y-163046200D01*
X199853000Y-176046200D02*
X199853000Y-177046200D01*
X198853000Y-177046200D02*
X199853000Y-177046200D01*
%TO.C,S30*%
X205903000Y-167046200D02*
X204903000Y-167046200D01*
X204903000Y-168046200D02*
X204903000Y-167046200D01*
X218903000Y-180046200D02*
X218903000Y-181046200D01*
X218903000Y-167046200D02*
X217903000Y-167046200D01*
X218903000Y-167046200D02*
X218903000Y-168046200D01*
X217903000Y-181046200D02*
X218903000Y-181046200D01*
X204903000Y-181046200D02*
X204903000Y-180046200D01*
X204903000Y-181046200D02*
X205903000Y-181046200D01*
%TO.C,S5*%
X109653000Y-191096200D02*
X109653000Y-190096200D01*
X123653000Y-190096200D02*
X123653000Y-191096200D01*
X123653000Y-203096200D02*
X123653000Y-204096200D01*
X109653000Y-204096200D02*
X109653000Y-203096200D01*
X109653000Y-204096200D02*
X110653000Y-204096200D01*
X123653000Y-190096200D02*
X122653000Y-190096200D01*
X110653000Y-190096200D02*
X109653000Y-190096200D01*
X122653000Y-204096200D02*
X123653000Y-204096200D01*
%TO.C,S8*%
X142703000Y-203096200D02*
X142703000Y-204096200D01*
X128703000Y-204096200D02*
X128703000Y-203096200D01*
X129703000Y-190096200D02*
X128703000Y-190096200D01*
X142703000Y-190096200D02*
X142703000Y-191096200D01*
X128703000Y-191096200D02*
X128703000Y-190096200D01*
X128703000Y-204096200D02*
X129703000Y-204096200D01*
X142703000Y-190096200D02*
X141703000Y-190096200D01*
X141703000Y-204096200D02*
X142703000Y-204096200D01*
%TO.C,S13*%
X161753000Y-180096200D02*
X161753000Y-181096200D01*
X161753000Y-193096200D02*
X161753000Y-194096200D01*
X160753000Y-194096200D02*
X161753000Y-194096200D01*
X148753000Y-180096200D02*
X147753000Y-180096200D01*
X161753000Y-180096200D02*
X160753000Y-180096200D01*
X147753000Y-181096200D02*
X147753000Y-180096200D01*
X147753000Y-194096200D02*
X148753000Y-194096200D01*
X147753000Y-194096200D02*
X147753000Y-193096200D01*
%TO.C,S18*%
X166803000Y-192096200D02*
X167803000Y-192096200D01*
X167803000Y-178096200D02*
X166803000Y-178096200D01*
X179803000Y-192096200D02*
X180803000Y-192096200D01*
X166803000Y-179096200D02*
X166803000Y-178096200D01*
X180803000Y-178096200D02*
X180803000Y-179096200D01*
X180803000Y-191096200D02*
X180803000Y-192096200D01*
X166803000Y-192096200D02*
X166803000Y-191096200D01*
X180803000Y-178096200D02*
X179803000Y-178096200D01*
%TO.C,S23*%
X185853000Y-183096200D02*
X185853000Y-182096200D01*
X186853000Y-182096200D02*
X185853000Y-182096200D01*
X185853000Y-196096200D02*
X186853000Y-196096200D01*
X199853000Y-182096200D02*
X198853000Y-182096200D01*
X199853000Y-182096200D02*
X199853000Y-183096200D01*
X198853000Y-196096200D02*
X199853000Y-196096200D01*
X185853000Y-196096200D02*
X185853000Y-195096200D01*
X199853000Y-195096200D02*
X199853000Y-196096200D01*
%TO.C,S31*%
X218903000Y-186096200D02*
X217903000Y-186096200D01*
X205903000Y-186096200D02*
X204903000Y-186096200D01*
X204903000Y-200096200D02*
X204903000Y-199096200D01*
X218903000Y-199096200D02*
X218903000Y-200096200D01*
X218903000Y-186096200D02*
X218903000Y-187096200D01*
X217903000Y-200096200D02*
X218903000Y-200096200D01*
X204903000Y-200096200D02*
X205903000Y-200096200D01*
X204903000Y-187096200D02*
X204903000Y-186096200D01*
%TO.C,S2*%
X104926516Y-223137880D02*
X105926516Y-223137880D01*
X104926516Y-223137880D02*
X104926516Y-222137880D01*
X118926516Y-209137880D02*
X117926516Y-209137880D01*
X117926516Y-223137880D02*
X118926516Y-223137880D01*
X104926516Y-210137880D02*
X104926516Y-209137880D01*
X105926516Y-209137880D02*
X104926516Y-209137880D01*
X118926516Y-222137880D02*
X118926516Y-223137880D01*
X118926516Y-209137880D02*
X118926516Y-210137880D01*
%TO.C,S9*%
X141703000Y-223146200D02*
X142703000Y-223146200D01*
X128703000Y-223146200D02*
X128703000Y-222146200D01*
X128703000Y-210146200D02*
X128703000Y-209146200D01*
X142703000Y-209146200D02*
X141703000Y-209146200D01*
X128703000Y-223146200D02*
X129703000Y-223146200D01*
X142703000Y-209146200D02*
X142703000Y-210146200D01*
X129703000Y-209146200D02*
X128703000Y-209146200D01*
X142703000Y-222146200D02*
X142703000Y-223146200D01*
%TO.C,S14*%
X160753000Y-213146200D02*
X161753000Y-213146200D01*
X161753000Y-199146200D02*
X160753000Y-199146200D01*
X161753000Y-199146200D02*
X161753000Y-200146200D01*
X147753000Y-213146200D02*
X147753000Y-212146200D01*
X147753000Y-213146200D02*
X148753000Y-213146200D01*
X147753000Y-200146200D02*
X147753000Y-199146200D01*
X161753000Y-212146200D02*
X161753000Y-213146200D01*
X148753000Y-199146200D02*
X147753000Y-199146200D01*
%TO.C,S19*%
X180803000Y-197146200D02*
X180803000Y-198146200D01*
X166803000Y-211146200D02*
X166803000Y-210146200D01*
X179803000Y-211146200D02*
X180803000Y-211146200D01*
X167803000Y-197146200D02*
X166803000Y-197146200D01*
X166803000Y-198146200D02*
X166803000Y-197146200D01*
X166803000Y-211146200D02*
X167803000Y-211146200D01*
X180803000Y-197146200D02*
X179803000Y-197146200D01*
X180803000Y-210146200D02*
X180803000Y-211146200D01*
%TO.C,S24*%
X199853000Y-201146200D02*
X199853000Y-202146200D01*
X185853000Y-215146200D02*
X185853000Y-214146200D01*
X199853000Y-201146200D02*
X198853000Y-201146200D01*
X185853000Y-202146200D02*
X185853000Y-201146200D01*
X198853000Y-215146200D02*
X199853000Y-215146200D01*
X186853000Y-201146200D02*
X185853000Y-201146200D01*
X199853000Y-214146200D02*
X199853000Y-215146200D01*
X185853000Y-215146200D02*
X186853000Y-215146200D01*
%TO.C,S32*%
X204903000Y-219146200D02*
X204903000Y-218146200D01*
X217903000Y-219146200D02*
X218903000Y-219146200D01*
X205903000Y-205146200D02*
X204903000Y-205146200D01*
X218903000Y-205146200D02*
X218903000Y-206146200D01*
X218903000Y-205146200D02*
X217903000Y-205146200D01*
X204903000Y-219146200D02*
X205903000Y-219146200D01*
X204903000Y-206146200D02*
X204903000Y-205146200D01*
X218903000Y-218146200D02*
X218903000Y-219146200D01*
%TO.C,S3*%
X102505456Y-229195156D02*
X102505456Y-228195156D01*
X116505456Y-228195156D02*
X115505456Y-228195156D01*
X102505456Y-242195156D02*
X102505456Y-241195156D01*
X115505456Y-242195156D02*
X116505456Y-242195156D01*
X102505456Y-242195156D02*
X103505456Y-242195156D01*
X116505456Y-228195156D02*
X116505456Y-229195156D01*
X116505456Y-241195156D02*
X116505456Y-242195156D01*
X103505456Y-228195156D02*
X102505456Y-228195156D01*
%TO.C,S10*%
X141703000Y-242196200D02*
X142703000Y-242196200D01*
X142703000Y-228196200D02*
X141703000Y-228196200D01*
X142703000Y-241196200D02*
X142703000Y-242196200D01*
X128703000Y-242196200D02*
X128703000Y-241196200D01*
X129703000Y-228196200D02*
X128703000Y-228196200D01*
X128703000Y-242196200D02*
X129703000Y-242196200D01*
X142703000Y-228196200D02*
X142703000Y-229196200D01*
X128703000Y-229196200D02*
X128703000Y-228196200D01*
%TO.C,S15*%
X161753000Y-231196200D02*
X161753000Y-232196200D01*
X160753000Y-232196200D02*
X161753000Y-232196200D01*
X147753000Y-232196200D02*
X148753000Y-232196200D01*
X148753000Y-218196200D02*
X147753000Y-218196200D01*
X161753000Y-218196200D02*
X160753000Y-218196200D01*
X147753000Y-232196200D02*
X147753000Y-231196200D01*
X161753000Y-218196200D02*
X161753000Y-219196200D01*
X147753000Y-219196200D02*
X147753000Y-218196200D01*
%TO.C,S20*%
X166803000Y-230196200D02*
X166803000Y-229196200D01*
X167803000Y-216196200D02*
X166803000Y-216196200D01*
X166803000Y-230196200D02*
X167803000Y-230196200D01*
X180803000Y-216196200D02*
X180803000Y-217196200D01*
X180803000Y-229196200D02*
X180803000Y-230196200D01*
X166803000Y-217196200D02*
X166803000Y-216196200D01*
X179803000Y-230196200D02*
X180803000Y-230196200D01*
X180803000Y-216196200D02*
X179803000Y-216196200D01*
%TO.C,S25*%
X186853000Y-220196200D02*
X185853000Y-220196200D01*
X185853000Y-221196200D02*
X185853000Y-220196200D01*
X185853000Y-234196200D02*
X185853000Y-233196200D01*
X199853000Y-220196200D02*
X199853000Y-221196200D01*
X198853000Y-234196200D02*
X199853000Y-234196200D01*
X199853000Y-233196200D02*
X199853000Y-234196200D01*
X199853000Y-220196200D02*
X198853000Y-220196200D01*
X185853000Y-234196200D02*
X186853000Y-234196200D01*
%TO.C,S33*%
X218903000Y-224196200D02*
X217903000Y-224196200D01*
X218903000Y-224196200D02*
X218903000Y-225196200D01*
X204903000Y-238196200D02*
X205903000Y-238196200D01*
X204903000Y-238196200D02*
X204903000Y-237196200D01*
X204903000Y-225196200D02*
X204903000Y-224196200D01*
X218903000Y-237196200D02*
X218903000Y-238196200D01*
X205903000Y-224196200D02*
X204903000Y-224196200D01*
X217903000Y-238196200D02*
X218903000Y-238196200D01*
%TO.C,S6*%
X123653000Y-247246200D02*
X123653000Y-248246200D01*
X110653000Y-247246200D02*
X109653000Y-247246200D01*
X122653000Y-261246200D02*
X123653000Y-261246200D01*
X109653000Y-261246200D02*
X110653000Y-261246200D01*
X123653000Y-260246200D02*
X123653000Y-261246200D01*
X109653000Y-261246200D02*
X109653000Y-260246200D01*
X109653000Y-248246200D02*
X109653000Y-247246200D01*
X123653000Y-247246200D02*
X122653000Y-247246200D01*
%TO.C,S11*%
X128703000Y-261246200D02*
X129703000Y-261246200D01*
X141703000Y-261246200D02*
X142703000Y-261246200D01*
X142703000Y-260246200D02*
X142703000Y-261246200D01*
X129703000Y-247246200D02*
X128703000Y-247246200D01*
X128703000Y-248246200D02*
X128703000Y-247246200D01*
X142703000Y-247246200D02*
X141703000Y-247246200D01*
X128703000Y-261246200D02*
X128703000Y-260246200D01*
X142703000Y-247246200D02*
X142703000Y-248246200D01*
%TO.C,S16*%
X160753000Y-251246200D02*
X161753000Y-251246200D01*
X147753000Y-251246200D02*
X147753000Y-250246200D01*
X147753000Y-251246200D02*
X148753000Y-251246200D01*
X161753000Y-237246200D02*
X160753000Y-237246200D01*
X161753000Y-250246200D02*
X161753000Y-251246200D01*
X147753000Y-238246200D02*
X147753000Y-237246200D01*
X161753000Y-237246200D02*
X161753000Y-238246200D01*
X148753000Y-237246200D02*
X147753000Y-237246200D01*
%TO.C,S21*%
X166803000Y-236246200D02*
X166803000Y-235246200D01*
X166803000Y-249246200D02*
X167803000Y-249246200D01*
X166803000Y-249246200D02*
X166803000Y-248246200D01*
X179803000Y-249246200D02*
X180803000Y-249246200D01*
X180803000Y-248246200D02*
X180803000Y-249246200D01*
X167803000Y-235246200D02*
X166803000Y-235246200D01*
X180803000Y-235246200D02*
X179803000Y-235246200D01*
X180803000Y-235246200D02*
X180803000Y-236246200D01*
%TO.C,S26*%
X199853000Y-239246200D02*
X199853000Y-240246200D01*
X185853000Y-253246200D02*
X186853000Y-253246200D01*
X185853000Y-253246200D02*
X185853000Y-252246200D01*
X198853000Y-253246200D02*
X199853000Y-253246200D01*
X199853000Y-252246200D02*
X199853000Y-253246200D01*
X199853000Y-239246200D02*
X198853000Y-239246200D01*
X185853000Y-240246200D02*
X185853000Y-239246200D01*
X186853000Y-239246200D02*
X185853000Y-239246200D01*
%TO.C,D9*%
X125641000Y-180102200D02*
X125641000Y-184342200D01*
X125641000Y-184342200D02*
X127881000Y-184342200D01*
X125641000Y-183742200D02*
X127881000Y-183742200D01*
X127881000Y-180102200D02*
X125641000Y-180102200D01*
X125641000Y-183502200D02*
X127881000Y-183502200D01*
X127881000Y-184342200D02*
X127881000Y-180102200D01*
X126761000Y-179452200D02*
X126761000Y-180102200D01*
X126761000Y-184992200D02*
X126761000Y-184342200D01*
X125641000Y-183622200D02*
X127881000Y-183622200D01*
%TO.C,D14*%
X145811000Y-169452200D02*
X145811000Y-170102200D01*
X144691000Y-174342200D02*
X146931000Y-174342200D01*
X146931000Y-174342200D02*
X146931000Y-170102200D01*
X144691000Y-173502200D02*
X146931000Y-173502200D01*
X144691000Y-173622200D02*
X146931000Y-173622200D01*
X144691000Y-170102200D02*
X144691000Y-174342200D01*
X145811000Y-174992200D02*
X145811000Y-174342200D01*
X146931000Y-170102200D02*
X144691000Y-170102200D01*
X144691000Y-173742200D02*
X146931000Y-173742200D01*
%TO.C,D19*%
X163741000Y-172342200D02*
X165981000Y-172342200D01*
X163741000Y-171622200D02*
X165981000Y-171622200D01*
X165981000Y-168102200D02*
X163741000Y-168102200D01*
X165981000Y-172342200D02*
X165981000Y-168102200D01*
X163741000Y-171742200D02*
X165981000Y-171742200D01*
X164861000Y-172992200D02*
X164861000Y-172342200D01*
X164861000Y-167452200D02*
X164861000Y-168102200D01*
X163741000Y-168102200D02*
X163741000Y-172342200D01*
X163741000Y-171502200D02*
X165981000Y-171502200D01*
%TO.C,D24*%
X185031000Y-172102200D02*
X182791000Y-172102200D01*
X182791000Y-176342200D02*
X185031000Y-176342200D01*
X182791000Y-175742200D02*
X185031000Y-175742200D01*
X185031000Y-176342200D02*
X185031000Y-172102200D01*
X183911000Y-176992200D02*
X183911000Y-176342200D01*
X182791000Y-172102200D02*
X182791000Y-176342200D01*
X183911000Y-171452200D02*
X183911000Y-172102200D01*
X182791000Y-175622200D02*
X185031000Y-175622200D01*
X182791000Y-175502200D02*
X185031000Y-175502200D01*
%TO.C,D32*%
X204081000Y-176102200D02*
X201841000Y-176102200D01*
X201841000Y-179622200D02*
X204081000Y-179622200D01*
X202961000Y-180992200D02*
X202961000Y-180342200D01*
X201841000Y-176102200D02*
X201841000Y-180342200D01*
X204081000Y-180342200D02*
X204081000Y-176102200D01*
X201841000Y-179502200D02*
X204081000Y-179502200D01*
X201841000Y-180342200D02*
X204081000Y-180342200D01*
X202961000Y-175452200D02*
X202961000Y-176102200D01*
X201841000Y-179742200D02*
X204081000Y-179742200D01*
%TO.C,D7*%
X108831000Y-199152200D02*
X106591000Y-199152200D01*
X106591000Y-202552200D02*
X108831000Y-202552200D01*
X107711000Y-204042200D02*
X107711000Y-203392200D01*
X106591000Y-202672200D02*
X108831000Y-202672200D01*
X108831000Y-203392200D02*
X108831000Y-199152200D01*
X106591000Y-203392200D02*
X108831000Y-203392200D01*
X106591000Y-202792200D02*
X108831000Y-202792200D01*
X107711000Y-198502200D02*
X107711000Y-199152200D01*
X106591000Y-199152200D02*
X106591000Y-203392200D01*
%TO.C,D10*%
X125641000Y-199152200D02*
X125641000Y-203392200D01*
X125641000Y-203392200D02*
X127881000Y-203392200D01*
X126761000Y-198502200D02*
X126761000Y-199152200D01*
X125641000Y-202552200D02*
X127881000Y-202552200D01*
X127881000Y-199152200D02*
X125641000Y-199152200D01*
X125641000Y-202672200D02*
X127881000Y-202672200D01*
X125641000Y-202792200D02*
X127881000Y-202792200D01*
X126761000Y-204042200D02*
X126761000Y-203392200D01*
X127881000Y-203392200D02*
X127881000Y-199152200D01*
%TO.C,D15*%
X144691000Y-192552200D02*
X146931000Y-192552200D01*
X145811000Y-188502200D02*
X145811000Y-189152200D01*
X144691000Y-189152200D02*
X144691000Y-193392200D01*
X145811000Y-194042200D02*
X145811000Y-193392200D01*
X144691000Y-192792200D02*
X146931000Y-192792200D01*
X146931000Y-189152200D02*
X144691000Y-189152200D01*
X146931000Y-193392200D02*
X146931000Y-189152200D01*
X144691000Y-192672200D02*
X146931000Y-192672200D01*
X144691000Y-193392200D02*
X146931000Y-193392200D01*
%TO.C,D20*%
X163741000Y-190792200D02*
X165981000Y-190792200D01*
X163741000Y-191392200D02*
X165981000Y-191392200D01*
X165981000Y-191392200D02*
X165981000Y-187152200D01*
X163741000Y-187152200D02*
X163741000Y-191392200D01*
X165981000Y-187152200D02*
X163741000Y-187152200D01*
X163741000Y-190672200D02*
X165981000Y-190672200D01*
X164861000Y-192042200D02*
X164861000Y-191392200D01*
X163741000Y-190552200D02*
X165981000Y-190552200D01*
X164861000Y-186502200D02*
X164861000Y-187152200D01*
%TO.C,D25*%
X182791000Y-191152200D02*
X182791000Y-195392200D01*
X183911000Y-190502200D02*
X183911000Y-191152200D01*
X185031000Y-191152200D02*
X182791000Y-191152200D01*
X183911000Y-196042200D02*
X183911000Y-195392200D01*
X182791000Y-195392200D02*
X185031000Y-195392200D01*
X182791000Y-194552200D02*
X185031000Y-194552200D01*
X182791000Y-194672200D02*
X185031000Y-194672200D01*
X185031000Y-195392200D02*
X185031000Y-191152200D01*
X182791000Y-194792200D02*
X185031000Y-194792200D01*
%TO.C,D33*%
X204081000Y-195152200D02*
X201841000Y-195152200D01*
X201841000Y-198672200D02*
X204081000Y-198672200D01*
X204081000Y-199392200D02*
X204081000Y-195152200D01*
X201841000Y-198792200D02*
X204081000Y-198792200D01*
X202961000Y-194502200D02*
X202961000Y-195152200D01*
X201841000Y-198552200D02*
X204081000Y-198552200D01*
X201841000Y-199392200D02*
X204081000Y-199392200D01*
X201841000Y-195152200D02*
X201841000Y-199392200D01*
X202961000Y-200042200D02*
X202961000Y-199392200D01*
%TO.C,D4*%
X103451600Y-218225000D02*
X101211600Y-218225000D01*
X101211600Y-221865000D02*
X103451600Y-221865000D01*
X101211600Y-218225000D02*
X101211600Y-222465000D01*
X101211600Y-222465000D02*
X103451600Y-222465000D01*
X103451600Y-222465000D02*
X103451600Y-218225000D01*
X101211600Y-221625000D02*
X103451600Y-221625000D01*
X101211600Y-221745000D02*
X103451600Y-221745000D01*
X102331600Y-217575000D02*
X102331600Y-218225000D01*
X102331600Y-223115000D02*
X102331600Y-222465000D01*
%TO.C,D11*%
X125641000Y-222442200D02*
X127881000Y-222442200D01*
X125641000Y-221722200D02*
X127881000Y-221722200D01*
X125641000Y-221842200D02*
X127881000Y-221842200D01*
X125641000Y-218202200D02*
X125641000Y-222442200D01*
X125641000Y-221602200D02*
X127881000Y-221602200D01*
X127881000Y-218202200D02*
X125641000Y-218202200D01*
X127881000Y-222442200D02*
X127881000Y-218202200D01*
X126761000Y-217552200D02*
X126761000Y-218202200D01*
X126761000Y-223092200D02*
X126761000Y-222442200D01*
%TO.C,D16*%
X146931000Y-212442200D02*
X146931000Y-208202200D01*
X146931000Y-208202200D02*
X144691000Y-208202200D01*
X145811000Y-213092200D02*
X145811000Y-212442200D01*
X144691000Y-212442200D02*
X146931000Y-212442200D01*
X144691000Y-211602200D02*
X146931000Y-211602200D01*
X144691000Y-211842200D02*
X146931000Y-211842200D01*
X144691000Y-211722200D02*
X146931000Y-211722200D01*
X144691000Y-208202200D02*
X144691000Y-212442200D01*
X145811000Y-207552200D02*
X145811000Y-208202200D01*
%TO.C,D21*%
X164861000Y-211092200D02*
X164861000Y-210442200D01*
X163741000Y-209602200D02*
X165981000Y-209602200D01*
X163741000Y-209722200D02*
X165981000Y-209722200D01*
X165981000Y-206202200D02*
X163741000Y-206202200D01*
X163741000Y-209842200D02*
X165981000Y-209842200D01*
X164861000Y-205552200D02*
X164861000Y-206202200D01*
X163741000Y-206202200D02*
X163741000Y-210442200D01*
X165981000Y-210442200D02*
X165981000Y-206202200D01*
X163741000Y-210442200D02*
X165981000Y-210442200D01*
%TO.C,D26*%
X182791000Y-213842200D02*
X185031000Y-213842200D01*
X182791000Y-214442200D02*
X185031000Y-214442200D01*
X182791000Y-210202200D02*
X182791000Y-214442200D01*
X185031000Y-214442200D02*
X185031000Y-210202200D01*
X182791000Y-213602200D02*
X185031000Y-213602200D01*
X183911000Y-209552200D02*
X183911000Y-210202200D01*
X183911000Y-215092200D02*
X183911000Y-214442200D01*
X185031000Y-210202200D02*
X182791000Y-210202200D01*
X182791000Y-213722200D02*
X185031000Y-213722200D01*
%TO.C,D34*%
X204081000Y-214202200D02*
X201841000Y-214202200D01*
X201841000Y-217842200D02*
X204081000Y-217842200D01*
X201841000Y-217722200D02*
X204081000Y-217722200D01*
X204081000Y-218442200D02*
X204081000Y-214202200D01*
X202961000Y-219092200D02*
X202961000Y-218442200D01*
X201841000Y-218442200D02*
X204081000Y-218442200D01*
X201841000Y-217602200D02*
X204081000Y-217602200D01*
X201841000Y-214202200D02*
X201841000Y-218442200D01*
X202961000Y-213552200D02*
X202961000Y-214202200D01*
%TO.C,D5*%
X98575000Y-240915000D02*
X100815000Y-240915000D01*
X100815000Y-237275000D02*
X98575000Y-237275000D01*
X99695000Y-242165000D02*
X99695000Y-241515000D01*
X98575000Y-240795000D02*
X100815000Y-240795000D01*
X99695000Y-236625000D02*
X99695000Y-237275000D01*
X98575000Y-237275000D02*
X98575000Y-241515000D01*
X98575000Y-240675000D02*
X100815000Y-240675000D01*
X100815000Y-241515000D02*
X100815000Y-237275000D01*
X98575000Y-241515000D02*
X100815000Y-241515000D01*
%TO.C,D12*%
X127881000Y-237252200D02*
X125641000Y-237252200D01*
X126761000Y-236602200D02*
X126761000Y-237252200D01*
X125641000Y-240652200D02*
X127881000Y-240652200D01*
X125641000Y-240892200D02*
X127881000Y-240892200D01*
X125641000Y-241492200D02*
X127881000Y-241492200D01*
X125641000Y-240772200D02*
X127881000Y-240772200D01*
X126761000Y-242142200D02*
X126761000Y-241492200D01*
X127881000Y-241492200D02*
X127881000Y-237252200D01*
X125641000Y-237252200D02*
X125641000Y-241492200D01*
%TO.C,D17*%
X144691000Y-227252200D02*
X144691000Y-231492200D01*
X145811000Y-226602200D02*
X145811000Y-227252200D01*
X144691000Y-230892200D02*
X146931000Y-230892200D01*
X144691000Y-230772200D02*
X146931000Y-230772200D01*
X144691000Y-231492200D02*
X146931000Y-231492200D01*
X145811000Y-232142200D02*
X145811000Y-231492200D01*
X146931000Y-227252200D02*
X144691000Y-227252200D01*
X144691000Y-230652200D02*
X146931000Y-230652200D01*
X146931000Y-231492200D02*
X146931000Y-227252200D01*
%TO.C,D22*%
X163741000Y-228652200D02*
X165981000Y-228652200D01*
X163741000Y-225252200D02*
X163741000Y-229492200D01*
X165981000Y-229492200D02*
X165981000Y-225252200D01*
X165981000Y-225252200D02*
X163741000Y-225252200D01*
X164861000Y-224602200D02*
X164861000Y-225252200D01*
X163741000Y-229492200D02*
X165981000Y-229492200D01*
X163741000Y-228892200D02*
X165981000Y-228892200D01*
X163741000Y-228772200D02*
X165981000Y-228772200D01*
X164861000Y-230142200D02*
X164861000Y-229492200D01*
%TO.C,D27*%
X182791000Y-233492200D02*
X185031000Y-233492200D01*
X183911000Y-234142200D02*
X183911000Y-233492200D01*
X182791000Y-232892200D02*
X185031000Y-232892200D01*
X185031000Y-233492200D02*
X185031000Y-229252200D01*
X182791000Y-232652200D02*
X185031000Y-232652200D01*
X182791000Y-232772200D02*
X185031000Y-232772200D01*
X182791000Y-229252200D02*
X182791000Y-233492200D01*
X185031000Y-229252200D02*
X182791000Y-229252200D01*
X183911000Y-228602200D02*
X183911000Y-229252200D01*
%TO.C,D35*%
X201841000Y-236892200D02*
X204081000Y-236892200D01*
X201841000Y-236772200D02*
X204081000Y-236772200D01*
X201841000Y-236652200D02*
X204081000Y-236652200D01*
X202961000Y-238142200D02*
X202961000Y-237492200D01*
X204081000Y-233252200D02*
X201841000Y-233252200D01*
X204081000Y-237492200D02*
X204081000Y-233252200D01*
X201841000Y-233252200D02*
X201841000Y-237492200D01*
X202961000Y-232602200D02*
X202961000Y-233252200D01*
X201841000Y-237492200D02*
X204081000Y-237492200D01*
%TO.C,D8*%
X106591000Y-259702200D02*
X108831000Y-259702200D01*
X106591000Y-260542200D02*
X108831000Y-260542200D01*
X108831000Y-256302200D02*
X106591000Y-256302200D01*
X106591000Y-259822200D02*
X108831000Y-259822200D01*
X106591000Y-256302200D02*
X106591000Y-260542200D01*
X107711000Y-261192200D02*
X107711000Y-260542200D01*
X108831000Y-260542200D02*
X108831000Y-256302200D01*
X106591000Y-259942200D02*
X108831000Y-259942200D01*
X107711000Y-255652200D02*
X107711000Y-256302200D01*
%TO.C,D13*%
X127881000Y-260542200D02*
X127881000Y-256302200D01*
X125641000Y-259942200D02*
X127881000Y-259942200D01*
X125641000Y-259822200D02*
X127881000Y-259822200D01*
X125641000Y-256302200D02*
X125641000Y-260542200D01*
X125641000Y-259702200D02*
X127881000Y-259702200D01*
X127881000Y-256302200D02*
X125641000Y-256302200D01*
X125641000Y-260542200D02*
X127881000Y-260542200D01*
X126761000Y-255652200D02*
X126761000Y-256302200D01*
X126761000Y-261192200D02*
X126761000Y-260542200D01*
%TO.C,D18*%
X145811000Y-245652200D02*
X145811000Y-246302200D01*
X144691000Y-246302200D02*
X144691000Y-250542200D01*
X144691000Y-250542200D02*
X146931000Y-250542200D01*
X146931000Y-246302200D02*
X144691000Y-246302200D01*
X144691000Y-249702200D02*
X146931000Y-249702200D01*
X145811000Y-251192200D02*
X145811000Y-250542200D01*
X146931000Y-250542200D02*
X146931000Y-246302200D01*
X144691000Y-249822200D02*
X146931000Y-249822200D01*
X144691000Y-249942200D02*
X146931000Y-249942200D01*
%TO.C,D23*%
X163741000Y-247702200D02*
X165981000Y-247702200D01*
X163741000Y-248542200D02*
X165981000Y-248542200D01*
X163741000Y-247822200D02*
X165981000Y-247822200D01*
X164861000Y-243652200D02*
X164861000Y-244302200D01*
X164861000Y-249192200D02*
X164861000Y-248542200D01*
X165981000Y-244302200D02*
X163741000Y-244302200D01*
X165981000Y-248542200D02*
X165981000Y-244302200D01*
X163741000Y-247942200D02*
X165981000Y-247942200D01*
X163741000Y-244302200D02*
X163741000Y-248542200D01*
%TO.C,D28*%
X183911000Y-247652200D02*
X183911000Y-248302200D01*
X183911000Y-253192200D02*
X183911000Y-252542200D01*
X182791000Y-248302200D02*
X182791000Y-252542200D01*
X182791000Y-251822200D02*
X185031000Y-251822200D01*
X182791000Y-251942200D02*
X185031000Y-251942200D01*
X182791000Y-251702200D02*
X185031000Y-251702200D01*
X185031000Y-248302200D02*
X182791000Y-248302200D01*
X185031000Y-252542200D02*
X185031000Y-248302200D01*
X182791000Y-252542200D02*
X185031000Y-252542200D01*
%TO.C,TP8*%
X105064800Y-168490200D02*
G75*
G03*
X105064800Y-168490200I-1200000J0D01*
G01*
D15*
%TO.C,TP22*%
X108134000Y-141986000D02*
G75*
G03*
X108134000Y-141986000I-1200000J0D01*
G01*
%TO.C,J9*%
X158690000Y-298510000D02*
X163890000Y-298510000D01*
X158690000Y-290830000D02*
X158690000Y-298510000D01*
X158690000Y-288230000D02*
X160020000Y-288230000D01*
X163890000Y-288230000D02*
X163890000Y-298510000D01*
X161290000Y-288230000D02*
X163890000Y-288230000D01*
X158690000Y-290830000D02*
X161290000Y-290830000D01*
X161290000Y-290830000D02*
X161290000Y-288230000D01*
X158690000Y-289560000D02*
X158690000Y-288230000D01*
%TO.C,TP23*%
X104070000Y-141986000D02*
G75*
G03*
X104070000Y-141986000I-1200000J0D01*
G01*
%TD*%
M02*
