%TF.GenerationSoftware,KiCad,Pcbnew,(6.0.0)*%
%TF.CreationDate,2022-01-02T22:46:40-08:00*%
%TF.ProjectId,thumbler_left,7468756d-626c-4657-925f-6c6566742e6b,rev?*%
%TF.SameCoordinates,Original*%
%TF.FileFunction,Copper,L1,Top*%
%TF.FilePolarity,Positive*%
%FSLAX46Y46*%
G04 Gerber Fmt 4.6, Leading zero omitted, Abs format (unit mm)*
G04 Created by KiCad (PCBNEW (6.0.0)) date 2022-01-02 22:46:40*
%MOMM*%
%LPD*%
G01*
G04 APERTURE LIST*
G04 Aperture macros list*
%AMRoundRect*
0 Rectangle with rounded corners*
0 $1 Rounding radius*
0 $2 $3 $4 $5 $6 $7 $8 $9 X,Y pos of 4 corners*
0 Add a 4 corners polygon primitive as box body*
4,1,4,$2,$3,$4,$5,$6,$7,$8,$9,$2,$3,0*
0 Add four circle primitives for the rounded corners*
1,1,$1+$1,$2,$3*
1,1,$1+$1,$4,$5*
1,1,$1+$1,$6,$7*
1,1,$1+$1,$8,$9*
0 Add four rect primitives between the rounded corners*
20,1,$1+$1,$2,$3,$4,$5,0*
20,1,$1+$1,$4,$5,$6,$7,0*
20,1,$1+$1,$6,$7,$8,$9,0*
20,1,$1+$1,$8,$9,$2,$3,0*%
%AMFreePoly0*
4,1,6,1.000000,0.000000,0.500000,-0.750000,-0.500000,-0.750000,-0.500000,0.750000,0.500000,0.750000,1.000000,0.000000,1.000000,0.000000,$1*%
%AMFreePoly1*
4,1,6,0.500000,-0.750000,-0.650000,-0.750000,-0.150000,0.000000,-0.650000,0.750000,0.500000,0.750000,0.500000,-0.750000,0.500000,-0.750000,$1*%
G04 Aperture macros list end*
%TA.AperFunction,ComponentPad*%
%ADD10R,1.600000X1.600000*%
%TD*%
%TA.AperFunction,ComponentPad*%
%ADD11O,1.600000X1.600000*%
%TD*%
%TA.AperFunction,ComponentPad*%
%ADD12C,2.500000*%
%TD*%
%TA.AperFunction,ComponentPad*%
%ADD13C,2.184400*%
%TD*%
%TA.AperFunction,ComponentPad*%
%ADD14R,1.700000X1.700000*%
%TD*%
%TA.AperFunction,ComponentPad*%
%ADD15O,1.700000X1.700000*%
%TD*%
%TA.AperFunction,SMDPad,CuDef*%
%ADD16RoundRect,0.249999X0.450001X-0.350001X0.450001X0.350001X-0.450001X0.350001X-0.450001X-0.350001X0*%
%TD*%
%TA.AperFunction,SMDPad,CuDef*%
%ADD17RoundRect,0.249999X-0.450001X0.350001X-0.450001X-0.350001X0.450001X-0.350001X0.450001X0.350001X0*%
%TD*%
%TA.AperFunction,SMDPad,CuDef*%
%ADD18C,2.000000*%
%TD*%
%TA.AperFunction,SMDPad,CuDef*%
%ADD19RoundRect,0.075000X-0.075000X0.662500X-0.075000X-0.662500X0.075000X-0.662500X0.075000X0.662500X0*%
%TD*%
%TA.AperFunction,SMDPad,CuDef*%
%ADD20RoundRect,0.075000X-0.662500X0.075000X-0.662500X-0.075000X0.662500X-0.075000X0.662500X0.075000X0*%
%TD*%
%TA.AperFunction,SMDPad,CuDef*%
%ADD21FreePoly0,270.000000*%
%TD*%
%TA.AperFunction,SMDPad,CuDef*%
%ADD22FreePoly1,270.000000*%
%TD*%
%TA.AperFunction,SMDPad,CuDef*%
%ADD23R,0.400000X1.600000*%
%TD*%
%TA.AperFunction,SMDPad,CuDef*%
%ADD24R,1.400000X1.500000*%
%TD*%
%TA.AperFunction,SMDPad,CuDef*%
%ADD25R,1.400000X1.200000*%
%TD*%
%TA.AperFunction,ComponentPad*%
%ADD26O,3.048000X1.850000*%
%TD*%
%TA.AperFunction,ViaPad*%
%ADD27C,0.600000*%
%TD*%
%TA.AperFunction,ViaPad*%
%ADD28C,0.800000*%
%TD*%
%TA.AperFunction,ViaPad*%
%ADD29C,0.450000*%
%TD*%
%TA.AperFunction,Conductor*%
%ADD30C,0.350000*%
%TD*%
%TA.AperFunction,Conductor*%
%ADD31C,0.250000*%
%TD*%
G04 APERTURE END LIST*
D10*
%TO.P,D6,1,K*%
%TO.N,L_ROW1*%
X107711000Y-186032200D03*
D11*
%TO.P,D6,2,A*%
%TO.N,Net-(D6-Pad2)*%
X107711000Y-178412200D03*
%TD*%
D10*
%TO.P,D3,1,K*%
%TO.N,L_ROW5*%
X88701000Y-262394000D03*
D11*
%TO.P,D3,2,A*%
%TO.N,Net-(D3-Pad2)*%
X88701000Y-254774000D03*
%TD*%
D10*
%TO.P,D29,1,K*%
%TO.N,L_ROW3*%
X201345800Y-263906000D03*
D11*
%TO.P,D29,2,A*%
%TO.N,Net-(D29-Pad2)*%
X201345800Y-256286000D03*
%TD*%
D10*
%TO.P,D30,1,K*%
%TO.N,L_ROW4*%
X219075000Y-276860000D03*
D11*
%TO.P,D30,2,A*%
%TO.N,Net-(D30-Pad2)*%
X219075000Y-269240000D03*
%TD*%
D10*
%TO.P,D31,1,K*%
%TO.N,L_ROW5*%
X229870000Y-295910000D03*
D11*
%TO.P,D31,2,A*%
%TO.N,Net-(D31-Pad2)*%
X229870000Y-288290000D03*
%TD*%
D12*
%TO.P,J4,1*%
%TO.N,GND*%
X217317306Y-149732831D03*
%TO.P,J4,2*%
%TO.N,Net-(J4-Pad2)*%
X224817306Y-149732831D03*
%TO.P,J4,3*%
%TO.N,L_RX*%
X232317306Y-149732831D03*
%TO.P,J4,4*%
%TO.N,+5V*%
X219817306Y-152232831D03*
%TO.P,J4,5*%
%TO.N,L_TX*%
X229817306Y-152232831D03*
D13*
%TO.P,J4,MH*%
%TO.N,N/C*%
X229817306Y-139732831D03*
X219817306Y-139732831D03*
%TD*%
D14*
%TO.P,J3,1,Pin_1*%
%TO.N,GND*%
X186695000Y-150490000D03*
D15*
%TO.P,J3,2,Pin_2*%
%TO.N,L_SWCLK*%
X186695000Y-153030000D03*
%TO.P,J3,3,Pin_3*%
%TO.N,L_SWDIO*%
X184155000Y-150490000D03*
%TO.P,J3,4,Pin_4*%
%TO.N,+3V3*%
X184155000Y-153030000D03*
%TD*%
D16*
%TO.P,R1,1*%
%TO.N,L_USB_D+*%
X113665000Y-147685000D03*
%TO.P,R1,2*%
%TO.N,Net-(J1-Pad3)*%
X113665000Y-145685000D03*
%TD*%
D17*
%TO.P,R2,1*%
%TO.N,Net-(J1-Pad2)*%
X116205000Y-145685000D03*
%TO.P,R2,2*%
%TO.N,L_USB_D-*%
X116205000Y-147685000D03*
%TD*%
D18*
%TO.P,TP2,1,1*%
%TO.N,L_COL1*%
X214630000Y-163816600D03*
%TD*%
%TO.P,TP3,1,1*%
%TO.N,L_COL2*%
X203200000Y-160020000D03*
%TD*%
%TO.P,TP4,1,1*%
%TO.N,L_COL3*%
X174752000Y-155702000D03*
%TD*%
%TO.P,TP5,1,1*%
%TO.N,L_COL4*%
X167132000Y-155702000D03*
%TD*%
%TO.P,TP7,1,1*%
%TO.N,L_COL6*%
X119816000Y-168275000D03*
%TD*%
%TO.P,TP10,1,1*%
%TO.N,L_ROW1*%
X102290000Y-186067000D03*
%TD*%
%TO.P,TP11,1,1*%
%TO.N,L_ROW2*%
X102290000Y-205117000D03*
%TD*%
%TO.P,TP12,1,1*%
%TO.N,L_ROW3*%
X97464000Y-224155000D03*
%TD*%
%TO.P,TP13,1,1*%
%TO.N,L_ROW4*%
X95250000Y-243205000D03*
%TD*%
%TO.P,TP14,1,1*%
%TO.N,L_ROW5*%
X92202000Y-263144000D03*
%TD*%
%TO.P,TP9,1,1*%
%TO.N,L_COL8*%
X212090000Y-244475000D03*
%TD*%
%TO.P,TP15,1,1*%
%TO.N,ENC_A*%
X170180000Y-291465000D03*
%TD*%
%TO.P,TP16,1,1*%
%TO.N,ENC_B*%
X153035000Y-291465000D03*
%TD*%
%TO.P,TP17,1,1*%
%TO.N,ENC_BN*%
X170180000Y-288290000D03*
%TD*%
%TO.P,TP18,1,1*%
%TO.N,ENC_DN*%
X170180000Y-297815000D03*
%TD*%
%TO.P,TP19,1,1*%
%TO.N,ENC_RT*%
X153035000Y-297815000D03*
%TD*%
%TO.P,TP20,1,1*%
%TO.N,ENC_UP*%
X170180000Y-294640000D03*
%TD*%
%TO.P,TP21,1,1*%
%TO.N,ENC_LF*%
X153035000Y-294640000D03*
%TD*%
D19*
%TO.P,U1,1,VBAT*%
%TO.N,+3V3*%
X172295000Y-142522500D03*
%TO.P,U1,2,PC13*%
%TO.N,unconnected-(U1-Pad2)*%
X171795000Y-142522500D03*
%TO.P,U1,3,PC14*%
%TO.N,unconnected-(U1-Pad3)*%
X171295000Y-142522500D03*
%TO.P,U1,4,PC15*%
%TO.N,unconnected-(U1-Pad4)*%
X170795000Y-142522500D03*
%TO.P,U1,5,PF0*%
%TO.N,unconnected-(U1-Pad5)*%
X170295000Y-142522500D03*
%TO.P,U1,6,PF1*%
%TO.N,unconnected-(U1-Pad6)*%
X169795000Y-142522500D03*
%TO.P,U1,7,NRST*%
%TO.N,~{RST}*%
X169295000Y-142522500D03*
%TO.P,U1,8,VSSA*%
%TO.N,GND*%
X168795000Y-142522500D03*
%TO.P,U1,9,VDDA*%
%TO.N,+3V3*%
X168295000Y-142522500D03*
%TO.P,U1,10,PA0*%
%TO.N,L_OPT4*%
X167795000Y-142522500D03*
%TO.P,U1,11,PA1*%
%TO.N,L_OPT3*%
X167295000Y-142522500D03*
%TO.P,U1,12,PA2*%
%TO.N,L_OPT2*%
X166795000Y-142522500D03*
D20*
%TO.P,U1,13,PA3*%
%TO.N,L_OPT1*%
X165382500Y-143935000D03*
%TO.P,U1,14,PA4*%
%TO.N,unconnected-(U1-Pad14)*%
X165382500Y-144435000D03*
%TO.P,U1,15,PA5*%
%TO.N,L_COL8*%
X165382500Y-144935000D03*
%TO.P,U1,16,PA6*%
%TO.N,ENC_B*%
X165382500Y-145435000D03*
%TO.P,U1,17,PA7*%
%TO.N,ENC_A*%
X165382500Y-145935000D03*
%TO.P,U1,18,PB0*%
%TO.N,ENC_LF*%
X165382500Y-146435000D03*
%TO.P,U1,19,PB1*%
%TO.N,ENC_DN*%
X165382500Y-146935000D03*
%TO.P,U1,20,PB2*%
%TO.N,ENC_RT*%
X165382500Y-147435000D03*
%TO.P,U1,21,PB10*%
%TO.N,ENC_UP*%
X165382500Y-147935000D03*
%TO.P,U1,22,PB11*%
%TO.N,ENC_BN*%
X165382500Y-148435000D03*
%TO.P,U1,23,VSS*%
%TO.N,GND*%
X165382500Y-148935000D03*
%TO.P,U1,24,VDD*%
%TO.N,+3V3*%
X165382500Y-149435000D03*
D19*
%TO.P,U1,25,PB12*%
%TO.N,L_COL7*%
X166795000Y-150847500D03*
%TO.P,U1,26,PB13*%
%TO.N,L_COL6*%
X167295000Y-150847500D03*
%TO.P,U1,27,PB14*%
%TO.N,L_COL5*%
X167795000Y-150847500D03*
%TO.P,U1,28,PB15*%
%TO.N,L_COL4*%
X168295000Y-150847500D03*
%TO.P,U1,29,PA8*%
%TO.N,L_COL3*%
X168795000Y-150847500D03*
%TO.P,U1,30,PA9*%
%TO.N,L_COL2*%
X169295000Y-150847500D03*
%TO.P,U1,31,PA10*%
%TO.N,L_COL1*%
X169795000Y-150847500D03*
%TO.P,U1,32,PA11*%
%TO.N,L_USB_D-*%
X170295000Y-150847500D03*
%TO.P,U1,33,PA12*%
%TO.N,L_USB_D+*%
X170795000Y-150847500D03*
%TO.P,U1,34,PA13*%
%TO.N,L_SWDIO*%
X171295000Y-150847500D03*
%TO.P,U1,35,VSS*%
%TO.N,GND*%
X171795000Y-150847500D03*
%TO.P,U1,36,VDDIO2*%
%TO.N,+3V3*%
X172295000Y-150847500D03*
D20*
%TO.P,U1,37,PA14*%
%TO.N,L_SWCLK*%
X173707500Y-149435000D03*
%TO.P,U1,38,PA15*%
%TO.N,L_ROW1*%
X173707500Y-148935000D03*
%TO.P,U1,39,PB3*%
%TO.N,L_ROW2*%
X173707500Y-148435000D03*
%TO.P,U1,40,PB4*%
%TO.N,L_ROW3*%
X173707500Y-147935000D03*
%TO.P,U1,41,PB5*%
%TO.N,L_ROW4*%
X173707500Y-147435000D03*
%TO.P,U1,42,PB6*%
%TO.N,L_TX*%
X173707500Y-146935000D03*
%TO.P,U1,43,PB7*%
%TO.N,L_RX*%
X173707500Y-146435000D03*
%TO.P,U1,44,BOOT0*%
%TO.N,L_BOOT0*%
X173707500Y-145935000D03*
%TO.P,U1,45,PB8*%
%TO.N,L_ROW5*%
X173707500Y-145435000D03*
%TO.P,U1,46,PB9*%
%TO.N,+3V3*%
X173707500Y-144935000D03*
%TO.P,U1,47,VSS*%
%TO.N,GND*%
X173707500Y-144435000D03*
%TO.P,U1,48,VDD*%
%TO.N,+3V3*%
X173707500Y-143935000D03*
%TD*%
D21*
%TO.P,JP1,1,A*%
%TO.N,Net-(J4-Pad2)*%
X224790000Y-159078000D03*
D22*
%TO.P,JP1,2,B*%
%TO.N,~{RST}*%
X224790000Y-160528000D03*
%TD*%
D14*
%TO.P,J2,1,Pin_1*%
%TO.N,GND*%
X191135000Y-153035000D03*
D15*
%TO.P,J2,2,Pin_2*%
%TO.N,L_TX*%
X191135000Y-150495000D03*
%TO.P,J2,3,Pin_3*%
%TO.N,L_RX*%
X193675000Y-153035000D03*
%TO.P,J2,4,Pin_4*%
%TO.N,+3V3*%
X193675000Y-150495000D03*
%TD*%
D18*
%TO.P,TP6,1,1*%
%TO.N,L_COL5*%
X138612000Y-168275000D03*
%TD*%
D23*
%TO.P,J1,1,VBUS*%
%TO.N,Net-(F1-Pad1)*%
X116895400Y-141278000D03*
%TO.P,J1,2,D-*%
%TO.N,Net-(J1-Pad2)*%
X116245400Y-141278000D03*
%TO.P,J1,3,D+*%
%TO.N,Net-(J1-Pad3)*%
X115595400Y-141278000D03*
%TO.P,J1,4,ID*%
%TO.N,unconnected-(J1-Pad4)*%
X114945400Y-141278000D03*
%TO.P,J1,5,GND*%
%TO.N,GND*%
X114295400Y-141278000D03*
D24*
%TO.P,J1,6,Shield*%
%TO.N,unconnected-(J1-Pad6)*%
X119645400Y-138168000D03*
X111545400Y-138168000D03*
D25*
X112345400Y-140668000D03*
X118845400Y-140668000D03*
%TD*%
D18*
%TO.P,TP1,1,1*%
%TO.N,+5V*%
X123190000Y-141478000D03*
%TD*%
D10*
%TO.P,D9,1,K*%
%TO.N,L_ROW1*%
X126761000Y-186032200D03*
D11*
%TO.P,D9,2,A*%
%TO.N,Net-(D9-Pad2)*%
X126761000Y-178412200D03*
%TD*%
D10*
%TO.P,D14,1,K*%
%TO.N,L_ROW1*%
X145811000Y-176032200D03*
D11*
%TO.P,D14,2,A*%
%TO.N,Net-(D14-Pad2)*%
X145811000Y-168412200D03*
%TD*%
D10*
%TO.P,D19,1,K*%
%TO.N,L_ROW1*%
X164861000Y-174032200D03*
D11*
%TO.P,D19,2,A*%
%TO.N,Net-(D19-Pad2)*%
X164861000Y-166412200D03*
%TD*%
D10*
%TO.P,D24,1,K*%
%TO.N,L_ROW1*%
X183911000Y-178032200D03*
D11*
%TO.P,D24,2,A*%
%TO.N,Net-(D24-Pad2)*%
X183911000Y-170412200D03*
%TD*%
D10*
%TO.P,D32,1,K*%
%TO.N,L_ROW2*%
X202961000Y-182032200D03*
D11*
%TO.P,D32,2,A*%
%TO.N,Net-(D32-Pad2)*%
X202961000Y-174412200D03*
%TD*%
D10*
%TO.P,D7,1,K*%
%TO.N,L_ROW2*%
X107711000Y-205082200D03*
D11*
%TO.P,D7,2,A*%
%TO.N,Net-(D7-Pad2)*%
X107711000Y-197462200D03*
%TD*%
D10*
%TO.P,D10,1,K*%
%TO.N,L_ROW2*%
X126761000Y-205082200D03*
D11*
%TO.P,D10,2,A*%
%TO.N,Net-(D10-Pad2)*%
X126761000Y-197462200D03*
%TD*%
D10*
%TO.P,D15,1,K*%
%TO.N,L_ROW2*%
X145811000Y-195082200D03*
D11*
%TO.P,D15,2,A*%
%TO.N,Net-(D15-Pad2)*%
X145811000Y-187462200D03*
%TD*%
D10*
%TO.P,D20,1,K*%
%TO.N,L_ROW2*%
X164861000Y-193082200D03*
D11*
%TO.P,D20,2,A*%
%TO.N,Net-(D20-Pad2)*%
X164861000Y-185462200D03*
%TD*%
D10*
%TO.P,D25,1,K*%
%TO.N,L_ROW2*%
X183911000Y-197082200D03*
D11*
%TO.P,D25,2,A*%
%TO.N,Net-(D25-Pad2)*%
X183911000Y-189462200D03*
%TD*%
D10*
%TO.P,D33,1,K*%
%TO.N,L_ROW3*%
X202961000Y-201082200D03*
D11*
%TO.P,D33,2,A*%
%TO.N,Net-(D33-Pad2)*%
X202961000Y-193462200D03*
%TD*%
D10*
%TO.P,D4,1,K*%
%TO.N,L_ROW3*%
X102331600Y-224155000D03*
D11*
%TO.P,D4,2,A*%
%TO.N,Net-(D4-Pad2)*%
X102331600Y-216535000D03*
%TD*%
D10*
%TO.P,D11,1,K*%
%TO.N,L_ROW3*%
X126761000Y-224132200D03*
D11*
%TO.P,D11,2,A*%
%TO.N,Net-(D11-Pad2)*%
X126761000Y-216512200D03*
%TD*%
D10*
%TO.P,D16,1,K*%
%TO.N,L_ROW3*%
X145811000Y-214132200D03*
D11*
%TO.P,D16,2,A*%
%TO.N,Net-(D16-Pad2)*%
X145811000Y-206512200D03*
%TD*%
D10*
%TO.P,D21,1,K*%
%TO.N,L_ROW3*%
X164861000Y-212132200D03*
D11*
%TO.P,D21,2,A*%
%TO.N,Net-(D21-Pad2)*%
X164861000Y-204512200D03*
%TD*%
D10*
%TO.P,D26,1,K*%
%TO.N,L_ROW3*%
X183911000Y-216132200D03*
D11*
%TO.P,D26,2,A*%
%TO.N,Net-(D26-Pad2)*%
X183911000Y-208512200D03*
%TD*%
D10*
%TO.P,D34,1,K*%
%TO.N,L_ROW4*%
X202961000Y-220132200D03*
D11*
%TO.P,D34,2,A*%
%TO.N,Net-(D34-Pad2)*%
X202961000Y-212512200D03*
%TD*%
D10*
%TO.P,D5,1,K*%
%TO.N,L_ROW4*%
X99695000Y-243205000D03*
D11*
%TO.P,D5,2,A*%
%TO.N,Net-(D5-Pad2)*%
X99695000Y-235585000D03*
%TD*%
D10*
%TO.P,D12,1,K*%
%TO.N,L_ROW4*%
X126761000Y-243182200D03*
D11*
%TO.P,D12,2,A*%
%TO.N,Net-(D12-Pad2)*%
X126761000Y-235562200D03*
%TD*%
D10*
%TO.P,D17,1,K*%
%TO.N,L_ROW4*%
X145811000Y-233182200D03*
D11*
%TO.P,D17,2,A*%
%TO.N,Net-(D17-Pad2)*%
X145811000Y-225562200D03*
%TD*%
D10*
%TO.P,D22,1,K*%
%TO.N,L_ROW4*%
X164861000Y-231182200D03*
D11*
%TO.P,D22,2,A*%
%TO.N,Net-(D22-Pad2)*%
X164861000Y-223562200D03*
%TD*%
D10*
%TO.P,D27,1,K*%
%TO.N,L_ROW4*%
X183911000Y-235182200D03*
D11*
%TO.P,D27,2,A*%
%TO.N,Net-(D27-Pad2)*%
X183911000Y-227562200D03*
%TD*%
D10*
%TO.P,D35,1,K*%
%TO.N,L_ROW5*%
X202961000Y-239182200D03*
D11*
%TO.P,D35,2,A*%
%TO.N,Net-(D35-Pad2)*%
X202961000Y-231562200D03*
%TD*%
D10*
%TO.P,D8,1,K*%
%TO.N,L_ROW5*%
X107711000Y-262232200D03*
D11*
%TO.P,D8,2,A*%
%TO.N,Net-(D8-Pad2)*%
X107711000Y-254612200D03*
%TD*%
D10*
%TO.P,D13,1,K*%
%TO.N,L_ROW5*%
X126761000Y-262232200D03*
D11*
%TO.P,D13,2,A*%
%TO.N,Net-(D13-Pad2)*%
X126761000Y-254612200D03*
%TD*%
D10*
%TO.P,D18,1,K*%
%TO.N,L_ROW5*%
X145811000Y-252232200D03*
D11*
%TO.P,D18,2,A*%
%TO.N,Net-(D18-Pad2)*%
X145811000Y-244612200D03*
%TD*%
D10*
%TO.P,D23,1,K*%
%TO.N,L_ROW5*%
X164861000Y-250232200D03*
D11*
%TO.P,D23,2,A*%
%TO.N,Net-(D23-Pad2)*%
X164861000Y-242612200D03*
%TD*%
D10*
%TO.P,D28,1,K*%
%TO.N,L_ROW5*%
X183911000Y-254232200D03*
D11*
%TO.P,D28,2,A*%
%TO.N,Net-(D28-Pad2)*%
X183911000Y-246612200D03*
%TD*%
D18*
%TO.P,TP8,1,1*%
%TO.N,L_COL7*%
X103864800Y-168490200D03*
%TD*%
%TO.P,TP22,1,1*%
%TO.N,L_USB_D-*%
X106934000Y-141986000D03*
%TD*%
D14*
%TO.P,J9,1,Pin_1*%
%TO.N,GND*%
X160020000Y-289560000D03*
D15*
%TO.P,J9,2,Pin_2*%
%TO.N,ENC_BN*%
X162560000Y-289560000D03*
%TO.P,J9,3,Pin_3*%
%TO.N,ENC_B*%
X160020000Y-292100000D03*
%TO.P,J9,4,Pin_4*%
%TO.N,ENC_A*%
X162560000Y-292100000D03*
%TO.P,J9,5,Pin_5*%
%TO.N,ENC_LF*%
X160020000Y-294640000D03*
%TO.P,J9,6,Pin_6*%
%TO.N,ENC_UP*%
X162560000Y-294640000D03*
%TO.P,J9,7,Pin_7*%
%TO.N,ENC_RT*%
X160020000Y-297180000D03*
%TO.P,J9,8,Pin_8*%
%TO.N,ENC_DN*%
X162560000Y-297180000D03*
%TD*%
D18*
%TO.P,TP23,1,1*%
%TO.N,L_USB_D+*%
X102870000Y-141986000D03*
%TD*%
D26*
%TO.P,SW1,1,1*%
%TO.N,GND*%
X126475000Y-151725000D03*
X138975000Y-151725000D03*
%TO.P,SW1,2,2*%
%TO.N,~{RST}*%
X126475000Y-146725000D03*
X138975000Y-146725000D03*
%TD*%
D10*
%TO.P,SW2,1*%
%TO.N,GND*%
X142925750Y-154294250D03*
D11*
%TO.P,SW2,2*%
X142925750Y-151754250D03*
%TO.P,SW2,3*%
X142925750Y-149214250D03*
%TO.P,SW2,4*%
X142925750Y-146674250D03*
%TO.P,SW2,5*%
%TO.N,+3V3*%
X142925750Y-144134250D03*
%TO.P,SW2,6*%
%TO.N,L_BOOT0*%
X150545750Y-144134250D03*
%TO.P,SW2,7*%
%TO.N,L_OPT4*%
X150545750Y-146674250D03*
%TO.P,SW2,8*%
%TO.N,L_OPT3*%
X150545750Y-149214250D03*
%TO.P,SW2,9*%
%TO.N,L_OPT2*%
X150545750Y-151754250D03*
%TO.P,SW2,10*%
%TO.N,L_OPT1*%
X150545750Y-154294250D03*
%TD*%
D27*
%TO.N,GND*%
X171450000Y-152400000D03*
X169545000Y-140335000D03*
X163830000Y-153416000D03*
X166878000Y-148336000D03*
X175260000Y-151765000D03*
X135890000Y-140970000D03*
X156845000Y-142157502D03*
X114300000Y-142875000D03*
X175259999Y-144779999D03*
X106934000Y-153416000D03*
X109728000Y-153416000D03*
X99060000Y-148336000D03*
X112522000Y-149352000D03*
D28*
X175006000Y-140462000D03*
D27*
%TO.N,+3V3*%
X104140000Y-148844000D03*
X107315000Y-150495000D03*
X168323436Y-140675575D03*
X174056100Y-142727600D03*
X172786077Y-152310500D03*
X165039100Y-150628100D03*
D29*
%TO.N,~{RST}*%
X168910002Y-144018000D03*
D27*
%TO.N,+5V*%
X123190000Y-151765000D03*
D29*
%TO.N,L_TX*%
X175006000Y-146685000D03*
D28*
X225044000Y-155282497D03*
%TO.N,L_RX*%
X225044000Y-156210000D03*
D29*
X172212000Y-147066000D03*
%TO.N,L_SWCLK*%
X175006000Y-150368000D03*
%TO.N,L_SWDIO*%
X171450000Y-149225000D03*
%TO.N,L_COL7*%
X106045000Y-167640000D03*
%TO.N,L_BOOT0*%
X172212000Y-145542000D03*
%TO.N,L_USB_D+*%
X170688000Y-149606000D03*
X164084000Y-149606000D03*
%TO.N,L_USB_D-*%
X163576000Y-149098000D03*
X169926000Y-149098000D03*
%TO.N,L_COL6*%
X121920000Y-167640000D03*
%TO.N,L_COL5*%
X140970000Y-167640000D03*
%TO.N,L_COL4*%
X164465000Y-156845000D03*
%TO.N,L_COL3*%
X176784000Y-155702000D03*
%TO.N,L_COL2*%
X176022000Y-153924000D03*
X198120000Y-159385000D03*
%TO.N,L_COL8*%
X166624000Y-144780000D03*
X214630000Y-243840000D03*
%TO.N,L_COL1*%
X217424000Y-162814000D03*
X175897840Y-153208100D03*
%TO.N,Net-(F1-Pad1)*%
X118110000Y-144145000D03*
%TO.N,ENC_DN*%
X155448000Y-154178000D03*
%TO.N,ENC_RT*%
X156210000Y-153924000D03*
X142621000Y-287274000D03*
%TO.N,ENC_UP*%
X156972000Y-153670000D03*
X159893000Y-287020000D03*
%TO.N,ENC_LF*%
X154784117Y-154432000D03*
X145669000Y-288290000D03*
%TO.N,ENC_A*%
X154178000Y-154686000D03*
%TO.N,ENC_B*%
X153416000Y-154940000D03*
%TO.N,ENC_BN*%
X159385000Y-151765000D03*
X166497000Y-289560000D03*
%TD*%
D30*
%TO.N,GND*%
X173707500Y-144435000D02*
X174406769Y-144435000D01*
X169545000Y-140335000D02*
X168795000Y-141085000D01*
X114295400Y-142870400D02*
X114300000Y-142875000D01*
X168795000Y-141085000D02*
X168795000Y-142522500D01*
X171795000Y-150847500D02*
X171795000Y-152055000D01*
X171795000Y-152055000D02*
X171450000Y-152400000D01*
X114295400Y-141278000D02*
X114295400Y-142870400D01*
X165382500Y-148935000D02*
X166279000Y-148935000D01*
X174406769Y-144435000D02*
X174915000Y-144435000D01*
X174915000Y-144435000D02*
X175259999Y-144779999D01*
X166279000Y-148935000D02*
X166878000Y-148336000D01*
%TO.N,+3V3*%
X173707500Y-144935000D02*
X172621000Y-144935000D01*
X165039100Y-149778400D02*
X165039100Y-150628100D01*
X174056100Y-142727600D02*
X174056100Y-143489600D01*
X168295000Y-140704011D02*
X168323436Y-140675575D01*
X172466000Y-144780000D02*
X172466000Y-144081500D01*
X172295000Y-142522500D02*
X172295000Y-143260000D01*
X172950000Y-143915000D02*
X172970000Y-143935000D01*
X173802100Y-143743600D02*
X173802100Y-143840400D01*
X172295000Y-151819423D02*
X172786077Y-152310500D01*
X172632500Y-143915000D02*
X172950000Y-143915000D01*
X168295000Y-141538500D02*
X168295000Y-140704011D01*
X168295000Y-141538500D02*
X168295000Y-142522500D01*
X173802100Y-143840400D02*
X173707500Y-143935000D01*
X172970000Y-143935000D02*
X173707500Y-143935000D01*
X172295000Y-151765000D02*
X172295000Y-150847500D01*
X172466000Y-144081500D02*
X172632500Y-143915000D01*
X172295000Y-143260000D02*
X172950000Y-143915000D01*
X165039100Y-149778400D02*
X165382500Y-149435000D01*
X172621000Y-144935000D02*
X172466000Y-144780000D01*
X174056100Y-143489600D02*
X173802100Y-143743600D01*
D31*
%TO.N,~{RST}*%
X169524408Y-141224000D02*
X203327000Y-141224000D01*
X169295000Y-143633000D02*
X168910002Y-144018000D01*
X203327000Y-141224000D02*
X222631000Y-160528000D01*
X169295000Y-141453408D02*
X169524408Y-141224000D01*
X169295000Y-142522500D02*
X169295000Y-141453408D01*
X222631000Y-160528000D02*
X224790000Y-160528000D01*
X169295000Y-142522500D02*
X169295000Y-143633000D01*
%TO.N,L_ROW2*%
X164861000Y-193082200D02*
X147811000Y-193082200D01*
X202961000Y-182032200D02*
X202961000Y-183082200D01*
X202961000Y-182032200D02*
X202961000Y-176291000D01*
X183911000Y-197082200D02*
X181842200Y-197082200D01*
X181842200Y-197082200D02*
X177842200Y-193082200D01*
X145811000Y-197089000D02*
X137817800Y-205082200D01*
X107711000Y-205082200D02*
X102324800Y-205082200D01*
X126761000Y-205082200D02*
X107711000Y-205082200D01*
X137817800Y-205082200D02*
X126761000Y-205082200D01*
X147811000Y-193082200D02*
X145811000Y-195082200D01*
X202961000Y-183082200D02*
X188961000Y-197082200D01*
X188961000Y-197082200D02*
X183911000Y-197082200D01*
X175105000Y-148435000D02*
X173707500Y-148435000D01*
X102324800Y-205082200D02*
X102290000Y-205117000D01*
X177842200Y-193082200D02*
X164861000Y-193082200D01*
X202961000Y-176291000D02*
X175105000Y-148435000D01*
X145811000Y-195082200D02*
X145811000Y-197089000D01*
%TO.N,L_ROW3*%
X145811000Y-214234000D02*
X135912800Y-224132200D01*
X164861000Y-212132200D02*
X179911000Y-212132200D01*
X179911000Y-212132200D02*
X183911000Y-216132200D01*
X145811000Y-214132200D02*
X145811000Y-214234000D01*
X202961000Y-201082200D02*
X202961000Y-202132200D01*
X194608022Y-147935000D02*
X205105000Y-158431978D01*
X205105000Y-158431978D02*
X205105000Y-198938200D01*
X102331600Y-224155000D02*
X97464000Y-224155000D01*
X162861000Y-214132200D02*
X164861000Y-212132200D01*
X135912800Y-224132200D02*
X126761000Y-224132200D01*
X188961000Y-216132200D02*
X188362800Y-216132200D01*
X188362800Y-216132200D02*
X183911000Y-216132200D01*
X126761000Y-224132200D02*
X102354400Y-224132200D01*
X145811000Y-214132200D02*
X162861000Y-214132200D01*
X102354400Y-224132200D02*
X102331600Y-224155000D01*
X173707500Y-147935000D02*
X194608022Y-147935000D01*
X202961000Y-202132200D02*
X188961000Y-216132200D01*
X205105000Y-198938200D02*
X202961000Y-201082200D01*
%TO.N,L_ROW4*%
X205740000Y-217353200D02*
X202961000Y-220132200D01*
X205740000Y-158057227D02*
X205740000Y-217353200D01*
X145811000Y-233182200D02*
X135811000Y-243182200D01*
X126761000Y-243182200D02*
X99717800Y-243182200D01*
X188961000Y-235182200D02*
X183911000Y-235182200D01*
X202961000Y-220132200D02*
X202961000Y-221182200D01*
X99717800Y-243182200D02*
X99695000Y-243205000D01*
X145948200Y-233045000D02*
X145811000Y-233182200D01*
X99695000Y-243205000D02*
X95250000Y-243205000D01*
X164861000Y-231182200D02*
X162998200Y-233045000D01*
X183911000Y-235182200D02*
X179868800Y-231140000D01*
X164903200Y-231140000D02*
X164861000Y-231182200D01*
X179868800Y-231140000D02*
X164903200Y-231140000D01*
X135811000Y-243182200D02*
X126761000Y-243182200D01*
X162998200Y-233045000D02*
X145948200Y-233045000D01*
X202961000Y-221182200D02*
X188961000Y-235182200D01*
X173707500Y-147435000D02*
X195117773Y-147435000D01*
X195117773Y-147435000D02*
X205740000Y-158057227D01*
%TO.N,L_ROW5*%
X164861000Y-250232200D02*
X179911000Y-250232200D01*
X183911000Y-254232200D02*
X188997800Y-254232200D01*
X126761000Y-262232200D02*
X135811000Y-262232200D01*
X202961000Y-240269000D02*
X202961000Y-239182200D01*
X220345000Y-160020000D02*
X220345000Y-226399327D01*
X173707500Y-145435000D02*
X174993637Y-145435000D01*
X188997800Y-254232200D02*
X202961000Y-240269000D01*
X145811000Y-252232200D02*
X162861000Y-252232200D01*
X88701000Y-262394000D02*
X89451000Y-263144000D01*
X175625138Y-146066501D02*
X206391501Y-146066501D01*
X225588800Y-295910000D02*
X183911000Y-254232200D01*
X174993637Y-145435000D02*
X175625138Y-146066501D01*
X179911000Y-250232200D02*
X183911000Y-254232200D01*
X106799200Y-263144000D02*
X107711000Y-262232200D01*
X89451000Y-263144000D02*
X106799200Y-263144000D01*
X135811000Y-262232200D02*
X145811000Y-252232200D01*
X107711000Y-262232200D02*
X126761000Y-262232200D01*
X229870000Y-295910000D02*
X225588800Y-295910000D01*
X206391501Y-146066501D02*
X220345000Y-160020000D01*
X220345000Y-226399327D02*
X207562127Y-239182200D01*
X162861000Y-252232200D02*
X164861000Y-250232200D01*
X207562127Y-239182200D02*
X202961000Y-239182200D01*
%TO.N,L_ROW1*%
X176722678Y-151159794D02*
X176722678Y-154497678D01*
X179747200Y-174032200D02*
X183747200Y-178032200D01*
X183747200Y-178032200D02*
X183911000Y-178032200D01*
X173707500Y-148935000D02*
X174497884Y-148935000D01*
X164861000Y-174032200D02*
X147811000Y-174032200D01*
X147811000Y-174032200D02*
X145811000Y-176032200D01*
X135811000Y-186032200D02*
X126761000Y-186032200D01*
X174497884Y-148935000D02*
X176722678Y-151159794D01*
X126761000Y-186032200D02*
X107711000Y-186032200D01*
X164861000Y-174032200D02*
X179747200Y-174032200D01*
X176722678Y-154497678D02*
X179747200Y-157522200D01*
X107711000Y-186032200D02*
X102324800Y-186032200D01*
X179747200Y-157522200D02*
X179747200Y-174032200D01*
X145811000Y-176032200D02*
X135811000Y-186032200D01*
X102324800Y-186032200D02*
X102290000Y-186067000D01*
D30*
%TO.N,+5V*%
X124825000Y-138700000D02*
X123190000Y-140335000D01*
X123190000Y-140335000D02*
X123190000Y-151765000D01*
X219817306Y-152232831D02*
X216240831Y-152232831D01*
X216240831Y-152232831D02*
X202708000Y-138700000D01*
X202708000Y-138700000D02*
X124825000Y-138700000D01*
D31*
%TO.N,L_TX*%
X173707500Y-146935000D02*
X174756000Y-146935000D01*
X174756000Y-146935000D02*
X175006000Y-146685000D01*
X226987503Y-155282497D02*
X225044000Y-155282497D01*
X229822000Y-152228137D02*
X229822000Y-152448000D01*
X229822000Y-152448000D02*
X226987503Y-155282497D01*
%TO.N,L_RX*%
X232317306Y-149732831D02*
X232317306Y-152238694D01*
X232317306Y-152238694D02*
X228346000Y-156210000D01*
X173707500Y-146435000D02*
X172843000Y-146435000D01*
X228346000Y-156210000D02*
X225044000Y-156210000D01*
X172843000Y-146435000D02*
X172212000Y-147066000D01*
%TO.N,L_SWCLK*%
X173707500Y-149435000D02*
X174327000Y-149435000D01*
X174327000Y-149435000D02*
X175006000Y-150114000D01*
X175006000Y-150114000D02*
X175006000Y-150368000D01*
%TO.N,L_SWDIO*%
X171295000Y-149380000D02*
X171450000Y-149225000D01*
X171295000Y-150847500D02*
X171295000Y-149380000D01*
%TO.N,L_COL7*%
X105194800Y-168490200D02*
X103864800Y-168490200D01*
X159258000Y-159766000D02*
X113919000Y-159766000D01*
X166795000Y-150847500D02*
X166795000Y-152229000D01*
X106045000Y-167640000D02*
X105194800Y-168490200D01*
X113919000Y-159766000D02*
X106045000Y-167640000D01*
X166795000Y-152229000D02*
X159258000Y-159766000D01*
%TO.N,L_BOOT0*%
X173707500Y-145935000D02*
X172605000Y-145935000D01*
X172605000Y-145935000D02*
X172212000Y-145542000D01*
%TO.N,L_USB_D+*%
X113665000Y-147685000D02*
X114131119Y-147685000D01*
X106730800Y-143560800D02*
X104444800Y-143560800D01*
X170795000Y-149713000D02*
X170688000Y-149606000D01*
X113665000Y-147685000D02*
X113046000Y-147066000D01*
X163624296Y-149606000D02*
X164084000Y-149606000D01*
X122402119Y-155956000D02*
X157274296Y-155956000D01*
X114131119Y-147685000D02*
X122402119Y-155956000D01*
X157274296Y-155956000D02*
X163624296Y-149606000D01*
X113046000Y-147066000D02*
X110236000Y-147066000D01*
X110236000Y-147066000D02*
X106730800Y-143560800D01*
X104444800Y-143560800D02*
X102870000Y-141986000D01*
X170795000Y-150847500D02*
X170795000Y-149713000D01*
%TO.N,L_USB_D-*%
X170295000Y-150847500D02*
X170295000Y-149975000D01*
X157117925Y-155578489D02*
X163576000Y-149120414D01*
X115205000Y-146685000D02*
X116205000Y-147685000D01*
X110490000Y-146685000D02*
X115205000Y-146685000D01*
X169926000Y-149606000D02*
X169926000Y-149098000D01*
X163576000Y-149120414D02*
X163576000Y-149098000D01*
X106934000Y-143129000D02*
X110490000Y-146685000D01*
X170295000Y-149975000D02*
X169926000Y-149606000D01*
X116205000Y-149225000D02*
X122558489Y-155578489D01*
X106934000Y-141986000D02*
X106934000Y-143129000D01*
X122558489Y-155578489D02*
X157117925Y-155578489D01*
X116205000Y-147685000D02*
X116205000Y-149225000D01*
%TO.N,L_COL6*%
X167295000Y-150847500D02*
X167295000Y-152262174D01*
X121285000Y-168275000D02*
X119816000Y-168275000D01*
X159414163Y-160143011D02*
X129416989Y-160143011D01*
X167295000Y-152262174D02*
X159414163Y-160143011D01*
X121920000Y-167640000D02*
X121285000Y-168275000D01*
X129416989Y-160143011D02*
X121920000Y-167640000D01*
%TO.N,L_COL5*%
X167795000Y-152295348D02*
X159570326Y-160520022D01*
X167795000Y-150847500D02*
X167795000Y-152295348D01*
X148089978Y-160520022D02*
X140970000Y-167640000D01*
X159570326Y-160520022D02*
X148089978Y-160520022D01*
X140970000Y-167640000D02*
X140335000Y-168275000D01*
X140335000Y-168275000D02*
X138612000Y-168275000D01*
%TO.N,L_COL4*%
X165989000Y-156845000D02*
X164465000Y-156845000D01*
X168295000Y-154539000D02*
X165989000Y-156845000D01*
X168295000Y-150847500D02*
X168295000Y-154539000D01*
%TO.N,L_COL3*%
X172212000Y-155702000D02*
X176784000Y-155702000D01*
X168795000Y-150847500D02*
X168795000Y-152285000D01*
X168795000Y-152285000D02*
X172212000Y-155702000D01*
%TO.N,L_COL2*%
X198755000Y-160020000D02*
X203200000Y-160020000D01*
X169295000Y-150847500D02*
X169295000Y-152204633D01*
X198120000Y-159385000D02*
X198755000Y-160020000D01*
X171014367Y-153924000D02*
X176022000Y-153924000D01*
X169295000Y-152204633D02*
X171014367Y-153924000D01*
%TO.N,L_COL8*%
X166469000Y-144935000D02*
X166624000Y-144780000D01*
X214630000Y-243840000D02*
X213995000Y-244475000D01*
X165382500Y-144935000D02*
X166469000Y-144935000D01*
X213995000Y-244475000D02*
X212090000Y-244475000D01*
%TO.N,L_COL1*%
X175851740Y-153162000D02*
X175897840Y-153208100D01*
X214630000Y-163816600D02*
X216421400Y-163816600D01*
X169795000Y-152056693D02*
X170900307Y-153162000D01*
X169795000Y-150847500D02*
X169795000Y-152056693D01*
X216421400Y-163816600D02*
X217424000Y-162814000D01*
X170900307Y-153162000D02*
X175851740Y-153162000D01*
%TO.N,L_OPT4*%
X157520000Y-140335000D02*
X151180750Y-146674250D01*
X167795000Y-142522500D02*
X167795000Y-141125000D01*
X151180750Y-146674250D02*
X150545750Y-146674250D01*
X167005000Y-140335000D02*
X157520000Y-140335000D01*
X167795000Y-141125000D02*
X167005000Y-140335000D01*
%TO.N,L_OPT3*%
X159067500Y-140970000D02*
X150823250Y-149214250D01*
X166715000Y-140970000D02*
X159067500Y-140970000D01*
X150823250Y-149214250D02*
X150545750Y-149214250D01*
X167295000Y-142522500D02*
X167295000Y-141550000D01*
X167295000Y-141550000D02*
X166715000Y-140970000D01*
%TO.N,L_OPT2*%
X166795000Y-141958750D02*
X166441250Y-141605000D01*
X166441250Y-141605000D02*
X160655000Y-141605000D01*
X160655000Y-141605000D02*
X150545750Y-151714250D01*
X166795000Y-142522500D02*
X166795000Y-141958750D01*
X150545750Y-151714250D02*
X150545750Y-151754250D01*
%TO.N,L_OPT1*%
X151180750Y-154294250D02*
X150545750Y-154294250D01*
X165382500Y-143935000D02*
X161540000Y-143935000D01*
X161540000Y-143935000D02*
X151180750Y-154294250D01*
D30*
%TO.N,Net-(F1-Pad1)*%
X116895400Y-142930400D02*
X118110000Y-144145000D01*
X116895400Y-141278000D02*
X116895400Y-142930400D01*
D31*
%TO.N,Net-(J1-Pad2)*%
X116245400Y-141278000D02*
X116245400Y-145644600D01*
X116245400Y-145644600D02*
X116205000Y-145685000D01*
%TO.N,Net-(J1-Pad3)*%
X113665000Y-145685000D02*
X113665000Y-144780000D01*
X115595400Y-142849600D02*
X115595400Y-141278000D01*
X113665000Y-144780000D02*
X115595400Y-142849600D01*
%TO.N,Net-(J4-Pad2)*%
X224028000Y-150522137D02*
X224817306Y-149732831D01*
X224028000Y-158316000D02*
X224028000Y-150522137D01*
X224790000Y-159078000D02*
X224028000Y-158316000D01*
%TO.N,ENC_DN*%
X166687500Y-297180000D02*
X167322500Y-297815000D01*
X155448000Y-153162000D02*
X155448000Y-154178000D01*
X165382500Y-146935000D02*
X161675000Y-146935000D01*
X167322500Y-297815000D02*
X170180000Y-297815000D01*
X162560000Y-297180000D02*
X166687500Y-297180000D01*
X161675000Y-146935000D02*
X155448000Y-153162000D01*
%TO.N,ENC_RT*%
X165382500Y-147435000D02*
X161822941Y-147435000D01*
X153035000Y-297815000D02*
X142621000Y-287401000D01*
X153035000Y-297815000D02*
X159385000Y-297815000D01*
X142621000Y-287401000D02*
X142621000Y-287274000D01*
X156210000Y-153047941D02*
X156210000Y-153924000D01*
X161822941Y-147435000D02*
X156210000Y-153047941D01*
X159385000Y-297815000D02*
X160020000Y-297180000D01*
%TO.N,ENC_UP*%
X165382500Y-147935000D02*
X161945000Y-147935000D01*
X161290000Y-293370000D02*
X161290000Y-288417000D01*
X156972000Y-152908000D02*
X156972000Y-153670000D01*
X161290000Y-288417000D02*
X159893000Y-287020000D01*
X162560000Y-294640000D02*
X170180000Y-294640000D01*
X162560000Y-294640000D02*
X161290000Y-293370000D01*
X161945000Y-147935000D02*
X156972000Y-152908000D01*
%TO.N,ENC_LF*%
X161540000Y-146435000D02*
X154784117Y-153190883D01*
X154784117Y-153190883D02*
X154784117Y-154432000D01*
X165382500Y-146435000D02*
X161540000Y-146435000D01*
X160020000Y-294640000D02*
X152019000Y-294640000D01*
X152019000Y-294640000D02*
X145669000Y-288290000D01*
%TO.N,ENC_A*%
X166687500Y-292100000D02*
X167322500Y-291465000D01*
X161405000Y-145935000D02*
X154178000Y-153162000D01*
X162560000Y-292100000D02*
X166687500Y-292100000D01*
X154178000Y-153162000D02*
X154178000Y-154686000D01*
X167322500Y-291465000D02*
X170180000Y-291465000D01*
X165382500Y-145935000D02*
X161405000Y-145935000D01*
%TO.N,ENC_B*%
X153416000Y-153289000D02*
X153416000Y-154940000D01*
X165382500Y-145435000D02*
X161270000Y-145435000D01*
X156210000Y-292100000D02*
X160020000Y-292100000D01*
X153035000Y-291465000D02*
X155575000Y-291465000D01*
X155575000Y-291465000D02*
X156210000Y-292100000D01*
X161270000Y-145435000D02*
X153416000Y-153289000D01*
%TO.N,ENC_BN*%
X162560000Y-289560000D02*
X166497000Y-289560000D01*
X162122828Y-148435000D02*
X159385000Y-151172828D01*
X167767000Y-288290000D02*
X166497000Y-289560000D01*
X159385000Y-151172828D02*
X159385000Y-151765000D01*
X170180000Y-288290000D02*
X167767000Y-288290000D01*
X165382500Y-148435000D02*
X162122828Y-148435000D01*
%TD*%
M02*
