%TF.GenerationSoftware,KiCad,Pcbnew,(6.0.0)*%
%TF.CreationDate,2022-01-02T22:00:42-08:00*%
%TF.ProjectId,thumbler_left,7468756d-626c-4657-925f-6c6566742e6b,rev?*%
%TF.SameCoordinates,Original*%
%TF.FileFunction,Copper,L4,Bot*%
%TF.FilePolarity,Positive*%
%FSLAX46Y46*%
G04 Gerber Fmt 4.6, Leading zero omitted, Abs format (unit mm)*
G04 Created by KiCad (PCBNEW (6.0.0)) date 2022-01-02 22:00:42*
%MOMM*%
%LPD*%
G01*
G04 APERTURE LIST*
G04 Aperture macros list*
%AMRoundRect*
0 Rectangle with rounded corners*
0 $1 Rounding radius*
0 $2 $3 $4 $5 $6 $7 $8 $9 X,Y pos of 4 corners*
0 Add a 4 corners polygon primitive as box body*
4,1,4,$2,$3,$4,$5,$6,$7,$8,$9,$2,$3,0*
0 Add four circle primitives for the rounded corners*
1,1,$1+$1,$2,$3*
1,1,$1+$1,$4,$5*
1,1,$1+$1,$6,$7*
1,1,$1+$1,$8,$9*
0 Add four rect primitives between the rounded corners*
20,1,$1+$1,$2,$3,$4,$5,0*
20,1,$1+$1,$4,$5,$6,$7,0*
20,1,$1+$1,$6,$7,$8,$9,0*
20,1,$1+$1,$8,$9,$2,$3,0*%
%AMRotRect*
0 Rectangle, with rotation*
0 The origin of the aperture is its center*
0 $1 length*
0 $2 width*
0 $3 Rotation angle, in degrees counterclockwise*
0 Add horizontal line*
21,1,$1,$2,0,0,$3*%
%AMFreePoly0*
4,1,9,3.862500,-0.866500,0.737500,-0.866500,0.737500,-0.450000,-0.737500,-0.450000,-0.737500,0.450000,0.737500,0.450000,0.737500,0.866500,3.862500,0.866500,3.862500,-0.866500,3.862500,-0.866500,$1*%
G04 Aperture macros list end*
%TA.AperFunction,SMDPad,CuDef*%
%ADD10R,2.550000X2.500000*%
%TD*%
%TA.AperFunction,ComponentPad*%
%ADD11R,1.600000X1.600000*%
%TD*%
%TA.AperFunction,ComponentPad*%
%ADD12O,1.600000X1.600000*%
%TD*%
%TA.AperFunction,ComponentPad*%
%ADD13C,2.500000*%
%TD*%
%TA.AperFunction,ComponentPad*%
%ADD14C,2.184400*%
%TD*%
%TA.AperFunction,ComponentPad*%
%ADD15O,1.700000X1.700000*%
%TD*%
%TA.AperFunction,ComponentPad*%
%ADD16R,1.700000X1.700000*%
%TD*%
%TA.AperFunction,SMDPad,CuDef*%
%ADD17RotRect,2.550000X2.500000X350.000000*%
%TD*%
%TA.AperFunction,SMDPad,CuDef*%
%ADD18RotRect,2.550000X2.500000X324.600000*%
%TD*%
%TA.AperFunction,SMDPad,CuDef*%
%ADD19RotRect,2.550000X2.500000X300.000000*%
%TD*%
%TA.AperFunction,SMDPad,CuDef*%
%ADD20RoundRect,0.250000X-0.475000X0.337500X-0.475000X-0.337500X0.475000X-0.337500X0.475000X0.337500X0*%
%TD*%
%TA.AperFunction,SMDPad,CuDef*%
%ADD21RoundRect,0.237500X-0.237500X0.300000X-0.237500X-0.300000X0.237500X-0.300000X0.237500X0.300000X0*%
%TD*%
%TA.AperFunction,SMDPad,CuDef*%
%ADD22RoundRect,0.237500X-0.300000X-0.237500X0.300000X-0.237500X0.300000X0.237500X-0.300000X0.237500X0*%
%TD*%
%TA.AperFunction,SMDPad,CuDef*%
%ADD23RoundRect,0.237500X0.237500X-0.300000X0.237500X0.300000X-0.237500X0.300000X-0.237500X-0.300000X0*%
%TD*%
%TA.AperFunction,SMDPad,CuDef*%
%ADD24RoundRect,0.250000X0.337500X0.475000X-0.337500X0.475000X-0.337500X-0.475000X0.337500X-0.475000X0*%
%TD*%
%TA.AperFunction,SMDPad,CuDef*%
%ADD25RoundRect,0.250000X-0.625000X0.462500X-0.625000X-0.462500X0.625000X-0.462500X0.625000X0.462500X0*%
%TD*%
%TA.AperFunction,SMDPad,CuDef*%
%ADD26RoundRect,0.249999X0.450001X-0.350001X0.450001X0.350001X-0.450001X0.350001X-0.450001X-0.350001X0*%
%TD*%
%TA.AperFunction,SMDPad,CuDef*%
%ADD27RoundRect,0.249999X-0.450001X0.350001X-0.450001X-0.350001X0.450001X-0.350001X0.450001X0.350001X0*%
%TD*%
%TA.AperFunction,ComponentPad*%
%ADD28O,3.048000X1.850000*%
%TD*%
%TA.AperFunction,SMDPad,CuDef*%
%ADD29R,0.900000X1.300000*%
%TD*%
%TA.AperFunction,SMDPad,CuDef*%
%ADD30FreePoly0,90.000000*%
%TD*%
%TA.AperFunction,SMDPad,CuDef*%
%ADD31R,0.900000X1.200000*%
%TD*%
%TA.AperFunction,SMDPad,CuDef*%
%ADD32RoundRect,0.249999X-0.450001X0.325001X-0.450001X-0.325001X0.450001X-0.325001X0.450001X0.325001X0*%
%TD*%
%TA.AperFunction,SMDPad,CuDef*%
%ADD33RoundRect,0.250000X-1.450000X0.400000X-1.450000X-0.400000X1.450000X-0.400000X1.450000X0.400000X0*%
%TD*%
%TA.AperFunction,ViaPad*%
%ADD34C,0.600000*%
%TD*%
%TA.AperFunction,ViaPad*%
%ADD35C,0.800000*%
%TD*%
%TA.AperFunction,ViaPad*%
%ADD36C,0.450000*%
%TD*%
%TA.AperFunction,Conductor*%
%ADD37C,0.250000*%
%TD*%
%TA.AperFunction,Conductor*%
%ADD38C,0.350000*%
%TD*%
G04 APERTURE END LIST*
D10*
%TO.P,S1,1,1*%
%TO.N,Net-(D3-Pad2)*%
X90046000Y-251711000D03*
%TO.P,S1,2,2*%
%TO.N,Net-(R3-Pad2)*%
X103896000Y-249171000D03*
%TD*%
%TO.P,S4,1,1*%
%TO.N,Net-(D6-Pad2)*%
X109093000Y-175506200D03*
%TO.P,S4,2,2*%
%TO.N,Net-(R5-Pad2)*%
X122943000Y-172966200D03*
%TD*%
D11*
%TO.P,D6,1,K*%
%TO.N,L_ROW1*%
X107711000Y-186032200D03*
D12*
%TO.P,D6,2,A*%
%TO.N,Net-(D6-Pad2)*%
X107711000Y-178412200D03*
%TD*%
D11*
%TO.P,D3,1,K*%
%TO.N,L_ROW5*%
X88701000Y-262394000D03*
D12*
%TO.P,D3,2,A*%
%TO.N,Net-(D3-Pad2)*%
X88701000Y-254774000D03*
%TD*%
D11*
%TO.P,D29,1,K*%
%TO.N,L_ROW3*%
X201345800Y-263906000D03*
D12*
%TO.P,D29,2,A*%
%TO.N,Net-(D29-Pad2)*%
X201345800Y-256286000D03*
%TD*%
D11*
%TO.P,D30,1,K*%
%TO.N,L_ROW4*%
X219075000Y-276860000D03*
D12*
%TO.P,D30,2,A*%
%TO.N,Net-(D30-Pad2)*%
X219075000Y-269240000D03*
%TD*%
D11*
%TO.P,D31,1,K*%
%TO.N,L_ROW5*%
X229870000Y-295910000D03*
D12*
%TO.P,D31,2,A*%
%TO.N,Net-(D31-Pad2)*%
X229870000Y-288290000D03*
%TD*%
D13*
%TO.P,J4,1*%
%TO.N,GND*%
X217317306Y-149732831D03*
%TO.P,J4,2*%
%TO.N,Net-(J4-Pad2)*%
X224817306Y-149732831D03*
%TO.P,J4,3*%
%TO.N,L_RX*%
X232317306Y-149732831D03*
%TO.P,J4,4*%
%TO.N,+5V*%
X219817306Y-152232831D03*
%TO.P,J4,5*%
%TO.N,L_TX*%
X229817306Y-152232831D03*
D14*
%TO.P,J4,MH*%
%TO.N,N/C*%
X229817306Y-139732831D03*
X219817306Y-139732831D03*
%TD*%
D15*
%TO.P,J3,4,Pin_4*%
%TO.N,+3V3*%
X184155000Y-153030000D03*
%TO.P,J3,3,Pin_3*%
%TO.N,L_SWDIO*%
X184155000Y-150490000D03*
%TO.P,J3,2,Pin_2*%
%TO.N,L_SWCLK*%
X186695000Y-153030000D03*
D16*
%TO.P,J3,1,Pin_1*%
%TO.N,GND*%
X186695000Y-150490000D03*
%TD*%
D17*
%TO.P,S27,1,1*%
%TO.N,Net-(D29-Pad2)*%
X205466920Y-255240408D03*
%TO.P,S27,2,2*%
%TO.N,Net-(R11-Pad2)*%
X219547574Y-255144024D03*
%TD*%
D18*
%TO.P,S28,1,1*%
%TO.N,Net-(D30-Pad2)*%
X226303906Y-268087981D03*
%TO.P,S28,2,2*%
%TO.N,Net-(R11-Pad2)*%
X239064800Y-274040600D03*
%TD*%
D19*
%TO.P,S29,1,1*%
%TO.N,Net-(D31-Pad2)*%
X240290617Y-288299663D03*
%TO.P,S29,2,2*%
%TO.N,Net-(R11-Pad2)*%
X249415321Y-299024115D03*
%TD*%
D16*
%TO.P,J2,1,Pin_1*%
%TO.N,GND*%
X191135000Y-153035000D03*
D15*
%TO.P,J2,2,Pin_2*%
%TO.N,L_TX*%
X191135000Y-150495000D03*
%TO.P,J2,3,Pin_3*%
%TO.N,L_RX*%
X193675000Y-153035000D03*
%TO.P,J2,4,Pin_4*%
%TO.N,+3V3*%
X193675000Y-150495000D03*
%TD*%
D10*
%TO.P,S7,1,1*%
%TO.N,Net-(D9-Pad2)*%
X128143000Y-175506200D03*
%TO.P,S7,2,2*%
%TO.N,Net-(R6-Pad2)*%
X141993000Y-172966200D03*
%TD*%
%TO.P,S12,1,1*%
%TO.N,Net-(D14-Pad2)*%
X147193000Y-165506200D03*
%TO.P,S12,2,2*%
%TO.N,Net-(R8-Pad2)*%
X161043000Y-162966200D03*
%TD*%
%TO.P,S17,1,1*%
%TO.N,Net-(D19-Pad2)*%
X166243000Y-163506200D03*
%TO.P,S17,2,2*%
%TO.N,Net-(R9-Pad2)*%
X180093000Y-160966200D03*
%TD*%
%TO.P,S22,1,1*%
%TO.N,Net-(D24-Pad2)*%
X185293000Y-167506200D03*
%TO.P,S22,2,2*%
%TO.N,Net-(R10-Pad2)*%
X199143000Y-164966200D03*
%TD*%
%TO.P,S30,1,1*%
%TO.N,Net-(D32-Pad2)*%
X204343000Y-171506200D03*
%TO.P,S30,2,2*%
%TO.N,Net-(R12-Pad2)*%
X218193000Y-168966200D03*
%TD*%
%TO.P,S5,1,1*%
%TO.N,Net-(D7-Pad2)*%
X109093000Y-194556200D03*
%TO.P,S5,2,2*%
%TO.N,Net-(R5-Pad2)*%
X122943000Y-192016200D03*
%TD*%
%TO.P,S8,1,1*%
%TO.N,Net-(D10-Pad2)*%
X128143000Y-194556200D03*
%TO.P,S8,2,2*%
%TO.N,Net-(R6-Pad2)*%
X141993000Y-192016200D03*
%TD*%
%TO.P,S13,1,1*%
%TO.N,Net-(D15-Pad2)*%
X147193000Y-184556200D03*
%TO.P,S13,2,2*%
%TO.N,Net-(R8-Pad2)*%
X161043000Y-182016200D03*
%TD*%
%TO.P,S18,1,1*%
%TO.N,Net-(D20-Pad2)*%
X166243000Y-182556200D03*
%TO.P,S18,2,2*%
%TO.N,Net-(R9-Pad2)*%
X180093000Y-180016200D03*
%TD*%
%TO.P,S23,1,1*%
%TO.N,Net-(D25-Pad2)*%
X185293000Y-186556200D03*
%TO.P,S23,2,2*%
%TO.N,Net-(R10-Pad2)*%
X199143000Y-184016200D03*
%TD*%
%TO.P,S31,1,1*%
%TO.N,Net-(D33-Pad2)*%
X204343000Y-190556200D03*
%TO.P,S31,2,2*%
%TO.N,Net-(R12-Pad2)*%
X218193000Y-188016200D03*
%TD*%
%TO.P,S2,1,1*%
%TO.N,Net-(D4-Pad2)*%
X104366516Y-213597880D03*
%TO.P,S2,2,2*%
%TO.N,Net-(R3-Pad2)*%
X118216516Y-211057880D03*
%TD*%
%TO.P,S9,1,1*%
%TO.N,Net-(D11-Pad2)*%
X128143000Y-213606200D03*
%TO.P,S9,2,2*%
%TO.N,Net-(R6-Pad2)*%
X141993000Y-211066200D03*
%TD*%
%TO.P,S14,1,1*%
%TO.N,Net-(D16-Pad2)*%
X147193000Y-203606200D03*
%TO.P,S14,2,2*%
%TO.N,Net-(R8-Pad2)*%
X161043000Y-201066200D03*
%TD*%
%TO.P,S19,1,1*%
%TO.N,Net-(D21-Pad2)*%
X166243000Y-201606200D03*
%TO.P,S19,2,2*%
%TO.N,Net-(R9-Pad2)*%
X180093000Y-199066200D03*
%TD*%
%TO.P,S24,1,1*%
%TO.N,Net-(D26-Pad2)*%
X185293000Y-205606200D03*
%TO.P,S24,2,2*%
%TO.N,Net-(R10-Pad2)*%
X199143000Y-203066200D03*
%TD*%
%TO.P,S32,1,1*%
%TO.N,Net-(D34-Pad2)*%
X204343000Y-209606200D03*
%TO.P,S32,2,2*%
%TO.N,Net-(R12-Pad2)*%
X218193000Y-207066200D03*
%TD*%
%TO.P,S3,1,1*%
%TO.N,Net-(D5-Pad2)*%
X101945456Y-232655156D03*
%TO.P,S3,2,2*%
%TO.N,Net-(R3-Pad2)*%
X115795456Y-230115156D03*
%TD*%
%TO.P,S10,1,1*%
%TO.N,Net-(D12-Pad2)*%
X128143000Y-232656200D03*
%TO.P,S10,2,2*%
%TO.N,Net-(R6-Pad2)*%
X141993000Y-230116200D03*
%TD*%
%TO.P,S15,1,1*%
%TO.N,Net-(D17-Pad2)*%
X147193000Y-222656200D03*
%TO.P,S15,2,2*%
%TO.N,Net-(R8-Pad2)*%
X161043000Y-220116200D03*
%TD*%
%TO.P,S20,1,1*%
%TO.N,Net-(D22-Pad2)*%
X166243000Y-220656200D03*
%TO.P,S20,2,2*%
%TO.N,Net-(R9-Pad2)*%
X180093000Y-218116200D03*
%TD*%
%TO.P,S25,1,1*%
%TO.N,Net-(D27-Pad2)*%
X185293000Y-224656200D03*
%TO.P,S25,2,2*%
%TO.N,Net-(R10-Pad2)*%
X199143000Y-222116200D03*
%TD*%
%TO.P,S33,1,1*%
%TO.N,Net-(D35-Pad2)*%
X204343000Y-228656200D03*
%TO.P,S33,2,2*%
%TO.N,Net-(R12-Pad2)*%
X218193000Y-226116200D03*
%TD*%
%TO.P,S6,1,1*%
%TO.N,Net-(D8-Pad2)*%
X109093000Y-251706200D03*
%TO.P,S6,2,2*%
%TO.N,Net-(R5-Pad2)*%
X122943000Y-249166200D03*
%TD*%
%TO.P,S11,1,1*%
%TO.N,Net-(D13-Pad2)*%
X128143000Y-251706200D03*
%TO.P,S11,2,2*%
%TO.N,Net-(R6-Pad2)*%
X141993000Y-249166200D03*
%TD*%
%TO.P,S16,1,1*%
%TO.N,Net-(D18-Pad2)*%
X147193000Y-241706200D03*
%TO.P,S16,2,2*%
%TO.N,Net-(R8-Pad2)*%
X161043000Y-239166200D03*
%TD*%
%TO.P,S21,1,1*%
%TO.N,Net-(D23-Pad2)*%
X166243000Y-239706200D03*
%TO.P,S21,2,2*%
%TO.N,Net-(R9-Pad2)*%
X180093000Y-237166200D03*
%TD*%
%TO.P,S26,1,1*%
%TO.N,Net-(D28-Pad2)*%
X185293000Y-243706200D03*
%TO.P,S26,2,2*%
%TO.N,Net-(R10-Pad2)*%
X199143000Y-241166200D03*
%TD*%
D11*
%TO.P,D9,1,K*%
%TO.N,L_ROW1*%
X126761000Y-186032200D03*
D12*
%TO.P,D9,2,A*%
%TO.N,Net-(D9-Pad2)*%
X126761000Y-178412200D03*
%TD*%
D11*
%TO.P,D14,1,K*%
%TO.N,L_ROW1*%
X145811000Y-176032200D03*
D12*
%TO.P,D14,2,A*%
%TO.N,Net-(D14-Pad2)*%
X145811000Y-168412200D03*
%TD*%
D11*
%TO.P,D19,1,K*%
%TO.N,L_ROW1*%
X164861000Y-174032200D03*
D12*
%TO.P,D19,2,A*%
%TO.N,Net-(D19-Pad2)*%
X164861000Y-166412200D03*
%TD*%
D11*
%TO.P,D24,1,K*%
%TO.N,L_ROW1*%
X183911000Y-178032200D03*
D12*
%TO.P,D24,2,A*%
%TO.N,Net-(D24-Pad2)*%
X183911000Y-170412200D03*
%TD*%
D11*
%TO.P,D32,1,K*%
%TO.N,L_ROW2*%
X202961000Y-182032200D03*
D12*
%TO.P,D32,2,A*%
%TO.N,Net-(D32-Pad2)*%
X202961000Y-174412200D03*
%TD*%
D11*
%TO.P,D7,1,K*%
%TO.N,L_ROW2*%
X107711000Y-205082200D03*
D12*
%TO.P,D7,2,A*%
%TO.N,Net-(D7-Pad2)*%
X107711000Y-197462200D03*
%TD*%
D11*
%TO.P,D10,1,K*%
%TO.N,L_ROW2*%
X126761000Y-205082200D03*
D12*
%TO.P,D10,2,A*%
%TO.N,Net-(D10-Pad2)*%
X126761000Y-197462200D03*
%TD*%
D11*
%TO.P,D15,1,K*%
%TO.N,L_ROW2*%
X145811000Y-195082200D03*
D12*
%TO.P,D15,2,A*%
%TO.N,Net-(D15-Pad2)*%
X145811000Y-187462200D03*
%TD*%
D11*
%TO.P,D20,1,K*%
%TO.N,L_ROW2*%
X164861000Y-193082200D03*
D12*
%TO.P,D20,2,A*%
%TO.N,Net-(D20-Pad2)*%
X164861000Y-185462200D03*
%TD*%
D11*
%TO.P,D25,1,K*%
%TO.N,L_ROW2*%
X183911000Y-197082200D03*
D12*
%TO.P,D25,2,A*%
%TO.N,Net-(D25-Pad2)*%
X183911000Y-189462200D03*
%TD*%
D11*
%TO.P,D33,1,K*%
%TO.N,L_ROW3*%
X202961000Y-201082200D03*
D12*
%TO.P,D33,2,A*%
%TO.N,Net-(D33-Pad2)*%
X202961000Y-193462200D03*
%TD*%
D11*
%TO.P,D4,1,K*%
%TO.N,L_ROW3*%
X102331600Y-224155000D03*
D12*
%TO.P,D4,2,A*%
%TO.N,Net-(D4-Pad2)*%
X102331600Y-216535000D03*
%TD*%
D11*
%TO.P,D11,1,K*%
%TO.N,L_ROW3*%
X126761000Y-224132200D03*
D12*
%TO.P,D11,2,A*%
%TO.N,Net-(D11-Pad2)*%
X126761000Y-216512200D03*
%TD*%
D11*
%TO.P,D16,1,K*%
%TO.N,L_ROW3*%
X145811000Y-214132200D03*
D12*
%TO.P,D16,2,A*%
%TO.N,Net-(D16-Pad2)*%
X145811000Y-206512200D03*
%TD*%
D11*
%TO.P,D21,1,K*%
%TO.N,L_ROW3*%
X164861000Y-212132200D03*
D12*
%TO.P,D21,2,A*%
%TO.N,Net-(D21-Pad2)*%
X164861000Y-204512200D03*
%TD*%
D11*
%TO.P,D26,1,K*%
%TO.N,L_ROW3*%
X183911000Y-216132200D03*
D12*
%TO.P,D26,2,A*%
%TO.N,Net-(D26-Pad2)*%
X183911000Y-208512200D03*
%TD*%
D11*
%TO.P,D34,1,K*%
%TO.N,L_ROW4*%
X202961000Y-220132200D03*
D12*
%TO.P,D34,2,A*%
%TO.N,Net-(D34-Pad2)*%
X202961000Y-212512200D03*
%TD*%
D11*
%TO.P,D5,1,K*%
%TO.N,L_ROW4*%
X99695000Y-243205000D03*
D12*
%TO.P,D5,2,A*%
%TO.N,Net-(D5-Pad2)*%
X99695000Y-235585000D03*
%TD*%
D11*
%TO.P,D12,1,K*%
%TO.N,L_ROW4*%
X126761000Y-243182200D03*
D12*
%TO.P,D12,2,A*%
%TO.N,Net-(D12-Pad2)*%
X126761000Y-235562200D03*
%TD*%
D11*
%TO.P,D17,1,K*%
%TO.N,L_ROW4*%
X145811000Y-233182200D03*
D12*
%TO.P,D17,2,A*%
%TO.N,Net-(D17-Pad2)*%
X145811000Y-225562200D03*
%TD*%
D11*
%TO.P,D22,1,K*%
%TO.N,L_ROW4*%
X164861000Y-231182200D03*
D12*
%TO.P,D22,2,A*%
%TO.N,Net-(D22-Pad2)*%
X164861000Y-223562200D03*
%TD*%
D11*
%TO.P,D27,1,K*%
%TO.N,L_ROW4*%
X183911000Y-235182200D03*
D12*
%TO.P,D27,2,A*%
%TO.N,Net-(D27-Pad2)*%
X183911000Y-227562200D03*
%TD*%
D11*
%TO.P,D35,1,K*%
%TO.N,L_ROW5*%
X202961000Y-239182200D03*
D12*
%TO.P,D35,2,A*%
%TO.N,Net-(D35-Pad2)*%
X202961000Y-231562200D03*
%TD*%
D11*
%TO.P,D8,1,K*%
%TO.N,L_ROW5*%
X107711000Y-262232200D03*
D12*
%TO.P,D8,2,A*%
%TO.N,Net-(D8-Pad2)*%
X107711000Y-254612200D03*
%TD*%
D11*
%TO.P,D13,1,K*%
%TO.N,L_ROW5*%
X126761000Y-262232200D03*
D12*
%TO.P,D13,2,A*%
%TO.N,Net-(D13-Pad2)*%
X126761000Y-254612200D03*
%TD*%
D11*
%TO.P,D18,1,K*%
%TO.N,L_ROW5*%
X145811000Y-252232200D03*
D12*
%TO.P,D18,2,A*%
%TO.N,Net-(D18-Pad2)*%
X145811000Y-244612200D03*
%TD*%
D11*
%TO.P,D23,1,K*%
%TO.N,L_ROW5*%
X164861000Y-250232200D03*
D12*
%TO.P,D23,2,A*%
%TO.N,Net-(D23-Pad2)*%
X164861000Y-242612200D03*
%TD*%
D11*
%TO.P,D28,1,K*%
%TO.N,L_ROW5*%
X183911000Y-254232200D03*
D12*
%TO.P,D28,2,A*%
%TO.N,Net-(D28-Pad2)*%
X183911000Y-246612200D03*
%TD*%
D16*
%TO.P,J9,1,Pin_1*%
%TO.N,GND*%
X160020000Y-289560000D03*
D15*
%TO.P,J9,2,Pin_2*%
%TO.N,ENC_BN*%
X162560000Y-289560000D03*
%TO.P,J9,3,Pin_3*%
%TO.N,ENC_B*%
X160020000Y-292100000D03*
%TO.P,J9,4,Pin_4*%
%TO.N,ENC_A*%
X162560000Y-292100000D03*
%TO.P,J9,5,Pin_5*%
%TO.N,ENC_LF*%
X160020000Y-294640000D03*
%TO.P,J9,6,Pin_6*%
%TO.N,ENC_UP*%
X162560000Y-294640000D03*
%TO.P,J9,7,Pin_7*%
%TO.N,ENC_RT*%
X160020000Y-297180000D03*
%TO.P,J9,8,Pin_8*%
%TO.N,ENC_DN*%
X162560000Y-297180000D03*
%TD*%
D20*
%TO.P,C1,1*%
%TO.N,Net-(C1-Pad1)*%
X111125000Y-151331250D03*
%TO.P,C1,2*%
%TO.N,GND*%
X111125000Y-153406250D03*
%TD*%
D21*
%TO.P,C3,1*%
%TO.N,+3V3*%
X163515100Y-150728600D03*
%TO.P,C3,2*%
%TO.N,GND*%
X163515100Y-152453600D03*
%TD*%
D22*
%TO.P,C7,1*%
%TO.N,+3V3*%
X172812600Y-152506600D03*
%TO.P,C7,2*%
%TO.N,GND*%
X174537600Y-152506600D03*
%TD*%
D23*
%TO.P,C8,1*%
%TO.N,+3V3*%
X174056100Y-142701100D03*
%TO.P,C8,2*%
%TO.N,GND*%
X174056100Y-140976100D03*
%TD*%
%TO.P,C9,1*%
%TO.N,+3V3*%
X166702800Y-140695600D03*
%TO.P,C9,2*%
%TO.N,GND*%
X166702800Y-138970600D03*
%TD*%
D24*
%TO.P,C4,1*%
%TO.N,~{RST}*%
X138832500Y-141605000D03*
%TO.P,C4,2*%
%TO.N,GND*%
X136757500Y-141605000D03*
%TD*%
D23*
%TO.P,C10,1*%
%TO.N,+3V3*%
X168214100Y-140695600D03*
%TO.P,C10,2*%
%TO.N,GND*%
X168214100Y-138970600D03*
%TD*%
D25*
%TO.P,D2,1,K*%
%TO.N,Net-(D2-Pad1)*%
X102842500Y-145801250D03*
%TO.P,D2,2,A*%
%TO.N,+3V3*%
X102842500Y-148776250D03*
%TD*%
D26*
%TO.P,R7,1*%
%TO.N,L_BOOT0*%
X156845000Y-145145000D03*
%TO.P,R7,2*%
%TO.N,GND*%
X156845000Y-143145000D03*
%TD*%
D27*
%TO.P,R4,1*%
%TO.N,Net-(D2-Pad1)*%
X97762500Y-146288750D03*
%TO.P,R4,2*%
%TO.N,GND*%
X97762500Y-148288750D03*
%TD*%
%TO.P,R6,1*%
%TO.N,L_COL5*%
X142523600Y-166880600D03*
%TO.P,R6,2*%
%TO.N,Net-(R6-Pad2)*%
X142523600Y-168880600D03*
%TD*%
%TO.P,R8,1*%
%TO.N,L_COL4*%
X162030800Y-156771400D03*
%TO.P,R8,2*%
%TO.N,Net-(R8-Pad2)*%
X162030800Y-158771400D03*
%TD*%
%TO.P,R9,1*%
%TO.N,L_COL3*%
X180086000Y-154956000D03*
%TO.P,R9,2*%
%TO.N,Net-(R9-Pad2)*%
X180086000Y-156956000D03*
%TD*%
%TO.P,R10,1*%
%TO.N,L_COL2*%
X200080000Y-158854200D03*
%TO.P,R10,2*%
%TO.N,Net-(R10-Pad2)*%
X200080000Y-160854200D03*
%TD*%
%TO.P,R11,1*%
%TO.N,L_COL8*%
X216408000Y-243491000D03*
%TO.P,R11,2*%
%TO.N,Net-(R11-Pad2)*%
X216408000Y-245491000D03*
%TD*%
%TO.P,R12,1*%
%TO.N,L_COL1*%
X219028400Y-162816600D03*
%TO.P,R12,2*%
%TO.N,Net-(R12-Pad2)*%
X219028400Y-164816600D03*
%TD*%
D28*
%TO.P,SW1,1,1*%
%TO.N,GND*%
X126475000Y-151725000D03*
X138975000Y-151725000D03*
%TO.P,SW1,2,2*%
%TO.N,~{RST}*%
X126475000Y-146725000D03*
X138975000Y-146725000D03*
%TD*%
D11*
%TO.P,SW2,1*%
%TO.N,GND*%
X142925750Y-154294250D03*
D12*
%TO.P,SW2,2*%
X142925750Y-151754250D03*
%TO.P,SW2,3*%
X142925750Y-149214250D03*
%TO.P,SW2,4*%
X142925750Y-146674250D03*
%TO.P,SW2,5*%
%TO.N,+3V3*%
X142925750Y-144134250D03*
%TO.P,SW2,6*%
%TO.N,L_BOOT0*%
X150545750Y-144134250D03*
%TO.P,SW2,7*%
%TO.N,L_OPT4*%
X150545750Y-146674250D03*
%TO.P,SW2,8*%
%TO.N,L_OPT3*%
X150545750Y-149214250D03*
%TO.P,SW2,9*%
%TO.N,L_OPT2*%
X150545750Y-151754250D03*
%TO.P,SW2,10*%
%TO.N,L_OPT1*%
X150545750Y-154294250D03*
%TD*%
D29*
%TO.P,U2,1,GND*%
%TO.N,GND*%
X111355000Y-148938750D03*
D30*
%TO.P,U2,2,VI*%
%TO.N,Net-(C1-Pad1)*%
X109855000Y-148851250D03*
D29*
%TO.P,U2,3,VO*%
%TO.N,+3V3*%
X108355000Y-148938750D03*
%TD*%
D31*
%TO.P,D1,1,K*%
%TO.N,+5V*%
X122300000Y-153670000D03*
%TO.P,D1,2,A*%
%TO.N,Net-(D1-Pad2)*%
X119000000Y-153670000D03*
%TD*%
D27*
%TO.P,R5,1*%
%TO.N,L_COL6*%
X123829200Y-166931400D03*
%TO.P,R5,2*%
%TO.N,Net-(R5-Pad2)*%
X123829200Y-168931400D03*
%TD*%
D32*
%TO.P,FB1,1*%
%TO.N,Net-(C1-Pad1)*%
X114935000Y-151375000D03*
%TO.P,FB1,2*%
%TO.N,+5V*%
X114935000Y-153425000D03*
%TD*%
D33*
%TO.P,F1,1*%
%TO.N,Net-(F1-Pad1)*%
X120650000Y-146365000D03*
%TO.P,F1,2*%
%TO.N,Net-(D1-Pad2)*%
X120650000Y-150815000D03*
%TD*%
D20*
%TO.P,C2,1*%
%TO.N,+3V3*%
X105612500Y-151331250D03*
%TO.P,C2,2*%
%TO.N,GND*%
X105612500Y-153406250D03*
%TD*%
D22*
%TO.P,C5,1*%
%TO.N,+3V3*%
X172812600Y-154030600D03*
%TO.P,C5,2*%
%TO.N,GND*%
X174537600Y-154030600D03*
%TD*%
D21*
%TO.P,C6,1*%
%TO.N,+3V3*%
X165039100Y-150728600D03*
%TO.P,C6,2*%
%TO.N,GND*%
X165039100Y-152453600D03*
%TD*%
D27*
%TO.P,R3,1*%
%TO.N,L_COL7*%
X107674800Y-167337800D03*
%TO.P,R3,2*%
%TO.N,Net-(R3-Pad2)*%
X107674800Y-169337800D03*
%TD*%
D34*
%TO.N,GND*%
X171450000Y-152400000D03*
X169545000Y-140335000D03*
X163830000Y-153416000D03*
X166878000Y-148336000D03*
X175260000Y-151765000D03*
X135890000Y-140970000D03*
X156845000Y-142157502D03*
X114300000Y-142875000D03*
X175259999Y-144779999D03*
X106934000Y-153416000D03*
X109728000Y-153416000D03*
X99060000Y-148336000D03*
X112522000Y-149352000D03*
D35*
X175006000Y-140462000D03*
D34*
%TO.N,+3V3*%
X104140000Y-148844000D03*
X107315000Y-150495000D03*
X168323436Y-140675575D03*
X174056100Y-142727600D03*
X172786077Y-152310500D03*
X165039100Y-150628100D03*
D36*
%TO.N,~{RST}*%
X168910002Y-144018000D03*
D34*
%TO.N,+5V*%
X123825000Y-151765000D03*
D36*
%TO.N,L_TX*%
X175006000Y-146685000D03*
D35*
X225044000Y-155282497D03*
%TO.N,L_RX*%
X225044000Y-156210000D03*
D36*
X172212000Y-147066000D03*
%TO.N,L_SWCLK*%
X175006000Y-150368000D03*
%TO.N,L_SWDIO*%
X171450000Y-149225000D03*
%TO.N,L_COL7*%
X106045000Y-167640000D03*
%TO.N,L_BOOT0*%
X172212000Y-145542000D03*
%TO.N,L_USB_D+*%
X170688000Y-149606000D03*
X164084000Y-149606000D03*
%TO.N,L_USB_D-*%
X163576000Y-149098000D03*
X169926000Y-149098000D03*
%TO.N,L_COL6*%
X121920000Y-167640000D03*
%TO.N,L_COL5*%
X140970000Y-167640000D03*
%TO.N,L_COL4*%
X164465000Y-156845000D03*
%TO.N,L_COL3*%
X176784000Y-155702000D03*
%TO.N,L_COL2*%
X176022000Y-153924000D03*
X198120000Y-159385000D03*
%TO.N,L_COL8*%
X166624000Y-144780000D03*
X214630000Y-243840000D03*
%TO.N,L_COL1*%
X217424000Y-162814000D03*
X175897840Y-153208100D03*
%TO.N,Net-(F1-Pad1)*%
X118110000Y-144145000D03*
%TO.N,ENC_DN*%
X155448000Y-154178000D03*
%TO.N,ENC_RT*%
X156210000Y-153924000D03*
X142621000Y-287274000D03*
%TO.N,ENC_UP*%
X156972000Y-153670000D03*
X159893000Y-287020000D03*
%TO.N,ENC_LF*%
X154784117Y-154432000D03*
X145669000Y-288290000D03*
%TO.N,ENC_A*%
X154178000Y-154686000D03*
%TO.N,ENC_B*%
X153416000Y-154940000D03*
%TO.N,ENC_BN*%
X159385000Y-151765000D03*
X166497000Y-289560000D03*
%TD*%
D37*
%TO.N,L_SWCLK*%
X183251000Y-151755000D02*
X181864000Y-150368000D01*
X181864000Y-150368000D02*
X175006000Y-150368000D01*
X185420000Y-151755000D02*
X183251000Y-151755000D01*
X186695000Y-153030000D02*
X185420000Y-151755000D01*
D38*
%TO.N,Net-(D1-Pad2)*%
X120650000Y-151130000D02*
X119000000Y-152780000D01*
X120650000Y-150815000D02*
X120650000Y-151130000D01*
X119000000Y-152780000D02*
X119000000Y-153670000D01*
D37*
%TO.N,Net-(D3-Pad2)*%
X90046000Y-251711000D02*
X90046000Y-253429000D01*
X90046000Y-253429000D02*
X88701000Y-254774000D01*
%TO.N,Net-(D4-Pad2)*%
X104366516Y-213597880D02*
X104366516Y-214500084D01*
X104366516Y-214500084D02*
X102331600Y-216535000D01*
%TO.N,Net-(D5-Pad2)*%
X101945456Y-232655156D02*
X101945456Y-233334544D01*
X101945456Y-233334544D02*
X99695000Y-235585000D01*
%TO.N,Net-(D6-Pad2)*%
X109093000Y-175506200D02*
X109093000Y-177030200D01*
X109093000Y-177030200D02*
X107711000Y-178412200D01*
%TO.N,Net-(D7-Pad2)*%
X109093000Y-194556200D02*
X109093000Y-196080200D01*
X109093000Y-196080200D02*
X107711000Y-197462200D01*
%TO.N,Net-(D8-Pad2)*%
X109093000Y-253230200D02*
X107711000Y-254612200D01*
X109093000Y-251706200D02*
X109093000Y-253230200D01*
%TO.N,Net-(D9-Pad2)*%
X128143000Y-177030200D02*
X126761000Y-178412200D01*
X128143000Y-175506200D02*
X128143000Y-177030200D01*
%TO.N,Net-(D10-Pad2)*%
X128143000Y-196080200D02*
X126761000Y-197462200D01*
X128143000Y-194556200D02*
X128143000Y-196080200D01*
%TO.N,Net-(D11-Pad2)*%
X128143000Y-215130200D02*
X126761000Y-216512200D01*
X128143000Y-213606200D02*
X128143000Y-215130200D01*
%TO.N,Net-(D12-Pad2)*%
X128143000Y-234180200D02*
X126761000Y-235562200D01*
X128143000Y-232656200D02*
X128143000Y-234180200D01*
%TO.N,Net-(D13-Pad2)*%
X128143000Y-253230200D02*
X126761000Y-254612200D01*
X128143000Y-251706200D02*
X128143000Y-253230200D01*
%TO.N,Net-(D14-Pad2)*%
X147193000Y-167030200D02*
X145811000Y-168412200D01*
X147193000Y-165506200D02*
X147193000Y-167030200D01*
%TO.N,Net-(D15-Pad2)*%
X147193000Y-186080200D02*
X145811000Y-187462200D01*
X147193000Y-184556200D02*
X147193000Y-186080200D01*
%TO.N,Net-(D16-Pad2)*%
X147193000Y-205130200D02*
X145811000Y-206512200D01*
X147193000Y-203606200D02*
X147193000Y-205130200D01*
%TO.N,Net-(D17-Pad2)*%
X147193000Y-224180200D02*
X145811000Y-225562200D01*
X147193000Y-222656200D02*
X147193000Y-224180200D01*
%TO.N,Net-(D18-Pad2)*%
X147193000Y-243230200D02*
X145811000Y-244612200D01*
X147193000Y-241706200D02*
X147193000Y-243230200D01*
%TO.N,Net-(D19-Pad2)*%
X166243000Y-165030200D02*
X164861000Y-166412200D01*
X166243000Y-163506200D02*
X166243000Y-165030200D01*
%TO.N,Net-(D20-Pad2)*%
X166243000Y-184080200D02*
X164861000Y-185462200D01*
X166243000Y-182556200D02*
X166243000Y-184080200D01*
%TO.N,Net-(D21-Pad2)*%
X166243000Y-203130200D02*
X164861000Y-204512200D01*
X166243000Y-201606200D02*
X166243000Y-203130200D01*
%TO.N,Net-(D22-Pad2)*%
X166243000Y-222180200D02*
X164861000Y-223562200D01*
X166243000Y-220656200D02*
X166243000Y-222180200D01*
%TO.N,Net-(D23-Pad2)*%
X166243000Y-241230200D02*
X164861000Y-242612200D01*
X166243000Y-239706200D02*
X166243000Y-241230200D01*
%TO.N,Net-(D24-Pad2)*%
X185293000Y-169030200D02*
X183911000Y-170412200D01*
X185293000Y-167506200D02*
X185293000Y-169030200D01*
%TO.N,Net-(D25-Pad2)*%
X185293000Y-188080200D02*
X183911000Y-189462200D01*
X185293000Y-186556200D02*
X185293000Y-188080200D01*
%TO.N,Net-(D26-Pad2)*%
X185293000Y-207130200D02*
X183911000Y-208512200D01*
X185293000Y-205606200D02*
X185293000Y-207130200D01*
%TO.N,Net-(D27-Pad2)*%
X185293000Y-226180200D02*
X183911000Y-227562200D01*
X185293000Y-224656200D02*
X185293000Y-226180200D01*
%TO.N,Net-(D28-Pad2)*%
X185293000Y-245230200D02*
X183911000Y-246612200D01*
X185293000Y-243706200D02*
X185293000Y-245230200D01*
%TO.N,Net-(D29-Pad2)*%
X205466920Y-255240408D02*
X202391392Y-255240408D01*
X202391392Y-255240408D02*
X201345800Y-256286000D01*
%TO.N,Net-(D30-Pad2)*%
X226303906Y-268087981D02*
X220227019Y-268087981D01*
X220227019Y-268087981D02*
X219075000Y-269240000D01*
%TO.N,Net-(D31-Pad2)*%
X240290617Y-288299663D02*
X229879663Y-288299663D01*
X229879663Y-288299663D02*
X229870000Y-288290000D01*
%TO.N,Net-(D32-Pad2)*%
X204343000Y-173030200D02*
X202961000Y-174412200D01*
X204343000Y-171506200D02*
X204343000Y-173030200D01*
%TO.N,Net-(D33-Pad2)*%
X204343000Y-192080200D02*
X202961000Y-193462200D01*
X204343000Y-190556200D02*
X204343000Y-192080200D01*
%TO.N,Net-(D34-Pad2)*%
X204343000Y-211130200D02*
X202961000Y-212512200D01*
X204343000Y-209606200D02*
X204343000Y-211130200D01*
%TO.N,Net-(D35-Pad2)*%
X204343000Y-230180200D02*
X202961000Y-231562200D01*
X204343000Y-228656200D02*
X204343000Y-230180200D01*
D38*
%TO.N,GND*%
X174537600Y-152506600D02*
X174537600Y-152487400D01*
X163515100Y-152453600D02*
X165039100Y-152453600D01*
X166702800Y-138970600D02*
X168214100Y-138970600D01*
X168214100Y-139004100D02*
X169545000Y-140335000D01*
D37*
X136122500Y-140970000D02*
X136757500Y-141605000D01*
D38*
X111115250Y-153416000D02*
X111125000Y-153406250D01*
X111355000Y-148938750D02*
X112108750Y-148938750D01*
X99060000Y-148336000D02*
X97809750Y-148336000D01*
X174491900Y-140976100D02*
X175006000Y-140462000D01*
X174056100Y-140976100D02*
X174491900Y-140976100D01*
X174537600Y-152506600D02*
X174537600Y-154030600D01*
X156845000Y-143145000D02*
X156845000Y-142157502D01*
X106924250Y-153406250D02*
X106934000Y-153416000D01*
X109728000Y-153416000D02*
X111115250Y-153416000D01*
X105612500Y-153406250D02*
X106924250Y-153406250D01*
X112108750Y-148938750D02*
X112522000Y-149352000D01*
X174537600Y-152487400D02*
X175260000Y-151765000D01*
X168214100Y-138970600D02*
X168214100Y-139004100D01*
X163515100Y-153101100D02*
X163830000Y-153416000D01*
X163515100Y-152453600D02*
X163515100Y-153101100D01*
X97809750Y-148336000D02*
X97762500Y-148288750D01*
D37*
X135890000Y-140970000D02*
X136122500Y-140970000D01*
D38*
%TO.N,Net-(C1-Pad1)*%
X109855000Y-150061250D02*
X109855000Y-148851250D01*
X111125000Y-151331250D02*
X114891250Y-151331250D01*
X109855000Y-150061250D02*
X111125000Y-151331250D01*
X114891250Y-151331250D02*
X114935000Y-151375000D01*
%TO.N,+3V3*%
X108355000Y-149455000D02*
X107315000Y-150495000D01*
X102910250Y-148844000D02*
X104140000Y-148844000D01*
X105612500Y-151331250D02*
X106478750Y-151331250D01*
X102842500Y-148776250D02*
X102910250Y-148844000D01*
X106478750Y-151331250D02*
X107315000Y-150495000D01*
X163515100Y-150728600D02*
X165039100Y-150728600D01*
X172812600Y-154030600D02*
X172786077Y-154004077D01*
X108355000Y-148938750D02*
X108355000Y-149455000D01*
X172786077Y-152558523D02*
X172786077Y-152310500D01*
X172760700Y-152335877D02*
X172786077Y-152310500D01*
X166702800Y-140695600D02*
X168303411Y-140695600D01*
X168303411Y-140695600D02*
X168323436Y-140675575D01*
X172786077Y-154004077D02*
X172786077Y-152310500D01*
D37*
%TO.N,~{RST}*%
X166878000Y-144018000D02*
X168910002Y-144018000D01*
X139065000Y-141837500D02*
X138832500Y-141605000D01*
X139065000Y-146635000D02*
X139065000Y-141837500D01*
X138832500Y-141605000D02*
X164465000Y-141605000D01*
X164465000Y-141605000D02*
X166878000Y-144018000D01*
X138975000Y-146725000D02*
X139065000Y-146635000D01*
%TO.N,L_ROW3*%
X197485000Y-227266544D02*
X186350656Y-216132200D01*
X186350656Y-216132200D02*
X183911000Y-216132200D01*
X197485000Y-260045200D02*
X197485000Y-227266544D01*
X201345800Y-263906000D02*
X197485000Y-260045200D01*
%TO.N,L_ROW4*%
X187164479Y-238435679D02*
X187164479Y-255744479D01*
X208280000Y-276860000D02*
X219075000Y-276860000D01*
X187164479Y-255744479D02*
X208280000Y-276860000D01*
X183911000Y-235182200D02*
X187164479Y-238435679D01*
D38*
%TO.N,+5V*%
X117085000Y-155575000D02*
X120395000Y-155575000D01*
X123825000Y-152145000D02*
X123825000Y-151765000D01*
X120395000Y-155575000D02*
X122300000Y-153670000D01*
X114935000Y-153425000D02*
X117085000Y-155575000D01*
X122300000Y-153670000D02*
X123825000Y-152145000D01*
D37*
%TO.N,L_TX*%
X218528497Y-155282497D02*
X225044000Y-155282497D01*
X212471000Y-149225000D02*
X218528497Y-155282497D01*
X187325000Y-146685000D02*
X175006000Y-146685000D01*
X191135000Y-150495000D02*
X192405000Y-149225000D01*
X191135000Y-150495000D02*
X187325000Y-146685000D01*
X192405000Y-149225000D02*
X212471000Y-149225000D01*
%TO.N,L_RX*%
X172482511Y-147336511D02*
X172212000Y-147066000D01*
X190433511Y-151698511D02*
X186071511Y-147336511D01*
X196850000Y-156210000D02*
X225044000Y-156210000D01*
X193675000Y-153035000D02*
X192338511Y-151698511D01*
X192338511Y-151698511D02*
X190433511Y-151698511D01*
X186071511Y-147336511D02*
X172482511Y-147336511D01*
X193675000Y-153035000D02*
X196850000Y-156210000D01*
%TO.N,L_SWDIO*%
X182890000Y-149225000D02*
X184155000Y-150490000D01*
X171450000Y-149225000D02*
X182890000Y-149225000D01*
%TO.N,L_COL7*%
X107674800Y-167337800D02*
X106347200Y-167337800D01*
X106347200Y-167337800D02*
X106045000Y-167640000D01*
%TO.N,L_BOOT0*%
X155834250Y-144134250D02*
X157242000Y-145542000D01*
X157242000Y-145542000D02*
X172212000Y-145542000D01*
X150545750Y-144134250D02*
X155834250Y-144134250D01*
%TO.N,L_USB_D+*%
X164084000Y-149606000D02*
X170688000Y-149606000D01*
%TO.N,L_USB_D-*%
X163576000Y-149098000D02*
X169926000Y-149098000D01*
%TO.N,Net-(R9-Pad2)*%
X180086000Y-156956000D02*
X180093000Y-156963000D01*
X180093000Y-156963000D02*
X180093000Y-160966200D01*
X180093000Y-218116200D02*
X180093000Y-237166200D01*
X180093000Y-199066200D02*
X180093000Y-218116200D01*
X180093000Y-160966200D02*
X180093000Y-180016200D01*
X180093000Y-180016200D02*
X180093000Y-199066200D01*
%TO.N,L_COL6*%
X123829200Y-166931400D02*
X122628600Y-166931400D01*
X122628600Y-166931400D02*
X121920000Y-167640000D01*
%TO.N,Net-(R10-Pad2)*%
X199143000Y-164966200D02*
X199143000Y-184016200D01*
X199143000Y-203066200D02*
X199143000Y-222116200D01*
X199143000Y-222116200D02*
X199143000Y-241166200D01*
X199143000Y-161791200D02*
X199143000Y-164966200D01*
X200080000Y-160854200D02*
X199143000Y-161791200D01*
X199143000Y-184016200D02*
X199143000Y-203066200D01*
%TO.N,L_COL5*%
X142523600Y-166880600D02*
X141729400Y-166880600D01*
X141729400Y-166880600D02*
X140970000Y-167640000D01*
%TO.N,Net-(R11-Pad2)*%
X239064800Y-274040600D02*
X249555000Y-284530800D01*
X249555000Y-298884436D02*
X249415321Y-299024115D01*
X249555000Y-284530800D02*
X249555000Y-298884436D01*
X222124024Y-255144024D02*
X239064800Y-272084800D01*
X219547574Y-248630574D02*
X219547574Y-255144024D01*
X219547574Y-255144024D02*
X222124024Y-255144024D01*
X216408000Y-245491000D02*
X219547574Y-248630574D01*
X239064800Y-272084800D02*
X239064800Y-274040600D01*
%TO.N,L_COL4*%
X162104400Y-156845000D02*
X164465000Y-156845000D01*
X162030800Y-156771400D02*
X162104400Y-156845000D01*
%TO.N,Net-(R12-Pad2)*%
X219028400Y-164816600D02*
X218193000Y-165652000D01*
X218193000Y-188016200D02*
X218193000Y-168966200D01*
X218193000Y-165652000D02*
X218193000Y-168966200D01*
X218193000Y-226116200D02*
X218193000Y-207066200D01*
X218193000Y-207066200D02*
X218193000Y-188016200D01*
%TO.N,L_COL3*%
X177530000Y-154956000D02*
X176784000Y-155702000D01*
X180086000Y-154956000D02*
X177530000Y-154956000D01*
%TO.N,L_COL2*%
X200080000Y-158854200D02*
X198650800Y-158854200D01*
X198650800Y-158854200D02*
X198120000Y-159385000D01*
X198120000Y-159385000D02*
X186563000Y-159385000D01*
X181102000Y-153924000D02*
X176022000Y-153924000D01*
X186563000Y-159385000D02*
X181102000Y-153924000D01*
%TO.N,L_COL8*%
X214979000Y-243491000D02*
X214630000Y-243840000D01*
X216408000Y-243491000D02*
X226695000Y-233204000D01*
X226695000Y-233204000D02*
X226695000Y-155575000D01*
X215336203Y-144216203D02*
X169388503Y-144216203D01*
X169388503Y-144216203D02*
X168824706Y-144780000D01*
X216408000Y-243491000D02*
X214979000Y-243491000D01*
X168824706Y-144780000D02*
X166624000Y-144780000D01*
X226695000Y-155575000D02*
X215336203Y-144216203D01*
%TO.N,L_COL1*%
X175897840Y-153208100D02*
X181783100Y-153208100D01*
X219028400Y-162816600D02*
X217426600Y-162816600D01*
X217426600Y-162816600D02*
X217424000Y-162814000D01*
X212090000Y-157480000D02*
X217424000Y-162814000D01*
X186055000Y-157480000D02*
X212090000Y-157480000D01*
X181783100Y-153208100D02*
X186055000Y-157480000D01*
D38*
%TO.N,Net-(F1-Pad1)*%
X120650000Y-146365000D02*
X120330000Y-146365000D01*
X120330000Y-146365000D02*
X118110000Y-144145000D01*
D37*
%TO.N,Net-(D2-Pad1)*%
X97762500Y-146288750D02*
X102355000Y-146288750D01*
X102355000Y-146288750D02*
X102842500Y-145801250D01*
%TO.N,Net-(R3-Pad2)*%
X106045000Y-198886364D02*
X118216516Y-211057880D01*
X115795456Y-230115156D02*
X115795456Y-237271544D01*
X106045000Y-170967600D02*
X106045000Y-198886364D01*
X118216516Y-227694096D02*
X115795456Y-230115156D01*
X118216516Y-211057880D02*
X118216516Y-227694096D01*
X107674800Y-169337800D02*
X106045000Y-170967600D01*
X115795456Y-237271544D02*
X103896000Y-249171000D01*
%TO.N,Net-(R5-Pad2)*%
X122943000Y-172966200D02*
X122943000Y-192016200D01*
X122943000Y-169817600D02*
X122943000Y-172966200D01*
X122943000Y-192016200D02*
X122943000Y-249166200D01*
X123829200Y-168931400D02*
X122943000Y-169817600D01*
%TO.N,Net-(R6-Pad2)*%
X141993000Y-211066200D02*
X141993000Y-230116200D01*
X141993000Y-192016200D02*
X141993000Y-211066200D01*
X141993000Y-169411200D02*
X141993000Y-172966200D01*
X141993000Y-230116200D02*
X141993000Y-249166200D01*
X142523600Y-168880600D02*
X141993000Y-169411200D01*
X141993000Y-172966200D02*
X141993000Y-192016200D01*
%TO.N,Net-(R8-Pad2)*%
X161043000Y-162966200D02*
X161043000Y-182016200D01*
X161043000Y-182016200D02*
X161043000Y-201066200D01*
X161043000Y-201066200D02*
X161043000Y-220116200D01*
X161043000Y-220116200D02*
X161043000Y-239166200D01*
X161043000Y-159759200D02*
X161043000Y-162966200D01*
X162030800Y-158771400D02*
X161043000Y-159759200D01*
%TO.N,ENC_DN*%
X155448000Y-154178000D02*
X155448000Y-155142236D01*
X109982000Y-287782000D02*
X163830000Y-287782000D01*
X112515022Y-158629978D02*
X85725000Y-185420000D01*
X164338000Y-288290000D02*
X164338000Y-295910000D01*
X155448000Y-155142236D02*
X151960258Y-158629978D01*
X163068000Y-297180000D02*
X162560000Y-297180000D01*
X151960258Y-158629978D02*
X112515022Y-158629978D01*
X85725000Y-263525000D02*
X109982000Y-287782000D01*
X163830000Y-287782000D02*
X164338000Y-288290000D01*
X85725000Y-185420000D02*
X85725000Y-263525000D01*
X164338000Y-295910000D02*
X163068000Y-297180000D01*
%TO.N,ENC_RT*%
X110109000Y-287274000D02*
X142621000Y-287274000D01*
X86360000Y-185420000D02*
X86360000Y-263525000D01*
X156210000Y-153924000D02*
X156210000Y-154914118D01*
X86360000Y-263525000D02*
X110109000Y-287274000D01*
X112772511Y-159007489D02*
X86360000Y-185420000D01*
X156210000Y-154914118D02*
X152116629Y-159007489D01*
X152116629Y-159007489D02*
X112772511Y-159007489D01*
%TO.N,ENC_UP*%
X86995000Y-263525000D02*
X110236000Y-286766000D01*
X156972000Y-154686000D02*
X152272077Y-159385923D01*
X156972000Y-153670000D02*
X156972000Y-154686000D01*
X152272077Y-159385923D02*
X113029077Y-159385923D01*
X159639000Y-286766000D02*
X159893000Y-287020000D01*
X110236000Y-286766000D02*
X159639000Y-286766000D01*
X113029077Y-159385923D02*
X86995000Y-185420000D01*
X86995000Y-185420000D02*
X86995000Y-263525000D01*
%TO.N,ENC_LF*%
X109855000Y-288290000D02*
X145669000Y-288290000D01*
X151803887Y-158252467D02*
X112257533Y-158252467D01*
X112257533Y-158252467D02*
X85090000Y-185420000D01*
X154784117Y-155272237D02*
X151803887Y-158252467D01*
X85090000Y-263525000D02*
X109855000Y-288290000D01*
X154784117Y-154432000D02*
X154784117Y-155272237D01*
X85090000Y-185420000D02*
X85090000Y-263525000D01*
%TO.N,ENC_A*%
X154178000Y-155344472D02*
X151664952Y-157857520D01*
X151664952Y-157857520D02*
X112017480Y-157857520D01*
X154178000Y-154686000D02*
X154178000Y-155344472D01*
X161290000Y-290830000D02*
X162560000Y-292100000D01*
X112017480Y-157857520D02*
X84455000Y-185420000D01*
X84455000Y-185420000D02*
X84455000Y-263525000D01*
X84455000Y-263525000D02*
X111760000Y-290830000D01*
X111760000Y-290830000D02*
X161290000Y-290830000D01*
%TO.N,ENC_B*%
X160020000Y-292100000D02*
X156337000Y-292100000D01*
X155575000Y-291338000D02*
X111633000Y-291338000D01*
X83820000Y-263525000D02*
X83820000Y-185420000D01*
X111760000Y-157480000D02*
X151508590Y-157480000D01*
X151508590Y-157480000D02*
X153416000Y-155572590D01*
X83820000Y-185420000D02*
X111760000Y-157480000D01*
X111633000Y-291338000D02*
X83820000Y-263525000D01*
X153416000Y-155572590D02*
X153416000Y-154940000D01*
X156337000Y-292100000D02*
X155575000Y-291338000D01*
%TO.N,ENC_BN*%
X159385000Y-151765000D02*
X159385000Y-278130000D01*
X159385000Y-282448000D02*
X166497000Y-289560000D01*
X159385000Y-278130000D02*
X159385000Y-282448000D01*
%TD*%
M02*
