%TF.GenerationSoftware,KiCad,Pcbnew,(6.0.0)*%
%TF.CreationDate,2022-01-02T22:46:40-08:00*%
%TF.ProjectId,thumbler_left,7468756d-626c-4657-925f-6c6566742e6b,rev?*%
%TF.SameCoordinates,Original*%
%TF.FileFunction,Soldermask,Top*%
%TF.FilePolarity,Negative*%
%FSLAX46Y46*%
G04 Gerber Fmt 4.6, Leading zero omitted, Abs format (unit mm)*
G04 Created by KiCad (PCBNEW (6.0.0)) date 2022-01-02 22:46:40*
%MOMM*%
%LPD*%
G01*
G04 APERTURE LIST*
G04 Aperture macros list*
%AMRoundRect*
0 Rectangle with rounded corners*
0 $1 Rounding radius*
0 $2 $3 $4 $5 $6 $7 $8 $9 X,Y pos of 4 corners*
0 Add a 4 corners polygon primitive as box body*
4,1,4,$2,$3,$4,$5,$6,$7,$8,$9,$2,$3,0*
0 Add four circle primitives for the rounded corners*
1,1,$1+$1,$2,$3*
1,1,$1+$1,$4,$5*
1,1,$1+$1,$6,$7*
1,1,$1+$1,$8,$9*
0 Add four rect primitives between the rounded corners*
20,1,$1+$1,$2,$3,$4,$5,0*
20,1,$1+$1,$4,$5,$6,$7,0*
20,1,$1+$1,$6,$7,$8,$9,0*
20,1,$1+$1,$8,$9,$2,$3,0*%
%AMFreePoly0*
4,1,16,0.535355,0.785355,0.541603,0.777735,1.041603,0.027735,1.049029,-0.009806,1.041603,-0.027735,0.541603,-0.777735,0.509806,-0.799029,0.500000,-0.800000,-0.500000,-0.800000,-0.535355,-0.785355,-0.550000,-0.750000,-0.550000,0.750000,-0.535355,0.785355,-0.500000,0.800000,0.500000,0.800000,0.535355,0.785355,0.535355,0.785355,$1*%
%AMFreePoly1*
4,1,16,0.535355,0.785355,0.550000,0.750000,0.550000,-0.750000,0.535355,-0.785355,0.500000,-0.800000,-0.650000,-0.800000,-0.685355,-0.785355,-0.700000,-0.750000,-0.691603,-0.722265,-0.210093,0.000000,-0.691603,0.722265,-0.699029,0.759806,-0.677735,0.791603,-0.650000,0.800000,0.500000,0.800000,0.535355,0.785355,0.535355,0.785355,$1*%
G04 Aperture macros list end*
%ADD10C,3.100000*%
%ADD11C,4.087800*%
%ADD12RoundRect,0.050000X0.800000X-0.800000X0.800000X0.800000X-0.800000X0.800000X-0.800000X-0.800000X0*%
%ADD13O,1.700000X1.700000*%
%ADD14C,2.601600*%
%ADD15C,2.286000*%
%ADD16RoundRect,0.050000X-0.850000X0.850000X-0.850000X-0.850000X0.850000X-0.850000X0.850000X0.850000X0*%
%ADD17O,1.800000X1.800000*%
%ADD18RoundRect,0.299999X0.450001X-0.350001X0.450001X0.350001X-0.450001X0.350001X-0.450001X-0.350001X0*%
%ADD19RoundRect,0.299999X-0.450001X0.350001X-0.450001X-0.350001X0.450001X-0.350001X0.450001X0.350001X0*%
%ADD20C,2.100000*%
%ADD21RoundRect,0.125000X-0.075000X0.662500X-0.075000X-0.662500X0.075000X-0.662500X0.075000X0.662500X0*%
%ADD22RoundRect,0.125000X-0.662500X0.075000X-0.662500X-0.075000X0.662500X-0.075000X0.662500X0.075000X0*%
%ADD23FreePoly0,270.000000*%
%ADD24FreePoly1,270.000000*%
%ADD25RoundRect,0.050000X0.850000X-0.850000X0.850000X0.850000X-0.850000X0.850000X-0.850000X-0.850000X0*%
%ADD26C,0.600000*%
%ADD27RoundRect,0.050000X-0.200000X-0.800000X0.200000X-0.800000X0.200000X0.800000X-0.200000X0.800000X0*%
%ADD28RoundRect,0.050000X-0.700000X-0.750000X0.700000X-0.750000X0.700000X0.750000X-0.700000X0.750000X0*%
%ADD29RoundRect,0.050000X-0.700000X-0.600000X0.700000X-0.600000X0.700000X0.600000X-0.700000X0.600000X0*%
%ADD30C,3.300000*%
%ADD31RoundRect,0.050000X-0.850000X-0.850000X0.850000X-0.850000X0.850000X0.850000X-0.850000X0.850000X0*%
%ADD32O,3.148000X1.950000*%
%ADD33RoundRect,0.050000X-0.800000X-0.800000X0.800000X-0.800000X0.800000X0.800000X-0.800000X0.800000X0*%
G04 APERTURE END LIST*
D10*
%TO.C,S1*%
X93796000Y-251711000D03*
D11*
X97606000Y-254251000D03*
D10*
X100146000Y-249171000D03*
%TD*%
D11*
%TO.C,S4*%
X116653000Y-178046200D03*
D10*
X119193000Y-172966200D03*
X112843000Y-175506200D03*
%TD*%
D12*
%TO.C,D6*%
X107711000Y-186032200D03*
D13*
X107711000Y-178412200D03*
%TD*%
D12*
%TO.C,D3*%
X88701000Y-262394000D03*
D13*
X88701000Y-254774000D03*
%TD*%
D12*
%TO.C,D29*%
X201345800Y-263906000D03*
D13*
X201345800Y-256286000D03*
%TD*%
D12*
%TO.C,D30*%
X219075000Y-276860000D03*
D13*
X219075000Y-269240000D03*
%TD*%
D12*
%TO.C,D31*%
X229870000Y-295910000D03*
D13*
X229870000Y-288290000D03*
%TD*%
D14*
%TO.C,J4*%
X217317306Y-149732831D03*
X224817306Y-149732831D03*
X232317306Y-149732831D03*
X219817306Y-152232831D03*
X229817306Y-152232831D03*
D15*
X229817306Y-139732831D03*
X219817306Y-139732831D03*
%TD*%
D16*
%TO.C,J3*%
X186695000Y-150490000D03*
D17*
X186695000Y-153030000D03*
X184155000Y-150490000D03*
X184155000Y-153030000D03*
%TD*%
D18*
%TO.C,R1*%
X113665000Y-147685000D03*
X113665000Y-145685000D03*
%TD*%
D19*
%TO.C,R2*%
X116205000Y-145685000D03*
X116205000Y-147685000D03*
%TD*%
D10*
%TO.C,S27*%
X209159949Y-255891589D03*
D11*
X212471000Y-259054600D03*
D10*
X215854544Y-254492843D03*
%TD*%
D11*
%TO.C,S28*%
X230994898Y-274537771D03*
D10*
X236008071Y-271868296D03*
X229360635Y-270260285D03*
%TD*%
D11*
%TO.C,S29*%
X241870912Y-296116815D03*
D10*
X242165617Y-291547258D03*
X247540321Y-295776520D03*
%TD*%
D20*
%TO.C,TP2*%
X214630000Y-163816600D03*
%TD*%
%TO.C,TP3*%
X203200000Y-160020000D03*
%TD*%
%TO.C,TP4*%
X174752000Y-155702000D03*
%TD*%
%TO.C,TP5*%
X167132000Y-155702000D03*
%TD*%
%TO.C,TP7*%
X119816000Y-168275000D03*
%TD*%
%TO.C,TP10*%
X102290000Y-186067000D03*
%TD*%
%TO.C,TP11*%
X102290000Y-205117000D03*
%TD*%
%TO.C,TP12*%
X97464000Y-224155000D03*
%TD*%
%TO.C,TP13*%
X95250000Y-243205000D03*
%TD*%
%TO.C,TP14*%
X92202000Y-263144000D03*
%TD*%
%TO.C,TP9*%
X212090000Y-244475000D03*
%TD*%
%TO.C,TP15*%
X170180000Y-291465000D03*
%TD*%
%TO.C,TP16*%
X153035000Y-291465000D03*
%TD*%
%TO.C,TP17*%
X170180000Y-288290000D03*
%TD*%
%TO.C,TP18*%
X170180000Y-297815000D03*
%TD*%
%TO.C,TP19*%
X153035000Y-297815000D03*
%TD*%
%TO.C,TP20*%
X170180000Y-294640000D03*
%TD*%
%TO.C,TP21*%
X153035000Y-294640000D03*
%TD*%
D21*
%TO.C,U1*%
X172295000Y-142522500D03*
X171795000Y-142522500D03*
X171295000Y-142522500D03*
X170795000Y-142522500D03*
X170295000Y-142522500D03*
X169795000Y-142522500D03*
X169295000Y-142522500D03*
X168795000Y-142522500D03*
X168295000Y-142522500D03*
X167795000Y-142522500D03*
X167295000Y-142522500D03*
X166795000Y-142522500D03*
D22*
X165382500Y-143935000D03*
X165382500Y-144435000D03*
X165382500Y-144935000D03*
X165382500Y-145435000D03*
X165382500Y-145935000D03*
X165382500Y-146435000D03*
X165382500Y-146935000D03*
X165382500Y-147435000D03*
X165382500Y-147935000D03*
X165382500Y-148435000D03*
X165382500Y-148935000D03*
X165382500Y-149435000D03*
D21*
X166795000Y-150847500D03*
X167295000Y-150847500D03*
X167795000Y-150847500D03*
X168295000Y-150847500D03*
X168795000Y-150847500D03*
X169295000Y-150847500D03*
X169795000Y-150847500D03*
X170295000Y-150847500D03*
X170795000Y-150847500D03*
X171295000Y-150847500D03*
X171795000Y-150847500D03*
X172295000Y-150847500D03*
D22*
X173707500Y-149435000D03*
X173707500Y-148935000D03*
X173707500Y-148435000D03*
X173707500Y-147935000D03*
X173707500Y-147435000D03*
X173707500Y-146935000D03*
X173707500Y-146435000D03*
X173707500Y-145935000D03*
X173707500Y-145435000D03*
X173707500Y-144935000D03*
X173707500Y-144435000D03*
X173707500Y-143935000D03*
%TD*%
D23*
%TO.C,JP1*%
X224790000Y-159078000D03*
D24*
X224790000Y-160528000D03*
%TD*%
D25*
%TO.C,J2*%
X191135000Y-153035000D03*
D17*
X191135000Y-150495000D03*
X193675000Y-153035000D03*
X193675000Y-150495000D03*
%TD*%
D20*
%TO.C,TP6*%
X138612000Y-168275000D03*
%TD*%
D26*
%TO.C,J1*%
X117595400Y-140478000D03*
X113595400Y-140478000D03*
D27*
X116895400Y-141278000D03*
X116245400Y-141278000D03*
X115595400Y-141278000D03*
X114945400Y-141278000D03*
X114295400Y-141278000D03*
D28*
X119645400Y-138168000D03*
X111545400Y-138168000D03*
D29*
X112345400Y-140668000D03*
X118845400Y-140668000D03*
%TD*%
D20*
%TO.C,TP1*%
X123190000Y-141478000D03*
%TD*%
D10*
%TO.C,S7*%
X138243000Y-172966200D03*
X131893000Y-175506200D03*
D11*
X135703000Y-178046200D03*
%TD*%
D10*
%TO.C,S12*%
X150943000Y-165506200D03*
X157293000Y-162966200D03*
D11*
X154753000Y-168046200D03*
%TD*%
D10*
%TO.C,S17*%
X176343000Y-160966200D03*
D11*
X173803000Y-166046200D03*
D10*
X169993000Y-163506200D03*
%TD*%
D11*
%TO.C,S22*%
X192853000Y-170046200D03*
D10*
X195393000Y-164966200D03*
X189043000Y-167506200D03*
%TD*%
%TO.C,S30*%
X208093000Y-171506200D03*
X214443000Y-168966200D03*
D11*
X211903000Y-174046200D03*
%TD*%
D10*
%TO.C,S5*%
X119193000Y-192016200D03*
X112843000Y-194556200D03*
D11*
X116653000Y-197096200D03*
%TD*%
D10*
%TO.C,S8*%
X131893000Y-194556200D03*
X138243000Y-192016200D03*
D11*
X135703000Y-197096200D03*
%TD*%
D10*
%TO.C,S13*%
X150943000Y-184556200D03*
X157293000Y-182016200D03*
D11*
X154753000Y-187096200D03*
%TD*%
D10*
%TO.C,S18*%
X176343000Y-180016200D03*
D11*
X173803000Y-185096200D03*
D10*
X169993000Y-182556200D03*
%TD*%
%TO.C,S23*%
X189043000Y-186556200D03*
D11*
X192853000Y-189096200D03*
D10*
X195393000Y-184016200D03*
%TD*%
%TO.C,S31*%
X214443000Y-188016200D03*
X208093000Y-190556200D03*
D11*
X211903000Y-193096200D03*
%TD*%
D10*
%TO.C,S2*%
X108116516Y-213597880D03*
X114466516Y-211057880D03*
D11*
X111926516Y-216137880D03*
%TD*%
D10*
%TO.C,S9*%
X131893000Y-213606200D03*
X138243000Y-211066200D03*
D11*
X135703000Y-216146200D03*
%TD*%
%TO.C,S14*%
X154753000Y-206146200D03*
D10*
X157293000Y-201066200D03*
X150943000Y-203606200D03*
%TD*%
D11*
%TO.C,S19*%
X173803000Y-204146200D03*
D10*
X176343000Y-199066200D03*
X169993000Y-201606200D03*
%TD*%
%TO.C,S24*%
X195393000Y-203066200D03*
X189043000Y-205606200D03*
D11*
X192853000Y-208146200D03*
%TD*%
D10*
%TO.C,S32*%
X214443000Y-207066200D03*
X208093000Y-209606200D03*
D11*
X211903000Y-212146200D03*
%TD*%
D10*
%TO.C,S3*%
X112045456Y-230115156D03*
X105695456Y-232655156D03*
D11*
X109505456Y-235195156D03*
%TD*%
%TO.C,S10*%
X135703000Y-235196200D03*
D10*
X131893000Y-232656200D03*
X138243000Y-230116200D03*
%TD*%
D11*
%TO.C,S15*%
X154753000Y-225196200D03*
D10*
X157293000Y-220116200D03*
X150943000Y-222656200D03*
%TD*%
%TO.C,S20*%
X169993000Y-220656200D03*
D11*
X173803000Y-223196200D03*
D10*
X176343000Y-218116200D03*
%TD*%
D11*
%TO.C,S25*%
X192853000Y-227196200D03*
D10*
X189043000Y-224656200D03*
X195393000Y-222116200D03*
%TD*%
%TO.C,S33*%
X208093000Y-228656200D03*
X214443000Y-226116200D03*
D11*
X211903000Y-231196200D03*
%TD*%
%TO.C,S6*%
X116653000Y-254246200D03*
D10*
X112843000Y-251706200D03*
X119193000Y-249166200D03*
%TD*%
D11*
%TO.C,S11*%
X135703000Y-254246200D03*
D10*
X131893000Y-251706200D03*
X138243000Y-249166200D03*
%TD*%
%TO.C,S16*%
X150943000Y-241706200D03*
D11*
X154753000Y-244246200D03*
D10*
X157293000Y-239166200D03*
%TD*%
D11*
%TO.C,S21*%
X173803000Y-242246200D03*
D10*
X169993000Y-239706200D03*
X176343000Y-237166200D03*
%TD*%
%TO.C,S26*%
X189043000Y-243706200D03*
X195393000Y-241166200D03*
D11*
X192853000Y-246246200D03*
%TD*%
D12*
%TO.C,D9*%
X126761000Y-186032200D03*
D13*
X126761000Y-178412200D03*
%TD*%
D12*
%TO.C,D14*%
X145811000Y-176032200D03*
D13*
X145811000Y-168412200D03*
%TD*%
D12*
%TO.C,D19*%
X164861000Y-174032200D03*
D13*
X164861000Y-166412200D03*
%TD*%
D12*
%TO.C,D24*%
X183911000Y-178032200D03*
D13*
X183911000Y-170412200D03*
%TD*%
D12*
%TO.C,D32*%
X202961000Y-182032200D03*
D13*
X202961000Y-174412200D03*
%TD*%
D12*
%TO.C,D7*%
X107711000Y-205082200D03*
D13*
X107711000Y-197462200D03*
%TD*%
D12*
%TO.C,D10*%
X126761000Y-205082200D03*
D13*
X126761000Y-197462200D03*
%TD*%
D12*
%TO.C,D15*%
X145811000Y-195082200D03*
D13*
X145811000Y-187462200D03*
%TD*%
D12*
%TO.C,D20*%
X164861000Y-193082200D03*
D13*
X164861000Y-185462200D03*
%TD*%
D12*
%TO.C,D25*%
X183911000Y-197082200D03*
D13*
X183911000Y-189462200D03*
%TD*%
D12*
%TO.C,D33*%
X202961000Y-201082200D03*
D13*
X202961000Y-193462200D03*
%TD*%
D12*
%TO.C,D4*%
X102331600Y-224155000D03*
D13*
X102331600Y-216535000D03*
%TD*%
D12*
%TO.C,D11*%
X126761000Y-224132200D03*
D13*
X126761000Y-216512200D03*
%TD*%
D12*
%TO.C,D16*%
X145811000Y-214132200D03*
D13*
X145811000Y-206512200D03*
%TD*%
D12*
%TO.C,D21*%
X164861000Y-212132200D03*
D13*
X164861000Y-204512200D03*
%TD*%
D12*
%TO.C,D26*%
X183911000Y-216132200D03*
D13*
X183911000Y-208512200D03*
%TD*%
D12*
%TO.C,D34*%
X202961000Y-220132200D03*
D13*
X202961000Y-212512200D03*
%TD*%
D12*
%TO.C,D5*%
X99695000Y-243205000D03*
D13*
X99695000Y-235585000D03*
%TD*%
D12*
%TO.C,D12*%
X126761000Y-243182200D03*
D13*
X126761000Y-235562200D03*
%TD*%
D12*
%TO.C,D17*%
X145811000Y-233182200D03*
D13*
X145811000Y-225562200D03*
%TD*%
D12*
%TO.C,D22*%
X164861000Y-231182200D03*
D13*
X164861000Y-223562200D03*
%TD*%
D12*
%TO.C,D27*%
X183911000Y-235182200D03*
D13*
X183911000Y-227562200D03*
%TD*%
D12*
%TO.C,D35*%
X202961000Y-239182200D03*
D13*
X202961000Y-231562200D03*
%TD*%
D12*
%TO.C,D8*%
X107711000Y-262232200D03*
D13*
X107711000Y-254612200D03*
%TD*%
D12*
%TO.C,D13*%
X126761000Y-262232200D03*
D13*
X126761000Y-254612200D03*
%TD*%
D12*
%TO.C,D18*%
X145811000Y-252232200D03*
D13*
X145811000Y-244612200D03*
%TD*%
D12*
%TO.C,D23*%
X164861000Y-250232200D03*
D13*
X164861000Y-242612200D03*
%TD*%
D12*
%TO.C,D28*%
X183911000Y-254232200D03*
D13*
X183911000Y-246612200D03*
%TD*%
D20*
%TO.C,TP8*%
X103864800Y-168490200D03*
%TD*%
%TO.C,TP22*%
X106934000Y-141986000D03*
%TD*%
D30*
%TO.C,H5*%
X231140000Y-165100000D03*
%TD*%
%TO.C,H6*%
X93980000Y-154940000D03*
%TD*%
%TO.C,H2*%
X165100000Y-259080000D03*
%TD*%
%TO.C,H7*%
X93980000Y-215900000D03*
%TD*%
D31*
%TO.C,J9*%
X160020000Y-289560000D03*
D17*
X162560000Y-289560000D03*
X160020000Y-292100000D03*
X162560000Y-292100000D03*
X160020000Y-294640000D03*
X162560000Y-294640000D03*
X160020000Y-297180000D03*
X162560000Y-297180000D03*
%TD*%
D30*
%TO.C,H1*%
X261620000Y-330200000D03*
%TD*%
%TO.C,H3*%
X90170000Y-330200000D03*
%TD*%
D20*
%TO.C,TP23*%
X102870000Y-141986000D03*
%TD*%
D30*
%TO.C,H4*%
X231140000Y-233680000D03*
%TD*%
D32*
%TO.C,SW1*%
X126475000Y-151725000D03*
X138975000Y-151725000D03*
X126475000Y-146725000D03*
X138975000Y-146725000D03*
%TD*%
D33*
%TO.C,SW2*%
X142925750Y-154294250D03*
D13*
X142925750Y-151754250D03*
X142925750Y-149214250D03*
X142925750Y-146674250D03*
X142925750Y-144134250D03*
X150545750Y-144134250D03*
X150545750Y-146674250D03*
X150545750Y-149214250D03*
X150545750Y-151754250D03*
X150545750Y-154294250D03*
%TD*%
M02*
