M48
; DRILL file {KiCad (6.0.0)} date Sun Jan  2 22:46:42 2022
; FORMAT={-:-/ absolute / metric / decimal}
; #@! TF.CreationDate,2022-01-02T22:46:42-08:00
; #@! TF.GenerationSoftware,Kicad,Pcbnew,(6.0.0)
; #@! TF.FileFunction,Plated,1,4,PTH
FMAT,2
METRIC
; #@! TA.AperFunction,Plated,PTH,ViaDrill
T1C0.200
; #@! TA.AperFunction,Plated,PTH,ViaDrill
T2C0.300
; #@! TA.AperFunction,Plated,PTH,ViaDrill
T3C0.400
; #@! TA.AperFunction,Plated,PTH,ComponentDrill
T4C0.800
; #@! TA.AperFunction,Plated,PTH,ComponentDrill
T5C1.000
; #@! TA.AperFunction,Plated,PTH,ComponentDrill
T6C1.300
; #@! TA.AperFunction,Plated,PTH,ComponentDrill
T7C1.321
%
G90
G05
T1
X106.045Y-167.64
X118.11Y-144.145
X121.92Y-167.64
X140.97Y-167.64
X142.621Y-287.274
X145.669Y-288.29
X153.416Y-154.94
X154.178Y-154.686
X154.784Y-154.432
X155.448Y-154.178
X156.21Y-153.924
X156.972Y-153.67
X159.385Y-151.765
X159.893Y-287.02
X163.576Y-149.098
X164.084Y-149.606
X164.465Y-156.845
X166.497Y-289.56
X166.624Y-144.78
X168.91Y-144.018
X169.926Y-149.098
X170.688Y-149.606
X171.45Y-149.225
X172.212Y-145.542
X172.212Y-147.066
X175.006Y-146.685
X175.006Y-150.368
X175.898Y-153.208
X176.022Y-153.924
X176.784Y-155.702
X198.12Y-159.385
X214.63Y-243.84
X217.424Y-162.814
T2
X99.06Y-148.336
X104.14Y-148.844
X106.934Y-153.416
X107.315Y-150.495
X109.728Y-153.416
X112.522Y-149.352
X114.3Y-142.875
X123.19Y-151.765
X135.89Y-140.97
X156.845Y-142.158
X163.83Y-153.416
X165.039Y-150.628
X166.878Y-148.336
X168.323Y-140.676
X169.545Y-140.335
X171.45Y-152.4
X172.786Y-152.31
X174.056Y-142.728
X175.26Y-144.78
X175.26Y-151.765
T3
X175.006Y-140.462
X225.044Y-155.282
X225.044Y-156.21
T4
X88.701Y-254.774
X88.701Y-262.394
X99.695Y-235.585
X99.695Y-243.205
X102.332Y-216.535
X102.332Y-224.155
X107.711Y-178.412
X107.711Y-186.032
X107.711Y-197.462
X107.711Y-205.082
X107.711Y-254.612
X107.711Y-262.232
X126.761Y-178.412
X126.761Y-186.032
X126.761Y-197.462
X126.761Y-205.082
X126.761Y-216.512
X126.761Y-224.132
X126.761Y-235.562
X126.761Y-243.182
X126.761Y-254.612
X126.761Y-262.232
X142.926Y-144.134
X142.926Y-146.674
X142.926Y-149.214
X142.926Y-151.754
X142.926Y-154.294
X145.811Y-168.412
X145.811Y-176.032
X145.811Y-187.462
X145.811Y-195.082
X145.811Y-206.512
X145.811Y-214.132
X145.811Y-225.562
X145.811Y-233.182
X145.811Y-244.612
X145.811Y-252.232
X150.546Y-144.134
X150.546Y-146.674
X150.546Y-149.214
X150.546Y-151.754
X150.546Y-154.294
X164.861Y-166.412
X164.861Y-174.032
X164.861Y-185.462
X164.861Y-193.082
X164.861Y-204.512
X164.861Y-212.132
X164.861Y-223.562
X164.861Y-231.182
X164.861Y-242.612
X164.861Y-250.232
X183.911Y-170.412
X183.911Y-178.032
X183.911Y-189.462
X183.911Y-197.082
X183.911Y-208.512
X183.911Y-216.132
X183.911Y-227.562
X183.911Y-235.182
X183.911Y-246.612
X183.911Y-254.232
X201.346Y-256.286
X201.346Y-263.906
X202.961Y-174.412
X202.961Y-182.032
X202.961Y-193.462
X202.961Y-201.082
X202.961Y-212.512
X202.961Y-220.132
X202.961Y-231.562
X202.961Y-239.182
X219.075Y-269.24
X219.075Y-276.86
X229.87Y-288.29
X229.87Y-295.91
T5
X160.02Y-289.56
X160.02Y-292.1
X160.02Y-294.64
X160.02Y-297.18
X162.56Y-289.56
X162.56Y-292.1
X162.56Y-294.64
X162.56Y-297.18
X184.155Y-150.49
X184.155Y-153.03
X186.695Y-150.49
X186.695Y-153.03
X191.135Y-150.495
X191.135Y-153.035
X193.675Y-150.495
X193.675Y-153.035
T6
X126.475Y-146.725
X126.475Y-151.725
X138.975Y-146.725
X138.975Y-151.725
T7
X217.317Y-149.733
X219.817Y-139.733
X219.817Y-152.233
X224.817Y-149.733
X229.817Y-139.733
X229.817Y-152.233
X232.317Y-149.733
T0
M30
